<svg xmlns="http://www.w3.org/2000/svg" width="1920" height="1080"><path fill="#EDE5EC" d="M1012.3,527.5L1031.2,388.3L936.4,379.6Z" shape-rendering="crispEdges"/><path fill="#F2EDF3" d="M936.4,379.6L871,559.4L1012.3,527.5Z" shape-rendering="crispEdges"/><path fill="#DFD3E3" d="M1031.2,388.3L1024.2,293.4L936.4,379.6Z" shape-rendering="crispEdges"/><path fill="#E8E7E6" d="M1012.3,527.5L1183.2,442.3L1031.2,388.3Z" shape-rendering="crispEdges"/><path fill="#D3C8D7" d="M1031.2,388.3L1136.2,249.7L1024.2,293.4Z" shape-rendering="crispEdges"/><path fill="#E5F3E1" d="M1126.5,714.3L1191,524.8L1012.3,527.5Z" shape-rendering="crispEdges"/><path fill="#E7EDE4" d="M1012.3,527.5L1191,524.8L1183.2,442.3Z" shape-rendering="crispEdges"/><path fill="#D8C7DE" d="M1024.2,293.4L933.8,225.8L936.4,379.6Z" shape-rendering="crispEdges"/><path fill="#ECDEEC" d="M936.4,379.6L749.2,394.7L871,559.4Z" shape-rendering="crispEdges"/><path fill="#DCC8E1" d="M766.5,300.2L749.2,394.7L936.4,379.6Z" shape-rendering="crispEdges"/><path fill="#D7D3D9" d="M1183.2,442.3L1136.2,249.7L1031.2,388.3Z" shape-rendering="crispEdges"/><path fill="#C4AECB" d="M1024.2,293.4L1040,101.9L933.8,225.8Z" shape-rendering="crispEdges"/><path fill="#D5C1DC" d="M933.8,225.8L766.5,300.2L936.4,379.6Z" shape-rendering="crispEdges"/><path fill="#E7F3E3" d="M886.7,704.2L1048.8,706.4L1012.3,527.5Z" shape-rendering="crispEdges"/><path fill="#E5EAE3" d="M777.3,642L886.7,704.2L871,559.4Z" shape-rendering="crispEdges"/><path fill="#EEF2EC" d="M871,559.4L886.7,704.2L1012.3,527.5Z" shape-rendering="crispEdges"/><path fill="#E3D0E6" d="M661.2,425.5L721.6,532.9L749.2,394.7Z" shape-rendering="crispEdges"/><path fill="#ECDFED" d="M749.2,394.7L721.6,532.9L871,559.4Z" shape-rendering="crispEdges"/><path fill="#EBE6EA" d="M721.6,532.9L777.3,642L871,559.4Z" shape-rendering="crispEdges"/><path fill="#CBE9C6" d="M1060.4,772.8L1126.5,714.3L1048.8,706.4Z" shape-rendering="crispEdges"/><path fill="#E0F2DB" d="M1048.8,706.4L1126.5,714.3L1012.3,527.5Z" shape-rendering="crispEdges"/><path fill="#D2B9DA" d="M618.1,266.2L661.2,425.5L749.2,394.7Z" shape-rendering="crispEdges"/><path fill="#E0DBE1" d="M721.6,532.9L607.8,637.3L777.3,642Z" shape-rendering="crispEdges"/><path fill="#D3EBCE" d="M886.7,704.2L1060.4,772.8L1048.8,706.4Z" shape-rendering="crispEdges"/><path fill="#D2EBCD" d="M1339.5,668.7L1321.9,537.7L1191,524.8Z" shape-rendering="crispEdges"/><path fill="#D9E4D5" d="M1191,524.8L1332.8,446.8L1183.2,442.3Z" shape-rendering="crispEdges"/><path fill="#C7C7C9" d="M1183.2,442.3L1311.5,269.9L1136.2,249.7Z" shape-rendering="crispEdges"/><path fill="#D5E7D1" d="M1321.9,537.7L1332.8,446.8L1191,524.8Z" shape-rendering="crispEdges"/><path fill="#B69DB9" d="M1129.7,117.4L1040,101.9L1136.2,249.7Z" shape-rendering="crispEdges"/><path fill="#C0B0C7" d="M1136.2,249.7L1040,101.9L1024.2,293.4Z" shape-rendering="crispEdges"/><path fill="#C5AACE" d="M933.8,225.8L756.9,170.1L766.5,300.2Z" shape-rendering="crispEdges"/><path fill="#BC98C3" d="M892.7,93.4L756.9,170.1L933.8,225.8Z" shape-rendering="crispEdges"/><path fill="#CEB4D7" d="M766.5,300.2L618.1,266.2L749.2,394.7Z" shape-rendering="crispEdges"/><path fill="#B5ACBA" d="M1311.5,269.9L1129.7,117.4L1136.2,249.7Z" shape-rendering="crispEdges"/><path fill="#BD99C2" d="M1040,101.9L892.7,93.4L933.8,225.8Z" shape-rendering="crispEdges"/><path fill="#E3D4E7" d="M661.2,425.5L621.5,565L721.6,532.9Z" shape-rendering="crispEdges"/><path fill="#BFD7BC" d="M725.2,814.1L881.5,852.9L886.7,704.2Z" shape-rendering="crispEdges"/><path fill="#C9D2C8" d="M1332.8,446.8L1311.5,269.9L1183.2,442.3Z" shape-rendering="crispEdges"/><path fill="#C0A2CB" d="M756.9,170.1L618.1,266.2L766.5,300.2Z" shape-rendering="crispEdges"/><path fill="#DDCCE2" d="M661.2,425.5L506.1,546.1L621.5,565Z" shape-rendering="crispEdges"/><path fill="#D1DECE" d="M725.2,814.1L886.7,704.2L777.3,642Z" shape-rendering="crispEdges"/><path fill="#C8E4C4" d="M886.7,704.2L881.5,852.9L1060.4,772.8Z" shape-rendering="crispEdges"/><path fill="#D7CDDC" d="M506.1,546.1L607.8,637.3L621.5,565Z" shape-rendering="crispEdges"/><path fill="#DFD6E2" d="M621.5,565L607.8,637.3L721.6,532.9Z" shape-rendering="crispEdges"/><path fill="#D2EDCC" d="M1126.5,714.3L1339.5,668.7L1191,524.8Z" shape-rendering="crispEdges"/><path fill="#CAE2C6" d="M1321.9,537.7L1426.7,534.7L1332.8,446.8Z" shape-rendering="crispEdges"/><path fill="#B9E3B3" d="M1207.3,847L1339.5,668.7L1126.5,714.3Z" shape-rendering="crispEdges"/><path fill="#BAE1B5" d="M1207.3,847L1126.5,714.3L1060.4,772.8Z" shape-rendering="crispEdges"/><path fill="#CFD6CE" d="M607.8,637.3L725.2,814.1L777.3,642Z" shape-rendering="crispEdges"/><path fill="#C6E6C1" d="M1339.5,668.7L1426.7,534.7L1321.9,537.7Z" shape-rendering="crispEdges"/><path fill="#A9B4AC" d="M1462.1,374.7L1394.3,238.5L1311.5,269.9Z" shape-rendering="crispEdges"/><path fill="#A2D39F" d="M1131.4,927.8L1207.3,847L1060.4,772.8Z" shape-rendering="crispEdges"/><path fill="#A789A8" d="M1129.7,117.4L1184.1,37.6L1040,101.9Z" shape-rendering="crispEdges"/><path fill="#AA86AD" d="M1040,101.9L985.3,-15L892.7,93.4Z" shape-rendering="crispEdges"/><path fill="#9F879E" d="M1340,117.4L1184.1,37.6L1129.7,117.4Z" shape-rendering="crispEdges"/><path fill="#9E81A0" d="M1184.1,37.6L985.3,-15L1040,101.9Z" shape-rendering="crispEdges"/><path fill="#AE80B3" d="M892.7,93.4L766.9,31.4L756.9,170.1Z" shape-rendering="crispEdges"/><path fill="#B28BBD" d="M756.9,170.1L653,103.9L618.1,266.2Z" shape-rendering="crispEdges"/><path fill="#B9C7B8" d="M1462.1,374.7L1311.5,269.9L1332.8,446.8Z" shape-rendering="crispEdges"/><path fill="#A79BA9" d="M1311.5,269.9L1340,117.4L1129.7,117.4Z" shape-rendering="crispEdges"/><path fill="#9F77A4" d="M864.9,-10.2L766.9,31.4L892.7,93.4Z" shape-rendering="crispEdges"/><path fill="#9E7AA2" d="M985.3,-15L864.9,-10.2L892.7,93.4Z" shape-rendering="crispEdges"/><path fill="#AA79B0" d="M766.9,31.4L653,103.9L756.9,170.1Z" shape-rendering="crispEdges"/><path fill="#C4A7D0" d="M516.5,272.8L661.2,425.5L618.1,266.2Z" shape-rendering="crispEdges"/><path fill="#D3BBDA" d="M468.3,389.9L506.1,546.1L661.2,425.5Z" shape-rendering="crispEdges"/><path fill="#BAC7BA" d="M607.8,637.3L599.8,840.8L725.2,814.1Z" shape-rendering="crispEdges"/><path fill="#BED4BB" d="M1426.7,534.7L1462.1,374.7L1332.8,446.8Z" shape-rendering="crispEdges"/><path fill="#979498" d="M1422.2,161.3L1340,117.4L1394.3,238.5Z" shape-rendering="crispEdges"/><path fill="#A2A3A5" d="M1394.3,238.5L1340,117.4L1311.5,269.9Z" shape-rendering="crispEdges"/><path fill="#AB87BB" d="M473.8,133.4L516.5,272.8L618.1,266.2Z" shape-rendering="crispEdges"/><path fill="#9DC49E" d="M905.6,946.3L1024.9,946.8L881.5,852.9Z" shape-rendering="crispEdges"/><path fill="#ABD4AA" d="M881.5,852.9L1024.9,946.8L1060.4,772.8Z" shape-rendering="crispEdges"/><path fill="#99BB9A" d="M737.5,955.4L905.6,946.3L881.5,852.9Z" shape-rendering="crispEdges"/><path fill="#9DCC9C" d="M1024.9,946.8L1131.4,927.8L1060.4,772.8Z" shape-rendering="crispEdges"/><path fill="#C6A9D1" d="M516.5,272.8L468.3,389.9L661.2,425.5Z" shape-rendering="crispEdges"/><path fill="#8BC889" d="M1280.3,909.6L1302.2,850.9L1207.3,847Z" shape-rendering="crispEdges"/><path fill="#A3D89E" d="M1207.3,847L1302.2,850.9L1339.5,668.7Z" shape-rendering="crispEdges"/><path fill="#B5DEB0" d="M1339.5,668.7L1460.6,703.7L1426.7,534.7Z" shape-rendering="crispEdges"/><path fill="#909D94" d="M1614.8,311.4L1422.2,161.3L1394.3,238.5Z" shape-rendering="crispEdges"/><path fill="#C4BAC9" d="M378.8,672.6L498.8,689.6L506.1,546.1Z" shape-rendering="crispEdges"/><path fill="#CEC6D2" d="M506.1,546.1L498.8,689.6L607.8,637.3Z" shape-rendering="crispEdges"/><path fill="#A2C1A2" d="M725.2,814.1L737.5,955.4L881.5,852.9Z" shape-rendering="crispEdges"/><path fill="#BDC3BF" d="M498.8,689.6L599.8,840.8L607.8,637.3Z" shape-rendering="crispEdges"/><path fill="#A0D69B" d="M1447.1,803.9L1460.6,703.7L1339.5,668.7Z" shape-rendering="crispEdges"/><path fill="#AFCAAD" d="M1426.7,534.7L1563,424.1L1462.1,374.7Z" shape-rendering="crispEdges"/><path fill="#8CC48B" d="M1131.4,927.8L1280.3,909.6L1207.3,847Z" shape-rendering="crispEdges"/><path fill="#9CD597" d="M1302.2,850.9L1447.1,803.9L1339.5,668.7Z" shape-rendering="crispEdges"/><path fill="#79AF7C" d="M1149.9,1107.9L1280.3,909.6L1131.4,927.8Z" shape-rendering="crispEdges"/><path fill="#9CB79E" d="M599.8,840.8L737.5,955.4L725.2,814.1Z" shape-rendering="crispEdges"/><path fill="#88AE8C" d="M905.6,946.3L1009.3,1115.8L1024.9,946.8Z" shape-rendering="crispEdges"/><path fill="#AACDA9" d="M1595.3,534L1563,424.1L1426.7,534.7Z" shape-rendering="crispEdges"/><path fill="#9AAD9D" d="M1462.1,374.7L1614.8,311.4L1394.3,238.5Z" shape-rendering="crispEdges"/><path fill="#72BB74" d="M1463.2,968.1L1447.1,803.9L1302.2,850.9Z" shape-rendering="crispEdges"/><path fill="#ACD6A9" d="M1460.6,703.7L1595.3,534L1426.7,534.7Z" shape-rendering="crispEdges"/><path fill="#99799B" d="M1070.8,-154L902,-132.8L985.3,-15Z" shape-rendering="crispEdges"/><path fill="#98769C" d="M985.3,-15L902,-132.8L864.9,-10.2Z" shape-rendering="crispEdges"/><path fill="#936B97" d="M864.9,-10.2L744.6,-140L766.9,31.4Z" shape-rendering="crispEdges"/><path fill="#94679C" d="M766.9,31.4L596.8,-6.5L653,103.9Z" shape-rendering="crispEdges"/><path fill="#937893" d="M1070.8,-154L985.3,-15L1184.1,37.6Z" shape-rendering="crispEdges"/><path fill="#8A7A88" d="M1341,-26.2L1184.1,37.6L1340,117.4Z" shape-rendering="crispEdges"/><path fill="#8C6292" d="M744.6,-140L596.8,-6.5L766.9,31.4Z" shape-rendering="crispEdges"/><path fill="#A77CB4" d="M653,103.9L473.8,133.4L618.1,266.2Z" shape-rendering="crispEdges"/><path fill="#B290C0" d="M341.2,253.4L362.8,402.6L468.3,389.9Z" shape-rendering="crispEdges"/><path fill="#9462A0" d="M596.8,-6.5L473.8,133.4L653,103.9Z" shape-rendering="crispEdges"/><path fill="#AEB7B0" d="M498.8,689.6L476.5,776.3L599.8,840.8Z" shape-rendering="crispEdges"/><path fill="#8FA993" d="M599.8,840.8L579.4,916.1L737.5,955.4Z" shape-rendering="crispEdges"/><path fill="#B4B3B7" d="M378.8,672.6L476.5,776.3L498.8,689.6Z" shape-rendering="crispEdges"/><path fill="#8A7E89" d="M1399.8,3.4L1340,117.4L1422.2,161.3Z" shape-rendering="crispEdges"/><path fill="#7E747C" d="M1399.8,3.4L1341,-26.2L1340,117.4Z" shape-rendering="crispEdges"/><path fill="#89A08F" d="M485.8,942.2L579.4,916.1L599.8,840.8Z" shape-rendering="crispEdges"/><path fill="#8E778D" d="M1204.7,-167.9L1070.8,-154L1184.1,37.6Z" shape-rendering="crispEdges"/><path fill="#7D757C" d="M1569.3,109.5L1399.8,3.4L1422.2,161.3Z" shape-rendering="crispEdges"/><path fill="#B08EBF" d="M341.2,253.4L468.3,389.9L516.5,272.8Z" shape-rendering="crispEdges"/><path fill="#CAB2D3" d="M468.3,389.9L348.1,537.2L506.1,546.1Z" shape-rendering="crispEdges"/><path fill="#98CC96" d="M1603.1,711.3L1595.3,534L1460.6,703.7Z" shape-rendering="crispEdges"/><path fill="#C2A4CB" d="M362.8,402.6L348.1,537.2L468.3,389.9Z" shape-rendering="crispEdges"/><path fill="#956F99" d="M902,-132.8L744.6,-140L864.9,-10.2Z" shape-rendering="crispEdges"/><path fill="#98759B" d="M1070.8,-154L744.6,-140L902,-132.8Z" shape-rendering="crispEdges"/><path fill="#C5B5CC" d="M348.1,537.2L378.8,672.6L506.1,546.1Z" shape-rendering="crispEdges"/><path fill="#92A697" d="M476.5,776.3L485.8,942.2L599.8,840.8Z" shape-rendering="crispEdges"/><path fill="#746C72" d="M1474.1,-178L1293.7,-106.6L1341,-26.2Z" shape-rendering="crispEdges"/><path fill="#80727F" d="M1341,-26.2L1293.7,-106.6L1184.1,37.6Z" shape-rendering="crispEdges"/><path fill="#819C87" d="M579.4,916.1L720.1,1044.5L737.5,955.4Z" shape-rendering="crispEdges"/><path fill="#88A68B" d="M737.5,955.4L720.1,1044.5L905.6,946.3Z" shape-rendering="crispEdges"/><path fill="#80AE83" d="M1024.9,946.8L1149.9,1107.9L1131.4,927.8Z" shape-rendering="crispEdges"/><path fill="#8FAA93" d="M1711.3,411.2L1614.8,311.4L1563,424.1Z" shape-rendering="crispEdges"/><path fill="#9AB49C" d="M1563,424.1L1614.8,311.4L1462.1,374.7Z" shape-rendering="crispEdges"/><path fill="#819C85" d="M720.1,1044.5L889.6,1106.1L905.6,946.3Z" shape-rendering="crispEdges"/><path fill="#857484" d="M1293.7,-106.6L1204.7,-167.9L1184.1,37.6Z" shape-rendering="crispEdges"/><path fill="#946E98" d="M1070.8,-154L640.2,-149.4L744.6,-140Z" shape-rendering="crispEdges"/><path fill="#809E84" d="M889.6,1106.1L1009.3,1115.8L905.6,946.3Z" shape-rendering="crispEdges"/><path fill="#62B267" d="M1463.2,968.1L1552.3,839.6L1447.1,803.9Z" shape-rendering="crispEdges"/><path fill="#A079B1" d="M473.8,133.4L341.2,253.4L516.5,272.8Z" shape-rendering="crispEdges"/><path fill="#BE9CC5" d="M362.8,402.6L216.4,511.6L348.1,537.2Z" shape-rendering="crispEdges"/><path fill="#905FA1" d="M307.2,112.7L341.2,253.4L473.8,133.4Z" shape-rendering="crispEdges"/><path fill="#81C581" d="M1552.3,839.6L1460.6,703.7L1447.1,803.9Z" shape-rendering="crispEdges"/><path fill="#82C481" d="M1552.3,839.6L1603.1,711.3L1460.6,703.7Z" shape-rendering="crispEdges"/><path fill="#99B99A" d="M1595.3,534L1711.3,411.2L1563,424.1Z" shape-rendering="crispEdges"/><path fill="#799E7C" d="M1009.3,1115.8L1149.9,1107.9L1024.9,946.8Z" shape-rendering="crispEdges"/><path fill="#808B84" d="M1614.8,311.4L1569.3,109.5L1422.2,161.3Z" shape-rendering="crispEdges"/><path fill="#6F696D" d="M1399.8,3.4L1474.1,-178L1341,-26.2Z" shape-rendering="crispEdges"/><path fill="#885D90" d="M744.6,-140L640.2,-149.4L596.8,-6.5Z" shape-rendering="crispEdges"/><path fill="#82518E" d="M596.8,-6.5L451.8,-26.4L473.8,133.4Z" shape-rendering="crispEdges"/><path fill="#9A799C" d="M1204.7,-167.9L640.2,-149.4L1070.8,-154Z" shape-rendering="crispEdges"/><path fill="#74B876" d="M1463.2,968.1L1302.2,850.9L1280.3,909.6Z" shape-rendering="crispEdges"/><path fill="#8F9E94" d="M377.1,805.4L485.8,942.2L476.5,776.3Z" shape-rendering="crispEdges"/><path fill="#758A7C" d="M579.4,916.1L581.3,1099L720.1,1044.5Z" shape-rendering="crispEdges"/><path fill="#A9A0AC" d="M238.2,656.2L377.1,805.4L378.8,672.6Z" shape-rendering="crispEdges"/><path fill="#A7AAAA" d="M378.8,672.6L377.1,805.4L476.5,776.3Z" shape-rendering="crispEdges"/><path fill="#5AA060" d="M1428.8,1078.8L1463.2,968.1L1280.3,909.6Z" shape-rendering="crispEdges"/><path fill="#7B4D86" d="M526.8,-134.3L451.8,-26.4L596.8,-6.5Z" shape-rendering="crispEdges"/><path fill="#95BA98" d="M1705.5,572.1L1711.3,411.2L1595.3,534Z" shape-rendering="crispEdges"/><path fill="#76867E" d="M1614.8,311.4L1681.2,229.7L1569.3,109.5Z" shape-rendering="crispEdges"/><path fill="#84BA86" d="M1725.9,684.7L1705.5,572.1L1603.1,711.3Z" shape-rendering="crispEdges"/><path fill="#93C294" d="M1603.1,711.3L1705.5,572.1L1595.3,534Z" shape-rendering="crispEdges"/><path fill="#809787" d="M1711.3,411.2L1681.2,229.7L1614.8,311.4Z" shape-rendering="crispEdges"/><path fill="#6A946C" d="M1139.7,1221L1281.1,1125.8L1149.9,1107.9Z" shape-rendering="crispEdges"/><path fill="#689A6B" d="M1149.9,1107.9L1281.1,1125.8L1280.3,909.6Z" shape-rendering="crispEdges"/><path fill="#81558B" d="M640.2,-149.4L526.8,-134.3L596.8,-6.5Z" shape-rendering="crispEdges"/><path fill="#656367" d="M1678.3,119.4L1605.2,40.8L1569.3,109.5Z" shape-rendering="crispEdges"/><path fill="#686768" d="M1569.3,109.5L1605.2,40.8L1399.8,3.4Z" shape-rendering="crispEdges"/><path fill="#7B7079" d="M1293.7,-106.6L1474.1,-178L1204.7,-167.9Z" shape-rendering="crispEdges"/><path fill="#784685" d="M392.9,-29.5L473.8,133.4L451.8,-26.4Z" shape-rendering="crispEdges"/><path fill="#7F498E" d="M392.9,-29.5L307.2,112.7L473.8,133.4Z" shape-rendering="crispEdges"/><path fill="#B488BB" d="M175.8,366.5L216.4,511.6L362.8,402.6Z" shape-rendering="crispEdges"/><path fill="#759878" d="M1009.3,1115.8L1060.4,1204.4L1149.9,1107.9Z" shape-rendering="crispEdges"/><path fill="#7B997F" d="M879.6,1251.2L1060.4,1204.4L1009.3,1115.8Z" shape-rendering="crispEdges"/><path fill="#7C9780" d="M879.6,1251.2L1009.3,1115.8L889.6,1106.1Z" shape-rendering="crispEdges"/><path fill="#788C7B" d="M757.4,1219.2L889.6,1106.1L720.1,1044.5Z" shape-rendering="crispEdges"/><path fill="#744480" d="M526.8,-134.3L392.9,-29.5L451.8,-26.4Z" shape-rendering="crispEdges"/><path fill="#687671" d="M471.3,1084.7L581.3,1099L485.8,942.2Z" shape-rendering="crispEdges"/><path fill="#74897D" d="M485.8,942.2L581.3,1099L579.4,916.1Z" shape-rendering="crispEdges"/><path fill="#A97EB5" d="M175.8,366.5L362.8,402.6L341.2,253.4Z" shape-rendering="crispEdges"/><path fill="#B9A5BD" d="M348.1,537.2L238.2,656.2L378.8,672.6Z" shape-rendering="crispEdges"/><path fill="#BB9CC0" d="M216.4,511.6L238.2,656.2L348.1,537.2Z" shape-rendering="crispEdges"/><path fill="#7A8B81" d="M377.1,805.4L369.5,969.6L485.8,942.2Z" shape-rendering="crispEdges"/><path fill="#4B9E56" d="M1463.2,968.1L1549.7,986.4L1552.3,839.6Z" shape-rendering="crispEdges"/><path fill="#72B175" d="M1742.9,781.2L1725.9,684.7L1603.1,711.3Z" shape-rendering="crispEdges"/><path fill="#5D9861" d="M1281.1,1125.8L1428.8,1078.8L1280.3,909.6Z" shape-rendering="crispEdges"/><path fill="#508955" d="M1400.9,1198.2L1428.8,1078.8L1281.1,1125.8Z" shape-rendering="crispEdges"/><path fill="#58565C" d="M1689.1,25.6L1678.3,119.4L1848.5,151.3Z" shape-rendering="crispEdges"/><path fill="#6C7070" d="M1681.2,229.7L1678.3,119.4L1569.3,109.5Z" shape-rendering="crispEdges"/><path fill="#448F4F" d="M1428.8,1078.8L1549.7,986.4L1463.2,968.1Z" shape-rendering="crispEdges"/><path fill="#6BB26F" d="M1742.9,781.2L1603.1,711.3L1552.3,839.6Z" shape-rendering="crispEdges"/><path fill="#89A98D" d="M1705.5,572.1L1811.8,406.1L1711.3,411.2Z" shape-rendering="crispEdges"/><path fill="#719774" d="M1060.4,1204.4L1139.7,1221L1149.9,1107.9Z" shape-rendering="crispEdges"/><path fill="#708176" d="M581.3,1099L757.4,1219.2L720.1,1044.5Z" shape-rendering="crispEdges"/><path fill="#78997C" d="M1060.4,1204.4L879.6,1251.2L1139.7,1221Z" shape-rendering="crispEdges"/><path fill="#77817C" d="M255.7,915.5L369.5,969.6L377.1,805.4Z" shape-rendering="crispEdges"/><path fill="#6E7D74" d="M581.3,1099L615.4,1248.4L757.4,1219.2Z" shape-rendering="crispEdges"/><path fill="#575A57" d="M1589.2,-167.8L1474.1,-178L1605.2,40.8Z" shape-rendering="crispEdges"/><path fill="#60605F" d="M1605.2,40.8L1474.1,-178L1399.8,3.4Z" shape-rendering="crispEdges"/><path fill="#61256D" d="M-49.1,-151.4L199.5,-145L640.2,-149.4Z" shape-rendering="crispEdges"/><path fill="#79907D" d="M757.4,1219.2L879.6,1251.2L889.6,1106.1Z" shape-rendering="crispEdges"/><path fill="#9C6AA9" d="M170.4,289L175.8,366.5L341.2,253.4Z" shape-rendering="crispEdges"/><path fill="#9A8699" d="M96.5,682.2L216.9,840.8L238.2,656.2Z" shape-rendering="crispEdges"/><path fill="#687872" d="M369.5,969.6L471.3,1084.7L485.8,942.2Z" shape-rendering="crispEdges"/><path fill="#639166" d="M1139.7,1221L1309.3,1194.4L1281.1,1125.8Z" shape-rendering="crispEdges"/><path fill="#377E43" d="M1428.8,1078.8L1541.3,1127.2L1549.7,986.4Z" shape-rendering="crispEdges"/><path fill="#8E589D" d="M207.5,125.3L170.4,289L341.2,253.4Z" shape-rendering="crispEdges"/><path fill="#884E97" d="M207.5,125.3L341.2,253.4L307.2,112.7Z" shape-rendering="crispEdges"/><path fill="#616868" d="M1848.5,151.3L1678.3,119.4L1681.2,229.7Z" shape-rendering="crispEdges"/><path fill="#59595B" d="M1678.3,119.4L1689.1,25.6L1605.2,40.8Z" shape-rendering="crispEdges"/><path fill="#479C53" d="M1692.4,971.3L1742.9,781.2L1552.3,839.6Z" shape-rendering="crispEdges"/><path fill="#86A68A" d="M1869.6,505.6L1811.8,406.1L1705.5,572.1Z" shape-rendering="crispEdges"/><path fill="#7C9583" d="M1711.3,411.2L1811.8,406.1L1681.2,229.7Z" shape-rendering="crispEdges"/><path fill="#7CAF7F" d="M1820,700.4L1705.5,572.1L1725.9,684.7Z" shape-rendering="crispEdges"/><path fill="#773384" d="M251.4,22.7L207.5,125.3L307.2,112.7Z" shape-rendering="crispEdges"/><path fill="#673073" d="M327.3,-120.7L251.4,22.7L392.9,-29.5Z" shape-rendering="crispEdges"/><path fill="#6F357C" d="M392.9,-29.5L251.4,22.7L307.2,112.7Z" shape-rendering="crispEdges"/><path fill="#989199" d="M238.2,656.2L216.9,840.8L377.1,805.4Z" shape-rendering="crispEdges"/><path fill="#5C6465" d="M365.5,1126.5L505.9,1211.4L471.3,1084.7Z" shape-rendering="crispEdges"/><path fill="#B48FB7" d="M109.4,536.5L238.2,656.2L216.4,511.6Z" shape-rendering="crispEdges"/><path fill="#7E8281" d="M216.9,840.8L255.7,915.5L377.1,805.4Z" shape-rendering="crispEdges"/><path fill="#578D5B" d="M1309.3,1194.4L1400.9,1198.2L1281.1,1125.8Z" shape-rendering="crispEdges"/><path fill="#3E944C" d="M1549.7,986.4L1692.4,971.3L1552.3,839.6Z" shape-rendering="crispEdges"/><path fill="#5E8F61" d="M1139.7,1221L1400.9,1198.2L1309.3,1194.4Z" shape-rendering="crispEdges"/><path fill="#287138" d="M1607.4,1208.7L1400.9,1198.2L1726.5,1250.3Z" shape-rendering="crispEdges"/><path fill="#6F3F7C" d="M526.8,-134.3L327.3,-120.7L392.9,-29.5Z" shape-rendering="crispEdges"/><path fill="#693576" d="M199.5,-145L327.3,-120.7L526.8,-134.3Z" shape-rendering="crispEdges"/><path fill="#4E514F" d="M1674.3,-118.1L1589.2,-167.8L1605.2,40.8Z" shape-rendering="crispEdges"/><path fill="#A97AAF" d="M99.6,389.9L216.4,511.6L175.8,366.5Z" shape-rendering="crispEdges"/><path fill="#AB80B0" d="M99.6,389.9L109.4,536.5L216.4,511.6Z" shape-rendering="crispEdges"/><path fill="#9766A0" d="M99.6,389.9L175.8,366.5L77.3,305.7Z" shape-rendering="crispEdges"/><path fill="#626D6B" d="M505.9,1211.4L581.3,1099L471.3,1084.7Z" shape-rendering="crispEdges"/><path fill="#67746F" d="M505.9,1211.4L615.4,1248.4L581.3,1099Z" shape-rendering="crispEdges"/><path fill="#76887A" d="M757.4,1219.2L615.4,1248.4L879.6,1251.2Z" shape-rendering="crispEdges"/><path fill="#58995E" d="M1860.1,837.9L1820,700.4L1742.9,781.2Z" shape-rendering="crispEdges"/><path fill="#6AA76E" d="M1742.9,781.2L1820,700.4L1725.9,684.7Z" shape-rendering="crispEdges"/><path fill="#408048" d="M1400.9,1198.2L1541.3,1127.2L1428.8,1078.8Z" shape-rendering="crispEdges"/><path fill="#9462A0" d="M77.3,305.7L175.8,366.5L170.4,289Z" shape-rendering="crispEdges"/><path fill="#2C7C3D" d="M1541.3,1127.2L1692.4,971.3L1549.7,986.4Z" shape-rendering="crispEdges"/><path fill="#81AA84" d="M1820,700.4L1869.6,505.6L1705.5,572.1Z" shape-rendering="crispEdges"/><path fill="#6E7F76" d="M1811.8,406.1L1871.3,228.1L1681.2,229.7Z" shape-rendering="crispEdges"/><path fill="#5B6365" d="M365.5,1126.5L471.3,1084.7L369.5,969.6Z" shape-rendering="crispEdges"/><path fill="#4A4D4C" d="M1689.1,25.6L1674.3,-118.1L1605.2,40.8Z" shape-rendering="crispEdges"/><path fill="#414444" d="M1834.7,-12.5L1674.3,-118.1L1689.1,25.6Z" shape-rendering="crispEdges"/><path fill="#9D809F" d="M-13.6,573L96.5,682.2L109.4,536.5Z" shape-rendering="crispEdges"/><path fill="#A789A8" d="M109.4,536.5L96.5,682.2L238.2,656.2Z" shape-rendering="crispEdges"/><path fill="#5B595F" d="M97,928L226.1,1073.9L255.7,915.5Z" shape-rendering="crispEdges"/><path fill="#52515A" d="M347.8,1179L365.5,1126.5L226.1,1073.9Z" shape-rendering="crispEdges"/><path fill="#56585E" d="M226.1,1073.9L365.5,1126.5L369.5,969.6Z" shape-rendering="crispEdges"/><path fill="#804B8D" d="M64.6,129L77.3,305.7L170.4,289Z" shape-rendering="crispEdges"/><path fill="#A17BA5" d="M99.6,389.9L-13.6,573L109.4,536.5Z" shape-rendering="crispEdges"/><path fill="#7C3F8A" d="M64.6,129L170.4,289L207.5,125.3Z" shape-rendering="crispEdges"/><path fill="#641D70" d="M64.6,129L207.5,125.3L114.2,-32.8Z" shape-rendering="crispEdges"/><path fill="#6D7D75" d="M1958.2,370.5L1871.3,228.1L1811.8,406.1Z" shape-rendering="crispEdges"/><path fill="#606969" d="M1871.3,228.1L1848.5,151.3L1681.2,229.7Z" shape-rendering="crispEdges"/><path fill="#585F62" d="M365.5,1126.5L347.8,1179L505.9,1211.4Z" shape-rendering="crispEdges"/><path fill="#5C6465" d="M505.9,1211.4L219,1213.6L615.4,1248.4Z" shape-rendering="crispEdges"/><path fill="#5F6465" d="M226.1,1073.9L369.5,969.6L255.7,915.5Z" shape-rendering="crispEdges"/><path fill="#368645" d="M1821.9,980.1L1860.1,837.9L1742.9,781.2Z" shape-rendering="crispEdges"/><path fill="#739D76" d="M1820,700.4L1945.1,712.6L1869.6,505.6Z" shape-rendering="crispEdges"/><path fill="#2D8341" d="M1821.9,980.1L1742.9,781.2L1692.4,971.3Z" shape-rendering="crispEdges"/><path fill="#641D70" d="M114.2,-32.8L207.5,125.3L251.4,22.7Z" shape-rendering="crispEdges"/><path fill="#80747E" d="M-45.1,720L59.8,831.5L96.5,682.2Z" shape-rendering="crispEdges"/><path fill="#423C46" d="M1953.5,40.8L1834.7,-12.5L1848.5,151.3Z" shape-rendering="crispEdges"/><path fill="#49464C" d="M1848.5,151.3L1834.7,-12.5L1689.1,25.6Z" shape-rendering="crispEdges"/><path fill="#6D6A6E" d="M97,928L255.7,915.5L216.9,840.8Z" shape-rendering="crispEdges"/><path fill="#734480" d="M640.2,-149.4L199.5,-145L526.8,-134.3Z" shape-rendering="crispEdges"/><path fill="#61246D" d="M327.3,-120.7L199.5,-145L251.4,22.7Z" shape-rendering="crispEdges"/><path fill="#82568C" d="M-49.1,-151.4L640.2,-149.4L1204.7,-167.9Z" shape-rendering="crispEdges"/><path fill="#79907D" d="M2007.1,540.8L1958.2,370.5L1869.6,505.6Z" shape-rendering="crispEdges"/><path fill="#7A8F7E" d="M1869.6,505.6L1958.2,370.5L1811.8,406.1Z" shape-rendering="crispEdges"/><path fill="#55575D" d="M1871.3,228.1L1933.7,160L1848.5,151.3Z" shape-rendering="crispEdges"/><path fill="#33793F" d="M1400.9,1198.2L1607.4,1208.7L1541.3,1127.2Z" shape-rendering="crispEdges"/><path fill="#1D6C32" d="M1541.3,1127.2L1748.7,1074.8L1692.4,971.3Z" shape-rendering="crispEdges"/><path fill="#46834E" d="M1726.5,1250.3L1400.9,1198.2L1139.7,1221Z" shape-rendering="crispEdges"/><path fill="#5A1566" d="M199.5,-145L114.2,-32.8L251.4,22.7Z" shape-rendering="crispEdges"/><path fill="#1F6A32" d="M1607.4,1208.7L1748.7,1074.8L1541.3,1127.2Z" shape-rendering="crispEdges"/><path fill="#827881" d="M96.5,682.2L59.8,831.5L216.9,840.8Z" shape-rendering="crispEdges"/><path fill="#946E98" d="M-13.6,573L99.6,389.9L-96,424.6Z" shape-rendering="crispEdges"/><path fill="#146B30" d="M1748.7,1074.8L1821.9,980.1L1692.4,971.3Z" shape-rendering="crispEdges"/><path fill="#875991" d="M-60.2,298.8L99.6,389.9L77.3,305.7Z" shape-rendering="crispEdges"/><path fill="#565B5F" d="M2021.1,242.2L1933.7,160L1871.3,228.1Z" shape-rendering="crispEdges"/><path fill="#6B696B" d="M59.8,831.5L97,928L216.9,840.8Z" shape-rendering="crispEdges"/><path fill="#46834D" d="M1953.2,852.7L1945.1,712.6L1860.1,837.9Z" shape-rendering="crispEdges"/><path fill="#5A935F" d="M1860.1,837.9L1945.1,712.6L1820,700.4Z" shape-rendering="crispEdges"/><path fill="#54105F" d="M199.5,-145L115.7,-116.5L114.2,-32.8Z" shape-rendering="crispEdges"/><path fill="#581464" d="M-91.9,-2.3L-58.9,172.5L64.6,129Z" shape-rendering="crispEdges"/><path fill="#77987A" d="M1945.1,712.6L2007.1,540.8L1869.6,505.6Z" shape-rendering="crispEdges"/><path fill="#433A48" d="M2109.7,42.2L1953.5,40.8L1933.7,160Z" shape-rendering="crispEdges"/><path fill="#6E397B" d="M-58.9,172.5L77.3,305.7L64.6,129Z" shape-rendering="crispEdges"/><path fill="#744480" d="M-58.9,172.5L-60.2,298.8L77.3,305.7Z" shape-rendering="crispEdges"/><path fill="#2C743A" d="M1957.2,933.3L1953.2,852.7L1860.1,837.9Z" shape-rendering="crispEdges"/><path fill="#77987A" d="M2147,652L2147.6,573.1L2007.1,540.8Z" shape-rendering="crispEdges"/><path fill="#227036" d="M1957.2,933.3L1860.1,837.9L1821.9,980.1Z" shape-rendering="crispEdges"/><path fill="#917891" d="M-218,570.3L-45.1,720L-13.6,573Z" shape-rendering="crispEdges"/><path fill="#8E788D" d="M-13.6,573L-45.1,720L96.5,682.2Z" shape-rendering="crispEdges"/><path fill="#555756" d="M59.8,831.5L-50.1,951.1L97,928Z" shape-rendering="crispEdges"/><path fill="#616B6A" d="M2021.1,242.2L1871.3,228.1L1958.2,370.5Z" shape-rendering="crispEdges"/><path fill="#4C4351" d="M1933.7,160L1953.5,40.8L1848.5,151.3Z" shape-rendering="crispEdges"/><path fill="#3C3D3F" d="M1834.7,-12.5L1849.1,-172.9L1674.3,-118.1Z" shape-rendering="crispEdges"/><path fill="#444747" d="M1674.3,-118.1L1849.1,-172.9L1589.2,-167.8Z" shape-rendering="crispEdges"/><path fill="#64706D" d="M2140.9,292.5L2021.1,242.2L1958.2,370.5Z" shape-rendering="crispEdges"/><path fill="#4C4F4E" d="M1589.2,-167.8L1849.1,-172.9L1474.1,-178Z" shape-rendering="crispEdges"/><path fill="#332F37" d="M2005.2,-153.2L1849.1,-172.9L1834.7,-12.5Z" shape-rendering="crispEdges"/><path fill="#4B0857" d="M-91.9,-2.3L64.6,129L114.2,-32.8Z" shape-rendering="crispEdges"/><path fill="#82568C" d="M-183.5,287.3L-96,424.6L-60.2,298.8Z" shape-rendering="crispEdges"/><path fill="#885D90" d="M-60.2,298.8L-96,424.6L99.6,389.9Z" shape-rendering="crispEdges"/><path fill="#0C5D28" d="M1748.7,1074.8L1875,1041.6L1821.9,980.1Z" shape-rendering="crispEdges"/><path fill="#01471D" d="M1944.7,1098.6L1875,1041.6L1872,1204.5Z" shape-rendering="crispEdges"/><path fill="#4B474F" d="M65.8,1058.8L226.1,1073.9L97,928Z" shape-rendering="crispEdges"/><path fill="#483E4D" d="M88.2,1196.6L219,1213.6L226.1,1073.9Z" shape-rendering="crispEdges"/><path fill="#4F4A55" d="M226.1,1073.9L219,1213.6L347.8,1179Z" shape-rendering="crispEdges"/><path fill="#55585E" d="M347.8,1179L219,1213.6L505.9,1211.4Z" shape-rendering="crispEdges"/><path fill="#6D686C" d="M-45.1,720L-40.7,831.3L59.8,831.5Z" shape-rendering="crispEdges"/><path fill="#595C59" d="M-50.1,951.1L-40.7,831.3L-199.8,816.6Z" shape-rendering="crispEdges"/><path fill="#0D5F2A" d="M1875,1041.6L1957.2,933.3L1821.9,980.1Z" shape-rendering="crispEdges"/><path fill="#7B957F" d="M2147.6,573.1L2124.2,410.3L2007.1,540.8Z" shape-rendering="crispEdges"/><path fill="#629165" d="M879.6,1251.2L1726.5,1250.3L1139.7,1221Z" shape-rendering="crispEdges"/><path fill="#14622C" d="M1607.4,1208.7L1726.5,1250.3L1748.7,1074.8Z" shape-rendering="crispEdges"/><path fill="#055122" d="M1875,1041.6L1944.7,1098.6L1957.2,933.3Z" shape-rendering="crispEdges"/><path fill="#454748" d="M-50.1,951.1L65.8,1058.8L97,928Z" shape-rendering="crispEdges"/><path fill="#6F696D" d="M-199.8,816.6L-40.7,831.3L-45.1,720Z" shape-rendering="crispEdges"/><path fill="#585A58" d="M-40.7,831.3L-50.1,951.1L59.8,831.5Z" shape-rendering="crispEdges"/><path fill="#413846" d="M65.8,1058.8L88.2,1196.6L226.1,1073.9Z" shape-rendering="crispEdges"/><path fill="#709773" d="M2007.1,540.8L1945.1,712.6L2147,652Z" shape-rendering="crispEdges"/><path fill="#788B7B" d="M2007.1,540.8L2124.2,410.3L1958.2,370.5Z" shape-rendering="crispEdges"/><path fill="#4F4A55" d="M2021.1,242.2L2109.7,42.2L1933.7,160Z" shape-rendering="crispEdges"/><path fill="#352F39" d="M-48.5,1077.7L88.2,1196.6L65.8,1058.8Z" shape-rendering="crispEdges"/><path fill="#40004B" d="M-49.1,-151.4L-91.9,-2.3L114.2,-32.8Z" shape-rendering="crispEdges"/><path fill="#73437F" d="M-58.9,172.5L-183.5,287.3L-60.2,298.8Z" shape-rendering="crispEdges"/><path fill="#054F21" d="M1872,1204.5L1875,1041.6L1748.7,1074.8Z" shape-rendering="crispEdges"/><path fill="#5D8F60" d="M2147,652L1945.1,712.6L2126.5,809.3Z" shape-rendering="crispEdges"/><path fill="#085625" d="M1726.5,1250.3L1872,1204.5L1748.7,1074.8Z" shape-rendering="crispEdges"/><path fill="#6A3777" d="M-156.7,151.4L-183.5,287.3L-58.9,172.5Z" shape-rendering="crispEdges"/><path fill="#99779C" d="M-96,424.6L-218,570.3L-13.6,573Z" shape-rendering="crispEdges"/><path fill="#5A1566" d="M-91.9,-2.3L-156.7,151.4L-58.9,172.5Z" shape-rendering="crispEdges"/><path fill="#6C7B73" d="M2124.2,410.3L2140.9,292.5L1958.2,370.5Z" shape-rendering="crispEdges"/><path fill="#312C35" d="M1953.5,40.8L2005.2,-153.2L1834.7,-12.5Z" shape-rendering="crispEdges"/><path fill="#498550" d="M1945.1,712.6L1953.2,852.7L2126.5,809.3Z" shape-rendering="crispEdges"/><path fill="#76897A" d="M2124.2,410.3L2147.6,573.1L2140.9,292.5Z" shape-rendering="crispEdges"/><path fill="#2C743A" d="M2126.5,809.3L1953.2,852.7L2128,964.2Z" shape-rendering="crispEdges"/><path fill="#480653" d="M115.7,-116.5L-49.1,-151.4L114.2,-32.8Z" shape-rendering="crispEdges"/><path fill="#4E0B59" d="M-91.9,-2.3L-196.6,24L-156.7,151.4Z" shape-rendering="crispEdges"/><path fill="#4C0957" d="M199.5,-145L-49.1,-151.4L115.7,-116.5Z" shape-rendering="crispEdges"/><path fill="#97729A" d="M1474.1,-178L-49.1,-151.4L1204.7,-167.9Z" shape-rendering="crispEdges"/><path fill="#312C35" d="M2109.7,42.2L2005.2,-153.2L1953.5,40.8Z" shape-rendering="crispEdges"/><path fill="#6F3E7C" d="M-196.6,24L-217,383.3L-183.5,287.3Z" shape-rendering="crispEdges"/><path fill="#875C8F" d="M-183.5,287.3L-217,383.3L-96,424.6Z" shape-rendering="crispEdges"/><path fill="#946D98" d="M-217,383.3L-218,570.3L-96,424.6Z" shape-rendering="crispEdges"/><path fill="#3E3F41" d="M-223.3,953.8L-48.5,1077.7L-50.1,951.1Z" shape-rendering="crispEdges"/><path fill="#38373C" d="M-50.1,951.1L-48.5,1077.7L65.8,1058.8Z" shape-rendering="crispEdges"/><path fill="#206A33" d="M2128,964.2L1953.2,852.7L1957.2,933.3Z" shape-rendering="crispEdges"/><path fill="#4F4B56" d="M2150.9,178.1L2109.7,42.2L2021.1,242.2Z" shape-rendering="crispEdges"/><path fill="#5A6163" d="M2140.9,292.5L2150.9,178.1L2021.1,242.2Z" shape-rendering="crispEdges"/><path fill="#6B7972" d="M2147.6,573.1L2150.9,178.1L2140.9,292.5Z" shape-rendering="crispEdges"/><path fill="#759878" d="M2149.1,1045.3L2150.9,178.1L2147.6,573.1Z" shape-rendering="crispEdges"/><path fill="#9A799D" d="M-217,383.3L-232.6,665.5L-218,570.3Z" shape-rendering="crispEdges"/><path fill="#8D778C" d="M-218,570.3L-232.6,665.5L-45.1,720Z" shape-rendering="crispEdges"/><path fill="#7D717B" d="M-232.6,665.5L-199.8,816.6L-45.1,720Z" shape-rendering="crispEdges"/><path fill="#40004B" d="M-192,-111.2L-196.6,24L-91.9,-2.3Z" shape-rendering="crispEdges"/><path fill="#62276E" d="M-156.7,151.4L-196.6,24L-183.5,287.3Z" shape-rendering="crispEdges"/><path fill="#3A7D44" d="M2126.5,809.3L2149.1,1045.3L2147,652Z" shape-rendering="crispEdges"/><path fill="#095725" d="M1944.7,1098.6L2128,964.2L1957.2,933.3Z" shape-rendering="crispEdges"/><path fill="#044E20" d="M2149.1,1045.3L2128,964.2L1944.7,1098.6Z" shape-rendering="crispEdges"/><path fill="#034B1F" d="M1726.5,1250.3L1995.3,1222.3L1872,1204.5Z" shape-rendering="crispEdges"/><path fill="#00441B" d="M1872,1204.5L1995.3,1222.3L1944.7,1098.6Z" shape-rendering="crispEdges"/><path fill="#36303A" d="M2150.9,178.1L2114.5,-149.7L2109.7,42.2Z" shape-rendering="crispEdges"/><path fill="#312C35" d="M2109.7,42.2L2114.5,-149.7L2005.2,-153.2Z" shape-rendering="crispEdges"/><path fill="#312C35" d="M2005.2,-153.2L2114.5,-149.7L1849.1,-172.9Z" shape-rendering="crispEdges"/><path fill="#312C35" d="M-217.5,1107.1L-77.5,1198.5L-48.5,1077.7Z" shape-rendering="crispEdges"/><path fill="#312C35" d="M-48.5,1077.7L-77.5,1198.5L88.2,1196.6Z" shape-rendering="crispEdges"/><path fill="#3A333F" d="M88.2,1196.6L-77.5,1198.5L219,1213.6Z" shape-rendering="crispEdges"/><path fill="#4A404F" d="M219,1213.6L-232.7,1221.9L615.4,1248.4Z" shape-rendering="crispEdges"/><path fill="#40004B" d="M-49.1,-151.4L-192,-111.2L-91.9,-2.3Z" shape-rendering="crispEdges"/><path fill="#581364" d="M-196.6,24L-192,-111.2L-217,383.3Z" shape-rendering="crispEdges"/><path fill="#7E5189" d="M-217,383.3L-192,-111.2L-232.6,665.5Z" shape-rendering="crispEdges"/><path fill="#505251" d="M-199.8,816.6L-223.3,953.8L-50.1,951.1Z" shape-rendering="crispEdges"/><path fill="#686567" d="M-232.6,665.5L-223.3,953.8L-199.8,816.6Z" shape-rendering="crispEdges"/><path fill="#00441B" d="M2088.9,1199.4L2149.1,1045.3L1944.7,1098.6Z" shape-rendering="crispEdges"/><path fill="#19652E" d="M2128,964.2L2149.1,1045.3L2126.5,809.3Z" shape-rendering="crispEdges"/><path fill="#558C59" d="M2147,652L2149.1,1045.3L2147.6,573.1Z" shape-rendering="crispEdges"/><path fill="#00441B" d="M1995.3,1222.3L2088.9,1199.4L1944.7,1098.6Z" shape-rendering="crispEdges"/><path fill="#363339" d="M-223.3,953.8L-217.5,1107.1L-48.5,1077.7Z" shape-rendering="crispEdges"/><path fill="#464A49" d="M-232.6,665.5L-232.7,1221.9L-223.3,953.8Z" shape-rendering="crispEdges"/><path fill="#312C35" d="M-223.3,953.8L-232.7,1221.9L-217.5,1107.1Z" shape-rendering="crispEdges"/><path fill="#312C35" d="M-217.5,1107.1L-232.7,1221.9L-77.5,1198.5Z" shape-rendering="crispEdges"/><path fill="#312C35" d="M-77.5,1198.5L-232.7,1221.9L219,1213.6Z" shape-rendering="crispEdges"/></svg>