<svg xmlns="http://www.w3.org/2000/svg" width="1920" height="1080"><path fill="#98B0D4" d="M877.9,532.1L851.2,305.6L652.7,510Z" shape-rendering="crispEdges"/><path fill="#ABC5DF" d="M851.2,305.6L517.7,167.9L652.7,510Z" shape-rendering="crispEdges"/><path fill="#B5CCE2" d="M517.7,167.9L353.4,325.1L652.7,510Z" shape-rendering="crispEdges"/><path fill="#9BACD2" d="M877.9,532.1L1181,236.2L851.2,305.6Z" shape-rendering="crispEdges"/><path fill="#C4D7E9" d="M851.2,305.6L737.4,-209.3L517.7,167.9Z" shape-rendering="crispEdges"/><path fill="#ACBFDC" d="M353.4,325.1L346,585.7L652.7,510Z" shape-rendering="crispEdges"/><path fill="#999BC9" d="M652.7,510L517,869.7L877.9,532.1Z" shape-rendering="crispEdges"/><path fill="#8D7BB9" d="M1285.2,781.1L1237.8,532.7L877.9,532.1Z" shape-rendering="crispEdges"/><path fill="#9498C8" d="M877.9,532.1L1237.8,532.7L1181,236.2Z" shape-rendering="crispEdges"/><path fill="#A5A0CC" d="M346,585.7L517,869.7L652.7,510Z" shape-rendering="crispEdges"/><path fill="#9580BB" d="M517,869.7L863.7,976.2L877.9,532.1Z" shape-rendering="crispEdges"/><path fill="#B6BCDB" d="M1181,236.2L970.4,-121.5L851.2,305.6Z" shape-rendering="crispEdges"/><path fill="#AA91C5" d="M346,585.7L411.7,906.5L517,869.7Z" shape-rendering="crispEdges"/><path fill="#866999" d="M517,869.7L570,1276.1L863.7,976.2Z" shape-rendering="crispEdges"/><path fill="#8D70B3" d="M863.7,976.2L1285.2,781.1L877.9,532.1Z" shape-rendering="crispEdges"/><path fill="#C6D1E6" d="M970.4,-121.5L737.4,-209.3L851.2,305.6Z" shape-rendering="crispEdges"/><path fill="#D3E2EE" d="M517.7,167.9L77.1,101.8L353.4,325.1Z" shape-rendering="crispEdges"/><path fill="#BACAE2" d="M353.4,325.1L52.5,501.3L346,585.7Z" shape-rendering="crispEdges"/><path fill="#B49BCB" d="M346,585.7L64.7,799.2L411.7,906.5Z" shape-rendering="crispEdges"/><path fill="#CFDFED" d="M77.1,101.8L52.5,501.3L353.4,325.1Z" shape-rendering="crispEdges"/><path fill="#988BC1" d="M1237.8,532.7L1503.4,424.4L1181,236.2Z" shape-rendering="crispEdges"/><path fill="#C2B3D8" d="M1181,236.2L1383.8,-179.7L970.4,-121.5Z" shape-rendering="crispEdges"/><path fill="#8C6FB2" d="M1285.2,781.1L1503.4,424.4L1237.8,532.7Z" shape-rendering="crispEdges"/><path fill="#A189C1" d="M1503.4,424.4L1529.4,304.9L1181,236.2Z" shape-rendering="crispEdges"/><path fill="#E6F0F6" d="M266.3,-179L77.1,101.8L517.7,167.9Z" shape-rendering="crispEdges"/><path fill="#D9E6F1" d="M737.4,-209.3L266.3,-179L517.7,167.9Z" shape-rendering="crispEdges"/><path fill="#BBB4D8" d="M52.5,501.3L64.7,799.2L346,585.7Z" shape-rendering="crispEdges"/><path fill="#765B8B" d="M570,1276.1L1029,1224.7L863.7,976.2Z" shape-rendering="crispEdges"/><path fill="#804F93" d="M863.7,976.2L1029,1224.7L1285.2,781.1Z" shape-rendering="crispEdges"/><path fill="#8A4EA3" d="M1285.2,781.1L1554.2,971.4L1503.4,424.4Z" shape-rendering="crispEdges"/><path fill="#9572A1" d="M570,1276.1L517,869.7L411.7,906.5Z" shape-rendering="crispEdges"/><path fill="#B89DCC" d="M1529.4,304.9L1383.8,-179.7L1181,236.2Z" shape-rendering="crispEdges"/><path fill="#C4CEE4" d="M970.4,-121.5L961.1,-453.3L737.4,-209.3Z" shape-rendering="crispEdges"/><path fill="#8B6E96" d="M356,1281.3L570,1276.1L411.7,906.5Z" shape-rendering="crispEdges"/><path fill="#C2BFDD" d="M1224.2,-403.1L961.1,-453.3L970.4,-121.5Z" shape-rendering="crispEdges"/><path fill="#D5E3EF" d="M737.4,-209.3L707.2,-496.6L266.3,-179Z" shape-rendering="crispEdges"/><path fill="#C8D5E8" d="M961.1,-453.3L707.2,-496.6L737.4,-209.3Z" shape-rendering="crispEdges"/><path fill="#C2B2D7" d="M1383.8,-179.7L1224.2,-403.1L970.4,-121.5Z" shape-rendering="crispEdges"/><path fill="#96769B" d="M25,1091.1L356,1281.3L411.7,906.5Z" shape-rendering="crispEdges"/><path fill="#762B7F" d="M1368.3,1313.9L1554.2,971.4L1285.2,781.1Z" shape-rendering="crispEdges"/><path fill="#B385B4" d="M1954.2,94.9L1647.4,-88.1L1529.4,304.9Z" shape-rendering="crispEdges"/><path fill="#E1ECF4" d="M707.2,-496.6L191.1,-344.9L266.3,-179Z" shape-rendering="crispEdges"/><path fill="#F4FAFC" d="M266.3,-179L-138.2,-80.7L77.1,101.8Z" shape-rendering="crispEdges"/><path fill="#C08EBD" d="M-440.2,901.1L25,1091.1L64.7,799.2Z" shape-rendering="crispEdges"/><path fill="#B889BA" d="M64.7,799.2L25,1091.1L411.7,906.5Z" shape-rendering="crispEdges"/><path fill="#C097C6" d="M1529.4,304.9L1647.4,-88.1L1383.8,-179.7Z" shape-rendering="crispEdges"/><path fill="#C2A3D0" d="M1383.8,-179.7L1505.2,-493.7L1224.2,-403.1Z" shape-rendering="crispEdges"/><path fill="#AE84AB" d="M1857.6,-145.2L1647.4,-88.1L1954.2,94.9Z" shape-rendering="crispEdges"/><path fill="#F2F8FB" d="M191.1,-344.9L-138.2,-80.7L266.3,-179Z" shape-rendering="crispEdges"/><path fill="#CADAEB" d="M-414.2,114L-374.2,632.9L52.5,501.3Z" shape-rendering="crispEdges"/><path fill="#C2B7D9" d="M52.5,501.3L-374.2,632.9L64.7,799.2Z" shape-rendering="crispEdges"/><path fill="#6D3B7C" d="M1178.7,1435.7L1368.3,1313.9L1029,1224.7Z" shape-rendering="crispEdges"/><path fill="#6D387B" d="M1029,1224.7L1368.3,1313.9L1285.2,781.1Z" shape-rendering="crispEdges"/><path fill="#6F4480" d="M1178.7,1435.7L1029,1224.7L1075.2,1643Z" shape-rendering="crispEdges"/><path fill="#735589" d="M1075.2,1643L1029,1224.7L570,1276.1Z" shape-rendering="crispEdges"/><path fill="#907298" d="M203.7,1544.7L516.8,1554.1L356,1281.3Z" shape-rendering="crispEdges"/><path fill="#896C95" d="M356,1281.3L516.8,1554.1L570,1276.1Z" shape-rendering="crispEdges"/><path fill="#691B6D" d="M1368.3,1313.9L1643.9,1203.4L1554.2,971.4Z" shape-rendering="crispEdges"/><path fill="#8C6D9C" d="M1954.2,94.9L1529.4,304.9L2010.7,590.4Z" shape-rendering="crispEdges"/><path fill="#69196C" d="M1615.3,1507.4L1643.9,1203.4L1368.3,1313.9Z" shape-rendering="crispEdges"/><path fill="#DFEAF3" d="M-414.2,114L52.5,501.3L77.1,101.8Z" shape-rendering="crispEdges"/><path fill="#C198C7" d="M1647.4,-88.1L1505.2,-493.7L1383.8,-179.7Z" shape-rendering="crispEdges"/><path fill="#C2AFD6" d="M1224.2,-403.1L1505.2,-493.7L961.1,-453.3Z" shape-rendering="crispEdges"/><path fill="#C2BFDD" d="M961.1,-453.3L1505.2,-493.7L707.2,-496.6Z" shape-rendering="crispEdges"/><path fill="#F7FCFD" d="M191.1,-344.9L-74.3,-411.5L-138.2,-80.7Z" shape-rendering="crispEdges"/><path fill="#F3F9FB" d="M-138.2,-80.7L-414.2,114L77.1,101.8Z" shape-rendering="crispEdges"/><path fill="#E9F2F7" d="M707.2,-496.6L-74.3,-411.5L191.1,-344.9Z" shape-rendering="crispEdges"/><path fill="#936AA7" d="M1529.4,304.9L1503.4,424.4L2010.7,590.4Z" shape-rendering="crispEdges"/><path fill="#BF8CBB" d="M1647.4,-88.1L1879.1,-346.3L1505.2,-493.7Z" shape-rendering="crispEdges"/><path fill="#884796" d="M2010.7,590.4L1503.4,424.4L1554.2,971.4Z" shape-rendering="crispEdges"/><path fill="#F7FCFD" d="M-407.2,-140.1L-414.2,114L-138.2,-80.7Z" shape-rendering="crispEdges"/><path fill="#712277" d="M2003.3,927.2L2010.7,590.4L1554.2,971.4Z" shape-rendering="crispEdges"/><path fill="#7A628F" d="M516.8,1554.1L1075.2,1643L570,1276.1Z" shape-rendering="crispEdges"/><path fill="#6B2975" d="M1178.7,1435.7L1615.3,1507.4L1368.3,1313.9Z" shape-rendering="crispEdges"/><path fill="#9B7A9D" d="M-76,1417.7L203.7,1544.7L356,1281.3Z" shape-rendering="crispEdges"/><path fill="#816792" d="M516.8,1554.1L203.7,1544.7L1075.2,1643Z" shape-rendering="crispEdges"/><path fill="#9E7B9E" d="M-76,1417.7L356,1281.3L25,1091.1Z" shape-rendering="crispEdges"/><path fill="#C2C6E1" d="M-414.2,114L-440.2,901.1L-374.2,632.9Z" shape-rendering="crispEdges"/><path fill="#C2A2CF" d="M-374.2,632.9L-440.2,901.1L64.7,799.2Z" shape-rendering="crispEdges"/><path fill="#A27EA0" d="M-295.9,1203.6L-76,1417.7L25,1091.1Z" shape-rendering="crispEdges"/><path fill="#F7FCFD" d="M-395.7,-340.2L-407.2,-140.1L-138.2,-80.7Z" shape-rendering="crispEdges"/><path fill="#D8E5F1" d="M-414.2,114L-407.2,-140.1L-440.2,901.1Z" shape-rendering="crispEdges"/><path fill="#A580A3" d="M-440.2,901.1L-295.9,1203.6L25,1091.1Z" shape-rendering="crispEdges"/><path fill="#50004E" d="M2027.2,1114.5L2003.3,927.2L1643.9,1203.4Z" shape-rendering="crispEdges"/><path fill="#690766" d="M1643.9,1203.4L2003.3,927.2L1554.2,971.4Z" shape-rendering="crispEdges"/><path fill="#A27EA0" d="M2379.2,-31.6L1879.1,-346.3L1857.6,-145.2Z" shape-rendering="crispEdges"/><path fill="#B186AE" d="M1857.6,-145.2L1879.1,-346.3L1647.4,-88.1Z" shape-rendering="crispEdges"/><path fill="#6C3279" d="M1075.2,1643L1615.3,1507.4L1178.7,1435.7Z" shape-rendering="crispEdges"/><path fill="#F7FCFD" d="M-74.3,-411.5L-395.7,-340.2L-138.2,-80.7Z" shape-rendering="crispEdges"/><path fill="#51014F" d="M1969.7,1451.2L2027.2,1114.5L1643.9,1203.4Z" shape-rendering="crispEdges"/><path fill="#725488" d="M2313.6,641.9L2318,308.9L2010.7,590.4Z" shape-rendering="crispEdges"/><path fill="#826893" d="M2010.7,590.4L2318,308.9L1954.2,94.9Z" shape-rendering="crispEdges"/><path fill="#A27EA0" d="M1954.2,94.9L2379.2,-31.6L1857.6,-145.2Z" shape-rendering="crispEdges"/><path fill="#6C3379" d="M2313.6,641.9L2010.7,590.4L2003.3,927.2Z" shape-rendering="crispEdges"/><path fill="#6B2774" d="M2355.3,792L2313.6,641.9L2003.3,927.2Z" shape-rendering="crispEdges"/><path fill="#60045D" d="M1615.3,1507.4L1969.7,1451.2L1643.9,1203.4Z" shape-rendering="crispEdges"/><path fill="#5F045C" d="M2215.7,1229.3L2355.3,792L2003.3,927.2Z" shape-rendering="crispEdges"/><path fill="#4D004B" d="M2365.6,1504.9L1969.7,1451.2L1615.3,1507.4Z" shape-rendering="crispEdges"/><path fill="#4D004B" d="M2215.7,1229.3L2003.3,927.2L2027.2,1114.5Z" shape-rendering="crispEdges"/><path fill="#6F4A83" d="M2313.6,641.9L2355.3,792L2318,308.9Z" shape-rendering="crispEdges"/><path fill="#A27EA0" d="M-295.9,1203.6L-371.4,1591L-76,1417.7Z" shape-rendering="crispEdges"/><path fill="#A27EA0" d="M-76,1417.7L-371.4,1591L203.7,1544.7Z" shape-rendering="crispEdges"/><path fill="#94749A" d="M203.7,1544.7L-371.4,1591L1075.2,1643Z" shape-rendering="crispEdges"/><path fill="#A27EA0" d="M-440.2,901.1L-371.4,1591L-295.9,1203.6Z" shape-rendering="crispEdges"/><path fill="#4D004B" d="M1969.7,1451.2L2215.7,1229.3L2027.2,1114.5Z" shape-rendering="crispEdges"/><path fill="#7F6692" d="M2355.3,792L2379.2,-31.6L2318,308.9Z" shape-rendering="crispEdges"/><path fill="#98789C" d="M2318,308.9L2379.2,-31.6L1954.2,94.9Z" shape-rendering="crispEdges"/><path fill="#A27EA0" d="M2379.2,-31.6L2273,-549.9L1879.1,-346.3Z" shape-rendering="crispEdges"/><path fill="#A680A4" d="M1879.1,-346.3L2273,-549.9L1505.2,-493.7Z" shape-rendering="crispEdges"/><path fill="#C199C9" d="M1505.2,-493.7L2273,-549.9L707.2,-496.6Z" shape-rendering="crispEdges"/><path fill="#4D004B" d="M2215.7,1229.3L2365.6,1504.9L2355.3,792Z" shape-rendering="crispEdges"/><path fill="#6C2D77" d="M2355.3,792L2365.6,1504.9L2379.2,-31.6Z" shape-rendering="crispEdges"/><path fill="#4D004B" d="M1969.7,1451.2L2365.6,1504.9L2215.7,1229.3Z" shape-rendering="crispEdges"/><path fill="#660562" d="M1075.2,1643L2365.6,1504.9L1615.3,1507.4Z" shape-rendering="crispEdges"/></svg>