<svg xmlns="http://www.w3.org/2000/svg" width="1920" height="1080"><path fill="#FAFDC9" d="M972.7,571.4L1016.8,570.5L1024.2,517.1Z" shape-rendering="crispEdges"/><path fill="#FDFCC1" d="M1024.2,517.1L975.1,489.2L972.7,571.4Z" shape-rendering="crispEdges"/><path fill="#FFFEBD" d="M975.1,489.2L887.9,553.3L972.7,571.4Z" shape-rendering="crispEdges"/><path fill="#F9FCCC" d="M1016.8,570.5L1103.2,528.6L1024.2,517.1Z" shape-rendering="crispEdges"/><path fill="#FBF4BA" d="M1024.2,517.1L1058.7,423.1L975.1,489.2Z" shape-rendering="crispEdges"/><path fill="#F1F9DC" d="M960.6,669.7L1040.5,651L972.7,571.4Z" shape-rendering="crispEdges"/><path fill="#F4FAD6" d="M972.7,571.4L1040.5,651L1016.8,570.5Z" shape-rendering="crispEdges"/><path fill="#F2F9D9" d="M1016.8,570.5L1088.1,631.2L1103.2,528.6Z" shape-rendering="crispEdges"/><path fill="#FFF8B5" d="M975.1,489.2L872.2,520.4L887.9,553.3Z" shape-rendering="crispEdges"/><path fill="#F8F5C7" d="M1103.2,528.6L1086.5,449.2L1024.2,517.1Z" shape-rendering="crispEdges"/><path fill="#FFF3AD" d="M975.1,489.2L861.5,453.1L872.2,520.4Z" shape-rendering="crispEdges"/><path fill="#EEF8E1" d="M1040.5,651L1088.1,631.2L1016.8,570.5Z" shape-rendering="crispEdges"/><path fill="#F9F1BD" d="M1086.5,449.2L1058.7,423.1L1024.2,517.1Z" shape-rendering="crispEdges"/><path fill="#F4F8D4" d="M873.1,644.9L960.6,669.7L972.7,571.4Z" shape-rendering="crispEdges"/><path fill="#FDEFAF" d="M1058.7,423.1L966,400.1L975.1,489.2Z" shape-rendering="crispEdges"/><path fill="#EEF8E1" d="M1088.1,631.2L1132,597L1103.2,528.6Z" shape-rendering="crispEdges"/><path fill="#F5F0C8" d="M1103.2,528.6L1161.7,441.8L1086.5,449.2Z" shape-rendering="crispEdges"/><path fill="#FFF0A8" d="M966,400.1L861.5,453.1L975.1,489.2Z" shape-rendering="crispEdges"/><path fill="#F7F3C6" d="M816.9,639.1L873.1,644.9L887.9,553.3Z" shape-rendering="crispEdges"/><path fill="#F9F8C6" d="M887.9,553.3L873.1,644.9L972.7,571.4Z" shape-rendering="crispEdges"/><path fill="#F9F2BD" d="M816.9,639.1L887.9,553.3L794.1,580.8Z" shape-rendering="crispEdges"/><path fill="#FFE2A0" d="M1042.8,351L962.2,377.5L966,400.1Z" shape-rendering="crispEdges"/><path fill="#FFE69C" d="M966,400.1L899,369.5L861.5,453.1Z" shape-rendering="crispEdges"/><path fill="#E6F5EA" d="M1197,630.6L1175.5,564.7L1132,597Z" shape-rendering="crispEdges"/><path fill="#EFF8E0" d="M1132,597L1175.5,564.7L1103.2,528.6Z" shape-rendering="crispEdges"/><path fill="#E2EFD4" d="M873.2,751.4L977.8,729.7L960.6,669.7Z" shape-rendering="crispEdges"/><path fill="#E6F4DE" d="M960.6,669.7L977.8,729.7L1040.5,651Z" shape-rendering="crispEdges"/><path fill="#E4F4ED" d="M1040.5,651L1114.6,702.4L1088.1,631.2Z" shape-rendering="crispEdges"/><path fill="#E5F4F1" d="M1088.1,631.2L1114.6,702.4L1132,597Z" shape-rendering="crispEdges"/><path fill="#FFE99D" d="M834.5,424.5L807.1,490.1L861.5,453.1Z" shape-rendering="crispEdges"/><path fill="#FFEEA6" d="M861.5,453.1L807.1,490.1L872.2,520.4Z" shape-rendering="crispEdges"/><path fill="#F1F3D3" d="M1198.4,530.4L1161.7,441.8L1103.2,528.6Z" shape-rendering="crispEdges"/><path fill="#F8E6B4" d="M1086.5,449.2L1105.8,346.9L1058.7,423.1Z" shape-rendering="crispEdges"/><path fill="#FCE4A8" d="M1058.7,423.1L1042.8,351L966,400.1Z" shape-rendering="crispEdges"/><path fill="#FADEAB" d="M1105.8,346.9L1042.8,351L1058.7,423.1Z" shape-rendering="crispEdges"/><path fill="#FFD990" d="M934.5,279.9L899,369.5L962.2,377.5Z" shape-rendering="crispEdges"/><path fill="#FFE39A" d="M962.2,377.5L899,369.5L966,400.1Z" shape-rendering="crispEdges"/><path fill="#FFE498" d="M899,369.5L834.5,424.5L861.5,453.1Z" shape-rendering="crispEdges"/><path fill="#DCEFE8" d="M1046.1,745.6L1114.6,702.4L1040.5,651Z" shape-rendering="crispEdges"/><path fill="#FEF6B5" d="M794.1,580.8L887.9,553.3L872.2,520.4Z" shape-rendering="crispEdges"/><path fill="#E8EFD2" d="M873.1,644.9L873.2,751.4L960.6,669.7Z" shape-rendering="crispEdges"/><path fill="#FFF3AC" d="M807.1,490.1L794.1,580.8L872.2,520.4Z" shape-rendering="crispEdges"/><path fill="#E6F4E1" d="M1244.4,604L1198.4,530.4L1175.5,564.7Z" shape-rendering="crispEdges"/><path fill="#F0F8DC" d="M1175.5,564.7L1198.4,530.4L1103.2,528.6Z" shape-rendering="crispEdges"/><path fill="#DEF0E1" d="M977.8,729.7L1046.1,745.6L1040.5,651Z" shape-rendering="crispEdges"/><path fill="#E1F3F6" d="M1114.6,702.4L1197,630.6L1132,597Z" shape-rendering="crispEdges"/><path fill="#F6E6BB" d="M1161.7,441.8L1105.8,346.9L1086.5,449.2Z" shape-rendering="crispEdges"/><path fill="#FFE79B" d="M726.5,448.8L761.5,510.3L807.1,490.1Z" shape-rendering="crispEdges"/><path fill="#FFEFA7" d="M807.1,490.1L761.5,510.3L794.1,580.8Z" shape-rendering="crispEdges"/><path fill="#E9E5C3" d="M728.4,700.7L795.7,736.5L816.9,639.1Z" shape-rendering="crispEdges"/><path fill="#E4E8CA" d="M795.7,736.5L873.2,751.4L873.1,644.9Z" shape-rendering="crispEdges"/><path fill="#D4EADD" d="M977.8,729.7L1031.3,783.8L1046.1,745.6Z" shape-rendering="crispEdges"/><path fill="#D2E7D8" d="M967.6,804.3L1031.3,783.8L977.8,729.7Z" shape-rendering="crispEdges"/><path fill="#CCE8EE" d="M1096.4,795.4L1168.9,733.6L1114.6,702.4Z" shape-rendering="crispEdges"/><path fill="#D8EFF2" d="M1239.6,668.1L1244.4,604L1197,630.6Z" shape-rendering="crispEdges"/><path fill="#FFD085" d="M889.4,264.8L826.8,347.3L899,369.5Z" shape-rendering="crispEdges"/><path fill="#FFDB8F" d="M899,369.5L826.8,347.3L834.5,424.5Z" shape-rendering="crispEdges"/><path fill="#FEE597" d="M834.5,424.5L726.5,448.8L807.1,490.1Z" shape-rendering="crispEdges"/><path fill="#FFD995" d="M934.5,279.9L962.2,377.5L1042.8,351Z" shape-rendering="crispEdges"/><path fill="#D5EDF5" d="M1168.9,733.6L1197,630.6L1114.6,702.4Z" shape-rendering="crispEdges"/><path fill="#E1F2E9" d="M1197,630.6L1244.4,604L1175.5,564.7Z" shape-rendering="crispEdges"/><path fill="#EFDFBC" d="M1260.9,428.2L1165.6,332.6L1161.7,441.8Z" shape-rendering="crispEdges"/><path fill="#D9E8D0" d="M873.2,751.4L903.1,784.3L977.8,729.7Z" shape-rendering="crispEdges"/><path fill="#CFE9E7" d="M1096.4,795.4L1114.6,702.4L1046.1,745.6Z" shape-rendering="crispEdges"/><path fill="#D5E7D2" d="M903.1,784.3L967.6,804.3L977.8,729.7Z" shape-rendering="crispEdges"/><path fill="#FECF94" d="M1052.5,277.8L934.5,279.9L1042.8,351Z" shape-rendering="crispEdges"/><path fill="#FBD3A0" d="M1105.8,346.9L1052.5,277.8L1042.8,351Z" shape-rendering="crispEdges"/><path fill="#EBEBCA" d="M1260.9,428.2L1161.7,441.8L1198.4,530.4Z" shape-rendering="crispEdges"/><path fill="#F5DCB6" d="M1161.7,441.8L1165.6,332.6L1105.8,346.9Z" shape-rendering="crispEdges"/><path fill="#FACC9E" d="M1105.8,346.9L1092.8,277.6L1052.5,277.8Z" shape-rendering="crispEdges"/><path fill="#C1DCDD" d="M1060.7,870.7L1096.4,795.4L1031.3,783.8Z" shape-rendering="crispEdges"/><path fill="#CBE5E1" d="M1031.3,783.8L1096.4,795.4L1046.1,745.6Z" shape-rendering="crispEdges"/><path fill="#E4F2DC" d="M1244.4,604L1269.6,522.3L1198.4,530.4Z" shape-rendering="crispEdges"/><path fill="#D2ECF4" d="M1168.9,733.6L1239.6,668.1L1197,630.6Z" shape-rendering="crispEdges"/><path fill="#DDEED7" d="M1333.5,584.5L1308,519.3L1269.6,522.3Z" shape-rendering="crispEdges"/><path fill="#F5EBC0" d="M720.4,657.2L816.9,639.1L794.1,580.8Z" shape-rendering="crispEdges"/><path fill="#EDEBCA" d="M816.9,639.1L795.7,736.5L873.1,644.9Z" shape-rendering="crispEdges"/><path fill="#D3DEC6" d="M873.2,751.4L804.9,817.9L903.1,784.3Z" shape-rendering="crispEdges"/><path fill="#F8D0A7" d="M1165.6,332.6L1092.8,277.6L1105.8,346.9Z" shape-rendering="crispEdges"/><path fill="#FEDA8A" d="M752.7,339.6L726.5,448.8L834.5,424.5Z" shape-rendering="crispEdges"/><path fill="#FEEDAA" d="M761.5,510.3L711.5,578L794.1,580.8Z" shape-rendering="crispEdges"/><path fill="#FFE59C" d="M644.9,482.9L711.5,578L761.5,510.3Z" shape-rendering="crispEdges"/><path fill="#E6ECCE" d="M1269.6,522.3L1260.9,428.2L1198.4,530.4Z" shape-rendering="crispEdges"/><path fill="#FFBD7E" d="M943.1,181.6L889.4,264.8L934.5,279.9Z" shape-rendering="crispEdges"/><path fill="#FFCD86" d="M934.5,279.9L889.4,264.8L899,369.5Z" shape-rendering="crispEdges"/><path fill="#FFD587" d="M826.8,347.3L752.7,339.6L834.5,424.5Z" shape-rendering="crispEdges"/><path fill="#FFC48C" d="M1007.5,228.8L934.5,279.9L1052.5,277.8Z" shape-rendering="crispEdges"/><path fill="#F8E8B6" d="M711.5,578L720.4,657.2L794.1,580.8Z" shape-rendering="crispEdges"/><path fill="#EFE6C2" d="M720.4,657.2L728.4,700.7L816.9,639.1Z" shape-rendering="crispEdges"/><path fill="#FCBA90" d="M1101,196.9L1007.5,228.8L1052.5,277.8Z" shape-rendering="crispEdges"/><path fill="#FEB66F" d="M750.5,297L813.1,285.9L745.1,204Z" shape-rendering="crispEdges"/><path fill="#FFC67E" d="M889.4,264.8L813.1,285.9L826.8,347.3Z" shape-rendering="crispEdges"/><path fill="#FFCA7C" d="M813.1,285.9L752.7,339.6L826.8,347.3Z" shape-rendering="crispEdges"/><path fill="#C9E7F1" d="M1168.9,733.6L1256.9,712.6L1239.6,668.1Z" shape-rendering="crispEdges"/><path fill="#D2EAE9" d="M1341.6,645.8L1333.5,584.5L1244.4,604Z" shape-rendering="crispEdges"/><path fill="#BFE2EE" d="M1235.6,796.3L1256.9,712.6L1168.9,733.6Z" shape-rendering="crispEdges"/><path fill="#DCEEDF" d="M1333.5,584.5L1269.6,522.3L1244.4,604Z" shape-rendering="crispEdges"/><path fill="#E2E9CC" d="M1269.6,522.3L1308,519.3L1260.9,428.2Z" shape-rendering="crispEdges"/><path fill="#F7C8A6" d="M1165.6,332.6L1166.8,267.3L1092.8,277.6Z" shape-rendering="crispEdges"/><path fill="#FABE96" d="M1092.8,277.6L1101,196.9L1052.5,277.8Z" shape-rendering="crispEdges"/><path fill="#F2C7A7" d="M1237,302.9L1166.8,267.3L1165.6,332.6Z" shape-rendering="crispEdges"/><path fill="#CADECD" d="M903.1,784.3L971.7,864.6L967.6,804.3Z" shape-rendering="crispEdges"/><path fill="#C7DED3" d="M967.6,804.3L971.7,864.6L1031.3,783.8Z" shape-rendering="crispEdges"/><path fill="#BFE0ED" d="M1096.4,795.4L1178.5,827L1168.9,733.6Z" shape-rendering="crispEdges"/><path fill="#C3D4C6" d="M881.4,905.2L971.7,864.6L903.1,784.3Z" shape-rendering="crispEdges"/><path fill="#D7DEC3" d="M804.9,817.9L873.2,751.4L795.7,736.5Z" shape-rendering="crispEdges"/><path fill="#D5D8BC" d="M730,787.7L804.9,817.9L795.7,736.5Z" shape-rendering="crispEdges"/><path fill="#BFD8D5" d="M971.7,864.6L1060.7,870.7L1031.3,783.8Z" shape-rendering="crispEdges"/><path fill="#E3D7B6" d="M1351.6,408.2L1268.5,343.2L1260.9,428.2Z" shape-rendering="crispEdges"/><path fill="#EBD5B3" d="M1260.9,428.2L1268.5,343.2L1165.6,332.6Z" shape-rendering="crispEdges"/><path fill="#ECA" d="M1268.5,343.2L1237,302.9L1165.6,332.6Z" shape-rendering="crispEdges"/><path fill="#B7D8E6" d="M1127.9,855L1178.5,827L1096.4,795.4Z" shape-rendering="crispEdges"/><path fill="#B8D6DF" d="M1060.7,870.7L1127.9,855L1096.4,795.4Z" shape-rendering="crispEdges"/><path fill="#D1EBF1" d="M1341.6,645.8L1244.4,604L1239.6,668.1Z" shape-rendering="crispEdges"/><path fill="#DFE2C3" d="M1308,519.3L1351.6,408.2L1260.9,428.2Z" shape-rendering="crispEdges"/><path fill="#FFE29D" d="M644.9,482.9L653.1,575.9L711.5,578Z" shape-rendering="crispEdges"/><path fill="#F8E2B4" d="M711.5,578L656.6,624.6L720.4,657.2Z" shape-rendering="crispEdges"/><path fill="#EADCBA" d="M720.4,657.2L675.8,723.4L728.4,700.7Z" shape-rendering="crispEdges"/><path fill="#FFE093" d="M644.9,482.9L761.5,510.3L726.5,448.8Z" shape-rendering="crispEdges"/><path fill="#FEC376" d="M813.1,285.9L750.5,297L752.7,339.6Z" shape-rendering="crispEdges"/><path fill="#FFD587" d="M636,406.7L644.9,482.9L726.5,448.8Z" shape-rendering="crispEdges"/><path fill="#FFB978" d="M868.9,193.3L813.1,285.9L889.4,264.8Z" shape-rendering="crispEdges"/><path fill="#FBE0AA" d="M653.1,575.9L656.6,624.6L711.5,578Z" shape-rendering="crispEdges"/><path fill="#DFDCBC" d="M728.4,700.7L730,787.7L795.7,736.5Z" shape-rendering="crispEdges"/><path fill="#A8D0E5" d="M1261.8,887.4L1235.6,796.3L1178.5,827Z" shape-rendering="crispEdges"/><path fill="#B9DDEC" d="M1178.5,827L1235.6,796.3L1168.9,733.6Z" shape-rendering="crispEdges"/><path fill="#C5E5F0" d="M1315,718.4L1341.6,645.8L1239.6,668.1Z" shape-rendering="crispEdges"/><path fill="#FFCE7F" d="M677.5,354.5L726.5,448.8L752.7,339.6Z" shape-rendering="crispEdges"/><path fill="#FBDCA6" d="M653.1,575.9L610.6,581.7L656.6,624.6Z" shape-rendering="crispEdges"/><path fill="#F6B59C" d="M1210.5,215.4L1101,196.9L1166.8,267.3Z" shape-rendering="crispEdges"/><path fill="#F8BC9B" d="M1166.8,267.3L1101,196.9L1092.8,277.6Z" shape-rendering="crispEdges"/><path fill="#FFBC81" d="M1007.5,228.8L943.1,181.6L934.5,279.9Z" shape-rendering="crispEdges"/><path fill="#E1D7B7" d="M675.8,723.4L730,787.7L728.4,700.7Z" shape-rendering="crispEdges"/><path fill="#F8A875" d="M938.7,131.2L943.1,181.6L1013.6,120.4Z" shape-rendering="crispEdges"/><path fill="#C3E5F0" d="M1315,718.4L1239.6,668.1L1256.9,712.6Z" shape-rendering="crispEdges"/><path fill="#B9E0ED" d="M1235.6,796.3L1315,718.4L1256.9,712.6Z" shape-rendering="crispEdges"/><path fill="#FEC375" d="M750.5,297L677.5,354.5L752.7,339.6Z" shape-rendering="crispEdges"/><path fill="#F0DCB8" d="M656.6,624.6L675.8,723.4L720.4,657.2Z" shape-rendering="crispEdges"/><path fill="#FFB377" d="M943.1,181.6L868.9,193.3L889.4,264.8Z" shape-rendering="crispEdges"/><path fill="#FEBB6E" d="M750.5,297L658.7,290.2L677.5,354.5Z" shape-rendering="crispEdges"/><path fill="#CCCFB8" d="M730,787.7L797.6,863.7L804.9,817.9Z" shape-rendering="crispEdges"/><path fill="#C8D3C1" d="M804.9,817.9L881.4,905.2L903.1,784.3Z" shape-rendering="crispEdges"/><path fill="#B4CCCF" d="M971.7,864.6L1039.3,935.2L1060.7,870.7Z" shape-rendering="crispEdges"/><path fill="#D8DFC4" d="M1432.3,476.6L1351.6,408.2L1308,519.3Z" shape-rendering="crispEdges"/><path fill="#EDB59C" d="M1263.6,215.9L1210.5,215.4L1237,302.9Z" shape-rendering="crispEdges"/><path fill="#D2E3CE" d="M1432.3,476.6L1308,519.3L1436.6,572.2Z" shape-rendering="crispEdges"/><path fill="#C2CBBA" d="M797.6,863.7L881.4,905.2L804.9,817.9Z" shape-rendering="crispEdges"/><path fill="#FFCE7F" d="M677.5,354.5L636,406.7L726.5,448.8Z" shape-rendering="crispEdges"/><path fill="#FFDB99" d="M585.8,515.6L610.6,581.7L653.1,575.9Z" shape-rendering="crispEdges"/><path fill="#FFDB93" d="M585.8,515.6L653.1,575.9L644.9,482.9Z" shape-rendering="crispEdges"/><path fill="#EDD4B1" d="M656.6,624.6L574,711.3L675.8,723.4Z" shape-rendering="crispEdges"/><path fill="#E8B79E" d="M1263.6,215.9L1237,302.9L1317.4,261.2Z" shape-rendering="crispEdges"/><path fill="#F0BCA0" d="M1237,302.9L1210.5,215.4L1166.8,267.3Z" shape-rendering="crispEdges"/><path fill="#B4C6C7" d="M949,939.2L1039.3,935.2L971.7,864.6Z" shape-rendering="crispEdges"/><path fill="#ACC8D8" d="M1060.7,870.7L1099,961.1L1127.9,855Z" shape-rendering="crispEdges"/><path fill="#ABD0E5" d="M1127.9,855L1185.6,893.1L1178.5,827Z" shape-rendering="crispEdges"/><path fill="#B4BBB6" d="M825.4,965.4L910.2,932.1L881.4,905.2Z" shape-rendering="crispEdges"/><path fill="#B9C8C0" d="M881.4,905.2L910.2,932.1L971.7,864.6Z" shape-rendering="crispEdges"/><path fill="#A6C5DD" d="M1099,961.1L1185.6,893.1L1127.9,855Z" shape-rendering="crispEdges"/><path fill="#ACD8E8" d="M1235.6,796.3L1354,812.4L1315,718.4Z" shape-rendering="crispEdges"/><path fill="#B7C6C1" d="M910.2,932.1L949,939.2L971.7,864.6Z" shape-rendering="crispEdges"/><path fill="#F9A56C" d="M885.8,139.5L802.2,178.9L868.9,193.3Z" shape-rendering="crispEdges"/><path fill="#FEAE70" d="M868.9,193.3L802.2,178.9L813.1,285.9Z" shape-rendering="crispEdges"/><path fill="#FEC072" d="M677.5,354.5L599.8,338.4L636,406.7Z" shape-rendering="crispEdges"/><path fill="#FFD286" d="M565.6,454.5L585.8,515.6L644.9,482.9Z" shape-rendering="crispEdges"/><path fill="#FBAE7D" d="M1013.6,120.4L943.1,181.6L1007.5,228.8Z" shape-rendering="crispEdges"/><path fill="#FAA971" d="M943.1,181.6L885.8,139.5L868.9,193.3Z" shape-rendering="crispEdges"/><path fill="#F9AE86" d="M1013.6,120.4L1007.5,228.8L1101,196.9Z" shape-rendering="crispEdges"/><path fill="#F8A671" d="M938.7,131.2L885.8,139.5L943.1,181.6Z" shape-rendering="crispEdges"/><path fill="#D8CEB2" d="M1426.3,410.4L1363.1,346.7L1351.6,408.2Z" shape-rendering="crispEdges"/><path fill="#E0CEAF" d="M1351.6,408.2L1363.1,346.7L1268.5,343.2Z" shape-rendering="crispEdges"/><path fill="#F89F62" d="M733.7,152.4L745.1,204L802.2,178.9Z" shape-rendering="crispEdges"/><path fill="#FDAC6C" d="M802.2,178.9L745.1,204L813.1,285.9Z" shape-rendering="crispEdges"/><path fill="#FDB069" d="M745.1,204L658.7,290.2L750.5,297Z" shape-rendering="crispEdges"/><path fill="#FFCF81" d="M636,406.7L565.6,454.5L644.9,482.9Z" shape-rendering="crispEdges"/><path fill="#F4A686" d="M1122.8,134.6L1013.6,120.4L1101,196.9Z" shape-rendering="crispEdges"/><path fill="#E8C2A4" d="M1317.4,261.2L1237,302.9L1268.5,343.2Z" shape-rendering="crispEdges"/><path fill="#F3AB95" d="M1210.5,215.4L1122.8,134.6L1101,196.9Z" shape-rendering="crispEdges"/><path fill="#FBD29F" d="M521.9,587.1L578.1,625.9L610.6,581.7Z" shape-rendering="crispEdges"/><path fill="#FAD8A7" d="M610.6,581.7L578.1,625.9L656.6,624.6Z" shape-rendering="crispEdges"/><path fill="#DBCFB1" d="M675.8,723.4L635.5,786.4L730,787.7Z" shape-rendering="crispEdges"/><path fill="#C7C7B1" d="M730,787.7L714.3,891.3L797.6,863.7Z" shape-rendering="crispEdges"/><path fill="#EFA391" d="M1164.3,113.2L1122.8,134.6L1210.5,215.4Z" shape-rendering="crispEdges"/><path fill="#E3C4A5" d="M1363.1,346.7L1317.4,261.2L1268.5,343.2Z" shape-rendering="crispEdges"/><path fill="#A1B5CA" d="M1048.5,1015.1L1099,961.1L1039.3,935.2Z" shape-rendering="crispEdges"/><path fill="#AAC2D1" d="M1039.3,935.2L1099,961.1L1060.7,870.7Z" shape-rendering="crispEdges"/><path fill="#E2CCAD" d="M574,711.3L635.5,786.4L675.8,723.4Z" shape-rendering="crispEdges"/><path fill="#B9BEB4" d="M797.6,863.7L825.4,965.4L881.4,905.2Z" shape-rendering="crispEdges"/><path fill="#FEC576" d="M521,409.2L565.6,454.5L636,406.7Z" shape-rendering="crispEdges"/><path fill="#FFD595" d="M585.8,515.6L521.9,587.1L610.6,581.7Z" shape-rendering="crispEdges"/><path fill="#B8DCEB" d="M1434.3,730L1418,649.9L1341.6,645.8Z" shape-rendering="crispEdges"/><path fill="#C7E5EA" d="M1341.6,645.8L1418,649.9L1333.5,584.5Z" shape-rendering="crispEdges"/><path fill="#B7DEEC" d="M1434.3,730L1341.6,645.8L1315,718.4Z" shape-rendering="crispEdges"/><path fill="#97BDDB" d="M1240.9,959L1261.8,887.4L1185.6,893.1Z" shape-rendering="crispEdges"/><path fill="#A3CAE2" d="M1185.6,893.1L1261.8,887.4L1178.5,827Z" shape-rendering="crispEdges"/><path fill="#D3E9D9" d="M1436.6,572.2L1308,519.3L1333.5,584.5Z" shape-rendering="crispEdges"/><path fill="#FDAC62" d="M587.9,266.2L599.8,338.4L658.7,290.2Z" shape-rendering="crispEdges"/><path fill="#FEB86A" d="M658.7,290.2L599.8,338.4L677.5,354.5Z" shape-rendering="crispEdges"/><path fill="#C7E2E2" d="M1418,649.9L1436.6,572.2L1333.5,584.5Z" shape-rendering="crispEdges"/><path fill="#C9C1AC" d="M660.3,859.5L714.3,891.3L730,787.7Z" shape-rendering="crispEdges"/><path fill="#A1CDE3" d="M1261.8,887.4L1354,812.4L1235.6,796.3Z" shape-rendering="crispEdges"/><path fill="#D3D5BA" d="M1432.3,476.6L1426.3,410.4L1351.6,408.2Z" shape-rendering="crispEdges"/><path fill="#DEB99F" d="M1363.1,346.7L1387,262.6L1317.4,261.2Z" shape-rendering="crispEdges"/><path fill="#F2CAA8" d="M493.8,667.1L574,711.3L578.1,625.9Z" shape-rendering="crispEdges"/><path fill="#F5D3AF" d="M578.1,625.9L574,711.3L656.6,624.6Z" shape-rendering="crispEdges"/><path fill="#D1C5AC" d="M635.5,786.4L660.3,859.5L730,787.7Z" shape-rendering="crispEdges"/><path fill="#B6B6AD" d="M757.7,956.3L825.4,965.4L797.6,863.7Z" shape-rendering="crispEdges"/><path fill="#AAAEB6" d="M907.4,1022.1L965,1027.7L949,939.2Z" shape-rendering="crispEdges"/><path fill="#A4AFC1" d="M965,1027.7L1048.5,1015.1L1039.3,935.2Z" shape-rendering="crispEdges"/><path fill="#EAA18F" d="M1241.1,131.9L1164.3,113.2L1210.5,215.4Z" shape-rendering="crispEdges"/><path fill="#E99975" d="M1024.4,28.5L985.9,63.3L1013.6,120.4Z" shape-rendering="crispEdges"/><path fill="#EAA694" d="M1241.1,131.9L1210.5,215.4L1263.6,215.9Z" shape-rendering="crispEdges"/><path fill="#CBB9A4" d="M603.6,885.8L660.3,859.5L635.5,786.4Z" shape-rendering="crispEdges"/><path fill="#BCB9AC" d="M714.3,891.3L757.7,956.3L797.6,863.7Z" shape-rendering="crispEdges"/><path fill="#EE9664" d="M891,24.7L837.6,103.3L885.8,139.5Z" shape-rendering="crispEdges"/><path fill="#F69E66" d="M885.8,139.5L837.6,103.3L802.2,178.9Z" shape-rendering="crispEdges"/><path fill="#FCA462" d="M745.1,204L651.5,218.2L658.7,290.2Z" shape-rendering="crispEdges"/><path fill="#F19A68" d="M891,24.7L885.8,139.5L938.7,131.2Z" shape-rendering="crispEdges"/><path fill="#F39F72" d="M985.9,63.3L938.7,131.2L1013.6,120.4Z" shape-rendering="crispEdges"/><path fill="#98AED1" d="M1105.1,1035.7L1189.3,961.6L1099,961.1Z" shape-rendering="crispEdges"/><path fill="#9CBADA" d="M1099,961.1L1189.3,961.6L1185.6,893.1Z" shape-rendering="crispEdges"/><path fill="#94C6DF" d="M1358.5,870.1L1403.3,812.5L1354,812.4Z" shape-rendering="crispEdges"/><path fill="#F59A61" d="M837.6,103.3L733.7,152.4L802.2,178.9Z" shape-rendering="crispEdges"/><path fill="#FFC479" d="M521,409.2L529.2,487.4L565.6,454.5Z" shape-rendering="crispEdges"/><path fill="#FFCC82" d="M565.6,454.5L529.2,487.4L585.8,515.6Z" shape-rendering="crispEdges"/><path fill="#F99B5E" d="M733.7,152.4L651.5,218.2L745.1,204Z" shape-rendering="crispEdges"/><path fill="#FEBD6F" d="M599.8,338.4L521,409.2L636,406.7Z" shape-rendering="crispEdges"/><path fill="#D1C3AA" d="M1474.2,346.3L1426.7,355.1L1426.3,410.4Z" shape-rendering="crispEdges"/><path fill="#D6C7AC" d="M1426.3,410.4L1426.7,355.1L1363.1,346.7Z" shape-rendering="crispEdges"/><path fill="#E4A291" d="M1324.3,190.5L1241.1,131.9L1263.6,215.9Z" shape-rendering="crispEdges"/><path fill="#FFD08B" d="M529.2,487.4L521.9,587.1L585.8,515.6Z" shape-rendering="crispEdges"/><path fill="#ED9B81" d="M1115,48L1013.6,120.4L1122.8,134.6Z" shape-rendering="crispEdges"/><path fill="#E5AB97" d="M1324.3,190.5L1263.6,215.9L1317.4,261.2Z" shape-rendering="crispEdges"/><path fill="#EA9988" d="M1164.3,113.2L1115,48L1122.8,134.6Z" shape-rendering="crispEdges"/><path fill="#AAB8C0" d="M965,1027.7L1039.3,935.2L949,939.2Z" shape-rendering="crispEdges"/><path fill="#B6A8A1" d="M636.4,976.4L757.7,956.3L714.3,891.3Z" shape-rendering="crispEdges"/><path fill="#ADB6B8" d="M907.4,1022.1L949,939.2L910.2,932.1Z" shape-rendering="crispEdges"/><path fill="#A8D7E8" d="M1354,812.4L1434.3,730L1315,718.4Z" shape-rendering="crispEdges"/><path fill="#BFD9D8" d="M1498.8,631.1L1506.2,550.6L1436.6,572.2Z" shape-rendering="crispEdges"/><path fill="#E0AC98" d="M1387,262.6L1324.3,190.5L1317.4,261.2Z" shape-rendering="crispEdges"/><path fill="#D9BEA2" d="M1426.7,355.1L1387,262.6L1363.1,346.7Z" shape-rendering="crispEdges"/><path fill="#8DAAD2" d="M1212.6,1027L1240.9,959L1189.3,961.6Z" shape-rendering="crispEdges"/><path fill="#96B8D9" d="M1189.3,961.6L1240.9,959L1185.6,893.1Z" shape-rendering="crispEdges"/><path fill="#9CCDE2" d="M1354,812.4L1403.3,812.5L1434.3,730Z" shape-rendering="crispEdges"/><path fill="#ADB0B2" d="M907.4,1022.1L910.2,932.1L825.4,965.4Z" shape-rendering="crispEdges"/><path fill="#AAA1A9" d="M811.3,1051.1L907.4,1022.1L825.4,965.4Z" shape-rendering="crispEdges"/><path fill="#FB9957" d="M529.2,291.5L587.9,266.2L567.1,223.8Z" shape-rendering="crispEdges"/><path fill="#FCA35E" d="M651.5,218.2L587.9,266.2L658.7,290.2Z" shape-rendering="crispEdges"/><path fill="#FEB469" d="M517,368.6L521,409.2L599.8,338.4Z" shape-rendering="crispEdges"/><path fill="#F9C49D" d="M454.2,604.6L493.8,667.1L521.9,587.1Z" shape-rendering="crispEdges"/><path fill="#95C6DF" d="M1358.5,870.1L1354,812.4L1261.8,887.4Z" shape-rendering="crispEdges"/><path fill="#8DB9D9" d="M1315.7,960L1358.5,870.1L1261.8,887.4Z" shape-rendering="crispEdges"/><path fill="#C9D0BC" d="M1535.8,478.8L1475.8,427L1432.3,476.6Z" shape-rendering="crispEdges"/><path fill="#CED1B9" d="M1432.3,476.6L1475.8,427L1426.3,410.4Z" shape-rendering="crispEdges"/><path fill="#D5B9A0" d="M1426.7,355.1L1474.2,346.3L1387,262.6Z" shape-rendering="crispEdges"/><path fill="#CADCCB" d="M1506.6,526.2L1432.3,476.6L1436.6,572.2Z" shape-rendering="crispEdges"/><path fill="#E09389" d="M1165,29.5L1115,48L1164.3,113.2Z" shape-rendering="crispEdges"/><path fill="#FDAC61" d="M529.2,291.5L517,368.6L599.8,338.4Z" shape-rendering="crispEdges"/><path fill="#FFC58D" d="M454.2,604.6L521.9,587.1L437.7,497.2Z" shape-rendering="crispEdges"/><path fill="#DDC3A6" d="M574,711.3L560.5,803L635.5,786.4Z" shape-rendering="crispEdges"/><path fill="#BDADA1" d="M660.3,859.5L636.4,976.4L714.3,891.3Z" shape-rendering="crispEdges"/><path fill="#DDBCA1" d="M491.4,788.2L560.5,803L574,711.3Z" shape-rendering="crispEdges"/><path fill="#E89061" d="M891,24.7L814.8,65.4L837.6,103.3Z" shape-rendering="crispEdges"/><path fill="#F1925C" d="M837.6,103.3L814.8,65.4L733.7,152.4Z" shape-rendering="crispEdges"/><path fill="#F88E52" d="M591.9,149.3L567.1,223.8L651.5,218.2Z" shape-rendering="crispEdges"/><path fill="#EC996C" d="M891,24.7L938.7,131.2L985.9,63.3Z" shape-rendering="crispEdges"/><path fill="#9998BF" d="M1053.8,1127.2L1105.1,1035.7L1048.5,1015.1Z" shape-rendering="crispEdges"/><path fill="#9CA9C8" d="M1048.5,1015.1L1105.1,1035.7L1099,961.1Z" shape-rendering="crispEdges"/><path fill="#B0D5E7" d="M1498.8,631.1L1418,649.9L1498.7,718.2Z" shape-rendering="crispEdges"/><path fill="#BDDBE2" d="M1498.8,631.1L1436.6,572.2L1418,649.9Z" shape-rendering="crispEdges"/><path fill="#E6977B" d="M1115,48L1024.4,28.5L1013.6,120.4Z" shape-rendering="crispEdges"/><path fill="#C5DBCF" d="M1506.2,550.6L1506.6,526.2L1436.6,572.2Z" shape-rendering="crispEdges"/><path fill="#ABD3E6" d="M1498.7,718.2L1418,649.9L1434.3,730Z" shape-rendering="crispEdges"/><path fill="#FEBE75" d="M461.1,438.8L529.2,487.4L521,409.2Z" shape-rendering="crispEdges"/><path fill="#F9CBA3" d="M521.9,587.1L493.8,667.1L578.1,625.9Z" shape-rendering="crispEdges"/><path fill="#EDC3A5" d="M493.8,667.1L503.7,704.7L574,711.3Z" shape-rendering="crispEdges"/><path fill="#C9BEA9" d="M1568.8,374.2L1474.2,346.3L1475.8,427Z" shape-rendering="crispEdges"/><path fill="#CEC6AE" d="M1475.8,427L1474.2,346.3L1426.3,410.4Z" shape-rendering="crispEdges"/><path fill="#D89689" d="M1433.2,153.4L1317.1,106.9L1324.3,190.5Z" shape-rendering="crispEdges"/><path fill="#87B6D7" d="M1315.7,960L1384.6,885.8L1358.5,870.1Z" shape-rendering="crispEdges"/><path fill="#8DC0DB" d="M1358.5,870.1L1384.6,885.8L1403.3,812.5Z" shape-rendering="crispEdges"/><path fill="#9ACBE1" d="M1478.7,808.2L1498.7,718.2L1434.3,730Z" shape-rendering="crispEdges"/><path fill="#8DB4D6" d="M1315.7,960L1261.8,887.4L1240.9,959Z" shape-rendering="crispEdges"/><path fill="#C9AD9A" d="M516.5,881.6L603.6,885.8L560.5,803Z" shape-rendering="crispEdges"/><path fill="#D0B9A1" d="M560.5,803L603.6,885.8L635.5,786.4Z" shape-rendering="crispEdges"/><path fill="#E1926A" d="M908.6,-1.4L891,24.7L985.9,63.3Z" shape-rendering="crispEdges"/><path fill="#FB9858" d="M567.1,223.8L587.9,266.2L651.5,218.2Z" shape-rendering="crispEdges"/><path fill="#FCA65D" d="M587.9,266.2L529.2,291.5L599.8,338.4Z" shape-rendering="crispEdges"/><path fill="#85A8D0" d="M1259,1017.3L1315.7,960L1240.9,959Z" shape-rendering="crispEdges"/><path fill="#F59056" d="M658.8,111.1L651.5,218.2L733.7,152.4Z" shape-rendering="crispEdges"/><path fill="#92A5D0" d="M1105.1,1035.7L1212.6,1027L1189.3,961.6Z" shape-rendering="crispEdges"/><path fill="#97C8E0" d="M1478.7,808.2L1434.3,730L1403.3,812.5Z" shape-rendering="crispEdges"/><path fill="#C0D6CC" d="M1558.2,564.7L1506.6,526.2L1506.2,550.6Z" shape-rendering="crispEdges"/><path fill="#E19488" d="M1267.4,47.9L1164.3,113.2L1241.1,131.9Z" shape-rendering="crispEdges"/><path fill="#DB9088" d="M1267.4,47.9L1165,29.5L1164.3,113.2Z" shape-rendering="crispEdges"/><path fill="#DA8F7F" d="M1115,48L1112.1,-7.3L1024.4,28.5Z" shape-rendering="crispEdges"/><path fill="#DC906B" d="M937.9,-29.5L908.6,-1.4L985.9,63.3Z" shape-rendering="crispEdges"/><path fill="#DBA292" d="M1429.9,190.2L1324.3,190.5L1387,262.6Z" shape-rendering="crispEdges"/><path fill="#DF998B" d="M1324.3,190.5L1317.1,106.9L1241.1,131.9Z" shape-rendering="crispEdges"/><path fill="#FDAA65" d="M414.5,346.3L461.1,438.8L517,368.6Z" shape-rendering="crispEdges"/><path fill="#FEB56C" d="M517,368.6L461.1,438.8L521,409.2Z" shape-rendering="crispEdges"/><path fill="#AA9CA2" d="M746.6,1032.2L811.3,1051.1L825.4,965.4Z" shape-rendering="crispEdges"/><path fill="#A59DAF" d="M907.4,1022.1L959.9,1097.5L965,1027.7Z" shape-rendering="crispEdges"/><path fill="#A29EB6" d="M965,1027.7L959.9,1097.5L1048.5,1015.1Z" shape-rendering="crispEdges"/><path fill="#ADA5A4" d="M746.6,1032.2L825.4,965.4L757.7,956.3Z" shape-rendering="crispEdges"/><path fill="#FFC885" d="M437.7,497.2L521.9,587.1L529.2,487.4Z" shape-rendering="crispEdges"/><path fill="#DFB59D" d="M462.5,783.9L491.4,788.2L503.7,704.7Z" shape-rendering="crispEdges"/><path fill="#EA8B57" d="M716.6,35.4L733.7,152.4L814.8,65.4Z" shape-rendering="crispEdges"/><path fill="#ED8651" d="M716.6,35.4L658.8,111.1L733.7,152.4Z" shape-rendering="crispEdges"/><path fill="#C0D3C6" d="M1558.2,564.7L1535.8,478.8L1506.6,526.2Z" shape-rendering="crispEdges"/><path fill="#C7D4C2" d="M1506.6,526.2L1535.8,478.8L1432.3,476.6Z" shape-rendering="crispEdges"/><path fill="#B7D4DB" d="M1536.6,633.7L1506.2,550.6L1498.8,631.1Z" shape-rendering="crispEdges"/><path fill="#89A3CF" d="M1212.6,1027L1259,1017.3L1240.9,959Z" shape-rendering="crispEdges"/><path fill="#DE9271" d="M937.9,-29.5L985.9,63.3L1024.4,28.5Z" shape-rendering="crispEdges"/><path fill="#DE8B61" d="M891,24.7L830.9,-11.2L814.8,65.4Z" shape-rendering="crispEdges"/><path fill="#ACD1E5" d="M1498.7,718.2L1536.6,633.7L1498.8,631.1Z" shape-rendering="crispEdges"/><path fill="#AE9C9C" d="M636.4,976.4L746.6,1032.2L757.7,956.3Z" shape-rendering="crispEdges"/><path fill="#84B9D8" d="M1472.1,905.1L1403.3,812.5L1384.6,885.8Z" shape-rendering="crispEdges"/><path fill="#86BBD9" d="M1472.1,905.1L1478.7,808.2L1403.3,812.5Z" shape-rendering="crispEdges"/><path fill="#ACC7D7" d="M1661.2,643.8L1608.6,561.8L1536.6,633.7Z" shape-rendering="crispEdges"/><path fill="#7FADD2" d="M1396.3,955.9L1384.6,885.8L1315.7,960Z" shape-rendering="crispEdges"/><path fill="#FFBD79" d="M461.1,438.8L437.7,497.2L529.2,487.4Z" shape-rendering="crispEdges"/><path fill="#A594A6" d="M898.9,1105.6L907.4,1022.1L811.3,1051.1Z" shape-rendering="crispEdges"/><path fill="#A393A9" d="M898.9,1105.6L959.9,1097.5L907.4,1022.1Z" shape-rendering="crispEdges"/><path fill="#8E99CB" d="M1105.1,1035.7L1201.4,1077.1L1212.6,1027Z" shape-rendering="crispEdges"/><path fill="#8897C9" d="M1212.6,1027L1201.4,1077.1L1259,1017.3Z" shape-rendering="crispEdges"/><path fill="#D4A192" d="M1500,255L1429.9,190.2L1387,262.6Z" shape-rendering="crispEdges"/><path fill="#D2AD9A" d="M1500,255L1387,262.6L1474.2,346.3Z" shape-rendering="crispEdges"/><path fill="#D28B88" d="M1186.4,-1.2L1112.1,-7.3L1165,29.5Z" shape-rendering="crispEdges"/><path fill="#D78E85" d="M1165,29.5L1112.1,-7.3L1115,48Z" shape-rendering="crispEdges"/><path fill="#ECBCA1" d="M444.3,717.1L503.7,704.7L493.8,667.1Z" shape-rendering="crispEdges"/><path fill="#E4BEA2" d="M503.7,704.7L491.4,788.2L574,711.3Z" shape-rendering="crispEdges"/><path fill="#BEA99D" d="M603.6,885.8L636.4,976.4L660.3,859.5Z" shape-rendering="crispEdges"/><path fill="#F98D51" d="M567.1,223.8L533,175.8L529.2,291.5Z" shape-rendering="crispEdges"/><path fill="#FB9C59" d="M431.1,283.7L414.5,346.3L517,368.6Z" shape-rendering="crispEdges"/><path fill="#F48A50" d="M658.8,111.1L591.9,149.3L651.5,218.2Z" shape-rendering="crispEdges"/><path fill="#D38C84" d="M1331.7,80.2L1267.4,47.9L1317.1,106.9Z" shape-rendering="crispEdges"/><path fill="#DA9086" d="M1317.1,106.9L1267.4,47.9L1241.1,131.9Z" shape-rendering="crispEdges"/><path fill="#FAB993" d="M357,588.2L438.1,629.4L454.2,604.6Z" shape-rendering="crispEdges"/><path fill="#F8BF9E" d="M454.2,604.6L438.1,629.4L493.8,667.1Z" shape-rendering="crispEdges"/><path fill="#B89C95" d="M575.7,963.3L636.4,976.4L603.6,885.8Z" shape-rendering="crispEdges"/><path fill="#B8D3D4" d="M1536.6,633.7L1558.2,564.7L1506.2,550.6Z" shape-rendering="crispEdges"/><path fill="#D48E84" d="M1433.2,153.4L1331.7,80.2L1317.1,106.9Z" shape-rendering="crispEdges"/><path fill="#D88E73" d="M1053.5,-49.2L937.9,-29.5L1024.4,28.5Z" shape-rendering="crispEdges"/><path fill="#DA8A64" d="M908.6,-1.4L830.9,-11.2L891,24.7Z" shape-rendering="crispEdges"/><path fill="#A48B9F" d="M789.8,1109L898.9,1105.6L811.3,1051.1Z" shape-rendering="crispEdges"/><path fill="#D08A87" d="M1112.1,-7.3L1186.4,-1.2L1158,-82.8Z" shape-rendering="crispEdges"/><path fill="#D18A86" d="M1267.4,47.9L1186.4,-1.2L1165,29.5Z" shape-rendering="crispEdges"/><path fill="#D58D7B" d="M1112.1,-7.3L1053.5,-49.2L1024.4,28.5Z" shape-rendering="crispEdges"/><path fill="#D88963" d="M867.7,-90L830.9,-11.2L908.6,-1.4Z" shape-rendering="crispEdges"/><path fill="#EE7F4A" d="M658.8,111.1L655,74.1L591.9,149.3Z" shape-rendering="crispEdges"/><path fill="#9090C5" d="M1107.6,1127L1201.4,1077.1L1105.1,1035.7Z" shape-rendering="crispEdges"/><path fill="#7AA3CD" d="M1338.5,1015.4L1396.3,955.9L1315.7,960Z" shape-rendering="crispEdges"/><path fill="#9C93B5" d="M1053.8,1127.2L1048.5,1015.1L959.9,1097.5Z" shape-rendering="crispEdges"/><path fill="#DD8357" d="M746.2,-16.3L716.6,35.4L814.8,65.4Z" shape-rendering="crispEdges"/><path fill="#E67F4E" d="M716.6,35.4L655,74.1L658.8,111.1Z" shape-rendering="crispEdges"/><path fill="#F2BBA0" d="M438.1,629.4L444.3,717.1L493.8,667.1Z" shape-rendering="crispEdges"/><path fill="#7FA0CC" d="M1338.5,1015.4L1315.7,960L1259,1017.3Z" shape-rendering="crispEdges"/><path fill="#C3C9B5" d="M1573,428.1L1475.8,427L1535.8,478.8Z" shape-rendering="crispEdges"/><path fill="#CBA797" d="M1551.4,264.7L1500,255L1474.2,346.3Z" shape-rendering="crispEdges"/><path fill="#D6988C" d="M1429.9,190.2L1433.2,153.4L1324.3,190.5Z" shape-rendering="crispEdges"/><path fill="#E4B69D" d="M444.3,717.1L462.5,783.9L503.7,704.7Z" shape-rendering="crispEdges"/><path fill="#D1AE9A" d="M491.4,788.2L516.5,881.6L560.5,803Z" shape-rendering="crispEdges"/><path fill="#D09289" d="M1470.2,190.6L1433.2,153.4L1429.9,190.2Z" shape-rendering="crispEdges"/><path fill="#7E92C6" d="M1265.5,1103.7L1338.5,1015.4L1259,1017.3Z" shape-rendering="crispEdges"/><path fill="#CCA294" d="M411.3,863.3L516.5,881.6L491.4,788.2Z" shape-rendering="crispEdges"/><path fill="#F07845" d="M505.9,107.1L533,175.8L591.9,149.3Z" shape-rendering="crispEdges"/><path fill="#F5854C" d="M591.9,149.3L533,175.8L567.1,223.8Z" shape-rendering="crispEdges"/><path fill="#FEB371" d="M461.1,438.8L376.3,437.3L437.7,497.2Z" shape-rendering="crispEdges"/><path fill="#BEC7BA" d="M1607.3,529.6L1573,428.1L1535.8,478.8Z" shape-rendering="crispEdges"/><path fill="#A094B1" d="M944.2,1164L1053.8,1127.2L959.9,1097.5Z" shape-rendering="crispEdges"/><path fill="#D0978D" d="M1500,255L1470.2,190.6L1429.9,190.2Z" shape-rendering="crispEdges"/><path fill="#D48C7F" d="M1099.6,-69.5L1053.5,-49.2L1112.1,-7.3Z" shape-rendering="crispEdges"/><path fill="#D7835B" d="M833,-123.8L746.2,-16.3L830.9,-11.2Z" shape-rendering="crispEdges"/><path fill="#BFA094" d="M516.5,881.6L575.7,963.3L603.6,885.8Z" shape-rendering="crispEdges"/><path fill="#AD9095" d="M636.4,976.4L645.1,1025.5L746.6,1032.2Z" shape-rendering="crispEdges"/><path fill="#A68C9B" d="M746.6,1032.2L789.8,1109L811.3,1051.1Z" shape-rendering="crispEdges"/><path fill="#9591BE" d="M1053.8,1127.2L1107.6,1127L1105.1,1035.7Z" shape-rendering="crispEdges"/><path fill="#728DC3" d="M1404.3,1088.1L1387.7,1013.9L1338.5,1015.4Z" shape-rendering="crispEdges"/><path fill="#AE8B8F" d="M589.8,1017.4L645.1,1025.5L636.4,976.4Z" shape-rendering="crispEdges"/><path fill="#C4C0AD" d="M1573,428.1L1568.8,374.2L1475.8,427Z" shape-rendering="crispEdges"/><path fill="#CB928A" d="M1500,255L1538.9,178L1470.2,190.6Z" shape-rendering="crispEdges"/><path fill="#7BACD1" d="M1396.3,955.9L1472.1,905.1L1384.6,885.8Z" shape-rendering="crispEdges"/><path fill="#A0C9E1" d="M1585.9,731.1L1536.6,633.7L1498.7,718.2Z" shape-rendering="crispEdges"/><path fill="#B8CCC8" d="M1608.6,561.8L1607.3,529.6L1558.2,564.7Z" shape-rendering="crispEdges"/><path fill="#73A4CD" d="M1465.4,942L1472.1,905.1L1396.3,955.9Z" shape-rendering="crispEdges"/><path fill="#A48495" d="M724.5,1125.8L789.8,1109L746.6,1032.2Z" shape-rendering="crispEdges"/><path fill="#A292AA" d="M898.9,1105.6L944.2,1164L959.9,1097.5Z" shape-rendering="crispEdges"/><path fill="#DD7348" d="M646.1,-6.8L571.1,52L655,74.1Z" shape-rendering="crispEdges"/><path fill="#F07343" d="M505.9,107.1L455.3,187L533,175.8Z" shape-rendering="crispEdges"/><path fill="#DA855B" d="M830.9,-11.2L746.2,-16.3L814.8,65.4Z" shape-rendering="crispEdges"/><path fill="#D98B67" d="M867.7,-90L908.6,-1.4L937.9,-29.5Z" shape-rendering="crispEdges"/><path fill="#FB9E59" d="M431.1,283.7L517,368.6L529.2,291.5Z" shape-rendering="crispEdges"/><path fill="#FFBC88" d="M437.7,497.2L357,588.2L454.2,604.6Z" shape-rendering="crispEdges"/><path fill="#F1B49C" d="M438.1,629.4L362.8,679.9L444.3,717.1Z" shape-rendering="crispEdges"/><path fill="#B4CED3" d="M1608.6,561.8L1558.2,564.7L1536.6,633.7Z" shape-rendering="crispEdges"/><path fill="#BDCEC4" d="M1558.2,564.7L1607.3,529.6L1535.8,478.8Z" shape-rendering="crispEdges"/><path fill="#BEB8A9" d="M1573,428.1L1628.6,415.6L1568.8,374.2Z" shape-rendering="crispEdges"/><path fill="#8FC0DC" d="M1585.9,731.1L1498.7,718.2L1571.1,814.2Z" shape-rendering="crispEdges"/><path fill="#838EC5" d="M1265.5,1103.7L1259,1017.3L1201.4,1077.1Z" shape-rendering="crispEdges"/><path fill="#759BC9" d="M1338.5,1015.4L1387.7,1013.9L1396.3,955.9Z" shape-rendering="crispEdges"/><path fill="#D28B84" d="M1158,-82.8L1099.6,-69.5L1112.1,-7.3Z" shape-rendering="crispEdges"/><path fill="#D88E73" d="M1053.5,-49.2L1023.2,-91.8L937.9,-29.5Z" shape-rendering="crispEdges"/><path fill="#C88685" d="M1258,-27.5L1186.4,-1.2L1267.4,47.9Z" shape-rendering="crispEdges"/><path fill="#F8894F" d="M455.3,187L431.1,283.7L529.2,291.5Z" shape-rendering="crispEdges"/><path fill="#709ECA" d="M1387.7,1013.9L1465.4,942L1396.3,955.9Z" shape-rendering="crispEdges"/><path fill="#8DC0DC" d="M1571.1,814.2L1498.7,718.2L1478.7,808.2Z" shape-rendering="crispEdges"/><path fill="#C2A899" d="M1639.2,356.3L1551.4,264.7L1568.8,374.2Z" shape-rendering="crispEdges"/><path fill="#C8AF9C" d="M1568.8,374.2L1551.4,264.7L1474.2,346.3Z" shape-rendering="crispEdges"/><path fill="#CC8C85" d="M1470.2,190.6L1487.9,135.9L1433.2,153.4Z" shape-rendering="crispEdges"/><path fill="#7CB3D4" d="M1571.1,814.2L1478.7,808.2L1569.2,876.8Z" shape-rendering="crispEdges"/><path fill="#868CC4" d="M1164.6,1161.7L1265.5,1103.7L1201.4,1077.1Z" shape-rendering="crispEdges"/><path fill="#B18F8F" d="M575.7,963.3L589.8,1017.4L636.4,976.4Z" shape-rendering="crispEdges"/><path fill="#A98691" d="M645.1,1025.5L640.9,1074.6L746.6,1032.2Z" shape-rendering="crispEdges"/><path fill="#B1898B" d="M506.5,979L589.8,1017.4L575.7,963.3Z" shape-rendering="crispEdges"/><path fill="#B9928E" d="M506.5,979L575.7,963.3L516.5,881.6Z" shape-rendering="crispEdges"/><path fill="#A391A8" d="M901.5,1181.5L944.2,1164L898.9,1105.6Z" shape-rendering="crispEdges"/><path fill="#9791BC" d="M1053.8,1127.2L1058.7,1180.5L1107.6,1127Z" shape-rendering="crispEdges"/><path fill="#8D8FC6" d="M1107.6,1127L1164.6,1161.7L1201.4,1077.1Z" shape-rendering="crispEdges"/><path fill="#C88683" d="M1351.9,-5.8L1267.4,47.9L1331.7,80.2Z" shape-rendering="crispEdges"/><path fill="#C28283" d="M1351.9,-5.8L1258,-27.5L1267.4,47.9Z" shape-rendering="crispEdges"/><path fill="#CC8781" d="M1396,34.8L1331.7,80.2L1433.2,153.4Z" shape-rendering="crispEdges"/><path fill="#FB9C5D" d="M335.3,366.3L376.3,437.3L414.5,346.3Z" shape-rendering="crispEdges"/><path fill="#FCA866" d="M414.5,346.3L376.3,437.3L461.1,438.8Z" shape-rendering="crispEdges"/><path fill="#D48C80" d="M1158,-82.8L1023.2,-91.8L1099.6,-69.5Z" shape-rendering="crispEdges"/><path fill="#D58D7B" d="M1099.6,-69.5L1023.2,-91.8L1053.5,-49.2Z" shape-rendering="crispEdges"/><path fill="#C88A85" d="M1538.9,178L1487.9,135.9L1470.2,190.6Z" shape-rendering="crispEdges"/><path fill="#79B0D3" d="M1569.2,876.8L1478.7,808.2L1472.1,905.1Z" shape-rendering="crispEdges"/><path fill="#FFB67C" d="M347,490.7L357,588.2L437.7,497.2Z" shape-rendering="crispEdges"/><path fill="#E3AE99" d="M444.3,717.1L371.3,726.7L462.5,783.9Z" shape-rendering="crispEdges"/><path fill="#DA8F6F" d="M1023.2,-91.8L957.3,-98.3L937.9,-29.5Z" shape-rendering="crispEdges"/><path fill="#AB818B" d="M589.8,1017.4L640.9,1074.6L645.1,1025.5Z" shape-rendering="crispEdges"/><path fill="#A38EA3" d="M825.8,1180.4L901.5,1181.5L898.9,1105.6Z" shape-rendering="crispEdges"/><path fill="#D98D69" d="M957.3,-98.3L867.7,-90L937.9,-29.5Z" shape-rendering="crispEdges"/><path fill="#9D93B5" d="M944.2,1164L1058.7,1180.5L1053.8,1127.2Z" shape-rendering="crispEdges"/><path fill="#CB8786" d="M1251.1,-88.1L1158,-82.8L1186.4,-1.2Z" shape-rendering="crispEdges"/><path fill="#DA8E6B" d="M1023.2,-91.8L833,-123.8L957.3,-98.3Z" shape-rendering="crispEdges"/><path fill="#E97846" d="M571.1,52L591.9,149.3L655,74.1Z" shape-rendering="crispEdges"/><path fill="#F8834D" d="M533,175.8L455.3,187L529.2,291.5Z" shape-rendering="crispEdges"/><path fill="#F9A56A" d="M306.7,504.9L347,490.7L277.9,417.5Z" shape-rendering="crispEdges"/><path fill="#9090C4" d="M1129.2,1181.4L1164.6,1161.7L1107.6,1127Z" shape-rendering="crispEdges"/><path fill="#A57E90" d="M640.9,1074.6L724.5,1125.8L746.6,1032.2Z" shape-rendering="crispEdges"/><path fill="#C2807E" d="M1461.9,29.6L1396,34.8L1433.2,153.4Z" shape-rendering="crispEdges"/><path fill="#C78585" d="M1258,-27.5L1251.1,-88.1L1186.4,-1.2Z" shape-rendering="crispEdges"/><path fill="#D67850" d="M646.1,-6.8L716.6,35.4L746.2,-16.3Z" shape-rendering="crispEdges"/><path fill="#DD794D" d="M646.1,-6.8L655,74.1L716.6,35.4Z" shape-rendering="crispEdges"/><path fill="#B6B9B2" d="M1701.5,453.1L1628.6,415.6L1607.3,529.6Z" shape-rendering="crispEdges"/><path fill="#BBBFB3" d="M1607.3,529.6L1628.6,415.6L1573,428.1Z" shape-rendering="crispEdges"/><path fill="#C9968D" d="M1551.4,264.7L1538.9,178L1500,255Z" shape-rendering="crispEdges"/><path fill="#B7AEA5" d="M1639.2,356.3L1628.6,415.6L1701.5,453.1Z" shape-rendering="crispEdges"/><path fill="#F8B397" d="M357,588.2L362.8,679.9L438.1,629.4Z" shape-rendering="crispEdges"/><path fill="#B88A89" d="M435.3,971L506.5,979L516.5,881.6Z" shape-rendering="crispEdges"/><path fill="#A48B9F" d="M825.8,1180.4L898.9,1105.6L789.8,1109Z" shape-rendering="crispEdges"/><path fill="#A194AE" d="M944.2,1164L901.5,1181.5L1058.7,1180.5Z" shape-rendering="crispEdges"/><path fill="#D57850" d="M713.9,-109.2L646.1,-6.8L746.2,-16.3Z" shape-rendering="crispEdges"/><path fill="#F98B50" d="M380.9,263.5L414.5,346.3L431.1,283.7Z" shape-rendering="crispEdges"/><path fill="#FEAF72" d="M376.3,437.3L347,490.7L437.7,497.2Z" shape-rendering="crispEdges"/><path fill="#EBA895" d="M306.9,679.6L371.3,726.7L362.8,679.9Z" shape-rendering="crispEdges"/><path fill="#EAAD98" d="M362.8,679.9L371.3,726.7L444.3,717.1Z" shape-rendering="crispEdges"/><path fill="#EA7141" d="M571.1,52L505.9,107.1L591.9,149.3Z" shape-rendering="crispEdges"/><path fill="#C28281" d="M1396,34.8L1351.9,-5.8L1331.7,80.2Z" shape-rendering="crispEdges"/><path fill="#C48B87" d="M1630.6,204.9L1538.9,178L1551.4,264.7Z" shape-rendering="crispEdges"/><path fill="#C7817D" d="M1487.9,135.9L1461.9,29.6L1433.2,153.4Z" shape-rendering="crispEdges"/><path fill="#8F8FC6" d="M1255,1196.5L1129.2,1181.4L1058.7,1180.5Z" shape-rendering="crispEdges"/><path fill="#9491C0" d="M1058.7,1180.5L1129.2,1181.4L1107.6,1127Z" shape-rendering="crispEdges"/><path fill="#D4A695" d="M411.3,863.3L491.4,788.2L462.5,783.9Z" shape-rendering="crispEdges"/><path fill="#A77486" d="M589.8,1017.4L607.6,1125.9L640.9,1074.6Z" shape-rendering="crispEdges"/><path fill="#A48799" d="M737.4,1191.4L825.8,1180.4L789.8,1109Z" shape-rendering="crispEdges"/><path fill="#699ECA" d="M1561.9,977.3L1569.2,876.8L1472.1,905.1Z" shape-rendering="crispEdges"/><path fill="#93BADA" d="M1643,735.7L1661.2,643.8L1585.9,731.1Z" shape-rendering="crispEdges"/><path fill="#A0C4DF" d="M1585.9,731.1L1661.2,643.8L1536.6,633.7Z" shape-rendering="crispEdges"/><path fill="#6A9CC9" d="M1561.9,977.3L1472.1,905.1L1465.4,942Z" shape-rendering="crispEdges"/><path fill="#D49F91" d="M353.5,778.6L411.3,863.3L462.5,783.9Z" shape-rendering="crispEdges"/><path fill="#B2B9B6" d="M1701.5,453.1L1607.3,529.6L1728,513Z" shape-rendering="crispEdges"/><path fill="#BDAFA2" d="M1628.6,415.6L1639.2,356.3L1568.8,374.2Z" shape-rendering="crispEdges"/><path fill="#F46F44" d="M377.6,175.7L380.9,263.5L455.3,187Z" shape-rendering="crispEdges"/><path fill="#F77D4A" d="M455.3,187L380.9,263.5L431.1,283.7Z" shape-rendering="crispEdges"/><path fill="#86B5D6" d="M1643,735.7L1585.9,731.1L1634.5,804.4Z" shape-rendering="crispEdges"/><path fill="#82B4D5" d="M1634.5,804.4L1585.9,731.1L1571.1,814.2Z" shape-rendering="crispEdges"/><path fill="#C28283" d="M1335.3,-103.1L1251.1,-88.1L1258,-27.5Z" shape-rendering="crispEdges"/><path fill="#CE8987" d="M1158,-82.8L1335.3,-103.1L1023.2,-91.8Z" shape-rendering="crispEdges"/><path fill="#F98E51" d="M380.9,263.5L335.3,366.3L414.5,346.3Z" shape-rendering="crispEdges"/><path fill="#F4AD97" d="M306.9,679.6L362.8,679.9L357,588.2Z" shape-rendering="crispEdges"/><path fill="#E1683F" d="M571.1,52L525,43.6L505.9,107.1Z" shape-rendering="crispEdges"/><path fill="#ED683E" d="M505.9,107.1L410.8,130L455.3,187Z" shape-rendering="crispEdges"/><path fill="#D86841" d="M600.4,-20.2L525,43.6L571.1,52Z" shape-rendering="crispEdges"/><path fill="#D98A65" d="M957.3,-98.3L833,-123.8L867.7,-90Z" shape-rendering="crispEdges"/><path fill="#D88760" d="M867.7,-90L833,-123.8L830.9,-11.2Z" shape-rendering="crispEdges"/><path fill="#D56C45" d="M646.1,-6.8L600.4,-20.2L571.1,52Z" shape-rendering="crispEdges"/><path fill="#D58D7B" d="M1335.3,-103.1L833,-123.8L1023.2,-91.8Z" shape-rendering="crispEdges"/><path fill="#E1A291" d="M278,703.2L353.5,778.6L371.3,726.7Z" shape-rendering="crispEdges"/><path fill="#DFA795" d="M371.3,726.7L353.5,778.6L462.5,783.9Z" shape-rendering="crispEdges"/><path fill="#FDB27C" d="M302.1,560.2L357,588.2L347,490.7Z" shape-rendering="crispEdges"/><path fill="#7183BE" d="M1362.9,1120.1L1404.3,1088.1L1338.5,1015.4Z" shape-rendering="crispEdges"/><path fill="#6A91C4" d="M1387.7,1013.9L1480,1047.3L1465.4,942Z" shape-rendering="crispEdges"/><path fill="#7785C0" d="M1362.9,1120.1L1338.5,1015.4L1265.5,1103.7Z" shape-rendering="crispEdges"/><path fill="#7886C0" d="M1362.9,1120.1L1265.5,1103.7L1323,1199Z" shape-rendering="crispEdges"/><path fill="#D46F49" d="M667.4,-112.1L600.4,-20.2L646.1,-6.8Z" shape-rendering="crispEdges"/><path fill="#848BC4" d="M1255,1196.5L1265.5,1103.7L1164.6,1161.7Z" shape-rendering="crispEdges"/><path fill="#FAA568" d="M277.9,417.5L347,490.7L376.3,437.3Z" shape-rendering="crispEdges"/><path fill="#FCAD75" d="M306.7,504.9L302.1,560.2L347,490.7Z" shape-rendering="crispEdges"/><path fill="#B67A7F" d="M1396,34.8L1399.1,-38L1351.9,-5.8Z" shape-rendering="crispEdges"/><path fill="#BE8082" d="M1351.9,-5.8L1335.3,-103.1L1258,-27.5Z" shape-rendering="crispEdges"/><path fill="#BE7B7B" d="M1543.2,106.1L1461.9,29.6L1487.9,135.9Z" shape-rendering="crispEdges"/><path fill="#C2817F" d="M1543.2,106.1L1487.9,135.9L1538.9,178Z" shape-rendering="crispEdges"/><path fill="#71A7CE" d="M1611.5,877.5L1571.1,814.2L1569.2,876.8Z" shape-rendering="crispEdges"/><path fill="#75A9CF" d="M1611.5,877.5L1634.5,804.4L1571.1,814.2Z" shape-rendering="crispEdges"/><path fill="#91B6D7" d="M1643,735.7L1691,709.8L1661.2,643.8Z" shape-rendering="crispEdges"/><path fill="#BE7D7D" d="M1615.2,154.5L1543.2,106.1L1538.9,178Z" shape-rendering="crispEdges"/><path fill="#A48395" d="M724.5,1125.8L737.4,1191.4L789.8,1109Z" shape-rendering="crispEdges"/><path fill="#A48A9D" d="M825.8,1180.4L737.4,1191.4L901.5,1181.5Z" shape-rendering="crispEdges"/><path fill="#9791BC" d="M901.5,1181.5L1255,1196.5L1058.7,1180.5Z" shape-rendering="crispEdges"/><path fill="#A57E90" d="M650.2,1190.6L737.4,1191.4L724.5,1125.8Z" shape-rendering="crispEdges"/><path fill="#A6788A" d="M607.6,1125.9L724.5,1125.8L640.9,1074.6Z" shape-rendering="crispEdges"/><path fill="#F7AC8C" d="M302.1,560.2L306.9,679.6L357,588.2Z" shape-rendering="crispEdges"/><path fill="#AE7C85" d="M489.3,1043.9L589.8,1017.4L506.5,979Z" shape-rendering="crispEdges"/><path fill="#A66D80" d="M517.8,1102.2L607.6,1125.9L589.8,1017.4Z" shape-rendering="crispEdges"/><path fill="#6378B8" d="M1492.6,1120.3L1480,1047.3L1404.3,1088.1Z" shape-rendering="crispEdges"/><path fill="#6A85BE" d="M1404.3,1088.1L1480,1047.3L1387.7,1013.9Z" shape-rendering="crispEdges"/><path fill="#659AC7" d="M1561.9,977.3L1611.5,877.5L1569.2,876.8Z" shape-rendering="crispEdges"/><path fill="#BC8384" d="M368.1,943.7L435.3,971L411.3,863.3Z" shape-rendering="crispEdges"/><path fill="#C0908B" d="M411.3,863.3L435.3,971L516.5,881.6Z" shape-rendering="crispEdges"/><path fill="#CD948B" d="M337.9,873.5L411.3,863.3L353.5,778.6Z" shape-rendering="crispEdges"/><path fill="#B5787C" d="M1458.1,4.5L1396,34.8L1461.9,29.6Z" shape-rendering="crispEdges"/><path fill="#B2777D" d="M1458.1,4.5L1399.1,-38L1396,34.8Z" shape-rendering="crispEdges"/><path fill="#8A8DC5" d="M1129.2,1181.4L1255,1196.5L1164.6,1161.7Z" shape-rendering="crispEdges"/><path fill="#667AB9" d="M1422.9,1175.3L1492.6,1120.3L1404.3,1088.1Z" shape-rendering="crispEdges"/><path fill="#A294AE" d="M737.4,1191.4L1255,1196.5L901.5,1181.5Z" shape-rendering="crispEdges"/><path fill="#D68057" d="M833,-123.8L713.9,-109.2L746.2,-16.3Z" shape-rendering="crispEdges"/><path fill="#AF727A" d="M1545.9,39.3L1458.1,4.5L1461.9,29.6Z" shape-rendering="crispEdges"/><path fill="#B3C3C3" d="M1720,550.5L1607.3,529.6L1608.6,561.8Z" shape-rendering="crispEdges"/><path fill="#BF8B89" d="M1662.4,253.8L1630.6,204.9L1551.4,264.7Z" shape-rendering="crispEdges"/><path fill="#AABFCB" d="M1720,550.5L1608.6,561.8L1661.2,643.8Z" shape-rendering="crispEdges"/><path fill="#DF603C" d="M442.6,42.4L505.9,107.1L525,43.6Z" shape-rendering="crispEdges"/><path fill="#E55D3A" d="M442.6,42.4L410.8,130L505.9,107.1Z" shape-rendering="crispEdges"/><path fill="#F4874E" d="M270.7,274.3L301.6,365.9L335.3,366.3Z" shape-rendering="crispEdges"/><path fill="#AE7681" d="M456.1,1010.3L489.3,1043.9L506.5,979Z" shape-rendering="crispEdges"/><path fill="#F5814A" d="M270.7,274.3L335.3,366.3L380.9,263.5Z" shape-rendering="crispEdges"/><path fill="#F89C5F" d="M335.3,366.3L277.9,417.5L376.3,437.3Z" shape-rendering="crispEdges"/><path fill="#F7A573" d="M194.9,492.9L205.3,578.2L302.1,560.2Z" shape-rendering="crispEdges"/><path fill="#B17B83" d="M435.3,971L456.1,1010.3L506.5,979Z" shape-rendering="crispEdges"/><path fill="#EE663E" d="M410.8,130L377.6,175.7L455.3,187Z" shape-rendering="crispEdges"/><path fill="#5F91C3" d="M1559.6,1002.4L1561.9,977.3L1465.4,942Z" shape-rendering="crispEdges"/><path fill="#7BAAD0" d="M1711.8,806.8L1643,735.7L1634.5,804.4Z" shape-rendering="crispEdges"/><path fill="#81ADD2" d="M1711.8,806.8L1691,709.8L1643,735.7Z" shape-rendering="crispEdges"/><path fill="#BF9990" d="M1662.4,253.8L1551.4,264.7L1639.2,356.3Z" shape-rendering="crispEdges"/><path fill="#B47479" d="M1543.2,106.1L1545.9,39.3L1461.9,29.6Z" shape-rendering="crispEdges"/><path fill="#A0B7D1" d="M1716.5,663L1720,550.5L1661.2,643.8Z" shape-rendering="crispEdges"/><path fill="#F28F56" d="M219.4,424.3L277.9,417.5L228.7,357.8Z" shape-rendering="crispEdges"/><path fill="#F69358" d="M301.6,365.9L277.9,417.5L335.3,366.3Z" shape-rendering="crispEdges"/><path fill="#E9A08F" d="M237.1,663.2L278,703.2L306.9,679.6Z" shape-rendering="crispEdges"/><path fill="#B9938F" d="M1710.3,298.8L1662.4,253.8L1639.2,356.3Z" shape-rendering="crispEdges"/><path fill="#B97D80" d="M1399.1,-38L1335.3,-103.1L1351.9,-5.8Z" shape-rendering="crispEdges"/><path fill="#C68484" d="M1251.1,-88.1L1335.3,-103.1L1158,-82.8Z" shape-rendering="crispEdges"/><path fill="#B67A7F" d="M1412.2,-75.1L1335.3,-103.1L1399.1,-38Z" shape-rendering="crispEdges"/><path fill="#D5744D" d="M713.9,-109.2L667.4,-112.1L646.1,-6.8Z" shape-rendering="crispEdges"/><path fill="#D3603F" d="M600.4,-20.2L485.3,-0.5L525,43.6Z" shape-rendering="crispEdges"/><path fill="#D67C54" d="M833,-123.8L667.4,-112.1L713.9,-109.2Z" shape-rendering="crispEdges"/><path fill="#5A77B7" d="M1542.7,1126.5L1559.6,1002.4L1480,1047.3Z" shape-rendering="crispEdges"/><path fill="#628DC1" d="M1480,1047.3L1559.6,1002.4L1465.4,942Z" shape-rendering="crispEdges"/><path fill="#5B8DC1" d="M1561.9,977.3L1655.1,972.4L1611.5,877.5Z" shape-rendering="crispEdges"/><path fill="#8DA8D1" d="M1785.4,653.4L1716.5,663L1776,729.7Z" shape-rendering="crispEdges"/><path fill="#B7747B" d="M1684.2,126.4L1615.2,154.5L1630.6,204.9Z" shape-rendering="crispEdges"/><path fill="#BE7F80" d="M1630.6,204.9L1615.2,154.5L1538.9,178Z" shape-rendering="crispEdges"/><path fill="#6C9DC9" d="M1711.8,806.8L1634.5,804.4L1723.2,871.7Z" shape-rendering="crispEdges"/><path fill="#95B5D7" d="M1691,709.8L1716.5,663L1661.2,643.8Z" shape-rendering="crispEdges"/><path fill="#ABA9AF" d="M1779.5,452L1728,513L1799.6,522Z" shape-rendering="crispEdges"/><path fill="#B0BCBD" d="M1720,550.5L1728,513L1607.3,529.6Z" shape-rendering="crispEdges"/><path fill="#B69791" d="M1725.3,325.5L1710.3,298.8L1639.2,356.3Z" shape-rendering="crispEdges"/><path fill="#F2A68F" d="M237.1,663.2L306.9,679.6L302.1,560.2Z" shape-rendering="crispEdges"/><path fill="#E7A492" d="M306.9,679.6L278,703.2L371.3,726.7Z" shape-rendering="crispEdges"/><path fill="#AA6278" d="M366.4,1029L425.4,1079.2L456.1,1010.3Z" shape-rendering="crispEdges"/><path fill="#A67285" d="M574.9,1159L650.2,1190.6L607.6,1125.9Z" shape-rendering="crispEdges"/><path fill="#A6788A" d="M607.6,1125.9L650.2,1190.6L724.5,1125.8Z" shape-rendering="crispEdges"/><path fill="#9490C0" d="M737.4,1191.4L1323,1199L1255,1196.5Z" shape-rendering="crispEdges"/><path fill="#CE9289" d="M298.8,814.9L337.9,873.5L353.5,778.6Z" shape-rendering="crispEdges"/><path fill="#A48A9D" d="M407.4,1200.3L1323,1199L737.4,1191.4Z" shape-rendering="crispEdges"/><path fill="#7D88C2" d="M1255,1196.5L1323,1199L1265.5,1103.7Z" shape-rendering="crispEdges"/><path fill="#A96F80" d="M489.3,1043.9L517.8,1102.2L589.8,1017.4Z" shape-rendering="crispEdges"/><path fill="#A65F79" d="M425.4,1079.2L517.8,1102.2L489.3,1043.9Z" shape-rendering="crispEdges"/><path fill="#A65F79" d="M536.7,1176.1L517.8,1102.2L407.4,1200.3Z" shape-rendering="crispEdges"/><path fill="#EB5C3A" d="M410.8,130L374.3,128.2L377.6,175.7Z" shape-rendering="crispEdges"/><path fill="#D26341" d="M586.3,-94.6L485.3,-0.5L600.4,-20.2Z" shape-rendering="crispEdges"/><path fill="#D65A3C" d="M485.3,-0.5L442.6,42.4L525,43.6Z" shape-rendering="crispEdges"/><path fill="#AE737B" d="M1480.2,-95L1412.2,-75.1L1458.1,4.5Z" shape-rendering="crispEdges"/><path fill="#B1767D" d="M1458.1,4.5L1412.2,-75.1L1399.1,-38Z" shape-rendering="crispEdges"/><path fill="#E55135" d="M367.5,61.5L374.3,128.2L410.8,130Z" shape-rendering="crispEdges"/><path fill="#F06B41" d="M281.8,182.5L270.7,274.3L380.9,263.5Z" shape-rendering="crispEdges"/><path fill="#C28785" d="M337.9,873.5L368.1,943.7L411.3,863.3Z" shape-rendering="crispEdges"/><path fill="#B16F76" d="M1630.2,76.1L1545.9,39.3L1543.2,106.1Z" shape-rendering="crispEdges"/><path fill="#A66C80" d="M517.8,1102.2L574.9,1159L607.6,1125.9Z" shape-rendering="crispEdges"/><path fill="#DA9B8D" d="M278,703.2L298.8,814.9L353.5,778.6Z" shape-rendering="crispEdges"/><path fill="#B97A7F" d="M337.9,873.5L293.5,955.6L368.1,943.7Z" shape-rendering="crispEdges"/><path fill="#D36C47" d="M667.4,-112.1L586.3,-94.6L600.4,-20.2Z" shape-rendering="crispEdges"/><path fill="#B5A29C" d="M1725.3,325.5L1639.2,356.3L1701.5,453.1Z" shape-rendering="crispEdges"/><path fill="#BA8184" d="M1662.4,253.8L1686.9,226.9L1630.6,204.9Z" shape-rendering="crispEdges"/><path fill="#B77176" d="M1615.2,154.5L1630.2,76.1L1543.2,106.1Z" shape-rendering="crispEdges"/><path fill="#B78587" d="M1710.3,298.8L1686.9,226.9L1662.4,253.8Z" shape-rendering="crispEdges"/><path fill="#B09A98" d="M1788.7,347.1L1725.3,325.5L1701.5,453.1Z" shape-rendering="crispEdges"/><path fill="#B38487" d="M1710.3,298.8L1779.8,302.5L1686.9,226.9Z" shape-rendering="crispEdges"/><path fill="#C38381" d="M218.9,903.9L305.4,869.3L298.8,814.9Z" shape-rendering="crispEdges"/><path fill="#C78A85" d="M298.8,814.9L305.4,869.3L337.9,873.5Z" shape-rendering="crispEdges"/><path fill="#6C7EBC" d="M1422.9,1175.3L1404.3,1088.1L1362.9,1120.1Z" shape-rendering="crispEdges"/><path fill="#537FBA" d="M1655.1,972.4L1561.9,977.3L1622.7,1031.2Z" shape-rendering="crispEdges"/><path fill="#6A9EC9" d="M1723.2,871.7L1634.5,804.4L1611.5,877.5Z" shape-rendering="crispEdges"/><path fill="#ABB2B8" d="M1799.6,522L1728,513L1720,550.5Z" shape-rendering="crispEdges"/><path fill="#7081BE" d="M1323,1199L1422.9,1175.3L1362.9,1120.1Z" shape-rendering="crispEdges"/><path fill="#F3A383" d="M205.3,578.2L237.1,663.2L302.1,560.2Z" shape-rendering="crispEdges"/><path fill="#DC998B" d="M278,703.2L215.6,708L298.8,814.9Z" shape-rendering="crispEdges"/><path fill="#F0663F" d="M281.8,182.5L380.9,263.5L377.6,175.7Z" shape-rendering="crispEdges"/><path fill="#F69C62" d="M277.9,417.5L219.4,424.3L306.7,504.9Z" shape-rendering="crispEdges"/><path fill="#F48E54" d="M228.7,357.8L277.9,417.5L301.6,365.9Z" shape-rendering="crispEdges"/><path fill="#AA667B" d="M425.4,1079.2L489.3,1043.9L456.1,1010.3Z" shape-rendering="crispEdges"/><path fill="#A6687E" d="M517.8,1102.2L536.7,1176.1L574.9,1159Z" shape-rendering="crispEdges"/><path fill="#A66F82" d="M574.9,1159L536.7,1176.1L650.2,1190.6Z" shape-rendering="crispEdges"/><path fill="#AF6E7C" d="M456.1,1010.3L435.3,971L366.4,1029Z" shape-rendering="crispEdges"/><path fill="#B1717D" d="M366.4,1029L435.3,971L368.1,943.7Z" shape-rendering="crispEdges"/><path fill="#F2824A" d="M270.7,274.3L228.7,357.8L301.6,365.9Z" shape-rendering="crispEdges"/><path fill="#B7767D" d="M1684.2,126.4L1630.6,204.9L1686.9,226.9Z" shape-rendering="crispEdges"/><path fill="#B36B74" d="M1684.2,126.4L1630.2,76.1L1615.2,154.5Z" shape-rendering="crispEdges"/><path fill="#A86E78" d="M1566.3,-34.2L1480.2,-95L1458.1,4.5Z" shape-rendering="crispEdges"/><path fill="#DF5236" d="M442.6,42.4L367.5,61.5L410.8,130Z" shape-rendering="crispEdges"/><path fill="#E95838" d="M374.3,128.2L297.3,153.6L377.6,175.7Z" shape-rendering="crispEdges"/><path fill="#EF7543" d="M270.7,274.3L236.8,265.7L228.7,357.8Z" shape-rendering="crispEdges"/><path fill="#D34A36" d="M411.6,-23L367.5,61.5L442.6,42.4Z" shape-rendering="crispEdges"/><path fill="#D04F39" d="M411.6,-23L442.6,42.4L485.3,-0.5Z" shape-rendering="crispEdges"/><path fill="#5680BB" d="M1622.7,1031.2L1561.9,977.3L1559.6,1002.4Z" shape-rendering="crispEdges"/><path fill="#F8A771" d="M194.9,492.9L302.1,560.2L306.7,504.9Z" shape-rendering="crispEdges"/><path fill="#E69C8C" d="M237.1,663.2L215.6,708L278,703.2Z" shape-rendering="crispEdges"/><path fill="#ADACAD" d="M1728,513L1779.5,452L1701.5,453.1Z" shape-rendering="crispEdges"/><path fill="#B06C78" d="M1797.6,191.2L1684.2,126.4L1686.9,226.9Z" shape-rendering="crispEdges"/><path fill="#9CB1CF" d="M1785.4,653.4L1720,550.5L1716.5,663Z" shape-rendering="crispEdges"/><path fill="#B06D79" d="M293.5,955.6L366.4,1029L368.1,943.7Z" shape-rendering="crispEdges"/><path fill="#A55976" d="M425.4,1079.2L407.4,1200.3L517.8,1102.2Z" shape-rendering="crispEdges"/><path fill="#E69789" d="M107.9,635.8L215.6,708L237.1,663.2Z" shape-rendering="crispEdges"/><path fill="#BD7E80" d="M305.4,869.3L293.5,955.6L337.9,873.5Z" shape-rendering="crispEdges"/><path fill="#E44D33" d="M367.5,61.5L297.3,153.6L374.3,128.2Z" shape-rendering="crispEdges"/><path fill="#E95838" d="M297.3,153.6L281.8,182.5L377.6,175.7Z" shape-rendering="crispEdges"/><path fill="#5C73B5" d="M1542.7,1126.5L1480,1047.3L1492.6,1120.3Z" shape-rendering="crispEdges"/><path fill="#5273B4" d="M1627.2,1078.3L1622.7,1031.2L1559.6,1002.4Z" shape-rendering="crispEdges"/><path fill="#7DA7CF" d="M1776,729.7L1691,709.8L1711.8,806.8Z" shape-rendering="crispEdges"/><path fill="#89ACD2" d="M1776,729.7L1716.5,663L1691,709.8Z" shape-rendering="crispEdges"/><path fill="#A66C77" d="M1566.3,-34.2L1458.1,4.5L1545.9,39.3Z" shape-rendering="crispEdges"/><path fill="#B3787D" d="M1412.2,-75.1L1480.2,-95L1335.3,-103.1Z" shape-rendering="crispEdges"/><path fill="#EC9362" d="M134.7,490.8L194.9,492.9L118.7,452.8Z" shape-rendering="crispEdges"/><path fill="#F59C65" d="M219.4,424.3L194.9,492.9L306.7,504.9Z" shape-rendering="crispEdges"/><path fill="#D08982" d="M160.6,799.4L183.7,826.3L215.6,708Z" shape-rendering="crispEdges"/><path fill="#598BC0" d="M1702.7,929.4L1611.5,877.5L1655.1,972.4Z" shape-rendering="crispEdges"/><path fill="#5D90C2" d="M1702.7,929.4L1723.2,871.7L1611.5,877.5Z" shape-rendering="crispEdges"/><path fill="#5B73B5" d="M1491.9,1191.6L1542.7,1126.5L1492.6,1120.3Z" shape-rendering="crispEdges"/><path fill="#739BC9" d="M1789,804.2L1776,729.7L1711.8,806.8Z" shape-rendering="crispEdges"/><path fill="#B28A8B" d="M1779.8,302.5L1710.3,298.8L1725.3,325.5Z" shape-rendering="crispEdges"/><path fill="#A56774" d="M1630.2,76.1L1566.3,-34.2L1545.9,39.3Z" shape-rendering="crispEdges"/><path fill="#ED643D" d="M281.8,182.5L236.8,265.7L270.7,274.3Z" shape-rendering="crispEdges"/><path fill="#EF935E" d="M118.7,452.8L194.9,492.9L219.4,424.3Z" shape-rendering="crispEdges"/><path fill="#E95738" d="M224.9,174.4L236.8,265.7L281.8,182.5Z" shape-rendering="crispEdges"/><path fill="#A8AEBA" d="M1807.9,574.1L1799.6,522L1720,550.5Z" shape-rendering="crispEdges"/><path fill="#4B79B6" d="M1685,1040.4L1702.7,929.4L1655.1,972.4Z" shape-rendering="crispEdges"/><path fill="#6795C6" d="M1723.2,871.7L1789,804.2L1711.8,806.8Z" shape-rendering="crispEdges"/><path fill="#E44D33" d="M231.5,133.9L281.8,182.5L297.3,153.6Z" shape-rendering="crispEdges"/><path fill="#CF5039" d="M458.7,-124L411.6,-23L485.3,-0.5Z" shape-rendering="crispEdges"/><path fill="#9E6273" d="M1582.2,-69.6L1566.3,-34.2L1613.5,-48.4Z" shape-rendering="crispEdges"/><path fill="#D36843" d="M667.4,-112.1L512.9,-115.7L586.3,-94.6Z" shape-rendering="crispEdges"/><path fill="#D15E3F" d="M586.3,-94.6L512.9,-115.7L485.3,-0.5Z" shape-rendering="crispEdges"/><path fill="#D26140" d="M458.7,-124L512.9,-115.7L667.4,-112.1Z" shape-rendering="crispEdges"/><path fill="#A0ADC5" d="M1785.4,653.4L1807.9,574.1L1720,550.5Z" shape-rendering="crispEdges"/><path fill="#A3A0B7" d="M1863.4,510.7L1807.9,574.1L1870.6,589.5Z" shape-rendering="crispEdges"/><path fill="#B9767B" d="M218.9,903.9L293.5,955.6L305.4,869.3Z" shape-rendering="crispEdges"/><path fill="#AB969B" d="M1843.1,432.9L1788.7,347.1L1779.5,452Z" shape-rendering="crispEdges"/><path fill="#AEA0A0" d="M1779.5,452L1788.7,347.1L1701.5,453.1Z" shape-rendering="crispEdges"/><path fill="#AA9FA7" d="M1843.1,432.9L1779.5,452L1799.6,522Z" shape-rendering="crispEdges"/><path fill="#536DB2" d="M1542.7,1126.5L1627.2,1078.3L1559.6,1002.4Z" shape-rendering="crispEdges"/><path fill="#6177B7" d="M1422.9,1175.3L1491.9,1191.6L1492.6,1120.3Z" shape-rendering="crispEdges"/><path fill="#6A7DBB" d="M1323,1199L1491.9,1191.6L1422.9,1175.3Z" shape-rendering="crispEdges"/><path fill="#B08A8C" d="M1788.7,347.1L1779.8,302.5L1725.3,325.5Z" shape-rendering="crispEdges"/><path fill="#526AB0" d="M1569.2,1174.9L1627.2,1078.3L1542.7,1126.5Z" shape-rendering="crispEdges"/><path fill="#4C73B3" d="M1622.7,1031.2L1685,1040.4L1655.1,972.4Z" shape-rendering="crispEdges"/><path fill="#628DC1" d="M1810.5,850.9L1789,804.2L1723.2,871.7Z" shape-rendering="crispEdges"/><path fill="#99A2C7" d="M1868.6,625.8L1807.9,574.1L1785.4,653.4Z" shape-rendering="crispEdges"/><path fill="#5781BB" d="M1810.5,850.9L1723.2,871.7L1809,946.3Z" shape-rendering="crispEdges"/><path fill="#9C6072" d="M1613.5,-48.4L1566.3,-34.2L1630.2,76.1Z" shape-rendering="crispEdges"/><path fill="#A36976" d="M1566.3,-34.2L1582.2,-69.6L1480.2,-95Z" shape-rendering="crispEdges"/><path fill="#9A5B70" d="M1613.5,-48.4L1630.2,76.1L1688.3,5.5Z" shape-rendering="crispEdges"/><path fill="#A65470" d="M275.9,1016.4L335.5,1079.8L366.4,1029Z" shape-rendering="crispEdges"/><path fill="#A65371" d="M366.4,1029L335.5,1079.8L425.4,1079.2Z" shape-rendering="crispEdges"/><path fill="#E34B32" d="M231.5,133.9L224.9,174.4L281.8,182.5Z" shape-rendering="crispEdges"/><path fill="#E98653" d="M118.7,452.8L219.4,424.3L108.8,330.8Z" shape-rendering="crispEdges"/><path fill="#DD3F2D" d="M231.5,133.9L297.3,153.6L265.8,53.1Z" shape-rendering="crispEdges"/><path fill="#4661AA" d="M1714.6,1080.5L1685,1040.4L1627.2,1078.3Z" shape-rendering="crispEdges"/><path fill="#4B6AAF" d="M1627.2,1078.3L1685,1040.4L1622.7,1031.2Z" shape-rendering="crispEdges"/><path fill="#D4714B" d="M833,-123.8L458.7,-124L667.4,-112.1Z" shape-rendering="crispEdges"/><path fill="#D0563B" d="M512.9,-115.7L458.7,-124L485.3,-0.5Z" shape-rendering="crispEdges"/><path fill="#DC432F" d="M265.8,53.1L297.3,153.6L367.5,61.5Z" shape-rendering="crispEdges"/><path fill="#A86170" d="M1694.4,42.9L1630.2,76.1L1684.2,126.4Z" shape-rendering="crispEdges"/><path fill="#AE868B" d="M1788.7,347.1L1833.8,357.2L1779.8,302.5Z" shape-rendering="crispEdges"/><path fill="#A75B6D" d="M1790.6,136.9L1694.4,42.9L1684.2,126.4Z" shape-rendering="crispEdges"/><path fill="#A89CA9" d="M1863.4,510.7L1843.1,432.9L1799.6,522Z" shape-rendering="crispEdges"/><path fill="#A7A5B3" d="M1863.4,510.7L1799.6,522L1807.9,574.1Z" shape-rendering="crispEdges"/><path fill="#D28E85" d="M183.7,826.3L298.8,814.9L215.6,708Z" shape-rendering="crispEdges"/><path fill="#C4817F" d="M183.7,826.3L218.9,903.9L298.8,814.9Z" shape-rendering="crispEdges"/><path fill="#AB6174" d="M293.5,955.6L275.9,1016.4L366.4,1029Z" shape-rendering="crispEdges"/><path fill="#5770B3" d="M1491.9,1191.6L1569.2,1174.9L1542.7,1126.5Z" shape-rendering="crispEdges"/><path fill="#B1757F" d="M1797.6,191.2L1686.9,226.9L1779.8,302.5Z" shape-rendering="crispEdges"/><path fill="#AC8C93" d="M1843.1,432.9L1833.8,357.2L1788.7,347.1Z" shape-rendering="crispEdges"/><path fill="#EC9A85" d="M107.9,635.8L237.1,663.2L205.3,578.2Z" shape-rendering="crispEdges"/><path fill="#ED814C" d="M219.4,424.3L228.7,357.8L108.8,330.8Z" shape-rendering="crispEdges"/><path fill="#F29E70" d="M194.9,492.9L131.9,563.8L205.3,578.2Z" shape-rendering="crispEdges"/><path fill="#A95E71" d="M222.2,1001.7L275.9,1016.4L293.5,955.6Z" shape-rendering="crispEdges"/><path fill="#EE996A" d="M134.7,490.8L131.9,563.8L194.9,492.9Z" shape-rendering="crispEdges"/><path fill="#CD4033" d="M333.6,-18.8L367.5,61.5L411.6,-23Z" shape-rendering="crispEdges"/><path fill="#EC7442" d="M108.8,330.8L228.7,357.8L236.8,265.7Z" shape-rendering="crispEdges"/><path fill="#CB3E33" d="M342.8,-111.8L333.6,-18.8L411.6,-23Z" shape-rendering="crispEdges"/><path fill="#9C9EC0" d="M1870.6,589.5L1807.9,574.1L1868.6,625.8Z" shape-rendering="crispEdges"/><path fill="#AA7987" d="M1911.3,372.3L1867.4,280.4L1833.8,357.2Z" shape-rendering="crispEdges"/><path fill="#B56F76" d="M126.4,850.9L185.6,933.6L218.9,903.9Z" shape-rendering="crispEdges"/><path fill="#AF6774" d="M218.9,903.9L222.2,1001.7L293.5,955.6Z" shape-rendering="crispEdges"/><path fill="#D38D84" d="M117.6,742.4L160.6,799.4L215.6,708Z" shape-rendering="crispEdges"/><path fill="#5280BA" d="M1809,946.3L1723.2,871.7L1702.7,929.4Z" shape-rendering="crispEdges"/><path fill="#8F9CCC" d="M1868.6,625.8L1785.4,653.4L1872.9,702.7Z" shape-rendering="crispEdges"/><path fill="#AD697A" d="M1836.2,202.8L1797.6,191.2L1779.8,302.5Z" shape-rendering="crispEdges"/><path fill="#9E5B6F" d="M1694.4,42.9L1688.3,5.5L1630.2,76.1Z" shape-rendering="crispEdges"/><path fill="#93516B" d="M1763.1,-0.9L1688.3,5.5L1694.4,42.9Z" shape-rendering="crispEdges"/><path fill="#CF3C30" d="M333.6,-18.8L265.8,53.1L367.5,61.5Z" shape-rendering="crispEdges"/><path fill="#889DCC" d="M1785.4,653.4L1776,729.7L1872.9,702.7Z" shape-rendering="crispEdges"/><path fill="#7B94C7" d="M1872.9,702.7L1776,729.7L1866.3,793.6Z" shape-rendering="crispEdges"/><path fill="#E75536" d="M162.9,218.7L236.8,265.7L224.9,174.4Z" shape-rendering="crispEdges"/><path fill="#E99669" d="M134.7,490.8L79.2,486.4L131.9,563.8Z" shape-rendering="crispEdges"/><path fill="#A55171" d="M362.9,1179.2L407.4,1200.3L425.4,1079.2Z" shape-rendering="crispEdges"/><path fill="#A6667D" d="M536.7,1176.1L407.4,1200.3L650.2,1190.6Z" shape-rendering="crispEdges"/><path fill="#A67083" d="M650.2,1190.6L407.4,1200.3L737.4,1191.4Z" shape-rendering="crispEdges"/><path fill="#A44D6F" d="M362.9,1179.2L425.4,1079.2L335.5,1079.8Z" shape-rendering="crispEdges"/><path fill="#DD3F2C" d="M156.4,125.6L224.9,174.4L231.5,133.9Z" shape-rendering="crispEdges"/><path fill="#DF442F" d="M156.4,125.6L162.9,218.7L224.9,174.4Z" shape-rendering="crispEdges"/><path fill="#E3957D" d="M57.8,598.2L107.9,635.8L131.9,563.8Z" shape-rendering="crispEdges"/><path fill="#EA997C" d="M131.9,563.8L107.9,635.8L205.3,578.2Z" shape-rendering="crispEdges"/><path fill="#A75870" d="M1836.3,152.7L1790.6,136.9L1797.6,191.2Z" shape-rendering="crispEdges"/><path fill="#AA5F72" d="M1797.6,191.2L1790.6,136.9L1684.2,126.4Z" shape-rendering="crispEdges"/><path fill="#7393C6" d="M1866.3,793.6L1776,729.7L1789,804.2Z" shape-rendering="crispEdges"/><path fill="#9E94B4" d="M1948.2,598.5L1924.3,510L1870.6,589.5Z" shape-rendering="crispEdges"/><path fill="#A1476C" d="M298.4,1175.8L362.9,1179.2L335.5,1079.8Z" shape-rendering="crispEdges"/><path fill="#95576E" d="M1689.9,-73.3L1613.5,-48.4L1688.3,5.5Z" shape-rendering="crispEdges"/><path fill="#97596F" d="M1689.9,-73.3L1636,-89.3L1613.5,-48.4Z" shape-rendering="crispEdges"/><path fill="#9B5F72" d="M1613.5,-48.4L1636,-89.3L1582.2,-69.6Z" shape-rendering="crispEdges"/><path fill="#A06574" d="M1582.2,-69.6L1636,-89.3L1480.2,-95Z" shape-rendering="crispEdges"/><path fill="#A16775" d="M1480.2,-95L1860.9,-111.6L1335.3,-103.1Z" shape-rendering="crispEdges"/><path fill="#C17E7D" d="M126.4,850.9L183.7,826.3L160.6,799.4Z" shape-rendering="crispEdges"/><path fill="#BC787A" d="M126.4,850.9L218.9,903.9L183.7,826.3Z" shape-rendering="crispEdges"/><path fill="#A1476A" d="M275.9,1016.4L275,1110.3L335.5,1079.8Z" shape-rendering="crispEdges"/><path fill="#AE6572" d="M185.6,933.6L222.2,1001.7L218.9,903.9Z" shape-rendering="crispEdges"/><path fill="#DB9187" d="M107.9,635.8L117.6,742.4L215.6,708Z" shape-rendering="crispEdges"/><path fill="#4570B2" d="M1788.2,1025.7L1809,946.3L1702.7,929.4Z" shape-rendering="crispEdges"/><path fill="#6889C0" d="M1810.5,850.9L1866.3,793.6L1789,804.2Z" shape-rendering="crispEdges"/><path fill="#435BA8" d="M1717.9,1166.6L1714.6,1080.5L1627.2,1078.3Z" shape-rendering="crispEdges"/><path fill="#AC6D7D" d="M1867.4,280.4L1836.2,202.8L1779.8,302.5Z" shape-rendering="crispEdges"/><path fill="#904F6B" d="M1763.1,-0.9L1689.9,-73.3L1688.3,5.5Z" shape-rendering="crispEdges"/><path fill="#AD7B85" d="M1867.4,280.4L1779.8,302.5L1833.8,357.2Z" shape-rendering="crispEdges"/><path fill="#A98692" d="M1833.8,357.2L1843.1,432.9L1911.3,372.3Z" shape-rendering="crispEdges"/><path fill="#5E7EBA" d="M1873.8,904L1866.3,793.6L1810.5,850.9Z" shape-rendering="crispEdges"/><path fill="#E5663E" d="M119.9,260.5L108.8,330.8L236.8,265.7Z" shape-rendering="crispEdges"/><path fill="#E79061" d="M118.7,452.8L79.2,486.4L134.7,490.8Z" shape-rendering="crispEdges"/><path fill="#446EB0" d="M1788.2,1025.7L1702.7,929.4L1685,1040.4Z" shape-rendering="crispEdges"/><path fill="#A49AAF" d="M1924.3,510L1863.4,510.7L1870.6,589.5Z" shape-rendering="crispEdges"/><path fill="#A694A5" d="M1924.3,510L1843.1,432.9L1863.4,510.7Z" shape-rendering="crispEdges"/><path fill="#C92C2A" d="M215.3,-10.3L208.8,68.8L265.8,53.1Z" shape-rendering="crispEdges"/><path fill="#D5352A" d="M265.8,53.1L208.8,68.8L231.5,133.9Z" shape-rendering="crispEdges"/><path fill="#E55B39" d="M162.9,218.7L119.9,260.5L236.8,265.7Z" shape-rendering="crispEdges"/><path fill="#C6322D" d="M266.2,-28.5L265.8,53.1L333.6,-18.8Z" shape-rendering="crispEdges"/><path fill="#E28A5C" d="M41.5,417.2L79.2,486.4L118.7,452.8Z" shape-rendering="crispEdges"/><path fill="#D18B85" d="M107.9,635.8L34.5,731.4L117.6,742.4Z" shape-rendering="crispEdges"/><path fill="#9D3E66" d="M298.4,1175.8L275,1110.3L214.6,1198.6Z" shape-rendering="crispEdges"/><path fill="#9D3E65" d="M187.1,1094.3L275,1110.3L275.9,1016.4Z" shape-rendering="crispEdges"/><path fill="#DC5036" d="M63.5,212.7L119.9,260.5L162.9,218.7Z" shape-rendering="crispEdges"/><path fill="#E27B4D" d="M108.8,330.8L79.8,339.3L118.7,452.8Z" shape-rendering="crispEdges"/><path fill="#CD4636" d="M458.7,-124L342.8,-111.8L411.6,-23Z" shape-rendering="crispEdges"/><path fill="#BD7C7D" d="M49.3,798.1L126.4,850.9L160.6,799.4Z" shape-rendering="crispEdges"/><path fill="#A65A6D" d="M185.6,933.6L119.7,979.6L222.2,1001.7Z" shape-rendering="crispEdges"/><path fill="#B5767B" d="M70.1,850.5L126.4,850.9L49.3,798.1Z" shape-rendering="crispEdges"/><path fill="#C6332E" d="M299.1,-99.2L266.2,-28.5L333.6,-18.8Z" shape-rendering="crispEdges"/><path fill="#A5516E" d="M1928.6,186.8L1836.3,152.7L1836.2,202.8Z" shape-rendering="crispEdges"/><path fill="#A85A72" d="M1836.2,202.8L1836.3,152.7L1797.6,191.2Z" shape-rendering="crispEdges"/><path fill="#9D516A" d="M1782.3,34.2L1694.4,42.9L1790.6,136.9Z" shape-rendering="crispEdges"/><path fill="#8D93C8" d="M1928.2,653.9L1868.6,625.8L1872.9,702.7Z" shape-rendering="crispEdges"/><path fill="#9896BE" d="M1948.2,598.5L1870.6,589.5L1868.6,625.8Z" shape-rendering="crispEdges"/><path fill="#9C3F64" d="M1930.9,107.3L1838.1,52L1836.3,152.7Z" shape-rendering="crispEdges"/><path fill="#405EA9" d="M1714.6,1080.5L1788.2,1025.7L1685,1040.4Z" shape-rendering="crispEdges"/><path fill="#5276B5" d="M1809,946.3L1873.8,904L1810.5,850.9Z" shape-rendering="crispEdges"/><path fill="#A68695" d="M1952.3,448.5L1911.3,372.3L1843.1,432.9Z" shape-rendering="crispEdges"/><path fill="#526BB0" d="M1491.9,1191.6L1659.5,1194.2L1569.2,1174.9Z" shape-rendering="crispEdges"/><path fill="#4C64AD" d="M1569.2,1174.9L1659.5,1194.2L1627.2,1078.3Z" shape-rendering="crispEdges"/><path fill="#3D54A4" d="M1714.6,1080.5L1770.1,1095.2L1788.2,1025.7Z" shape-rendering="crispEdges"/><path fill="#5E74B6" d="M1323,1199L1659.5,1194.2L1491.9,1191.6Z" shape-rendering="crispEdges"/><path fill="#D83228" d="M208.8,68.8L156.4,125.6L231.5,133.9Z" shape-rendering="crispEdges"/><path fill="#CE2927" d="M156.7,40.8L156.4,125.6L208.8,68.8Z" shape-rendering="crispEdges"/><path fill="#DD623E" d="M60.5,272.8L108.8,330.8L119.9,260.5Z" shape-rendering="crispEdges"/><path fill="#DD6A41" d="M60.5,272.8L79.8,339.3L108.8,330.8Z" shape-rendering="crispEdges"/><path fill="#9A4867" d="M1838.1,52L1782.3,34.2L1790.6,136.9Z" shape-rendering="crispEdges"/><path fill="#E0936F" d="M4.8,557.3L57.8,598.2L79.2,486.4Z" shape-rendering="crispEdges"/><path fill="#E69770" d="M79.2,486.4L57.8,598.2L131.9,563.8Z" shape-rendering="crispEdges"/><path fill="#934D69" d="M1782.3,34.2L1763.1,-0.9L1694.4,42.9Z" shape-rendering="crispEdges"/><path fill="#7A8BC3" d="M1932.5,714.5L1872.9,702.7L1866.3,793.6Z" shape-rendering="crispEdges"/><path fill="#848CC4" d="M1932.5,714.5L1928.2,653.9L1872.9,702.7Z" shape-rendering="crispEdges"/><path fill="#A14968" d="M187.1,1094.3L275.9,1016.4L222.2,1001.7Z" shape-rendering="crispEdges"/><path fill="#A04369" d="M275,1110.3L298.4,1175.8L335.5,1079.8Z" shape-rendering="crispEdges"/><path fill="#A34B6E" d="M362.9,1179.2L298.4,1175.8L407.4,1200.3Z" shape-rendering="crispEdges"/><path fill="#C83830" d="M342.8,-111.8L299.1,-99.2L333.6,-18.8Z" shape-rendering="crispEdges"/><path fill="#C32B2B" d="M266.2,-28.5L215.3,-10.3L265.8,53.1Z" shape-rendering="crispEdges"/><path fill="#3F5BA7" d="M1845.9,1036.2L1847.9,958L1788.2,1025.7Z" shape-rendering="crispEdges"/><path fill="#4265AC" d="M1788.2,1025.7L1847.9,958L1809,946.3Z" shape-rendering="crispEdges"/><path fill="#DA907C" d="M4.8,557.3L47.5,639.1L57.8,598.2Z" shape-rendering="crispEdges"/><path fill="#DD9183" d="M57.8,598.2L47.5,639.1L107.9,635.8Z" shape-rendering="crispEdges"/><path fill="#4A6BB0" d="M1847.9,958L1873.8,904L1809,946.3Z" shape-rendering="crispEdges"/><path fill="#C1272A" d="M226.9,-85.5L215.3,-10.3L266.2,-28.5Z" shape-rendering="crispEdges"/><path fill="#3C52A3" d="M1769,1149.4L1770.1,1095.2L1714.6,1080.5Z" shape-rendering="crispEdges"/><path fill="#7182BE" d="M1950.3,798.9L1932.5,714.5L1866.3,793.6Z" shape-rendering="crispEdges"/><path fill="#9391C2" d="M1928.2,653.9L1948.2,598.5L1868.6,625.8Z" shape-rendering="crispEdges"/><path fill="#9090C4" d="M1985.5,661.7L1948.2,598.5L1928.2,653.9Z" shape-rendering="crispEdges"/><path fill="#A48C9F" d="M1924.3,510L1952.3,448.5L1843.1,432.9Z" shape-rendering="crispEdges"/><path fill="#465EA9" d="M1659.5,1194.2L1717.9,1166.6L1627.2,1078.3Z" shape-rendering="crispEdges"/><path fill="#D9764D" d="M-17.1,376.5L41.5,417.2L79.8,339.3Z" shape-rendering="crispEdges"/><path fill="#E08052" d="M79.8,339.3L41.5,417.2L118.7,452.8Z" shape-rendering="crispEdges"/><path fill="#A38DA3" d="M1990.7,507L1952.3,448.5L1924.3,510Z" shape-rendering="crispEdges"/><path fill="#A85F77" d="M1937.1,251.7L1836.2,202.8L1867.4,280.4Z" shape-rendering="crispEdges"/><path fill="#D74331" d="M63.5,212.7L162.9,218.7L84.9,143.9Z" shape-rendering="crispEdges"/><path fill="#D95439" d="M63.5,212.7L60.5,272.8L119.9,260.5Z" shape-rendering="crispEdges"/><path fill="#C58380" d="M49.3,798.1L160.6,799.4L117.6,742.4Z" shape-rendering="crispEdges"/><path fill="#A45E6F" d="M80,927.2L119.7,979.6L185.6,933.6Z" shape-rendering="crispEdges"/><path fill="#A14A68" d="M1836.3,152.7L1838.1,52L1790.6,136.9Z" shape-rendering="crispEdges"/><path fill="#8B4165" d="M1782.3,34.2L1842.6,-15.3L1763.1,-0.9Z" shape-rendering="crispEdges"/><path fill="#8D4A69" d="M1763.1,-0.9L1787.2,-71.3L1689.9,-73.3Z" shape-rendering="crispEdges"/><path fill="#A76A7E" d="M1937.1,251.7L1867.4,280.4L1911.3,372.3Z" shape-rendering="crispEdges"/><path fill="#BA1927" d="M114.7,-32.6L156.7,40.8L215.3,-10.3Z" shape-rendering="crispEdges"/><path fill="#C62327" d="M215.3,-10.3L156.7,40.8L208.8,68.8Z" shape-rendering="crispEdges"/><path fill="#C58484" d="M-4.8,739L34.5,731.4L-38.5,649.7Z" shape-rendering="crispEdges"/><path fill="#D58D87" d="M47.5,639.1L34.5,731.4L107.9,635.8Z" shape-rendering="crispEdges"/><path fill="#AD6974" d="M80,927.2L185.6,933.6L126.4,850.9Z" shape-rendering="crispEdges"/><path fill="#9D4566" d="M114.6,1002.5L187.1,1094.3L222.2,1001.7Z" shape-rendering="crispEdges"/><path fill="#AE6E77" d="M70.1,850.5L80,927.2L126.4,850.9Z" shape-rendering="crispEdges"/><path fill="#C48482" d="M34.5,731.4L49.3,798.1L117.6,742.4Z" shape-rendering="crispEdges"/><path fill="#4E68AF" d="M1922.4,937.9L1928.9,872.4L1873.8,904Z" shape-rendering="crispEdges"/><path fill="#6379B8" d="M1928.9,872.4L1950.3,798.9L1866.3,793.6Z" shape-rendering="crispEdges"/><path fill="#3C51A3" d="M1770.1,1095.2L1845.9,1036.2L1788.2,1025.7Z" shape-rendering="crispEdges"/><path fill="#39489E" d="M1860.5,1084.8L1845.9,1036.2L1770.1,1095.2Z" shape-rendering="crispEdges"/><path fill="#3A4CA0" d="M1863.6,1200.1L1769,1149.4L1717.9,1166.6Z" shape-rendering="crispEdges"/><path fill="#3D54A4" d="M1717.9,1166.6L1769,1149.4L1714.6,1080.5Z" shape-rendering="crispEdges"/><path fill="#A6687E" d="M2028.1,290L1937.1,251.7L1911.3,372.3Z" shape-rendering="crispEdges"/><path fill="#D73D2E" d="M84.9,143.9L162.9,218.7L156.4,125.6Z" shape-rendering="crispEdges"/><path fill="#DB8860" d="M-7.6,496.2L79.2,486.4L-6.8,445.4Z" shape-rendering="crispEdges"/><path fill="#DD8E68" d="M-7.6,496.2L4.8,557.3L79.2,486.4Z" shape-rendering="crispEdges"/><path fill="#DC865B" d="M79.2,486.4L41.5,417.2L-6.8,445.4Z" shape-rendering="crispEdges"/><path fill="#C32D2C" d="M299.1,-99.2L226.9,-85.5L266.2,-28.5Z" shape-rendering="crispEdges"/><path fill="#C02429" d="M143.1,-104.2L226.9,-85.5L299.1,-99.2Z" shape-rendering="crispEdges"/><path fill="#5A76B6" d="M1928.9,872.4L1866.3,793.6L1873.8,904Z" shape-rendering="crispEdges"/><path fill="#878CC5" d="M1932.5,714.5L1985.5,661.7L1928.2,653.9Z" shape-rendering="crispEdges"/><path fill="#A294AD" d="M1948.2,598.5L1990.7,507L1924.3,510Z" shape-rendering="crispEdges"/><path fill="#CC2A28" d="M57.8,76.4L84.9,143.9L156.4,125.6Z" shape-rendering="crispEdges"/><path fill="#C82527" d="M57.8,76.4L156.4,125.6L156.7,40.8Z" shape-rendering="crispEdges"/><path fill="#4965AD" d="M1922.4,937.9L1873.8,904L1847.9,958Z" shape-rendering="crispEdges"/><path fill="#A46674" d="M-22,898.7L80,927.2L70.1,850.5Z" shape-rendering="crispEdges"/><path fill="#A0516A" d="M119.7,979.6L114.6,1002.5L222.2,1001.7Z" shape-rendering="crispEdges"/><path fill="#9D566C" d="M80,927.2L114.6,1002.5L119.7,979.6Z" shape-rendering="crispEdges"/><path fill="#9E93B3" d="M2027.3,585.9L1990.7,507L1948.2,598.5Z" shape-rendering="crispEdges"/><path fill="#A57E90" d="M1952.3,448.5L2034.6,374L1911.3,372.3Z" shape-rendering="crispEdges"/><path fill="#818AC3" d="M1982.1,729.4L1985.5,661.7L1932.5,714.5Z" shape-rendering="crispEdges"/><path fill="#A65271" d="M1937.1,251.7L1928.6,186.8L1836.2,202.8Z" shape-rendering="crispEdges"/><path fill="#9C3C65" d="M1930.9,107.3L1928.6,186.8L1989.2,122.9Z" shape-rendering="crispEdges"/><path fill="#894065" d="M1842.6,-15.3L1787.2,-71.3L1763.1,-0.9Z" shape-rendering="crispEdges"/><path fill="#8E4D6A" d="M1689.9,-73.3L1860.9,-111.6L1636,-89.3Z" shape-rendering="crispEdges"/><path fill="#8D3E64" d="M1842.6,-15.3L1782.3,34.2L1838.1,52Z" shape-rendering="crispEdges"/><path fill="#D67C54" d="M-6.8,445.4L41.5,417.2L-17.1,376.5Z" shape-rendering="crispEdges"/><path fill="#CD8886" d="M-38.5,649.7L34.5,731.4L47.5,639.1Z" shape-rendering="crispEdges"/><path fill="#D56A45" d="M-17.1,376.5L79.8,339.3L-17.9,293.3Z" shape-rendering="crispEdges"/><path fill="#6F80BD" d="M1994.3,794.8L1982.1,729.4L1950.3,798.9Z" shape-rendering="crispEdges"/><path fill="#7685C0" d="M1950.3,798.9L1982.1,729.4L1932.5,714.5Z" shape-rendering="crispEdges"/><path fill="#3E58A6" d="M1940.3,1018.9L1922.4,937.9L1847.9,958Z" shape-rendering="crispEdges"/><path fill="#6479B8" d="M1992.4,857.8L1994.3,794.8L1950.3,798.9Z" shape-rendering="crispEdges"/><path fill="#3C53A3" d="M1940.3,1018.9L1847.9,958L1845.9,1036.2Z" shape-rendering="crispEdges"/><path fill="#8A3661" d="M1909.2,39.3L1842.6,-15.3L1838.1,52Z" shape-rendering="crispEdges"/><path fill="#A391A7" d="M2027.3,585.9L2006.5,444.7L1990.7,507Z" shape-rendering="crispEdges"/><path fill="#A48A9E" d="M1990.7,507L2006.5,444.7L1952.3,448.5Z" shape-rendering="crispEdges"/><path fill="#9591BF" d="M2027.3,585.9L1948.2,598.5L1985.5,661.7Z" shape-rendering="crispEdges"/><path fill="#D48C80" d="M-38.5,649.7L47.5,639.1L4.8,557.3Z" shape-rendering="crispEdges"/><path fill="#BE8181" d="M34.5,731.4L-4.8,739L49.3,798.1Z" shape-rendering="crispEdges"/><path fill="#B3757B" d="M49.3,798.1L11.1,816.1L70.1,850.5Z" shape-rendering="crispEdges"/><path fill="#953761" d="M114.6,1002.5L137.6,1093.2L187.1,1094.3Z" shape-rendering="crispEdges"/><path fill="#9B3963" d="M187.1,1094.3L214.6,1198.6L275,1110.3Z" shape-rendering="crispEdges"/><path fill="#923B63" d="M60.5,1041.5L137.6,1093.2L114.6,1002.5Z" shape-rendering="crispEdges"/><path fill="#974D69" d="M60.5,1041.5L114.6,1002.5L80,927.2Z" shape-rendering="crispEdges"/><path fill="#983360" d="M156.9,1154.2L214.6,1198.6L187.1,1094.3Z" shape-rendering="crispEdges"/><path fill="#A0446A" d="M298.4,1175.8L214.6,1198.6L407.4,1200.3Z" shape-rendering="crispEdges"/><path fill="#B77B7E" d="M-4.8,739L11.1,816.1L49.3,798.1Z" shape-rendering="crispEdges"/><path fill="#394A9F" d="M1769,1149.4L1860.5,1084.8L1770.1,1095.2Z" shape-rendering="crispEdges"/><path fill="#D7845D" d="M-6.8,445.4L-85.5,433.9L-7.6,496.2Z" shape-rendering="crispEdges"/><path fill="#D68D79" d="M-96.9,561.4L-38.5,649.7L4.8,557.3Z" shape-rendering="crispEdges"/><path fill="#D7623F" d="M-17.9,293.3L79.8,339.3L60.5,272.8Z" shape-rendering="crispEdges"/><path fill="#D0533A" d="M-17.9,293.3L60.5,272.8L-18.2,221.1Z" shape-rendering="crispEdges"/><path fill="#A34C6E" d="M2001.4,177L1928.6,186.8L1937.1,251.7Z" shape-rendering="crispEdges"/><path fill="#9F4368" d="M1928.6,186.8L1930.9,107.3L1836.3,152.7Z" shape-rendering="crispEdges"/><path fill="#5D74B5" d="M1992.4,857.8L1950.3,798.9L1928.9,872.4Z" shape-rendering="crispEdges"/><path fill="#8C8EC6" d="M1982.1,729.4L2027.3,585.9L1985.5,661.7Z" shape-rendering="crispEdges"/><path fill="#526BB0" d="M1992.4,857.8L1928.9,872.4L1992.2,925.5Z" shape-rendering="crispEdges"/><path fill="#8189C3" d="M1994.3,794.8L2027.3,585.9L1982.1,729.4Z" shape-rendering="crispEdges"/><path fill="#8F2E5F" d="M64.3,1201.8L156.9,1154.2L137.6,1093.2Z" shape-rendering="crispEdges"/><path fill="#953260" d="M137.6,1093.2L156.9,1154.2L187.1,1094.3Z" shape-rendering="crispEdges"/><path fill="#DA906D" d="M-96.9,561.4L4.8,557.3L-7.6,496.2Z" shape-rendering="crispEdges"/><path fill="#AA6F79" d="M-67.6,790.7L-22,898.7L11.1,816.1Z" shape-rendering="crispEdges"/><path fill="#CA3B31" d="M-18.2,221.1L63.5,212.7L-13.1,136.3Z" shape-rendering="crispEdges"/><path fill="#D24C37" d="M-18.2,221.1L60.5,272.8L63.5,212.7Z" shape-rendering="crispEdges"/><path fill="#C98685" d="M-115.3,676.1L-67.5,727.4L-38.5,649.7Z" shape-rendering="crispEdges"/><path fill="#913561" d="M1930.9,107.3L1909.2,39.3L1838.1,52Z" shape-rendering="crispEdges"/><path fill="#873963" d="M1842.6,-15.3L1860.9,-111.6L1787.2,-71.3Z" shape-rendering="crispEdges"/><path fill="#BA1927" d="M83.2,-6.5L57.8,76.4L156.7,40.8Z" shape-rendering="crispEdges"/><path fill="#4C64AD" d="M1992.2,925.5L1928.9,872.4L1922.4,937.9Z" shape-rendering="crispEdges"/><path fill="#697CBA" d="M1994.3,794.8L2016.5,1015.8L2027.3,585.9Z" shape-rendering="crispEdges"/><path fill="#B91927" d="M143.1,-104.2L114.7,-32.6L215.3,-10.3Z" shape-rendering="crispEdges"/><path fill="#A48A9E" d="M2027.3,585.9L2034.6,374L2006.5,444.7Z" shape-rendering="crispEdges"/><path fill="#A48395" d="M2006.5,444.7L2034.6,374L1952.3,448.5Z" shape-rendering="crispEdges"/><path fill="#872A5E" d="M2012.9,56.8L1953.2,-3.6L1909.2,39.3Z" shape-rendering="crispEdges"/><path fill="#95516B" d="M-6.5,940.7L60.5,1041.5L80,927.2Z" shape-rendering="crispEdges"/><path fill="#A86D78" d="M-22,898.7L70.1,850.5L11.1,816.1Z" shape-rendering="crispEdges"/><path fill="#38469D" d="M1860.5,1084.8L1940.3,1018.9L1845.9,1036.2Z" shape-rendering="crispEdges"/><path fill="#C52628" d="M-13.1,136.3L84.9,143.9L57.8,76.4Z" shape-rendering="crispEdges"/><path fill="#CB362E" d="M-13.1,136.3L63.5,212.7L84.9,143.9Z" shape-rendering="crispEdges"/><path fill="#D67D55" d="M-85.5,433.9L-6.8,445.4L-17.1,376.5Z" shape-rendering="crispEdges"/><path fill="#B41427" d="M114.7,-32.6L83.2,-6.5L156.7,40.8Z" shape-rendering="crispEdges"/><path fill="#A67285" d="M2034.6,374L2028.1,290L1911.3,372.3Z" shape-rendering="crispEdges"/><path fill="#BE1D27" d="M226.9,-85.5L143.1,-104.2L215.3,-10.3Z" shape-rendering="crispEdges"/><path fill="#AF0E26" d="M114.7,-32.6L37.2,-101.9L83.2,-6.5Z" shape-rendering="crispEdges"/><path fill="#C32C2C" d="M342.8,-111.8L143.1,-104.2L299.1,-99.2Z" shape-rendering="crispEdges"/><path fill="#C7362F" d="M458.7,-124L143.1,-104.2L342.8,-111.8Z" shape-rendering="crispEdges"/><path fill="#4058A6" d="M1940.3,1018.9L1992.2,925.5L1922.4,937.9Z" shape-rendering="crispEdges"/><path fill="#516AB0" d="M1992.4,857.8L2016.5,1015.8L1994.3,794.8Z" shape-rendering="crispEdges"/><path fill="#A55574" d="M2028.1,290L2001.4,177L1937.1,251.7Z" shape-rendering="crispEdges"/><path fill="#B57A7E" d="M-67.6,790.7L11.1,816.1L-4.8,739Z" shape-rendering="crispEdges"/><path fill="#9A5C70" d="M-22,898.7L-6.5,940.7L80,927.2Z" shape-rendering="crispEdges"/><path fill="#D5744D" d="M-85.5,433.9L-17.1,376.5L-117.6,325.1Z" shape-rendering="crispEdges"/><path fill="#C58484" d="M-38.5,649.7L-67.5,727.4L-4.8,739Z" shape-rendering="crispEdges"/><path fill="#9A3762" d="M2012.9,56.8L1989.2,122.9L2001.4,177Z" shape-rendering="crispEdges"/><path fill="#9F4268" d="M2001.4,177L1989.2,122.9L1928.6,186.8Z" shape-rendering="crispEdges"/><path fill="#832B5E" d="M1953.2,-3.6L1842.6,-15.3L1909.2,39.3Z" shape-rendering="crispEdges"/><path fill="#822E5F" d="M1953.2,-3.6L1860.9,-111.6L1842.6,-15.3Z" shape-rendering="crispEdges"/><path fill="#8A4366" d="M1787.2,-71.3L1860.9,-111.6L1689.9,-73.3Z" shape-rendering="crispEdges"/><path fill="#96586E" d="M1636,-89.3L1860.9,-111.6L1480.2,-95Z" shape-rendering="crispEdges"/><path fill="#BB7F81" d="M1335.3,-103.1L1860.9,-111.6L833,-123.8Z" shape-rendering="crispEdges"/><path fill="#D36844" d="M-117.6,325.1L-17.1,376.5L-17.9,293.3Z" shape-rendering="crispEdges"/><path fill="#BC1B27" d="M-23.1,73.3L-13.1,136.3L57.8,76.4Z" shape-rendering="crispEdges"/><path fill="#CF5139" d="M-18.2,221.1L-80.6,258.6L-17.9,293.3Z" shape-rendering="crispEdges"/><path fill="#B51427" d="M-23.1,73.3L57.8,76.4L83.2,-6.5Z" shape-rendering="crispEdges"/><path fill="#BC7F81" d="M-67.5,727.4L-67.6,790.7L-4.8,739Z" shape-rendering="crispEdges"/><path fill="#8C4266" d="M-0.9,1048.3L60.5,1041.5L-6.5,940.7Z" shape-rendering="crispEdges"/><path fill="#C08182" d="M-115.3,676.1L-67.6,790.7L-67.5,727.4Z" shape-rendering="crispEdges"/><path fill="#D98D69" d="M-110.9,506.4L-96.9,561.4L-7.6,496.2Z" shape-rendering="crispEdges"/><path fill="#323896" d="M1860.5,1084.8L1955.5,1115.9L1940.3,1018.9Z" shape-rendering="crispEdges"/><path fill="#3C51A2" d="M1940.3,1018.9L2016.5,1015.8L1992.2,925.5Z" shape-rendering="crispEdges"/><path fill="#37459C" d="M1769,1149.4L1863.6,1200.1L1860.5,1084.8Z" shape-rendering="crispEdges"/><path fill="#3C52A3" d="M1659.5,1194.2L1863.6,1200.1L1717.9,1166.6Z" shape-rendering="crispEdges"/><path fill="#4D65AD" d="M1323,1199L1863.6,1200.1L1659.5,1194.2Z" shape-rendering="crispEdges"/><path fill="#9691BE" d="M64.3,1201.8L1863.6,1200.1L1323,1199Z" shape-rendering="crispEdges"/><path fill="#902F5F" d="M2012.9,56.8L1909.2,39.3L1930.9,107.3Z" shape-rendering="crispEdges"/><path fill="#D67E55" d="M-117.6,325.1L-110.9,506.4L-85.5,433.9Z" shape-rendering="crispEdges"/><path fill="#D88761" d="M-85.5,433.9L-110.9,506.4L-7.6,496.2Z" shape-rendering="crispEdges"/><path fill="#D28B83" d="M-96.9,561.4L-115.3,676.1L-38.5,649.7Z" shape-rendering="crispEdges"/><path fill="#873060" d="M-0.9,1048.3L35.8,1092.7L60.5,1041.5Z" shape-rendering="crispEdges"/><path fill="#8B2D5F" d="M60.5,1041.5L35.8,1092.7L137.6,1093.2Z" shape-rendering="crispEdges"/><path fill="#93305F" d="M156.9,1154.2L64.3,1201.8L214.6,1198.6Z" shape-rendering="crispEdges"/><path fill="#8A4366" d="M-0.9,1048.3L-6.5,940.7L-87.1,1015.6Z" shape-rendering="crispEdges"/><path fill="#CD4736" d="M-77.4,212.4L-80.6,258.6L-18.2,221.1Z" shape-rendering="crispEdges"/><path fill="#975A6F" d="M-71.4,937.4L-6.5,940.7L-22,898.7Z" shape-rendering="crispEdges"/><path fill="#D78D77" d="M-110.9,506.4L-115.3,676.1L-96.9,561.4Z" shape-rendering="crispEdges"/><path fill="#9A5D71" d="M-116.1,904.1L-71.4,937.4L-22,898.7Z" shape-rendering="crispEdges"/><path fill="#A90526" d="M-19,-40.2L-23.1,73.3L83.2,-6.5Z" shape-rendering="crispEdges"/><path fill="#C93A31" d="M-13.1,136.3L-77.4,212.4L-18.2,221.1Z" shape-rendering="crispEdges"/><path fill="#313695" d="M1948.8,1177.2L1955.5,1115.9L1860.5,1084.8Z" shape-rendering="crispEdges"/><path fill="#C5312D" d="M-100.6,136.6L-77.4,212.4L-13.1,136.3Z" shape-rendering="crispEdges"/><path fill="#D15C3E" d="M-80.6,258.6L-117.6,325.1L-17.9,293.3Z" shape-rendering="crispEdges"/><path fill="#353F99" d="M1955.5,1115.9L2016.5,1015.8L1940.3,1018.9Z" shape-rendering="crispEdges"/><path fill="#475FAA" d="M1992.2,925.5L2016.5,1015.8L1992.4,857.8Z" shape-rendering="crispEdges"/><path fill="#838AC3" d="M2027.3,585.9L2037.1,1127.2L2034.6,374Z" shape-rendering="crispEdges"/><path fill="#A0446A" d="M2028.1,290L2012.9,56.8L2001.4,177Z" shape-rendering="crispEdges"/><path fill="#963260" d="M1989.2,122.9L2012.9,56.8L1930.9,107.3Z" shape-rendering="crispEdges"/><path fill="#80265D" d="M1953.2,-3.6L1960.4,-101.9L1860.9,-111.6Z" shape-rendering="crispEdges"/><path fill="#983460" d="M2033.1,-29.8L2012.9,56.8L2028.1,290Z" shape-rendering="crispEdges"/><path fill="#CF533A" d="M-77.4,212.4L-117.6,325.1L-80.6,258.6Z" shape-rendering="crispEdges"/><path fill="#D98A66" d="M-110.9,506.4L-117.6,325.1L-115.3,676.1Z" shape-rendering="crispEdges"/><path fill="#A36A76" d="M-116.1,904.1L-22,898.7L-67.6,790.7Z" shape-rendering="crispEdges"/><path fill="#84285D" d="M10,1175.4L64.3,1201.8L35.8,1092.7Z" shape-rendering="crispEdges"/><path fill="#8A2B5E" d="M35.8,1092.7L64.3,1201.8L137.6,1093.2Z" shape-rendering="crispEdges"/><path fill="#9B3963" d="M214.6,1198.6L64.3,1201.8L407.4,1200.3Z" shape-rendering="crispEdges"/><path fill="#A67083" d="M407.4,1200.3L64.3,1201.8L1323,1199Z" shape-rendering="crispEdges"/><path fill="#81295E" d="M-20.4,1077.9L35.8,1092.7L-0.9,1048.3Z" shape-rendering="crispEdges"/><path fill="#333B97" d="M1863.6,1200.1L1948.8,1177.2L1860.5,1084.8Z" shape-rendering="crispEdges"/><path fill="#313695" d="M1955.5,1115.9L2037.1,1127.2L2016.5,1015.8Z" shape-rendering="crispEdges"/><path fill="#843361" d="M-87.1,1015.6L-20.4,1077.9L-0.9,1048.3Z" shape-rendering="crispEdges"/><path fill="#BF2228" d="M458.7,-124L37.2,-101.9L143.1,-104.2Z" shape-rendering="crispEdges"/><path fill="#B21127" d="M143.1,-104.2L37.2,-101.9L114.7,-32.6Z" shape-rendering="crispEdges"/><path fill="#BF2028" d="M-23.1,73.3L-100.6,136.6L-13.1,136.3Z" shape-rendering="crispEdges"/><path fill="#80265D" d="M2003.1,-75.5L1960.4,-101.9L1953.2,-3.6Z" shape-rendering="crispEdges"/><path fill="#B91827" d="M-99.4,54.3L-100.6,136.6L-23.1,73.3Z" shape-rendering="crispEdges"/><path fill="#CD4535" d="M-77.4,212.4L-100.6,136.6L-117.6,325.1Z" shape-rendering="crispEdges"/><path fill="#A90626" d="M37.2,-101.9L-19,-40.2L83.2,-6.5Z" shape-rendering="crispEdges"/><path fill="#B3787E" d="M-115.3,676.1L-116.1,904.1L-67.6,790.7Z" shape-rendering="crispEdges"/><path fill="#904F6B" d="M-71.4,937.4L-87.1,1015.6L-6.5,940.7Z" shape-rendering="crispEdges"/><path fill="#D28B84" d="M-117.6,325.1L-116.1,904.1L-115.3,676.1Z" shape-rendering="crispEdges"/><path fill="#81265D" d="M-20.4,1077.9L10,1175.4L35.8,1092.7Z" shape-rendering="crispEdges"/><path fill="#80265D" d="M-68.4,1085.2L10,1175.4L-20.4,1077.9Z" shape-rendering="crispEdges"/><path fill="#92526C" d="M-116.1,904.1L-87.1,1015.6L-71.4,937.4Z" shape-rendering="crispEdges"/><path fill="#80265D" d="M2033.1,-29.8L2003.1,-75.5L1953.2,-3.6Z" shape-rendering="crispEdges"/><path fill="#313695" d="M1863.6,1200.1L1995.9,1170L1948.8,1177.2Z" shape-rendering="crispEdges"/><path fill="#313695" d="M1948.8,1177.2L1995.9,1170L1955.5,1115.9Z" shape-rendering="crispEdges"/><path fill="#A44D6F" d="M2034.6,374L2033.1,-29.8L2028.1,290Z" shape-rendering="crispEdges"/><path fill="#81275D" d="M2012.9,56.8L2033.1,-29.8L1953.2,-3.6Z" shape-rendering="crispEdges"/><path fill="#832E5F" d="M-87.1,1015.6L-68.4,1085.2L-20.4,1077.9Z" shape-rendering="crispEdges"/><path fill="#AE0C26" d="M-76.3,-9.8L-99.4,54.3L-23.1,73.3Z" shape-rendering="crispEdges"/><path fill="#C6342F" d="M-100.6,136.6L-99.4,54.3L-117.6,325.1Z" shape-rendering="crispEdges"/><path fill="#313695" d="M1995.9,1170L2037.1,1127.2L1955.5,1115.9Z" shape-rendering="crispEdges"/><path fill="#4D65AD" d="M2016.5,1015.8L2037.1,1127.2L2027.3,585.9Z" shape-rendering="crispEdges"/><path fill="#A70226" d="M-19,-40.2L-76.3,-9.8L-23.1,73.3Z" shape-rendering="crispEdges"/><path fill="#A50026" d="M-97.8,-86.2L-76.3,-9.8L-19,-40.2Z" shape-rendering="crispEdges"/><path fill="#A50026" d="M37.2,-101.9L-28.2,-96.5L-19,-40.2Z" shape-rendering="crispEdges"/><path fill="#A50026" d="M-28.2,-96.5L-97.8,-86.2L-19,-40.2Z" shape-rendering="crispEdges"/><path fill="#A50026" d="M-76.3,-9.8L-97.8,-86.2L-99.4,54.3Z" shape-rendering="crispEdges"/><path fill="#BB1A27" d="M-99.4,54.3L-97.8,-86.2L-117.6,325.1Z" shape-rendering="crispEdges"/><path fill="#80265D" d="M-68.4,1085.2L-111.2,1184.8L10,1175.4Z" shape-rendering="crispEdges"/><path fill="#80265D" d="M10,1175.4L-111.2,1184.8L64.3,1201.8Z" shape-rendering="crispEdges"/><path fill="#80265D" d="M-87.1,1015.6L-111.2,1184.8L-68.4,1085.2Z" shape-rendering="crispEdges"/><path fill="#863762" d="M-116.1,904.1L-111.2,1184.8L-87.1,1015.6Z" shape-rendering="crispEdges"/></svg>