<svg xmlns="http://www.w3.org/2000/svg" width="1920" height="1080"><path fill="#FEFEBC" d="M929.8,575.6L1004.3,583.8L920.5,491.4Z" shape-rendering="crispEdges"/><path fill="#FDFCB8" d="M1004.3,583.8L1039.6,487.5L920.5,491.4Z" shape-rendering="crispEdges"/><path fill="#F9FBB4" d="M1004.3,583.8L1095.1,516.3L1039.6,487.5Z" shape-rendering="crispEdges"/><path fill="#FFF8B3" d="M920.5,491.4L832,512.3L929.8,575.6Z" shape-rendering="crispEdges"/><path fill="#F9E997" d="M1106.9,371.2L1037.7,382.1L1039.6,487.5Z" shape-rendering="crispEdges"/><path fill="#FDF2A6" d="M1039.6,487.5L1037.7,382.1L920.5,491.4Z" shape-rendering="crispEdges"/><path fill="#FFEDA2" d="M920.5,491.4L890.3,385.1L832,512.3Z" shape-rendering="crispEdges"/><path fill="#FFECA1" d="M1037.7,382.1L890.3,385.1L920.5,491.4Z" shape-rendering="crispEdges"/><path fill="#EFF7AA" d="M881.4,719.7L1015.1,688.2L929.8,575.6Z" shape-rendering="crispEdges"/><path fill="#F5FBAF" d="M929.8,575.6L1015.1,688.2L1004.3,583.8Z" shape-rendering="crispEdges"/><path fill="#F4FAAD" d="M1004.3,583.8L1140.2,618.2L1095.1,516.3Z" shape-rendering="crispEdges"/><path fill="#EDF8A3" d="M1106.3,673L1140.2,618.2L1004.3,583.8Z" shape-rendering="crispEdges"/><path fill="#F7F09F" d="M1095.1,516.3L1106.9,371.2L1039.6,487.5Z" shape-rendering="crispEdges"/><path fill="#EDF8A3" d="M1015.1,688.2L1106.3,673L1004.3,583.8Z" shape-rendering="crispEdges"/><path fill="#F4EE98" d="M1192.4,460.3L1106.9,371.2L1095.1,516.3Z" shape-rendering="crispEdges"/><path fill="#FFDC92" d="M1037.7,382.1L1024.9,277.8L890.3,385.1Z" shape-rendering="crispEdges"/><path fill="#FFE696" d="M890.3,385.1L803.7,407.5L832,512.3Z" shape-rendering="crispEdges"/><path fill="#FCF5AB" d="M776.3,609.6L929.8,575.6L832,512.3Z" shape-rendering="crispEdges"/><path fill="#F4F3A1" d="M776.3,609.6L881.4,719.7L929.8,575.6Z" shape-rendering="crispEdges"/><path fill="#D8EFA4" d="M1015.1,688.2L1098.4,803.8L1106.3,673Z" shape-rendering="crispEdges"/><path fill="#FFF0A5" d="M705.9,501.5L776.3,609.6L832,512.3Z" shape-rendering="crispEdges"/><path fill="#F1F8A9" d="M1209.1,610L1192.4,460.3L1095.1,516.3Z" shape-rendering="crispEdges"/><path fill="#EAEC9B" d="M776.3,609.6L815.7,713.6L881.4,719.7Z" shape-rendering="crispEdges"/><path fill="#E0F29B" d="M1243.2,698.9L1209.1,610L1140.2,618.2Z" shape-rendering="crispEdges"/><path fill="#EEF8A4" d="M1140.2,618.2L1209.1,610L1095.1,516.3Z" shape-rendering="crispEdges"/><path fill="#F9D081" d="M1119.8,287.2L1024.9,277.8L1106.9,371.2Z" shape-rendering="crispEdges"/><path fill="#FAD98A" d="M1106.9,371.2L1024.9,277.8L1037.7,382.1Z" shape-rendering="crispEdges"/><path fill="#FFD485" d="M890.3,385.1L815.1,279.8L803.7,407.5Z" shape-rendering="crispEdges"/><path fill="#DBE9A4" d="M815.7,713.6L903.7,783.2L881.4,719.7Z" shape-rendering="crispEdges"/><path fill="#DDEFAC" d="M881.4,719.7L903.7,783.2L1015.1,688.2Z" shape-rendering="crispEdges"/><path fill="#FFE797" d="M803.7,407.5L705.9,501.5L832,512.3Z" shape-rendering="crispEdges"/><path fill="#ECE894" d="M776.3,609.6L726.8,699.1L815.7,713.6Z" shape-rendering="crispEdges"/><path fill="#FFD08A" d="M1024.9,277.8L881.8,267.5L890.3,385.1Z" shape-rendering="crispEdges"/><path fill="#FEDC88" d="M803.7,407.5L719.5,376.7L705.9,501.5Z" shape-rendering="crispEdges"/><path fill="#F4D57F" d="M1241.6,359.2L1119.8,287.2L1106.9,371.2Z" shape-rendering="crispEdges"/><path fill="#FDE99B" d="M705.9,501.5L688.9,584.9L776.3,609.6Z" shape-rendering="crispEdges"/><path fill="#D2EDAF" d="M903.7,783.2L1032.4,814.4L1015.1,688.2Z" shape-rendering="crispEdges"/><path fill="#E0F399" d="M1106.3,673L1243.2,698.9L1140.2,618.2Z" shape-rendering="crispEdges"/><path fill="#FFCB80" d="M881.8,267.5L815.1,279.8L890.3,385.1Z" shape-rendering="crispEdges"/><path fill="#FFCF7D" d="M815.1,279.8L719.5,376.7L803.7,407.5Z" shape-rendering="crispEdges"/><path fill="#FFE197" d="M705.9,501.5L611.4,498.4L688.9,584.9Z" shape-rendering="crispEdges"/><path fill="#F5E790" d="M688.9,584.9L726.8,699.1L776.3,609.6Z" shape-rendering="crispEdges"/><path fill="#D3E2A1" d="M815.7,713.6L779.5,817.1L903.7,783.2Z" shape-rendering="crispEdges"/><path fill="#CCEAA9" d="M1032.4,814.4L1098.4,803.8L1015.1,688.2Z" shape-rendering="crispEdges"/><path fill="#E6DE8E" d="M1297.9,384.9L1241.6,359.2L1192.4,460.3Z" shape-rendering="crispEdges"/><path fill="#EFE18B" d="M1192.4,460.3L1241.6,359.2L1106.9,371.2Z" shape-rendering="crispEdges"/><path fill="#D0EC9D" d="M1194,773.4L1243.2,698.9L1106.3,673Z" shape-rendering="crispEdges"/><path fill="#E6F3AB" d="M1209.1,610L1313.3,504.6L1192.4,460.3Z" shape-rendering="crispEdges"/><path fill="#CCEAA0" d="M1098.4,803.8L1194,773.4L1106.3,673Z" shape-rendering="crispEdges"/><path fill="#FAC17B" d="M1119.8,287.2L1030,197.9L1024.9,277.8Z" shape-rendering="crispEdges"/><path fill="#FFC182" d="M1024.9,277.8L1030,197.9L881.8,267.5Z" shape-rendering="crispEdges"/><path fill="#FDB069" d="M777.7,179.4L701.1,269.3L815.1,279.8Z" shape-rendering="crispEdges"/><path fill="#F8B773" d="M1123.6,174.4L1030,197.9L1119.8,287.2Z" shape-rendering="crispEdges"/><path fill="#D9EF9E" d="M1243.2,698.9L1302.6,596.2L1209.1,610Z" shape-rendering="crispEdges"/><path fill="#DDF1AA" d="M1302.6,596.2L1313.3,504.6L1209.1,610Z" shape-rendering="crispEdges"/><path fill="#DAE198" d="M726.8,699.1L779.5,817.1L815.7,713.6Z" shape-rendering="crispEdges"/><path fill="#BCE3B0" d="M903.7,783.2L1000.2,932L1032.4,814.4Z" shape-rendering="crispEdges"/><path fill="#E2E69A" d="M1313.3,504.6L1297.9,384.9L1192.4,460.3Z" shape-rendering="crispEdges"/><path fill="#EECA7B" d="M1241.6,359.2L1235.7,267.6L1119.8,287.2Z" shape-rendering="crispEdges"/><path fill="#FFD483" d="M613.7,372.4L611.4,498.4L705.9,501.5Z" shape-rendering="crispEdges"/><path fill="#F1DC87" d="M688.9,584.9L578,695.3L726.8,699.1Z" shape-rendering="crispEdges"/><path fill="#D2D995" d="M726.8,699.1L724.8,820.5L779.5,817.1Z" shape-rendering="crispEdges"/><path fill="#E5C67D" d="M1329.1,286.6L1235.7,267.6L1241.6,359.2Z" shape-rendering="crispEdges"/><path fill="#FEB571" d="M777.7,179.4L815.1,279.8L881.8,267.5Z" shape-rendering="crispEdges"/><path fill="#FEC071" d="M815.1,279.8L701.1,269.3L719.5,376.7Z" shape-rendering="crispEdges"/><path fill="#FED17E" d="M719.5,376.7L613.7,372.4L705.9,501.5Z" shape-rendering="crispEdges"/><path fill="#B9E1A6" d="M1032.4,814.4L1111.6,877L1098.4,803.8Z" shape-rendering="crispEdges"/><path fill="#B9E2A1" d="M1098.4,803.8L1111.6,877L1194,773.4Z" shape-rendering="crispEdges"/><path fill="#B1DBAB" d="M1000.2,932L1111.6,877L1032.4,814.4Z" shape-rendering="crispEdges"/><path fill="#FEB57C" d="M1030,197.9L891.5,156.3L881.8,267.5Z" shape-rendering="crispEdges"/><path fill="#D6D48F" d="M619.6,778.9L724.8,820.5L726.8,699.1Z" shape-rendering="crispEdges"/><path fill="#B6D9B0" d="M882.7,926.9L1000.2,932L903.7,783.2Z" shape-rendering="crispEdges"/><path fill="#F3B46D" d="M1200.3,172.7L1123.6,174.4L1119.8,287.2Z" shape-rendering="crispEdges"/><path fill="#F6AA81" d="M1030,197.9L914.5,87.2L891.5,156.3Z" shape-rendering="crispEdges"/><path fill="#FEBF6F" d="M701.1,269.3L613.7,372.4L719.5,376.7Z" shape-rendering="crispEdges"/><path fill="#B6E1A2" d="M1322.3,820.2L1323.7,719.1L1243.2,698.9Z" shape-rendering="crispEdges"/><path fill="#CBEA9E" d="M1243.2,698.9L1323.7,719.1L1302.6,596.2Z" shape-rendering="crispEdges"/><path fill="#D6EDB0" d="M1302.6,596.2L1403,500.5L1313.3,504.6Z" shape-rendering="crispEdges"/><path fill="#B7E2A1" d="M1322.3,820.2L1243.2,698.9L1194,773.4Z" shape-rendering="crispEdges"/><path fill="#FCAD71" d="M891.5,156.3L777.7,179.4L881.8,267.5Z" shape-rendering="crispEdges"/><path fill="#BFDBA4" d="M882.7,926.9L903.7,783.2L779.5,817.1Z" shape-rendering="crispEdges"/><path fill="#FFD28B" d="M506.6,490.9L570.8,587.6L611.4,498.4Z" shape-rendering="crispEdges"/><path fill="#FFDC92" d="M611.4,498.4L570.8,587.6L688.9,584.9Z" shape-rendering="crispEdges"/><path fill="#B8D0A2" d="M790.6,905.9L882.7,926.9L779.5,817.1Z" shape-rendering="crispEdges"/><path fill="#BFD398" d="M724.8,820.5L790.6,905.9L779.5,817.1Z" shape-rendering="crispEdges"/><path fill="#E5AE70" d="M1353.2,198L1200.3,172.7L1235.7,267.6Z" shape-rendering="crispEdges"/><path fill="#F0BA71" d="M1235.7,267.6L1200.3,172.7L1119.8,287.2Z" shape-rendering="crispEdges"/><path fill="#F1A681" d="M1024.4,75.4L914.5,87.2L1030,197.9Z" shape-rendering="crispEdges"/><path fill="#F19566" d="M693.9,48.9L712.6,192L777.7,179.4Z" shape-rendering="crispEdges"/><path fill="#FCA362" d="M777.7,179.4L712.6,192L701.1,269.3Z" shape-rendering="crispEdges"/><path fill="#FDAE63" d="M701.1,269.3L570.3,261.3L613.7,372.4Z" shape-rendering="crispEdges"/><path fill="#F7D885" d="M570.8,587.6L578,695.3L688.9,584.9Z" shape-rendering="crispEdges"/><path fill="#BBCC96" d="M724.8,820.5L698.3,883.3L790.6,905.9Z" shape-rendering="crispEdges"/><path fill="#D9CF8A" d="M1425,412.8L1329.1,286.6L1297.9,384.9Z" shape-rendering="crispEdges"/><path fill="#E1CE85" d="M1297.9,384.9L1329.1,286.6L1241.6,359.2Z" shape-rendering="crispEdges"/><path fill="#D7DF98" d="M1425,412.8L1297.9,384.9L1313.3,504.6Z" shape-rendering="crispEdges"/><path fill="#CEEBAD" d="M1422.2,603.9L1403,500.5L1302.6,596.2Z" shape-rendering="crispEdges"/><path fill="#E1D288" d="M578,695.3L619.6,778.9L726.8,699.1Z" shape-rendering="crispEdges"/><path fill="#F0AB76" d="M1101.2,101.1L1030,197.9L1123.6,174.4Z" shape-rendering="crispEdges"/><path fill="#F4A072" d="M891.5,156.3L812.6,94.6L777.7,179.4Z" shape-rendering="crispEdges"/><path fill="#EBA871" d="M1200.3,172.7L1101.2,101.1L1123.6,174.4Z" shape-rendering="crispEdges"/><path fill="#BEC78F" d="M619.7,878.7L698.3,883.3L724.8,820.5Z" shape-rendering="crispEdges"/><path fill="#AADBA0" d="M1219.8,916.9L1194,773.4L1111.6,877Z" shape-rendering="crispEdges"/><path fill="#A4D9A2" d="M1219.8,916.9L1322.3,820.2L1194,773.4Z" shape-rendering="crispEdges"/><path fill="#C9E9A0" d="M1323.7,719.1L1422.2,603.9L1302.6,596.2Z" shape-rendering="crispEdges"/><path fill="#BBE3A0" d="M1428,699.6L1422.2,603.9L1323.7,719.1Z" shape-rendering="crispEdges"/><path fill="#EEA57B" d="M1101.2,101.1L1024.4,75.4L1030,197.9Z" shape-rendering="crispEdges"/><path fill="#9FC6A9" d="M1196.8,1000.5L1219.8,916.9L1111.6,877Z" shape-rendering="crispEdges"/><path fill="#DD896A" d="M693.9,48.9L812.6,94.6L823.8,-12.5Z" shape-rendering="crispEdges"/><path fill="#F09E79" d="M914.5,87.2L812.6,94.6L891.5,156.3Z" shape-rendering="crispEdges"/><path fill="#C7DCA0" d="M1529.2,484.4L1425,412.8L1403,500.5Z" shape-rendering="crispEdges"/><path fill="#D1E2A2" d="M1403,500.5L1425,412.8L1313.3,504.6Z" shape-rendering="crispEdges"/><path fill="#FEC473" d="M514.3,375.4L611.4,498.4L613.7,372.4Z" shape-rendering="crispEdges"/><path fill="#FFC579" d="M514.3,375.4L506.6,490.9L611.4,498.4Z" shape-rendering="crispEdges"/><path fill="#F2CE7B" d="M570.8,587.6L520.9,696.7L578,695.3Z" shape-rendering="crispEdges"/><path fill="#ACC5BB" d="M882.7,926.9L928.7,998.7L1000.2,932Z" shape-rendering="crispEdges"/><path fill="#A7C7B2" d="M1000.2,932L1097.4,1014.6L1111.6,877Z" shape-rendering="crispEdges"/><path fill="#ABB9B4" d="M824.3,1015.9L928.7,998.7L882.7,926.9Z" shape-rendering="crispEdges"/><path fill="#AFBEAD" d="M824.3,1015.9L882.7,926.9L790.6,905.9Z" shape-rendering="crispEdges"/><path fill="#DAC582" d="M578,695.3L502.5,803.7L619.6,778.9Z" shape-rendering="crispEdges"/><path fill="#C8C88C" d="M619.6,778.9L619.7,878.7L724.8,820.5Z" shape-rendering="crispEdges"/><path fill="#F6CA7A" d="M467.6,612.5L520.9,696.7L570.8,587.6Z" shape-rendering="crispEdges"/><path fill="#FB9C5C" d="M591.5,195.6L701.1,269.3L712.6,192Z" shape-rendering="crispEdges"/><path fill="#FB9C5A" d="M591.5,195.6L570.3,261.3L701.1,269.3Z" shape-rendering="crispEdges"/><path fill="#FDAF63" d="M570.3,261.3L514.3,375.4L613.7,372.4Z" shape-rendering="crispEdges"/><path fill="#A5DAA4" d="M1453.7,811.9L1428,699.6L1323.7,719.1Z" shape-rendering="crispEdges"/><path fill="#C8C68A" d="M1534.4,383.7L1446.4,282.6L1425,412.8Z" shape-rendering="crispEdges"/><path fill="#A9BDBD" d="M928.7,998.7L1008,1022.9L1000.2,932Z" shape-rendering="crispEdges"/><path fill="#CAC084" d="M502.5,803.7L619.7,878.7L619.6,778.9Z" shape-rendering="crispEdges"/><path fill="#ADB3A7" d="M696.7,989.3L824.3,1015.9L790.6,905.9Z" shape-rendering="crispEdges"/><path fill="#A6BAB7" d="M1008,1022.9L1097.4,1014.6L1000.2,932Z" shape-rendering="crispEdges"/><path fill="#E0B576" d="M1329.1,286.6L1353.2,198L1235.7,267.6Z" shape-rendering="crispEdges"/><path fill="#E3A172" d="M1200.3,172.7L1229.2,87.8L1101.2,101.1Z" shape-rendering="crispEdges"/><path fill="#D7B278" d="M1446.4,282.6L1353.2,198L1329.1,286.6Z" shape-rendering="crispEdges"/><path fill="#F38C5B" d="M602.2,94.5L591.5,195.6L712.6,192Z" shape-rendering="crispEdges"/><path fill="#FCA25B" d="M570.3,261.3L517,276.5L514.3,375.4Z" shape-rendering="crispEdges"/><path fill="#B4BB9D" d="M696.7,989.3L790.6,905.9L698.3,883.3Z" shape-rendering="crispEdges"/><path fill="#AFAEB7" d="M928.7,998.7L919.6,1092.4L1008,1022.9Z" shape-rendering="crispEdges"/><path fill="#DA9D75" d="M1311,90.8L1229.2,87.8L1200.3,172.7Z" shape-rendering="crispEdges"/><path fill="#D38F7A" d="M1029.4,-52.5L927.9,-34L1024.4,75.4Z" shape-rendering="crispEdges"/><path fill="#FFC383" d="M415.9,480.5L467.6,612.5L506.6,490.9Z" shape-rendering="crispEdges"/><path fill="#FECC86" d="M506.6,490.9L467.6,612.5L570.8,587.6Z" shape-rendering="crispEdges"/><path fill="#E0C37E" d="M520.9,696.7L502.5,803.7L578,695.3Z" shape-rendering="crispEdges"/><path fill="#93CDA6" d="M1219.8,916.9L1316.4,916L1322.3,820.2Z" shape-rendering="crispEdges"/><path fill="#9FD8A4" d="M1322.3,820.2L1453.7,811.9L1323.7,719.1Z" shape-rendering="crispEdges"/><path fill="#92BFAC" d="M1196.8,1000.5L1316.4,916L1219.8,916.9Z" shape-rendering="crispEdges"/><path fill="#F98C50" d="M516.4,150L517,276.5L570.3,261.3Z" shape-rendering="crispEdges"/><path fill="#FEBA72" d="M514.3,375.4L415.9,480.5L506.6,490.9Z" shape-rendering="crispEdges"/><path fill="#A0BFAE" d="M1097.4,1014.6L1196.8,1000.5L1111.6,877Z" shape-rendering="crispEdges"/><path fill="#C3E6AF" d="M1527.3,570.1L1403,500.5L1422.2,603.9Z" shape-rendering="crispEdges"/><path fill="#D2C484" d="M1425,412.8L1446.4,282.6L1329.1,286.6Z" shape-rendering="crispEdges"/><path fill="#B7B695" d="M619.7,878.7L696.7,989.3L698.3,883.3Z" shape-rendering="crispEdges"/><path fill="#D7B67A" d="M411.6,817.4L502.5,803.7L520.9,696.7Z" shape-rendering="crispEdges"/><path fill="#B3A897" d="M619.7,878.7L601.4,993.9L696.7,989.3Z" shape-rendering="crispEdges"/><path fill="#CF9C76" d="M1425.1,159.4L1311,90.8L1353.2,198Z" shape-rendering="crispEdges"/><path fill="#DAA174" d="M1353.2,198L1311,90.8L1200.3,172.7Z" shape-rendering="crispEdges"/><path fill="#E09780" d="M927.9,-34L914.5,87.2L1024.4,75.4Z" shape-rendering="crispEdges"/><path fill="#ED946B" d="M812.6,94.6L693.9,48.9L777.7,179.4Z" shape-rendering="crispEdges"/><path fill="#F78951" d="M591.5,195.6L516.4,150L570.3,261.3Z" shape-rendering="crispEdges"/><path fill="#E29173" d="M823.8,-12.5L812.6,94.6L914.5,87.2Z" shape-rendering="crispEdges"/><path fill="#D78C76" d="M823.8,-12.5L914.5,87.2L927.9,-34Z" shape-rendering="crispEdges"/><path fill="#B4DFA0" d="M1521.3,684.1L1422.2,603.9L1428,699.6Z" shape-rendering="crispEdges"/><path fill="#B6E0A4" d="M1521.3,684.1L1527.3,570.1L1422.2,603.9Z" shape-rendering="crispEdges"/><path fill="#C0E1AD" d="M1527.3,570.1L1529.2,484.4L1403,500.5Z" shape-rendering="crispEdges"/><path fill="#83CDA5" d="M1444.3,924.9L1453.7,811.9L1322.3,820.2Z" shape-rendering="crispEdges"/><path fill="#FDAE68" d="M399.6,390L415.9,480.5L514.3,375.4Z" shape-rendering="crispEdges"/><path fill="#F1BE73" d="M467.6,612.5L384.8,679.1L520.9,696.7Z" shape-rendering="crispEdges"/><path fill="#CE8D74" d="M1024.4,75.4L1138,-41.5L1029.4,-52.5Z" shape-rendering="crispEdges"/><path fill="#D59670" d="M1198.4,-8.1L1101.2,101.1L1229.2,87.8Z" shape-rendering="crispEdges"/><path fill="#B0AAAF" d="M824.3,1015.9L919.6,1092.4L928.7,998.7Z" shape-rendering="crispEdges"/><path fill="#ABAAAF" d="M1008,1022.9L1033.3,1102.4L1097.4,1014.6Z" shape-rendering="crispEdges"/><path fill="#A7A8A6" d="M1097.4,1014.6L1112.8,1132.9L1196.8,1000.5Z" shape-rendering="crispEdges"/><path fill="#B49CA5" d="M797.5,1117.3L919.6,1092.4L824.3,1015.9Z" shape-rendering="crispEdges"/><path fill="#9ED7A3" d="M1453.7,811.9L1521.3,684.1L1428,699.6Z" shape-rendering="crispEdges"/><path fill="#EC8862" d="M693.9,48.9L602.2,94.5L712.6,192Z" shape-rendering="crispEdges"/><path fill="#FB9F5C" d="M411.1,292.1L399.6,390L514.3,375.4Z" shape-rendering="crispEdges"/><path fill="#B1A4B1" d="M919.6,1092.4L1033.3,1102.4L1008,1022.9Z" shape-rendering="crispEdges"/><path fill="#BCBC8D" d="M1555,296.6L1534.4,383.7L1615.3,392.2Z" shape-rendering="crispEdges"/><path fill="#C1D398" d="M1529.2,484.4L1534.4,383.7L1425,412.8Z" shape-rendering="crispEdges"/><path fill="#D2A573" d="M1446.4,282.6L1425.1,159.4L1353.2,198Z" shape-rendering="crispEdges"/><path fill="#FEBE7F" d="M415.9,480.5L394.7,590.3L467.6,612.5Z" shape-rendering="crispEdges"/><path fill="#C38B70" d="M1302.9,-9.6L1198.4,-8.1L1229.2,87.8Z" shape-rendering="crispEdges"/><path fill="#D99574" d="M1138,-41.5L1024.4,75.4L1101.2,101.1Z" shape-rendering="crispEdges"/><path fill="#C89F74" d="M1539.4,164.2L1425.1,159.4L1446.4,282.6Z" shape-rendering="crispEdges"/><path fill="#C79073" d="M1311,90.8L1302.9,-9.6L1229.2,87.8Z" shape-rendering="crispEdges"/><path fill="#FB9C58" d="M411.1,292.1L514.3,375.4L517,276.5Z" shape-rendering="crispEdges"/><path fill="#FEB47A" d="M415.9,480.5L300.3,481.6L394.7,590.3Z" shape-rendering="crispEdges"/><path fill="#F08056" d="M602.2,94.5L516.4,150L591.5,195.6Z" shape-rendering="crispEdges"/><path fill="#CE8F6D" d="M1198.4,-8.1L1138,-41.5L1101.2,101.1Z" shape-rendering="crispEdges"/><path fill="#B7A78D" d="M514.2,924.8L601.4,993.9L619.7,878.7Z" shape-rendering="crispEdges"/><path fill="#B2A0A0" d="M696.7,989.3L797.5,1117.3L824.3,1015.9Z" shape-rendering="crispEdges"/><path fill="#BFB482" d="M502.5,803.7L514.2,924.8L619.7,878.7Z" shape-rendering="crispEdges"/><path fill="#C5AD7B" d="M411.6,817.4L514.2,924.8L502.5,803.7Z" shape-rendering="crispEdges"/><path fill="#F3B171" d="M269.5,615.8L384.8,679.1L394.7,590.3Z" shape-rendering="crispEdges"/><path fill="#F6BA72" d="M394.7,590.3L384.8,679.1L467.6,612.5Z" shape-rendering="crispEdges"/><path fill="#F8824C" d="M384,192.1L411.1,292.1L517,276.5Z" shape-rendering="crispEdges"/><path fill="#87B3B0" d="M1196.8,1000.5L1345.8,1011.8L1316.4,916Z" shape-rendering="crispEdges"/><path fill="#85C8A8" d="M1316.4,916L1444.3,924.9L1322.3,820.2Z" shape-rendering="crispEdges"/><path fill="#95A4A8" d="M1228,1108.7L1345.8,1011.8L1196.8,1000.5Z" shape-rendering="crispEdges"/><path fill="#77C8A5" d="M1444.3,924.9L1508.9,824.7L1453.7,811.9Z" shape-rendering="crispEdges"/><path fill="#8DD0A5" d="M1453.7,811.9L1508.9,824.7L1521.3,684.1Z" shape-rendering="crispEdges"/><path fill="#B58F96" d="M673.4,1126.7L797.5,1117.3L696.7,989.3Z" shape-rendering="crispEdges"/><path fill="#AEA1AA" d="M1035.9,1213L1112.8,1132.9L1033.3,1102.4Z" shape-rendering="crispEdges"/><path fill="#7AB5B0" d="M1345.8,1011.8L1444.3,924.9L1316.4,916Z" shape-rendering="crispEdges"/><path fill="#B1A2AF" d="M1035.9,1213L1033.3,1102.4L929.7,1219.3Z" shape-rendering="crispEdges"/><path fill="#ACA0A8" d="M1033.3,1102.4L1112.8,1132.9L1097.4,1014.6Z" shape-rendering="crispEdges"/><path fill="#BACB98" d="M1615.3,392.2L1534.4,383.7L1529.2,484.4Z" shape-rendering="crispEdges"/><path fill="#C3BB83" d="M1534.4,383.7L1555,296.6L1446.4,282.6Z" shape-rendering="crispEdges"/><path fill="#B6CAA2" d="M1615.3,392.2L1529.2,484.4L1647.9,481.4Z" shape-rendering="crispEdges"/><path fill="#E67054" d="M602.2,94.5L468.6,44.9L516.4,150Z" shape-rendering="crispEdges"/><path fill="#DA765B" d="M693.9,48.9L603.9,-16.4L602.2,94.5Z" shape-rendering="crispEdges"/><path fill="#D17C63" d="M823.8,-12.5L687.6,-33.1L693.9,48.9Z" shape-rendering="crispEdges"/><path fill="#D18066" d="M797.9,-156.2L687.6,-33.1L823.8,-12.5Z" shape-rendering="crispEdges"/><path fill="#D48A75" d="M927.5,-150.8L823.8,-12.5L927.9,-34Z" shape-rendering="crispEdges"/><path fill="#C49278" d="M1456.4,59.2L1311,90.8L1425.1,159.4Z" shape-rendering="crispEdges"/><path fill="#B58572" d="M1421.4,-24.8L1302.9,-9.6L1311,90.8Z" shape-rendering="crispEdges"/><path fill="#C78B6C" d="M1227.5,-125.6L1142.9,-142.1L1138,-41.5Z" shape-rendering="crispEdges"/><path fill="#E1B575" d="M384.8,679.1L411.6,817.4L520.9,696.7Z" shape-rendering="crispEdges"/><path fill="#A59DA2" d="M1112.8,1132.9L1228,1108.7L1196.8,1000.5Z" shape-rendering="crispEdges"/><path fill="#CF8D75" d="M1142.9,-142.1L991.4,-118.2L1029.4,-52.5Z" shape-rendering="crispEdges"/><path fill="#D38F7B" d="M1029.4,-52.5L991.4,-118.2L927.9,-34Z" shape-rendering="crispEdges"/><path fill="#CC8D70" d="M1142.9,-142.1L1029.4,-52.5L1138,-41.5Z" shape-rendering="crispEdges"/><path fill="#B1D4B7" d="M1647.9,481.4L1527.3,570.1L1661.7,575.9Z" shape-rendering="crispEdges"/><path fill="#B6D7AE" d="M1647.9,481.4L1529.2,484.4L1527.3,570.1Z" shape-rendering="crispEdges"/><path fill="#D0715A" d="M671.2,-142.5L603.9,-16.4L687.6,-33.1Z" shape-rendering="crispEdges"/><path fill="#D0725B" d="M687.6,-33.1L603.9,-16.4L693.9,48.9Z" shape-rendering="crispEdges"/><path fill="#F57B4A" d="M516.4,150L384,192.1L517,276.5Z" shape-rendering="crispEdges"/><path fill="#8499A8" d="M1336.3,1137.2L1414.7,1018.3L1345.8,1011.8Z" shape-rendering="crispEdges"/><path fill="#73AAB0" d="M1345.8,1011.8L1414.7,1018.3L1444.3,924.9Z" shape-rendering="crispEdges"/><path fill="#6CBDA9" d="M1444.3,924.9L1513.8,930.4L1508.9,824.7Z" shape-rendering="crispEdges"/><path fill="#B6818B" d="M588.3,1132.3L673.4,1126.7L601.4,993.9Z" shape-rendering="crispEdges"/><path fill="#B49394" d="M601.4,993.9L673.4,1126.7L696.7,989.3Z" shape-rendering="crispEdges"/><path fill="#B3A3B3" d="M929.7,1219.3L1033.3,1102.4L919.6,1092.4Z" shape-rendering="crispEdges"/><path fill="#B2948E" d="M497.5,1009.6L601.4,993.9L514.2,924.8Z" shape-rendering="crispEdges"/><path fill="#BE9C7A" d="M1653.9,250.8L1539.4,164.2L1555,296.6Z" shape-rendering="crispEdges"/><path fill="#C4A778" d="M1555,296.6L1539.4,164.2L1446.4,282.6Z" shape-rendering="crispEdges"/><path fill="#BE9277" d="M1539.4,164.2L1456.4,59.2L1425.1,159.4Z" shape-rendering="crispEdges"/><path fill="#F7A067" d="M266,402.6L300.3,481.6L399.6,390Z" shape-rendering="crispEdges"/><path fill="#FCAA6B" d="M399.6,390L300.3,481.6L415.9,480.5Z" shape-rendering="crispEdges"/><path fill="#BE9876" d="M296.4,887.3L392.9,927L411.6,817.4Z" shape-rendering="crispEdges"/><path fill="#67AEB0" d="M1414.7,1018.3L1513.8,930.4L1444.3,924.9Z" shape-rendering="crispEdges"/><path fill="#ADD8A9" d="M1661.7,575.9L1527.3,570.1L1521.3,684.1Z" shape-rendering="crispEdges"/><path fill="#B59086" d="M392.9,927L497.5,1009.6L514.2,924.8Z" shape-rendering="crispEdges"/><path fill="#A4CFA5" d="M1661.7,575.9L1521.3,684.1L1640.8,716.7Z" shape-rendering="crispEdges"/><path fill="#AF847B" d="M1651.1,99.5L1531.5,50.2L1539.4,164.2Z" shape-rendering="crispEdges"/><path fill="#EA664C" d="M399.4,70L384,192.1L516.4,150Z" shape-rendering="crispEdges"/><path fill="#F58F5A" d="M285.3,268.7L266,402.6L399.6,390Z" shape-rendering="crispEdges"/><path fill="#D18E78" d="M1142.9,-142.1L927.5,-150.8L991.4,-118.2Z" shape-rendering="crispEdges"/><path fill="#D48E7C" d="M991.4,-118.2L927.5,-150.8L927.9,-34Z" shape-rendering="crispEdges"/><path fill="#B49DAA" d="M929.7,1219.3L919.6,1092.4L817.2,1211.9Z" shape-rendering="crispEdges"/><path fill="#A79EA1" d="M1112.8,1132.9L1138.9,1220.2L1228,1108.7Z" shape-rendering="crispEdges"/><path fill="#9196A4" d="M1228,1108.7L1336.3,1137.2L1345.8,1011.8Z" shape-rendering="crispEdges"/><path fill="#8DC8A8" d="M1640.8,716.7L1521.3,684.1L1639.5,801.9Z" shape-rendering="crispEdges"/><path fill="#BD876E" d="M1227.5,-125.6L1198.4,-8.1L1302.9,-9.6Z" shape-rendering="crispEdges"/><path fill="#C48A6D" d="M1227.5,-125.6L1138,-41.5L1198.4,-8.1Z" shape-rendering="crispEdges"/><path fill="#B49AA4" d="M817.2,1211.9L919.6,1092.4L797.5,1117.3Z" shape-rendering="crispEdges"/><path fill="#85CAA6" d="M1639.5,801.9L1521.3,684.1L1508.9,824.7Z" shape-rendering="crispEdges"/><path fill="#D86A53" d="M603.9,-16.4L468.6,44.9L602.2,94.5Z" shape-rendering="crispEdges"/><path fill="#B5959B" d="M709.3,1188.6L817.2,1211.9L797.5,1117.3Z" shape-rendering="crispEdges"/><path fill="#B8856F" d="M1325.4,-143.1L1227.5,-125.6L1302.9,-9.6Z" shape-rendering="crispEdges"/><path fill="#D8A773" d="M310,790.4L411.6,817.4L384.8,679.1Z" shape-rendering="crispEdges"/><path fill="#BE9E7C" d="M411.6,817.4L392.9,927L514.2,924.8Z" shape-rendering="crispEdges"/><path fill="#CE8D73" d="M1503.9,-153.3L797.9,-156.2L927.5,-150.8Z" shape-rendering="crispEdges"/><path fill="#D38670" d="M927.5,-150.8L797.9,-156.2L823.8,-12.5Z" shape-rendering="crispEdges"/><path fill="#CD5C4E" d="M603.9,-16.4L483.8,-21.5L468.6,44.9Z" shape-rendering="crispEdges"/><path fill="#F9B17D" d="M300.3,481.6L269.5,615.8L394.7,590.3Z" shape-rendering="crispEdges"/><path fill="#9698A4" d="M1249.1,1193.3L1336.3,1137.2L1228,1108.7Z" shape-rendering="crispEdges"/><path fill="#51A2B3" d="M1623.8,1026.3L1617.7,906.9L1513.8,930.4Z" shape-rendering="crispEdges"/><path fill="#B58F96" d="M673.4,1126.7L709.3,1188.6L797.5,1117.3Z" shape-rendering="crispEdges"/><path fill="#B68790" d="M618.3,1211.9L709.3,1188.6L673.4,1126.7Z" shape-rendering="crispEdges"/><path fill="#B67C86" d="M588.3,1132.3L601.4,993.9L516.5,1094.7Z" shape-rendering="crispEdges"/><path fill="#AFA1AC" d="M929.7,1219.3L1138.9,1220.2L1035.9,1213Z" shape-rendering="crispEdges"/><path fill="#ACA0A6" d="M1035.9,1213L1138.9,1220.2L1112.8,1132.9Z" shape-rendering="crispEdges"/><path fill="#A17B71" d="M1551.1,-15.5L1421.4,-24.8L1456.4,59.2Z" shape-rendering="crispEdges"/><path fill="#B48774" d="M1456.4,59.2L1421.4,-24.8L1311,90.8Z" shape-rendering="crispEdges"/><path fill="#DDA772" d="M281.5,708.8L310,790.4L384.8,679.1Z" shape-rendering="crispEdges"/><path fill="#EAAB70" d="M269.5,615.8L281.5,708.8L384.8,679.1Z" shape-rendering="crispEdges"/><path fill="#B58488" d="M516.5,1094.7L601.4,993.9L497.5,1009.6Z" shape-rendering="crispEdges"/><path fill="#F88B51" d="M285.3,268.7L399.6,390L411.1,292.1Z" shape-rendering="crispEdges"/><path fill="#F3A980" d="M300.3,481.6L174.9,578.4L269.5,615.8Z" shape-rendering="crispEdges"/><path fill="#A19CA2" d="M1138.9,1220.2L1249.1,1193.3L1228,1108.7Z" shape-rendering="crispEdges"/><path fill="#62BAA9" d="M1617.7,906.9L1508.9,824.7L1513.8,930.4Z" shape-rendering="crispEdges"/><path fill="#69BCA9" d="M1617.7,906.9L1639.5,801.9L1508.9,824.7Z" shape-rendering="crispEdges"/><path fill="#AAC5BE" d="M1734.9,569.2L1712.8,484.3L1661.7,575.9Z" shape-rendering="crispEdges"/><path fill="#B66D7E" d="M412,1121.8L516.5,1094.7L497.5,1009.6Z" shape-rendering="crispEdges"/><path fill="#E2624F" d="M468.6,44.9L399.4,70L516.4,150Z" shape-rendering="crispEdges"/><path fill="#F47649" d="M384,192.1L285.3,268.7L411.1,292.1Z" shape-rendering="crispEdges"/><path fill="#D25049" d="M415.3,-20.6L399.4,70L468.6,44.9Z" shape-rendering="crispEdges"/><path fill="#EF6645" d="M302.9,184.9L285.3,268.7L384,192.1Z" shape-rendering="crispEdges"/><path fill="#B28977" d="M1539.4,164.2L1531.5,50.2L1456.4,59.2Z" shape-rendering="crispEdges"/><path fill="#BBAB88" d="M1653.9,250.8L1555,296.6L1615.3,392.2Z" shape-rendering="crispEdges"/><path fill="#D17961" d="M797.9,-156.2L671.2,-142.5L687.6,-33.1Z" shape-rendering="crispEdges"/><path fill="#B1C0A7" d="M1712.8,484.3L1615.3,392.2L1647.9,481.4Z" shape-rendering="crispEdges"/><path fill="#B5A791" d="M1745.5,370.8L1653.9,250.8L1615.3,392.2Z" shape-rendering="crispEdges"/><path fill="#CE6352" d="M601.9,-157.2L483.8,-21.5L603.9,-16.4Z" shape-rendering="crispEdges"/><path fill="#A1BFB2" d="M1734.9,569.2L1661.7,575.9L1761.2,711.2Z" shape-rendering="crispEdges"/><path fill="#AEC6B6" d="M1661.7,575.9L1712.8,484.3L1647.9,481.4Z" shape-rendering="crispEdges"/><path fill="#64A2AF" d="M1526.7,1034L1513.8,930.4L1414.7,1018.3Z" shape-rendering="crispEdges"/><path fill="#9BC1AC" d="M1761.2,711.2L1661.7,575.9L1640.8,716.7Z" shape-rendering="crispEdges"/><path fill="#8191A5" d="M1455.5,1126.6L1414.7,1018.3L1336.3,1137.2Z" shape-rendering="crispEdges"/><path fill="#7392A7" d="M1455.5,1126.6L1526.7,1034L1414.7,1018.3Z" shape-rendering="crispEdges"/><path fill="#E95D48" d="M399.4,70L302.9,184.9L384,192.1Z" shape-rendering="crispEdges"/><path fill="#AA7F71" d="M1430.7,-149.8L1325.4,-143.1L1421.4,-24.8Z" shape-rendering="crispEdges"/><path fill="#B08171" d="M1421.4,-24.8L1325.4,-143.1L1302.9,-9.6Z" shape-rendering="crispEdges"/><path fill="#BF886E" d="M1227.5,-125.6L1325.4,-143.1L1142.9,-142.1Z" shape-rendering="crispEdges"/><path fill="#C78B6C" d="M1142.9,-142.1L1430.7,-149.8L927.5,-150.8Z" shape-rendering="crispEdges"/><path fill="#82B4B1" d="M1761.2,711.2L1640.8,716.7L1755,785.8Z" shape-rendering="crispEdges"/><path fill="#B4837F" d="M1767.3,203.7L1650.5,166.5L1653.9,250.8Z" shape-rendering="crispEdges"/><path fill="#B38183" d="M392.9,927L381.3,1012L497.5,1009.6Z" shape-rendering="crispEdges"/><path fill="#B17A81" d="M305.2,990.9L381.3,1012L392.9,927Z" shape-rendering="crispEdges"/><path fill="#C69D74" d="M296.4,887.3L411.6,817.4L310,790.4Z" shape-rendering="crispEdges"/><path fill="#CF9B76" d="M158.2,788.6L310,790.4L281.5,708.8Z" shape-rendering="crispEdges"/><path fill="#C19576" d="M158.2,788.6L296.4,887.3L310,790.4Z" shape-rendering="crispEdges"/><path fill="#B0B5A1" d="M1745.5,370.8L1615.3,392.2L1712.8,484.3Z" shape-rendering="crispEdges"/><path fill="#B88D7A" d="M1653.9,250.8L1650.5,166.5L1539.4,164.2Z" shape-rendering="crispEdges"/><path fill="#7F90A5" d="M1450.7,1200.9L1455.5,1126.6L1336.3,1137.2Z" shape-rendering="crispEdges"/><path fill="#9196A4" d="M1249.1,1193.3L1328.7,1210.3L1336.3,1137.2Z" shape-rendering="crispEdges"/><path fill="#9B9AA3" d="M1138.9,1220.2L1328.7,1210.3L1249.1,1193.3Z" shape-rendering="crispEdges"/><path fill="#B67683" d="M510.8,1239L588.3,1132.3L516.5,1094.7Z" shape-rendering="crispEdges"/><path fill="#B67B86" d="M510.8,1239L618.3,1211.9L588.3,1132.3Z" shape-rendering="crispEdges"/><path fill="#B6828B" d="M588.3,1132.3L618.3,1211.9L673.4,1126.7Z" shape-rendering="crispEdges"/><path fill="#B58D95" d="M709.3,1188.6L618.3,1211.9L817.2,1211.9Z" shape-rendering="crispEdges"/><path fill="#B59299" d="M817.2,1211.9L510.8,1239L929.7,1219.3Z" shape-rendering="crispEdges"/><path fill="#CF6D58" d="M671.2,-142.5L601.9,-157.2L603.9,-16.4Z" shape-rendering="crispEdges"/><path fill="#CB504A" d="M483.8,-21.5L415.3,-20.6L468.6,44.9Z" shape-rendering="crispEdges"/><path fill="#D0765E" d="M797.9,-156.2L601.9,-157.2L671.2,-142.5Z" shape-rendering="crispEdges"/><path fill="#CB504A" d="M475.8,-147.1L415.3,-20.6L483.8,-21.5Z" shape-rendering="crispEdges"/><path fill="#E04F4C" d="M399.4,70L261.5,74.3L302.9,184.9Z" shape-rendering="crispEdges"/><path fill="#B0A8A1" d="M1860.5,390.4L1745.5,370.8L1712.8,484.3Z" shape-rendering="crispEdges"/><path fill="#F0855A" d="M285.3,268.7L201.8,356.1L266,402.6Z" shape-rendering="crispEdges"/><path fill="#F39E71" d="M266,402.6L176.6,495.9L300.3,481.6Z" shape-rendering="crispEdges"/><path fill="#E5A472" d="M269.5,615.8L189.4,679.7L281.5,708.8Z" shape-rendering="crispEdges"/><path fill="#EB7554" d="M166.6,269.1L201.8,356.1L285.3,268.7Z" shape-rendering="crispEdges"/><path fill="#E7634D" d="M166.6,269.1L285.3,268.7L161.9,201.7Z" shape-rendering="crispEdges"/><path fill="#9F7877" d="M1651.1,99.5L1551.1,-15.5L1531.5,50.2Z" shape-rendering="crispEdges"/><path fill="#A27E73" d="M1531.5,50.2L1551.1,-15.5L1456.4,59.2Z" shape-rendering="crispEdges"/><path fill="#EF9469" d="M201.8,356.1L176.6,495.9L266,402.6Z" shape-rendering="crispEdges"/><path fill="#E9A376" d="M174.9,578.4L189.4,679.7L269.5,615.8Z" shape-rendering="crispEdges"/><path fill="#F2A47F" d="M176.6,495.9L174.9,578.4L300.3,481.6Z" shape-rendering="crispEdges"/><path fill="#A97781" d="M1718.6,98.6L1651.1,99.5L1650.5,166.5Z" shape-rendering="crispEdges"/><path fill="#B1847C" d="M1650.5,166.5L1651.1,99.5L1539.4,164.2Z" shape-rendering="crispEdges"/><path fill="#7CB7AF" d="M1755,785.8L1640.8,716.7L1639.5,801.9Z" shape-rendering="crispEdges"/><path fill="#ACB7B8" d="M1734.9,569.2L1870.9,503.7L1712.8,484.3Z" shape-rendering="crispEdges"/><path fill="#60ABB0" d="M1755,785.8L1639.5,801.9L1712.7,932.8Z" shape-rendering="crispEdges"/><path fill="#AF7F7F" d="M202.7,914.8L305.2,990.9L296.4,887.3Z" shape-rendering="crispEdges"/><path fill="#B4847E" d="M296.4,887.3L305.2,990.9L392.9,927Z" shape-rendering="crispEdges"/><path fill="#B56F7D" d="M381.3,1012L412,1121.8L497.5,1009.6Z" shape-rendering="crispEdges"/><path fill="#6F8AA5" d="M1455.5,1126.6L1548,1102.1L1526.7,1034Z" shape-rendering="crispEdges"/><path fill="#579BB0" d="M1526.7,1034L1623.8,1026.3L1513.8,930.4Z" shape-rendering="crispEdges"/><path fill="#6F8AA5" d="M1520.8,1187.9L1548,1102.1L1455.5,1126.6Z" shape-rendering="crispEdges"/><path fill="#B3968D" d="M1745.5,370.8L1745.7,270.4L1653.9,250.8Z" shape-rendering="crispEdges"/><path fill="#B47E83" d="M1767.3,203.7L1745.7,270.4L1861.6,289Z" shape-rendering="crispEdges"/><path fill="#B25A76" d="M279.9,1103.1L412,1121.8L381.3,1012Z" shape-rendering="crispEdges"/><path fill="#A27B71" d="M1503.9,-153.3L1430.7,-149.8L1421.4,-24.8Z" shape-rendering="crispEdges"/><path fill="#B68470" d="M1325.4,-143.1L1430.7,-149.8L1142.9,-142.1Z" shape-rendering="crispEdges"/><path fill="#628BAA" d="M1548,1102.1L1623.8,1026.3L1526.7,1034Z" shape-rendering="crispEdges"/><path fill="#58ABAF" d="M1712.7,932.8L1639.5,801.9L1617.7,906.9Z" shape-rendering="crispEdges"/><path fill="#8693A5" d="M1328.7,1210.3L1450.7,1200.9L1336.3,1137.2Z" shape-rendering="crispEdges"/><path fill="#627FA8" d="M1548,1102.1L1631.3,1113.7L1623.8,1026.3Z" shape-rendering="crispEdges"/><path fill="#CD5C4E" d="M601.9,-157.2L475.8,-147.1L483.8,-21.5Z" shape-rendering="crispEdges"/><path fill="#CC3F48" d="M284.9,-42.1L261.5,74.3L399.4,70Z" shape-rendering="crispEdges"/><path fill="#4798B7" d="M1623.8,1026.3L1712.7,932.8L1617.7,906.9Z" shape-rendering="crispEdges"/><path fill="#C83F45" d="M284.9,-42.1L399.4,70L415.3,-20.6Z" shape-rendering="crispEdges"/><path fill="#E95E48" d="M161.9,201.7L285.3,268.7L302.9,184.9Z" shape-rendering="crispEdges"/><path fill="#E3906F" d="M76,365.3L99.6,507.4L176.6,495.9Z" shape-rendering="crispEdges"/><path fill="#EA9E80" d="M176.6,495.9L99.6,507.4L174.9,578.4Z" shape-rendering="crispEdges"/><path fill="#B66C7E" d="M412,1121.8L510.8,1239L516.5,1094.7Z" shape-rendering="crispEdges"/><path fill="#B6858E" d="M618.3,1211.9L510.8,1239L817.2,1211.9Z" shape-rendering="crispEdges"/><path fill="#B49BA6" d="M929.7,1219.3L510.8,1239L1138.9,1220.2Z" shape-rendering="crispEdges"/><path fill="#D49B76" d="M189.4,679.7L158.2,788.6L281.5,708.8Z" shape-rendering="crispEdges"/><path fill="#CC9374" d="M56.3,690.8L158.2,788.6L189.4,679.7Z" shape-rendering="crispEdges"/><path fill="#DD9B71" d="M56.3,690.8L189.4,679.7L174.9,578.4Z" shape-rendering="crispEdges"/><path fill="#758CA5" d="M1450.7,1200.9L1520.8,1187.9L1455.5,1126.6Z" shape-rendering="crispEdges"/><path fill="#4188B9" d="M1623.8,1026.3L1747.1,1017.6L1712.7,932.8Z" shape-rendering="crispEdges"/><path fill="#B38E8C" d="M1861.6,289L1745.7,270.4L1745.5,370.8Z" shape-rendering="crispEdges"/><path fill="#B38685" d="M1745.7,270.4L1767.3,203.7L1653.9,250.8Z" shape-rendering="crispEdges"/><path fill="#936C77" d="M1651.1,99.5L1635.8,-58.5L1551.1,-15.5Z" shape-rendering="crispEdges"/><path fill="#9D7971" d="M1551.1,-15.5L1503.9,-153.3L1421.4,-24.8Z" shape-rendering="crispEdges"/><path fill="#AB7682" d="M1767.3,203.7L1718.6,98.6L1650.5,166.5Z" shape-rendering="crispEdges"/><path fill="#B58D78" d="M158.2,788.6L202.7,914.8L296.4,887.3Z" shape-rendering="crispEdges"/><path fill="#B35B76" d="M308.6,1194.9L386.2,1208.5L412,1121.8Z" shape-rendering="crispEdges"/><path fill="#B5657A" d="M412,1121.8L386.2,1208.5L510.8,1239Z" shape-rendering="crispEdges"/><path fill="#957273" d="M1635.8,-58.5L1503.9,-153.3L1551.1,-15.5Z" shape-rendering="crispEdges"/><path fill="#B8856F" d="M1430.7,-149.8L1503.9,-153.3L927.5,-150.8Z" shape-rendering="crispEdges"/><path fill="#D48F7D" d="M797.9,-156.2L1503.9,-153.3L601.9,-157.2Z" shape-rendering="crispEdges"/><path fill="#E78A66" d="M76,365.3L176.6,495.9L201.8,356.1Z" shape-rendering="crispEdges"/><path fill="#E04F4C" d="M261.5,74.3L161.9,201.7L302.9,184.9Z" shape-rendering="crispEdges"/><path fill="#E47758" d="M166.6,269.1L76,365.3L201.8,356.1Z" shape-rendering="crispEdges"/><path fill="#CA4A47" d="M475.8,-147.1L384.2,-119.8L415.3,-20.6Z" shape-rendering="crispEdges"/><path fill="#D8424E" d="M261.5,74.3L164.9,94L161.9,201.7Z" shape-rendering="crispEdges"/><path fill="#6684A7" d="M1520.8,1187.9L1631.3,1113.7L1548,1102.1Z" shape-rendering="crispEdges"/><path fill="#8C6279" d="M1721.1,-38.6L1635.8,-58.5L1651.1,99.5Z" shape-rendering="crispEdges"/><path fill="#A0ACA8" d="M1860.5,671.6L1857.8,607L1761.2,711.2Z" shape-rendering="crispEdges"/><path fill="#A3B4AD" d="M1761.2,711.2L1857.8,607L1734.9,569.2Z" shape-rendering="crispEdges"/><path fill="#8AA6AB" d="M1860.5,671.6L1761.2,711.2L1822.9,824.7Z" shape-rendering="crispEdges"/><path fill="#D6907D" d="M-12.2,589.6L82.1,564.4L-32.2,479.3Z" shape-rendering="crispEdges"/><path fill="#E59C80" d="M99.6,507.4L82.1,564.4L174.9,578.4Z" shape-rendering="crispEdges"/><path fill="#C73E45" d="M384.2,-119.8L284.9,-42.1L415.3,-20.6Z" shape-rendering="crispEdges"/><path fill="#AF657B" d="M279.9,1103.1L381.3,1012L305.2,990.9Z" shape-rendering="crispEdges"/><path fill="#B0A9A8" d="M1870.9,503.7L1860.5,390.4L1712.8,484.3Z" shape-rendering="crispEdges"/><path fill="#8A557B" d="M1845.1,-25.2L1721.1,-38.6L1718.6,98.6Z" shape-rendering="crispEdges"/><path fill="#ACB2B6" d="M1857.8,607L1870.9,503.7L1734.9,569.2Z" shape-rendering="crispEdges"/><path fill="#7BA7AF" d="M1822.9,824.7L1761.2,711.2L1755,785.8Z" shape-rendering="crispEdges"/><path fill="#AFA6AF" d="M1857.8,607L1957.4,610.1L1870.9,503.7Z" shape-rendering="crispEdges"/><path fill="#689DAD" d="M1822.9,824.7L1755,785.8L1827.1,894.6Z" shape-rendering="crispEdges"/><path fill="#AA577A" d="M195.8,1083.8L279.9,1103.1L305.2,990.9Z" shape-rendering="crispEdges"/><path fill="#579DB0" d="M1827.1,894.6L1755,785.8L1712.7,932.8Z" shape-rendering="crispEdges"/><path fill="#DE5A4C" d="M88.6,256.9L166.6,269.1L161.9,201.7Z" shape-rendering="crispEdges"/><path fill="#DD6952" d="M88.6,256.9L76,365.3L166.6,269.1Z" shape-rendering="crispEdges"/><path fill="#547CB0" d="M1631.3,1113.7L1747.1,1017.6L1623.8,1026.3Z" shape-rendering="crispEdges"/><path fill="#C5314B" d="M175.3,-34L164.9,94L261.5,74.3Z" shape-rendering="crispEdges"/><path fill="#A3727F" d="M75.9,893.4L185.7,1002.1L202.7,914.8Z" shape-rendering="crispEdges"/><path fill="#A67084" d="M202.7,914.8L185.7,1002.1L305.2,990.9Z" shape-rendering="crispEdges"/><path fill="#AC8577" d="M75.9,893.4L202.7,914.8L158.2,788.6Z" shape-rendering="crispEdges"/><path fill="#B5878D" d="M1925.1,359.6L1861.6,289L1860.5,390.4Z" shape-rendering="crispEdges"/><path fill="#B49191" d="M1860.5,390.4L1861.6,289L1745.5,370.8Z" shape-rendering="crispEdges"/><path fill="#97677F" d="M1718.6,98.6L1721.1,-38.6L1651.1,99.5Z" shape-rendering="crispEdges"/><path fill="#D74B48" d="M77.7,159.4L88.6,256.9L161.9,201.7Z" shape-rendering="crispEdges"/><path fill="#4289B8" d="M1747.1,1017.6L1827.1,894.6L1712.7,932.8Z" shape-rendering="crispEdges"/><path fill="#8D9DA8" d="M1822.9,824.7L1940.6,722.6L1860.5,671.6Z" shape-rendering="crispEdges"/><path fill="#D39173" d="M-12.2,589.6L56.3,690.8L82.1,564.4Z" shape-rendering="crispEdges"/><path fill="#DC9875" d="M82.1,564.4L56.3,690.8L174.9,578.4Z" shape-rendering="crispEdges"/><path fill="#C43946" d="M384.2,-119.8L295.4,-114.3L284.9,-42.1Z" shape-rendering="crispEdges"/><path fill="#BD2D48" d="M284.9,-42.1L175.3,-34L261.5,74.3Z" shape-rendering="crispEdges"/><path fill="#C94144" d="M475.8,-147.1L295.4,-114.3L384.2,-119.8Z" shape-rendering="crispEdges"/><path fill="#AB6C80" d="M1851.5,182.2L1718.6,98.6L1767.3,203.7Z" shape-rendering="crispEdges"/><path fill="#926C75" d="M1635.8,-58.5L1659.3,-132.7L1503.9,-153.3Z" shape-rendering="crispEdges"/><path fill="#AA4F78" d="M180.2,1187.4L308.6,1194.9L279.9,1103.1Z" shape-rendering="crispEdges"/><path fill="#B05876" d="M279.9,1103.1L308.6,1194.9L412,1121.8Z" shape-rendering="crispEdges"/><path fill="#AD5377" d="M386.2,1208.5L-16.1,1237.2L510.8,1239Z" shape-rendering="crispEdges"/><path fill="#B4707C" d="M1861.6,289L1851.5,182.2L1767.3,203.7Z" shape-rendering="crispEdges"/><path fill="#BE8C74" d="M56.3,690.8L55.5,778.5L158.2,788.6Z" shape-rendering="crispEdges"/><path fill="#8C6179" d="M1721.1,-38.6L1659.3,-132.7L1635.8,-58.5Z" shape-rendering="crispEdges"/><path fill="#9E567D" d="M70.6,1002.5L195.8,1083.8L185.7,1002.1Z" shape-rendering="crispEdges"/><path fill="#A75F7E" d="M185.7,1002.1L195.8,1083.8L305.2,990.9Z" shape-rendering="crispEdges"/><path fill="#627FA8" d="M1520.8,1187.9L1645.2,1218.5L1631.3,1113.7Z" shape-rendering="crispEdges"/><path fill="#526FAF" d="M1631.3,1113.7L1757,1104.1L1747.1,1017.6Z" shape-rendering="crispEdges"/><path fill="#437DB7" d="M1747.1,1017.6L1849.1,993.6L1827.1,894.6Z" shape-rendering="crispEdges"/><path fill="#6A88A5" d="M1450.7,1200.9L1645.2,1218.5L1520.8,1187.9Z" shape-rendering="crispEdges"/><path fill="#758CA5" d="M1328.7,1210.3L1645.2,1218.5L1450.7,1200.9Z" shape-rendering="crispEdges"/><path fill="#6582A7" d="M1764.9,1232.4L1645.2,1218.5L1328.7,1210.3Z" shape-rendering="crispEdges"/><path fill="#8090A5" d="M1764.9,1232.4L1328.7,1210.3L1138.9,1220.2Z" shape-rendering="crispEdges"/><path fill="#B59298" d="M1963.4,508.4L1925.1,359.6L1860.5,390.4Z" shape-rendering="crispEdges"/><path fill="#B56D7D" d="M1861.6,289L1941.2,283.2L1851.5,182.2Z" shape-rendering="crispEdges"/><path fill="#B39CA4" d="M1963.4,508.4L1860.5,390.4L1870.9,503.7Z" shape-rendering="crispEdges"/><path fill="#A9A4A6" d="M1957.4,610.1L1857.8,607L1860.5,671.6Z" shape-rendering="crispEdges"/><path fill="#C6314C" d="M62.9,50.3L77.7,159.4L164.9,94Z" shape-rendering="crispEdges"/><path fill="#D3424B" d="M164.9,94L77.7,159.4L161.9,201.7Z" shape-rendering="crispEdges"/><path fill="#D06D58" d="M-54.4,288.3L-15.5,404.1L76,365.3Z" shape-rendering="crispEdges"/><path fill="#DB917A" d="M-32.2,479.3L82.1,564.4L99.6,507.4Z" shape-rendering="crispEdges"/><path fill="#AF8575" d="M55.5,778.5L75.9,893.4L158.2,788.6Z" shape-rendering="crispEdges"/><path fill="#5873AD" d="M1645.2,1218.5L1757,1104.1L1631.3,1113.7Z" shape-rendering="crispEdges"/><path fill="#BE2F47" d="M295.4,-114.3L175.3,-34L284.9,-42.1Z" shape-rendering="crispEdges"/><path fill="#B68672" d="M56.3,690.8L-19.2,778.3L55.5,778.5Z" shape-rendering="crispEdges"/><path fill="#94697A" d="M-8.8,889.4L70.6,1002.5L75.9,893.4Z" shape-rendering="crispEdges"/><path fill="#D98467" d="M-15.5,404.1L99.6,507.4L76,365.3Z" shape-rendering="crispEdges"/><path fill="#708DA6" d="M1965.1,781.2L1822.9,824.7L1929.2,915.1Z" shape-rendering="crispEdges"/><path fill="#8494A6" d="M1965.1,781.2L1940.6,722.6L1822.9,824.7Z" shape-rendering="crispEdges"/><path fill="#A39DA2" d="M1940.6,722.6L1957.4,610.1L1860.5,671.6Z" shape-rendering="crispEdges"/><path fill="#B3A3B3" d="M1957.4,610.1L1963.4,508.4L1870.9,503.7Z" shape-rendering="crispEdges"/><path fill="#4E6FB1" d="M1757,1104.1L1849.1,993.6L1747.1,1017.6Z" shape-rendering="crispEdges"/><path fill="#D36351" d="M-54.4,288.3L76,365.3L88.6,256.9Z" shape-rendering="crispEdges"/><path fill="#A65F7F" d="M1851.5,182.2L1865.3,84.3L1718.6,98.6Z" shape-rendering="crispEdges"/><path fill="#885B7C" d="M1721.1,-38.6L1746.3,-150.3L1659.3,-132.7Z" shape-rendering="crispEdges"/><path fill="#AA5579" d="M1961.9,163.6L1865.3,84.3L1851.5,182.2Z" shape-rendering="crispEdges"/><path fill="#B67A85" d="M1941.2,283.2L1861.6,289L1925.1,359.6Z" shape-rendering="crispEdges"/><path fill="#B67884" d="M2040.6,290.5L1941.2,283.2L1925.1,359.6Z" shape-rendering="crispEdges"/><path fill="#D5866D" d="M-15.5,404.1L-32.2,479.3L99.6,507.4Z" shape-rendering="crispEdges"/><path fill="#9F7C73" d="M-8.8,889.4L75.9,893.4L55.5,778.5Z" shape-rendering="crispEdges"/><path fill="#986581" d="M75.9,893.4L70.6,1002.5L185.7,1002.1Z" shape-rendering="crispEdges"/><path fill="#A74C78" d="M195.8,1083.8L180.2,1187.4L279.9,1103.1Z" shape-rendering="crispEdges"/><path fill="#C78B6C" d="M-53,697.2L56.3,690.8L-12.2,589.6Z" shape-rendering="crispEdges"/><path fill="#B8856F" d="M-53,697.2L-19.2,778.3L56.3,690.8Z" shape-rendering="crispEdges"/><path fill="#A39DA2" d="M1940.6,722.6L2031.1,675.3L1957.4,610.1Z" shape-rendering="crispEdges"/><path fill="#B3A3B3" d="M1957.4,610.1L2024.1,497.1L1963.4,508.4Z" shape-rendering="crispEdges"/><path fill="#618EAA" d="M1929.2,915.1L1822.9,824.7L1827.1,894.6Z" shape-rendering="crispEdges"/><path fill="#B82448" d="M85.2,-14.6L62.9,50.3L164.9,94Z" shape-rendering="crispEdges"/><path fill="#CB4D48" d="M-42.1,199.1L-54.4,288.3L88.6,256.9Z" shape-rendering="crispEdges"/><path fill="#D2836A" d="M-15.5,404.1L-118.5,475.7L-32.2,479.3Z" shape-rendering="crispEdges"/><path fill="#87517A" d="M1845.1,-25.2L1746.3,-150.3L1721.1,-38.6Z" shape-rendering="crispEdges"/><path fill="#8F6777" d="M1659.3,-132.7L1746.3,-150.3L1503.9,-153.3Z" shape-rendering="crispEdges"/><path fill="#A74C78" d="M308.6,1194.9L-16.1,1237.2L386.2,1208.5Z" shape-rendering="crispEdges"/><path fill="#9F4577" d="M84.7,1189.8L180.2,1187.4L195.8,1083.8Z" shape-rendering="crispEdges"/><path fill="#4F6DB0" d="M1951.8,1012.8L1929.2,915.1L1849.1,993.6Z" shape-rendering="crispEdges"/><path fill="#557DAF" d="M1849.1,993.6L1929.2,915.1L1827.1,894.6Z" shape-rendering="crispEdges"/><path fill="#924376" d="M1944.1,51.7L1845.1,-25.2L1865.3,84.3Z" shape-rendering="crispEdges"/><path fill="#95537B" d="M1865.3,84.3L1845.1,-25.2L1718.6,98.6Z" shape-rendering="crispEdges"/><path fill="#CC8D71" d="M-124.8,565L-53,697.2L-12.2,589.6Z" shape-rendering="crispEdges"/><path fill="#A47D71" d="M-19.2,778.3L-8.8,889.4L55.5,778.5Z" shape-rendering="crispEdges"/><path fill="#B21E47" d="M163.2,-129.9L85.2,-14.6L175.3,-34Z" shape-rendering="crispEdges"/><path fill="#B62248" d="M175.3,-34L85.2,-14.6L164.9,94Z" shape-rendering="crispEdges"/><path fill="#C33846" d="M475.8,-147.1L163.2,-129.9L295.4,-114.3Z" shape-rendering="crispEdges"/><path fill="#BB2948" d="M295.4,-114.3L163.2,-129.9L175.3,-34Z" shape-rendering="crispEdges"/><path fill="#BD2C48" d="M64.6,-140.3L163.2,-129.9L475.8,-147.1Z" shape-rendering="crispEdges"/><path fill="#9F7A71" d="M-118.3,822.8L-8.8,889.4L-19.2,778.3Z" shape-rendering="crispEdges"/><path fill="#984777" d="M70.6,1002.5L52.6,1094.5L195.8,1083.8Z" shape-rendering="crispEdges"/><path fill="#B497A0" d="M1963.4,508.4L2024.1,497.1L1925.1,359.6Z" shape-rendering="crispEdges"/><path fill="#B45C76" d="M1941.2,283.2L1961.9,163.6L1851.5,182.2Z" shape-rendering="crispEdges"/><path fill="#B0A2AE" d="M2065.5,611.7L2024.1,497.1L1957.4,610.1Z" shape-rendering="crispEdges"/><path fill="#B5667A" d="M2040.6,290.5L1961.9,163.6L1941.2,283.2Z" shape-rendering="crispEdges"/><path fill="#CD4346" d="M-42.1,199.1L88.6,256.9L77.7,159.4Z" shape-rendering="crispEdges"/><path fill="#D48F7D" d="M-32.2,479.3L-124.8,565L-12.2,589.6Z" shape-rendering="crispEdges"/><path fill="#BE2E47" d="M-42.1,199.1L77.7,159.4L-48.1,56.1Z" shape-rendering="crispEdges"/><path fill="#A99FA2" d="M510.8,1239L1764.9,1232.4L1138.9,1220.2Z" shape-rendering="crispEdges"/><path fill="#516DAF" d="M1645.2,1218.5L1764.9,1232.4L1757,1104.1Z" shape-rendering="crispEdges"/><path fill="#5760AA" d="M1757,1104.1L1871.2,1111.4L1849.1,993.6Z" shape-rendering="crispEdges"/><path fill="#B92549" d="M-48.1,56.1L77.7,159.4L62.9,50.3Z" shape-rendering="crispEdges"/><path fill="#8A94A5" d="M2050,816.8L2031.1,675.3L1965.1,781.2Z" shape-rendering="crispEdges"/><path fill="#9397A4" d="M1965.1,781.2L2031.1,675.3L1940.6,722.6Z" shape-rendering="crispEdges"/><path fill="#5662AB" d="M1764.9,1232.4L1871.2,1111.4L1757,1104.1Z" shape-rendering="crispEdges"/><path fill="#728BA5" d="M1929.2,915.1L2050,816.8L1965.1,781.2Z" shape-rendering="crispEdges"/><path fill="#8E4676" d="M-14.5,1030.1L52.6,1094.5L70.6,1002.5Z" shape-rendering="crispEdges"/><path fill="#8B3771" d="M1956.4,-5.9L1944.1,51.7L2028.8,-23.1Z" shape-rendering="crispEdges"/><path fill="#A24778" d="M1961.9,163.6L1944.1,51.7L1865.3,84.3Z" shape-rendering="crispEdges"/><path fill="#884A77" d="M1845.1,-25.2L1844.7,-142.9L1746.3,-150.3Z" shape-rendering="crispEdges"/><path fill="#585FA9" d="M1871.2,1111.4L1951.8,1012.8L1849.1,993.6Z" shape-rendering="crispEdges"/><path fill="#CF6D58" d="M-116.2,363.5L-15.5,404.1L-54.4,288.3Z" shape-rendering="crispEdges"/><path fill="#D17C63" d="M-116.2,363.5L-118.5,475.7L-15.5,404.1Z" shape-rendering="crispEdges"/><path fill="#87587D" d="M-148.2,996.9L-14.5,1030.1L-8.8,889.4Z" shape-rendering="crispEdges"/><path fill="#B58F97" d="M2075,375.2L1925.1,359.6L2024.1,497.1Z" shape-rendering="crispEdges"/><path fill="#B68089" d="M2075,375.2L2040.6,290.5L1925.1,359.6Z" shape-rendering="crispEdges"/><path fill="#9A99A3" d="M2050,816.8L2065.5,611.7L2031.1,675.3Z" shape-rendering="crispEdges"/><path fill="#AA9FA4" d="M2031.1,675.3L2065.5,611.7L1957.4,610.1Z" shape-rendering="crispEdges"/><path fill="#D48B76" d="M-118.5,475.7L-124.8,565L-32.2,479.3Z" shape-rendering="crispEdges"/><path fill="#89597D" d="M-8.8,889.4L-14.5,1030.1L70.6,1002.5Z" shape-rendering="crispEdges"/><path fill="#893C73" d="M1971.2,-136.7L1844.7,-142.9L1845.1,-25.2Z" shape-rendering="crispEdges"/><path fill="#CE6452" d="M-142.3,307.8L-116.2,363.5L-54.4,288.3Z" shape-rendering="crispEdges"/><path fill="#D2826A" d="M-118.5,475.7L-142.3,307.8L-124.8,565Z" shape-rendering="crispEdges"/><path fill="#994175" d="M52.6,1094.5L84.7,1189.8L195.8,1083.8Z" shape-rendering="crispEdges"/><path fill="#9F4577" d="M180.2,1187.4L-16.1,1237.2L308.6,1194.9Z" shape-rendering="crispEdges"/><path fill="#AE8171" d="M-118.3,822.8L-19.2,778.3L-53,697.2Z" shape-rendering="crispEdges"/><path fill="#8E3972" d="M52.6,1094.5L-23.9,1099.2L84.7,1189.8Z" shape-rendering="crispEdges"/><path fill="#B49DA9" d="M2065.5,611.7L2075,375.2L2024.1,497.1Z" shape-rendering="crispEdges"/><path fill="#A64B78" d="M2048.2,148.8L1944.1,51.7L1961.9,163.6Z" shape-rendering="crispEdges"/><path fill="#6683A7" d="M2046.3,917.3L2050,816.8L1929.2,915.1Z" shape-rendering="crispEdges"/><path fill="#D48D79" d="M-142.3,307.8L-132.2,689.8L-124.8,565Z" shape-rendering="crispEdges"/><path fill="#C88B6C" d="M-124.8,565L-132.2,689.8L-53,697.2Z" shape-rendering="crispEdges"/><path fill="#B25A76" d="M2048.2,148.8L1961.9,163.6L2040.6,290.5Z" shape-rendering="crispEdges"/><path fill="#8A3871" d="M1944.1,51.7L1956.4,-5.9L1845.1,-25.2Z" shape-rendering="crispEdges"/><path fill="#A40B43" d="M-26.6,-38.1L-48.1,56.1L62.9,50.3Z" shape-rendering="crispEdges"/><path fill="#CB5049" d="M-149,170.8L-142.3,307.8L-54.4,288.3Z" shape-rendering="crispEdges"/><path fill="#A40B43" d="M-26.6,-38.1L62.9,50.3L85.2,-14.6Z" shape-rendering="crispEdges"/><path fill="#AD1846" d="M163.2,-129.9L64.6,-140.3L85.2,-14.6Z" shape-rendering="crispEdges"/><path fill="#C84144" d="M601.9,-157.2L64.6,-140.3L475.8,-147.1Z" shape-rendering="crispEdges"/><path fill="#B58470" d="M-132.2,689.8L-118.3,822.8L-53,697.2Z" shape-rendering="crispEdges"/><path fill="#5D52A3" d="M1871.2,1111.4L1967.3,1083.6L1951.8,1012.8Z" shape-rendering="crispEdges"/><path fill="#5873AD" d="M2033.4,999.5L2046.3,917.3L1929.2,915.1Z" shape-rendering="crispEdges"/><path fill="#595DA8" d="M1764.9,1232.4L1861.7,1235.2L1871.2,1111.4Z" shape-rendering="crispEdges"/><path fill="#8592A5" d="M510.8,1239L1861.7,1235.2L1764.9,1232.4Z" shape-rendering="crispEdges"/><path fill="#C94245" d="M-149,170.8L-54.4,288.3L-42.1,199.1Z" shape-rendering="crispEdges"/><path fill="#D0745D" d="M-116.2,363.5L-142.3,307.8L-118.5,475.7Z" shape-rendering="crispEdges"/><path fill="#5E4FA2" d="M1952.6,1200.4L1967.3,1083.6L1871.2,1111.4Z" shape-rendering="crispEdges"/><path fill="#AF5577" d="M2081.5,86.5L2048.2,148.8L2040.6,290.5Z" shape-rendering="crispEdges"/><path fill="#516BAF" d="M2033.4,999.5L1929.2,915.1L1951.8,1012.8Z" shape-rendering="crispEdges"/><path fill="#6683A7" d="M2050,816.8L2073.8,1221.7L2065.5,611.7Z" shape-rendering="crispEdges"/><path fill="#884375" d="M-148.2,996.9L-23.9,1099.2L-14.5,1030.1Z" shape-rendering="crispEdges"/><path fill="#893871" d="M-14.5,1030.1L-23.9,1099.2L52.6,1094.5Z" shape-rendering="crispEdges"/><path fill="#A40C43" d="M64.6,-140.3L-26.6,-38.1L85.2,-14.6Z" shape-rendering="crispEdges"/><path fill="#B82548" d="M-48.1,56.1L-106.1,58.1L-42.1,199.1Z" shape-rendering="crispEdges"/><path fill="#5D51A3" d="M2034.2,1135.5L2033.4,999.5L1967.3,1083.6Z" shape-rendering="crispEdges"/><path fill="#595CA8" d="M1967.3,1083.6L2033.4,999.5L1951.8,1012.8Z" shape-rendering="crispEdges"/><path fill="#A60F44" d="M-121.6,-22.2L-106.1,58.1L-48.1,56.1Z" shape-rendering="crispEdges"/><path fill="#BE2F47" d="M-106.1,58.1L-149,170.8L-42.1,199.1Z" shape-rendering="crispEdges"/><path fill="#CB8C6E" d="M-142.3,307.8L-155.7,900.8L-132.2,689.8Z" shape-rendering="crispEdges"/><path fill="#5D53A4" d="M1861.7,1235.2L1952.6,1200.4L1871.2,1111.4Z" shape-rendering="crispEdges"/><path fill="#967572" d="M-118.3,822.8L-155.7,900.8L-8.8,889.4Z" shape-rendering="crispEdges"/><path fill="#A57D71" d="M-132.2,689.8L-155.7,900.8L-118.3,822.8Z" shape-rendering="crispEdges"/><path fill="#D2846C" d="M-149,170.8L-155.7,900.8L-142.3,307.8Z" shape-rendering="crispEdges"/><path fill="#A14678" d="M2081.5,86.5L1944.1,51.7L2048.2,148.8Z" shape-rendering="crispEdges"/><path fill="#923C73" d="M2081.5,86.5L2028.8,-23.1L1944.1,51.7Z" shape-rendering="crispEdges"/><path fill="#893570" d="M1956.4,-5.9L1971.2,-136.7L1845.1,-25.2Z" shape-rendering="crispEdges"/><path fill="#B5677B" d="M2075,375.2L2081.5,86.5L2040.6,290.5Z" shape-rendering="crispEdges"/><path fill="#893570" d="M2028.8,-23.1L1971.2,-136.7L1956.4,-5.9Z" shape-rendering="crispEdges"/><path fill="#884275" d="M1844.7,-142.9L1971.2,-136.7L1746.3,-150.3Z" shape-rendering="crispEdges"/><path fill="#8E6478" d="M-155.7,900.8L-148.2,996.9L-8.8,889.4Z" shape-rendering="crispEdges"/><path fill="#8B3771" d="M-23.9,1099.2L-16.1,1237.2L84.7,1189.8Z" shape-rendering="crispEdges"/><path fill="#893570" d="M-140.5,1188.8L-16.1,1237.2L-23.9,1099.2Z" shape-rendering="crispEdges"/><path fill="#953E74" d="M84.7,1189.8L-16.1,1237.2L180.2,1187.4Z" shape-rendering="crispEdges"/><path fill="#AF1B46" d="M-106.1,58.1L-121.6,-22.2L-149,170.8Z" shape-rendering="crispEdges"/><path fill="#9E0142" d="M-26.6,-38.1L-121.6,-22.2L-48.1,56.1Z" shape-rendering="crispEdges"/><path fill="#9E0142" d="M64.6,-140.3L-54.6,-126.9L-26.6,-38.1Z" shape-rendering="crispEdges"/><path fill="#5E4FA2" d="M1952.6,1200.4L2034.2,1135.5L1967.3,1083.6Z" shape-rendering="crispEdges"/><path fill="#5B58A6" d="M2033.4,999.5L2073.8,1221.7L2046.3,917.3Z" shape-rendering="crispEdges"/><path fill="#5269AE" d="M2046.3,917.3L2073.8,1221.7L2050,816.8Z" shape-rendering="crispEdges"/><path fill="#9E0142" d="M-54.6,-126.9L-121.6,-22.2L-26.6,-38.1Z" shape-rendering="crispEdges"/><path fill="#884E79" d="M-155.7,900.8L-154.9,1120.5L-148.2,996.9Z" shape-rendering="crispEdges"/><path fill="#893871" d="M-148.2,996.9L-154.9,1120.5L-23.9,1099.2Z" shape-rendering="crispEdges"/><path fill="#893570" d="M2081.5,86.5L2076.5,-111.6L2028.8,-23.1Z" shape-rendering="crispEdges"/><path fill="#893570" d="M2028.8,-23.1L2076.5,-111.6L1971.2,-136.7Z" shape-rendering="crispEdges"/><path fill="#893570" d="M-154.9,1120.5L-140.5,1188.8L-23.9,1099.2Z" shape-rendering="crispEdges"/><path fill="#5E4FA2" d="M1861.7,1235.2L2073.8,1221.7L1952.6,1200.4Z" shape-rendering="crispEdges"/><path fill="#5E4FA2" d="M1952.6,1200.4L2073.8,1221.7L2034.2,1135.5Z" shape-rendering="crispEdges"/><path fill="#5E4FA2" d="M2034.2,1135.5L2073.8,1221.7L2033.4,999.5Z" shape-rendering="crispEdges"/><path fill="#9096A4" d="M2065.5,611.7L2073.8,1221.7L2075,375.2Z" shape-rendering="crispEdges"/><path fill="#B1A2AF" d="M2075,375.2L2073.8,1221.7L2081.5,86.5Z" shape-rendering="crispEdges"/><path fill="#9E0142" d="M64.6,-140.3L-151.8,-138.9L-54.6,-126.9Z" shape-rendering="crispEdges"/><path fill="#9E0142" d="M-54.6,-126.9L-151.8,-138.9L-121.6,-22.2Z" shape-rendering="crispEdges"/><path fill="#9F0242" d="M-121.6,-22.2L-151.8,-138.9L-149,170.8Z" shape-rendering="crispEdges"/><path fill="#CE6251" d="M-149,170.8L-151.8,-138.9L-155.7,900.8Z" shape-rendering="crispEdges"/><path fill="#B62348" d="M601.9,-157.2L-151.8,-138.9L64.6,-140.3Z" shape-rendering="crispEdges"/></svg>