<svg xmlns="http://www.w3.org/2000/svg" width="1920" height="1080"><path fill="#57ADBF" d="M960.2,540L1314.6,540.4L1314.3,185.5Z" shape-rendering="crispEdges"/><path fill="#81C2BD" d="M1314.3,185.5L959.4,185L960.2,540Z" shape-rendering="crispEdges"/><path fill="#2194C0" d="M960.2,540L1315,894.2L1314.6,540.4Z" shape-rendering="crispEdges"/><path fill="#5793B3" d="M1314.6,540.4L1668.9,540.2L1314.3,185.5Z" shape-rendering="crispEdges"/><path fill="#267AB5" d="M1315,894.2L1668.9,540.2L1314.6,540.4Z" shape-rendering="crispEdges"/><path fill="#7B93AC" d="M1668.9,540.2L1669.1,185.4L1314.3,185.5Z" shape-rendering="crispEdges"/><path fill="#A5CFC5" d="M1314.3,185.5L960.2,-169.1L959.4,185Z" shape-rendering="crispEdges"/><path fill="#6FC6BE" d="M959.4,185L605.6,539.6L960.2,540Z" shape-rendering="crispEdges"/><path fill="#2E87B8" d="M960.2,540L959.5,894.7L1315,894.2Z" shape-rendering="crispEdges"/><path fill="#4B95B7" d="M606,894.2L959.5,894.7L960.2,540Z" shape-rendering="crispEdges"/><path fill="#A4C7CD" d="M1315.2,-169.7L960.2,-169.1L1314.3,185.5Z" shape-rendering="crispEdges"/><path fill="#9CD7B9" d="M959.4,185L604.4,185.8L605.6,539.6Z" shape-rendering="crispEdges"/><path fill="#9FABC2" d="M1668.8,-168.8L1315.2,-169.7L1314.3,185.5Z" shape-rendering="crispEdges"/><path fill="#BEE4C0" d="M605.7,-170.4L604.4,185.8L959.4,185Z" shape-rendering="crispEdges"/><path fill="#87BEBC" d="M251.2,539.3L606,894.2L605.6,539.6Z" shape-rendering="crispEdges"/><path fill="#5BB1BE" d="M605.6,539.6L606,894.2L960.2,540Z" shape-rendering="crispEdges"/><path fill="#9B9EB4" d="M1669.1,185.4L1668.8,-168.8L1314.3,185.5Z" shape-rendering="crispEdges"/><path fill="#265BA6" d="M1315,894.2L1670.3,894.9L1668.9,540.2Z" shape-rendering="crispEdges"/><path fill="#52769B" d="M1668.9,540.2L2024,539.9L1669.1,185.4Z" shape-rendering="crispEdges"/><path fill="#918BA1" d="M1669.1,185.4L2024,184.9L1668.8,-168.8Z" shape-rendering="crispEdges"/><path fill="#1F398A" d="M1669.8,1249.5L1670.3,894.9L1315,894.2Z" shape-rendering="crispEdges"/><path fill="#B7E0CC" d="M960.8,-524.9L605.7,-170.4L960.2,-169.1Z" shape-rendering="crispEdges"/><path fill="#B7E0CC" d="M960.2,-169.1L605.7,-170.4L959.4,185Z" shape-rendering="crispEdges"/><path fill="#A1D9B8" d="M604.4,185.8L251.2,539.3L605.6,539.6Z" shape-rendering="crispEdges"/><path fill="#C8E9B4" d="M250.8,185L251.2,539.3L604.4,185.8Z" shape-rendering="crispEdges"/><path fill="#275E9C" d="M1670.3,894.9L2024,539.9L1668.9,540.2Z" shape-rendering="crispEdges"/><path fill="#255D8C" d="M960.5,1250.3L1314.5,1249.5L959.5,894.7Z" shape-rendering="crispEdges"/><path fill="#245B9A" d="M959.5,894.7L1314.5,1249.5L1315,894.2Z" shape-rendering="crispEdges"/><path fill="#697989" d="M2024,539.9L2024,184.9L1669.1,185.4Z" shape-rendering="crispEdges"/><path fill="#E8F6BC" d="M250.9,-170.3L250.8,185L604.4,185.8Z" shape-rendering="crispEdges"/><path fill="#547699" d="M605.7,1250.2L959.5,894.7L606,894.2Z" shape-rendering="crispEdges"/><path fill="#3E6A8B" d="M605.7,1250.2L960.5,1250.3L959.5,894.7Z" shape-rendering="crispEdges"/><path fill="#9FABC2" d="M1668.8,-168.8L1314.6,-524.3L1315.2,-169.7Z" shape-rendering="crispEdges"/><path fill="#A8D0CE" d="M1315.2,-169.7L960.8,-524.9L960.2,-169.1Z" shape-rendering="crispEdges"/><path fill="#9E9FBE" d="M1670.5,-525.2L1314.6,-524.3L1668.8,-168.8Z" shape-rendering="crispEdges"/><path fill="#A4C7CD" d="M1314.6,-524.3L960.8,-524.9L1315.2,-169.7Z" shape-rendering="crispEdges"/><path fill="#17337A" d="M1669.6,1604.1L1669.8,1249.5L1314.5,1249.5Z" shape-rendering="crispEdges"/><path fill="#163D7F" d="M1314.5,1249.5L1669.8,1249.5L1315,894.2Z" shape-rendering="crispEdges"/><path fill="#194384" d="M1670.3,894.9L2024.9,894.9L2024,539.9Z" shape-rendering="crispEdges"/><path fill="#A1C7C3" d="M-103.7,539.3L250.5,894.6L251.2,539.3Z" shape-rendering="crispEdges"/><path fill="#8EAAB3" d="M251.2,539.3L250.5,894.6L606,894.2Z" shape-rendering="crispEdges"/><path fill="#798297" d="M250.5,894.6L605.7,1250.2L606,894.2Z" shape-rendering="crispEdges"/><path fill="#102368" d="M2024.4,1249.4L2024.9,894.9L1670.3,894.9Z" shape-rendering="crispEdges"/><path fill="#687887" d="M2024,539.9L2378.6,185.4L2024,184.9Z" shape-rendering="crispEdges"/><path fill="#E2F4C6" d="M605.7,-170.4L250.9,-170.3L604.4,185.8Z" shape-rendering="crispEdges"/><path fill="#BBE3C0" d="M250.8,185L-103.7,539.3L251.2,539.3Z" shape-rendering="crispEdges"/><path fill="#E2F4C6" d="M604.3,-523.9L250.9,-170.3L605.7,-170.4Z" shape-rendering="crispEdges"/><path fill="#C2E6CA" d="M960.8,-524.9L604.3,-523.9L605.7,-170.4Z" shape-rendering="crispEdges"/><path fill="#898498" d="M2378.6,-169.8L2024.8,-170.5L2024,184.9Z" shape-rendering="crispEdges"/><path fill="#8A859A" d="M2024,184.9L2024.8,-170.5L1668.8,-168.8Z" shape-rendering="crispEdges"/><path fill="#948CAA" d="M2024.8,-170.5L1670.5,-525.2L1668.8,-168.8Z" shape-rendering="crispEdges"/><path fill="#A1B9C8" d="M1314.6,-524.3L1670.5,-525.2L960.8,-524.9Z" shape-rendering="crispEdges"/><path fill="#1B558A" d="M960.5,1250.3L1314.4,1603.8L1314.5,1249.5Z" shape-rendering="crispEdges"/><path fill="#255D8C" d="M960.2,1603.8L1314.4,1603.8L960.5,1250.3Z" shape-rendering="crispEdges"/><path fill="#3E6A8B" d="M605.7,1250.2L960.2,1603.8L960.5,1250.3Z" shape-rendering="crispEdges"/><path fill="#1D568B" d="M2024.9,894.9L2378.6,540.4L2024,539.9Z" shape-rendering="crispEdges"/><path fill="#496E8A" d="M2378.6,540.4L2378.6,185.4L2024,539.9Z" shape-rendering="crispEdges"/><path fill="#DBF0C6" d="M-103.9,185.3L-103.7,539.3L250.8,185Z" shape-rendering="crispEdges"/><path fill="#184282" d="M2024.9,894.9L2378.8,894.8L2378.6,540.4Z" shape-rendering="crispEdges"/><path fill="#102368" d="M1669.8,1249.5L2024.4,1249.4L1670.3,894.9Z" shape-rendering="crispEdges"/><path fill="#091E5A" d="M2024.4,1604.1L2024.4,1249.4L1669.8,1249.5Z" shape-rendering="crispEdges"/><path fill="#FAFDCE" d="M-104.7,-169L-103.9,185.3L250.8,185Z" shape-rendering="crispEdges"/><path fill="#797E86" d="M250.5,894.6L250.8,1250L605.7,1250.2Z" shape-rendering="crispEdges"/><path fill="#4C6F89" d="M605.7,1250.2L605.3,1604.8L960.2,1603.8Z" shape-rendering="crispEdges"/><path fill="#86838E" d="M-103.7,1249L250.8,1250L250.5,894.6Z" shape-rendering="crispEdges"/><path fill="#898498" d="M2378.6,-169.8L2024.7,-523.9L2024.8,-170.5Z" shape-rendering="crispEdges"/><path fill="#8A859A" d="M2024.8,-170.5L2024.7,-523.9L1670.5,-525.2Z" shape-rendering="crispEdges"/><path fill="#ADDACF" d="M1670.5,-525.2L250.5,-525L960.8,-524.9Z" shape-rendering="crispEdges"/><path fill="#D2EDC8" d="M960.8,-524.9L250.5,-525L604.3,-523.9Z" shape-rendering="crispEdges"/><path fill="#ECF8C6" d="M604.3,-523.9L250.5,-525L250.9,-170.3Z" shape-rendering="crispEdges"/><path fill="#FAFDCE" d="M250.9,-170.3L-104.7,-169L250.8,185Z" shape-rendering="crispEdges"/><path fill="#1B558A" d="M605.3,1604.8L1669.6,1604.1L1314.4,1603.8Z" shape-rendering="crispEdges"/><path fill="#163D7F" d="M1314.4,1603.8L1669.6,1604.1L1314.5,1249.5Z" shape-rendering="crispEdges"/><path fill="#0F2366" d="M2378.7,1248.9L2378.8,894.8L2024.9,894.9Z" shape-rendering="crispEdges"/><path fill="#86838F" d="M2378.6,540.4L2379.4,-524.9L2378.6,185.4Z" shape-rendering="crispEdges"/><path fill="#898498" d="M2379.4,-524.9L2378.6,-169.8L2378.6,185.4Z" shape-rendering="crispEdges"/><path fill="#86838F" d="M2378.6,185.4L2378.6,-169.8L2024,184.9Z" shape-rendering="crispEdges"/><path fill="#A5C9CE" d="M-460.1,540.7L-104.5,894.3L-103.7,539.3Z" shape-rendering="crispEdges"/><path fill="#A0B1C4" d="M-103.7,539.3L-104.5,894.3L250.5,894.6Z" shape-rendering="crispEdges"/><path fill="#6F7B87" d="M250.8,1250L605.3,1604.8L605.7,1250.2Z" shape-rendering="crispEdges"/><path fill="#2D658D" d="M960.2,1603.8L605.3,1604.8L1314.4,1603.8Z" shape-rendering="crispEdges"/><path fill="#FEFFD8" d="M-103.7,-524.4L-104.7,-169L250.9,-170.3Z" shape-rendering="crispEdges"/><path fill="#DBF1C7" d="M-103.9,185.3L-460,185.4L-103.7,539.3Z" shape-rendering="crispEdges"/><path fill="#081D58" d="M2024.4,1249.4L2378.7,1248.9L2024.9,894.9Z" shape-rendering="crispEdges"/><path fill="#081D58" d="M2024.4,1604.1L2378.7,1248.9L2024.4,1249.4Z" shape-rendering="crispEdges"/><path fill="#938BA7" d="M-104.5,894.3L-103.7,1249L250.5,894.6Z" shape-rendering="crispEdges"/><path fill="#797E86" d="M250.8,1250L250,1605.2L605.3,1604.8Z" shape-rendering="crispEdges"/><path fill="#081D58" d="M2378.9,1605.1L2024.4,1604.1L1669.6,1604.1Z" shape-rendering="crispEdges"/><path fill="#102368" d="M1669.6,1604.1L2024.4,1604.1L1669.8,1249.5Z" shape-rendering="crispEdges"/><path fill="#FAFDCE" d="M250.5,-525L-103.7,-524.4L250.9,-170.3Z" shape-rendering="crispEdges"/><path fill="#687887" d="M2378.8,894.8L2379.4,-524.9L2378.6,540.4Z" shape-rendering="crispEdges"/><path fill="#898498" d="M2378.6,-169.8L2379.4,-524.9L2024.7,-523.9Z" shape-rendering="crispEdges"/><path fill="#898498" d="M2024.7,-523.9L2379.4,-524.9L1670.5,-525.2Z" shape-rendering="crispEdges"/><path fill="#1D568B" d="M2378.9,1605.1L2379.4,-524.9L2378.8,894.8Z" shape-rendering="crispEdges"/><path fill="#86838E" d="M-104.7,1604.2L250,1605.2L250.8,1250Z" shape-rendering="crispEdges"/><path fill="#17337A" d="M605.3,1604.8L2378.9,1605.1L1669.6,1604.1Z" shape-rendering="crispEdges"/><path fill="#FFFFD9" d="M-459.4,-169.9L-460,185.4L-104.7,-169Z" shape-rendering="crispEdges"/><path fill="#FBFDCF" d="M-104.7,-169L-460,185.4L-103.9,185.3Z" shape-rendering="crispEdges"/><path fill="#938CA8" d="M-104.5,894.3L-459,894.7L-103.7,1249Z" shape-rendering="crispEdges"/><path fill="#BFE5CB" d="M-460,185.4L-460.1,540.7L-103.7,539.3Z" shape-rendering="crispEdges"/><path fill="#A0B1C5" d="M-460.1,540.7L-459,894.7L-104.5,894.3Z" shape-rendering="crispEdges"/><path fill="#898497" d="M-103.7,1249L-104.7,1604.2L250.8,1250Z" shape-rendering="crispEdges"/><path fill="#FFFFD9" d="M-458.6,-524.4L-459.4,-169.9L-104.7,-169Z" shape-rendering="crispEdges"/><path fill="#255D8C" d="M250,1605.2L2378.9,1605.1L605.3,1604.8Z" shape-rendering="crispEdges"/><path fill="#081D58" d="M2024.4,1604.1L2378.9,1605.1L2378.7,1248.9Z" shape-rendering="crispEdges"/><path fill="#081D58" d="M2378.7,1248.9L2378.9,1605.1L2378.8,894.8Z" shape-rendering="crispEdges"/><path fill="#898498" d="M-459.5,1248.9L-104.7,1604.2L-103.7,1249Z" shape-rendering="crispEdges"/><path fill="#FFFFD9" d="M250.5,-525L-458.6,-524.4L-103.7,-524.4Z" shape-rendering="crispEdges"/><path fill="#FFFFD9" d="M-103.7,-524.4L-458.6,-524.4L-104.7,-169Z" shape-rendering="crispEdges"/><path fill="#9E9CBC" d="M-460.1,540.7L-459.5,1248.9L-459,894.7Z" shape-rendering="crispEdges"/><path fill="#898498" d="M-459,894.7L-459.5,1248.9L-103.7,1249Z" shape-rendering="crispEdges"/><path fill="#898498" d="M-460.1,540.7L-459.9,1605L-459.5,1248.9Z" shape-rendering="crispEdges"/><path fill="#898498" d="M-459.5,1248.9L-459.9,1605L-104.7,1604.2Z" shape-rendering="crispEdges"/><path fill="#898498" d="M-104.7,1604.2L-459.9,1605L250,1605.2Z" shape-rendering="crispEdges"/></svg>