<svg xmlns="http://www.w3.org/2000/svg" width="1920" height="1080"><path fill="#41B3C3" d="M965.3,501.5L1019.6,567.7L1045.5,524.8Z" shape-rendering="crispEdges"/><path fill="#3EB2C4" d="M965.3,501.5L979.9,589.5L1019.6,567.7Z" shape-rendering="crispEdges"/><path fill="#3AACC3" d="M1085.2,601.6L1090.8,515.6L1045.5,524.8Z" shape-rendering="crispEdges"/><path fill="#4FB7C2" d="M1045.5,524.8L1020.6,427.8L965.3,501.5Z" shape-rendering="crispEdges"/><path fill="#4CB3C2" d="M1090.8,515.6L1020.6,427.8L1045.5,524.8Z" shape-rendering="crispEdges"/><path fill="#34A5C2" d="M1045,659.2L1085.2,601.6L1019.6,567.7Z" shape-rendering="crispEdges"/><path fill="#3AACC3" d="M1019.6,567.7L1085.2,601.6L1045.5,524.8Z" shape-rendering="crispEdges"/><path fill="#5BBCC1" d="M1020.6,427.8L954.4,404.3L965.3,501.5Z" shape-rendering="crispEdges"/><path fill="#5ABDC1" d="M893,447.5L875.6,486.6L965.3,501.5Z" shape-rendering="crispEdges"/><path fill="#44B6C3" d="M965.3,501.5L867.1,552.5L979.9,589.5Z" shape-rendering="crispEdges"/><path fill="#5DBFC1" d="M954.4,404.3L893,447.5L965.3,501.5Z" shape-rendering="crispEdges"/><path fill="#52BBC2" d="M875.6,486.6L867.1,552.5L965.3,501.5Z" shape-rendering="crispEdges"/><path fill="#35A6C2" d="M946.5,669.9L1045,659.2L979.9,589.5Z" shape-rendering="crispEdges"/><path fill="#37A9C3" d="M979.9,589.5L1045,659.2L1019.6,567.7Z" shape-rendering="crispEdges"/><path fill="#30A0C2" d="M1045,659.2L1100.5,633.4L1085.2,601.6Z" shape-rendering="crispEdges"/><path fill="#35A6C2" d="M1085.2,601.6L1159.9,589.9L1090.8,515.6Z" shape-rendering="crispEdges"/><path fill="#3CAAC2" d="M891.7,644.1L946.5,669.9L979.9,589.5Z" shape-rendering="crispEdges"/><path fill="#46ACC1" d="M1194.1,529.2L1124.6,436.8L1090.8,515.6Z" shape-rendering="crispEdges"/><path fill="#52B3C1" d="M1090.8,515.6L1124.6,436.8L1020.6,427.8Z" shape-rendering="crispEdges"/><path fill="#67C0BF" d="M1020.6,427.8L974.1,356.5L954.4,404.3Z" shape-rendering="crispEdges"/><path fill="#44B0C2" d="M867.1,552.5L891.7,644.1L979.9,589.5Z" shape-rendering="crispEdges"/><path fill="#30A0C2" d="M1100.5,633.4L1159.9,589.9L1085.2,601.6Z" shape-rendering="crispEdges"/><path fill="#6DC1BF" d="M1012.5,348.9L974.1,356.5L1020.6,427.8Z" shape-rendering="crispEdges"/><path fill="#70C6BE" d="M831.2,376.9L826.7,407.5L893,447.5Z" shape-rendering="crispEdges"/><path fill="#61BABF" d="M1124.6,436.8L1012.5,348.9L1020.6,427.8Z" shape-rendering="crispEdges"/><path fill="#2F9FC1" d="M946.5,669.9L1032.7,709.3L1045,659.2Z" shape-rendering="crispEdges"/><path fill="#2999C1" d="M1045,659.2L1118.1,733.4L1100.5,633.4Z" shape-rendering="crispEdges"/><path fill="#2A9BC1" d="M1100.5,633.4L1169.2,673.7L1159.9,589.9Z" shape-rendering="crispEdges"/><path fill="#56BCC2" d="M796.7,485.6L818.7,583.5L867.1,552.5Z" shape-rendering="crispEdges"/><path fill="#4DB3C2" d="M867.1,552.5L818.7,583.5L891.7,644.1Z" shape-rendering="crispEdges"/><path fill="#5BBEC1" d="M796.7,485.6L867.1,552.5L875.6,486.6Z" shape-rendering="crispEdges"/><path fill="#36A7C2" d="M1159.9,589.9L1194.1,529.2L1090.8,515.6Z" shape-rendering="crispEdges"/><path fill="#67C2BF" d="M826.7,407.5L875.6,486.6L893,447.5Z" shape-rendering="crispEdges"/><path fill="#68C3BF" d="M826.7,407.5L796.7,485.6L875.6,486.6Z" shape-rendering="crispEdges"/><path fill="#6DC4BF" d="M899,338.7L893,447.5L954.4,404.3Z" shape-rendering="crispEdges"/><path fill="#81CBBD" d="M910,297.5L899,338.7L974.1,356.5Z" shape-rendering="crispEdges"/><path fill="#74C6BE" d="M974.1,356.5L899,338.7L954.4,404.3Z" shape-rendering="crispEdges"/><path fill="#2595C0" d="M1118.1,733.4L1169.2,673.7L1100.5,633.4Z" shape-rendering="crispEdges"/><path fill="#2FA0C2" d="M1159.9,589.9L1236.2,584.2L1194.1,529.2Z" shape-rendering="crispEdges"/><path fill="#74C7BE" d="M899,338.7L831.2,376.9L893,447.5Z" shape-rendering="crispEdges"/><path fill="#6EC6BE" d="M747,409L757.2,502.1L796.7,485.6Z" shape-rendering="crispEdges"/><path fill="#4BABC0" d="M1194.1,529.2L1211.9,440.9L1124.6,436.8Z" shape-rendering="crispEdges"/><path fill="#6BBABE" d="M1124.6,436.8L1130.2,330L1012.5,348.9Z" shape-rendering="crispEdges"/><path fill="#44A5C0" d="M1246.2,505.9L1211.9,440.9L1194.1,529.2Z" shape-rendering="crispEdges"/><path fill="#3E9CBD" d="M859.9,746.1L941.1,747.2L946.5,669.9Z" shape-rendering="crispEdges"/><path fill="#349CBF" d="M946.5,669.9L941.1,747.2L1032.7,709.3Z" shape-rendering="crispEdges"/><path fill="#2C96BF" d="M1032.7,709.3L1118.1,733.4L1045,659.2Z" shape-rendering="crispEdges"/><path fill="#40A4C0" d="M859.9,746.1L946.5,669.9L891.7,644.1Z" shape-rendering="crispEdges"/><path fill="#66B5BE" d="M1179.6,371.6L1130.2,330L1124.6,436.8Z" shape-rendering="crispEdges"/><path fill="#85CCBD" d="M942.9,283.4L910,297.5L974.1,356.5Z" shape-rendering="crispEdges"/><path fill="#59B0BF" d="M1211.9,440.9L1179.6,371.6L1124.6,436.8Z" shape-rendering="crispEdges"/><path fill="#2D8CBB" d="M1088.6,794.5L1118.1,733.4L1032.7,709.3Z" shape-rendering="crispEdges"/><path fill="#7FC3BD" d="M1096.6,299L1060,293.3L1012.5,348.9Z" shape-rendering="crispEdges"/><path fill="#2B9AC1" d="M1238.4,626.8L1236.2,584.2L1159.9,589.9Z" shape-rendering="crispEdges"/><path fill="#72C7BD" d="M747,409L796.7,485.6L826.7,407.5Z" shape-rendering="crispEdges"/><path fill="#5FBFC0" d="M796.7,485.6L757.2,502.1L818.7,583.5Z" shape-rendering="crispEdges"/><path fill="#4EAFC1" d="M818.7,583.5L789.4,672.4L891.7,644.1Z" shape-rendering="crispEdges"/><path fill="#34A0C1" d="M1236.2,584.2L1246.2,505.9L1194.1,529.2Z" shape-rendering="crispEdges"/><path fill="#5AACBD" d="M1211.9,440.9L1269.6,415.5L1179.6,371.6Z" shape-rendering="crispEdges"/><path fill="#7DC8BE" d="M942.9,283.4L974.1,356.5L1012.5,348.9Z" shape-rendering="crispEdges"/><path fill="#87CEBC" d="M899,338.7L789.7,299.7L831.2,376.9Z" shape-rendering="crispEdges"/><path fill="#80BEBC" d="M1186.9,273.4L1096.6,299L1130.2,330Z" shape-rendering="crispEdges"/><path fill="#7BC0BD" d="M1130.2,330L1096.6,299L1012.5,348.9Z" shape-rendering="crispEdges"/><path fill="#83C8BD" d="M1060,293.3L942.9,283.4L1012.5,348.9Z" shape-rendering="crispEdges"/><path fill="#258EBD" d="M1118.1,733.4L1162.5,725.2L1169.2,673.7Z" shape-rendering="crispEdges"/><path fill="#2798C1" d="M1169.2,673.7L1238.4,626.8L1159.9,589.9Z" shape-rendering="crispEdges"/><path fill="#55B2C0" d="M745.6,634L789.4,672.4L818.7,583.5Z" shape-rendering="crispEdges"/><path fill="#1E8EBF" d="M1233.3,749.5L1238.4,626.8L1169.2,673.7Z" shape-rendering="crispEdges"/><path fill="#339ABF" d="M1236.2,584.2L1320,564.1L1246.2,505.9Z" shape-rendering="crispEdges"/><path fill="#49A6BF" d="M789.4,672.4L859.9,746.1L891.7,644.1Z" shape-rendering="crispEdges"/><path fill="#5AB6C0" d="M730.4,592.4L745.6,634L818.7,583.5Z" shape-rendering="crispEdges"/><path fill="#4FA3BC" d="M789.4,672.4L782.7,721.9L859.9,746.1Z" shape-rendering="crispEdges"/><path fill="#5DBCC0" d="M757.2,502.1L730.4,592.4L818.7,583.5Z" shape-rendering="crispEdges"/><path fill="#82CDBB" d="M760,337.9L747,409L831.2,376.9Z" shape-rendering="crispEdges"/><path fill="#79CABC" d="M831.2,376.9L747,409L826.7,407.5Z" shape-rendering="crispEdges"/><path fill="#66C0BF" d="M757.2,502.1L641.2,570.1L730.4,592.4Z" shape-rendering="crispEdges"/><path fill="#3088B8" d="M1045.6,827.3L1088.6,794.5L1032.7,709.3Z" shape-rendering="crispEdges"/><path fill="#2784B9" d="M1118.1,733.4L1174.5,823.2L1162.5,725.2Z" shape-rendering="crispEdges"/><path fill="#3590BA" d="M987.1,826.2L1032.7,709.3L941.1,747.2Z" shape-rendering="crispEdges"/><path fill="#4A9FBC" d="M1336,497.5L1269.6,415.5L1246.2,505.9Z" shape-rendering="crispEdges"/><path fill="#4FA6BD" d="M1246.2,505.9L1269.6,415.5L1211.9,440.9Z" shape-rendering="crispEdges"/><path fill="#78B9BD" d="M1179.6,371.6L1186.9,273.4L1130.2,330Z" shape-rendering="crispEdges"/><path fill="#53ACBF" d="M745.6,634L782.7,721.9L789.4,672.4Z" shape-rendering="crispEdges"/><path fill="#4394B9" d="M873,807.2L941.1,747.2L859.9,746.1Z" shape-rendering="crispEdges"/><path fill="#3C8DB7" d="M873,807.2L987.1,826.2L941.1,747.2Z" shape-rendering="crispEdges"/><path fill="#3389B8" d="M987.1,826.2L1045.6,827.3L1032.7,709.3Z" shape-rendering="crispEdges"/><path fill="#8CCFBC" d="M789.7,299.7L899,338.7L910,297.5Z" shape-rendering="crispEdges"/><path fill="#8CD0BB" d="M789.7,299.7L760,337.9L831.2,376.9Z" shape-rendering="crispEdges"/><path fill="#4A92B6" d="M806,820.4L873,807.2L859.9,746.1Z" shape-rendering="crispEdges"/><path fill="#98D4BB" d="M900.9,209.5L789.7,299.7L910,297.5Z" shape-rendering="crispEdges"/><path fill="#64ADBC" d="M1269.6,415.5L1262.2,353.4L1179.6,371.6Z" shape-rendering="crispEdges"/><path fill="#7AB7BC" d="M1246.8,289.9L1186.9,273.4L1179.6,371.6Z" shape-rendering="crispEdges"/><path fill="#8BC5BC" d="M1096.6,299L1099.5,216.5L1060,293.3Z" shape-rendering="crispEdges"/><path fill="#91CCBC" d="M1060,293.3L1036.1,181L942.9,283.4Z" shape-rendering="crispEdges"/><path fill="#2B92BE" d="M1329,630.3L1236.2,584.2L1238.4,626.8Z" shape-rendering="crispEdges"/><path fill="#2E92BD" d="M1329,630.3L1320,564.1L1236.2,584.2Z" shape-rendering="crispEdges"/><path fill="#5DA5BA" d="M1269.6,415.5L1339.6,432.8L1262.2,353.4Z" shape-rendering="crispEdges"/><path fill="#2380B8" d="M1174.5,823.2L1233.3,749.5L1162.5,725.2Z" shape-rendering="crispEdges"/><path fill="#218ABC" d="M1162.5,725.2L1233.3,749.5L1169.2,673.7Z" shape-rendering="crispEdges"/><path fill="#2A82B7" d="M1174.5,823.2L1118.1,733.4L1088.6,794.5Z" shape-rendering="crispEdges"/><path fill="#8BC2BC" d="M1186.9,273.4L1099.5,216.5L1096.6,299Z" shape-rendering="crispEdges"/><path fill="#95D2BC" d="M942.9,283.4L900.9,209.5L910,297.5Z" shape-rendering="crispEdges"/><path fill="#9AD3BC" d="M962.6,178L900.9,209.5L942.9,283.4Z" shape-rendering="crispEdges"/><path fill="#3C9ABD" d="M1320,564.1L1336,497.5L1246.2,505.9Z" shape-rendering="crispEdges"/><path fill="#72B2BB" d="M1262.2,353.4L1246.8,289.9L1179.6,371.6Z" shape-rendering="crispEdges"/><path fill="#8EC1BB" d="M1186.9,273.4L1177.4,218.6L1099.5,216.5Z" shape-rendering="crispEdges"/><path fill="#7BB0B9" d="M1315.1,275.4L1246.8,289.9L1262.2,353.4Z" shape-rendering="crispEdges"/><path fill="#2D7AB3" d="M1092.1,882.6L1174.5,823.2L1088.6,794.5Z" shape-rendering="crispEdges"/><path fill="#2388BB" d="M1325.4,726L1329,630.3L1238.4,626.8Z" shape-rendering="crispEdges"/><path fill="#3C93BA" d="M1320,564.1L1412.1,512.8L1336,497.5Z" shape-rendering="crispEdges"/><path fill="#2185BA" d="M1325.4,726L1238.4,626.8L1233.3,749.5Z" shape-rendering="crispEdges"/><path fill="#3C86B4" d="M873,807.2L979.8,870.3L987.1,826.2Z" shape-rendering="crispEdges"/><path fill="#3781B4" d="M987.1,826.2L979.8,870.3L1045.6,827.3Z" shape-rendering="crispEdges"/><path fill="#317CB3" d="M1045.6,827.3L1092.1,882.6L1088.6,794.5Z" shape-rendering="crispEdges"/><path fill="#9BCCBB" d="M1053.1,135.8L1036.1,181L1099.5,216.5Z" shape-rendering="crispEdges"/><path fill="#92C9BC" d="M1099.5,216.5L1036.1,181L1060,293.3Z" shape-rendering="crispEdges"/><path fill="#A3D9B9" d="M792.3,182.2L755.6,279.8L789.7,299.7Z" shape-rendering="crispEdges"/><path fill="#97D5BA" d="M789.7,299.7L755.6,279.8L760,337.9Z" shape-rendering="crispEdges"/><path fill="#80CDBB" d="M659.8,401.2L653.6,478.7L747,409Z" shape-rendering="crispEdges"/><path fill="#74C8BD" d="M747,409L653.6,478.7L757.2,502.1Z" shape-rendering="crispEdges"/><path fill="#86CFBB" d="M659.8,401.2L747,409L760,337.9Z" shape-rendering="crispEdges"/><path fill="#57A8BC" d="M712.9,751.9L782.7,721.9L745.6,634Z" shape-rendering="crispEdges"/><path fill="#5398B7" d="M750.5,776.9L806,820.4L782.7,721.9Z" shape-rendering="crispEdges"/><path fill="#69A0B6" d="M1349.2,327.9L1339.6,432.8L1392.9,331.3Z" shape-rendering="crispEdges"/><path fill="#519EBA" d="M1336,497.5L1339.6,432.8L1269.6,415.5Z" shape-rendering="crispEdges"/><path fill="#98D1BC" d="M1036.1,181L962.6,178L942.9,283.4Z" shape-rendering="crispEdges"/><path fill="#A2D8BA" d="M900.9,209.5L792.3,182.2L789.7,299.7Z" shape-rendering="crispEdges"/><path fill="#4E99B8" d="M782.7,721.9L806,820.4L859.9,746.1Z" shape-rendering="crispEdges"/><path fill="#4385B3" d="M873,807.2L867,866.4L979.8,870.3Z" shape-rendering="crispEdges"/><path fill="#579EB8" d="M750.5,776.9L782.7,721.9L712.9,751.9Z" shape-rendering="crispEdges"/><path fill="#5FB5BF" d="M668.1,654.4L745.6,634L730.4,592.4Z" shape-rendering="crispEdges"/><path fill="#8EBEBB" d="M1233.1,185.3L1177.4,218.6L1186.9,273.4Z" shape-rendering="crispEdges"/><path fill="#68BABE" d="M641.2,570.1L668.1,654.4L730.4,592.4Z" shape-rendering="crispEdges"/><path fill="#70C5BE" d="M653.6,478.7L641.2,570.1L757.2,502.1Z" shape-rendering="crispEdges"/><path fill="#91D3BA" d="M651.7,338L659.8,401.2L760,337.9Z" shape-rendering="crispEdges"/><path fill="#77C7BE" d="M653.6,478.7L583.5,565.1L641.2,570.1Z" shape-rendering="crispEdges"/><path fill="#4B8AB3" d="M806,820.4L867,866.4L873,807.2Z" shape-rendering="crispEdges"/><path fill="#5DAEBD" d="M668.1,654.4L712.9,751.9L745.6,634Z" shape-rendering="crispEdges"/><path fill="#558AB0" d="M735.9,862.8L801.7,878.4L806,820.4Z" shape-rendering="crispEdges"/><path fill="#4F88B1" d="M806,820.4L801.7,878.4L867,866.4Z" shape-rendering="crispEdges"/><path fill="#387DB2" d="M1007.5,897.4L1045.6,827.3L979.8,870.3Z" shape-rendering="crispEdges"/><path fill="#3579B1" d="M1007.5,897.4L1092.1,882.6L1045.6,827.3Z" shape-rendering="crispEdges"/><path fill="#3C78AF" d="M949.2,957.6L1007.5,897.4L979.8,870.3Z" shape-rendering="crispEdges"/><path fill="#9FD2BC" d="M1036.1,181L978.2,148.9L962.6,178Z" shape-rendering="crispEdges"/><path fill="#A2D6BB" d="M962.6,178L909.9,139.7L900.9,209.5Z" shape-rendering="crispEdges"/><path fill="#A0D0BB" d="M1053.1,135.8L978.2,148.9L1036.1,181Z" shape-rendering="crispEdges"/><path fill="#2377B4" d="M1264.3,813.2L1233.3,749.5L1174.5,823.2Z" shape-rendering="crispEdges"/><path fill="#2378B5" d="M1264.3,813.2L1325.4,726L1233.3,749.5Z" shape-rendering="crispEdges"/><path fill="#4996B8" d="M1412.1,512.8L1339.6,432.8L1336,497.5Z" shape-rendering="crispEdges"/><path fill="#2C74B1" d="M1092.1,882.6L1181.5,862.3L1174.5,823.2Z" shape-rendering="crispEdges"/><path fill="#2573B2" d="M1181.5,862.3L1264.3,813.2L1174.5,823.2Z" shape-rendering="crispEdges"/><path fill="#9ECBBB" d="M1090.2,121.8L1053.1,135.8L1099.5,216.5Z" shape-rendering="crispEdges"/><path fill="#A3DAB8" d="M678.2,254L651.7,338L755.6,279.8Z" shape-rendering="crispEdges"/><path fill="#98D6B9" d="M755.6,279.8L651.7,338L760,337.9Z" shape-rendering="crispEdges"/><path fill="#7FCABE" d="M556.9,527.7L583.5,565.1L653.6,478.7Z" shape-rendering="crispEdges"/><path fill="#A8D8BF" d="M965.8,45.1L909.9,139.7L978.2,148.9Z" shape-rendering="crispEdges"/><path fill="#A3D6BC" d="M978.2,148.9L909.9,139.7L962.6,178Z" shape-rendering="crispEdges"/><path fill="#2F8AB9" d="M1429.8,600.6L1320,564.1L1329,630.3Z" shape-rendering="crispEdges"/><path fill="#67A4B8" d="M1339.6,432.8L1349.2,327.9L1262.2,353.4Z" shape-rendering="crispEdges"/><path fill="#8ABABA" d="M1246.8,289.9L1233.1,185.3L1186.9,273.4Z" shape-rendering="crispEdges"/><path fill="#98C6BB" d="M1177.4,218.6L1090.2,121.8L1099.5,216.5Z" shape-rendering="crispEdges"/><path fill="#77AAB7" d="M1349.2,327.9L1315.1,275.4L1262.2,353.4Z" shape-rendering="crispEdges"/><path fill="#A7D9BA" d="M909.9,139.7L792.3,182.2L900.9,209.5Z" shape-rendering="crispEdges"/><path fill="#5690B2" d="M735.9,862.8L806,820.4L750.5,776.9Z" shape-rendering="crispEdges"/><path fill="#417CB0" d="M867,866.4L949.2,957.6L979.8,870.3Z" shape-rendering="crispEdges"/><path fill="#2378B5" d="M1420.9,734.6L1389.7,648.4L1325.4,726Z" shape-rendering="crispEdges"/><path fill="#2382B9" d="M1325.4,726L1389.7,648.4L1329,630.3Z" shape-rendering="crispEdges"/><path fill="#358CB9" d="M1429.8,600.6L1412.1,512.8L1320,564.1Z" shape-rendering="crispEdges"/><path fill="#3572AF" d="M1007.5,897.4L1107.5,926.2L1092.1,882.6Z" shape-rendering="crispEdges"/><path fill="#3070AF" d="M1092.1,882.6L1107.5,926.2L1181.5,862.3Z" shape-rendering="crispEdges"/><path fill="#2668AD" d="M1272.9,903.7L1316.2,826.8L1264.3,813.2Z" shape-rendering="crispEdges"/><path fill="#386FAD" d="M1025,976.2L1107.5,926.2L1007.5,897.4Z" shape-rendering="crispEdges"/><path fill="#89B5B8" d="M1315.1,275.4L1233.1,185.3L1246.8,289.9Z" shape-rendering="crispEdges"/><path fill="#A9DBB8" d="M792.3,182.2L731.1,213.5L755.6,279.8Z" shape-rendering="crispEdges"/><path fill="#9BC5BB" d="M1196.2,129.3L1090.2,121.8L1177.4,218.6Z" shape-rendering="crispEdges"/><path fill="#A4D1BE" d="M1053.1,135.8L1057.2,72.3L978.2,148.9Z" shape-rendering="crispEdges"/><path fill="#86CDBD" d="M556.9,527.7L653.6,478.7L530.7,497.5Z" shape-rendering="crispEdges"/><path fill="#71BABD" d="M641.2,570.1L559.6,669.6L668.1,654.4Z" shape-rendering="crispEdges"/><path fill="#64A8BA" d="M668.1,654.4L638.3,755L712.9,751.9Z" shape-rendering="crispEdges"/><path fill="#A8DCB8" d="M731.1,213.5L678.2,254L755.6,279.8Z" shape-rendering="crispEdges"/><path fill="#5D94B2" d="M646.4,799.3L735.9,862.8L750.5,776.9Z" shape-rendering="crispEdges"/><path fill="#5E9BB5" d="M646.4,799.3L750.5,776.9L712.9,751.9Z" shape-rendering="crispEdges"/><path fill="#6CADBB" d="M590.1,704.9L638.3,755L668.1,654.4Z" shape-rendering="crispEdges"/><path fill="#4F81AE" d="M831.4,930.1L867,866.4L801.7,878.4Z" shape-rendering="crispEdges"/><path fill="#4778AC" d="M885,980.5L949.2,957.6L867,866.4Z" shape-rendering="crispEdges"/><path fill="#276BAE" d="M1272.9,903.7L1264.3,813.2L1181.5,862.3Z" shape-rendering="crispEdges"/><path fill="#2370B1" d="M1264.3,813.2L1316.2,826.8L1325.4,726Z" shape-rendering="crispEdges"/><path fill="#5095B6" d="M1412.1,512.8L1419.4,408.7L1339.6,432.8Z" shape-rendering="crispEdges"/><path fill="#83A9B4" d="M1349.2,327.9L1400.5,226.1L1315.1,275.4Z" shape-rendering="crispEdges"/><path fill="#2B7EB5" d="M1477.1,632.1L1429.8,600.6L1389.7,648.4Z" shape-rendering="crispEdges"/><path fill="#2B84B8" d="M1389.7,648.4L1429.8,600.6L1329,630.3Z" shape-rendering="crispEdges"/><path fill="#4B8FB5" d="M1412.1,512.8L1459.7,497.3L1419.4,408.7Z" shape-rendering="crispEdges"/><path fill="#5580AC" d="M733.3,937.6L831.4,930.1L801.7,878.4Z" shape-rendering="crispEdges"/><path fill="#609BB5" d="M1419.4,408.7L1392.9,331.3L1339.6,432.8Z" shape-rendering="crispEdges"/><path fill="#96B8B7" d="M1347.3,181.8L1252.2,147.6L1233.1,185.3Z" shape-rendering="crispEdges"/><path fill="#3065A7" d="M1117.6,1019.1L1179.5,932.2L1107.5,926.2Z" shape-rendering="crispEdges"/><path fill="#2E6BAD" d="M1107.5,926.2L1179.5,932.2L1181.5,862.3Z" shape-rendering="crispEdges"/><path fill="#99BFB9" d="M1252.2,147.6L1196.2,129.3L1233.1,185.3Z" shape-rendering="crispEdges"/><path fill="#96C0BB" d="M1233.1,185.3L1196.2,129.3L1177.4,218.6Z" shape-rendering="crispEdges"/><path fill="#8BD0BB" d="M557.3,408.5L653.6,478.7L659.8,401.2Z" shape-rendering="crispEdges"/><path fill="#71B4BD" d="M559.6,669.6L590.1,704.9L668.1,654.4Z" shape-rendering="crispEdges"/><path fill="#9AD7B9" d="M557.3,408.5L659.8,401.2L575,331.4Z" shape-rendering="crispEdges"/><path fill="#6E9FB4" d="M567.8,784.8L646.4,799.3L638.3,755Z" shape-rendering="crispEdges"/><path fill="#669FB5" d="M638.3,755L646.4,799.3L712.9,751.9Z" shape-rendering="crispEdges"/><path fill="#78C0BD" d="M559.6,669.6L641.2,570.1L583.5,565.1Z" shape-rendering="crispEdges"/><path fill="#386DA2" d="M968.9,1030.9L1025,976.2L949.2,957.6Z" shape-rendering="crispEdges"/><path fill="#3C71AC" d="M949.2,957.6L1025,976.2L1007.5,897.4Z" shape-rendering="crispEdges"/><path fill="#8FB3B6" d="M1347.3,181.8L1233.1,185.3L1315.1,275.4Z" shape-rendering="crispEdges"/><path fill="#A4CEC2" d="M1105.2,68.2L1057.2,72.3L1090.2,121.8Z" shape-rendering="crispEdges"/><path fill="#A3CEBF" d="M1090.2,121.8L1057.2,72.3L1053.1,135.8Z" shape-rendering="crispEdges"/><path fill="#AFDCB9" d="M909.9,139.7L816.2,102.2L792.3,182.2Z" shape-rendering="crispEdges"/><path fill="#A1C9BF" d="M1105.2,68.2L1090.2,121.8L1196.2,129.3Z" shape-rendering="crispEdges"/><path fill="#398AB7" d="M1429.8,600.6L1459.7,497.3L1412.1,512.8Z" shape-rendering="crispEdges"/><path fill="#84A4B2" d="M1426.7,251.8L1400.5,226.1L1392.9,331.3Z" shape-rendering="crispEdges"/><path fill="#9CD7B9" d="M575,331.4L659.8,401.2L651.7,338Z" shape-rendering="crispEdges"/><path fill="#B0DCC0" d="M864.6,35.3L816.2,102.2L909.9,139.7Z" shape-rendering="crispEdges"/><path fill="#B2DFB7" d="M792.3,182.2L719.6,121.3L731.1,213.5Z" shape-rendering="crispEdges"/><path fill="#B0DFB7" d="M731.1,213.5L667.3,202.5L678.2,254Z" shape-rendering="crispEdges"/><path fill="#7EC1BD" d="M528.8,597.8L559.6,669.6L583.5,565.1Z" shape-rendering="crispEdges"/><path fill="#6C92AF" d="M596.2,879.6L643.4,863L646.4,799.3Z" shape-rendering="crispEdges"/><path fill="#2966AC" d="M1254.5,929.2L1272.9,903.7L1181.5,862.3Z" shape-rendering="crispEdges"/><path fill="#B5E1B7" d="M719.6,121.3L667.3,202.5L731.1,213.5Z" shape-rendering="crispEdges"/><path fill="#AADDB7" d="M596,273.7L575,331.4L651.7,338Z" shape-rendering="crispEdges"/><path fill="#46719D" d="M892.7,1021L885,980.5L791.8,1016Z" shape-rendering="crispEdges"/><path fill="#4C7BAC" d="M831.4,930.1L885,980.5L867,866.4Z" shape-rendering="crispEdges"/><path fill="#5885AD" d="M733.3,937.6L801.7,878.4L735.9,862.8Z" shape-rendering="crispEdges"/><path fill="#236CAF" d="M1406.1,800.4L1325.4,726L1316.2,826.8Z" shape-rendering="crispEdges"/><path fill="#236EB0" d="M1406.1,800.4L1420.9,734.6L1325.4,726Z" shape-rendering="crispEdges"/><path fill="#3684B5" d="M1429.8,600.6L1493.9,584.6L1459.7,497.3Z" shape-rendering="crispEdges"/><path fill="#ACDEB7" d="M596,273.7L651.7,338L678.2,254Z" shape-rendering="crispEdges"/><path fill="#A1C7C2" d="M1181.7,55.8L1105.2,68.2L1196.2,129.3Z" shape-rendering="crispEdges"/><path fill="#98D5BA" d="M492.8,428.9L530.7,497.5L557.3,408.5Z" shape-rendering="crispEdges"/><path fill="#8DD0BB" d="M557.3,408.5L530.7,497.5L653.6,478.7Z" shape-rendering="crispEdges"/><path fill="#81C7BD" d="M556.9,527.7L528.8,597.8L583.5,565.1Z" shape-rendering="crispEdges"/><path fill="#2960A5" d="M1179.3,1032.3L1254.5,929.2L1179.5,932.2Z" shape-rendering="crispEdges"/><path fill="#2A67AD" d="M1179.5,932.2L1254.5,929.2L1181.5,862.3Z" shape-rendering="crispEdges"/><path fill="#2461A9" d="M1422.5,862.5L1406.1,800.4L1316.2,826.8Z" shape-rendering="crispEdges"/><path fill="#89CABD" d="M450.3,555.3L528.8,597.8L556.9,527.7Z" shape-rendering="crispEdges"/><path fill="#B4E1B6" d="M667.3,202.5L596,273.7L678.2,254Z" shape-rendering="crispEdges"/><path fill="#ACD7CF" d="M964,-31.6L965.8,45.1L1057.2,-30.4Z" shape-rendering="crispEdges"/><path fill="#A7D4C2" d="M1057.2,72.3L965.8,45.1L978.2,148.9Z" shape-rendering="crispEdges"/><path fill="#2479B5" d="M1420.9,734.6L1477.1,632.1L1389.7,648.4Z" shape-rendering="crispEdges"/><path fill="#2761AA" d="M1345.3,895.7L1316.2,826.8L1272.9,903.7Z" shape-rendering="crispEdges"/><path fill="#2470B1" d="M1420.9,734.6L1482.2,746.6L1477.1,632.1Z" shape-rendering="crispEdges"/><path fill="#8CACB4" d="M1400.5,226.1L1347.3,181.8L1315.1,275.4Z" shape-rendering="crispEdges"/><path fill="#9FC3C2" d="M1253.6,48.7L1181.7,55.8L1196.2,129.3Z" shape-rendering="crispEdges"/><path fill="#7EA5B3" d="M1400.5,226.1L1349.2,327.9L1392.9,331.3Z" shape-rendering="crispEdges"/><path fill="#6491B0" d="M643.4,863L735.9,862.8L646.4,799.3Z" shape-rendering="crispEdges"/><path fill="#6088AD" d="M643.4,863L733.3,937.6L735.9,862.8Z" shape-rendering="crispEdges"/><path fill="#72A6B7" d="M567.8,784.8L638.3,755L590.1,704.9Z" shape-rendering="crispEdges"/><path fill="#B9E1BD" d="M747.2,60.1L719.6,121.3L816.2,102.2Z" shape-rendering="crispEdges"/><path fill="#B5E0B8" d="M816.2,102.2L719.6,121.3L792.3,182.2Z" shape-rendering="crispEdges"/><path fill="#BBE4B6" d="M667.3,202.5L595,186.7L596,273.7Z" shape-rendering="crispEdges"/><path fill="#307EB4" d="M1477.1,632.1L1493.9,584.6L1429.8,600.6Z" shape-rendering="crispEdges"/><path fill="#6698B2" d="M1480.3,376.9L1392.9,331.3L1419.4,408.7Z" shape-rendering="crispEdges"/><path fill="#5A90B1" d="M1480.3,376.9L1419.4,408.7L1509.7,451.7Z" shape-rendering="crispEdges"/><path fill="#B3E1B6" d="M501.7,256.8L522.8,376.6L575,331.4Z" shape-rendering="crispEdges"/><path fill="#A3DAB8" d="M575,331.4L522.8,376.6L557.3,408.5Z" shape-rendering="crispEdges"/><path fill="#8AC6BC" d="M450.3,555.3L495.9,635.9L528.8,597.8Z" shape-rendering="crispEdges"/><path fill="#518EB3" d="M1509.7,451.7L1419.4,408.7L1459.7,497.3Z" shape-rendering="crispEdges"/><path fill="#295BA6" d="M1328.5,947.3L1345.3,895.7L1272.9,903.7Z" shape-rendering="crispEdges"/><path fill="#7AA9B6" d="M485.7,752.7L567.8,784.8L590.1,704.9Z" shape-rendering="crispEdges"/><path fill="#7BB1B9" d="M485.7,752.7L590.1,704.9L559.6,669.6Z" shape-rendering="crispEdges"/><path fill="#4171A2" d="M892.7,1021L949.2,957.6L885,980.5Z" shape-rendering="crispEdges"/><path fill="#3B6E9E" d="M892.7,1021L968.9,1030.9L949.2,957.6Z" shape-rendering="crispEdges"/><path fill="#3268A4" d="M1025,976.2L1117.6,1019.1L1107.5,926.2Z" shape-rendering="crispEdges"/><path fill="#9EC0BD" d="M1253.6,48.7L1196.2,129.3L1252.2,147.6Z" shape-rendering="crispEdges"/><path fill="#A9D4CA" d="M1057.2,-30.4L965.8,45.1L1057.2,72.3Z" shape-rendering="crispEdges"/><path fill="#2F659B" d="M1047.6,1045.3L1117.6,1019.1L1025,976.2Z" shape-rendering="crispEdges"/><path fill="#2A5CA7" d="M1254.5,929.2L1328.5,947.3L1272.9,903.7Z" shape-rendering="crispEdges"/><path fill="#4C76A3" d="M791.8,1016L885,980.5L831.4,930.1Z" shape-rendering="crispEdges"/><path fill="#80A0B1" d="M1474.3,268.5L1426.7,251.8L1392.9,331.3Z" shape-rendering="crispEdges"/><path fill="#AFDBCC" d="M964,-31.6L864.6,35.3L965.8,45.1Z" shape-rendering="crispEdges"/><path fill="#ADDBC3" d="M965.8,45.1L864.6,35.3L909.9,139.7Z" shape-rendering="crispEdges"/><path fill="#4B88B2" d="M1538.6,485.3L1509.7,451.7L1459.7,497.3Z" shape-rendering="crispEdges"/><path fill="#8DCEBD" d="M450.3,555.3L556.9,527.7L530.7,497.5Z" shape-rendering="crispEdges"/><path fill="#82BFBC" d="M528.8,597.8L495.9,635.9L559.6,669.6Z" shape-rendering="crispEdges"/><path fill="#9FD8B8" d="M522.8,376.6L492.8,428.9L557.3,408.5Z" shape-rendering="crispEdges"/><path fill="#32689B" d="M968.9,1030.9L1047.6,1045.3L1025,976.2Z" shape-rendering="crispEdges"/><path fill="#2E6591" d="M964.4,1099L1047.6,1045.3L968.9,1030.9Z" shape-rendering="crispEdges"/><path fill="#9AB1B3" d="M1389.4,115.9L1315.5,109.8L1347.3,181.8Z" shape-rendering="crispEdges"/><path fill="#99B6B6" d="M1347.3,181.8L1315.5,109.8L1252.2,147.6Z" shape-rendering="crispEdges"/><path fill="#94ACB2" d="M1389.4,115.9L1347.3,181.8L1400.5,226.1Z" shape-rendering="crispEdges"/><path fill="#C1E6BA" d="M654.7,64.8L659.6,131.9L719.6,121.3Z" shape-rendering="crispEdges"/><path fill="#BCE4B6" d="M719.6,121.3L659.6,131.9L667.3,202.5Z" shape-rendering="crispEdges"/><path fill="#B8E3B6" d="M596,273.7L501.7,256.8L575,331.4Z" shape-rendering="crispEdges"/><path fill="#ABDDB7" d="M411.8,346.1L413.6,416.1L492.8,428.9Z" shape-rendering="crispEdges"/><path fill="#2360A9" d="M1483.6,819.3L1482.2,746.6L1406.1,800.4Z" shape-rendering="crispEdges"/><path fill="#2368AD" d="M1406.1,800.4L1482.2,746.6L1420.9,734.6Z" shape-rendering="crispEdges"/><path fill="#3079B2" d="M1477.1,632.1L1542.1,638.8L1493.9,584.6Z" shape-rendering="crispEdges"/><path fill="#3F85B3" d="M1493.9,584.6L1538.6,485.3L1459.7,497.3Z" shape-rendering="crispEdges"/><path fill="#BFE5B6" d="M659.6,131.9L595,186.7L667.3,202.5Z" shape-rendering="crispEdges"/><path fill="#5479A6" d="M733.3,937.6L791.8,1016L831.4,930.1Z" shape-rendering="crispEdges"/><path fill="#346993" d="M892.7,1021L964.4,1099L968.9,1030.9Z" shape-rendering="crispEdges"/><path fill="#53769C" d="M727,1051.2L791.8,1016L733.3,937.6Z" shape-rendering="crispEdges"/><path fill="#B9E1C2" d="M789.1,30.8L747.2,60.1L816.2,102.2Z" shape-rendering="crispEdges"/><path fill="#27569F" d="M1279.8,1046.8L1328.5,947.3L1254.5,929.2Z" shape-rendering="crispEdges"/><path fill="#265EA8" d="M1345.3,895.7L1422.5,862.5L1316.2,826.8Z" shape-rendering="crispEdges"/><path fill="#29609F" d="M1179.3,1032.3L1179.5,932.2L1117.6,1019.1Z" shape-rendering="crispEdges"/><path fill="#245C92" d="M1111,1103.5L1179.3,1032.3L1117.6,1019.1Z" shape-rendering="crispEdges"/><path fill="#7098B1" d="M567.8,784.8L596.2,879.6L646.4,799.3Z" shape-rendering="crispEdges"/><path fill="#6684AA" d="M643.4,863L634.4,970.9L733.3,937.6Z" shape-rendering="crispEdges"/><path fill="#7799B0" d="M513.6,814.7L596.2,879.6L567.8,784.8Z" shape-rendering="crispEdges"/><path fill="#2655A4" d="M1417.4,932.2L1422.5,862.5L1345.3,895.7Z" shape-rendering="crispEdges"/><path fill="#3B80B2" d="M1574.4,554.2L1538.6,485.3L1493.9,584.6Z" shape-rendering="crispEdges"/><path fill="#5D8DAF" d="M1509.7,451.7L1554.5,378.4L1480.3,376.9Z" shape-rendering="crispEdges"/><path fill="#749AB1" d="M1480.3,376.9L1474.3,268.5L1392.9,331.3Z" shape-rendering="crispEdges"/><path fill="#7094AF" d="M1554.5,378.4L1474.3,268.5L1480.3,376.9Z" shape-rendering="crispEdges"/><path fill="#8BA2B0" d="M1426.7,251.8L1512.4,182.6L1400.5,226.1Z" shape-rendering="crispEdges"/><path fill="#B6DFC4" d="M864.6,35.3L789.1,30.8L816.2,102.2Z" shape-rendering="crispEdges"/><path fill="#9DBBBC" d="M1315.5,109.8L1253.6,48.7L1252.2,147.6Z" shape-rendering="crispEdges"/><path fill="#A7D0C9" d="M1057.2,-30.4L1057.2,72.3L1105.2,68.2Z" shape-rendering="crispEdges"/><path fill="#B9E1CA" d="M864.6,35.3L794.9,-32L789.1,30.8Z" shape-rendering="crispEdges"/><path fill="#A1D8B9" d="M413.6,416.1L451,503.5L492.8,428.9Z" shape-rendering="crispEdges"/><path fill="#98D4BB" d="M492.8,428.9L451,503.5L530.7,497.5Z" shape-rendering="crispEdges"/><path fill="#93D1BC" d="M451,503.5L450.3,555.3L530.7,497.5Z" shape-rendering="crispEdges"/><path fill="#83B3B8" d="M453.6,715.7L485.7,752.7L559.6,669.6Z" shape-rendering="crispEdges"/><path fill="#266EAF" d="M1537,718.1L1477.1,632.1L1482.2,746.6Z" shape-rendering="crispEdges"/><path fill="#2972B1" d="M1537,718.1L1542.1,638.8L1477.1,632.1Z" shape-rendering="crispEdges"/><path fill="#8CC6BC" d="M450.3,555.3L452.1,636L495.9,635.9Z" shape-rendering="crispEdges"/><path fill="#A8D0CE" d="M1057.2,-30.4L1105.2,68.2L1096.8,-36.7Z" shape-rendering="crispEdges"/><path fill="#A5CCCA" d="M1096.8,-36.7L1105.2,68.2L1181.7,55.8Z" shape-rendering="crispEdges"/><path fill="#83BBBC" d="M453.6,715.7L559.6,669.6L495.9,635.9Z" shape-rendering="crispEdges"/><path fill="#2456A4" d="M1472.8,875L1483.6,819.3L1422.5,862.5Z" shape-rendering="crispEdges"/><path fill="#235CA7" d="M1422.5,862.5L1483.6,819.3L1406.1,800.4Z" shape-rendering="crispEdges"/><path fill="#95A7B0" d="M1498.9,128.3L1389.4,115.9L1400.5,226.1Z" shape-rendering="crispEdges"/><path fill="#9EB9BF" d="M1315.5,109.8L1328.9,58.4L1253.6,48.7Z" shape-rendering="crispEdges"/><path fill="#7EA3B3" d="M485.7,752.7L513.6,814.7L567.8,784.8Z" shape-rendering="crispEdges"/><path fill="#C9E9B4" d="M490.3,188.9L501.7,256.8L595,186.7Z" shape-rendering="crispEdges"/><path fill="#C0E6B5" d="M595,186.7L501.7,256.8L596,273.7Z" shape-rendering="crispEdges"/><path fill="#C6E8B5" d="M567.1,155.5L595,186.7L659.6,131.9Z" shape-rendering="crispEdges"/><path fill="#2660A9" d="M1578.5,806.6L1537,718.1L1482.2,746.6Z" shape-rendering="crispEdges"/><path fill="#C8E8B8" d="M654.7,64.8L567.1,155.5L659.6,131.9Z" shape-rendering="crispEdges"/><path fill="#BFE5BE" d="M654.7,64.8L719.6,121.3L747.2,60.1Z" shape-rendering="crispEdges"/><path fill="#A5CACE" d="M1196.2,-45.8L1096.8,-36.7L1181.7,55.8Z" shape-rendering="crispEdges"/><path fill="#ABD6CF" d="M1057.2,-30.4L1017.1,-116.9L964,-31.6Z" shape-rendering="crispEdges"/><path fill="#A2C5CA" d="M1196.2,-45.8L1181.7,55.8L1253.6,48.7Z" shape-rendering="crispEdges"/><path fill="#9CB3B9" d="M1389.4,115.9L1328.9,58.4L1315.5,109.8Z" shape-rendering="crispEdges"/><path fill="#34678D" d="M907,1113.7L964.4,1099L892.7,1021Z" shape-rendering="crispEdges"/><path fill="#275E91" d="M1047.6,1045.3L1111,1103.5L1117.6,1019.1Z" shape-rendering="crispEdges"/><path fill="#5287B0" d="M1575.6,416.4L1509.7,451.7L1538.6,485.3Z" shape-rendering="crispEdges"/><path fill="#5A89AF" d="M1575.6,416.4L1554.5,378.4L1509.7,451.7Z" shape-rendering="crispEdges"/><path fill="#899FAF" d="M1474.3,268.5L1512.4,182.6L1426.7,251.8Z" shape-rendering="crispEdges"/><path fill="#3273AF" d="M1612.1,660.4L1574.4,554.2L1542.1,638.8Z" shape-rendering="crispEdges"/><path fill="#3479B1" d="M1542.1,638.8L1574.4,554.2L1493.9,584.6Z" shape-rendering="crispEdges"/><path fill="#7286A9" d="M558.4,942.6L634.4,970.9L596.2,879.6Z" shape-rendering="crispEdges"/><path fill="#6D89AB" d="M596.2,879.6L634.4,970.9L643.4,863Z" shape-rendering="crispEdges"/><path fill="#3B698B" d="M803.7,1123.7L907,1113.7L892.7,1021Z" shape-rendering="crispEdges"/><path fill="#BDE4C7" d="M736.4,-15.1L747.2,60.1L789.1,30.8Z" shape-rendering="crispEdges"/><path fill="#C1E6C5" d="M736.4,-15.1L654.7,64.8L747.2,60.1Z" shape-rendering="crispEdges"/><path fill="#89BEBB" d="M452.1,636L453.6,715.7L495.9,635.9Z" shape-rendering="crispEdges"/><path fill="#8399AD" d="M458.6,850.8L488.1,887.6L513.6,814.7Z" shape-rendering="crispEdges"/><path fill="#8CBDBB" d="M386.2,665.9L453.6,715.7L452.1,636Z" shape-rendering="crispEdges"/><path fill="#244B9A" d="M1433.9,1036.8L1417.4,932.2L1328.5,947.3Z" shape-rendering="crispEdges"/><path fill="#2854A3" d="M1328.5,947.3L1417.4,932.2L1345.3,895.7Z" shape-rendering="crispEdges"/><path fill="#B6DFCD" d="M810.9,-72.3L870.6,-39.8L893.2,-113.6Z" shape-rendering="crispEdges"/><path fill="#B2DDCE" d="M964,-31.6L870.6,-39.8L864.6,35.3Z" shape-rendering="crispEdges"/><path fill="#4E81AF" d="M1642.9,518.6L1575.6,416.4L1538.6,485.3Z" shape-rendering="crispEdges"/><path fill="#2962AA" d="M1627.4,775.8L1612.1,660.4L1537,718.1Z" shape-rendering="crispEdges"/><path fill="#2552A2" d="M1417.4,932.2L1472.8,875L1422.5,862.5Z" shape-rendering="crispEdges"/><path fill="#265E8C" d="M1038.7,1128.9L1111,1103.5L1047.6,1045.3Z" shape-rendering="crispEdges"/><path fill="#24589B" d="M1179.3,1032.3L1279.8,1046.8L1254.5,929.2Z" shape-rendering="crispEdges"/><path fill="#1C528C" d="M1243,1118.1L1279.8,1046.8L1179.3,1032.3Z" shape-rendering="crispEdges"/><path fill="#57779A" d="M672.3,1036L727,1051.2L733.3,937.6Z" shape-rendering="crispEdges"/><path fill="#436D91" d="M803.7,1123.7L892.7,1021L791.8,1016Z" shape-rendering="crispEdges"/><path fill="#2A618C" d="M964.4,1099L1038.7,1128.9L1047.6,1045.3Z" shape-rendering="crispEdges"/><path fill="#B7E0CD" d="M870.6,-39.8L794.9,-32L864.6,35.3Z" shape-rendering="crispEdges"/><path fill="#ABDDB7" d="M411.8,346.1L492.8,428.9L522.8,376.6Z" shape-rendering="crispEdges"/><path fill="#97D0BC" d="M352.1,488.4L388,604.8L450.3,555.3Z" shape-rendering="crispEdges"/><path fill="#91C8BC" d="M450.3,555.3L388,604.8L452.1,636Z" shape-rendering="crispEdges"/><path fill="#2A628C" d="M1018.9,1154.9L1038.7,1128.9L964.4,1099Z" shape-rendering="crispEdges"/><path fill="#1B4B88" d="M1319.9,1111.9L1321.9,1047.4L1279.8,1046.8Z" shape-rendering="crispEdges"/><path fill="#BDE3CB" d="M794.9,-32L736.4,-15.1L789.1,30.8Z" shape-rendering="crispEdges"/><path fill="#A3C3CC" d="M1243,-48.8L1196.2,-45.8L1253.6,48.7Z" shape-rendering="crispEdges"/><path fill="#B1DDCE" d="M893.2,-113.6L870.6,-39.8L964,-31.6Z" shape-rendering="crispEdges"/><path fill="#607CA0" d="M634.4,970.9L672.3,1036L733.3,937.6Z" shape-rendering="crispEdges"/><path fill="#486F8E" d="M727,1051.2L803.7,1123.7L791.8,1016Z" shape-rendering="crispEdges"/><path fill="#617A96" d="M608.2,1053.6L672.3,1036L634.4,970.9Z" shape-rendering="crispEdges"/><path fill="#7C95AD" d="M488.1,887.6L596.2,879.6L513.6,814.7Z" shape-rendering="crispEdges"/><path fill="#7A8DAA" d="M488.1,887.6L558.4,942.6L596.2,879.6Z" shape-rendering="crispEdges"/><path fill="#1E578B" d="M1195.9,1120.4L1179.3,1032.3L1111,1103.5Z" shape-rendering="crispEdges"/><path fill="#215094" d="M1279.8,1046.8L1321.9,1047.4L1328.5,947.3Z" shape-rendering="crispEdges"/><path fill="#2551A2" d="M1553.2,888L1483.6,819.3L1472.8,875Z" shape-rendering="crispEdges"/><path fill="#CBEAB4" d="M567.1,155.5L490.3,188.9L595,186.7Z" shape-rendering="crispEdges"/><path fill="#B9E3B6" d="M501.7,256.8L411.8,346.1L522.8,376.6Z" shape-rendering="crispEdges"/><path fill="#D4EEB3" d="M489,100.2L490.3,188.9L567.1,155.5Z" shape-rendering="crispEdges"/><path fill="#CDEBBC" d="M579.6,27.8L567.1,155.5L654.7,64.8Z" shape-rendering="crispEdges"/><path fill="#7B95AD" d="M1559.4,263.4L1474.3,268.5L1554.5,378.4Z" shape-rendering="crispEdges"/><path fill="#8C9CAD" d="M1532.1,203.8L1512.4,182.6L1474.3,268.5Z" shape-rendering="crispEdges"/><path fill="#9CAFBA" d="M1389.4,115.9L1414.6,64.6L1328.9,58.4Z" shape-rendering="crispEdges"/><path fill="#A2BECA" d="M1309.9,-34.4L1243,-48.8L1253.6,48.7Z" shape-rendering="crispEdges"/><path fill="#C5E8B4" d="M408.7,275.9L411.8,346.1L501.7,256.8Z" shape-rendering="crispEdges"/><path fill="#758FAC" d="M1612.2,326.6L1559.4,263.4L1554.5,378.4Z" shape-rendering="crispEdges"/><path fill="#A2D8BA" d="M352.1,488.4L451,503.5L413.6,416.1Z" shape-rendering="crispEdges"/><path fill="#99D3BC" d="M352.1,488.4L450.3,555.3L451,503.5Z" shape-rendering="crispEdges"/><path fill="#859FAF" d="M458.6,850.8L513.6,814.7L417.8,789.8Z" shape-rendering="crispEdges"/><path fill="#9AA8B4" d="M1498.9,128.3L1414.6,64.6L1389.4,115.9Z" shape-rendering="crispEdges"/><path fill="#889AAD" d="M1559.4,263.4L1532.1,203.8L1474.3,268.5Z" shape-rendering="crispEdges"/><path fill="#92A2AE" d="M1512.4,182.6L1498.9,128.3L1400.5,226.1Z" shape-rendering="crispEdges"/><path fill="#20598B" d="M1104.8,1166.3L1195.9,1120.4L1111,1103.5Z" shape-rendering="crispEdges"/><path fill="#A1BAC5" d="M1309.9,-34.4L1253.6,48.7L1328.9,58.4Z" shape-rendering="crispEdges"/><path fill="#A9D3CE" d="M1017.1,-116.9L1057.2,-30.4L1083.6,-120Z" shape-rendering="crispEdges"/><path fill="#255BA7" d="M1578.5,806.6L1482.2,746.6L1483.6,819.3Z" shape-rendering="crispEdges"/><path fill="#296DAF" d="M1537,718.1L1612.1,660.4L1542.1,638.8Z" shape-rendering="crispEdges"/><path fill="#427EB0" d="M1574.4,554.2L1642.9,518.6L1538.6,485.3Z" shape-rendering="crispEdges"/><path fill="#678AAC" d="M1575.6,416.4L1612.2,326.6L1554.5,378.4Z" shape-rendering="crispEdges"/><path fill="#85A5B2" d="M513.6,814.7L485.7,752.7L417.8,789.8Z" shape-rendering="crispEdges"/><path fill="#527189" d="M651.9,1105L728.4,1103.3L672.3,1036Z" shape-rendering="crispEdges"/><path fill="#2F658D" d="M986.5,1170.7L964.4,1099L907,1113.7Z" shape-rendering="crispEdges"/><path fill="#2C638C" d="M986.5,1170.7L1018.9,1154.9L964.4,1099Z" shape-rendering="crispEdges"/><path fill="#255C8C" d="M1038.7,1128.9L1104.8,1166.3L1111,1103.5Z" shape-rendering="crispEdges"/><path fill="#486E8A" d="M728.4,1103.3L803.7,1123.7L727,1051.2Z" shape-rendering="crispEdges"/><path fill="#B9E1CC" d="M870.6,-39.8L810.9,-72.3L794.9,-32Z" shape-rendering="crispEdges"/><path fill="#BEE4CB" d="M794.9,-32L746.2,-117.9L736.4,-15.1Z" shape-rendering="crispEdges"/><path fill="#A8D0CE" d="M1057.2,-30.4L1096.8,-36.7L1083.6,-120Z" shape-rendering="crispEdges"/><path fill="#90C3BB" d="M388,604.8L386.2,665.9L452.1,636Z" shape-rendering="crispEdges"/><path fill="#88ADB5" d="M417.8,789.8L485.7,752.7L453.6,715.7Z" shape-rendering="crispEdges"/><path fill="#6B7F9D" d="M608.2,1053.6L634.4,970.9L558.4,942.6Z" shape-rendering="crispEdges"/><path fill="#50718D" d="M672.3,1036L728.4,1103.3L727,1051.2Z" shape-rendering="crispEdges"/><path fill="#969EAC" d="M1580.4,131.7L1498.9,128.3L1512.4,182.6Z" shape-rendering="crispEdges"/><path fill="#999FB0" d="M1509.9,53.4L1498.9,128.3L1580.4,131.7Z" shape-rendering="crispEdges"/><path fill="#1A538A" d="M1188.3,1187L1243,1118.1L1195.9,1120.4Z" shape-rendering="crispEdges"/><path fill="#1A548A" d="M1195.9,1120.4L1243,1118.1L1179.3,1032.3Z" shape-rendering="crispEdges"/><path fill="#8CAFB5" d="M361,737.9L417.8,789.8L453.6,715.7Z" shape-rendering="crispEdges"/><path fill="#A1B4C6" d="M1419,-48.2L1309.9,-34.4L1328.9,58.4Z" shape-rendering="crispEdges"/><path fill="#A1B9C8" d="M1273.6,-77.9L1309.9,-34.4L1356.1,-97.4Z" shape-rendering="crispEdges"/><path fill="#26489D" d="M1553.2,888L1472.8,875L1499.3,978.3Z" shape-rendering="crispEdges"/><path fill="#2551A2" d="M1553.2,888L1578.5,806.6L1483.6,819.3Z" shape-rendering="crispEdges"/><path fill="#3B77AF" d="M1647.4,598.5L1642.9,518.6L1574.4,554.2Z" shape-rendering="crispEdges"/><path fill="#C7E8C9" d="M670.9,-85.1L645.5,-7.1L736.4,-15.1Z" shape-rendering="crispEdges"/><path fill="#C7E8C7" d="M736.4,-15.1L645.5,-7.1L654.7,64.8Z" shape-rendering="crispEdges"/><path fill="#6085AB" d="M1659.6,440.2L1612.2,326.6L1575.6,416.4Z" shape-rendering="crispEdges"/><path fill="#9297AA" d="M1656.7,192.4L1580.4,131.7L1532.1,203.8Z" shape-rendering="crispEdges"/><path fill="#33678C" d="M871.8,1158.8L986.5,1170.7L907,1113.7Z" shape-rendering="crispEdges"/><path fill="#275E8C" d="M1018.9,1154.9L1104.8,1166.3L1038.7,1128.9Z" shape-rendering="crispEdges"/><path fill="#CEECB3" d="M426.6,179.7L408.7,275.9L501.7,256.8Z" shape-rendering="crispEdges"/><path fill="#B5E1B6" d="M411.8,346.1L375.6,350.8L413.6,416.1Z" shape-rendering="crispEdges"/><path fill="#D0ECB3" d="M374.8,301.5L408.7,275.9L334.3,226Z" shape-rendering="crispEdges"/><path fill="#A5C9CE" d="M1083.6,-120L1196.2,-45.8L1211.3,-114.9Z" shape-rendering="crispEdges"/><path fill="#A6CDCE" d="M1083.6,-120L1096.8,-36.7L1196.2,-45.8Z" shape-rendering="crispEdges"/><path fill="#3F6B8B" d="M817.6,1158.4L871.8,1158.8L803.7,1123.7Z" shape-rendering="crispEdges"/><path fill="#3C698B" d="M803.7,1123.7L871.8,1158.8L907,1113.7Z" shape-rendering="crispEdges"/><path fill="#28608C" d="M986.5,1170.7L1104.8,1166.3L1018.9,1154.9Z" shape-rendering="crispEdges"/><path fill="#AEDBCF" d="M986.8,-123L893.2,-113.6L964,-31.6Z" shape-rendering="crispEdges"/><path fill="#BCE3CB" d="M810.9,-72.3L746.2,-117.9L794.9,-32Z" shape-rendering="crispEdges"/><path fill="#3368A9" d="M1711.5,588.3L1647.4,598.5L1723.6,678.5Z" shape-rendering="crispEdges"/><path fill="#3571AE" d="M1612.1,660.4L1647.4,598.5L1574.4,554.2Z" shape-rendering="crispEdges"/><path fill="#BFE5B5" d="M374.8,301.5L375.6,350.8L411.8,346.1Z" shape-rendering="crispEdges"/><path fill="#93BDBA" d="M276.5,666.6L361,737.9L386.2,665.9Z" shape-rendering="crispEdges"/><path fill="#AADCB8" d="M337.6,404.9L352.1,488.4L413.6,416.1Z" shape-rendering="crispEdges"/><path fill="#ACD8CF" d="M1017.1,-116.9L986.8,-123L964,-31.6Z" shape-rendering="crispEdges"/><path fill="#858DA8" d="M410.6,963.9L492.1,933.8L488.1,887.6Z" shape-rendering="crispEdges"/><path fill="#7F8CA9" d="M488.1,887.6L492.1,933.8L558.4,942.6Z" shape-rendering="crispEdges"/><path fill="#8692AA" d="M410.6,963.9L488.1,887.6L458.6,850.8Z" shape-rendering="crispEdges"/><path fill="#A3C4CD" d="M1211.3,-114.9L1196.2,-45.8L1243,-48.8Z" shape-rendering="crispEdges"/><path fill="#AAD5CE" d="M1017.1,-116.9L1083.6,-120L986.8,-123Z" shape-rendering="crispEdges"/><path fill="#CDEBC4" d="M645.5,-7.1L579.6,27.8L654.7,64.8Z" shape-rendering="crispEdges"/><path fill="#6E7E98" d="M516.2,1036.7L608.2,1053.6L558.4,942.6Z" shape-rendering="crispEdges"/><path fill="#466D8A" d="M707.7,1155.3L817.6,1158.4L803.7,1123.7Z" shape-rendering="crispEdges"/><path fill="#406B8B" d="M871.8,1158.8L632.2,1201.1L986.5,1170.7Z" shape-rendering="crispEdges"/><path fill="#496E8A" d="M707.7,1155.3L803.7,1123.7L728.4,1103.3Z" shape-rendering="crispEdges"/><path fill="#264A9E" d="M1499.3,978.3L1472.8,875L1417.4,932.2Z" shape-rendering="crispEdges"/><path fill="#275AA6" d="M1578.5,806.6L1627.4,775.8L1537,718.1Z" shape-rendering="crispEdges"/><path fill="#214B93" d="M1433.9,1036.8L1328.5,947.3L1321.9,1047.4Z" shape-rendering="crispEdges"/><path fill="#9FB0C1" d="M1419,-48.2L1328.9,58.4L1414.6,64.6Z" shape-rendering="crispEdges"/><path fill="#A2BDCA" d="M1309.9,-34.4L1273.6,-77.9L1243,-48.8Z" shape-rendering="crispEdges"/><path fill="#527FAD" d="M1642.9,518.6L1659.6,440.2L1575.6,416.4Z" shape-rendering="crispEdges"/><path fill="#4B77AB" d="M1730.8,519.5L1659.6,440.2L1642.9,518.6Z" shape-rendering="crispEdges"/><path fill="#1A4C87" d="M1278.8,1187.9L1319.9,1111.9L1243,1118.1Z" shape-rendering="crispEdges"/><path fill="#1A4C87" d="M1243,1118.1L1319.9,1111.9L1279.8,1046.8Z" shape-rendering="crispEdges"/><path fill="#C4E8B5" d="M408.7,275.9L374.8,301.5L411.8,346.1Z" shape-rendering="crispEdges"/><path fill="#B2E0B7" d="M375.6,350.8L337.6,404.9L413.6,416.1Z" shape-rendering="crispEdges"/><path fill="#D0EDB3" d="M426.6,179.7L501.7,256.8L490.3,188.9Z" shape-rendering="crispEdges"/><path fill="#D4EEBA" d="M579.6,27.8L489,100.2L567.1,155.5Z" shape-rendering="crispEdges"/><path fill="#194384" d="M1388.8,1126.4L1433.9,1036.8L1321.9,1047.4Z" shape-rendering="crispEdges"/><path fill="#D8F0B3" d="M452.6,125.4L426.6,179.7L490.3,188.9Z" shape-rendering="crispEdges"/><path fill="#224595" d="M1433.9,1036.8L1499.3,978.3L1417.4,932.2Z" shape-rendering="crispEdges"/><path fill="#2851A2" d="M1662,752.5L1627.4,775.8L1702.8,799.8Z" shape-rendering="crispEdges"/><path fill="#264EA0" d="M1633.5,876.1L1627.4,775.8L1578.5,806.6Z" shape-rendering="crispEdges"/><path fill="#8EB8B8" d="M386.2,665.9L361,737.9L453.6,715.7Z" shape-rendering="crispEdges"/><path fill="#89A2B0" d="M417.8,789.8L365.1,794.1L458.6,850.8Z" shape-rendering="crispEdges"/><path fill="#96C7BB" d="M287,590.5L386.2,665.9L388,604.8Z" shape-rendering="crispEdges"/><path fill="#BDE4B6" d="M298.5,327.4L337.6,404.9L375.6,350.8Z" shape-rendering="crispEdges"/><path fill="#9BD0BC" d="M352.1,488.4L287,590.5L388,604.8Z" shape-rendering="crispEdges"/><path fill="#5D7488" d="M581.8,1121.6L651.9,1105L608.2,1053.6Z" shape-rendering="crispEdges"/><path fill="#5A758C" d="M608.2,1053.6L651.9,1105L672.3,1036Z" shape-rendering="crispEdges"/><path fill="#A3C1CB" d="M1273.6,-77.9L1211.3,-114.9L1243,-48.8Z" shape-rendering="crispEdges"/><path fill="#7387A9" d="M1714.6,377.3L1636.3,289L1612.2,326.6Z" shape-rendering="crispEdges"/><path fill="#7E8FAA" d="M1612.2,326.6L1636.3,289L1559.4,263.4Z" shape-rendering="crispEdges"/><path fill="#DFF3B9" d="M417.7,39.7L452.6,125.4L489,100.2Z" shape-rendering="crispEdges"/><path fill="#DAF0B3" d="M489,100.2L452.6,125.4L490.3,188.9Z" shape-rendering="crispEdges"/><path fill="#1E578B" d="M1104.8,1166.3L1188.3,1187L1195.9,1120.4Z" shape-rendering="crispEdges"/><path fill="#245C8C" d="M986.5,1170.7L1188.3,1187L1104.8,1166.3Z" shape-rendering="crispEdges"/><path fill="#31668C" d="M632.2,1201.1L1188.3,1187L986.5,1170.7Z" shape-rendering="crispEdges"/><path fill="#1F408E" d="M1433.9,1036.8L1494.8,1007.4L1499.3,978.3Z" shape-rendering="crispEdges"/><path fill="#26419A" d="M1499.3,978.3L1583.2,945.2L1553.2,888Z" shape-rendering="crispEdges"/><path fill="#1A3B83" d="M1506.5,1122.1L1494.8,1007.4L1433.9,1036.8Z" shape-rendering="crispEdges"/><path fill="#8DAAB3" d="M361,737.9L365.1,794.1L417.8,789.8Z" shape-rendering="crispEdges"/><path fill="#507089" d="M651.9,1105L707.7,1155.3L728.4,1103.3Z" shape-rendering="crispEdges"/><path fill="#466D8A" d="M817.6,1158.4L632.2,1201.1L871.8,1158.8Z" shape-rendering="crispEdges"/><path fill="#B4DECD" d="M986.8,-123L746.2,-117.9L893.2,-113.6Z" shape-rendering="crispEdges"/><path fill="#BAE1CC" d="M893.2,-113.6L746.2,-117.9L810.9,-72.3Z" shape-rendering="crispEdges"/><path fill="#D3EDC8" d="M645.5,-7.1L579,-27.7L579.6,27.8Z" shape-rendering="crispEdges"/><path fill="#DAF0BE" d="M579.6,27.8L484.6,46.9L489,100.2Z" shape-rendering="crispEdges"/><path fill="#929BAC" d="M1580.4,131.7L1512.4,182.6L1532.1,203.8Z" shape-rendering="crispEdges"/><path fill="#9BA5B5" d="M1498.9,128.3L1509.9,53.4L1414.6,64.6Z" shape-rendering="crispEdges"/><path fill="#A2BDCA" d="M1273.6,-77.9L1356.1,-97.4L1211.3,-114.9Z" shape-rendering="crispEdges"/><path fill="#C2E6CA" d="M746.2,-117.9L670.9,-85.1L736.4,-15.1Z" shape-rendering="crispEdges"/><path fill="#CEEBC9" d="M670.9,-85.1L579,-27.7L645.5,-7.1Z" shape-rendering="crispEdges"/><path fill="#295CA7" d="M1627.4,775.8L1662,752.5L1612.1,660.4Z" shape-rendering="crispEdges"/><path fill="#3B71AD" d="M1647.4,598.5L1711.5,588.3L1642.9,518.6Z" shape-rendering="crispEdges"/><path fill="#264A9E" d="M1633.5,876.1L1578.5,806.6L1553.2,888Z" shape-rendering="crispEdges"/><path fill="#8B95AA" d="M1656.7,192.4L1532.1,203.8L1559.4,263.4Z" shape-rendering="crispEdges"/><path fill="#7B8399" d="M432.2,1041.5L516.2,1036.7L492.1,933.8Z" shape-rendering="crispEdges"/><path fill="#7A85A1" d="M492.1,933.8L516.2,1036.7L558.4,942.6Z" shape-rendering="crispEdges"/><path fill="#557289" d="M651.9,1105L632.2,1201.1L707.7,1155.3Z" shape-rendering="crispEdges"/><path fill="#DBF1C5" d="M531.3,-28.9L484.6,46.9L579.6,27.8Z" shape-rendering="crispEdges"/><path fill="#D4EEB3" d="M334.3,226L408.7,275.9L426.6,179.7Z" shape-rendering="crispEdges"/><path fill="#9EA4BD" d="M1536.6,-6.3L1469.7,-4L1509.9,53.4Z" shape-rendering="crispEdges"/><path fill="#9DA7BC" d="M1509.9,53.4L1469.7,-4L1414.6,64.6Z" shape-rendering="crispEdges"/><path fill="#9FABC2" d="M1469.7,-4L1419,-48.2L1414.6,64.6Z" shape-rendering="crispEdges"/><path fill="#3068AB" d="M1723.6,678.5L1647.4,598.5L1612.1,660.4Z" shape-rendering="crispEdges"/><path fill="#6581A9" d="M1659.6,440.2L1714.6,377.3L1612.2,326.6Z" shape-rendering="crispEdges"/><path fill="#194684" d="M1319.9,1111.9L1388.8,1126.4L1321.9,1047.4Z" shape-rendering="crispEdges"/><path fill="#194684" d="M1321,1197.4L1388.8,1126.4L1319.9,1111.9Z" shape-rendering="crispEdges"/><path fill="#243892" d="M1621,938.8L1583.2,945.2L1630.1,1008Z" shape-rendering="crispEdges"/><path fill="#213B8F" d="M1584.1,1039.7L1583.2,945.2L1499.3,978.3Z" shape-rendering="crispEdges"/><path fill="#1A5189" d="M1188.3,1187L1278.8,1187.9L1243,1118.1Z" shape-rendering="crispEdges"/><path fill="#A2D6BB" d="M277.3,491L287,590.5L352.1,488.4Z" shape-rendering="crispEdges"/><path fill="#91ABB2" d="M361,737.9L294.1,801.9L365.1,794.1Z" shape-rendering="crispEdges"/><path fill="#A0B3C6" d="M1419,-48.2L1356.1,-97.4L1309.9,-34.4Z" shape-rendering="crispEdges"/><path fill="#26429A" d="M1621,938.8L1633.5,876.1L1553.2,888Z" shape-rendering="crispEdges"/><path fill="#2B5FA9" d="M1662,752.5L1723.6,678.5L1612.1,660.4Z" shape-rendering="crispEdges"/><path fill="#B0DEB8" d="M266.9,415.7L277.3,491L337.6,404.9Z" shape-rendering="crispEdges"/><path fill="#AADBB9" d="M337.6,404.9L277.3,491L352.1,488.4Z" shape-rendering="crispEdges"/><path fill="#C4E7B5" d="M298.5,327.4L375.6,350.8L374.8,301.5Z" shape-rendering="crispEdges"/><path fill="#CEEBB4" d="M298.5,327.4L374.8,301.5L290.7,256.6Z" shape-rendering="crispEdges"/><path fill="#65788A" d="M516.2,1036.7L581.8,1121.6L608.2,1053.6Z" shape-rendering="crispEdges"/><path fill="#D8EFC8" d="M574.3,-101.6L531.3,-28.9L579,-27.7Z" shape-rendering="crispEdges"/><path fill="#D8EFC8" d="M579,-27.7L531.3,-28.9L579.6,27.8Z" shape-rendering="crispEdges"/><path fill="#D2EDC8" d="M574.3,-101.6L579,-27.7L670.9,-85.1Z" shape-rendering="crispEdges"/><path fill="#587BA6" d="M1733.1,449.6L1714.6,377.3L1659.6,440.2Z" shape-rendering="crispEdges"/><path fill="#8790A9" d="M1636.3,289L1656.7,192.4L1559.4,263.4Z" shape-rendering="crispEdges"/><path fill="#386DA4" d="M1789.7,570.2L1730.8,519.5L1711.5,588.3Z" shape-rendering="crispEdges"/><path fill="#3D72AA" d="M1711.5,588.3L1730.8,519.5L1642.9,518.6Z" shape-rendering="crispEdges"/><path fill="#E0F3B2" d="M426.6,179.7L452.6,125.4L342.5,103Z" shape-rendering="crispEdges"/><path fill="#DEF2B2" d="M334.3,226L426.6,179.7L342.5,103Z" shape-rendering="crispEdges"/><path fill="#DCF1B2" d="M290.7,256.6L334.3,226L272.5,200.8Z" shape-rendering="crispEdges"/><path fill="#8A92A9" d="M345.3,897.9L410.6,963.9L458.6,850.8Z" shape-rendering="crispEdges"/><path fill="#678" d="M501.3,1118.5L571,1159.4L581.8,1121.6Z" shape-rendering="crispEdges"/><path fill="#8C9CAD" d="M345.3,897.9L458.6,850.8L365.1,794.1Z" shape-rendering="crispEdges"/><path fill="#7785A7" d="M1714.6,377.3L1694.2,280.7L1636.3,289Z" shape-rendering="crispEdges"/><path fill="#4E77A7" d="M1730.8,519.5L1733.1,449.6L1659.6,440.2Z" shape-rendering="crispEdges"/><path fill="#8A8A9F" d="M1727.8,151.5L1682.7,189L1801.6,229.3Z" shape-rendering="crispEdges"/><path fill="#868CA7" d="M1694.2,280.7L1656.7,192.4L1636.3,289Z" shape-rendering="crispEdges"/><path fill="#9B9DB3" d="M1580.4,131.7L1567.8,49.2L1509.9,53.4Z" shape-rendering="crispEdges"/><path fill="#2857A2" d="M1728.5,744.9L1723.6,678.5L1662,752.5Z" shape-rendering="crispEdges"/><path fill="#9FCBBB" d="M209.5,579.1L276.5,666.6L287,590.5Z" shape-rendering="crispEdges"/><path fill="#98C5BB" d="M287,590.5L276.5,666.6L386.2,665.9Z" shape-rendering="crispEdges"/><path fill="#9695A9" d="M1656.7,192.4L1615.8,118.1L1580.4,131.7Z" shape-rendering="crispEdges"/><path fill="#9FACC3" d="M1467.2,-99.5L1384.4,-106.7L1419,-48.2Z" shape-rendering="crispEdges"/><path fill="#A0B0C5" d="M1419,-48.2L1384.4,-106.7L1356.1,-97.4Z" shape-rendering="crispEdges"/><path fill="#A1B9C8" d="M1356.1,-97.4L1384.4,-106.7L1211.3,-114.9Z" shape-rendering="crispEdges"/><path fill="#9FA9C1" d="M1467.2,-99.5L1419,-48.2L1469.7,-4Z" shape-rendering="crispEdges"/><path fill="#9A9AB1" d="M1613,59.8L1567.8,49.2L1580.4,131.7Z" shape-rendering="crispEdges"/><path fill="#285F8C" d="M632.2,1201.1L1321,1197.4L1188.3,1187Z" shape-rendering="crispEdges"/><path fill="#1A4E87" d="M1188.3,1187L1321,1197.4L1278.8,1187.9Z" shape-rendering="crispEdges"/><path fill="#194A85" d="M1278.8,1187.9L1321,1197.4L1319.9,1111.9Z" shape-rendering="crispEdges"/><path fill="#1F3C8C" d="M1584.1,1039.7L1499.3,978.3L1494.8,1007.4Z" shape-rendering="crispEdges"/><path fill="#BAE3B6" d="M298.5,327.4L266.9,415.7L337.6,404.9Z" shape-rendering="crispEdges"/><path fill="#A3D4BC" d="M277.3,491L209.5,579.1L287,590.5Z" shape-rendering="crispEdges"/><path fill="#BAE2B8" d="M206.7,437L266.9,415.7L185.8,379.8Z" shape-rendering="crispEdges"/><path fill="#264099" d="M1583.2,945.2L1621,938.8L1553.2,888Z" shape-rendering="crispEdges"/><path fill="#264A9F" d="M1633.5,876.1L1702.8,799.8L1627.4,775.8Z" shape-rendering="crispEdges"/><path fill="#163C7F" d="M1506.5,1122.1L1433.9,1036.8L1388.8,1126.4Z" shape-rendering="crispEdges"/><path fill="#26429A" d="M1721.5,879L1702.8,799.8L1633.5,876.1Z" shape-rendering="crispEdges"/><path fill="#90A1AE" d="M294.1,801.9L345.3,897.9L365.1,794.1Z" shape-rendering="crispEdges"/><path fill="#9E9DBC" d="M1636,-38.3L1536.6,-6.3L1567.8,49.2Z" shape-rendering="crispEdges"/><path fill="#9DA0BA" d="M1567.8,49.2L1536.6,-6.3L1509.9,53.4Z" shape-rendering="crispEdges"/><path fill="#184382" d="M1321,1197.4L1417.4,1159.4L1388.8,1126.4Z" shape-rendering="crispEdges"/><path fill="#94AEB3" d="M273.4,754.4L294.1,801.9L361,737.9Z" shape-rendering="crispEdges"/><path fill="#2750A0" d="M1702.8,799.8L1728.5,744.9L1662,752.5Z" shape-rendering="crispEdges"/><path fill="#4673A1" d="M1795.9,509.7L1733.1,449.6L1730.8,519.5Z" shape-rendering="crispEdges"/><path fill="#4C749E" d="M1795.9,509.7L1778.2,418.9L1733.1,449.6Z" shape-rendering="crispEdges"/><path fill="#CAE9C9" d="M746.2,-117.9L574.3,-101.6L670.9,-85.1Z" shape-rendering="crispEdges"/><path fill="#E0F3BD" d="M417.7,39.7L489,100.2L484.6,46.9Z" shape-rendering="crispEdges"/><path fill="#E4F5C4" d="M417.7,39.7L484.6,46.9L457.9,-50.2Z" shape-rendering="crispEdges"/><path fill="#D4EEB3" d="M334.3,226L290.7,256.6L374.8,301.5Z" shape-rendering="crispEdges"/><path fill="#E2F3C7" d="M457.9,-50.2L484.6,46.9L531.3,-28.9Z" shape-rendering="crispEdges"/><path fill="#9391A7" d="M1656.7,192.4L1682.7,189L1615.8,118.1Z" shape-rendering="crispEdges"/><path fill="#9998AD" d="M1615.8,118.1L1613,59.8L1580.4,131.7Z" shape-rendering="crispEdges"/><path fill="#8B8CA7" d="M1694.2,280.7L1682.7,189L1656.7,192.4Z" shape-rendering="crispEdges"/><path fill="#6D80A1" d="M1777.8,360.9L1694.2,280.7L1714.6,377.3Z" shape-rendering="crispEdges"/><path fill="#96B8B7" d="M276.5,666.6L273.4,754.4L361,737.9Z" shape-rendering="crispEdges"/><path fill="#9BBBB7" d="M186.2,714.8L273.4,754.4L276.5,666.6Z" shape-rendering="crispEdges"/><path fill="#5C7488" d="M581.8,1121.6L632.2,1201.1L651.9,1105Z" shape-rendering="crispEdges"/><path fill="#4C6F89" d="M707.7,1155.3L632.2,1201.1L817.6,1158.4Z" shape-rendering="crispEdges"/><path fill="#697887" d="M501.3,1118.5L581.8,1121.6L516.2,1036.7Z" shape-rendering="crispEdges"/><path fill="#81879E" d="M432.2,1041.5L492.1,933.8L410.6,963.9Z" shape-rendering="crispEdges"/><path fill="#828599" d="M348.3,1005.2L432.2,1041.5L410.6,963.9Z" shape-rendering="crispEdges"/><path fill="#607588" d="M571,1159.4L632.2,1201.1L581.8,1121.6Z" shape-rendering="crispEdges"/><path fill="#9A94B0" d="M1715.2,40.1L1613,59.8L1615.8,118.1Z" shape-rendering="crispEdges"/><path fill="#727C8A" d="M432.2,1041.5L501.3,1118.5L516.2,1036.7Z" shape-rendering="crispEdges"/><path fill="#637688" d="M571,1159.4L509.8,1191.3L632.2,1201.1Z" shape-rendering="crispEdges"/><path fill="#1A3781" d="M1506.5,1122.1L1584.1,1039.7L1494.8,1007.4Z" shape-rendering="crispEdges"/><path fill="#263B97" d="M1621,938.8L1688.1,935.2L1633.5,876.1Z" shape-rendering="crispEdges"/><path fill="#8D8FA7" d="M345.3,897.9L336,930.4L410.6,963.9Z" shape-rendering="crispEdges"/><path fill="#9195A9" d="M270.4,877.8L336,930.4L345.3,897.9Z" shape-rendering="crispEdges"/><path fill="#8C8BA1" d="M348.3,1005.2L336,930.4L306.1,972.3Z" shape-rendering="crispEdges"/><path fill="#163D7F" d="M1417.4,1159.4L1506.5,1122.1L1388.8,1126.4Z" shape-rendering="crispEdges"/><path fill="#9EA2BE" d="M1578.1,-123.1L1467.2,-99.5L1536.6,-6.3Z" shape-rendering="crispEdges"/><path fill="#9EA5C0" d="M1536.6,-6.3L1467.2,-99.5L1469.7,-4Z" shape-rendering="crispEdges"/><path fill="#E8F6BE" d="M366.2,26.1L342.5,103L417.7,39.7Z" shape-rendering="crispEdges"/><path fill="#E3F4B9" d="M417.7,39.7L342.5,103L452.6,125.4Z" shape-rendering="crispEdges"/><path fill="#31679F" d="M1789.7,570.2L1711.5,588.3L1811.5,638.3Z" shape-rendering="crispEdges"/><path fill="#5779A1" d="M1733.1,449.6L1778.2,418.9L1714.6,377.3Z" shape-rendering="crispEdges"/><path fill="#2D63A2" d="M1811.5,638.3L1711.5,588.3L1723.6,678.5Z" shape-rendering="crispEdges"/><path fill="#20368B" d="M1584.1,1039.7L1630.1,1008L1583.2,945.2Z" shape-rendering="crispEdges"/><path fill="#245099" d="M1773.3,784.6L1786.8,711.5L1728.5,744.9Z" shape-rendering="crispEdges"/><path fill="#1B3080" d="M1657.4,1084.6L1630.1,1008L1584.1,1039.7Z" shape-rendering="crispEdges"/><path fill="#E0F3C7" d="M521.3,-112.5L457.9,-50.2L531.3,-28.9Z" shape-rendering="crispEdges"/><path fill="#B3DEB8" d="M206.7,437L277.3,491L266.9,415.7Z" shape-rendering="crispEdges"/><path fill="#A7D7BD" d="M184.5,528.7L209.5,579.1L277.3,491Z" shape-rendering="crispEdges"/><path fill="#939DAC" d="M270.4,877.8L345.3,897.9L294.1,801.9Z" shape-rendering="crispEdges"/><path fill="#6E7D91" d="M1809.8,293.2L1882.2,330.5L1839,283.6Z" shape-rendering="crispEdges"/><path fill="#5E7B9E" d="M1778.2,418.9L1777.8,360.9L1714.6,377.3Z" shape-rendering="crispEdges"/><path fill="#948FA6" d="M1682.7,189L1727.8,151.5L1615.8,118.1Z" shape-rendering="crispEdges"/><path fill="#3A6FA0" d="M1789.7,570.2L1795.9,509.7L1730.8,519.5Z" shape-rendering="crispEdges"/><path fill="#E1F3B2" d="M268.8,146.9L272.5,200.8L334.3,226Z" shape-rendering="crispEdges"/><path fill="#C0E5B6" d="M185.8,379.8L266.9,415.7L298.5,327.4Z" shape-rendering="crispEdges"/><path fill="#243692" d="M1630.1,1008L1688.1,935.2L1621,938.8Z" shape-rendering="crispEdges"/><path fill="#26589E" d="M1728.5,744.9L1786.8,711.5L1723.6,678.5Z" shape-rendering="crispEdges"/><path fill="#D3EDB3" d="M206,296.9L298.5,327.4L290.7,256.6Z" shape-rendering="crispEdges"/><path fill="#D1ECC8" d="M746.2,-117.9L521.3,-112.5L574.3,-101.6Z" shape-rendering="crispEdges"/><path fill="#DBF0C7" d="M574.3,-101.6L521.3,-112.5L531.3,-28.9Z" shape-rendering="crispEdges"/><path fill="#263C97" d="M1688.1,935.2L1721.5,879L1633.5,876.1Z" shape-rendering="crispEdges"/><path fill="#244C9A" d="M1773.3,784.6L1728.5,744.9L1702.8,799.8Z" shape-rendering="crispEdges"/><path fill="#386D9B" d="M1789.7,570.2L1833,509.6L1795.9,509.7Z" shape-rendering="crispEdges"/><path fill="#EAF7C2" d="M354.9,3.3L366.2,26.1L417.7,39.7Z" shape-rendering="crispEdges"/><path fill="#E4F4B2" d="M342.5,103L268.8,146.9L334.3,226Z" shape-rendering="crispEdges"/><path fill="#E9F6C6" d="M354.9,3.3L417.7,39.7L457.9,-50.2Z" shape-rendering="crispEdges"/><path fill="#97A4AF" d="M270.4,877.8L294.1,801.9L188,787.2Z" shape-rendering="crispEdges"/><path fill="#8A8AA1" d="M336,930.4L348.3,1005.2L410.6,963.9Z" shape-rendering="crispEdges"/><path fill="#727C87" d="M432.2,1041.5L444.3,1115.2L501.3,1118.5Z" shape-rendering="crispEdges"/><path fill="#757D87" d="M380.9,1107.6L444.3,1115.2L432.2,1041.5Z" shape-rendering="crispEdges"/><path fill="#6A7987" d="M501.3,1118.5L509.8,1191.3L571,1159.4Z" shape-rendering="crispEdges"/><path fill="#98ACB2" d="M188,787.2L294.1,801.9L273.4,754.4Z" shape-rendering="crispEdges"/><path fill="#234596" d="M1721.5,879L1773.3,784.6L1702.8,799.8Z" shape-rendering="crispEdges"/><path fill="#AEDCBB" d="M206.7,437L184.5,528.7L277.3,491Z" shape-rendering="crispEdges"/><path fill="#A0C9BC" d="M209.5,579.1L189.3,647.4L276.5,666.6Z" shape-rendering="crispEdges"/><path fill="#17347B" d="M1569,1176.5L1563.5,1120.1L1506.5,1122.1Z" shape-rendering="crispEdges"/><path fill="#17337A" d="M1506.5,1122.1L1563.5,1120.1L1584.1,1039.7Z" shape-rendering="crispEdges"/><path fill="#21318B" d="M1630.1,1008L1711.6,1016.6L1688.1,935.2Z" shape-rendering="crispEdges"/><path fill="#17397D" d="M1510,1199.1L1506.5,1122.1L1417.4,1159.4Z" shape-rendering="crispEdges"/><path fill="#235B99" d="M1836.4,659.2L1811.5,638.3L1786.8,711.5Z" shape-rendering="crispEdges"/><path fill="#255D9D" d="M1786.8,711.5L1811.5,638.3L1723.6,678.5Z" shape-rendering="crispEdges"/><path fill="#8589A0" d="M1801.6,229.3L1682.7,189L1694.2,280.7Z" shape-rendering="crispEdges"/><path fill="#9D9AB8" d="M1613,59.8L1636,-38.3L1567.8,49.2Z" shape-rendering="crispEdges"/><path fill="#A2CBBF" d="M154,651.8L189.3,647.4L209.5,579.1Z" shape-rendering="crispEdges"/><path fill="#9291A8" d="M270.4,877.8L306.1,972.3L336,930.4Z" shape-rendering="crispEdges"/><path fill="#7C818D" d="M348.3,1005.2L380.9,1107.6L432.2,1041.5Z" shape-rendering="crispEdges"/><path fill="#EBF7B7" d="M287.7,36L268.8,146.9L342.5,103Z" shape-rendering="crispEdges"/><path fill="#DDF2B2" d="M222.1,190.8L206,296.9L290.7,256.6Z" shape-rendering="crispEdges"/><path fill="#AFDCBE" d="M206.7,437L161.8,503.8L184.5,528.7Z" shape-rendering="crispEdges"/><path fill="#717B87" d="M450.1,1195L501.3,1118.5L444.3,1115.2Z" shape-rendering="crispEdges"/><path fill="#6F7B87" d="M450.1,1195L509.8,1191.3L501.3,1118.5Z" shape-rendering="crispEdges"/><path fill="#E0F3B2" d="M222.1,190.8L290.7,256.6L272.5,200.8Z" shape-rendering="crispEdges"/><path fill="#CBEAB5" d="M206,296.9L185.8,379.8L298.5,327.4Z" shape-rendering="crispEdges"/><path fill="#336A99" d="M1854.6,571.5L1833,509.6L1789.7,570.2Z" shape-rendering="crispEdges"/><path fill="#45719B" d="M1795.9,509.7L1833,509.6L1778.2,418.9Z" shape-rendering="crispEdges"/><path fill="#72819D" d="M1777.8,360.9L1809.8,293.2L1694.2,280.7Z" shape-rendering="crispEdges"/><path fill="#EAF7C6" d="M357.1,-122.5L354.9,3.3L457.9,-50.2Z" shape-rendering="crispEdges"/><path fill="#EBF7BD" d="M366.2,26.1L287.7,36L342.5,103Z" shape-rendering="crispEdges"/><path fill="#9DC3BC" d="M189.3,647.4L186.2,714.8L276.5,666.6Z" shape-rendering="crispEdges"/><path fill="#898795" d="M217.3,1031.5L305.3,1047.7L306.1,972.3Z" shape-rendering="crispEdges"/><path fill="#9FC4BF" d="M154,651.8L186.2,714.8L189.3,647.4Z" shape-rendering="crispEdges"/><path fill="#D6EEC8" d="M746.2,-117.9L463,-115.3L521.3,-112.5Z" shape-rendering="crispEdges"/><path fill="#E3F4C6" d="M521.3,-112.5L463,-115.3L457.9,-50.2Z" shape-rendering="crispEdges"/><path fill="#DDF2C7" d="M357.1,-122.5L463,-115.3L746.2,-117.9Z" shape-rendering="crispEdges"/><path fill="#B3DEBE" d="M159.7,449.1L161.8,503.8L206.7,437Z" shape-rendering="crispEdges"/><path fill="#A4CEC2" d="M110.7,595L154,651.8L209.5,579.1Z" shape-rendering="crispEdges"/><path fill="#697C95" d="M1809.8,293.2L1777.8,360.9L1882.2,330.5Z" shape-rendering="crispEdges"/><path fill="#173F80" d="M1321,1197.4L1510,1199.1L1417.4,1159.4Z" shape-rendering="crispEdges"/><path fill="#17397D" d="M1619.4,1201.5L1510,1199.1L1321,1197.4Z" shape-rendering="crispEdges"/><path fill="#C2E6BD" d="M111.1,327.9L159.7,449.1L185.8,379.8Z" shape-rendering="crispEdges"/><path fill="#B9E2BC" d="M185.8,379.8L159.7,449.1L206.7,437Z" shape-rendering="crispEdges"/><path fill="#215695" d="M1852,710.9L1836.4,659.2L1786.8,711.5Z" shape-rendering="crispEdges"/><path fill="#2E6499" d="M1811.5,638.3L1854.6,571.5L1789.7,570.2Z" shape-rendering="crispEdges"/><path fill="#E6F5B2" d="M268.8,146.9L222.1,190.8L272.5,200.8Z" shape-rendering="crispEdges"/><path fill="#D0ECB9" d="M206,296.9L153.9,295.8L185.8,379.8Z" shape-rendering="crispEdges"/><path fill="#EBF7B1" d="M230.2,108.9L222.1,190.8L268.8,146.9Z" shape-rendering="crispEdges"/><path fill="#7F818D" d="M305.3,1047.7L380.9,1107.6L348.3,1005.2Z" shape-rendering="crispEdges"/><path fill="#9D96B9" d="M1689.1,4.9L1636,-38.3L1613,59.8Z" shape-rendering="crispEdges"/><path fill="#9C93B4" d="M1689.1,4.9L1613,59.8L1715.2,40.1Z" shape-rendering="crispEdges"/><path fill="#9CB4BA" d="M143,745.9L188,787.2L186.2,714.8Z" shape-rendering="crispEdges"/><path fill="#9BB3B6" d="M186.2,714.8L188,787.2L273.4,754.4Z" shape-rendering="crispEdges"/><path fill="#878797" d="M306.1,972.3L305.3,1047.7L348.3,1005.2Z" shape-rendering="crispEdges"/><path fill="#7D849B" d="M1809.8,293.2L1801.6,229.3L1694.2,280.7Z" shape-rendering="crispEdges"/><path fill="#296097" d="M1836.4,659.2L1854.6,571.5L1811.5,638.3Z" shape-rendering="crispEdges"/><path fill="#537598" d="M1871,451.4L1777.8,360.9L1778.2,418.9Z" shape-rendering="crispEdges"/><path fill="#798194" d="M1809.8,293.2L1839,283.6L1801.6,229.3Z" shape-rendering="crispEdges"/><path fill="#A8D8C3" d="M110.7,595L184.5,528.7L161.8,503.8Z" shape-rendering="crispEdges"/><path fill="#A6D4C1" d="M110.7,595L209.5,579.1L184.5,528.7Z" shape-rendering="crispEdges"/><path fill="#172E78" d="M1619.4,1201.5L1657.4,1084.6L1563.5,1120.1Z" shape-rendering="crispEdges"/><path fill="#172F78" d="M1563.5,1120.1L1657.4,1084.6L1584.1,1039.7Z" shape-rendering="crispEdges"/><path fill="#233890" d="M1688.1,935.2L1786.7,900.4L1721.5,879Z" shape-rendering="crispEdges"/><path fill="#213E90" d="M1721.5,879L1786.7,900.4L1773.3,784.6Z" shape-rendering="crispEdges"/><path fill="#204E91" d="M1840.4,788L1852,710.9L1786.8,711.5Z" shape-rendering="crispEdges"/><path fill="#17357B" d="M1510,1199.1L1569,1176.5L1506.5,1122.1Z" shape-rendering="crispEdges"/><path fill="#1B2D80" d="M1657.4,1084.6L1711.6,1016.6L1630.1,1008Z" shape-rendering="crispEdges"/><path fill="#9890AA" d="M1715.2,40.1L1615.8,118.1L1727.8,151.5Z" shape-rendering="crispEdges"/><path fill="#948DA5" d="M1770.7,69.7L1715.2,40.1L1727.8,151.5Z" shape-rendering="crispEdges"/><path fill="#697887" d="M509.8,1191.3L450.1,1195L632.2,1201.1Z" shape-rendering="crispEdges"/><path fill="#757D87" d="M372.1,1167L450.1,1195L444.3,1115.2Z" shape-rendering="crispEdges"/><path fill="#F1F9C5" d="M269.6,-24.4L287.7,36L354.9,3.3Z" shape-rendering="crispEdges"/><path fill="#EDF8C2" d="M354.9,3.3L287.7,36L366.2,26.1Z" shape-rendering="crispEdges"/><path fill="#9590A6" d="M215.9,979.2L306.1,972.3L270.4,877.8Z" shape-rendering="crispEdges"/><path fill="#777D87" d="M380.9,1107.6L372.1,1167L444.3,1115.2Z" shape-rendering="crispEdges"/><path fill="#9E9ABB" d="M1618,-110.8L1578.1,-123.1L1636,-38.3Z" shape-rendering="crispEdges"/><path fill="#9E9CBC" d="M1636,-38.3L1578.1,-123.1L1536.6,-6.3Z" shape-rendering="crispEdges"/><path fill="#9EA7C1" d="M1467.2,-99.5L1578.1,-123.1L1384.4,-106.7Z" shape-rendering="crispEdges"/><path fill="#A0B0C4" d="M1384.4,-106.7L1578.1,-123.1L1211.3,-114.9Z" shape-rendering="crispEdges"/><path fill="#A2BCC9" d="M1211.3,-114.9L1578.1,-123.1L1083.6,-120Z" shape-rendering="crispEdges"/><path fill="#A3C4CD" d="M1083.6,-120L1578.1,-123.1L986.8,-123Z" shape-rendering="crispEdges"/><path fill="#21328B" d="M1798.9,957.2L1786.7,900.4L1688.1,935.2Z" shape-rendering="crispEdges"/><path fill="#275E92" d="M1836.4,659.2L1914.5,632.1L1854.6,571.5Z" shape-rendering="crispEdges"/><path fill="#214C93" d="M1840.4,788L1786.8,711.5L1773.3,784.6Z" shape-rendering="crispEdges"/><path fill="#487197" d="M1871,451.4L1778.2,418.9L1833,509.6Z" shape-rendering="crispEdges"/><path fill="#908B9D" d="M1810.7,118.1L1770.7,69.7L1727.8,151.5Z" shape-rendering="crispEdges"/><path fill="#426C8B" d="M1930.1,443.2L1871,451.4L1940.1,479.5Z" shape-rendering="crispEdges"/><path fill="#3F6C90" d="M1940.1,479.5L1871,451.4L1833,509.6Z" shape-rendering="crispEdges"/><path fill="#EEF8B7" d="M287.7,36L230.2,108.9L268.8,146.9Z" shape-rendering="crispEdges"/><path fill="#DDF2B6" d="M222.1,190.8L153.9,295.8L206,296.9Z" shape-rendering="crispEdges"/><path fill="#E3F4B8" d="M137.1,185.8L153.9,295.8L222.1,190.8Z" shape-rendering="crispEdges"/><path fill="#9FBFC1" d="M85.8,704.8L143,745.9L154,651.8Z" shape-rendering="crispEdges"/><path fill="#1E418D" d="M1786.7,900.4L1840.4,788L1773.3,784.6Z" shape-rendering="crispEdges"/><path fill="#9AA5B3" d="M155.3,819.6L190.5,878.6L188,787.2Z" shape-rendering="crispEdges"/><path fill="#99A1AF" d="M188,787.2L190.5,878.6L270.4,877.8Z" shape-rendering="crispEdges"/><path fill="#9EBEBE" d="M154,651.8L143,745.9L186.2,714.8Z" shape-rendering="crispEdges"/><path fill="#ABD9C6" d="M110.7,595L161.8,503.8L58.6,496.2Z" shape-rendering="crispEdges"/><path fill="#162874" d="M1730.5,1173.1L1693,1081.4L1657.4,1084.6Z" shape-rendering="crispEdges"/><path fill="#182A79" d="M1657.4,1084.6L1693,1081.4L1711.6,1016.6Z" shape-rendering="crispEdges"/><path fill="#1F2F87" d="M1711.6,1016.6L1798.9,957.2L1688.1,935.2Z" shape-rendering="crispEdges"/><path fill="#9D96BA" d="M1698.6,-90L1618,-110.8L1636,-38.3Z" shape-rendering="crispEdges"/><path fill="#9D93B9" d="M1698.6,-90L1636,-38.3L1689.1,4.9Z" shape-rendering="crispEdges"/><path fill="#B2DDC3" d="M58.6,496.2L161.8,503.8L159.7,449.1Z" shape-rendering="crispEdges"/><path fill="#9B9AB3" d="M162,903.5L52.8,849.4L150.3,925.3Z" shape-rendering="crispEdges"/><path fill="#9BADB8" d="M143,745.9L155.3,819.6L188,787.2Z" shape-rendering="crispEdges"/><path fill="#8A8899" d="M1810.7,118.1L1727.8,151.5L1801.6,229.3Z" shape-rendering="crispEdges"/><path fill="#9990B2" d="M1789.1,-30.2L1698.6,-90L1689.1,4.9Z" shape-rendering="crispEdges"/><path fill="#7C7F86" d="M286,1112.2L380.9,1107.6L305.3,1047.7Z" shape-rendering="crispEdges"/><path fill="#7A7E86" d="M310.8,1168.1L372.1,1167L380.9,1107.6Z" shape-rendering="crispEdges"/><path fill="#597693" d="M1871,451.4L1882.2,330.5L1777.8,360.9Z" shape-rendering="crispEdges"/><path fill="#828492" d="M1887.5,228.5L1810.7,118.1L1801.6,229.3Z" shape-rendering="crispEdges"/><path fill="#4D708D" d="M1930.1,443.2L1882.2,330.5L1871,451.4Z" shape-rendering="crispEdges"/><path fill="#182A79" d="M1693,1081.4L1757.6,1023.8L1711.6,1016.6Z" shape-rendering="crispEdges"/><path fill="#1D3A87" d="M1786.7,900.4L1866.8,886.7L1840.4,788Z" shape-rendering="crispEdges"/><path fill="#1B2C7E" d="M1757.6,1023.8L1798.9,957.2L1711.6,1016.6Z" shape-rendering="crispEdges"/><path fill="#9896A9" d="M190.5,878.6L215.9,979.2L270.4,877.8Z" shape-rendering="crispEdges"/><path fill="#9995AC" d="M162,903.5L215.9,979.2L190.5,878.6Z" shape-rendering="crispEdges"/><path fill="#7A8191" d="M1887.5,228.5L1801.6,229.3L1839,283.6Z" shape-rendering="crispEdges"/><path fill="#D6EEBF" d="M60.7,305.1L111.1,327.9L153.9,295.8Z" shape-rendering="crispEdges"/><path fill="#CEEBBC" d="M153.9,295.8L111.1,327.9L185.8,379.8Z" shape-rendering="crispEdges"/><path fill="#173079" d="M1569,1176.5L1619.4,1201.5L1563.5,1120.1Z" shape-rendering="crispEdges"/><path fill="#142670" d="M1693,1081.4L1762.7,1102.5L1757.6,1023.8Z" shape-rendering="crispEdges"/><path fill="#17327A" d="M1510,1199.1L1619.4,1201.5L1569,1176.5Z" shape-rendering="crispEdges"/><path fill="#1B558B" d="M632.2,1201.1L1619.4,1201.5L1321,1197.4Z" shape-rendering="crispEdges"/><path fill="#F2FABD" d="M287.7,36L200.7,28L230.2,108.9Z" shape-rendering="crispEdges"/><path fill="#E7F6C6" d="M463,-115.3L357.1,-122.5L457.9,-50.2Z" shape-rendering="crispEdges"/><path fill="#C5E7CA" d="M986.8,-123L357.1,-122.5L746.2,-117.9Z" shape-rendering="crispEdges"/><path fill="#F1FAC5" d="M289.9,-97.8L269.6,-24.4L354.9,3.3Z" shape-rendering="crispEdges"/><path fill="#EBF7B5" d="M230.2,108.9L137.1,185.8L222.1,190.8Z" shape-rendering="crispEdges"/><path fill="#1B538B" d="M1953.1,712.7L1914.5,632.1L1852,710.9Z" shape-rendering="crispEdges"/><path fill="#205891" d="M1852,710.9L1914.5,632.1L1836.4,659.2Z" shape-rendering="crispEdges"/><path fill="#194A85" d="M1953.1,712.7L1852,710.9L1961.5,779.5Z" shape-rendering="crispEdges"/><path fill="#9CACBA" d="M63.6,821.2L155.3,819.6L143,745.9Z" shape-rendering="crispEdges"/><path fill="#9A9EB1" d="M155.3,819.6L162,903.5L190.5,878.6Z" shape-rendering="crispEdges"/><path fill="#8F8A9A" d="M217.3,1031.5L306.1,972.3L215.9,979.2Z" shape-rendering="crispEdges"/><path fill="#83828A" d="M217.3,1031.5L286,1112.2L305.3,1047.7Z" shape-rendering="crispEdges"/><path fill="#EFF9B8" d="M107.8,141.5L137.1,185.8L230.2,108.9Z" shape-rendering="crispEdges"/><path fill="#9990B1" d="M1789.1,-30.2L1689.1,4.9L1715.2,40.1Z" shape-rendering="crispEdges"/><path fill="#9D94B9" d="M1618,-110.8L1811,-91.9L1578.1,-123.1Z" shape-rendering="crispEdges"/><path fill="#958EAA" d="M1789.1,-30.2L1715.2,40.1L1770.7,69.7Z" shape-rendering="crispEdges"/><path fill="#8D8998" d="M157.7,1040.5L217.3,1031.5L215.9,979.2Z" shape-rendering="crispEdges"/><path fill="#A3CBC5" d="M72,650.9L154,651.8L110.7,595Z" shape-rendering="crispEdges"/><path fill="#A1C6C5" d="M72,650.9L85.8,704.8L154,651.8Z" shape-rendering="crispEdges"/><path fill="#366992" d="M1940.1,479.5L1833,509.6L1854.6,571.5Z" shape-rendering="crispEdges"/><path fill="#747D8B" d="M1933.8,282.5L1887.5,228.5L1839,283.6Z" shape-rendering="crispEdges"/><path fill="#6C7B8C" d="M1933.8,282.5L1839,283.6L1882.2,330.5Z" shape-rendering="crispEdges"/><path fill="#928BA6" d="M1851.2,-5.4L1789.1,-30.2L1770.7,69.7Z" shape-rendering="crispEdges"/><path fill="#1D2F83" d="M1867.6,943.2L1786.7,900.4L1798.9,957.2Z" shape-rendering="crispEdges"/><path fill="#1C3182" d="M1867.6,943.2L1866.8,886.7L1786.7,900.4Z" shape-rendering="crispEdges"/><path fill="#192A7A" d="M1867.6,943.2L1798.9,957.2L1858.8,1010.1Z" shape-rendering="crispEdges"/><path fill="#A6CEC8" d="M35.2,595L72,650.9L110.7,595Z" shape-rendering="crispEdges"/><path fill="#9BA0B5" d="M52.8,849.4L162,903.5L155.3,819.6Z" shape-rendering="crispEdges"/><path fill="#9992AC" d="M162,903.5L150.3,925.3L215.9,979.2Z" shape-rendering="crispEdges"/><path fill="#2E668D" d="M1954.6,564.1L1940.1,479.5L1854.6,571.5Z" shape-rendering="crispEdges"/><path fill="#657788" d="M1946.5,334.6L1933.8,282.5L1882.2,330.5Z" shape-rendering="crispEdges"/><path fill="#808086" d="M233.9,1192.2L310.8,1168.1L286,1112.2Z" shape-rendering="crispEdges"/><path fill="#7C7F86" d="M286,1112.2L310.8,1168.1L380.9,1107.6Z" shape-rendering="crispEdges"/><path fill="#787E87" d="M372.1,1167L310.8,1168.1L450.1,1195Z" shape-rendering="crispEdges"/><path fill="#BFE5C1" d="M39.4,426.1L159.7,449.1L111.1,327.9Z" shape-rendering="crispEdges"/><path fill="#B7E0C5" d="M39.4,426.1L58.6,496.2L159.7,449.1Z" shape-rendering="crispEdges"/><path fill="#F7FCC6" d="M196.7,-43.7L200.7,28L269.6,-24.4Z" shape-rendering="crispEdges"/><path fill="#F4FBC3" d="M269.6,-24.4L200.7,28L287.7,36Z" shape-rendering="crispEdges"/><path fill="#EFF9C6" d="M357.1,-122.5L289.9,-97.8L354.9,3.3Z" shape-rendering="crispEdges"/><path fill="#28608E" d="M1914.5,632.1L1954.6,564.1L1854.6,571.5Z" shape-rendering="crispEdges"/><path fill="#245C8B" d="M1983.5,649.4L1954.6,564.1L1914.5,632.1Z" shape-rendering="crispEdges"/><path fill="#14266F" d="M1730.5,1173.1L1762.7,1102.5L1693,1081.4Z" shape-rendering="crispEdges"/><path fill="#182978" d="M1858.8,1010.1L1798.9,957.2L1757.6,1023.8Z" shape-rendering="crispEdges"/><path fill="#1B4788" d="M1961.5,779.5L1852,710.9L1840.4,788Z" shape-rendering="crispEdges"/><path fill="#567289" d="M1946.5,334.6L1882.2,330.5L1930.1,443.2Z" shape-rendering="crispEdges"/><path fill="#8E899A" d="M1874.5,65.7L1770.7,69.7L1810.7,118.1Z" shape-rendering="crispEdges"/><path fill="#4C6F89" d="M1946.5,334.6L1930.1,443.2L2012.5,440.8Z" shape-rendering="crispEdges"/><path fill="#426B8A" d="M2012.5,440.8L1930.1,443.2L1940.1,479.5Z" shape-rendering="crispEdges"/><path fill="#86848E" d="M1875.8,101.1L1810.7,118.1L1887.5,228.5Z" shape-rendering="crispEdges"/><path fill="#E4F4BC" d="M54.7,221.7L153.9,295.8L137.1,185.8Z" shape-rendering="crispEdges"/><path fill="#DFF2BF" d="M54.7,221.7L60.7,305.1L153.9,295.8Z" shape-rendering="crispEdges"/><path fill="#D3EDC2" d="M60.7,305.1L52.2,341.4L111.1,327.9Z" shape-rendering="crispEdges"/><path fill="#CAE9C3" d="M52.2,341.4L39.4,426.1L111.1,327.9Z" shape-rendering="crispEdges"/><path fill="#A9D6C9" d="M58.6,496.2L35.2,595L110.7,595Z" shape-rendering="crispEdges"/><path fill="#A1C0C8" d="M72,650.9L-31.5,751.3L85.8,704.8Z" shape-rendering="crispEdges"/><path fill="#9EB4BF" d="M85.8,704.8L63.6,821.2L143,745.9Z" shape-rendering="crispEdges"/><path fill="#ABD8CC" d="M5.8,574.4L35.2,595L58.6,496.2Z" shape-rendering="crispEdges"/><path fill="#173C7F" d="M1961.5,779.5L1840.4,788L1948.4,880.2Z" shape-rendering="crispEdges"/><path fill="#7F8189" d="M1929.2,210.7L1875.8,101.1L1887.5,228.5Z" shape-rendering="crispEdges"/><path fill="#F2FABC" d="M117.6,76.2L107.8,141.5L230.2,108.9Z" shape-rendering="crispEdges"/><path fill="#F4FBBF" d="M117.6,76.2L230.2,108.9L200.7,28Z" shape-rendering="crispEdges"/><path fill="#172976" d="M1619.4,1201.5L1730.5,1173.1L1657.4,1084.6Z" shape-rendering="crispEdges"/><path fill="#14266F" d="M1762.7,1102.5L1858.8,1010.1L1757.6,1023.8Z" shape-rendering="crispEdges"/><path fill="#737C87" d="M2028.5,263.7L1929.2,210.7L1933.8,282.5Z" shape-rendering="crispEdges"/><path fill="#757D87" d="M1933.8,282.5L1929.2,210.7L1887.5,228.5Z" shape-rendering="crispEdges"/><path fill="#A0B4C3" d="M-31.5,751.3L63.6,821.2L85.8,704.8Z" shape-rendering="crispEdges"/><path fill="#938DA2" d="M150.3,925.3L157.7,1040.5L215.9,979.2Z" shape-rendering="crispEdges"/><path fill="#838187" d="M217.3,1031.5L197.8,1106.8L286,1112.2Z" shape-rendering="crispEdges"/><path fill="#0F2265" d="M1869.5,1100L1858.8,1010.1L1762.7,1102.5Z" shape-rendering="crispEdges"/><path fill="#193880" d="M1948.4,880.2L1840.4,788L1866.8,886.7Z" shape-rendering="crispEdges"/><path fill="#12256D" d="M1730.5,1173.1L1757.8,1158.8L1762.7,1102.5Z" shape-rendering="crispEdges"/><path fill="#F5FBC5" d="M289.9,-97.8L196.7,-43.7L269.6,-24.4Z" shape-rendering="crispEdges"/><path fill="#958EA6" d="M85.8,971.9L157.7,1040.5L150.3,925.3Z" shape-rendering="crispEdges"/><path fill="#888492" d="M1920.6,55.8L1874.5,65.7L1875.8,101.1Z" shape-rendering="crispEdges"/><path fill="#8A8694" d="M1875.8,101.1L1874.5,65.7L1810.7,118.1Z" shape-rendering="crispEdges"/><path fill="#1A4F88" d="M1987.6,744.8L1983.5,649.4L1953.1,712.7Z" shape-rendering="crispEdges"/><path fill="#1C568B" d="M1953.1,712.7L1983.5,649.4L1914.5,632.1Z" shape-rendering="crispEdges"/><path fill="#3E6A8B" d="M2031.2,506.6L2012.5,440.8L1940.1,479.5Z" shape-rendering="crispEdges"/><path fill="#87848E" d="M157.7,1040.5L197.8,1106.8L217.3,1031.5Z" shape-rendering="crispEdges"/><path fill="#F8FCC8" d="M129.5,-14.4L117.6,76.2L200.7,28Z" shape-rendering="crispEdges"/><path fill="#ECF7BD" d="M107.8,141.5L54.7,221.7L137.1,185.8Z" shape-rendering="crispEdges"/><path fill="#192D7B" d="M1918,947.9L1866.8,886.7L1867.6,943.2Z" shape-rendering="crispEdges"/><path fill="#EEF8C1" d="M-10.7,177.2L54.7,221.7L107.8,141.5Z" shape-rendering="crispEdges"/><path fill="#CBEAC9" d="M-41,352.6L-23.5,408.6L52.2,341.4Z" shape-rendering="crispEdges"/><path fill="#BDE3CB" d="M-23.5,408.6L-17.9,484.9L39.4,426.1Z" shape-rendering="crispEdges"/><path fill="#B0DCCD" d="M-17.9,484.9L5.8,574.4L58.6,496.2Z" shape-rendering="crispEdges"/><path fill="#A6CDCC" d="M35.2,595L-33.9,637.2L72,650.9Z" shape-rendering="crispEdges"/><path fill="#B7E0CA" d="M-17.9,484.9L58.6,496.2L39.4,426.1Z" shape-rendering="crispEdges"/><path fill="#9EA7BF" d="M-37.1,801.9L52.8,849.4L63.6,821.2Z" shape-rendering="crispEdges"/><path fill="#9CA5BA" d="M63.6,821.2L52.8,849.4L155.3,819.6Z" shape-rendering="crispEdges"/><path fill="#8B8698" d="M1920.6,55.8L1851.2,-5.4L1874.5,65.7Z" shape-rendering="crispEdges"/><path fill="#8E899E" d="M1874.5,65.7L1851.2,-5.4L1770.7,69.7Z" shape-rendering="crispEdges"/><path fill="#968EAD" d="M1789.1,-30.2L1811,-91.9L1698.6,-90Z" shape-rendering="crispEdges"/><path fill="#12256C" d="M1956.2,1025.1L1918,947.9L1858.8,1010.1Z" shape-rendering="crispEdges"/><path fill="#172875" d="M1858.8,1010.1L1918,947.9L1867.6,943.2Z" shape-rendering="crispEdges"/><path fill="#F4FBC1" d="M117.6,76.2L86.4,102.6L107.8,141.5Z" shape-rendering="crispEdges"/><path fill="#F7FCC6" d="M33.9,65.2L86.4,102.6L117.6,76.2Z" shape-rendering="crispEdges"/><path fill="#184181" d="M1991.5,825L1987.6,744.8L1961.5,779.5Z" shape-rendering="crispEdges"/><path fill="#194884" d="M1961.5,779.5L1987.6,744.8L1953.1,712.7Z" shape-rendering="crispEdges"/><path fill="#182F79" d="M1918,947.9L1948.4,880.2L1866.8,886.7Z" shape-rendering="crispEdges"/><path fill="#265E8C" d="M2023.1,582.1L1954.6,564.1L1983.5,649.4Z" shape-rendering="crispEdges"/><path fill="#34678C" d="M2031.2,506.6L1940.1,479.5L1954.6,564.1Z" shape-rendering="crispEdges"/><path fill="#6A7987" d="M1946.5,334.6L2028.5,263.7L1933.8,282.5Z" shape-rendering="crispEdges"/><path fill="#86838D" d="M1946.7,101.5L1920.6,55.8L1875.8,101.1Z" shape-rendering="crispEdges"/><path fill="#85828C" d="M140.4,1119.2L197.8,1106.8L157.7,1040.5Z" shape-rendering="crispEdges"/><path fill="#84828A" d="M130.1,1177.1L233.9,1192.2L197.8,1106.8Z" shape-rendering="crispEdges"/><path fill="#838186" d="M197.8,1106.8L233.9,1192.2L286,1112.2Z" shape-rendering="crispEdges"/><path fill="#7C7F86" d="M310.8,1168.1L233.9,1192.2L450.1,1195Z" shape-rendering="crispEdges"/><path fill="#7A7E86" d="M450.1,1195L-19.9,1205.3L632.2,1201.1Z" shape-rendering="crispEdges"/><path fill="#9B97B3" d="M52.8,849.4L85.8,971.9L150.3,925.3Z" shape-rendering="crispEdges"/><path fill="#928BA6" d="M1851.2,-5.4L1811,-91.9L1789.1,-30.2Z" shape-rendering="crispEdges"/><path fill="#9B91B4" d="M1698.6,-90L1811,-91.9L1618,-110.8Z" shape-rendering="crispEdges"/><path fill="#D3EDC6" d="M52.2,341.4L60.7,305.1L-41,352.6Z" shape-rendering="crispEdges"/><path fill="#C4E7C8" d="M-23.5,408.6L39.4,426.1L52.2,341.4Z" shape-rendering="crispEdges"/><path fill="#A9D1CE" d="M5.8,574.4L-33.9,637.2L35.2,595Z" shape-rendering="crispEdges"/><path fill="#F7FCC6" d="M289.9,-97.8L204.8,-112.3L196.7,-43.7Z" shape-rendering="crispEdges"/><path fill="#F9FCCA" d="M196.7,-43.7L129.5,-14.4L200.7,28Z" shape-rendering="crispEdges"/><path fill="#F3FAC5" d="M357.1,-122.5L204.8,-112.3L289.9,-97.8Z" shape-rendering="crispEdges"/><path fill="#1D568B" d="M1987.6,744.8L2023.1,582.1L1983.5,649.4Z" shape-rendering="crispEdges"/><path fill="#F9FDCC" d="M128.9,-74.4L129.5,-14.4L196.7,-43.7Z" shape-rendering="crispEdges"/><path fill="#2C648D" d="M2023.1,582.1L2031.2,506.6L1954.6,564.1Z" shape-rendering="crispEdges"/><path fill="#DBF0C7" d="M-41,352.6L60.7,305.1L-27.6,257.6Z" shape-rendering="crispEdges"/><path fill="#838186" d="M1946.7,101.5L1875.8,101.1L1929.2,210.7Z" shape-rendering="crispEdges"/><path fill="#8F89A2" d="M1851.2,-5.4L1879.1,-84.4L1811,-91.9Z" shape-rendering="crispEdges"/><path fill="#818186" d="M1946.7,101.5L1929.2,210.7L2001.2,132.5Z" shape-rendering="crispEdges"/><path fill="#173A7E" d="M1948.4,880.2L1991.5,825L1961.5,779.5Z" shape-rendering="crispEdges"/><path fill="#1A4D87" d="M1987.6,744.8L1991.5,825L2023.1,582.1Z" shape-rendering="crispEdges"/><path fill="#17347B" d="M1995.9,896.2L1991.5,825L1948.4,880.2Z" shape-rendering="crispEdges"/><path fill="#577288" d="M2034.9,329.7L1946.5,334.6L2012.5,440.8Z" shape-rendering="crispEdges"/><path fill="#0D2162" d="M1869.6,1161.3L1869.5,1100L1762.7,1102.5Z" shape-rendering="crispEdges"/><path fill="#172D78" d="M1988.6,961.6L1995.9,896.2L1948.4,880.2Z" shape-rendering="crispEdges"/><path fill="#AFDCCE" d="M-74.3,517.1L5.8,574.4L-17.9,484.9Z" shape-rendering="crispEdges"/><path fill="#A9D1CE" d="M-87.5,592.4L-33.9,637.2L5.8,574.4Z" shape-rendering="crispEdges"/><path fill="#938CA6" d="M-3.2,1007.1L63.7,1031.9L85.8,971.9Z" shape-rendering="crispEdges"/><path fill="#888593" d="M63.7,1031.9L140.4,1119.2L157.7,1040.5Z" shape-rendering="crispEdges"/><path fill="#486E8A" d="M2031.2,506.6L2034.9,329.7L2012.5,440.8Z" shape-rendering="crispEdges"/><path fill="#A3C5CD" d="M-33.9,637.2L-31.5,751.3L72,650.9Z" shape-rendering="crispEdges"/><path fill="#908AA0" d="M85.8,971.9L63.7,1031.9L157.7,1040.5Z" shape-rendering="crispEdges"/><path fill="#E3F4C4" d="M-27.6,257.6L60.7,305.1L54.7,221.7Z" shape-rendering="crispEdges"/><path fill="#B8E0CC" d="M-85.2,413.7L-74.3,517.1L-17.9,484.9Z" shape-rendering="crispEdges"/><path fill="#A0AFC4" d="M-68,808.7L-37.1,801.9L-31.5,751.3Z" shape-rendering="crispEdges"/><path fill="#EAF7C5" d="M-27.6,257.6L54.7,221.7L-10.7,177.2Z" shape-rendering="crispEdges"/><path fill="#F9FCCA" d="M204.8,-112.3L128.9,-74.4L196.7,-43.7Z" shape-rendering="crispEdges"/><path fill="#F6FBC5" d="M33.9,65.2L-10.7,177.2L86.4,102.6Z" shape-rendering="crispEdges"/><path fill="#667888" d="M2034.9,329.7L2028.5,263.7L1946.5,334.6Z" shape-rendering="crispEdges"/><path fill="#172B76" d="M1988.6,961.6L1948.4,880.2L1918,947.9Z" shape-rendering="crispEdges"/><path fill="#184483" d="M1991.5,825L1995.9,896.2L2023.1,582.1Z" shape-rendering="crispEdges"/><path fill="#194A86" d="M2023.1,582.1L2021.9,1107.7L2031.2,506.6Z" shape-rendering="crispEdges"/><path fill="#F3FAC0" d="M-10.7,177.2L107.8,141.5L86.4,102.6Z" shape-rendering="crispEdges"/><path fill="#9D99B8" d="M-22.3,902.5L85.8,971.9L52.8,849.4Z" shape-rendering="crispEdges"/><path fill="#86838E" d="M2031.4,75.1L1920.6,55.8L1946.7,101.5Z" shape-rendering="crispEdges"/><path fill="#8B869B" d="M1923.3,-49.1L1851.2,-5.4L1920.6,55.8Z" shape-rendering="crispEdges"/><path fill="#8C879D" d="M1923.3,-49.1L1879.1,-84.4L1851.2,-5.4Z" shape-rendering="crispEdges"/><path fill="#938BA7" d="M1811,-91.9L2024.3,-101.4L1578.1,-123.1Z" shape-rendering="crispEdges"/><path fill="#0A1F5C" d="M1869.6,1161.3L1914.5,1085.1L1869.5,1100Z" shape-rendering="crispEdges"/><path fill="#0C2060" d="M1869.5,1100L1914.5,1085.1L1858.8,1010.1Z" shape-rendering="crispEdges"/><path fill="#102367" d="M1869.6,1161.3L1762.7,1102.5L1757.8,1158.8Z" shape-rendering="crispEdges"/><path fill="#F9FDCB" d="M33.9,65.2L117.6,76.2L129.5,-14.4Z" shape-rendering="crispEdges"/><path fill="#6F7B87" d="M2034.9,329.7L2029.7,226.5L2028.5,263.7Z" shape-rendering="crispEdges"/><path fill="#757D87" d="M2028.5,263.7L2029.7,226.5L1929.2,210.7Z" shape-rendering="crispEdges"/><path fill="#FCFED2" d="M67.7,-36.3L33.9,65.2L129.5,-14.4Z" shape-rendering="crispEdges"/><path fill="#A2C0CB" d="M-92.6,733.8L-31.5,751.3L-33.9,637.2Z" shape-rendering="crispEdges"/><path fill="#9FAEC4" d="M-31.5,751.3L-37.1,801.9L63.6,821.2Z" shape-rendering="crispEdges"/><path fill="#7B7F86" d="M2029.7,226.5L2001.2,132.5L1929.2,210.7Z" shape-rendering="crispEdges"/><path fill="#102368" d="M1730.5,1173.1L1869.6,1161.3L1757.8,1158.8Z" shape-rendering="crispEdges"/><path fill="#0D2161" d="M1931.8,1179.9L1869.6,1161.3L1730.5,1173.1Z" shape-rendering="crispEdges"/><path fill="#C5E7CA" d="M-85.2,413.7L-23.5,408.6L-41,352.6Z" shape-rendering="crispEdges"/><path fill="#BDE3CB" d="M-85.2,413.7L-17.9,484.9L-23.5,408.6Z" shape-rendering="crispEdges"/><path fill="#0C205F" d="M1999.5,1033.6L1956.2,1025.1L1914.5,1085.1Z" shape-rendering="crispEdges"/><path fill="#0D2162" d="M1914.5,1085.1L1956.2,1025.1L1858.8,1010.1Z" shape-rendering="crispEdges"/><path fill="#13256E" d="M1956.2,1025.1L1988.6,961.6L1918,947.9Z" shape-rendering="crispEdges"/><path fill="#86838F" d="M78,1129.1L130.1,1177.1L140.4,1119.2Z" shape-rendering="crispEdges"/><path fill="#85828C" d="M140.4,1119.2L130.1,1177.1L197.8,1106.8Z" shape-rendering="crispEdges"/><path fill="#898498" d="M2025.2,-48.5L1923.3,-49.1L1920.6,55.8Z" shape-rendering="crispEdges"/><path fill="#9EA3BF" d="M-37.1,801.9L-22.3,902.5L52.8,849.4Z" shape-rendering="crispEdges"/><path fill="#878391" d="M63.7,1031.9L78,1129.1L140.4,1119.2Z" shape-rendering="crispEdges"/><path fill="#FBFDD0" d="M128.9,-74.4L67.7,-36.3L129.5,-14.4Z" shape-rendering="crispEdges"/><path fill="#ECF7C6" d="M-101.1,197.4L-27.6,257.6L-10.7,177.2Z" shape-rendering="crispEdges"/><path fill="#ABD7CF" d="M-74.3,517.1L-87.5,592.4L5.8,574.4Z" shape-rendering="crispEdges"/><path fill="#9EA5C0" d="M-37.1,801.9L-68,808.7L-22.3,902.5Z" shape-rendering="crispEdges"/><path fill="#CBEAC9" d="M-102.5,334.7L-85.2,413.7L-41,352.6Z" shape-rendering="crispEdges"/><path fill="#AAD5CE" d="M-74.3,517.1L-117.6,625.5L-87.5,592.4Z" shape-rendering="crispEdges"/><path fill="#DBF1C7" d="M-71.8,297.5L-41,352.6L-27.6,257.6Z" shape-rendering="crispEdges"/><path fill="#F6FCC5" d="M-32.8,152.8L-10.7,177.2L33.9,65.2Z" shape-rendering="crispEdges"/><path fill="#E6F5C6" d="M-101.1,197.4L-71.8,297.5L-27.6,257.6Z" shape-rendering="crispEdges"/><path fill="#F9FDCB" d="M-39.6,63.2L-32.8,152.8L33.9,65.2Z" shape-rendering="crispEdges"/><path fill="#888494" d="M-2.6,1111.2L78,1129.1L63.7,1031.9Z" shape-rendering="crispEdges"/><path fill="#A0B4C6" d="M-92.6,733.8L-68,808.7L-31.5,751.3Z" shape-rendering="crispEdges"/><path fill="#9990B0" d="M-36,939.8L-3.2,1007.1L85.8,971.9Z" shape-rendering="crispEdges"/><path fill="#9D94B8" d="M-36,939.8L85.8,971.9L-22.3,902.5Z" shape-rendering="crispEdges"/><path fill="#A8CFCE" d="M-117.6,625.5L-33.9,637.2L-87.5,592.4Z" shape-rendering="crispEdges"/><path fill="#A4C8CE" d="M-117.6,625.5L-92.6,733.8L-33.9,637.2Z" shape-rendering="crispEdges"/><path fill="#9D96BA" d="M-73.2,933.7L-36,939.8L-22.3,902.5Z" shape-rendering="crispEdges"/><path fill="#9E99BB" d="M-73.2,933.7L-22.3,902.5L-116.1,885.2Z" shape-rendering="crispEdges"/><path fill="#081D59" d="M2021.9,1107.7L1999.5,1033.6L1914.5,1085.1Z" shape-rendering="crispEdges"/><path fill="#102368" d="M1956.2,1025.1L1999.5,1033.6L1988.6,961.6Z" shape-rendering="crispEdges"/><path fill="#152771" d="M1988.6,961.6L1999.5,1033.6L1995.9,896.2Z" shape-rendering="crispEdges"/><path fill="#17357B" d="M1995.9,896.2L2021.9,1107.7L2023.1,582.1Z" shape-rendering="crispEdges"/><path fill="#D5EEC8" d="M-71.8,297.5L-102.5,334.7L-41,352.6Z" shape-rendering="crispEdges"/><path fill="#B0DCCE" d="M-85.2,413.7L-117.6,625.5L-74.3,517.1Z" shape-rendering="crispEdges"/><path fill="#E2F3C7" d="M-101.1,197.4L-102.5,334.7L-71.8,297.5Z" shape-rendering="crispEdges"/><path fill="#BAE1CC" d="M-102.5,334.7L-117.6,625.5L-85.2,413.7Z" shape-rendering="crispEdges"/><path fill="#818186" d="M2029.7,226.5L2031.4,75.1L2001.2,132.5Z" shape-rendering="crispEdges"/><path fill="#84828A" d="M2001.2,132.5L2031.4,75.1L1946.7,101.5Z" shape-rendering="crispEdges"/><path fill="#787E86" d="M2034.9,329.7L2031.4,75.1L2029.7,226.5Z" shape-rendering="crispEdges"/><path fill="#888494" d="M-2.6,1111.2L77.9,1170.1L78,1129.1Z" shape-rendering="crispEdges"/><path fill="#878391" d="M78,1129.1L77.9,1170.1L130.1,1177.1Z" shape-rendering="crispEdges"/><path fill="#86838F" d="M130.1,1177.1L-19.9,1205.3L233.9,1192.2Z" shape-rendering="crispEdges"/><path fill="#898498" d="M2025.2,-48.5L1949.7,-83.4L1923.3,-49.1Z" shape-rendering="crispEdges"/><path fill="#898598" d="M1923.3,-49.1L1949.7,-83.4L1879.1,-84.4Z" shape-rendering="crispEdges"/><path fill="#8A859A" d="M1879.1,-84.4L2024.3,-101.4L1811,-91.9Z" shape-rendering="crispEdges"/><path fill="#12246B" d="M1619.4,1201.5L1931.8,1179.9L1730.5,1173.1Z" shape-rendering="crispEdges"/><path fill="#091E5A" d="M1869.6,1161.3L1931.8,1179.9L1914.5,1085.1Z" shape-rendering="crispEdges"/><path fill="#FDFED5" d="M-23.3,-47.2L-39.6,63.2L33.9,65.2Z" shape-rendering="crispEdges"/><path fill="#F0F9C5" d="M-32.8,152.8L-101.1,197.4L-10.7,177.2Z" shape-rendering="crispEdges"/><path fill="#FCFED2" d="M128.9,-74.4L44.3,-94.3L67.7,-36.3Z" shape-rendering="crispEdges"/><path fill="#FEFFD7" d="M67.7,-36.3L-23.3,-47.2L33.9,65.2Z" shape-rendering="crispEdges"/><path fill="#FAFDCF" d="M204.8,-112.3L44.3,-94.3L128.9,-74.4Z" shape-rendering="crispEdges"/><path fill="#958DAB" d="M-36,939.8L-86.7,1051.7L-3.2,1007.1Z" shape-rendering="crispEdges"/><path fill="#8D879E" d="M-3.2,1007.1L-2.6,1111.2L63.7,1031.9Z" shape-rendering="crispEdges"/><path fill="#9EA1BE" d="M-116.1,885.2L-22.3,902.5L-68,808.7Z" shape-rendering="crispEdges"/><path fill="#9FAAC2" d="M-116.1,885.2L-68,808.7L-92.6,733.8Z" shape-rendering="crispEdges"/><path fill="#F4FBC5" d="M-100.3,102.1L-101.1,197.4L-32.8,152.8Z" shape-rendering="crispEdges"/><path fill="#C7E8C9" d="M-102.5,334.7L-101.1,197.4L-117.6,625.5Z" shape-rendering="crispEdges"/><path fill="#8B869B" d="M-74.1,1085.3L-2.6,1111.2L-3.2,1007.1Z" shape-rendering="crispEdges"/><path fill="#A1B7C7" d="M-117.6,625.5L-116.1,885.2L-92.6,733.8Z" shape-rendering="crispEdges"/><path fill="#9990B1" d="M-73.2,933.7L-86.7,1051.7L-36,939.8Z" shape-rendering="crispEdges"/><path fill="#081D58" d="M1931.8,1179.9L2021.9,1107.7L1914.5,1085.1Z" shape-rendering="crispEdges"/><path fill="#0F2366" d="M1999.5,1033.6L2021.9,1107.7L1995.9,896.2Z" shape-rendering="crispEdges"/><path fill="#1F588B" d="M2031.2,506.6L2021.9,1107.7L2034.9,329.7Z" shape-rendering="crispEdges"/><path fill="#FEFFD7" d="M44.3,-94.3L-23.3,-47.2L67.7,-36.3Z" shape-rendering="crispEdges"/><path fill="#F8FCC9" d="M-39.6,63.2L-100.3,102.1L-32.8,152.8Z" shape-rendering="crispEdges"/><path fill="#888494" d="M2031.4,75.1L2025.2,-48.5L1920.6,55.8Z" shape-rendering="crispEdges"/><path fill="#FDFED4" d="M-84.6,-30.3L-78,61.1L-39.6,63.2Z" shape-rendering="crispEdges"/><path fill="#FCFED2" d="M-84.6,-30.3L-100.3,102.1L-78,61.1Z" shape-rendering="crispEdges"/><path fill="#FAFDCE" d="M-78,61.1L-100.3,102.1L-39.6,63.2Z" shape-rendering="crispEdges"/><path fill="#DAF0C7" d="M-101.1,197.4L-100.3,102.1L-117.6,625.5Z" shape-rendering="crispEdges"/><path fill="#FFFFD9" d="M44.3,-94.3L-11.8,-90.8L-23.3,-47.2Z" shape-rendering="crispEdges"/><path fill="#FFFFD9" d="M-23.3,-47.2L-84.6,-30.3L-39.6,63.2Z" shape-rendering="crispEdges"/><path fill="#FFFFD9" d="M-78.3,-118.4L-11.8,-90.8L44.3,-94.3Z" shape-rendering="crispEdges"/><path fill="#081D58" d="M1931.8,1179.9L2014.2,1167.8L2021.9,1107.7Z" shape-rendering="crispEdges"/><path fill="#898498" d="M2031.4,75.1L2024.3,-101.4L2025.2,-48.5Z" shape-rendering="crispEdges"/><path fill="#898498" d="M2025.2,-48.5L2024.3,-101.4L1949.7,-83.4Z" shape-rendering="crispEdges"/><path fill="#898498" d="M1949.7,-83.4L2024.3,-101.4L1879.1,-84.4Z" shape-rendering="crispEdges"/><path fill="#9B92B5" d="M-116.1,885.2L-86.7,1051.7L-73.2,933.7Z" shape-rendering="crispEdges"/><path fill="#898496" d="M-2.6,1111.2L-19.9,1205.3L77.9,1170.1Z" shape-rendering="crispEdges"/><path fill="#8E889F" d="M-86.7,1051.7L-74.1,1085.3L-3.2,1007.1Z" shape-rendering="crispEdges"/><path fill="#FFFFD9" d="M-78.3,-118.4L-84.6,-30.3L-23.3,-47.2Z" shape-rendering="crispEdges"/><path fill="#898498" d="M-98.2,1156.9L-19.9,1205.3L-2.6,1111.2Z" shape-rendering="crispEdges"/><path fill="#888493" d="M77.9,1170.1L-19.9,1205.3L130.1,1177.1Z" shape-rendering="crispEdges"/><path fill="#838287" d="M233.9,1192.2L-19.9,1205.3L450.1,1195Z" shape-rendering="crispEdges"/><path fill="#496E89" d="M632.2,1201.1L-19.9,1205.3L1619.4,1201.5Z" shape-rendering="crispEdges"/><path fill="#FDFED4" d="M204.8,-112.3L-78.3,-118.4L44.3,-94.3Z" shape-rendering="crispEdges"/><path fill="#FFFFD9" d="M-11.8,-90.8L-78.3,-118.4L-23.3,-47.2Z" shape-rendering="crispEdges"/><path fill="#FFFFD9" d="M-84.6,-30.3L-78.3,-118.4L-100.3,102.1Z" shape-rendering="crispEdges"/><path fill="#F9FDCC" d="M357.1,-122.5L-78.3,-118.4L204.8,-112.3Z" shape-rendering="crispEdges"/><path fill="#898498" d="M-74.1,1085.3L-98.2,1156.9L-2.6,1111.2Z" shape-rendering="crispEdges"/><path fill="#898498" d="M-86.7,1051.7L-98.2,1156.9L-74.1,1085.3Z" shape-rendering="crispEdges"/><path fill="#908AA3" d="M-116.1,885.2L-98.2,1156.9L-86.7,1051.7Z" shape-rendering="crispEdges"/></svg>