<svg xmlns="http://www.w3.org/2000/svg" width="1920" height="1080"><path fill="#8DD08A" d="M979.5,460.2L985.4,365.6L846.8,386.9Z" shape-rendering="crispEdges"/><path fill="#8CCF89" d="M846.8,386.9L818.5,482.7L979.5,460.2Z" shape-rendering="crispEdges"/><path fill="#A4DA9F" d="M865.1,208.6L751.5,367.9L846.8,386.9Z" shape-rendering="crispEdges"/><path fill="#98D593" d="M846.8,386.9L751.5,367.9L818.5,482.7Z" shape-rendering="crispEdges"/><path fill="#88CC87" d="M979.5,460.2L1086.9,346.6L985.4,365.6Z" shape-rendering="crispEdges"/><path fill="#99D595" d="M985.4,365.6L947.4,232.9L846.8,386.9Z" shape-rendering="crispEdges"/><path fill="#9BD599" d="M1053.8,210L947.4,232.9L985.4,365.6Z" shape-rendering="crispEdges"/><path fill="#71C375" d="M921,636.1L1071.6,516.6L979.5,460.2Z" shape-rendering="crispEdges"/><path fill="#7DC77F" d="M979.5,460.2L1071.6,516.6L1086.9,346.6Z" shape-rendering="crispEdges"/><path fill="#81CA81" d="M709.6,582.6L860.5,599L818.5,482.7Z" shape-rendering="crispEdges"/><path fill="#80C97F" d="M818.5,482.7L860.5,599L979.5,460.2Z" shape-rendering="crispEdges"/><path fill="#A4D9A0" d="M947.4,232.9L865.1,208.6L846.8,386.9Z" shape-rendering="crispEdges"/><path fill="#74C377" d="M860.5,599L921,636.1L979.5,460.2Z" shape-rendering="crispEdges"/><path fill="#92D091" d="M1086.9,346.6L1053.8,210L985.4,365.6Z" shape-rendering="crispEdges"/><path fill="#ABDCA7" d="M947.4,232.9L955.4,125.2L865.1,208.6Z" shape-rendering="crispEdges"/><path fill="#97D492" d="M751.5,367.9L688.4,494.4L818.5,482.7Z" shape-rendering="crispEdges"/><path fill="#62BA6E" d="M870.3,696.9L924.9,686.4L921,636.1Z" shape-rendering="crispEdges"/><path fill="#65BC6E" d="M1069.5,624.9L1171.4,483.9L1071.6,516.6Z" shape-rendering="crispEdges"/><path fill="#75C37A" d="M1071.6,516.6L1171.4,483.9L1086.9,346.6Z" shape-rendering="crispEdges"/><path fill="#91CF92" d="M1086.9,346.6L1182.9,257L1053.8,210Z" shape-rendering="crispEdges"/><path fill="#65BC6E" d="M921,636.1L1069.5,624.9L1071.6,516.6Z" shape-rendering="crispEdges"/><path fill="#8CCF8A" d="M688.4,494.4L709.6,582.6L818.5,482.7Z" shape-rendering="crispEdges"/><path fill="#69BE72" d="M870.3,696.9L921,636.1L860.5,599Z" shape-rendering="crispEdges"/><path fill="#5FB96B" d="M921,636.1L924.9,686.4L1069.5,624.9Z" shape-rendering="crispEdges"/><path fill="#AFDEA8" d="M865.1,208.6L679.6,264.6L751.5,367.9Z" shape-rendering="crispEdges"/><path fill="#A2D99C" d="M607.3,322L621.7,507.2L688.4,494.4Z" shape-rendering="crispEdges"/><path fill="#A5D9A3" d="M1053.8,210L955.4,125.2L947.4,232.9Z" shape-rendering="crispEdges"/><path fill="#B9E3B3" d="M865.1,208.6L724.7,112.6L679.6,264.6Z" shape-rendering="crispEdges"/><path fill="#6CBF75" d="M705.3,706.1L870.3,696.9L860.5,599Z" shape-rendering="crispEdges"/><path fill="#84C988" d="M1225.3,365.7L1182.9,257L1086.9,346.6Z" shape-rendering="crispEdges"/><path fill="#A5D8A4" d="M1053.8,210L1076,139.1L955.4,125.2Z" shape-rendering="crispEdges"/><path fill="#79C47E" d="M1171.4,483.9L1225.3,365.7L1086.9,346.6Z" shape-rendering="crispEdges"/><path fill="#99D29B" d="M1182.9,257L1076,139.1L1053.8,210Z" shape-rendering="crispEdges"/><path fill="#A5DB9F" d="M607.3,322L688.4,494.4L751.5,367.9Z" shape-rendering="crispEdges"/><path fill="#91D18E" d="M688.4,494.4L621.7,507.2L709.6,582.6Z" shape-rendering="crispEdges"/><path fill="#57B567" d="M924.9,686.4L1085.2,681L1069.5,624.9Z" shape-rendering="crispEdges"/><path fill="#5AB769" d="M1069.5,624.9L1236.5,608.4L1171.4,483.9Z" shape-rendering="crispEdges"/><path fill="#72C079" d="M1171.4,483.9L1291.6,379.4L1225.3,365.7Z" shape-rendering="crispEdges"/><path fill="#52AE62" d="M980.6,832.6L1085.2,681L924.9,686.4Z" shape-rendering="crispEdges"/><path fill="#B1E0AA" d="M679.6,264.6L607.3,322L751.5,367.9Z" shape-rendering="crispEdges"/><path fill="#B8E1B4" d="M861.2,20.1L853,88L955.4,125.2Z" shape-rendering="crispEdges"/><path fill="#B4E0AF" d="M955.4,125.2L853,88L865.1,208.6Z" shape-rendering="crispEdges"/><path fill="#BBE4B4" d="M679.6,264.6L612.9,222.8L607.3,322Z" shape-rendering="crispEdges"/><path fill="#BBE3B6" d="M853,88L724.7,112.6L865.1,208.6Z" shape-rendering="crispEdges"/><path fill="#C0E6B9" d="M724.7,112.6L612.9,222.8L679.6,264.6Z" shape-rendering="crispEdges"/><path fill="#81C884" d="M591.1,593.9L705.3,706.1L709.6,582.6Z" shape-rendering="crispEdges"/><path fill="#78C57D" d="M709.6,582.6L705.3,706.1L860.5,599Z" shape-rendering="crispEdges"/><path fill="#69BA72" d="M1316.9,483.2L1291.6,379.4L1171.4,483.9Z" shape-rendering="crispEdges"/><path fill="#85C78A" d="M1225.3,365.7L1306,219.7L1182.9,257Z" shape-rendering="crispEdges"/><path fill="#51B264" d="M1085.2,681L1236.5,608.4L1069.5,624.9Z" shape-rendering="crispEdges"/><path fill="#9BD597" d="M471.1,471.6L591.1,593.9L621.7,507.2Z" shape-rendering="crispEdges"/><path fill="#8ECF8C" d="M621.7,507.2L591.1,593.9L709.6,582.6Z" shape-rendering="crispEdges"/><path fill="#ADDEA6" d="M481.5,394.6L621.7,507.2L607.3,322Z" shape-rendering="crispEdges"/><path fill="#B7E1B4" d="M966,-10.7L861.2,20.1L955.4,125.2Z" shape-rendering="crispEdges"/><path fill="#BFE5BA" d="M853,88L861.2,20.1L724.7,112.6Z" shape-rendering="crispEdges"/><path fill="#99D29C" d="M1182.9,257L1185.1,112.8L1076,139.1Z" shape-rendering="crispEdges"/><path fill="#AEDCAC" d="M1076,139.1L966,-10.7L955.4,125.2Z" shape-rendering="crispEdges"/><path fill="#93CE98" d="M1288.3,140.4L1185.1,112.8L1182.9,257Z" shape-rendering="crispEdges"/><path fill="#5CB669" d="M1236.5,608.4L1316.9,483.2L1171.4,483.9Z" shape-rendering="crispEdges"/><path fill="#AEDCAE" d="M1072,-31L966,-10.7L1076,139.1Z" shape-rendering="crispEdges"/><path fill="#56AB62" d="M855,873L980.6,832.6L870.3,696.9Z" shape-rendering="crispEdges"/><path fill="#59B166" d="M870.3,696.9L980.6,832.6L924.9,686.4Z" shape-rendering="crispEdges"/><path fill="#44AC5E" d="M1085.2,681L1173.4,759.7L1236.5,608.4Z" shape-rendering="crispEdges"/><path fill="#7EC083" d="M1413.3,271.7L1306,219.7L1291.6,379.4Z" shape-rendering="crispEdges"/><path fill="#7DC283" d="M1291.6,379.4L1306,219.7L1225.3,365.7Z" shape-rendering="crispEdges"/><path fill="#43A55A" d="M1047.7,851.8L1173.4,759.7L1085.2,681Z" shape-rendering="crispEdges"/><path fill="#52AE62" d="M1236.5,608.4L1343.7,603.1L1316.9,483.2Z" shape-rendering="crispEdges"/><path fill="#CBEAC5" d="M709.8,-10.6L617.5,97.8L724.7,112.6Z" shape-rendering="crispEdges"/><path fill="#C8E9C1" d="M724.7,112.6L617.5,97.8L612.9,222.8Z" shape-rendering="crispEdges"/><path fill="#BEE5B8" d="M442,226.6L481.5,394.6L607.3,322Z" shape-rendering="crispEdges"/><path fill="#7BC582" d="M591.1,593.9L612.7,720.8L705.3,706.1Z" shape-rendering="crispEdges"/><path fill="#5EAE68" d="M716.8,850L855,873L870.3,696.9Z" shape-rendering="crispEdges"/><path fill="#C3E7BC" d="M442,226.6L607.3,322L612.9,222.8Z" shape-rendering="crispEdges"/><path fill="#87CA8A" d="M591.1,593.9L500.4,607.3L612.7,720.8Z" shape-rendering="crispEdges"/><path fill="#A8DBA3" d="M481.5,394.6L471.1,471.6L621.7,507.2Z" shape-rendering="crispEdges"/><path fill="#8DC992" d="M1306,219.7L1288.3,140.4L1182.9,257Z" shape-rendering="crispEdges"/><path fill="#A4D7A6" d="M1185.1,112.8L1072,-31L1076,139.1Z" shape-rendering="crispEdges"/><path fill="#48A65B" d="M980.6,832.6L1047.7,851.8L1085.2,681Z" shape-rendering="crispEdges"/><path fill="#40A75A" d="M1286.1,755.9L1343.7,603.1L1236.5,608.4Z" shape-rendering="crispEdges"/><path fill="#67B670" d="M1316.9,483.2L1426.3,446L1291.6,379.4Z" shape-rendering="crispEdges"/><path fill="#98D496" d="M471.1,471.6L500.4,607.3L591.1,593.9Z" shape-rendering="crispEdges"/><path fill="#A2D5A6" d="M1228.9,36.8L1072,-31L1185.1,112.8Z" shape-rendering="crispEdges"/><path fill="#68B771" d="M716.8,850L870.3,696.9L705.3,706.1Z" shape-rendering="crispEdges"/><path fill="#3C964E" d="M986.6,970.4L1091.3,939.1L1047.7,851.8Z" shape-rendering="crispEdges"/><path fill="#C6E8C1" d="M861.2,20.1L709.8,-10.6L724.7,112.6Z" shape-rendering="crispEdges"/><path fill="#C6E7C1" d="M825,-92.1L709.8,-10.6L861.2,20.1Z" shape-rendering="crispEdges"/><path fill="#BAE2B7" d="M945.4,-93.3L861.2,20.1L966,-10.7Z" shape-rendering="crispEdges"/><path fill="#99CF9E" d="M1288.3,140.4L1228.9,36.8L1185.1,112.8Z" shape-rendering="crispEdges"/><path fill="#6FB676" d="M569.2,831.8L716.8,850L612.7,720.8Z" shape-rendering="crispEdges"/><path fill="#6FB977" d="M612.7,720.8L716.8,850L705.3,706.1Z" shape-rendering="crispEdges"/><path fill="#3B9E54" d="M1047.7,851.8L1196.2,813.1L1173.4,759.7Z" shape-rendering="crispEdges"/><path fill="#3CA558" d="M1173.4,759.7L1286.1,755.9L1236.5,608.4Z" shape-rendering="crispEdges"/><path fill="#D6EFD0" d="M467.5,-1.1L505.9,142.8L617.5,97.8Z" shape-rendering="crispEdges"/><path fill="#CCEBC6" d="M617.5,97.8L505.9,142.8L612.9,222.8Z" shape-rendering="crispEdges"/><path fill="#AEDEA9" d="M481.5,394.6L367.2,508.9L471.1,471.6Z" shape-rendering="crispEdges"/><path fill="#B1DDB1" d="M1056.3,-132.7L945.4,-93.3L1072,-31Z" shape-rendering="crispEdges"/><path fill="#B4DFB3" d="M1072,-31L945.4,-93.3L966,-10.7Z" shape-rendering="crispEdges"/><path fill="#359E53" d="M1196.2,813.1L1286.1,755.9L1173.4,759.7Z" shape-rendering="crispEdges"/><path fill="#50AB60" d="M1435.9,571.8L1316.9,483.2L1343.7,603.1Z" shape-rendering="crispEdges"/><path fill="#59AD65" d="M1435.9,571.8L1426.3,446L1316.9,483.2Z" shape-rendering="crispEdges"/><path fill="#8CC492" d="M1306,219.7L1473.9,120.7L1288.3,140.4Z" shape-rendering="crispEdges"/><path fill="#BFE4BB" d="M945.4,-93.3L825,-92.1L861.2,20.1Z" shape-rendering="crispEdges"/><path fill="#73B97A" d="M1476.1,373.1L1413.3,271.7L1291.6,379.4Z" shape-rendering="crispEdges"/><path fill="#98CC9E" d="M1288.3,140.4L1351.3,-7.5L1228.9,36.8Z" shape-rendering="crispEdges"/><path fill="#CCEBC5" d="M505.9,142.8L442,226.6L612.9,222.8Z" shape-rendering="crispEdges"/><path fill="#8BCC90" d="M386,631.2L516,746.4L500.4,607.3Z" shape-rendering="crispEdges"/><path fill="#81C687" d="M500.4,607.3L516,746.4L612.7,720.8Z" shape-rendering="crispEdges"/><path fill="#3FA157" d="M1446.5,710.4L1435.9,571.8L1343.7,603.1Z" shape-rendering="crispEdges"/><path fill="#6AB572" d="M1426.3,446L1476.1,373.1L1291.6,379.4Z" shape-rendering="crispEdges"/><path fill="#78BC7E" d="M516,746.4L569.2,831.8L612.7,720.8Z" shape-rendering="crispEdges"/><path fill="#4A9E56" d="M986.6,970.4L980.6,832.6L855,873Z" shape-rendering="crispEdges"/><path fill="#CFECCA" d="M743.4,-142.9L593.2,-34.1L709.8,-10.6Z" shape-rendering="crispEdges"/><path fill="#D2EDCC" d="M709.8,-10.6L593.2,-34.1L617.5,97.8Z" shape-rendering="crispEdges"/><path fill="#D6EFD0" d="M371.6,96.4L368.9,224.2L442,226.6Z" shape-rendering="crispEdges"/><path fill="#61AD69" d="M1554.2,460.9L1476.1,373.1L1426.3,446Z" shape-rendering="crispEdges"/><path fill="#439C53" d="M986.6,970.4L1047.7,851.8L980.6,832.6Z" shape-rendering="crispEdges"/><path fill="#399950" d="M1047.7,851.8L1091.3,939.1L1196.2,813.1Z" shape-rendering="crispEdges"/><path fill="#2F974E" d="M1196.2,813.1L1304.1,844.8L1286.1,755.9Z" shape-rendering="crispEdges"/><path fill="#57A460" d="M841.7,966.7L855,873L716.8,850Z" shape-rendering="crispEdges"/><path fill="#AAD9AC" d="M1180,-158.7L1056.3,-132.7L1072,-31Z" shape-rendering="crispEdges"/><path fill="#C2E6BE" d="M945.4,-93.3L743.4,-142.9L825,-92.1Z" shape-rendering="crispEdges"/><path fill="#B7E2B1" d="M324.3,355.9L367.2,508.9L481.5,394.6Z" shape-rendering="crispEdges"/><path fill="#A2D89E" d="M471.1,471.6L367.2,508.9L500.4,607.3Z" shape-rendering="crispEdges"/><path fill="#77B77D" d="M516,746.4L476.6,877L569.2,831.8Z" shape-rendering="crispEdges"/><path fill="#58A15F" d="M721.3,994.1L841.7,966.7L716.8,850Z" shape-rendering="crispEdges"/><path fill="#4B9B56" d="M841.7,966.7L986.6,970.4L855,873Z" shape-rendering="crispEdges"/><path fill="#9CD49B" d="M367.2,508.9L386,631.2L500.4,607.3Z" shape-rendering="crispEdges"/><path fill="#BBE2B8" d="M1056.3,-132.7L743.4,-142.9L945.4,-93.3Z" shape-rendering="crispEdges"/><path fill="#C9E9C4" d="M825,-92.1L743.4,-142.9L709.8,-10.6Z" shape-rendering="crispEdges"/><path fill="#2A9149" d="M1292.9,925L1304.1,844.8L1196.2,813.1Z" shape-rendering="crispEdges"/><path fill="#369F54" d="M1286.1,755.9L1446.5,710.4L1343.7,603.1Z" shape-rendering="crispEdges"/><path fill="#D6EFD0" d="M371.6,96.4L442,226.6L505.9,142.8Z" shape-rendering="crispEdges"/><path fill="#C3E7BD" d="M442,226.6L324.3,355.9L481.5,394.6Z" shape-rendering="crispEdges"/><path fill="#85C08A" d="M1473.9,120.7L1306,219.7L1413.3,271.7Z" shape-rendering="crispEdges"/><path fill="#92C697" d="M1473.9,120.7L1351.3,-7.5L1288.3,140.4Z" shape-rendering="crispEdges"/><path fill="#A5D6A9" d="M1228.9,36.8L1180,-158.7L1072,-31Z" shape-rendering="crispEdges"/><path fill="#CEECC7" d="M368.9,224.2L324.3,355.9L442,226.6Z" shape-rendering="crispEdges"/><path fill="#95D099" d="M232,608.6L367.7,737.2L386,631.2Z" shape-rendering="crispEdges"/><path fill="#2E964D" d="M1304.1,844.8L1446.5,710.4L1286.1,755.9Z" shape-rendering="crispEdges"/><path fill="#56A961" d="M1435.9,571.8L1554.2,460.9L1426.3,446Z" shape-rendering="crispEdges"/><path fill="#D8EFD2" d="M593.2,-34.1L467.5,-1.1L617.5,97.8Z" shape-rendering="crispEdges"/><path fill="#DCF1D7" d="M499.1,-96.5L467.5,-1.1L593.2,-34.1Z" shape-rendering="crispEdges"/><path fill="#60A465" d="M576.4,977.8L721.3,994.1L716.8,850Z" shape-rendering="crispEdges"/><path fill="#438F4E" d="M841.7,966.7L964.3,1081L986.6,970.4Z" shape-rendering="crispEdges"/><path fill="#7EB883" d="M1587.3,277.5L1473.9,120.7L1413.3,271.7Z" shape-rendering="crispEdges"/><path fill="#9ED0A4" d="M1351.3,-7.5L1180,-158.7L1228.9,36.8Z" shape-rendering="crispEdges"/><path fill="#B4DFB3" d="M1056.3,-132.7L1180,-158.7L743.4,-142.9Z" shape-rendering="crispEdges"/><path fill="#DCF1D6" d="M467.5,-1.1L371.6,96.4L505.9,142.8Z" shape-rendering="crispEdges"/><path fill="#CCEBC6" d="M243.3,227.2L269.7,384.4L324.3,355.9Z" shape-rendering="crispEdges"/><path fill="#49A157" d="M1598.6,608L1554.2,460.9L1435.9,571.8Z" shape-rendering="crispEdges"/><path fill="#73B479" d="M1476.1,373.1L1587.3,277.5L1413.3,271.7Z" shape-rendering="crispEdges"/><path fill="#278E46" d="M1240.2,966.2L1292.9,925L1196.2,813.1Z" shape-rendering="crispEdges"/><path fill="#288F48" d="M1471.7,828.9L1539.4,707.3L1446.5,710.4Z" shape-rendering="crispEdges"/><path fill="#2D9149" d="M1240.2,966.2L1196.2,813.1L1091.3,939.1Z" shape-rendering="crispEdges"/><path fill="#298743" d="M1178.2,1043.5L1240.2,966.2L1091.3,939.1Z" shape-rendering="crispEdges"/><path fill="#378A48" d="M1060.7,1089.8L1091.3,939.1L986.6,970.4Z" shape-rendering="crispEdges"/><path fill="#A1D7A0" d="M232,608.6L386,631.2L367.2,508.9Z" shape-rendering="crispEdges"/><path fill="#89C88E" d="M386,631.2L367.7,737.2L516,746.4Z" shape-rendering="crispEdges"/><path fill="#69AC6F" d="M569.2,831.8L576.4,977.8L716.8,850Z" shape-rendering="crispEdges"/><path fill="#7FBD85" d="M367.7,737.2L476.6,877L516,746.4Z" shape-rendering="crispEdges"/><path fill="#C2E6BE" d="M1180,-158.7L581.4,-142.3L743.4,-142.9Z" shape-rendering="crispEdges"/><path fill="#D3EDCE" d="M743.4,-142.9L581.4,-142.3L593.2,-34.1Z" shape-rendering="crispEdges"/><path fill="#E2F4DD" d="M467.5,-1.1L353,11.5L371.6,96.4Z" shape-rendering="crispEdges"/><path fill="#D2EDCB" d="M243.3,227.2L324.3,355.9L368.9,224.2Z" shape-rendering="crispEdges"/><path fill="#BDE4B6" d="M324.3,355.9L269.7,384.4L367.2,508.9Z" shape-rendering="crispEdges"/><path fill="#D9F0D4" d="M581.4,-142.3L499.1,-96.5L593.2,-34.1Z" shape-rendering="crispEdges"/><path fill="#6FAE74" d="M476.6,877L576.4,977.8L569.2,831.8Z" shape-rendering="crispEdges"/><path fill="#65AC6C" d="M1554.2,460.9L1582.7,330.1L1476.1,373.1Z" shape-rendering="crispEdges"/><path fill="#B7E2B2" d="M269.7,384.4L257.7,477.5L367.2,508.9Z" shape-rendering="crispEdges"/><path fill="#509257" d="M813.1,1092.6L841.7,966.7L721.3,994.1Z" shape-rendering="crispEdges"/><path fill="#478A4F" d="M813.1,1092.6L964.3,1081L841.7,966.7Z" shape-rendering="crispEdges"/><path fill="#6DAF73" d="M1582.7,330.1L1587.3,277.5L1476.1,373.1Z" shape-rendering="crispEdges"/><path fill="#2E8343" d="M1060.7,1089.8L1178.2,1043.5L1091.3,939.1Z" shape-rendering="crispEdges"/><path fill="#177737" d="M1412.3,1091.4L1456.3,969.9L1292.9,925Z" shape-rendering="crispEdges"/><path fill="#278F48" d="M1471.7,828.9L1446.5,710.4L1304.1,844.8Z" shape-rendering="crispEdges"/><path fill="#349A50" d="M1446.5,710.4L1539.4,707.3L1435.9,571.8Z" shape-rendering="crispEdges"/><path fill="#64A96A" d="M1554.2,460.9L1652.1,329.8L1582.7,330.1Z" shape-rendering="crispEdges"/><path fill="#1E8540" d="M1471.7,828.9L1304.1,844.8L1456.3,969.9Z" shape-rendering="crispEdges"/><path fill="#92C398" d="M1473.9,120.7L1469.8,-8.8L1351.3,-7.5Z" shape-rendering="crispEdges"/><path fill="#9CCEA2" d="M1351.3,-7.5L1348.6,-152.5L1180,-158.7Z" shape-rendering="crispEdges"/><path fill="#8CBD91" d="M1593.9,90.3L1469.8,-8.8L1473.9,120.7Z" shape-rendering="crispEdges"/><path fill="#518C56" d="M723.7,1112.9L813.1,1092.6L721.3,994.1Z" shape-rendering="crispEdges"/><path fill="#1F8540" d="M1456.3,969.9L1304.1,844.8L1292.9,925Z" shape-rendering="crispEdges"/><path fill="#E4F5E0" d="M382.8,-124.1L353,11.5L467.5,-1.1Z" shape-rendering="crispEdges"/><path fill="#DDF2D8" d="M258.3,80L243.3,227.2L368.9,224.2Z" shape-rendering="crispEdges"/><path fill="#357E43" d="M1050.3,1176.5L1060.7,1089.8L964.3,1081Z" shape-rendering="crispEdges"/><path fill="#398446" d="M964.3,1081L1060.7,1089.8L986.6,970.4Z" shape-rendering="crispEdges"/><path fill="#DFF3DA" d="M258.3,80L368.9,224.2L371.6,96.4Z" shape-rendering="crispEdges"/><path fill="#C4E7BE" d="M269.7,384.4L120.1,366.6L257.7,477.5Z" shape-rendering="crispEdges"/><path fill="#97C79D" d="M1454.8,-98.3L1348.6,-152.5L1351.3,-7.5Z" shape-rendering="crispEdges"/><path fill="#2C9048" d="M1704.7,681L1598.6,608L1539.4,707.3Z" shape-rendering="crispEdges"/><path fill="#399A50" d="M1539.4,707.3L1598.6,608L1435.9,571.8Z" shape-rendering="crispEdges"/><path fill="#6DAC72" d="M1582.7,330.1L1652.1,329.8L1587.3,277.5Z" shape-rendering="crispEdges"/><path fill="#ACDBA9" d="M144.4,594.8L232,608.6L257.7,477.5Z" shape-rendering="crispEdges"/><path fill="#ACDCA8" d="M257.7,477.5L232,608.6L367.2,508.9Z" shape-rendering="crispEdges"/><path fill="#7FBA85" d="M367.7,737.2L348.9,854.5L476.6,877Z" shape-rendering="crispEdges"/><path fill="#88C18D" d="M249,756.3L348.9,854.5L367.7,737.2Z" shape-rendering="crispEdges"/><path fill="#6EAA72" d="M476.6,877L444,966.1L576.4,977.8Z" shape-rendering="crispEdges"/><path fill="#578E5B" d="M564.3,1111.9L723.7,1112.9L721.3,994.1Z" shape-rendering="crispEdges"/><path fill="#387F44" d="M985,1239L1050.3,1176.5L964.3,1081Z" shape-rendering="crispEdges"/><path fill="#578D5B" d="M716.8,1163.7L723.7,1112.9L564.3,1111.9Z" shape-rendering="crispEdges"/><path fill="#77B17B" d="M348.9,854.5L444,966.1L476.6,877Z" shape-rendering="crispEdges"/><path fill="#5AA462" d="M1663,491.4L1652.1,329.8L1554.2,460.9Z" shape-rendering="crispEdges"/><path fill="#82B786" d="M1587.3,277.5L1593.9,90.3L1473.9,120.7Z" shape-rendering="crispEdges"/><path fill="#90BF96" d="M1594.2,6L1454.8,-98.3L1469.8,-8.8Z" shape-rendering="crispEdges"/><path fill="#95C49B" d="M1469.8,-8.8L1454.8,-98.3L1351.3,-7.5Z" shape-rendering="crispEdges"/><path fill="#E9F7E5" d="M223,31.7L258.3,80L353,11.5Z" shape-rendering="crispEdges"/><path fill="#E4F5E0" d="M353,11.5L258.3,80L371.6,96.4Z" shape-rendering="crispEdges"/><path fill="#7BB27F" d="M1648.9,228.7L1593.9,90.3L1587.3,277.5Z" shape-rendering="crispEdges"/><path fill="#4B9E57" d="M1598.6,608L1663,491.4L1554.2,460.9Z" shape-rendering="crispEdges"/><path fill="#84AF87" d="M1657.7,97.8L1803.7,26.6L1698.5,-19Z" shape-rendering="crispEdges"/><path fill="#71AD75" d="M1652.1,329.8L1648.9,228.7L1587.3,277.5Z" shape-rendering="crispEdges"/><path fill="#93CC98" d="M232,608.6L249,756.3L367.7,737.2Z" shape-rendering="crispEdges"/><path fill="#78AF7C" d="M348.9,854.5L332.7,944.1L444,966.1Z" shape-rendering="crispEdges"/><path fill="#E1F3DC" d="M499.1,-96.5L382.8,-124.1L467.5,-1.1Z" shape-rendering="crispEdges"/><path fill="#DFF2DA" d="M581.4,-142.3L382.8,-124.1L499.1,-96.5Z" shape-rendering="crispEdges"/><path fill="#20793C" d="M1287.7,1115.2L1240.2,966.2L1178.2,1043.5Z" shape-rendering="crispEdges"/><path fill="#1F7D3C" d="M1287.7,1115.2L1292.9,925L1240.2,966.2Z" shape-rendering="crispEdges"/><path fill="#218842" d="M1471.7,828.9L1595.7,808.2L1539.4,707.3Z" shape-rendering="crispEdges"/><path fill="#40974F" d="M1598.6,608L1693.8,587L1663,491.4Z" shape-rendering="crispEdges"/><path fill="#43844B" d="M877.5,1199.3L964.3,1081L813.1,1092.6Z" shape-rendering="crispEdges"/><path fill="#29793E" d="M1060.7,1089.8L1169.8,1176.2L1178.2,1043.5Z" shape-rendering="crispEdges"/><path fill="#5E9762" d="M564.3,1111.9L721.3,994.1L576.4,977.8Z" shape-rendering="crispEdges"/><path fill="#508A55" d="M723.7,1112.9L716.8,1163.7L813.1,1092.6Z" shape-rendering="crispEdges"/><path fill="#107936" d="M1643,866.2L1595.7,808.2L1565.5,976.9Z" shape-rendering="crispEdges"/><path fill="#E0F3DB" d="M144.5,96.6L147.8,278.4L243.3,227.2Z" shape-rendering="crispEdges"/><path fill="#D3EECD" d="M243.3,227.2L147.8,278.4L269.7,384.4Z" shape-rendering="crispEdges"/><path fill="#98CF9D" d="M232,608.6L143.3,697.6L249,756.3Z" shape-rendering="crispEdges"/><path fill="#87B68B" d="M1657.7,97.8L1594.2,6L1593.9,90.3Z" shape-rendering="crispEdges"/><path fill="#8CBB91" d="M1593.9,90.3L1594.2,6L1469.8,-8.8Z" shape-rendering="crispEdges"/><path fill="#689D6B" d="M498,1106L576.4,977.8L444,966.1Z" shape-rendering="crispEdges"/><path fill="#629365" d="M498,1106L564.3,1111.9L576.4,977.8Z" shape-rendering="crispEdges"/><path fill="#4B8851" d="M716.8,1163.7L877.5,1199.3L813.1,1092.6Z" shape-rendering="crispEdges"/><path fill="#329149" d="M1704.7,681L1693.8,587L1598.6,608Z" shape-rendering="crispEdges"/><path fill="#66A06A" d="M1815.5,359.4L1798.7,261L1652.1,329.8Z" shape-rendering="crispEdges"/><path fill="#ECF8E8" d="M231.8,-92.6L223,31.7L353,11.5Z" shape-rendering="crispEdges"/><path fill="#E6F5E1" d="M258.3,80L144.5,96.6L243.3,227.2Z" shape-rendering="crispEdges"/><path fill="#7EB281" d="M247.6,925.4L332.7,944.1L348.9,854.5Z" shape-rendering="crispEdges"/><path fill="#20753A" d="M1169.8,1176.2L1287.7,1115.2L1178.2,1043.5Z" shape-rendering="crispEdges"/><path fill="#B5E0B1" d="M97.8,473.5L144.4,594.8L257.7,477.5Z" shape-rendering="crispEdges"/><path fill="#87BD8C" d="M249,756.3L231.4,865.5L348.9,854.5Z" shape-rendering="crispEdges"/><path fill="#81B384" d="M1648.9,228.7L1657.7,97.8L1593.9,90.3Z" shape-rendering="crispEdges"/><path fill="#7BAD7E" d="M1657.7,97.8L1648.9,228.7L1798.6,145.7Z" shape-rendering="crispEdges"/><path fill="#D3EECE" d="M-3.5,354.8L120.1,366.6L147.8,278.4Z" shape-rendering="crispEdges"/><path fill="#CEECC8" d="M147.8,278.4L120.1,366.6L269.7,384.4Z" shape-rendering="crispEdges"/><path fill="#317C41" d="M985,1239L1169.8,1176.2L1050.3,1176.5Z" shape-rendering="crispEdges"/><path fill="#2E7B40" d="M1050.3,1176.5L1169.8,1176.2L1060.7,1089.8Z" shape-rendering="crispEdges"/><path fill="#6B996E" d="M345.9,1080.5L498,1106L444,966.1Z" shape-rendering="crispEdges"/><path fill="#5A8E5E" d="M564.3,1111.9L605.2,1236L716.8,1163.7Z" shape-rendering="crispEdges"/><path fill="#C1E6BC" d="M120.1,366.6L97.8,473.5L257.7,477.5Z" shape-rendering="crispEdges"/><path fill="#8BBE90" d="M111.4,860.6L231.4,865.5L249,756.3Z" shape-rendering="crispEdges"/><path fill="#68946A" d="M345.9,1080.5L483.6,1164L498,1106Z" shape-rendering="crispEdges"/><path fill="#A1D5A4" d="M143.3,697.6L232,608.6L144.4,594.8Z" shape-rendering="crispEdges"/><path fill="#238943" d="M1595.7,808.2L1704.7,681L1539.4,707.3Z" shape-rendering="crispEdges"/><path fill="#6EA872" d="M1798.7,261L1648.9,228.7L1652.1,329.8Z" shape-rendering="crispEdges"/><path fill="#A5D7A8" d="M16.1,586L143.3,697.6L144.4,594.8Z" shape-rendering="crispEdges"/><path fill="#3E8247" d="M877.5,1199.3L985,1239L964.3,1081Z" shape-rendering="crispEdges"/><path fill="#498750" d="M605.2,1236L985,1239L877.5,1199.3Z" shape-rendering="crispEdges"/><path fill="#528B56" d="M605.2,1236L877.5,1199.3L716.8,1163.7Z" shape-rendering="crispEdges"/><path fill="#EFF9EC" d="M91.1,-36.1L144.5,96.6L223,31.7Z" shape-rendering="crispEdges"/><path fill="#EBF7E6" d="M223,31.7L144.5,96.6L258.3,80Z" shape-rendering="crispEdges"/><path fill="#BBE2B7" d="M-7.9,467.1L16.1,586L97.8,473.5Z" shape-rendering="crispEdges"/><path fill="#176C34" d="M1340,1219L1412.3,1091.4L1287.7,1115.2Z" shape-rendering="crispEdges"/><path fill="#197337" d="M1287.7,1115.2L1412.3,1091.4L1292.9,925Z" shape-rendering="crispEdges"/><path fill="#167E3A" d="M1565.5,976.9L1595.7,808.2L1471.7,828.9Z" shape-rendering="crispEdges"/><path fill="#197F3B" d="M1595.7,808.2L1772.5,828.8L1704.7,681Z" shape-rendering="crispEdges"/><path fill="#86B88A" d="M111.4,860.6L247.6,925.4L231.4,865.5Z" shape-rendering="crispEdges"/><path fill="#82B686" d="M231.4,865.5L247.6,925.4L348.9,854.5Z" shape-rendering="crispEdges"/><path fill="#E9F6E5" d="M382.8,-124.1L231.8,-92.6L353,11.5Z" shape-rendering="crispEdges"/><path fill="#127A37" d="M1565.5,976.9L1471.7,828.9L1456.3,969.9Z" shape-rendering="crispEdges"/><path fill="#0C6B2F" d="M1564.1,1103.7L1565.5,976.9L1456.3,969.9Z" shape-rendering="crispEdges"/><path fill="#72A375" d="M345.9,1080.5L444,966.1L332.7,944.1Z" shape-rendering="crispEdges"/><path fill="#639266" d="M498,1106L483.6,1164L564.3,1111.9Z" shape-rendering="crispEdges"/><path fill="#8AB78F" d="M1698.5,-19L1600.3,-142.2L1594.2,6Z" shape-rendering="crispEdges"/><path fill="#8EBC93" d="M1594.2,6L1600.3,-142.2L1454.8,-98.3Z" shape-rendering="crispEdges"/><path fill="#92C298" d="M1454.8,-98.3L1600.3,-142.2L1348.6,-152.5Z" shape-rendering="crispEdges"/><path fill="#78A77A" d="M247.6,925.4L345.9,1080.5L332.7,944.1Z" shape-rendering="crispEdges"/><path fill="#609163" d="M483.6,1164L605.2,1236L564.3,1111.9Z" shape-rendering="crispEdges"/><path fill="#5CA062" d="M1652.1,329.8L1663,491.4L1815.5,359.4Z" shape-rendering="crispEdges"/><path fill="#87B58B" d="M1657.7,97.8L1698.5,-19L1594.2,6Z" shape-rendering="crispEdges"/><path fill="#479552" d="M1813.7,462.1L1663,491.4L1693.8,587Z" shape-rendering="crispEdges"/><path fill="#318B46" d="M1831.3,590.2L1693.8,587L1704.7,681Z" shape-rendering="crispEdges"/><path fill="#3F8E4B" d="M1831.3,590.2L1813.7,462.1L1693.8,587Z" shape-rendering="crispEdges"/><path fill="#53975A" d="M1813.7,462.1L1815.5,359.4L1663,491.4Z" shape-rendering="crispEdges"/><path fill="#1D7137" d="M1169.8,1176.2L1340,1219L1287.7,1115.2Z" shape-rendering="crispEdges"/><path fill="#0F682F" d="M1412.3,1091.4L1564.1,1103.7L1456.3,969.9Z" shape-rendering="crispEdges"/><path fill="#25773C" d="M985,1239L1340,1219L1169.8,1176.2Z" shape-rendering="crispEdges"/><path fill="#087231" d="M1565.5,976.9L1665.9,936.5L1643,866.2Z" shape-rendering="crispEdges"/><path fill="#127A37" d="M1643,866.2L1772.5,828.8L1595.7,808.2Z" shape-rendering="crispEdges"/><path fill="#04692C" d="M1655.7,1049.3L1665.9,936.5L1565.5,976.9Z" shape-rendering="crispEdges"/><path fill="#729B75" d="M1911,123.6L1798.6,145.7L1945.8,230.9Z" shape-rendering="crispEdges"/><path fill="#73A676" d="M1798.7,261L1798.6,145.7L1648.9,228.7Z" shape-rendering="crispEdges"/><path fill="#CBEAC5" d="M-3.5,354.8L97.8,473.5L120.1,366.6Z" shape-rendering="crispEdges"/><path fill="#B2DEB0" d="M97.8,473.5L16.1,586L144.4,594.8Z" shape-rendering="crispEdges"/><path fill="#91C697" d="M143.3,697.6L111.4,860.6L249,756.3Z" shape-rendering="crispEdges"/><path fill="#719773" d="M222.8,1111L321.3,1175L345.9,1080.5Z" shape-rendering="crispEdges"/><path fill="#E4F4DF" d="M12.8,208.5L147.8,278.4L144.5,96.6Z" shape-rendering="crispEdges"/><path fill="#DCF1D7" d="M12.8,208.5L-3.5,354.8L147.8,278.4Z" shape-rendering="crispEdges"/><path fill="#92C498" d="M28.1,814.1L111.4,860.6L143.3,697.6Z" shape-rendering="crispEdges"/><path fill="#258240" d="M1830.1,736.8L1831.3,590.2L1704.7,681Z" shape-rendering="crispEdges"/><path fill="#58925C" d="M1813.7,462.1L1948.4,342.6L1815.5,359.4Z" shape-rendering="crispEdges"/><path fill="#EBF7E7" d="M-26.4,148.1L12.8,208.5L144.5,96.6Z" shape-rendering="crispEdges"/><path fill="#C7E8C2" d="M-3.5,354.8L-7.9,467.1L97.8,473.5Z" shape-rendering="crispEdges"/><path fill="#F0F9ED" d="M231.8,-92.6L91.1,-36.1L223,31.7Z" shape-rendering="crispEdges"/><path fill="#85AE89" d="M1798.1,-109.9L1717.7,-100.9L1698.5,-19Z" shape-rendering="crispEdges"/><path fill="#88B48C" d="M1698.5,-19L1717.7,-100.9L1600.3,-142.2Z" shape-rendering="crispEdges"/><path fill="#0B622C" d="M1565.7,1191.9L1564.1,1103.7L1412.3,1091.4Z" shape-rendering="crispEdges"/><path fill="#056B2D" d="M1817.8,957.5L1772.5,828.8L1665.9,936.5Z" shape-rendering="crispEdges"/><path fill="#0A7332" d="M1665.9,936.5L1772.5,828.8L1643,866.2Z" shape-rendering="crispEdges"/><path fill="#146A32" d="M1340,1219L1413.2,1229.3L1412.3,1091.4Z" shape-rendering="crispEdges"/><path fill="#1E7338" d="M985,1239L1413.2,1229.3L1340,1219Z" shape-rendering="crispEdges"/><path fill="#7FAA82" d="M1798.6,145.7L1803.7,26.6L1657.7,97.8Z" shape-rendering="crispEdges"/><path fill="#7AA17D" d="M1911,123.6L1803.7,26.6L1798.6,145.7Z" shape-rendering="crispEdges"/><path fill="#619665" d="M1948.4,342.6L1798.7,261L1815.5,359.4Z" shape-rendering="crispEdges"/><path fill="#1B7B3A" d="M1772.5,828.8L1830.1,736.8L1704.7,681Z" shape-rendering="crispEdges"/><path fill="#A8D8AB" d="M-130.8,623.8L-1.4,700L16.1,586Z" shape-rendering="crispEdges"/><path fill="#A2D5A6" d="M16.1,586L-1.4,700L143.3,697.6Z" shape-rendering="crispEdges"/><path fill="#6C956E" d="M345.9,1080.5L321.3,1175L483.6,1164Z" shape-rendering="crispEdges"/><path fill="#669369" d="M483.6,1164L321.3,1175L605.2,1236Z" shape-rendering="crispEdges"/><path fill="#769F78" d="M222.8,1111L345.9,1080.5L247.6,925.4Z" shape-rendering="crispEdges"/><path fill="#79A07C" d="M222.8,1111L247.6,925.4L145.2,1074.4Z" shape-rendering="crispEdges"/><path fill="#06632A" d="M1564.1,1103.7L1655.7,1049.3L1565.5,976.9Z" shape-rendering="crispEdges"/><path fill="#167135" d="M1772.5,828.8L1919,757.6L1830.1,736.8Z" shape-rendering="crispEdges"/><path fill="#035B26" d="M1668.1,1175.5L1655.7,1049.3L1564.1,1103.7Z" shape-rendering="crispEdges"/><path fill="#EEF8EA" d="M382.8,-124.1L123.8,-151.2L231.8,-92.6Z" shape-rendering="crispEdges"/><path fill="#F1FAEE" d="M231.8,-92.6L123.8,-151.2L91.1,-36.1Z" shape-rendering="crispEdges"/><path fill="#F0F9ED" d="M-41.4,20.3L-26.4,148.1L144.5,96.6Z" shape-rendering="crispEdges"/><path fill="#E6F5E2" d="M581.4,-142.3L123.8,-151.2L382.8,-124.1Z" shape-rendering="crispEdges"/><path fill="#D4EECF" d="M1180,-158.7L123.8,-151.2L581.4,-142.3Z" shape-rendering="crispEdges"/><path fill="#99CC9F" d="M-1.4,700L28.1,814.1L143.3,697.6Z" shape-rendering="crispEdges"/><path fill="#E0F3DB" d="M12.8,208.5L-85.5,222.1L-3.5,354.8Z" shape-rendering="crispEdges"/><path fill="#C8E9C3" d="M-128.8,332.1L-111,502.3L-7.9,467.1Z" shape-rendering="crispEdges"/><path fill="#BBE2B7" d="M-7.9,467.1L-111,502.3L16.1,586Z" shape-rendering="crispEdges"/><path fill="#F3FAF0" d="M-41.4,20.3L144.5,96.6L91.1,-36.1Z" shape-rendering="crispEdges"/><path fill="#297E40" d="M1830.1,736.8L1890.4,605.5L1831.3,590.2Z" shape-rendering="crispEdges"/><path fill="#41884B" d="M1831.3,590.2L1935.4,509.4L1813.7,462.1Z" shape-rendering="crispEdges"/><path fill="#84B488" d="M80.5,977.2L247.6,925.4L111.4,860.6Z" shape-rendering="crispEdges"/><path fill="#0F652E" d="M1413.2,1229.3L1565.7,1191.9L1412.3,1091.4Z" shape-rendering="crispEdges"/><path fill="#87B58B" d="M-1.6,929.6L80.5,977.2L111.4,860.6Z" shape-rendering="crispEdges"/><path fill="#80A384" d="M1940.6,22.6L1798.1,-109.9L1803.7,26.6Z" shape-rendering="crispEdges"/><path fill="#84AB88" d="M1803.7,26.6L1798.1,-109.9L1698.5,-19Z" shape-rendering="crispEdges"/><path fill="#87B18A" d="M1717.7,-100.9L1798.1,-109.9L1600.3,-142.2Z" shape-rendering="crispEdges"/><path fill="#3E8248" d="M2018.3,479.5L1935.4,509.4L2033.1,592.8Z" shape-rendering="crispEdges"/><path fill="#388245" d="M1890.4,605.5L1935.4,509.4L1831.3,590.2Z" shape-rendering="crispEdges"/><path fill="#7EA981" d="M80.5,977.2L145.2,1074.4L247.6,925.4Z" shape-rendering="crispEdges"/><path fill="#739875" d="M222.8,1111L241.6,1217.7L321.3,1175Z" shape-rendering="crispEdges"/><path fill="#ECF8E8" d="M-163.5,102L-85.5,222.1L-26.4,148.1Z" shape-rendering="crispEdges"/><path fill="#E8F6E4" d="M-26.4,148.1L-85.5,222.1L12.8,208.5Z" shape-rendering="crispEdges"/><path fill="#4E8B54" d="M1935.4,509.4L1948.4,342.6L1813.7,462.1Z" shape-rendering="crispEdges"/><path fill="#6F9C72" d="M1945.8,230.9L1798.6,145.7L1798.7,261Z" shape-rendering="crispEdges"/><path fill="#CFECCA" d="M-128.8,332.1L-7.9,467.1L-3.5,354.8Z" shape-rendering="crispEdges"/><path fill="#8FBD94" d="M-163,838.6L-1.6,929.6L28.1,814.1Z" shape-rendering="crispEdges"/><path fill="#8DBC92" d="M28.1,814.1L-1.6,929.6L111.4,860.6Z" shape-rendering="crispEdges"/><path fill="#F6FCF4" d="M13.5,-130.6L-41.4,20.3L91.1,-36.1Z" shape-rendering="crispEdges"/><path fill="#659468" d="M1948.4,342.6L1945.8,230.9L1798.7,261Z" shape-rendering="crispEdges"/><path fill="#006428" d="M1655.7,1049.3L1817.8,957.5L1665.9,936.5Z" shape-rendering="crispEdges"/><path fill="#1F763A" d="M1830.1,736.8L1919,757.6L1890.4,605.5Z" shape-rendering="crispEdges"/><path fill="#005723" d="M1835.3,1104.3L1817.8,957.5L1655.7,1049.3Z" shape-rendering="crispEdges"/><path fill="#E5F5E0" d="M-163.5,102L-128.8,332.1L-85.5,222.1Z" shape-rendering="crispEdges"/><path fill="#DBF1D6" d="M-85.5,222.1L-128.8,332.1L-3.5,354.8Z" shape-rendering="crispEdges"/><path fill="#F4FBF2" d="M123.8,-151.2L13.5,-130.6L91.1,-36.1Z" shape-rendering="crispEdges"/><path fill="#769979" d="M114.4,1171.9L241.6,1217.7L222.8,1111Z" shape-rendering="crispEdges"/><path fill="#6B956E" d="M321.3,1175L241.6,1217.7L605.2,1236Z" shape-rendering="crispEdges"/><path fill="#136B32" d="M1954.5,807L1919,757.6L1772.5,828.8Z" shape-rendering="crispEdges"/><path fill="#4D8852" d="M1935.4,509.4L2018.3,479.5L1948.4,342.6Z" shape-rendering="crispEdges"/><path fill="#7A9B7D" d="M-4.6,1171.3L114.4,1171.9L145.2,1074.4Z" shape-rendering="crispEdges"/><path fill="#779A7A" d="M145.2,1074.4L114.4,1171.9L222.8,1111Z" shape-rendering="crispEdges"/><path fill="#99CA9F" d="M-96.1,751.9L28.1,814.1L-1.4,700Z" shape-rendering="crispEdges"/><path fill="#015924" d="M1766.7,1229.7L1668.1,1175.5L1565.7,1191.9Z" shape-rendering="crispEdges"/><path fill="#055D27" d="M1565.7,1191.9L1668.1,1175.5L1564.1,1103.7Z" shape-rendering="crispEdges"/><path fill="#A0D2A5" d="M-130.8,623.8L-96.1,751.9L-1.4,700Z" shape-rendering="crispEdges"/><path fill="#B2DEB1" d="M-130.8,623.8L16.1,586L-111,502.3Z" shape-rendering="crispEdges"/><path fill="#C0E5BC" d="M-128.8,332.1L-130.8,623.8L-111,502.3Z" shape-rendering="crispEdges"/><path fill="#7B9E7E" d="M1911,123.6L1940.6,22.6L1803.7,26.6Z" shape-rendering="crispEdges"/><path fill="#779A7A" d="M2058.7,121.2L1940.6,22.6L1911,123.6Z" shape-rendering="crispEdges"/><path fill="#377F44" d="M2033.1,592.8L1935.4,509.4L1890.4,605.5Z" shape-rendering="crispEdges"/><path fill="#609163" d="M1948.4,342.6L2068.5,353.3L1945.8,230.9Z" shape-rendering="crispEdges"/><path fill="#729874" d="M1945.8,230.9L2058.7,121.2L1911,123.6Z" shape-rendering="crispEdges"/><path fill="#0B672D" d="M1817.8,957.5L1954.5,807L1772.5,828.8Z" shape-rendering="crispEdges"/><path fill="#26773D" d="M1919,757.6L2033.1,592.8L1890.4,605.5Z" shape-rendering="crispEdges"/><path fill="#045F27" d="M1886,970.8L1954.5,807L1817.8,957.5Z" shape-rendering="crispEdges"/><path fill="#83AA87" d="M-42.1,1080.7L80.5,977.2L-1.6,929.6Z" shape-rendering="crispEdges"/><path fill="#7EA181" d="M-42.1,1080.7L145.2,1074.4L80.5,977.2Z" shape-rendering="crispEdges"/><path fill="#005422" d="M1835.3,1104.3L1886,970.8L1817.8,957.5Z" shape-rendering="crispEdges"/><path fill="#1E7238" d="M2045.9,754L2033.1,592.8L1919,757.6Z" shape-rendering="crispEdges"/><path fill="#F1FAEE" d="M-41.4,20.3L-163.5,102L-26.4,148.1Z" shape-rendering="crispEdges"/><path fill="#D4EECF" d="M-128.8,332.1L-163.5,102L-130.8,623.8Z" shape-rendering="crispEdges"/><path fill="#F4FBF2" d="M-158.2,-0.3L-163.5,102L-41.4,20.3Z" shape-rendering="crispEdges"/><path fill="#126830" d="M2048,839.2L2045.9,754L1954.5,807Z" shape-rendering="crispEdges"/><path fill="#052" d="M1668.1,1175.5L1835.3,1104.3L1655.7,1049.3Z" shape-rendering="crispEdges"/><path fill="#47864E" d="M2033.1,592.8L2068.5,353.3L2018.3,479.5Z" shape-rendering="crispEdges"/><path fill="#558C59" d="M2018.3,479.5L2068.5,353.3L1948.4,342.6Z" shape-rendering="crispEdges"/><path fill="#7D9C80" d="M2062.9,-40.6L1931,-148.7L1940.6,22.6Z" shape-rendering="crispEdges"/><path fill="#7E9F82" d="M1940.6,22.6L1931,-148.7L1798.1,-109.9Z" shape-rendering="crispEdges"/><path fill="#83AA87" d="M1798.1,-109.9L1931,-148.7L1600.3,-142.2Z" shape-rendering="crispEdges"/><path fill="#8BB78F" d="M1600.3,-142.2L1931,-148.7L1348.6,-152.5Z" shape-rendering="crispEdges"/><path fill="#91C097" d="M1348.6,-152.5L1931,-148.7L1180,-158.7Z" shape-rendering="crispEdges"/><path fill="#F7FCF5" d="M-147.7,-140.3L-158.2,-0.3L-41.4,20.3Z" shape-rendering="crispEdges"/><path fill="#9BCCA1" d="M-130.8,623.8L-163,838.6L-96.1,751.9Z" shape-rendering="crispEdges"/><path fill="#95C49B" d="M-96.1,751.9L-163,838.6L28.1,814.1Z" shape-rendering="crispEdges"/><path fill="#BAE2B7" d="M-163.5,102L-163,838.6L-130.8,623.8Z" shape-rendering="crispEdges"/><path fill="#6F9671" d="M2081.6,200.9L2058.7,121.2L1945.8,230.9Z" shape-rendering="crispEdges"/><path fill="#85AD88" d="M-157,939.8L-42.1,1080.7L-1.6,929.6Z" shape-rendering="crispEdges"/><path fill="#156B32" d="M1954.5,807L2045.9,754L1919,757.6Z" shape-rendering="crispEdges"/><path fill="#377F44" d="M2033.1,592.8L2045.9,754L2068.5,353.3Z" shape-rendering="crispEdges"/><path fill="#055D27" d="M2006.5,931.3L1954.5,807L1886,970.8Z" shape-rendering="crispEdges"/><path fill="#005221" d="M1668.1,1175.5L1766.7,1229.7L1835.3,1104.3Z" shape-rendering="crispEdges"/><path fill="#005221" d="M2010.3,1048.3L2006.5,931.3L1886,970.8Z" shape-rendering="crispEdges"/><path fill="#065E28" d="M1413.2,1229.3L1766.7,1229.7L1565.7,1191.9Z" shape-rendering="crispEdges"/><path fill="#146A32" d="M985,1239L1766.7,1229.7L1413.2,1229.3Z" shape-rendering="crispEdges"/><path fill="#357E43" d="M2064.6,1176.3L2081.6,200.9L2068.5,353.3Z" shape-rendering="crispEdges"/><path fill="#679369" d="M2068.5,353.3L2081.6,200.9L1945.8,230.9Z" shape-rendering="crispEdges"/><path fill="#7D9C80" d="M-125.4,1187.2L-4.6,1171.3L-42.1,1080.7Z" shape-rendering="crispEdges"/><path fill="#7C9C7F" d="M-42.1,1080.7L-4.6,1171.3L145.2,1074.4Z" shape-rendering="crispEdges"/><path fill="#799A7C" d="M114.4,1171.9L-4.6,1171.3L241.6,1217.7Z" shape-rendering="crispEdges"/><path fill="#8CB890" d="M-163,838.6L-157,939.8L-1.6,929.6Z" shape-rendering="crispEdges"/><path fill="#F7FCF5" d="M123.8,-151.2L-147.7,-140.3L13.5,-130.6Z" shape-rendering="crispEdges"/><path fill="#F7FCF5" d="M13.5,-130.6L-147.7,-140.3L-41.4,20.3Z" shape-rendering="crispEdges"/><path fill="#00491D" d="M1945.4,1114.6L1886,970.8L1835.3,1104.3Z" shape-rendering="crispEdges"/><path fill="#0A612B" d="M2006.5,931.3L2048,839.2L1954.5,807Z" shape-rendering="crispEdges"/><path fill="#27783D" d="M2045.9,754L2048,839.2L2068.5,353.3Z" shape-rendering="crispEdges"/><path fill="#7B9B7E" d="M2058.7,121.2L2062.9,-40.6L1940.6,22.6Z" shape-rendering="crispEdges"/><path fill="#779A7A" d="M2081.6,200.9L2062.9,-40.6L2058.7,121.2Z" shape-rendering="crispEdges"/><path fill="#00451B" d="M1960.8,1212.8L1945.4,1114.6L1835.3,1104.3Z" shape-rendering="crispEdges"/><path fill="#015924" d="M2006.5,931.3L2010.3,1048.3L2048,839.2Z" shape-rendering="crispEdges"/><path fill="#7C9C7F" d="M2081.6,200.9L2063.4,-105.2L2062.9,-40.6Z" shape-rendering="crispEdges"/><path fill="#7D9C80" d="M2062.9,-40.6L2063.4,-105.2L1931,-148.7Z" shape-rendering="crispEdges"/><path fill="#00491D" d="M1945.4,1114.6L2010.3,1048.3L1886,970.8Z" shape-rendering="crispEdges"/><path fill="#88B38B" d="M-163,838.6L-161,1069.4L-157,939.8Z" shape-rendering="crispEdges"/><path fill="#81A584" d="M-157,939.8L-161,1069.4L-42.1,1080.7Z" shape-rendering="crispEdges"/><path fill="#7D9C80" d="M-161,1069.4L-125.4,1187.2L-42.1,1080.7Z" shape-rendering="crispEdges"/><path fill="#7C9B7F" d="M-4.6,1171.3L-125.4,1187.2L241.6,1217.7Z" shape-rendering="crispEdges"/><path fill="#00491D" d="M1766.7,1229.7L1960.8,1212.8L1835.3,1104.3Z" shape-rendering="crispEdges"/><path fill="#00441B" d="M1945.4,1114.6L2064.6,1176.3L2010.3,1048.3Z" shape-rendering="crispEdges"/><path fill="#00441B" d="M1960.8,1212.8L2064.6,1176.3L1945.4,1114.6Z" shape-rendering="crispEdges"/><path fill="#004D1F" d="M2010.3,1048.3L2064.6,1176.3L2048,839.2Z" shape-rendering="crispEdges"/><path fill="#136931" d="M2048,839.2L2064.6,1176.3L2068.5,353.3Z" shape-rendering="crispEdges"/></svg>