<svg xmlns="http://www.w3.org/2000/svg" width="1920" height="1080"><path fill="#D5D0E3" d="M903.1,666.8L902.5,884.7L1041.9,711.2Z" shape-rendering="crispEdges"/><path fill="#BBB4D2" d="M902.5,884.7L1051.8,957.9L1041.9,711.2Z" shape-rendering="crispEdges"/><path fill="#C7B4C0" d="M903.1,666.8L647.4,940.7L902.5,884.7Z" shape-rendering="crispEdges"/><path fill="#A687B7" d="M902.5,884.7L821.5,1103.6L1051.8,957.9Z" shape-rendering="crispEdges"/><path fill="#AB81A3" d="M647.4,940.7L821.5,1103.6L902.5,884.7Z" shape-rendering="crispEdges"/><path fill="#C0BCDB" d="M1312.3,956.4L1264.4,599.3L1041.9,711.2Z" shape-rendering="crispEdges"/><path fill="#E9EAF2" d="M1041.9,711.2L1105.3,443.2L903.1,666.8Z" shape-rendering="crispEdges"/><path fill="#E2E4EF" d="M1264.4,599.3L1105.3,443.2L1041.9,711.2Z" shape-rendering="crispEdges"/><path fill="#DFC4BB" d="M903.1,666.8L589.8,599.5L647.4,940.7Z" shape-rendering="crispEdges"/><path fill="#FBECDA" d="M876.4,366.6L589.8,599.5L903.1,666.8Z" shape-rendering="crispEdges"/><path fill="#90769F" d="M821.5,1103.6L1092.3,1154.2L1051.8,957.9Z" shape-rendering="crispEdges"/><path fill="#ABA2CA" d="M1051.8,957.9L1312.3,956.4L1041.9,711.2Z" shape-rendering="crispEdges"/><path fill="#8D74A9" d="M1092.3,1154.2L1312.3,956.4L1051.8,957.9Z" shape-rendering="crispEdges"/><path fill="#F9F2E8" d="M1105.3,443.2L876.4,366.6L903.1,666.8Z" shape-rendering="crispEdges"/><path fill="#FFDBAC" d="M876.4,366.6L666,355.1L589.8,599.5Z" shape-rendering="crispEdges"/><path fill="#7A6093" d="M1092.3,1154.2L1303.7,1138.5L1312.3,956.4Z" shape-rendering="crispEdges"/><path fill="#976472" d="M647.4,940.7L588.6,1183.7L821.5,1103.6Z" shape-rendering="crispEdges"/><path fill="#8B729C" d="M848,1365.7L1127.6,1318.4L1092.3,1154.2Z" shape-rendering="crispEdges"/><path fill="#98585C" d="M432,1079.9L588.6,1183.7L647.4,940.7Z" shape-rendering="crispEdges"/><path fill="#E3AD8B" d="M321.5,620.4L406.3,837.6L589.8,599.5Z" shape-rendering="crispEdges"/><path fill="#D4A392" d="M589.8,599.5L406.3,837.6L647.4,940.7Z" shape-rendering="crispEdges"/><path fill="#FFDBB5" d="M1105.3,443.2L896.6,225L876.4,366.6Z" shape-rendering="crispEdges"/><path fill="#FECC92" d="M876.4,366.6L896.6,225L666,355.1Z" shape-rendering="crispEdges"/><path fill="#F5C398" d="M1071.4,122.5L896.6,225L1105.3,443.2Z" shape-rendering="crispEdges"/><path fill="#D3C4CF" d="M1518.9,428.2L1363.1,411.7L1264.4,599.3Z" shape-rendering="crispEdges"/><path fill="#E1D7DB" d="M1264.4,599.3L1363.1,411.7L1105.3,443.2Z" shape-rendering="crispEdges"/><path fill="#B0A9D0" d="M1543.6,681.5L1264.4,599.3L1312.3,956.4Z" shape-rendering="crispEdges"/><path fill="#7F6797" d="M1092.3,1154.2L1127.6,1318.4L1303.7,1138.5Z" shape-rendering="crispEdges"/><path fill="#917498" d="M848,1365.7L1092.3,1154.2L821.5,1103.6Z" shape-rendering="crispEdges"/><path fill="#AF6871" d="M406.3,837.6L432,1079.9L647.4,940.7Z" shape-rendering="crispEdges"/><path fill="#966574" d="M669.3,1413.4L848,1365.7L588.6,1183.7Z" shape-rendering="crispEdges"/><path fill="#956A7E" d="M588.6,1183.7L848,1365.7L821.5,1103.6Z" shape-rendering="crispEdges"/><path fill="#9286B9" d="M1568.5,828.3L1543.6,681.5L1312.3,956.4Z" shape-rendering="crispEdges"/><path fill="#765AA2" d="M1510,1109.3L1568.5,828.3L1312.3,956.4Z" shape-rendering="crispEdges"/><path fill="#FCB761" d="M606.2,217.4L428.2,399.4L666,355.1Z" shape-rendering="crispEdges"/><path fill="#FECC90" d="M666,355.1L428.2,399.4L589.8,599.5Z" shape-rendering="crispEdges"/><path fill="#F9C495" d="M428.2,399.4L321.5,620.4L589.8,599.5Z" shape-rendering="crispEdges"/><path fill="#A1535C" d="M406.3,837.6L105.3,927.8L432,1079.9Z" shape-rendering="crispEdges"/><path fill="#F8B870" d="M896.6,225L606.2,217.4L666,355.1Z" shape-rendering="crispEdges"/><path fill="#6D528D" d="M1303.7,1138.5L1510,1109.3L1312.3,956.4Z" shape-rendering="crispEdges"/><path fill="#6B5089" d="M1310,1353.9L1510,1109.3L1303.7,1138.5Z" shape-rendering="crispEdges"/><path fill="#E9B895" d="M1376,250.5L1071.4,122.5L1105.3,443.2Z" shape-rendering="crispEdges"/><path fill="#E6A569" d="M896.6,225L885.3,5.4L606.2,217.4Z" shape-rendering="crispEdges"/><path fill="#AB9AC6" d="M1831,638.6L1518.9,428.2L1543.6,681.5Z" shape-rendering="crispEdges"/><path fill="#C3BDD9" d="M1543.6,681.5L1518.9,428.2L1264.4,599.3Z" shape-rendering="crispEdges"/><path fill="#E3C1B1" d="M1363.1,411.7L1376,250.5L1105.3,443.2Z" shape-rendering="crispEdges"/><path fill="#D3ADA4" d="M1518.9,428.2L1376,250.5L1363.1,411.7Z" shape-rendering="crispEdges"/><path fill="#866D9A" d="M848,1365.7L1310,1353.9L1127.6,1318.4Z" shape-rendering="crispEdges"/><path fill="#785F92" d="M1127.6,1318.4L1310,1353.9L1303.7,1138.5Z" shape-rendering="crispEdges"/><path fill="#955559" d="M409.8,1311.3L669.3,1413.4L588.6,1183.7Z" shape-rendering="crispEdges"/><path fill="#91759B" d="M848,1365.7L669.3,1413.4L1310,1353.9Z" shape-rendering="crispEdges"/><path fill="#904B4D" d="M432,1079.9L409.8,1311.3L588.6,1183.7Z" shape-rendering="crispEdges"/><path fill="#85393C" d="M171.3,1143.6L409.8,1311.3L432,1079.9Z" shape-rendering="crispEdges"/><path fill="#C5967B" d="M1030.7,-61.7L885.3,5.4L1071.4,122.5Z" shape-rendering="crispEdges"/><path fill="#E1A780" d="M1071.4,122.5L885.3,5.4L896.6,225Z" shape-rendering="crispEdges"/><path fill="#6C509B" d="M1510,1109.3L1724.9,851.5L1568.5,828.3Z" shape-rendering="crispEdges"/><path fill="#8A77B2" d="M1568.5,828.3L1724.9,851.5L1543.6,681.5Z" shape-rendering="crispEdges"/><path fill="#4D2577" d="M1785.5,1183.8L1724.9,851.5L1510,1109.3Z" shape-rendering="crispEdges"/><path fill="#DFA580" d="M126.5,448.9L172.9,593.8L321.5,620.4Z" shape-rendering="crispEdges"/><path fill="#BF806F" d="M321.5,620.4L105.3,927.8L406.3,837.6Z" shape-rendering="crispEdges"/><path fill="#EAAC77" d="M126.5,448.9L321.5,620.4L428.2,399.4Z" shape-rendering="crispEdges"/><path fill="#BA8B77" d="M1300.8,-10.2L1030.7,-61.7L1071.4,122.5Z" shape-rendering="crispEdges"/><path fill="#C68B75" d="M172.9,593.8L105.3,927.8L321.5,620.4Z" shape-rendering="crispEdges"/><path fill="#81343F" d="M105.3,927.8L171.3,1143.6L432,1079.9Z" shape-rendering="crispEdges"/><path fill="#D38E4E" d="M885.3,5.4L559.5,9.5L606.2,217.4Z" shape-rendering="crispEdges"/><path fill="#EB9534" d="M606.2,217.4L313.3,151.2L428.2,399.4Z" shape-rendering="crispEdges"/><path fill="#C08857" d="M775,-259.1L559.5,9.5L885.3,5.4Z" shape-rendering="crispEdges"/><path fill="#B7796C" d="M1605.3,150.1L1300.8,-10.2L1376,250.5Z" shape-rendering="crispEdges"/><path fill="#CA8F77" d="M1376,250.5L1300.8,-10.2L1071.4,122.5Z" shape-rendering="crispEdges"/><path fill="#DE9045" d="M121.6,213.1L126.5,448.9L428.2,399.4Z" shape-rendering="crispEdges"/><path fill="#925F60" d="M-112.7,650.5L-83.9,907.5L105.3,927.8Z" shape-rendering="crispEdges"/><path fill="#7F6696" d="M669.3,1413.4L1565.2,1406.2L1310,1353.9Z" shape-rendering="crispEdges"/><path fill="#604481" d="M1310,1353.9L1565.2,1406.2L1510,1109.3Z" shape-rendering="crispEdges"/><path fill="#D67F29" d="M559.5,9.5L313.3,151.2L606.2,217.4Z" shape-rendering="crispEdges"/><path fill="#8D74B3" d="M1724.9,851.5L1831,638.6L1543.6,681.5Z" shape-rendering="crispEdges"/><path fill="#C58E80" d="M1518.9,428.2L1605.3,150.1L1376,250.5Z" shape-rendering="crispEdges"/><path fill="#72578E" d="M2027,676.1L1831,638.6L2040.7,905.1Z" shape-rendering="crispEdges"/><path fill="#B77674" d="M1723.9,226.2L1605.3,150.1L1518.9,428.2Z" shape-rendering="crispEdges"/><path fill="#4D2A72" d="M1565.2,1406.2L1785.5,1183.8L1510,1109.3Z" shape-rendering="crispEdges"/><path fill="#B27888" d="M1847.7,403.2L1723.9,226.2L1518.9,428.2Z" shape-rendering="crispEdges"/><path fill="#A986B1" d="M1831,638.6L1847.7,403.2L1518.9,428.2Z" shape-rendering="crispEdges"/><path fill="#B45906" d="M182.6,-51.6L121.6,213.1L313.3,151.2Z" shape-rendering="crispEdges"/><path fill="#DA8122" d="M313.3,151.2L121.6,213.1L428.2,399.4Z" shape-rendering="crispEdges"/><path fill="#AF7C70" d="M-112.7,650.5L105.3,927.8L172.9,593.8Z" shape-rendering="crispEdges"/><path fill="#692438" d="M-92.1,1102.2L171.3,1143.6L105.3,927.8Z" shape-rendering="crispEdges"/><path fill="#642032" d="M-92.1,1102.2L91.6,1298.8L171.3,1143.6Z" shape-rendering="crispEdges"/><path fill="#792D37" d="M171.3,1143.6L91.6,1298.8L409.8,1311.3Z" shape-rendering="crispEdges"/><path fill="#83373B" d="M409.8,1311.3L-113.3,1419.5L669.3,1413.4Z" shape-rendering="crispEdges"/><path fill="#8F4153" d="M1788,-76.1L1605.3,150.1L1723.9,226.2Z" shape-rendering="crispEdges"/><path fill="#814053" d="M1788,-76.1L1584.2,-17.2L1605.3,150.1Z" shape-rendering="crispEdges"/><path fill="#996160" d="M1605.3,150.1L1584.2,-17.2L1300.8,-10.2Z" shape-rendering="crispEdges"/><path fill="#B58876" d="M1300.8,-10.2L1099.8,-246.2L1030.7,-61.7Z" shape-rendering="crispEdges"/><path fill="#AC7E71" d="M1311,-344.1L1099.8,-246.2L1300.8,-10.2Z" shape-rendering="crispEdges"/><path fill="#C29171" d="M1030.7,-61.7L775,-259.1L885.3,5.4Z" shape-rendering="crispEdges"/><path fill="#B66413" d="M559.5,9.5L342.3,-91.7L313.3,151.2Z" shape-rendering="crispEdges"/><path fill="#C8977B" d="M-112.7,650.5L172.9,593.8L126.5,448.9Z" shape-rendering="crispEdges"/><path fill="#C1947A" d="M1099.8,-246.2L775,-259.1L1030.7,-61.7Z" shape-rendering="crispEdges"/><path fill="#B2641A" d="M395.6,-232.4L342.3,-91.7L559.5,9.5Z" shape-rendering="crispEdges"/><path fill="#411469" d="M1565.2,1406.2L1821.9,1367.4L1785.5,1183.8Z" shape-rendering="crispEdges"/><path fill="#6B4F8E" d="M2040.7,905.1L1831,638.6L1724.9,851.5Z" shape-rendering="crispEdges"/><path fill="#947598" d="M1831,638.6L2027.1,474.5L1847.7,403.2Z" shape-rendering="crispEdges"/><path fill="#C29272" d="M-103.2,432L-112.7,650.5L126.5,448.9Z" shape-rendering="crispEdges"/><path fill="#461972" d="M2040.7,905.1L1724.9,851.5L1785.5,1183.8Z" shape-rendering="crispEdges"/><path fill="#7E3041" d="M1992.8,136.7L1788,-76.1L1723.9,226.2Z" shape-rendering="crispEdges"/><path fill="#722D4A" d="M-339.5,934.3L-92.1,1102.2L-83.9,907.5Z" shape-rendering="crispEdges"/><path fill="#732E4A" d="M-83.9,907.5L-92.1,1102.2L105.3,927.8Z" shape-rendering="crispEdges"/><path fill="#C68345" d="M121.6,213.1L-103.2,432L126.5,448.9Z" shape-rendering="crispEdges"/><path fill="#B86F2A" d="M-157.8,222.3L-103.2,432L121.6,213.1Z" shape-rendering="crispEdges"/><path fill="#2D004B" d="M1984.4,1174.9L2040.7,905.1L1785.5,1183.8Z" shape-rendering="crispEdges"/><path fill="#330454" d="M1821.9,1367.4L1984.4,1174.9L1785.5,1183.8Z" shape-rendering="crispEdges"/><path fill="#876E9A" d="M2185.4,681L2027.1,474.5L2027,676.1Z" shape-rendering="crispEdges"/><path fill="#896F9B" d="M2027,676.1L2027.1,474.5L1831,638.6Z" shape-rendering="crispEdges"/><path fill="#9A4A08" d="M83.4,-214.2L182.6,-51.6L342.3,-91.7Z" shape-rendering="crispEdges"/><path fill="#A3530A" d="M342.3,-91.7L182.6,-51.6L313.3,151.2Z" shape-rendering="crispEdges"/><path fill="#BF8047" d="M775,-259.1L649.6,-321.7L559.5,9.5Z" shape-rendering="crispEdges"/><path fill="#C18E68" d="M1099.8,-246.2L649.6,-321.7L775,-259.1Z" shape-rendering="crispEdges"/><path fill="#804454" d="M1788,-76.1L1503.8,-219.8L1584.2,-17.2Z" shape-rendering="crispEdges"/><path fill="#936061" d="M1584.2,-17.2L1503.8,-219.8L1300.8,-10.2Z" shape-rendering="crispEdges"/><path fill="#BE9179" d="M1099.8,-246.2L1311,-344.1L649.6,-321.7Z" shape-rendering="crispEdges"/><path fill="#BA722D" d="M649.6,-321.7L395.6,-232.4L559.5,9.5Z" shape-rendering="crispEdges"/><path fill="#9E6D69" d="M1503.8,-219.8L1311,-344.1L1300.8,-10.2Z" shape-rendering="crispEdges"/><path fill="#984E53" d="M1992.8,136.7L1723.9,226.2L1847.7,403.2Z" shape-rendering="crispEdges"/><path fill="#8B575C" d="M1503.8,-219.8L1769.2,-349.8L1311,-344.1Z" shape-rendering="crispEdges"/><path fill="#965B61" d="M2027.1,474.5L1992.8,136.7L1847.7,403.2Z" shape-rendering="crispEdges"/><path fill="#9B4C08" d="M-47.1,-72.8L-157.8,222.3L121.6,213.1Z" shape-rendering="crispEdges"/><path fill="#BB8E78" d="M-103.2,432L-317.6,695.7L-112.7,650.5Z" shape-rendering="crispEdges"/><path fill="#5C1C30" d="M-378.6,1182.9L-113.3,1419.5L-92.1,1102.2Z" shape-rendering="crispEdges"/><path fill="#914508" d="M-47.1,-72.8L121.6,213.1L182.6,-51.6Z" shape-rendering="crispEdges"/><path fill="#A3726C" d="M-317.6,695.7L-83.9,907.5L-112.7,650.5Z" shape-rendering="crispEdges"/><path fill="#5C1C30" d="M-92.1,1102.2L-113.3,1419.5L91.6,1298.8Z" shape-rendering="crispEdges"/><path fill="#6D2534" d="M91.6,1298.8L-113.3,1419.5L409.8,1311.3Z" shape-rendering="crispEdges"/><path fill="#72588E" d="M2194.6,855.4L2185.4,681L2027,676.1Z" shape-rendering="crispEdges"/><path fill="#904B4D" d="M2027.1,474.5L2296.7,201.9L1992.8,136.7Z" shape-rendering="crispEdges"/><path fill="#624783" d="M2194.6,855.4L2027,676.1L2040.7,905.1Z" shape-rendering="crispEdges"/><path fill="#3F1267" d="M2213,1177.2L2194.6,855.4L2040.7,905.1Z" shape-rendering="crispEdges"/><path fill="#C2916F" d="M-297.2,365.5L-317.6,695.7L-103.2,432Z" shape-rendering="crispEdges"/><path fill="#2D004B" d="M1821.9,1367.4L2059.2,1404.7L1984.4,1174.9Z" shape-rendering="crispEdges"/><path fill="#2D004B" d="M1984.4,1174.9L2213,1177.2L2040.7,905.1Z" shape-rendering="crispEdges"/><path fill="#37095B" d="M1565.2,1406.2L2059.2,1404.7L1821.9,1367.4Z" shape-rendering="crispEdges"/><path fill="#644884" d="M669.3,1413.4L2059.2,1404.7L1565.2,1406.2Z" shape-rendering="crispEdges"/><path fill="#937190" d="M-113.3,1419.5L2059.2,1404.7L669.3,1413.4Z" shape-rendering="crispEdges"/><path fill="#8E5B5E" d="M-317.6,695.7L-339.5,934.3L-83.9,907.5Z" shape-rendering="crispEdges"/><path fill="#894008" d="M83.4,-214.2L-47.1,-72.8L182.6,-51.6Z" shape-rendering="crispEdges"/><path fill="#BE7A3B" d="M-157.8,222.3L-297.2,365.5L-103.2,432Z" shape-rendering="crispEdges"/><path fill="#AB7D71" d="M-378.9,-17.8L-378.6,1182.9L-339.5,934.3Z" shape-rendering="crispEdges"/><path fill="#B3661D" d="M-340.8,168.1L-297.2,365.5L-157.8,222.3Z" shape-rendering="crispEdges"/><path fill="#A2520A" d="M395.6,-232.4L83.4,-214.2L342.3,-91.7Z" shape-rendering="crispEdges"/><path fill="#914508" d="M-61.3,-247.7L83.4,-214.2L395.6,-232.4Z" shape-rendering="crispEdges"/><path fill="#5D1D31" d="M1992.8,136.7L1972.9,-52.7L1788,-76.1Z" shape-rendering="crispEdges"/><path fill="#79384F" d="M1788,-76.1L1769.2,-349.8L1503.8,-219.8Z" shape-rendering="crispEdges"/><path fill="#5E1D31" d="M2319,-64.3L1972.9,-52.7L1992.8,136.7Z" shape-rendering="crispEdges"/><path fill="#2D004B" d="M2059.2,1404.7L2213,1177.2L1984.4,1174.9Z" shape-rendering="crispEdges"/><path fill="#806897" d="M2194.6,855.4L2317,434.6L2185.4,681Z" shape-rendering="crispEdges"/><path fill="#C2957A" d="M-378.9,-17.8L-339.5,934.3L-317.6,695.7Z" shape-rendering="crispEdges"/><path fill="#5E1D32" d="M-339.5,934.3L-378.6,1182.9L-92.1,1102.2Z" shape-rendering="crispEdges"/><path fill="#642339" d="M2009.9,-281.2L1769.2,-349.8L1788,-76.1Z" shape-rendering="crispEdges"/><path fill="#563A7A" d="M2296.4,1308.5L2317,434.6L2194.6,855.4Z" shape-rendering="crispEdges"/><path fill="#91759B" d="M2185.4,681L2317,434.6L2027.1,474.5Z" shape-rendering="crispEdges"/><path fill="#5C1C30" d="M1972.9,-52.7L2009.9,-281.2L1788,-76.1Z" shape-rendering="crispEdges"/><path fill="#9C4C08" d="M-378.9,-17.8L-340.8,168.1L-157.8,222.3Z" shape-rendering="crispEdges"/><path fill="#C08654" d="M-297.2,365.5L-340.8,168.1L-317.6,695.7Z" shape-rendering="crispEdges"/><path fill="#894108" d="M-378.9,-17.8L-157.8,222.3L-47.1,-72.8Z" shape-rendering="crispEdges"/><path fill="#A8580C" d="M649.6,-321.7L-61.3,-247.7L395.6,-232.4Z" shape-rendering="crispEdges"/><path fill="#7F3B08" d="M83.4,-214.2L-61.3,-247.7L-47.1,-72.8Z" shape-rendering="crispEdges"/><path fill="#2D004B" d="M2059.2,1404.7L2296.4,1308.5L2213,1177.2Z" shape-rendering="crispEdges"/><path fill="#2D004B" d="M2213,1177.2L2296.4,1308.5L2194.6,855.4Z" shape-rendering="crispEdges"/><path fill="#8F5C5F" d="M-378.9,-17.8L-394.7,1349.5L-378.6,1182.9Z" shape-rendering="crispEdges"/><path fill="#5C1C30" d="M-378.6,1182.9L-394.7,1349.5L-113.3,1419.5Z" shape-rendering="crispEdges"/><path fill="#96606C" d="M2317,434.6L2296.7,201.9L2027.1,474.5Z" shape-rendering="crispEdges"/><path fill="#5C1C30" d="M2265.3,-240.6L2009.9,-281.2L1972.9,-52.7Z" shape-rendering="crispEdges"/><path fill="#7F3B08" d="M-61.3,-247.7L-378.9,-17.8L-47.1,-72.8Z" shape-rendering="crispEdges"/><path fill="#B76D27" d="M-340.8,168.1L-378.9,-17.8L-317.6,695.7Z" shape-rendering="crispEdges"/><path fill="#85393C" d="M2317,434.6L2319,-64.3L2296.7,201.9Z" shape-rendering="crispEdges"/><path fill="#712835" d="M2296.7,201.9L2319,-64.3L1992.8,136.7Z" shape-rendering="crispEdges"/><path fill="#5C1C30" d="M2319,-64.3L2265.3,-240.6L1972.9,-52.7Z" shape-rendering="crispEdges"/><path fill="#5C1C30" d="M2009.9,-281.2L2265.3,-240.6L1769.2,-349.8Z" shape-rendering="crispEdges"/><path fill="#874008" d="M649.6,-321.7L-396.6,-323.5L-61.3,-247.7Z" shape-rendering="crispEdges"/><path fill="#7F3B08" d="M-61.3,-247.7L-396.6,-323.5L-378.9,-17.8Z" shape-rendering="crispEdges"/><path fill="#BE7A39" d="M-378.9,-17.8L-396.6,-323.5L-394.7,1349.5Z" shape-rendering="crispEdges"/><path fill="#B9702B" d="M1311,-344.1L-396.6,-323.5L649.6,-321.7Z" shape-rendering="crispEdges"/><path fill="#C29170" d="M1769.2,-349.8L-396.6,-323.5L1311,-344.1Z" shape-rendering="crispEdges"/></svg>