<svg xmlns="http://www.w3.org/2000/svg" width="1920" height="1080"><path fill="#91A0CB" d="M953.4,499.2L956.5,446.5L909,486Z" shape-rendering="crispEdges"/><path fill="#94A6CE" d="M956.5,446.5L909.1,408.3L909,486Z" shape-rendering="crispEdges"/><path fill="#909DCA" d="M953.4,499.2L1018.7,493.2L956.5,446.5Z" shape-rendering="crispEdges"/><path fill="#9AAED3" d="M937.2,361.1L903.6,374.2L909.1,408.3Z" shape-rendering="crispEdges"/><path fill="#96ABD1" d="M937.2,361.1L909.1,408.3L956.5,446.5Z" shape-rendering="crispEdges"/><path fill="#95A9D0" d="M909.1,408.3L826.7,454.7L909,486Z" shape-rendering="crispEdges"/><path fill="#97A9D0" d="M1014.2,363.7L937.2,361.1L956.5,446.5Z" shape-rendering="crispEdges"/><path fill="#98AED3" d="M903.6,374.2L826.7,454.7L909.1,408.3Z" shape-rendering="crispEdges"/><path fill="#8E96C6" d="M903.7,604.5L939.6,589.3L909,486Z" shape-rendering="crispEdges"/><path fill="#8E9AC8" d="M909,486L939.6,589.3L953.4,499.2Z" shape-rendering="crispEdges"/><path fill="#8E96C6" d="M953.4,499.2L1016,563.9L1018.7,493.2Z" shape-rendering="crispEdges"/><path fill="#8C93C5" d="M939.6,589.3L1016,563.9L953.4,499.2Z" shape-rendering="crispEdges"/><path fill="#939AC8" d="M1121.4,429.1L1050.6,411.9L1018.7,493.2Z" shape-rendering="crispEdges"/><path fill="#929ECA" d="M1018.7,493.2L1050.6,411.9L956.5,446.5Z" shape-rendering="crispEdges"/><path fill="#95A4CE" d="M1050.6,411.9L1014.2,363.7L956.5,446.5Z" shape-rendering="crispEdges"/><path fill="#8F9AC8" d="M821.2,578.2L903.7,604.5L909,486Z" shape-rendering="crispEdges"/><path fill="#8D8AC0" d="M939.6,589.3L1026.8,639.8L1016,563.9Z" shape-rendering="crispEdges"/><path fill="#97AED3" d="M762.3,486.5L784,496.6L754.2,452.6Z" shape-rendering="crispEdges"/><path fill="#92A3CD" d="M826.7,454.7L821.2,578.2L909,486Z" shape-rendering="crispEdges"/><path fill="#94A6CE" d="M784,496.6L821.2,578.2L826.7,454.7Z" shape-rendering="crispEdges"/><path fill="#908DC2" d="M825.5,677.1L908.6,628.1L903.7,604.5Z" shape-rendering="crispEdges"/><path fill="#8E8FC3" d="M903.7,604.5L908.6,628.1L939.6,589.3Z" shape-rendering="crispEdges"/><path fill="#97AED2" d="M754.2,452.6L784,496.6L826.7,454.7Z" shape-rendering="crispEdges"/><path fill="#93A4CD" d="M784,496.6L727.8,553.3L821.2,578.2Z" shape-rendering="crispEdges"/><path fill="#9AB4D6" d="M785.7,356.3L754.2,452.6L826.7,454.7Z" shape-rendering="crispEdges"/><path fill="#9294C6" d="M1137.2,477.5L1121.4,429.1L1018.7,493.2Z" shape-rendering="crispEdges"/><path fill="#9FA6CF" d="M1123.7,346.7L1031.2,279.1L1014.2,363.7Z" shape-rendering="crispEdges"/><path fill="#8D87BE" d="M941.6,669.6L1026.8,639.8L939.6,589.3Z" shape-rendering="crispEdges"/><path fill="#8E8EC2" d="M1099.5,592.4L1137.2,477.5L1018.7,493.2Z" shape-rendering="crispEdges"/><path fill="#A2B8D8" d="M823.8,289.5L785.7,356.3L903.6,374.2Z" shape-rendering="crispEdges"/><path fill="#9BB3D5" d="M903.6,374.2L785.7,356.3L826.7,454.7Z" shape-rendering="crispEdges"/><path fill="#8F85BE" d="M897.1,709.2L941.6,669.6L908.6,628.1Z" shape-rendering="crispEdges"/><path fill="#8E8AC0" d="M908.6,628.1L941.6,669.6L939.6,589.3Z" shape-rendering="crispEdges"/><path fill="#8D8DC2" d="M1099.5,592.4L1018.7,493.2L1016,563.9Z" shape-rendering="crispEdges"/><path fill="#8D85BE" d="M1026.8,639.8L1099.5,592.4L1016,563.9Z" shape-rendering="crispEdges"/><path fill="#A4B5D7" d="M936.7,256.4L880.8,270.9L937.2,361.1Z" shape-rendering="crispEdges"/><path fill="#A0B3D5" d="M937.2,361.1L880.8,270.9L903.6,374.2Z" shape-rendering="crispEdges"/><path fill="#9EACD2" d="M1031.2,279.1L937.2,361.1L1014.2,363.7Z" shape-rendering="crispEdges"/><path fill="#9AA2CD" d="M1123.7,346.7L1014.2,363.7L1050.6,411.9Z" shape-rendering="crispEdges"/><path fill="#A4B8D8" d="M880.8,270.9L823.8,289.5L903.6,374.2Z" shape-rendering="crispEdges"/><path fill="#A2B1D4" d="M1031.2,279.1L936.7,256.4L937.2,361.1Z" shape-rendering="crispEdges"/><path fill="#989AC9" d="M1167.2,405.3L1123.7,346.7L1121.4,429.1Z" shape-rendering="crispEdges"/><path fill="#979DCA" d="M1121.4,429.1L1123.7,346.7L1050.6,411.9Z" shape-rendering="crispEdges"/><path fill="#97ADD2" d="M644.1,505.3L727.8,553.3L762.3,486.5Z" shape-rendering="crispEdges"/><path fill="#96AAD0" d="M762.3,486.5L727.8,553.3L784,496.6Z" shape-rendering="crispEdges"/><path fill="#9192C4" d="M821.2,578.2L825.5,677.1L903.7,604.5Z" shape-rendering="crispEdges"/><path fill="#8F88BF" d="M1205.6,557.9L1167.5,477.4L1137.2,477.5Z" shape-rendering="crispEdges"/><path fill="#9291C4" d="M1137.2,477.5L1167.5,477.4L1121.4,429.1Z" shape-rendering="crispEdges"/><path fill="#9392C5" d="M759.1,674.2L825.5,677.1L821.2,578.2Z" shape-rendering="crispEdges"/><path fill="#9493C5" d="M1167.5,477.4L1167.2,405.3L1121.4,429.1Z" shape-rendering="crispEdges"/><path fill="#9088BF" d="M825.5,677.1L897.1,709.2L908.6,628.1Z" shape-rendering="crispEdges"/><path fill="#8D7FBA" d="M941.6,669.6L979.7,717.1L1026.8,639.8Z" shape-rendering="crispEdges"/><path fill="#A6C1DC" d="M719.7,269.4L718.7,364.5L785.7,356.3Z" shape-rendering="crispEdges"/><path fill="#9FBBD9" d="M785.7,356.3L718.7,364.5L754.2,452.6Z" shape-rendering="crispEdges"/><path fill="#99B1D4" d="M754.2,452.6L644.1,505.3L762.3,486.5Z" shape-rendering="crispEdges"/><path fill="#AABAD9" d="M936.7,256.4L897,228.5L880.8,270.9Z" shape-rendering="crispEdges"/><path fill="#ABBEDB" d="M880.8,270.9L836.9,228.1L823.8,289.5Z" shape-rendering="crispEdges"/><path fill="#A8C0DC" d="M823.8,289.5L719.7,269.4L785.7,356.3Z" shape-rendering="crispEdges"/><path fill="#ABBAD9" d="M968.1,205.7L897,228.5L936.7,256.4Z" shape-rendering="crispEdges"/><path fill="#8E7FBB" d="M897.1,709.2L979.7,717.1L941.6,669.6Z" shape-rendering="crispEdges"/><path fill="#8D7DBA" d="M1026.8,639.8L1110.4,659.4L1099.5,592.4Z" shape-rendering="crispEdges"/><path fill="#8D77B7" d="M1062.6,732.1L1110.4,659.4L1026.8,639.8Z" shape-rendering="crispEdges"/><path fill="#8D85BE" d="M1099.5,592.4L1205.6,557.9L1137.2,477.5Z" shape-rendering="crispEdges"/><path fill="#9EBBD9" d="M718.7,364.5L686.4,419.9L754.2,452.6Z" shape-rendering="crispEdges"/><path fill="#ACBEDB" d="M897,228.5L836.9,228.1L880.8,270.9Z" shape-rendering="crispEdges"/><path fill="#ABB4D6" d="M1007.6,195.7L968.1,205.7L1031.2,279.1Z" shape-rendering="crispEdges"/><path fill="#A9B4D6" d="M1031.2,279.1L968.1,205.7L936.7,256.4Z" shape-rendering="crispEdges"/><path fill="#B2C2DD" d="M897,228.5L900.3,122.5L836.9,228.1Z" shape-rendering="crispEdges"/><path fill="#949BC9" d="M727.8,553.3L759.1,674.2L821.2,578.2Z" shape-rendering="crispEdges"/><path fill="#9283BD" d="M825.5,677.1L815,774.5L897.1,709.2Z" shape-rendering="crispEdges"/><path fill="#979BC9" d="M638.4,658L759.1,674.2L727.8,553.3Z" shape-rendering="crispEdges"/><path fill="#9B9AC9" d="M1167.2,405.3L1179.4,344.8L1123.7,346.7Z" shape-rendering="crispEdges"/><path fill="#A3A5CF" d="M1123.7,346.7L1130.8,274.8L1031.2,279.1Z" shape-rendering="crispEdges"/><path fill="#9C97C7" d="M1245.3,338.6L1179.4,344.8L1167.2,405.3Z" shape-rendering="crispEdges"/><path fill="#A09FCC" d="M1179.4,344.8L1130.8,274.8L1123.7,346.7Z" shape-rendering="crispEdges"/><path fill="#8D7AB8" d="M1200.5,647.6L1205.6,557.9L1099.5,592.4Z" shape-rendering="crispEdges"/><path fill="#938CC1" d="M1167.5,477.4L1265.6,499.5L1167.2,405.3Z" shape-rendering="crispEdges"/><path fill="#ACB1D5" d="M1089.7,191.9L1007.6,195.7L1031.2,279.1Z" shape-rendering="crispEdges"/><path fill="#B6CAE2" d="M787.5,111.4L736.6,217.3L836.9,228.1Z" shape-rendering="crispEdges"/><path fill="#8C6FB3" d="M1031.4,813.4L1062.6,732.1L979.7,717.1Z" shape-rendering="crispEdges"/><path fill="#8D78B7" d="M979.7,717.1L1062.6,732.1L1026.8,639.8Z" shape-rendering="crispEdges"/><path fill="#8D78B7" d="M1110.4,659.4L1200.5,647.6L1099.5,592.4Z" shape-rendering="crispEdges"/><path fill="#948CC1" d="M759.1,674.2L785.3,723.8L825.5,677.1Z" shape-rendering="crispEdges"/><path fill="#8D79B8" d="M897.1,709.2L956.2,783L979.7,717.1Z" shape-rendering="crispEdges"/><path fill="#9CB5D7" d="M686.4,419.9L644.1,505.3L754.2,452.6Z" shape-rendering="crispEdges"/><path fill="#958BC1" d="M759.1,674.2L762.7,714.2L785.3,723.8Z" shape-rendering="crispEdges"/><path fill="#AFC5DF" d="M736.6,217.3L719.7,269.4L823.8,289.5Z" shape-rendering="crispEdges"/><path fill="#A5C1DC" d="M718.7,364.5L637.1,333.2L686.4,419.9Z" shape-rendering="crispEdges"/><path fill="#A1B9D9" d="M686.4,419.9L573.6,435.5L644.1,505.3Z" shape-rendering="crispEdges"/><path fill="#968DC2" d="M676.9,745.6L762.7,714.2L759.1,674.2Z" shape-rendering="crispEdges"/><path fill="#A3A0CC" d="M1179.4,344.8L1161.3,265.3L1130.8,274.8Z" shape-rendering="crispEdges"/><path fill="#A9ABD2" d="M1130.8,274.8L1089.7,191.9L1031.2,279.1Z" shape-rendering="crispEdges"/><path fill="#98AAD1" d="M644.1,505.3L646.6,574.1L727.8,553.3Z" shape-rendering="crispEdges"/><path fill="#8F78B7" d="M862.1,796.7L956.2,783L897.1,709.2Z" shape-rendering="crispEdges"/><path fill="#8C70B3" d="M1131.5,723.1L1200.5,647.6L1110.4,659.4Z" shape-rendering="crispEdges"/><path fill="#8C69B0" d="M1122.4,779.3L1131.5,723.1L1062.6,732.1Z" shape-rendering="crispEdges"/><path fill="#8C70B3" d="M1062.6,732.1L1131.5,723.1L1110.4,659.4Z" shape-rendering="crispEdges"/><path fill="#ACA8D1" d="M1177.4,215.4L1089.7,191.9L1130.8,274.8Z" shape-rendering="crispEdges"/><path fill="#B1BFDC" d="M900.3,122.5L897,228.5L968.1,205.7Z" shape-rendering="crispEdges"/><path fill="#AFC3DE" d="M836.9,228.1L736.6,217.3L823.8,289.5Z" shape-rendering="crispEdges"/><path fill="#B3CBE2" d="M658.1,215L676.2,278.7L719.7,269.4Z" shape-rendering="crispEdges"/><path fill="#ABC5DF" d="M719.7,269.4L676.2,278.7L718.7,364.5Z" shape-rendering="crispEdges"/><path fill="#9583BD" d="M718.7,781.3L815,774.5L785.3,723.8Z" shape-rendering="crispEdges"/><path fill="#9385BE" d="M785.3,723.8L815,774.5L825.5,677.1Z" shape-rendering="crispEdges"/><path fill="#8D7BB9" d="M1273.2,597.7L1265.6,499.5L1205.6,557.9Z" shape-rendering="crispEdges"/><path fill="#8F84BD" d="M1205.6,557.9L1265.6,499.5L1167.5,477.4Z" shape-rendering="crispEdges"/><path fill="#A39CCA" d="M1179.4,344.8L1256.1,297L1161.3,265.3Z" shape-rendering="crispEdges"/><path fill="#ABC5DF" d="M676.2,278.7L637.1,333.2L718.7,364.5Z" shape-rendering="crispEdges"/><path fill="#9DA0CC" d="M569.7,635.8L638.4,658L646.6,574.1Z" shape-rendering="crispEdges"/><path fill="#917CB9" d="M815,774.5L862.1,796.7L897.1,709.2Z" shape-rendering="crispEdges"/><path fill="#9993C5" d="M1286.6,401.4L1245.3,338.6L1167.2,405.3Z" shape-rendering="crispEdges"/><path fill="#A9A4CE" d="M1161.3,265.3L1177.4,215.4L1130.8,274.8Z" shape-rendering="crispEdges"/><path fill="#8C6AB1" d="M1247.1,699.6L1233.3,646.1L1200.5,647.6Z" shape-rendering="crispEdges"/><path fill="#8C73B5" d="M1200.5,647.6L1233.3,646.1L1205.6,557.9Z" shape-rendering="crispEdges"/><path fill="#B4BADA" d="M1053.5,132.9L971.4,126.1L1007.6,195.7Z" shape-rendering="crispEdges"/><path fill="#B1BADA" d="M1007.6,195.7L971.4,126.1L968.1,205.7Z" shape-rendering="crispEdges"/><path fill="#A89FCC" d="M1256.1,297L1177.4,215.4L1161.3,265.3Z" shape-rendering="crispEdges"/><path fill="#B2B4D7" d="M1089.7,191.9L1053.5,132.9L1007.6,195.7Z" shape-rendering="crispEdges"/><path fill="#B5C0DD" d="M971.4,126.1L900.3,122.5L968.1,205.7Z" shape-rendering="crispEdges"/><path fill="#9CACD2" d="M565.1,562.9L646.6,574.1L644.1,505.3Z" shape-rendering="crispEdges"/><path fill="#99A2CD" d="M646.6,574.1L638.4,658L727.8,553.3Z" shape-rendering="crispEdges"/><path fill="#9587BF" d="M762.7,714.2L718.7,781.3L785.3,723.8Z" shape-rendering="crispEdges"/><path fill="#8C6AAF" d="M954.3,859.5L1031.4,813.4L956.2,783Z" shape-rendering="crispEdges"/><path fill="#8D70B3" d="M956.2,783L1031.4,813.4L979.7,717.1Z" shape-rendering="crispEdges"/><path fill="#8C69B0" d="M1131.5,723.1L1195.4,748.3L1200.5,647.6Z" shape-rendering="crispEdges"/><path fill="#B1C9E1" d="M597.5,263.1L605.9,346.6L637.1,333.2Z" shape-rendering="crispEdges"/><path fill="#A8C3DE" d="M637.1,333.2L605.9,346.6L686.4,419.9Z" shape-rendering="crispEdges"/><path fill="#B2CAE1" d="M597.5,263.1L637.1,333.2L676.2,278.7Z" shape-rendering="crispEdges"/><path fill="#948CC2" d="M1265.6,499.5L1286.6,401.4L1167.2,405.3Z" shape-rendering="crispEdges"/><path fill="#A098C8" d="M1245.3,338.6L1256.1,297L1179.4,344.8Z" shape-rendering="crispEdges"/><path fill="#B4B3D6" d="M1125.1,131.4L1053.5,132.9L1089.7,191.9Z" shape-rendering="crispEdges"/><path fill="#8D74B5" d="M1233.3,646.1L1273.2,597.7L1205.6,557.9Z" shape-rendering="crispEdges"/><path fill="#988BC1" d="M1335.4,420.8L1320.8,356.2L1286.6,401.4Z" shape-rendering="crispEdges"/><path fill="#8C68AF" d="M1031.4,813.4L1122.4,779.3L1062.6,732.1Z" shape-rendering="crispEdges"/><path fill="#A093C6" d="M1320.8,356.2L1256.1,297L1245.3,338.6Z" shape-rendering="crispEdges"/><path fill="#A5C1DD" d="M605.9,346.6L573.6,435.5L686.4,419.9Z" shape-rendering="crispEdges"/><path fill="#A2B8D8" d="M573.6,435.5L567.5,474.5L644.1,505.3Z" shape-rendering="crispEdges"/><path fill="#9992C5" d="M638.4,658L676.9,745.6L759.1,674.2Z" shape-rendering="crispEdges"/><path fill="#9277B6" d="M815,774.5L818.3,868.1L862.1,796.7Z" shape-rendering="crispEdges"/><path fill="#8C65AE" d="M1122.4,779.3L1195.4,748.3L1131.5,723.1Z" shape-rendering="crispEdges"/><path fill="#8C6BB1" d="M1233.3,646.1L1339,659.9L1273.2,597.7Z" shape-rendering="crispEdges"/><path fill="#9789C0" d="M676.9,745.6L718.7,781.3L762.7,714.2Z" shape-rendering="crispEdges"/><path fill="#B9CFE4" d="M714.5,146.2L658.1,215L736.6,217.3Z" shape-rendering="crispEdges"/><path fill="#B4CBE2" d="M736.6,217.3L658.1,215L719.7,269.4Z" shape-rendering="crispEdges"/><path fill="#A0B2D5" d="M567.5,474.5L565.1,562.9L644.1,505.3Z" shape-rendering="crispEdges"/><path fill="#9D92C5" d="M638.4,658L573.5,732.4L676.9,745.6Z" shape-rendering="crispEdges"/><path fill="#8C66AF" d="M1195.4,748.3L1247.1,699.6L1200.5,647.6Z" shape-rendering="crispEdges"/><path fill="#8F6EAF" d="M873.6,882.1L954.3,859.5L862.1,796.7Z" shape-rendering="crispEdges"/><path fill="#8E70B2" d="M862.1,796.7L954.3,859.5L956.2,783Z" shape-rendering="crispEdges"/><path fill="#8B5CA9" d="M1086.9,896.6L1161.3,796.4L1122.4,779.3Z" shape-rendering="crispEdges"/><path fill="#8B60AB" d="M1122.4,779.3L1161.3,796.4L1195.4,748.3Z" shape-rendering="crispEdges"/><path fill="#B1ACD3" d="M1177.4,215.4L1125.1,131.4L1089.7,191.9Z" shape-rendering="crispEdges"/><path fill="#BABFDD" d="M1060.7,76.2L952.9,62.7L971.4,126.1Z" shape-rendering="crispEdges"/><path fill="#BDCBE3" d="M871.2,56.2L787.5,111.4L900.3,122.5Z" shape-rendering="crispEdges"/><path fill="#B3ABD2" d="M1204.7,139.7L1125.1,131.4L1177.4,215.4Z" shape-rendering="crispEdges"/><path fill="#B9C3DF" d="M952.9,62.7L900.3,122.5L971.4,126.1Z" shape-rendering="crispEdges"/><path fill="#B8C8E1" d="M900.3,122.5L787.5,111.4L836.9,228.1Z" shape-rendering="crispEdges"/><path fill="#8C61AB" d="M1062,872.8L1122.4,779.3L1031.4,813.4Z" shape-rendering="crispEdges"/><path fill="#8B5EAA" d="M1331.6,749.9L1339,659.9L1247.1,699.6Z" shape-rendering="crispEdges"/><path fill="#BBCFE5" d="M787.5,111.4L714.5,146.2L736.6,217.3Z" shape-rendering="crispEdges"/><path fill="#B7CEE3" d="M611.5,226.8L676.2,278.7L658.1,215Z" shape-rendering="crispEdges"/><path fill="#B7CDE3" d="M611.5,226.8L597.5,263.1L676.2,278.7Z" shape-rendering="crispEdges"/><path fill="#A9BFDC" d="M493.2,426.4L509.4,480.1L573.6,435.5Z" shape-rendering="crispEdges"/><path fill="#A6BCDA" d="M573.6,435.5L509.4,480.1L567.5,474.5Z" shape-rendering="crispEdges"/><path fill="#9487BF" d="M1335.4,420.8L1286.6,401.4L1265.6,499.5Z" shape-rendering="crispEdges"/><path fill="#9B90C4" d="M1286.6,401.4L1320.8,356.2L1245.3,338.6Z" shape-rendering="crispEdges"/><path fill="#B1A5CF" d="M1273.8,182.3L1204.7,139.7L1177.4,215.4Z" shape-rendering="crispEdges"/><path fill="#9280BB" d="M1362.8,506.3L1335.4,420.8L1265.6,499.5Z" shape-rendering="crispEdges"/><path fill="#8D77B6" d="M1348,562.2L1265.6,499.5L1273.2,597.7Z" shape-rendering="crispEdges"/><path fill="#9EA7CF" d="M565.1,562.9L569.7,635.8L646.6,574.1Z" shape-rendering="crispEdges"/><path fill="#BED3E6" d="M672.4,107L611.5,226.8L658.1,215Z" shape-rendering="crispEdges"/><path fill="#B8BBDB" d="M1060.7,76.2L971.4,126.1L1053.5,132.9Z" shape-rendering="crispEdges"/><path fill="#957AB6" d="M716.4,879L818.3,868.1L718.7,781.3Z" shape-rendering="crispEdges"/><path fill="#947BB9" d="M718.7,781.3L818.3,868.1L815,774.5Z" shape-rendering="crispEdges"/><path fill="#B8B6D8" d="M1125.1,131.4L1060.7,76.2L1053.5,132.9Z" shape-rendering="crispEdges"/><path fill="#9171B1" d="M818.3,868.1L873.6,882.1L862.1,796.7Z" shape-rendering="crispEdges"/><path fill="#8A529C" d="M1086.9,896.6L1031.4,978.9L1099.1,943.9Z" shape-rendering="crispEdges"/><path fill="#8C63AA" d="M954.3,859.5L1062,872.8L1031.4,813.4Z" shape-rendering="crispEdges"/><path fill="#8C6CB1" d="M1339,659.9L1348,562.2L1273.2,597.7Z" shape-rendering="crispEdges"/><path fill="#BDC7E1" d="M952.9,62.7L871.2,56.2L900.3,122.5Z" shape-rendering="crispEdges"/><path fill="#C3D6E8" d="M740.8,52.6L672.4,107L714.5,146.2Z" shape-rendering="crispEdges"/><path fill="#AB9FCC" d="M1273.8,182.3L1177.4,215.4L1256.1,297Z" shape-rendering="crispEdges"/><path fill="#BAB5D8" d="M1125.1,131.4L1130.7,67.9L1060.7,76.2Z" shape-rendering="crispEdges"/><path fill="#C0CFE5" d="M871.2,56.2L802,67.1L787.5,111.4Z" shape-rendering="crispEdges"/><path fill="#BFD4E7" d="M714.5,146.2L672.4,107L658.1,215Z" shape-rendering="crispEdges"/><path fill="#8E79B7" d="M1348,562.2L1362.8,506.3L1265.6,499.5Z" shape-rendering="crispEdges"/><path fill="#A18EC3" d="M1385.8,335L1332.2,268.4L1320.8,356.2Z" shape-rendering="crispEdges"/><path fill="#ACC6DF" d="M493.2,426.4L573.6,435.5L489.8,346.3Z" shape-rendering="crispEdges"/><path fill="#A3B6D7" d="M567.5,474.5L509.4,480.1L565.1,562.9Z" shape-rendering="crispEdges"/><path fill="#A2A9D1" d="M565.1,562.9L482.5,567.2L569.7,635.8Z" shape-rendering="crispEdges"/><path fill="#ADC6DF" d="M573.6,435.5L605.9,346.6L489.8,346.3Z" shape-rendering="crispEdges"/><path fill="#9C85BE" d="M592.3,826.3L663.6,818.7L676.9,745.6Z" shape-rendering="crispEdges"/><path fill="#9986BE" d="M676.9,745.6L663.6,818.7L718.7,781.3Z" shape-rendering="crispEdges"/><path fill="#8B5CAA" d="M1240.9,830.2L1247.1,699.6L1195.4,748.3Z" shape-rendering="crispEdges"/><path fill="#8C66AE" d="M1247.1,699.6L1339,659.9L1233.3,646.1Z" shape-rendering="crispEdges"/><path fill="#8E75B5" d="M1348,562.2L1421.3,504.2L1362.8,506.3Z" shape-rendering="crispEdges"/><path fill="#8B5AA8" d="M1240.9,830.2L1195.4,748.3L1161.3,796.4Z" shape-rendering="crispEdges"/><path fill="#A999C9" d="M1332.2,268.4L1273.8,182.3L1256.1,297Z" shape-rendering="crispEdges"/><path fill="#A293C5" d="M1332.2,268.4L1256.1,297L1320.8,356.2Z" shape-rendering="crispEdges"/><path fill="#9B8AC1" d="M1385.8,335L1320.8,356.2L1335.4,420.8Z" shape-rendering="crispEdges"/><path fill="#B5CCE2" d="M489.8,346.3L605.9,346.6L488.9,289.5Z" shape-rendering="crispEdges"/><path fill="#A297C8" d="M518.4,734.3L573.5,732.4L569.7,635.8Z" shape-rendering="crispEdges"/><path fill="#9F99C9" d="M569.7,635.8L573.5,732.4L638.4,658Z" shape-rendering="crispEdges"/><path fill="#A3B3D5" d="M482.5,567.2L565.1,562.9L509.4,480.1Z" shape-rendering="crispEdges"/><path fill="#BBB0D6" d="M1157,48.2L1130.7,67.9L1204.7,139.7Z" shape-rendering="crispEdges"/><path fill="#B8B0D5" d="M1204.7,139.7L1130.7,67.9L1125.1,131.4Z" shape-rendering="crispEdges"/><path fill="#BEC2DF" d="M1060.7,76.2L962,-5.7L952.9,62.7Z" shape-rendering="crispEdges"/><path fill="#C0C8E2" d="M952.9,62.7L962,-5.7L871.2,56.2Z" shape-rendering="crispEdges"/><path fill="#8C61A6" d="M947.1,941.2L1062,872.8L954.3,859.5Z" shape-rendering="crispEdges"/><path fill="#8B5CA7" d="M1062,872.8L1086.9,896.6L1122.4,779.3Z" shape-rendering="crispEdges"/><path fill="#C1D3E7" d="M740.8,52.6L714.5,146.2L787.5,111.4Z" shape-rendering="crispEdges"/><path fill="#B6CCE3" d="M488.9,289.5L605.9,346.6L597.5,263.1Z" shape-rendering="crispEdges"/><path fill="#C2D2E7" d="M802,67.1L740.8,52.6L787.5,111.4Z" shape-rendering="crispEdges"/><path fill="#C6D5E8" d="M793,-31.1L740.8,52.6L802,67.1Z" shape-rendering="crispEdges"/><path fill="#997DB7" d="M652,853.5L716.4,879L663.6,818.7Z" shape-rendering="crispEdges"/><path fill="#987FBA" d="M663.6,818.7L716.4,879L718.7,781.3Z" shape-rendering="crispEdges"/><path fill="#8F64A6" d="M868.9,947.3L947.1,941.2L873.6,882.1Z" shape-rendering="crispEdges"/><path fill="#8E66A8" d="M873.6,882.1L947.1,941.2L954.3,859.5Z" shape-rendering="crispEdges"/><path fill="#A7B7D8" d="M460.8,504.5L482.5,567.2L509.4,480.1Z" shape-rendering="crispEdges"/><path fill="#BFD3E6" d="M488.9,289.5L597.5,263.1L514.1,176.6Z" shape-rendering="crispEdges"/><path fill="#AABEDB" d="M493.2,426.4L460.8,504.5L509.4,480.1Z" shape-rendering="crispEdges"/><path fill="#9986BF" d="M1418.2,406.2L1385.8,335L1335.4,420.8Z" shape-rendering="crispEdges"/><path fill="#B29DCC" d="M1348.6,197.6L1308,145.5L1273.8,182.3Z" shape-rendering="crispEdges"/><path fill="#916BAA" d="M868.9,947.3L873.6,882.1L818.3,868.1Z" shape-rendering="crispEdges"/><path fill="#8A53A4" d="M1193.1,884.9L1240.9,830.2L1161.3,796.4Z" shape-rendering="crispEdges"/><path fill="#9C80B9" d="M609.7,853.7L652,853.5L663.6,818.7Z" shape-rendering="crispEdges"/><path fill="#BBACD4" d="M1259.4,57.2L1157,48.2L1204.7,139.7Z" shape-rendering="crispEdges"/><path fill="#BEB9DA" d="M1130.7,67.9L1087.6,-1.2L1060.7,76.2Z" shape-rendering="crispEdges"/><path fill="#C3CFE5" d="M871.2,56.2L863.5,-5.1L802,67.1Z" shape-rendering="crispEdges"/><path fill="#ACC1DD" d="M461.8,418.5L460.8,504.5L493.2,426.4Z" shape-rendering="crispEdges"/><path fill="#C1C2DF" d="M1011.9,-45.7L962,-5.7L1060.7,76.2Z" shape-rendering="crispEdges"/><path fill="#AFC8E0" d="M489.8,346.3L461.8,418.5L493.2,426.4Z" shape-rendering="crispEdges"/><path fill="#926AA9" d="M781.9,941.9L868.9,947.3L818.3,868.1Z" shape-rendering="crispEdges"/><path fill="#946FAC" d="M781.9,941.9L818.3,868.1L733.8,924.9Z" shape-rendering="crispEdges"/><path fill="#8B58A8" d="M1240.9,830.2L1331.6,749.9L1247.1,699.6Z" shape-rendering="crispEdges"/><path fill="#8D6EB2" d="M1435.6,597.3L1421.3,504.2L1348,562.2Z" shape-rendering="crispEdges"/><path fill="#9480BB" d="M1362.8,506.3L1418.2,406.2L1335.4,420.8Z" shape-rendering="crispEdges"/><path fill="#C3CCE4" d="M962,-5.7L863.5,-5.1L871.2,56.2Z" shape-rendering="crispEdges"/><path fill="#BED3E6" d="M514.1,176.6L597.5,263.1L611.5,226.8Z" shape-rendering="crispEdges"/><path fill="#B5CCE2" d="M489.8,346.3L423.2,333.4L461.8,418.5Z" shape-rendering="crispEdges"/><path fill="#8C68AF" d="M1435.6,597.3L1348,562.2L1339,659.9Z" shape-rendering="crispEdges"/><path fill="#927AB8" d="M1421.3,504.2L1418.2,406.2L1362.8,506.3Z" shape-rendering="crispEdges"/><path fill="#8A519E" d="M1099.1,943.9L1193.1,884.9L1086.9,896.6Z" shape-rendering="crispEdges"/><path fill="#8B56A3" d="M1086.9,896.6L1193.1,884.9L1161.3,796.4Z" shape-rendering="crispEdges"/><path fill="#8A4FA3" d="M1240.9,830.2L1334,828.3L1331.6,749.9Z" shape-rendering="crispEdges"/><path fill="#AD99C9" d="M1348.6,197.6L1273.8,182.3L1332.2,268.4Z" shape-rendering="crispEdges"/><path fill="#B6A5D0" d="M1273.8,182.3L1276,105.9L1204.7,139.7Z" shape-rendering="crispEdges"/><path fill="#AA93C6" d="M1348.6,197.6L1332.2,268.4L1422,263.3Z" shape-rendering="crispEdges"/><path fill="#A7A5CF" d="M440.1,666L488,677.5L482.5,567.2Z" shape-rendering="crispEdges"/><path fill="#A4A5CE" d="M482.5,567.2L488,677.5L569.7,635.8Z" shape-rendering="crispEdges"/><path fill="#9E8BC1" d="M573.5,732.4L592.3,826.3L676.9,745.6Z" shape-rendering="crispEdges"/><path fill="#A48EC3" d="M1422,263.3L1332.2,268.4L1385.8,335Z" shape-rendering="crispEdges"/><path fill="#A49BCA" d="M488,677.5L518.4,734.3L569.7,635.8Z" shape-rendering="crispEdges"/><path fill="#A28CC2" d="M505.2,777.4L592.3,826.3L573.5,732.4Z" shape-rendering="crispEdges"/><path fill="#9773AE" d="M733.8,924.9L716.4,879L664.3,951.6Z" shape-rendering="crispEdges"/><path fill="#9573B0" d="M733.8,924.9L818.3,868.1L716.4,879Z" shape-rendering="crispEdges"/><path fill="#C2B7DA" d="M1161.8,-44.4L1087.6,-1.2L1157,48.2Z" shape-rendering="crispEdges"/><path fill="#BFB6D9" d="M1157,48.2L1087.6,-1.2L1130.7,67.9Z" shape-rendering="crispEdges"/><path fill="#9977B2" d="M664.3,951.6L716.4,879L652,853.5Z" shape-rendering="crispEdges"/><path fill="#B5A2CE" d="M1308,145.5L1276,105.9L1273.8,182.3Z" shape-rendering="crispEdges"/><path fill="#8B57A0" d="M1031.4,978.9L1086.9,896.6L1062,872.8Z" shape-rendering="crispEdges"/><path fill="#8B59A0" d="M1031.4,978.9L1062,872.8L947.1,941.2Z" shape-rendering="crispEdges"/><path fill="#9D82BB" d="M592.3,826.3L609.7,853.7L663.6,818.7Z" shape-rendering="crispEdges"/><path fill="#A082BA" d="M518.8,863.6L609.7,853.7L592.3,826.3Z" shape-rendering="crispEdges"/><path fill="#8B5FAB" d="M1432.3,674.6L1435.6,597.3L1339,659.9Z" shape-rendering="crispEdges"/><path fill="#9279B7" d="M1421.3,504.2L1457.2,479.1L1418.2,406.2Z" shape-rendering="crispEdges"/><path fill="#7D4D90" d="M1088.8,1011.2L1031.4,978.9L1061.7,1033.4Z" shape-rendering="crispEdges"/><path fill="#835798" d="M956.3,1037.7L1031.4,978.9L947.1,941.2Z" shape-rendering="crispEdges"/><path fill="#C5D8E9" d="M563.1,103.1L611.5,226.8L672.4,107Z" shape-rendering="crispEdges"/><path fill="#C6D8E9" d="M563.1,103.1L514.1,176.6L611.5,226.8Z" shape-rendering="crispEdges"/><path fill="#884197" d="M1325.5,856.1L1261,874.2L1320.3,976.6Z" shape-rendering="crispEdges"/><path fill="#89489A" d="M1236.5,951.3L1261,874.2L1193.1,884.9Z" shape-rendering="crispEdges"/><path fill="#8A4D9F" d="M1193.1,884.9L1261,874.2L1240.9,830.2Z" shape-rendering="crispEdges"/><path fill="#8B58A8" d="M1331.6,749.9L1392.5,726.8L1339,659.9Z" shape-rendering="crispEdges"/><path fill="#CADBEB" d="M735.4,-42.2L643.1,45.6L740.8,52.6Z" shape-rendering="crispEdges"/><path fill="#C7D9EA" d="M740.8,52.6L643.1,45.6L672.4,107Z" shape-rendering="crispEdges"/><path fill="#8E70B2" d="M1461.9,573.4L1457.2,479.1L1421.3,504.2Z" shape-rendering="crispEdges"/><path fill="#A188C0" d="M1461.9,363.4L1422,263.3L1385.8,335Z" shape-rendering="crispEdges"/><path fill="#8A50A4" d="M1394.6,783.4L1392.5,726.8L1331.6,749.9Z" shape-rendering="crispEdges"/><path fill="#C1BFDD" d="M1087.6,-1.2L1011.9,-45.7L1060.7,76.2Z" shape-rendering="crispEdges"/><path fill="#C4CDE4" d="M962,-5.7L865.5,-90L863.5,-5.1Z" shape-rendering="crispEdges"/><path fill="#C6D3E7" d="M863.5,-5.1L793,-31.1L802,67.1Z" shape-rendering="crispEdges"/><path fill="#C2C0DE" d="M1037.4,-95.4L1011.9,-45.7L1087.6,-1.2Z" shape-rendering="crispEdges"/><path fill="#C6D2E6" d="M865.5,-90L793,-31.1L863.5,-5.1Z" shape-rendering="crispEdges"/><path fill="#BFA8D2" d="M1272.2,5L1259.4,57.2L1345.9,25Z" shape-rendering="crispEdges"/><path fill="#B9A8D2" d="M1276,105.9L1259.4,57.2L1204.7,139.7Z" shape-rendering="crispEdges"/><path fill="#BDA6D1" d="M1259.4,57.2L1276,105.9L1345.9,25Z" shape-rendering="crispEdges"/><path fill="#CBDCEB" d="M588.4,51.8L563.1,103.1L672.4,107Z" shape-rendering="crispEdges"/><path fill="#9B84BE" d="M1461.9,363.4L1385.8,335L1418.2,406.2Z" shape-rendering="crispEdges"/><path fill="#B59CCB" d="M1348.6,197.6L1403,108.7L1308,145.5Z" shape-rendering="crispEdges"/><path fill="#9172B2" d="M1546.2,515.3L1465.6,440.4L1457.2,479.1Z" shape-rendering="crispEdges"/><path fill="#947AB8" d="M1457.2,479.1L1465.6,440.4L1418.2,406.2Z" shape-rendering="crispEdges"/><path fill="#A691C5" d="M462.1,776.5L505.2,777.4L518.4,734.3Z" shape-rendering="crispEdges"/><path fill="#A391C5" d="M518.4,734.3L505.2,777.4L573.5,732.4Z" shape-rendering="crispEdges"/><path fill="#BED2E6" d="M408.9,287.7L423.2,333.4L488.9,289.5Z" shape-rendering="crispEdges"/><path fill="#B9CFE4" d="M488.9,289.5L423.2,333.4L489.8,346.3Z" shape-rendering="crispEdges"/><path fill="#ACBBDA" d="M334.5,489.5L408.2,569.7L460.8,504.5Z" shape-rendering="crispEdges"/><path fill="#A9ACD2" d="M408.2,569.7L440.1,666L482.5,567.2Z" shape-rendering="crispEdges"/><path fill="#A696C7" d="M488,677.5L462.1,776.5L518.4,734.3Z" shape-rendering="crispEdges"/><path fill="#894A9F" d="M1325.5,856.1L1334,828.3L1240.9,830.2Z" shape-rendering="crispEdges"/><path fill="#A8B4D6" d="M408.2,569.7L482.5,567.2L460.8,504.5Z" shape-rendering="crispEdges"/><path fill="#8C60AB" d="M1474.8,667.6L1461.9,573.4L1435.6,597.3Z" shape-rendering="crispEdges"/><path fill="#8C6AB0" d="M1435.6,597.3L1461.9,573.4L1421.3,504.2Z" shape-rendering="crispEdges"/><path fill="#8A53A4" d="M1474.8,667.6L1432.3,674.6L1510.8,716.6Z" shape-rendering="crispEdges"/><path fill="#8B59A8" d="M1392.5,726.8L1432.3,674.6L1339,659.9Z" shape-rendering="crispEdges"/><path fill="#9780BB" d="M1465.6,440.4L1461.9,363.4L1418.2,406.2Z" shape-rendering="crispEdges"/><path fill="#ADB8D8" d="M364,596.9L408.2,569.7L334.5,489.5Z" shape-rendering="crispEdges"/><path fill="#CFDFED" d="M611.3,-4.8L588.4,51.8L643.1,45.6Z" shape-rendering="crispEdges"/><path fill="#CBDCEB" d="M643.1,45.6L588.4,51.8L672.4,107Z" shape-rendering="crispEdges"/><path fill="#CCDDEC" d="M563.1,103.1L514.2,115.4L514.1,176.6Z" shape-rendering="crispEdges"/><path fill="#894A9E" d="M1261,874.2L1325.5,856.1L1240.9,830.2Z" shape-rendering="crispEdges"/><path fill="#894DA2" d="M1334,828.3L1394.6,783.4L1331.6,749.9Z" shape-rendering="crispEdges"/><path fill="#894B99" d="M1193.6,966.6L1193.1,884.9L1099.1,943.9Z" shape-rendering="crispEdges"/><path fill="#AC8FC4" d="M1501,195.1L1415.6,198.2L1422,263.3Z" shape-rendering="crispEdges"/><path fill="#AC93C6" d="M1422,263.3L1415.6,198.2L1348.6,197.6Z" shape-rendering="crispEdges"/><path fill="#9D7BB4" d="M598.6,947.6L652,853.5L609.7,853.7Z" shape-rendering="crispEdges"/><path fill="#9C76B0" d="M598.6,947.6L664.3,951.6L652,853.5Z" shape-rendering="crispEdges"/><path fill="#916CA5" d="M733.8,924.9L713.4,1023.5L781.9,941.9Z" shape-rendering="crispEdges"/><path fill="#8B63A0" d="M781.9,941.9L859.8,1030.9L868.9,947.3Z" shape-rendering="crispEdges"/><path fill="#C9D7E9" d="M790.1,-94.3L735.4,-42.2L793,-31.1Z" shape-rendering="crispEdges"/><path fill="#C9D9EA" d="M793,-31.1L735.4,-42.2L740.8,52.6Z" shape-rendering="crispEdges"/><path fill="#88449E" d="M1431.3,854.9L1394.6,783.4L1334,828.3Z" shape-rendering="crispEdges"/><path fill="#D0E0ED" d="M493.3,71.6L514.2,115.4L563.1,103.1Z" shape-rendering="crispEdges"/><path fill="#C3D6E8" d="M442.4,186.5L408.9,287.7L488.9,289.5Z" shape-rendering="crispEdges"/><path fill="#844A94" d="M1088.8,1011.2L1193.6,966.6L1099.1,943.9Z" shape-rendering="crispEdges"/><path fill="#C5D8E9" d="M442.4,186.5L488.9,289.5L514.1,176.6Z" shape-rendering="crispEdges"/><path fill="#AEC1DD" d="M334.5,489.5L460.8,504.5L461.8,418.5Z" shape-rendering="crispEdges"/><path fill="#834F95" d="M1031.4,978.9L1088.8,1011.2L1099.1,943.9Z" shape-rendering="crispEdges"/><path fill="#875C9C" d="M956.3,1037.7L947.1,941.2L868.9,947.3Z" shape-rendering="crispEdges"/><path fill="#BFADD4" d="M1272.2,5L1157,48.2L1259.4,57.2Z" shape-rendering="crispEdges"/><path fill="#C2B2D7" d="M1272.2,5L1161.8,-44.4L1157,48.2Z" shape-rendering="crispEdges"/><path fill="#85619A" d="M835.6,1046.6L859.8,1030.9L781.9,941.9Z" shape-rendering="crispEdges"/><path fill="#A898C9" d="M415.9,717.5L462.1,776.5L488,677.5Z" shape-rendering="crispEdges"/><path fill="#A386BE" d="M505.2,777.4L518.8,863.6L592.3,826.3Z" shape-rendering="crispEdges"/><path fill="#A99ECB" d="M415.9,717.5L488,677.5L440.1,666Z" shape-rendering="crispEdges"/><path fill="#81408E" d="M1249.4,1018.7L1236.5,951.3L1193.6,966.6Z" shape-rendering="crispEdges"/><path fill="#894697" d="M1193.6,966.6L1236.5,951.3L1193.1,884.9Z" shape-rendering="crispEdges"/><path fill="#89459E" d="M1504.4,819.1L1510.8,716.6L1394.6,783.4Z" shape-rendering="crispEdges"/><path fill="#825C97" d="M859.8,1030.9L956.3,1037.7L868.9,947.3Z" shape-rendering="crispEdges"/><path fill="#C2C6E1" d="M970.5,-105.3L962,-5.7L1011.9,-45.7Z" shape-rendering="crispEdges"/><path fill="#C3CAE3" d="M970.5,-105.3L865.5,-90L962,-5.7Z" shape-rendering="crispEdges"/><path fill="#CCDDEB" d="M514.2,115.4L442.4,186.5L514.1,176.6Z" shape-rendering="crispEdges"/><path fill="#8A52A4" d="M1510.8,716.6L1432.3,674.6L1392.5,726.8Z" shape-rendering="crispEdges"/><path fill="#8B5BA9" d="M1432.3,674.6L1474.8,667.6L1435.6,597.3Z" shape-rendering="crispEdges"/><path fill="#977CB7" d="M1553.8,419.1L1461.9,363.4L1465.6,440.4Z" shape-rendering="crispEdges"/><path fill="#A58BC1" d="M462.1,776.5L518.8,863.6L505.2,777.4Z" shape-rendering="crispEdges"/><path fill="#BAA3CF" d="M1345.9,25L1276,105.9L1308,145.5Z" shape-rendering="crispEdges"/><path fill="#7C5190" d="M956.3,1037.7L1061.7,1033.4L1031.4,978.9Z" shape-rendering="crispEdges"/><path fill="#7B3E89" d="M1204.1,1045.6L1249.4,1018.7L1193.6,966.6Z" shape-rendering="crispEdges"/><path fill="#C2BCDC" d="M1135.4,-99.6L1037.4,-95.4L1087.6,-1.2Z" shape-rendering="crispEdges"/><path fill="#ACA3CE" d="M341.8,632.5L415.9,717.5L440.1,666Z" shape-rendering="crispEdges"/><path fill="#A57BB2" d="M439.8,962.8L505.5,960.7L518.8,863.6Z" shape-rendering="crispEdges"/><path fill="#D1E0EE" d="M637.3,-44.9L611.3,-4.8L643.1,45.6Z" shape-rendering="crispEdges"/><path fill="#D0E0ED" d="M588.4,51.8L493.3,71.6L563.1,103.1Z" shape-rendering="crispEdges"/><path fill="#D1E0ED" d="M514.2,115.4L438.5,100.8L442.4,186.5Z" shape-rendering="crispEdges"/><path fill="#CEDEED" d="M637.3,-44.9L643.1,45.6L735.4,-42.2Z" shape-rendering="crispEdges"/><path fill="#C2C3DF" d="M1037.4,-95.4L970.5,-105.3L1011.9,-45.7Z" shape-rendering="crispEdges"/><path fill="#87659C" d="M713.4,1023.5L835.6,1046.6L781.9,941.9Z" shape-rendering="crispEdges"/><path fill="#79588F" d="M859.8,1030.9L870.2,1075.3L956.3,1037.7Z" shape-rendering="crispEdges"/><path fill="#734D87" d="M956.3,1037.7L1018.8,1117.3L1061.7,1033.4Z" shape-rendering="crispEdges"/><path fill="#A07DB5" d="M518.8,863.6L598.6,947.6L609.7,853.7Z" shape-rendering="crispEdges"/><path fill="#926EA6" d="M664.3,951.6L713.4,1023.5L733.8,924.9Z" shape-rendering="crispEdges"/><path fill="#C8D5E8" d="M722.6,-113.3L790.1,-94.3L865.5,-90Z" shape-rendering="crispEdges"/><path fill="#C7D4E7" d="M865.5,-90L790.1,-94.3L793,-31.1Z" shape-rendering="crispEdges"/><path fill="#ABACD3" d="M408.2,569.7L364,596.9L440.1,666Z" shape-rendering="crispEdges"/><path fill="#B7CEE3" d="M347.2,366L461.8,418.5L423.2,333.4Z" shape-rendering="crispEdges"/><path fill="#C6D8E9" d="M442.4,186.5L383.9,272.5L408.9,287.7Z" shape-rendering="crispEdges"/><path fill="#BED2E6" d="M408.9,287.7L347.2,366L423.2,333.4Z" shape-rendering="crispEdges"/><path fill="#B398C9" d="M1415.6,198.2L1403,108.7L1348.6,197.6Z" shape-rendering="crispEdges"/><path fill="#B696C8" d="M1501.1,103L1403,108.7L1415.6,198.2Z" shape-rendering="crispEdges"/><path fill="#8F6DA2" d="M649.7,1002.6L713.4,1023.5L664.3,951.6Z" shape-rendering="crispEdges"/><path fill="#CEDEED" d="M662.2,-74.6L637.3,-44.9L735.4,-42.2Z" shape-rendering="crispEdges"/><path fill="#D5E3EF" d="M506.8,-11.5L493.3,71.6L588.4,51.8Z" shape-rendering="crispEdges"/><path fill="#D4E2EF" d="M506.8,-11.5L588.4,51.8L611.3,-4.8Z" shape-rendering="crispEdges"/><path fill="#CBDCEB" d="M442.4,186.5L361.3,195.7L383.9,272.5Z" shape-rendering="crispEdges"/><path fill="#9F81BA" d="M1553.4,350.7L1508,291.5L1461.9,363.4Z" shape-rendering="crispEdges"/><path fill="#A286BE" d="M1461.9,363.4L1508,291.5L1422,263.3Z" shape-rendering="crispEdges"/><path fill="#8E6CAF" d="M1546.2,515.3L1457.2,479.1L1461.9,573.4Z" shape-rendering="crispEdges"/><path fill="#C1D5E7" d="M383.9,272.5L347.2,366L408.9,287.7Z" shape-rendering="crispEdges"/><path fill="#B3C8E0" d="M333.6,414.2L334.5,489.5L461.8,418.5Z" shape-rendering="crispEdges"/><path fill="#926FA3" d="M602,1028.2L649.7,1002.6L598.6,947.6Z" shape-rendering="crispEdges"/><path fill="#9771A8" d="M598.6,947.6L649.7,1002.6L664.3,951.6Z" shape-rendering="crispEdges"/><path fill="#C2B5D9" d="M1186.4,-112.2L1135.4,-99.6L1161.8,-44.4Z" shape-rendering="crispEdges"/><path fill="#C2B8DA" d="M1161.8,-44.4L1135.4,-99.6L1087.6,-1.2Z" shape-rendering="crispEdges"/><path fill="#C2BEDD" d="M1037.4,-95.4L1186.4,-112.2L970.5,-105.3Z" shape-rendering="crispEdges"/><path fill="#BAA0CD" d="M1403,108.7L1345.9,25L1308,145.5Z" shape-rendering="crispEdges"/><path fill="#C2B1D6" d="M1285.3,-94.7L1186.4,-112.2L1161.8,-44.4Z" shape-rendering="crispEdges"/><path fill="#B6CDE3" d="M347.2,366L333.6,414.2L461.8,418.5Z" shape-rendering="crispEdges"/><path fill="#7D6093" d="M796.5,1080.4L835.6,1046.6L713.4,1023.5Z" shape-rendering="crispEdges"/><path fill="#785B8D" d="M796.5,1080.4L870.2,1075.3L835.6,1046.6Z" shape-rendering="crispEdges"/><path fill="#7A5B90" d="M835.6,1046.6L870.2,1075.3L859.8,1030.9Z" shape-rendering="crispEdges"/><path fill="#8C63A9" d="M1541.3,630.1L1546.2,515.3L1461.9,573.4Z" shape-rendering="crispEdges"/><path fill="#CCDCEC" d="M722.6,-113.3L662.2,-74.6L735.4,-42.2Z" shape-rendering="crispEdges"/><path fill="#D5E3EF" d="M590.4,-77.8L506.8,-11.5L611.3,-4.8Z" shape-rendering="crispEdges"/><path fill="#74548A" d="M870.2,1075.3L933.7,1088.6L956.3,1037.7Z" shape-rendering="crispEdges"/><path fill="#B2B0D5" d="M312.9,645.2L341.8,632.5L281,575.2Z" shape-rendering="crispEdges"/><path fill="#ADAAD2" d="M364,596.9L341.8,632.5L440.1,666Z" shape-rendering="crispEdges"/><path fill="#AB97C8" d="M415.9,717.5L366.2,745.8L462.1,776.5Z" shape-rendering="crispEdges"/><path fill="#9373B2" d="M1546.2,515.3L1553.8,419.1L1465.6,440.4Z" shape-rendering="crispEdges"/><path fill="#D6E4F0" d="M415.8,75.3L438.5,100.8L493.3,71.6Z" shape-rendering="crispEdges"/><path fill="#D3E2EE" d="M493.3,71.6L438.5,100.8L514.2,115.4Z" shape-rendering="crispEdges"/><path fill="#C2D6E8" d="M383.9,272.5L295.9,324.5L347.2,366Z" shape-rendering="crispEdges"/><path fill="#C6D1E6" d="M970.5,-105.3L722.6,-113.3L865.5,-90Z" shape-rendering="crispEdges"/><path fill="#CAD9EA" d="M790.1,-94.3L722.6,-113.3L735.4,-42.2Z" shape-rendering="crispEdges"/><path fill="#894DA2" d="M1394.6,783.4L1510.8,716.6L1392.5,726.8Z" shape-rendering="crispEdges"/><path fill="#8B5CA7" d="M1474.8,667.6L1541.3,630.1L1461.9,573.4Z" shape-rendering="crispEdges"/><path fill="#88439C" d="M1431.3,854.9L1334,828.3L1325.5,856.1Z" shape-rendering="crispEdges"/><path fill="#8A52A2" d="M1510.8,716.6L1541.3,630.1L1474.8,667.6Z" shape-rendering="crispEdges"/><path fill="#936FAE" d="M1546.2,515.3L1625.1,438L1553.8,419.1Z" shape-rendering="crispEdges"/><path fill="#7A608F" d="M747,1116.2L796.5,1080.4L713.4,1023.5Z" shape-rendering="crispEdges"/><path fill="#715387" d="M906.1,1176.4L935.6,1176.6L933.7,1088.6Z" shape-rendering="crispEdges"/><path fill="#873B96" d="M1407.1,943.2L1431.3,854.9L1325.5,856.1Z" shape-rendering="crispEdges"/><path fill="#B5C6E0" d="M333.6,414.2L312.6,503.2L334.5,489.5Z" shape-rendering="crispEdges"/><path fill="#B0BDDB" d="M334.5,489.5L312.6,503.2L364,596.9Z" shape-rendering="crispEdges"/><path fill="#9A7CB7" d="M1553.8,419.1L1553.4,350.7L1461.9,363.4Z" shape-rendering="crispEdges"/><path fill="#A98AC0" d="M1508,291.5L1501,195.1L1422,263.3Z" shape-rendering="crispEdges"/><path fill="#A886BC" d="M1552.4,271.7L1501,195.1L1508,291.5Z" shape-rendering="crispEdges"/><path fill="#BD9ECD" d="M1403,108.7L1418.2,42.6L1345.9,25Z" shape-rendering="crispEdges"/><path fill="#7C448B" d="M1204.1,1045.6L1193.6,966.6L1088.8,1011.2Z" shape-rendering="crispEdges"/><path fill="#884094" d="M1236.5,951.3L1320.3,976.6L1261,874.2Z" shape-rendering="crispEdges"/><path fill="#734183" d="M1204.1,1045.6L1088.8,1011.2L1160.1,1108.9Z" shape-rendering="crispEdges"/><path fill="#C2A5D1" d="M1392.2,-20.9L1314.9,-34.2L1345.9,25Z" shape-rendering="crispEdges"/><path fill="#C2A8D2" d="M1345.9,25L1314.9,-34.2L1272.2,5Z" shape-rendering="crispEdges"/><path fill="#6E417F" d="M1160.1,1108.9L1088.8,1011.2L1117.6,1127.2Z" shape-rendering="crispEdges"/><path fill="#B0A5D0" d="M312.9,645.2L366.2,745.8L341.8,632.5Z" shape-rendering="crispEdges"/><path fill="#AEA0CD" d="M341.8,632.5L366.2,745.8L415.9,717.5Z" shape-rendering="crispEdges"/><path fill="#9270A2" d="M534,1037.8L602,1028.2L598.6,947.6Z" shape-rendering="crispEdges"/><path fill="#803B8C" d="M1249.4,1018.7L1320.3,976.6L1236.5,951.3Z" shape-rendering="crispEdges"/><path fill="#7E3287" d="M1407.1,943.2L1320.3,976.6L1344.7,1043Z" shape-rendering="crispEdges"/><path fill="#C2AED5" d="M1285.3,-94.7L1161.8,-44.4L1272.2,5Z" shape-rendering="crispEdges"/><path fill="#C2B9DA" d="M1135.4,-99.6L1186.4,-112.2L1037.4,-95.4Z" shape-rendering="crispEdges"/><path fill="#C2C8E1" d="M970.5,-105.3L1186.4,-112.2L722.6,-113.3Z" shape-rendering="crispEdges"/><path fill="#D2E1EE" d="M353.7,115.4L361.3,195.7L442.4,186.5Z" shape-rendering="crispEdges"/><path fill="#BBD1E5" d="M347.2,366L264.9,405L333.6,414.2Z" shape-rendering="crispEdges"/><path fill="#B8CBE2" d="M333.6,414.2L264.9,405L312.6,503.2Z" shape-rendering="crispEdges"/><path fill="#BB9ACB" d="M1472.2,74.1L1418.2,42.6L1403,108.7Z" shape-rendering="crispEdges"/><path fill="#A281B9" d="M1553.4,350.7L1552.4,271.7L1508,291.5Z" shape-rendering="crispEdges"/><path fill="#B997C8" d="M1501.1,103L1472.2,74.1L1403,108.7Z" shape-rendering="crispEdges"/><path fill="#D1E0EE" d="M590.4,-77.8L637.3,-44.9L662.2,-74.6Z" shape-rendering="crispEdges"/><path fill="#D2E1EE" d="M590.4,-77.8L611.3,-4.8L637.3,-44.9Z" shape-rendering="crispEdges"/><path fill="#D4E3EF" d="M438.5,100.8L353.7,115.4L442.4,186.5Z" shape-rendering="crispEdges"/><path fill="#B0B2D6" d="M281,575.2L341.8,632.5L364,596.9Z" shape-rendering="crispEdges"/><path fill="#A27AB1" d="M505.5,960.7L598.6,947.6L518.8,863.6Z" shape-rendering="crispEdges"/><path fill="#836797" d="M649.7,1002.6L675.1,1117.5L713.4,1023.5Z" shape-rendering="crispEdges"/><path fill="#CFDFED" d="M722.6,-113.3L590.4,-77.8L662.2,-74.6Z" shape-rendering="crispEdges"/><path fill="#705086" d="M935.6,1176.6L1018.8,1117.3L933.7,1088.6Z" shape-rendering="crispEdges"/><path fill="#704F86" d="M933.7,1088.6L1018.8,1117.3L956.3,1037.7Z" shape-rendering="crispEdges"/><path fill="#A788BF" d="M410.7,862.3L518.8,863.6L462.1,776.5Z" shape-rendering="crispEdges"/><path fill="#D9E6F1" d="M451.3,0L415.8,75.3L493.3,71.6Z" shape-rendering="crispEdges"/><path fill="#AC94C7" d="M359.4,797.4L462.1,776.5L366.2,745.8Z" shape-rendering="crispEdges"/><path fill="#AB8EC3" d="M359.4,797.4L410.7,862.3L462.1,776.5Z" shape-rendering="crispEdges"/><path fill="#CBDCEB" d="M290.4,279.4L383.9,272.5L361.3,195.7Z" shape-rendering="crispEdges"/><path fill="#C7D9EA" d="M290.4,279.4L295.9,324.5L383.9,272.5Z" shape-rendering="crispEdges"/><path fill="#B1B9D9" d="M312.6,503.2L281,575.2L364,596.9Z" shape-rendering="crispEdges"/><path fill="#8B5AA3" d="M1609.6,591.1L1587.5,577.4L1541.3,630.1Z" shape-rendering="crispEdges"/><path fill="#8C5FA6" d="M1541.3,630.1L1587.5,577.4L1546.2,515.3Z" shape-rendering="crispEdges"/><path fill="#9777B2" d="M1553.8,419.1L1625.1,438L1553.4,350.7Z" shape-rendering="crispEdges"/><path fill="#A27EB6" d="M1553.4,350.7L1619.2,296.2L1552.4,271.7Z" shape-rendering="crispEdges"/><path fill="#B098C9" d="M303.5,740.3L359.4,797.4L366.2,745.8Z" shape-rendering="crispEdges"/><path fill="#B4C0DD" d="M237.8,505.9L281,575.2L312.6,503.2Z" shape-rendering="crispEdges"/><path fill="#B1A1CD" d="M312.9,645.2L303.5,740.3L366.2,745.8Z" shape-rendering="crispEdges"/><path fill="#C2AAD3" d="M1314.9,-34.2L1285.3,-94.7L1272.2,5Z" shape-rendering="crispEdges"/><path fill="#C2A8D2" d="M1352.1,-111.1L1285.3,-94.7L1314.9,-34.2Z" shape-rendering="crispEdges"/><path fill="#883F9C" d="M1431.3,854.9L1504.4,819.1L1394.6,783.4Z" shape-rendering="crispEdges"/><path fill="#8A50A0" d="M1510.8,716.6L1608.9,651.7L1541.3,630.1Z" shape-rendering="crispEdges"/><path fill="#873795" d="M1497.3,891.4L1504.4,819.1L1431.3,854.9Z" shape-rendering="crispEdges"/><path fill="#793685" d="M1344.7,1043L1320.3,976.6L1249.4,1018.7Z" shape-rendering="crispEdges"/><path fill="#873992" d="M1320.3,976.6L1407.1,943.2L1325.5,856.1Z" shape-rendering="crispEdges"/><path fill="#B391C4" d="M1501.1,103L1415.6,198.2L1501,195.1Z" shape-rendering="crispEdges"/><path fill="#C0A1CF" d="M1418.2,42.6L1392.2,-20.9L1345.9,25Z" shape-rendering="crispEdges"/><path fill="#C19ECD" d="M1498.9,-29.4L1392.2,-20.9L1418.2,42.6Z" shape-rendering="crispEdges"/><path fill="#7A6290" d="M675.1,1117.5L747,1116.2L713.4,1023.5Z" shape-rendering="crispEdges"/><path fill="#725488" d="M906.1,1176.4L933.7,1088.6L870.2,1075.3Z" shape-rendering="crispEdges"/><path fill="#B690C2" d="M1579.3,103.5L1501.1,103L1501,195.1Z" shape-rendering="crispEdges"/><path fill="#C2A2CF" d="M1401.4,-120.6L1352.1,-111.1L1392.2,-20.9Z" shape-rendering="crispEdges"/><path fill="#734685" d="M1117.6,1127.2L1088.8,1011.2L1061.7,1033.4Z" shape-rendering="crispEdges"/><path fill="#71347E" d="M1265.5,1100.4L1344.7,1043L1249.4,1018.7Z" shape-rendering="crispEdges"/><path fill="#D0DFED" d="M260.9,226.1L290.4,279.4L361.3,195.7Z" shape-rendering="crispEdges"/><path fill="#C0D4E7" d="M295.9,324.5L264.9,405L347.2,366Z" shape-rendering="crispEdges"/><path fill="#C2D6E8" d="M227.2,369.5L264.9,405L295.9,324.5Z" shape-rendering="crispEdges"/><path fill="#D9E6F1" d="M506.8,-11.5L451.3,0L493.3,71.6Z" shape-rendering="crispEdges"/><path fill="#D8E6F1" d="M415.8,75.3L353.7,115.4L438.5,100.8Z" shape-rendering="crispEdges"/><path fill="#DBE7F1" d="M494.8,-100L451.3,0L506.8,-11.5Z" shape-rendering="crispEdges"/><path fill="#88429B" d="M1504.4,819.1L1554.4,753.1L1510.8,716.6Z" shape-rendering="crispEdges"/><path fill="#6F4782" d="M1051,1179.5L1117.6,1127.2L1018.8,1117.3Z" shape-rendering="crispEdges"/><path fill="#6F4782" d="M1018.8,1117.3L1117.6,1127.2L1061.7,1033.4Z" shape-rendering="crispEdges"/><path fill="#8B55A1" d="M1608.9,651.7L1609.6,591.1L1541.3,630.1Z" shape-rendering="crispEdges"/><path fill="#9069AA" d="M1635.6,509.1L1625.1,438L1546.2,515.3Z" shape-rendering="crispEdges"/><path fill="#DAE7F1" d="M379.9,69.4L353.7,115.4L415.8,75.3Z" shape-rendering="crispEdges"/><path fill="#DBE8F2" d="M451.3,0L379.9,69.4L415.8,75.3Z" shape-rendering="crispEdges"/><path fill="#B4A7D1" d="M211.5,674.7L303.5,740.3L312.9,645.2Z" shape-rendering="crispEdges"/><path fill="#AA7FB4" d="M365.1,957.1L439.8,962.8L410.7,862.3Z" shape-rendering="crispEdges"/><path fill="#8C64A7" d="M1635.6,509.1L1546.2,515.3L1587.5,577.4Z" shape-rendering="crispEdges"/><path fill="#AB87BC" d="M1552.4,271.7L1578.2,216.5L1501,195.1Z" shape-rendering="crispEdges"/><path fill="#A781B7" d="M1619.2,296.2L1578.2,216.5L1552.4,271.7Z" shape-rendering="crispEdges"/><path fill="#9973A7" d="M505.5,960.7L534,1037.8L598.6,947.6Z" shape-rendering="crispEdges"/><path fill="#856897" d="M602,1028.2L675.1,1117.5L649.7,1002.6Z" shape-rendering="crispEdges"/><path fill="#9B75A7" d="M439.8,962.8L534,1037.8L505.5,960.7Z" shape-rendering="crispEdges"/><path fill="#A781B7" d="M439.8,962.8L518.8,863.6L410.7,862.3Z" shape-rendering="crispEdges"/><path fill="#89499C" d="M1554.4,753.1L1608.9,651.7L1510.8,716.6Z" shape-rendering="crispEdges"/><path fill="#8C5EA4" d="M1609.6,591.1L1635.6,509.1L1587.5,577.4Z" shape-rendering="crispEdges"/><path fill="#816793" d="M581.8,1076.5L675.1,1117.5L602,1028.2Z" shape-rendering="crispEdges"/><path fill="#765A8B" d="M803.4,1164L870.2,1075.3L796.5,1080.4Z" shape-rendering="crispEdges"/><path fill="#AD8CC0" d="M355.2,864.4L410.7,862.3L359.4,797.4Z" shape-rendering="crispEdges"/><path fill="#8F65A3" d="M1711.4,434.3L1635.6,509.1L1736.4,484.5Z" shape-rendering="crispEdges"/><path fill="#873A96" d="M1504.4,819.1L1577.7,830L1554.4,753.1Z" shape-rendering="crispEdges"/><path fill="#849" d="M1554.4,753.1L1624.9,748.9L1608.9,651.7Z" shape-rendering="crispEdges"/><path fill="#863291" d="M1466.6,942.9L1497.3,891.4L1431.3,854.9Z" shape-rendering="crispEdges"/><path fill="#863290" d="M1466.6,942.9L1431.3,854.9L1407.1,943.2Z" shape-rendering="crispEdges"/><path fill="#B9C8E1" d="M264.9,405L237.8,505.9L312.6,503.2Z" shape-rendering="crispEdges"/><path fill="#B5B0D5" d="M281,575.2L211.5,674.7L312.9,645.2Z" shape-rendering="crispEdges"/><path fill="#BDCEE4" d="M182.6,421.1L237.8,505.9L264.9,405Z" shape-rendering="crispEdges"/><path fill="#866A95" d="M527,1096.2L581.8,1076.5L534,1037.8Z" shape-rendering="crispEdges"/><path fill="#8A6C99" d="M534,1037.8L581.8,1076.5L602,1028.2Z" shape-rendering="crispEdges"/><path fill="#6D397C" d="M1265.5,1100.4L1204.1,1045.6L1160.1,1108.9Z" shape-rendering="crispEdges"/><path fill="#72387F" d="M1265.5,1100.4L1249.4,1018.7L1204.1,1045.6Z" shape-rendering="crispEdges"/><path fill="#B08FC3" d="M300.1,819.5L355.2,864.4L359.4,797.4Z" shape-rendering="crispEdges"/><path fill="#9A77B1" d="M1648.4,332.7L1553.4,350.7L1625.1,438Z" shape-rendering="crispEdges"/><path fill="#9F7BB3" d="M1648.4,332.7L1619.2,296.2L1553.4,350.7Z" shape-rendering="crispEdges"/><path fill="#775D8D" d="M803.4,1164L796.5,1080.4L747,1116.2Z" shape-rendering="crispEdges"/><path fill="#785F8E" d="M751.3,1159.4L803.4,1164L747,1116.2Z" shape-rendering="crispEdges"/><path fill="#74588A" d="M803.4,1164L906.1,1176.4L870.2,1075.3Z" shape-rendering="crispEdges"/><path fill="#812A88" d="M1478.4,1011.5L1466.6,942.9L1407.1,943.2Z" shape-rendering="crispEdges"/><path fill="#6E3F7E" d="M1170.8,1196.7L1160.1,1108.9L1117.6,1127.2Z" shape-rendering="crispEdges"/><path fill="#6D377B" d="M1265.2,1168.3L1265.5,1100.4L1160.1,1108.9Z" shape-rendering="crispEdges"/><path fill="#D7E5F0" d="M353.7,115.4L303.2,148.7L361.3,195.7Z" shape-rendering="crispEdges"/><path fill="#C8DAEA" d="M197,297.7L227.2,369.5L295.9,324.5Z" shape-rendering="crispEdges"/><path fill="#DDE9F3" d="M295.9,67.3L303.2,148.7L353.7,115.4Z" shape-rendering="crispEdges"/><path fill="#7A628F" d="M675.1,1117.5L751.3,1159.4L747,1116.2Z" shape-rendering="crispEdges"/><path fill="#775D8D" d="M803.4,1164L668.5,1173.6L906.1,1176.4Z" shape-rendering="crispEdges"/><path fill="#7B6390" d="M668.5,1173.6L751.3,1159.4L675.1,1117.5Z" shape-rendering="crispEdges"/><path fill="#BF9ACA" d="M1498.9,-29.4L1418.2,42.6L1472.2,74.1Z" shape-rendering="crispEdges"/><path fill="#C2A5D0" d="M1392.2,-20.9L1352.1,-111.1L1314.9,-34.2Z" shape-rendering="crispEdges"/><path fill="#C2ABD4" d="M1285.3,-94.7L1352.1,-111.1L1186.4,-112.2Z" shape-rendering="crispEdges"/><path fill="#6F4A83" d="M1095.8,1185L1051,1179.5L935.6,1176.6Z" shape-rendering="crispEdges"/><path fill="#704C84" d="M935.6,1176.6L1051,1179.5L1018.8,1117.3Z" shape-rendering="crispEdges"/><path fill="#CADCEB" d="M197,297.7L295.9,324.5L290.4,279.4Z" shape-rendering="crispEdges"/><path fill="#B991C3" d="M1579.3,103.5L1532.5,70.6L1501.1,103Z" shape-rendering="crispEdges"/><path fill="#BA95C6" d="M1501.1,103L1532.5,70.6L1472.2,74.1Z" shape-rendering="crispEdges"/><path fill="#B18BBE" d="M1579.3,103.5L1501,195.1L1578.2,216.5Z" shape-rendering="crispEdges"/><path fill="#D5E3EF" d="M303.2,148.7L260.9,226.1L361.3,195.7Z" shape-rendering="crispEdges"/><path fill="#D3E1EE" d="M722.6,-113.3L494.8,-100L590.4,-77.8Z" shape-rendering="crispEdges"/><path fill="#D8E5F0" d="M590.4,-77.8L494.8,-100L506.8,-11.5Z" shape-rendering="crispEdges"/><path fill="#DFEBF3" d="M451.3,0L352.3,-10.7L379.9,69.4Z" shape-rendering="crispEdges"/><path fill="#DDEAF3" d="M379.9,69.4L295.9,67.3L353.7,115.4Z" shape-rendering="crispEdges"/><path fill="#9E75AD" d="M1685,289.7L1648.4,332.7L1726.7,362.7Z" shape-rendering="crispEdges"/><path fill="#B288BB" d="M1633.8,176.3L1579.3,103.5L1578.2,216.5Z" shape-rendering="crispEdges"/><path fill="#B196C8" d="M303.5,740.3L300.1,819.5L359.4,797.4Z" shape-rendering="crispEdges"/><path fill="#AD85B9" d="M355.2,864.4L365.1,957.1L410.7,862.3Z" shape-rendering="crispEdges"/><path fill="#B59BCB" d="M183.7,755.6L300.1,819.5L303.5,740.3Z" shape-rendering="crispEdges"/><path fill="#6F4682" d="M1170.8,1196.7L1095.8,1185L935.6,1176.6Z" shape-rendering="crispEdges"/><path fill="#6F4581" d="M1051,1179.5L1095.8,1185L1117.6,1127.2Z" shape-rendering="crispEdges"/><path fill="#852E8E" d="M1579.6,888.7L1577.7,830L1497.3,891.4Z" shape-rendering="crispEdges"/><path fill="#863492" d="M1497.3,891.4L1577.7,830L1504.4,819.1Z" shape-rendering="crispEdges"/><path fill="#8B5CA1" d="M1708.7,562.8L1635.6,509.1L1609.6,591.1Z" shape-rendering="crispEdges"/><path fill="#AA82B7" d="M1633.8,176.3L1578.2,216.5L1619.2,296.2Z" shape-rendering="crispEdges"/><path fill="#C19FCE" d="M1463.4,-87.6L1401.4,-120.6L1392.2,-20.9Z" shape-rendering="crispEdges"/><path fill="#873B95" d="M1637.6,794.9L1624.9,748.9L1554.4,753.1Z" shape-rendering="crispEdges"/><path fill="#9771AC" d="M1711.4,434.3L1648.4,332.7L1625.1,438Z" shape-rendering="crispEdges"/><path fill="#B9C1DD" d="M125.5,558L203.2,577.8L237.8,505.9Z" shape-rendering="crispEdges"/><path fill="#B6BEDC" d="M237.8,505.9L203.2,577.8L281,575.2Z" shape-rendering="crispEdges"/><path fill="#782E82" d="M1344.7,1043L1402.5,1051.4L1407.1,943.2Z" shape-rendering="crispEdges"/><path fill="#852A8B" d="M1466.6,942.9L1532.3,937.7L1497.3,891.4Z" shape-rendering="crispEdges"/><path fill="#6F2A79" d="M1410.1,1079L1402.5,1051.4L1344.7,1043Z" shape-rendering="crispEdges"/><path fill="#6C2F77" d="M1341.9,1106.5L1344.7,1043L1265.5,1100.4Z" shape-rendering="crispEdges"/><path fill="#896C96" d="M435.1,1082.8L527,1096.2L534,1037.8Z" shape-rendering="crispEdges"/><path fill="#7F6591" d="M580.1,1166.9L668.5,1173.6L675.1,1117.5Z" shape-rendering="crispEdges"/><path fill="#9774A2" d="M409.9,1045.3L534,1037.8L439.8,962.8Z" shape-rendering="crispEdges"/><path fill="#AF86B9" d="M302.1,889.2L365.1,957.1L355.2,864.4Z" shape-rendering="crispEdges"/><path fill="#806792" d="M580.1,1166.9L675.1,1117.5L581.8,1076.5Z" shape-rendering="crispEdges"/><path fill="#79618F" d="M751.3,1159.4L668.5,1173.6L803.4,1164Z" shape-rendering="crispEdges"/><path fill="#6F4C84" d="M906.1,1176.4L1170.8,1196.7L935.6,1176.6Z" shape-rendering="crispEdges"/><path fill="#BE97C7" d="M1498.9,-29.4L1472.2,74.1L1532.5,70.6Z" shape-rendering="crispEdges"/><path fill="#C2A8D2" d="M1352.1,-111.1L1401.4,-120.6L1186.4,-112.2Z" shape-rendering="crispEdges"/><path fill="#C2BADB" d="M1186.4,-112.2L1401.4,-120.6L722.6,-113.3Z" shape-rendering="crispEdges"/><path fill="#6C3279" d="M1265.2,1168.3L1341.9,1106.5L1265.5,1100.4Z" shape-rendering="crispEdges"/><path fill="#C096C6" d="M1576.2,-29.5L1498.9,-29.4L1532.5,70.6Z" shape-rendering="crispEdges"/><path fill="#B7B5D8" d="M203.2,577.8L211.5,674.7L281,575.2Z" shape-rendering="crispEdges"/><path fill="#B18CC0" d="M300.1,819.5L302.1,889.2L355.2,864.4Z" shape-rendering="crispEdges"/><path fill="#7A2A82" d="M1478.4,1011.5L1407.1,943.2L1402.5,1051.4Z" shape-rendering="crispEdges"/><path fill="#802685" d="M1478.4,1011.5L1532.3,937.7L1466.6,942.9Z" shape-rendering="crispEdges"/><path fill="#873894" d="M1577.7,830L1637.6,794.9L1554.4,753.1Z" shape-rendering="crispEdges"/><path fill="#DDE9F2" d="M494.8,-100L424,-83.6L451.3,0Z" shape-rendering="crispEdges"/><path fill="#D9E7F1" d="M303.2,148.7L188.6,177L260.9,226.1Z" shape-rendering="crispEdges"/><path fill="#C4D7E9" d="M135.7,369.6L182.6,421.1L227.2,369.5Z" shape-rendering="crispEdges"/><path fill="#C1D5E8" d="M227.2,369.5L182.6,421.1L264.9,405Z" shape-rendering="crispEdges"/><path fill="#B9A4D0" d="M148.4,752.8L183.7,755.6L211.5,674.7Z" shape-rendering="crispEdges"/><path fill="#A77DB3" d="M1685,289.7L1633.8,176.3L1619.2,296.2Z" shape-rendering="crispEdges"/><path fill="#BF93C2" d="M1627.6,4L1576.2,-29.5L1532.5,70.6Z" shape-rendering="crispEdges"/><path fill="#E0EBF4" d="M424,-83.6L352.3,-10.7L451.3,0Z" shape-rendering="crispEdges"/><path fill="#CFDFED" d="M260.9,226.1L197,297.7L290.4,279.4Z" shape-rendering="crispEdges"/><path fill="#E1ECF4" d="M352.3,-10.7L295.9,67.3L379.9,69.4Z" shape-rendering="crispEdges"/><path fill="#B38DBF" d="M224.7,901L302.1,889.2L300.1,819.5Z" shape-rendering="crispEdges"/><path fill="#D5E4EF" d="M188.6,177L197,297.7L260.9,226.1Z" shape-rendering="crispEdges"/><path fill="#6E417F" d="M1095.8,1185L1170.8,1196.7L1117.6,1127.2Z" shape-rendering="crispEdges"/><path fill="#725388" d="M668.5,1173.6L1170.8,1196.7L906.1,1176.4Z" shape-rendering="crispEdges"/><path fill="#712679" d="M1410.1,1079L1478.4,1011.5L1402.5,1051.4Z" shape-rendering="crispEdges"/><path fill="#831E83" d="M1656.5,890.4L1579.6,888.7L1655,963Z" shape-rendering="crispEdges"/><path fill="#852A8A" d="M1532.3,937.7L1579.6,888.7L1497.3,891.4Z" shape-rendering="crispEdges"/><path fill="#C198C7" d="M1577.4,-114L1463.4,-87.6L1498.9,-29.4Z" shape-rendering="crispEdges"/><path fill="#C19DCC" d="M1498.9,-29.4L1463.4,-87.6L1392.2,-20.9Z" shape-rendering="crispEdges"/><path fill="#6C2B76" d="M1341.9,1106.5L1410.1,1079L1344.7,1043Z" shape-rendering="crispEdges"/><path fill="#6B2975" d="M1382.8,1167.7L1410.1,1079L1341.9,1106.5Z" shape-rendering="crispEdges"/><path fill="#9269A8" d="M1711.4,434.3L1625.1,438L1635.6,509.1Z" shape-rendering="crispEdges"/><path fill="#A179B1" d="M1648.4,332.7L1685,289.7L1619.2,296.2Z" shape-rendering="crispEdges"/><path fill="#6D3A7C" d="M1170.8,1196.7L1265.2,1168.3L1160.1,1108.9Z" shape-rendering="crispEdges"/><path fill="#852D8D" d="M1656.5,890.4L1637.6,794.9L1577.7,830Z" shape-rendering="crispEdges"/><path fill="#8A529C" d="M1708.7,562.8L1609.6,591.1L1696.6,657.3Z" shape-rendering="crispEdges"/><path fill="#8A509C" d="M1609.6,591.1L1608.9,651.7L1696.6,657.3Z" shape-rendering="crispEdges"/><path fill="#894698" d="M1696.6,657.3L1608.9,651.7L1624.9,748.9Z" shape-rendering="crispEdges"/><path fill="#9C77A4" d="M347.4,1054.9L409.9,1045.3L365.1,957.1Z" shape-rendering="crispEdges"/><path fill="#A179A9" d="M365.1,957.1L409.9,1045.3L439.8,962.8Z" shape-rendering="crispEdges"/><path fill="#836993" d="M527,1096.2L580.1,1166.9L581.8,1076.5Z" shape-rendering="crispEdges"/><path fill="#856A94" d="M518.3,1151.6L580.1,1166.9L527,1096.2Z" shape-rendering="crispEdges"/><path fill="#883F93" d="M1718,731L1696.6,657.3L1624.9,748.9Z" shape-rendering="crispEdges"/><path fill="#B486B8" d="M1682.2,124.8L1642.8,123.2L1633.8,176.3Z" shape-rendering="crispEdges"/><path fill="#B589BB" d="M1633.8,176.3L1642.8,123.2L1579.3,103.5Z" shape-rendering="crispEdges"/><path fill="#8F709B" d="M409.9,1045.3L435.1,1082.8L534,1037.8Z" shape-rendering="crispEdges"/><path fill="#90719A" d="M343.2,1080.3L435.1,1082.8L409.9,1045.3Z" shape-rendering="crispEdges"/><path fill="#E0ECF4" d="M295.9,67.3L231.6,105.6L303.2,148.7Z" shape-rendering="crispEdges"/><path fill="#E4EFF6" d="M220.6,58L231.6,105.6L295.9,67.3Z" shape-rendering="crispEdges"/><path fill="#E8F1F7" d="M220.6,58L295.9,67.3L264.2,-35.5Z" shape-rendering="crispEdges"/><path fill="#9771AA" d="M1711.4,434.3L1726.7,362.7L1648.4,332.7Z" shape-rendering="crispEdges"/><path fill="#AA7EB2" d="M1685,289.7L1709.3,214.3L1633.8,176.3Z" shape-rendering="crispEdges"/><path fill="#8E6BA3" d="M1783.1,434.6L1726.7,362.7L1711.4,434.3Z" shape-rendering="crispEdges"/><path fill="#C3D5E8" d="M135.7,369.6L140.5,447.8L182.6,421.1Z" shape-rendering="crispEdges"/><path fill="#BECEE4" d="M182.6,421.1L140.5,447.8L237.8,505.9Z" shape-rendering="crispEdges"/><path fill="#C9DBEB" d="M135.7,369.6L227.2,369.5L197,297.7Z" shape-rendering="crispEdges"/><path fill="#876B95" d="M456,1150.7L518.3,1151.6L527,1096.2Z" shape-rendering="crispEdges"/><path fill="#855D9A" d="M1768.9,478.3L1736.4,484.5L1766.7,553.2Z" shape-rendering="crispEdges"/><path fill="#8C5FA0" d="M1708.7,562.8L1736.4,484.5L1635.6,509.1Z" shape-rendering="crispEdges"/><path fill="#DEEAF3" d="M494.8,-100L381.4,-103.7L424,-83.6Z" shape-rendering="crispEdges"/><path fill="#E2ECF4" d="M424,-83.6L381.4,-103.7L352.3,-10.7Z" shape-rendering="crispEdges"/><path fill="#D7E5F0" d="M722.6,-113.3L381.4,-103.7L494.8,-100Z" shape-rendering="crispEdges"/><path fill="#DFEBF4" d="M231.6,105.6L188.6,177L303.2,148.7Z" shape-rendering="crispEdges"/><path fill="#6D357A" d="M1170.8,1196.7L1341,1168.2L1265.2,1168.3Z" shape-rendering="crispEdges"/><path fill="#6C2F78" d="M1265.2,1168.3L1341,1168.2L1341.9,1106.5Z" shape-rendering="crispEdges"/><path fill="#721C75" d="M1586.4,1075.6L1577.2,1004.7L1478.4,1011.5Z" shape-rendering="crispEdges"/><path fill="#BAB3D7" d="M107.4,649L211.5,674.7L203.2,577.8Z" shape-rendering="crispEdges"/><path fill="#B7A3CF" d="M211.5,674.7L183.7,755.6L303.5,740.3Z" shape-rendering="crispEdges"/><path fill="#B083B6" d="M302.1,889.2L268.2,949.6L365.1,957.1Z" shape-rendering="crispEdges"/><path fill="#CFDFED" d="M128.2,268.8L135.7,369.6L197,297.7Z" shape-rendering="crispEdges"/><path fill="#BC90C1" d="M1627.6,4L1532.5,70.6L1579.3,103.5Z" shape-rendering="crispEdges"/><path fill="#C19ACA" d="M1463.4,-87.6L1577.4,-114L1401.4,-120.6Z" shape-rendering="crispEdges"/><path fill="#A077AA" d="M1802.2,284.7L1709.3,214.3L1685,289.7Z" shape-rendering="crispEdges"/><path fill="#BC8EBE" d="M1662.8,41.5L1627.6,4L1579.3,103.5Z" shape-rendering="crispEdges"/><path fill="#BECBE3" d="M112.9,485.1L237.8,505.9L140.5,447.8Z" shape-rendering="crispEdges"/><path fill="#BCC6E0" d="M112.9,485.1L125.5,558L237.8,505.9Z" shape-rendering="crispEdges"/><path fill="#B182B5" d="M1709.3,214.3L1682.2,124.8L1633.8,176.3Z" shape-rendering="crispEdges"/><path fill="#B386B9" d="M234.8,934.8L268.2,949.6L302.1,889.2Z" shape-rendering="crispEdges"/><path fill="#896D95" d="M435.1,1082.8L456,1150.7L527,1096.2Z" shape-rendering="crispEdges"/><path fill="#873891" d="M1637.6,794.9L1718,731L1624.9,748.9Z" shape-rendering="crispEdges"/><path fill="#855A9A" d="M1766.7,553.2L1736.4,484.5L1708.7,562.8Z" shape-rendering="crispEdges"/><path fill="#84328D" d="M1728.3,803.2L1718,731L1637.6,794.9Z" shape-rendering="crispEdges"/><path fill="#85298A" d="M1656.5,890.4L1577.7,830L1579.6,888.7Z" shape-rendering="crispEdges"/><path fill="#C2D0E5" d="M81.2,443.7L112.9,485.1L140.5,447.8Z" shape-rendering="crispEdges"/><path fill="#6B2874" d="M1463.9,1204L1382.8,1167.7L1341,1168.2Z" shape-rendering="crispEdges"/><path fill="#6B2C76" d="M1341,1168.2L1382.8,1167.7L1341.9,1106.5Z" shape-rendering="crispEdges"/><path fill="#832084" d="M1577.2,1004.7L1579.6,888.7L1532.3,937.7Z" shape-rendering="crispEdges"/><path fill="#E6F0F6" d="M264.2,-35.5L295.9,67.3L352.3,-10.7Z" shape-rendering="crispEdges"/><path fill="#E2EDF5" d="M127,112L116.2,175.7L188.6,177Z" shape-rendering="crispEdges"/><path fill="#D6E4EF" d="M188.6,177L128.2,268.8L197,297.7Z" shape-rendering="crispEdges"/><path fill="#BA9BCB" d="M141.5,796.6L187.6,822.6L183.7,755.6Z" shape-rendering="crispEdges"/><path fill="#B798C9" d="M183.7,755.6L187.6,822.6L300.1,819.5Z" shape-rendering="crispEdges"/><path fill="#9E79A5" d="M312.7,1052L347.4,1054.9L365.1,957.1Z" shape-rendering="crispEdges"/><path fill="#835095" d="M1766.7,553.2L1708.7,562.8L1762.1,672Z" shape-rendering="crispEdges"/><path fill="#8A649F" d="M1736.4,484.5L1768.9,478.3L1711.4,434.3Z" shape-rendering="crispEdges"/><path fill="#9A73A8" d="M1726.7,362.7L1802.2,284.7L1685,289.7Z" shape-rendering="crispEdges"/><path fill="#B691C3" d="M187.6,822.6L224.7,901L300.1,819.5Z" shape-rendering="crispEdges"/><path fill="#95759D" d="M312.7,1052L343.2,1080.3L347.4,1054.9Z" shape-rendering="crispEdges"/><path fill="#7C217F" d="M1577.2,1004.7L1532.3,937.7L1478.4,1011.5Z" shape-rendering="crispEdges"/><path fill="#8D6F97" d="M343.2,1080.3L456,1150.7L435.1,1082.8Z" shape-rendering="crispEdges"/><path fill="#896C95" d="M518.3,1151.6L342,1190.3L580.1,1166.9Z" shape-rendering="crispEdges"/><path fill="#6C2173" d="M1504,1119.1L1478.4,1011.5L1410.1,1079Z" shape-rendering="crispEdges"/><path fill="#854B95" d="M1762.1,672L1708.7,562.8L1696.6,657.3Z" shape-rendering="crispEdges"/><path fill="#B98BBC" d="M1662.8,41.5L1579.3,103.5L1642.8,123.2Z" shape-rendering="crispEdges"/><path fill="#DCE8F2" d="M116.2,175.7L128.2,268.8L188.6,177Z" shape-rendering="crispEdges"/><path fill="#C4D5E8" d="M135.7,369.6L81.2,443.7L140.5,447.8Z" shape-rendering="crispEdges"/><path fill="#BBAAD3" d="M107.4,649L148.4,752.8L211.5,674.7Z" shape-rendering="crispEdges"/><path fill="#B788B9" d="M127,966L234.8,934.8L224.7,901Z" shape-rendering="crispEdges"/><path fill="#BBBADA" d="M107.4,649L203.2,577.8L125.5,558Z" shape-rendering="crispEdges"/><path fill="#B489BB" d="M224.7,901L234.8,934.8L302.1,889.2Z" shape-rendering="crispEdges"/><path fill="#B891C2" d="M147.2,865.8L224.7,901L187.6,822.6Z" shape-rendering="crispEdges"/><path fill="#E5EFF6" d="M381.4,-103.7L264.2,-35.5L352.3,-10.7Z" shape-rendering="crispEdges"/><path fill="#BA88B9" d="M1698.1,42.8L1662.8,41.5L1682.2,124.8Z" shape-rendering="crispEdges"/><path fill="#B888B9" d="M1682.2,124.8L1662.8,41.5L1642.8,123.2Z" shape-rendering="crispEdges"/><path fill="#836098" d="M1842.1,489.1L1783.1,434.6L1768.9,478.3Z" shape-rendering="crispEdges"/><path fill="#8A659F" d="M1768.9,478.3L1783.1,434.6L1711.4,434.3Z" shape-rendering="crispEdges"/><path fill="#B385B3" d="M1799.1,70L1698.1,42.8L1682.2,124.8Z" shape-rendering="crispEdges"/><path fill="#834190" d="M1718,731L1762.1,672L1696.6,657.3Z" shape-rendering="crispEdges"/><path fill="#815B96" d="M1766.7,553.2L1842.1,489.1L1768.9,478.3Z" shape-rendering="crispEdges"/><path fill="#7F3B8C" d="M1771.6,740.4L1762.1,672L1718,731Z" shape-rendering="crispEdges"/><path fill="#BEBCDB" d="M33.3,583.2L107.4,649L125.5,558Z" shape-rendering="crispEdges"/><path fill="#A77DAC" d="M312.7,1052L365.1,957.1L268.2,949.6Z" shape-rendering="crispEdges"/><path fill="#94739C" d="M347.4,1054.9L343.2,1080.3L409.9,1045.3Z" shape-rendering="crispEdges"/><path fill="#A47DA8" d="M210.6,1049.7L312.7,1052L268.2,949.6Z" shape-rendering="crispEdges"/><path fill="#8E6CA1" d="M1783.1,434.6L1784.7,356.1L1726.7,362.7Z" shape-rendering="crispEdges"/><path fill="#C8DAEA" d="M75.9,354.5L81.2,443.7L135.7,369.6Z" shape-rendering="crispEdges"/><path fill="#BFC8E2" d="M112.9,485.1L33.9,505.8L125.5,558Z" shape-rendering="crispEdges"/><path fill="#842688" d="M1720.5,876.1L1637.6,794.9L1656.5,890.4Z" shape-rendering="crispEdges"/><path fill="#832989" d="M1720.5,876.1L1728.3,803.2L1637.6,794.9Z" shape-rendering="crispEdges"/><path fill="#BCA0CE" d="M65.4,747.8L141.5,796.6L148.4,752.8Z" shape-rendering="crispEdges"/><path fill="#BA9FCD" d="M148.4,752.8L141.5,796.6L183.7,755.6Z" shape-rendering="crispEdges"/><path fill="#97779D" d="M210.6,1049.7L308.4,1110.6L312.7,1052Z" shape-rendering="crispEdges"/><path fill="#6A2473" d="M1382.8,1167.7L1504,1119.1L1410.1,1079Z" shape-rendering="crispEdges"/><path fill="#811A80" d="M1577.2,1004.7L1655,963L1579.6,888.7Z" shape-rendering="crispEdges"/><path fill="#C092C1" d="M1653.3,-85.7L1577.4,-114L1576.2,-29.5Z" shape-rendering="crispEdges"/><path fill="#C195C5" d="M1576.2,-29.5L1577.4,-114L1498.9,-29.4Z" shape-rendering="crispEdges"/><path fill="#C091C0" d="M1653.3,-85.7L1576.2,-29.5L1627.6,4Z" shape-rendering="crispEdges"/><path fill="#CEDEED" d="M128.2,268.8L75.9,354.5L135.7,369.6Z" shape-rendering="crispEdges"/><path fill="#D2E1EE" d="M49,300.7L75.9,354.5L128.2,268.8Z" shape-rendering="crispEdges"/><path fill="#E3EEF5" d="M188.6,177L231.6,105.6L127,112Z" shape-rendering="crispEdges"/><path fill="#771576" d="M1617.7,1038.3L1655,963L1577.2,1004.7Z" shape-rendering="crispEdges"/><path fill="#E6F0F6" d="M127,112L231.6,105.6L220.6,58Z" shape-rendering="crispEdges"/><path fill="#AB80B0" d="M1796.1,155.6L1682.2,124.8L1709.3,214.3Z" shape-rendering="crispEdges"/><path fill="#BE8CBB" d="M1662.8,41.5L1726.9,-1L1627.6,4Z" shape-rendering="crispEdges"/><path fill="#80348A" d="M1728.3,803.2L1771.6,740.4L1718,731Z" shape-rendering="crispEdges"/><path fill="#7E4C90" d="M1762.1,672L1832.7,589.7L1766.7,553.2Z" shape-rendering="crispEdges"/><path fill="#7D2D85" d="M1772.9,828.4L1771.6,740.4L1728.3,803.2Z" shape-rendering="crispEdges"/><path fill="#811A80" d="M1706.9,938.2L1720.5,876.1L1656.5,890.4Z" shape-rendering="crispEdges"/><path fill="#BB95C6" d="M83.5,865.4L147.2,865.8L141.5,796.6Z" shape-rendering="crispEdges"/><path fill="#BA96C7" d="M141.5,796.6L147.2,865.8L187.6,822.6Z" shape-rendering="crispEdges"/><path fill="#8E6D9E" d="M1848.8,368.1L1802.2,284.7L1784.7,356.1Z" shape-rendering="crispEdges"/><path fill="#9370A3" d="M1784.7,356.1L1802.2,284.7L1726.7,362.7Z" shape-rendering="crispEdges"/><path fill="#896A9D" d="M1848.8,368.1L1784.7,356.1L1783.1,434.6Z" shape-rendering="crispEdges"/><path fill="#701670" d="M1586.4,1075.6L1617.7,1038.3L1577.2,1004.7Z" shape-rendering="crispEdges"/><path fill="#82157E" d="M1655,963L1706.9,938.2L1656.5,890.4Z" shape-rendering="crispEdges"/><path fill="#6B1C6F" d="M1504,1119.1L1586.4,1075.6L1478.4,1011.5Z" shape-rendering="crispEdges"/><path fill="#E9F2F8" d="M129.6,45.1L127,112L220.6,58Z" shape-rendering="crispEdges"/><path fill="#DCE8F2" d="M116.2,175.7L68.4,226.5L128.2,268.8Z" shape-rendering="crispEdges"/><path fill="#E7F1F7" d="M381.4,-103.7L257.3,-100.1L264.2,-35.5Z" shape-rendering="crispEdges"/><path fill="#ECF4F9" d="M264.2,-35.5L199.2,-44.1L220.6,58Z" shape-rendering="crispEdges"/><path fill="#9F78A8" d="M1802.2,284.7L1783.9,196.2L1709.3,214.3Z" shape-rendering="crispEdges"/><path fill="#AE82B0" d="M210.6,1049.7L268.2,949.6L234.8,934.8Z" shape-rendering="crispEdges"/><path fill="#92749A" d="M312.7,1052L308.4,1110.6L343.2,1080.3Z" shape-rendering="crispEdges"/><path fill="#8F7198" d="M343.2,1080.3L342,1190.3L456,1150.7Z" shape-rendering="crispEdges"/><path fill="#730C70" d="M1731.3,1043.2L1655,963L1617.7,1038.3Z" shape-rendering="crispEdges"/><path fill="#740A6F" d="M1759.8,967.6L1706.9,938.2L1731.3,1043.2Z" shape-rendering="crispEdges"/><path fill="#7C2682" d="M1769.8,852.3L1772.9,828.4L1728.3,803.2Z" shape-rendering="crispEdges"/><path fill="#ECF4F9" d="M212,-76.7L199.2,-44.1L264.2,-35.5Z" shape-rendering="crispEdges"/><path fill="#69196C" d="M1504,1119.1L1533.9,1156.7L1586.4,1075.6Z" shape-rendering="crispEdges"/><path fill="#6A2272" d="M1382.8,1167.7L1463.9,1204L1504,1119.1Z" shape-rendering="crispEdges"/><path fill="#6C2F77" d="M1170.8,1196.7L1463.9,1204L1341,1168.2Z" shape-rendering="crispEdges"/><path fill="#E5F0F6" d="M63.4,146L116.2,175.7L127,112Z" shape-rendering="crispEdges"/><path fill="#E2EDF4" d="M63.4,146L68.4,226.5L116.2,175.7Z" shape-rendering="crispEdges"/><path fill="#7A3B87" d="M1860.7,702.8L1762.1,672L1771.6,740.4Z" shape-rendering="crispEdges"/><path fill="#794589" d="M1882.6,639.7L1832.7,589.7L1762.1,672Z" shape-rendering="crispEdges"/><path fill="#C7D5E8" d="M6.6,478.1L81.2,443.7L-26.3,406Z" shape-rendering="crispEdges"/><path fill="#C4D0E5" d="M6.6,478.1L33.9,505.8L81.2,443.7Z" shape-rendering="crispEdges"/><path fill="#C2CEE5" d="M81.2,443.7L33.9,505.8L112.9,485.1Z" shape-rendering="crispEdges"/><path fill="#BDA8D2" d="M107.4,649L65.4,747.8L148.4,752.8Z" shape-rendering="crispEdges"/><path fill="#D8E5F0" d="M68.4,226.5L49,300.7L128.2,268.8Z" shape-rendering="crispEdges"/><path fill="#7C5591" d="M1832.7,589.7L1842.1,489.1L1766.7,553.2Z" shape-rendering="crispEdges"/><path fill="#C08DBC" d="M1726.9,-1L1653.3,-85.7L1627.6,4Z" shape-rendering="crispEdges"/><path fill="#BB8AB9" d="M1726.9,-1L1662.8,41.5L1698.1,42.8Z" shape-rendering="crispEdges"/><path fill="#691D6F" d="M1463.9,1204L1533.9,1156.7L1504,1119.1Z" shape-rendering="crispEdges"/><path fill="#6A116A" d="M1586.4,1075.6L1646.8,1079.9L1617.7,1038.3Z" shape-rendering="crispEdges"/><path fill="#7D2482" d="M1769.8,852.3L1728.3,803.2L1720.5,876.1Z" shape-rendering="crispEdges"/><path fill="#EBF4F8" d="M257.3,-100.1L212,-76.7L264.2,-35.5Z" shape-rendering="crispEdges"/><path fill="#ECF5F9" d="M126.3,4L129.6,45.1L220.6,58Z" shape-rendering="crispEdges"/><path fill="#BFC4E0" d="M33.9,505.8L33.3,583.2L125.5,558Z" shape-rendering="crispEdges"/><path fill="#EEF6F9" d="M126.3,4L220.6,58L199.2,-44.1Z" shape-rendering="crispEdges"/><path fill="#BFAED5" d="M35.6,645.9L65.4,747.8L107.4,649Z" shape-rendering="crispEdges"/><path fill="#AE83B0" d="M127,966L210.6,1049.7L234.8,934.8Z" shape-rendering="crispEdges"/><path fill="#9F79A5" d="M1845,223.7L1796.1,155.6L1783.9,196.2Z" shape-rendering="crispEdges"/><path fill="#A47CAB" d="M1783.9,196.2L1796.1,155.6L1709.3,214.3Z" shape-rendering="crispEdges"/><path fill="#9A75A3" d="M1845,223.7L1783.9,196.2L1802.2,284.7Z" shape-rendering="crispEdges"/><path fill="#7B197A" d="M1759.8,967.6L1769.8,852.3L1720.5,876.1Z" shape-rendering="crispEdges"/><path fill="#763281" d="M1856.7,798.6L1860.7,702.8L1771.6,740.4Z" shape-rendering="crispEdges"/><path fill="#836698" d="M1877.4,426L1848.8,368.1L1783.1,434.6Z" shape-rendering="crispEdges"/><path fill="#BFB8DA" d="M33.3,583.2L35.6,645.9L107.4,649Z" shape-rendering="crispEdges"/><path fill="#B587B3" d="M1799.1,70L1726.9,-1L1698.1,42.8Z" shape-rendering="crispEdges"/><path fill="#B98CBD" d="M127,966L224.7,901L147.2,865.8Z" shape-rendering="crispEdges"/><path fill="#C1C4E0" d="M33.9,505.8L2.3,589.9L33.3,583.2Z" shape-rendering="crispEdges"/><path fill="#C1BCDC" d="M33.3,583.2L2.3,589.9L35.6,645.9Z" shape-rendering="crispEdges"/><path fill="#C9DAEB" d="M-26.3,406L81.2,443.7L75.9,354.5Z" shape-rendering="crispEdges"/><path fill="#EBF3F8" d="M72.4,28.9L63.4,146L127,112Z" shape-rendering="crispEdges"/><path fill="#D6E4F0" d="M-14.1,275.9L1,347.3L49,300.7Z" shape-rendering="crispEdges"/><path fill="#D1E0EE" d="M49,300.7L1,347.3L75.9,354.5Z" shape-rendering="crispEdges"/><path fill="#927399" d="M308.4,1110.6L342,1190.3L343.2,1080.3Z" shape-rendering="crispEdges"/><path fill="#8B6E96" d="M456,1150.7L342,1190.3L518.3,1151.6Z" shape-rendering="crispEdges"/><path fill="#856A94" d="M580.1,1166.9L342,1190.3L668.5,1173.6Z" shape-rendering="crispEdges"/><path fill="#7A628F" d="M668.5,1173.6L342,1190.3L1170.8,1196.7Z" shape-rendering="crispEdges"/><path fill="#705187" d="M1170.8,1196.7L203.3,1195.3L1463.9,1204Z" shape-rendering="crispEdges"/><path fill="#93749A" d="M301.2,1191L342,1190.3L308.4,1110.6Z" shape-rendering="crispEdges"/><path fill="#670F67" d="M1642.1,1191.7L1646.8,1079.9L1586.4,1075.6Z" shape-rendering="crispEdges"/><path fill="#7C1279" d="M1706.9,938.2L1759.8,967.6L1720.5,876.1Z" shape-rendering="crispEdges"/><path fill="#EFF7FA" d="M151.1,-123.5L126.3,4L199.2,-44.1Z" shape-rendering="crispEdges"/><path fill="#ECF5F9" d="M129.6,45.1L72.4,28.9L127,112Z" shape-rendering="crispEdges"/><path fill="#BE9FCE" d="M41.7,794.6L141.5,796.6L65.4,747.8Z" shape-rendering="crispEdges"/><path fill="#BD9ACA" d="M41.7,794.6L83.5,865.4L141.5,796.6Z" shape-rendering="crispEdges"/><path fill="#94729F" d="M1867.2,253L1845,223.7L1802.2,284.7Z" shape-rendering="crispEdges"/><path fill="#AC81AE" d="M1796.1,155.6L1799.1,70L1682.2,124.8Z" shape-rendering="crispEdges"/><path fill="#7A5B8F" d="M1908.9,513.7L1877.4,426L1842.1,489.1Z" shape-rendering="crispEdges"/><path fill="#806196" d="M1842.1,489.1L1877.4,426L1783.1,434.6Z" shape-rendering="crispEdges"/><path fill="#8F6E9D" d="M1848.8,368.1L1867.2,253L1802.2,284.7Z" shape-rendering="crispEdges"/><path fill="#77548D" d="M1908.9,513.7L1842.1,489.1L1832.7,589.7Z" shape-rendering="crispEdges"/><path fill="#C2CAE2" d="M6.6,478.1L2.3,589.9L33.9,505.8Z" shape-rendering="crispEdges"/><path fill="#C0A4D0" d="M12.8,729.3L41.7,794.6L65.4,747.8Z" shape-rendering="crispEdges"/><path fill="#DAE6F1" d="M-14.1,275.9L49,300.7L68.4,226.5Z" shape-rendering="crispEdges"/><path fill="#C2CAE2" d="M6.6,478.1L-104.9,510.9L2.3,589.9Z" shape-rendering="crispEdges"/><path fill="#BA8CBC" d="M86.3,930.4L127,966L147.2,865.8Z" shape-rendering="crispEdges"/><path fill="#95769B" d="M215.4,1119.5L301.2,1191L308.4,1110.6Z" shape-rendering="crispEdges"/><path fill="#A47EA7" d="M1869.4,141.8L1799.1,70L1796.1,155.6Z" shape-rendering="crispEdges"/><path fill="#BC8BB8" d="M1726.9,-1L1736.7,-96.4L1653.3,-85.7Z" shape-rendering="crispEdges"/><path fill="#74237A" d="M1856.7,798.6L1772.9,828.4L1842.4,865.4Z" shape-rendering="crispEdges"/><path fill="#782C81" d="M1856.7,798.6L1771.6,740.4L1772.9,828.4Z" shape-rendering="crispEdges"/><path fill="#C0ABD4" d="M12.8,729.3L65.4,747.8L35.6,645.9Z" shape-rendering="crispEdges"/><path fill="#BC90C1" d="M83.5,865.4L86.3,930.4L147.2,865.8Z" shape-rendering="crispEdges"/><path fill="#886B98" d="M1909.9,352.2L1867.2,253L1848.8,368.1Z" shape-rendering="crispEdges"/><path fill="#9D79A3" d="M1845,223.7L1869.4,141.8L1796.1,155.6Z" shape-rendering="crispEdges"/><path fill="#C1B8DA" d="M2.3,589.9L2,670.1L35.6,645.9Z" shape-rendering="crispEdges"/><path fill="#C2B7DA" d="M-108.1,663.6L2,670.1L2.3,589.9Z" shape-rendering="crispEdges"/><path fill="#C1B0D6" d="M2,670.1L12.8,729.3L35.6,645.9Z" shape-rendering="crispEdges"/><path fill="#773E85" d="M1860.7,702.8L1882.6,639.7L1762.1,672Z" shape-rendering="crispEdges"/><path fill="#97779C" d="M215.4,1119.5L308.4,1110.6L210.6,1049.7Z" shape-rendering="crispEdges"/><path fill="#836893" d="M342,1190.3L203.3,1195.3L1170.8,1196.7Z" shape-rendering="crispEdges"/><path fill="#780C73" d="M1731.3,1043.2L1706.9,938.2L1655,963Z" shape-rendering="crispEdges"/><path fill="#CEDEED" d="M-91.7,372.2L-26.3,406L1,347.3Z" shape-rendering="crispEdges"/><path fill="#CEDEED" d="M1,347.3L-26.3,406L75.9,354.5Z" shape-rendering="crispEdges"/><path fill="#BE92C2" d="M4.4,862.8L86.3,930.4L83.5,865.4Z" shape-rendering="crispEdges"/><path fill="#9A799D" d="M108.1,1091.2L215.4,1119.5L210.6,1049.7Z" shape-rendering="crispEdges"/><path fill="#BF9ACA" d="M11.7,810.9L83.5,865.4L41.7,794.6Z" shape-rendering="crispEdges"/><path fill="#AB81AC" d="M112.8,1003.6L210.6,1049.7L127,966Z" shape-rendering="crispEdges"/><path fill="#DEEAF3" d="M-11.2,220.4L-14.1,275.9L68.4,226.5Z" shape-rendering="crispEdges"/><path fill="#E2EDF4" d="M-11.2,220.4L68.4,226.5L63.4,146Z" shape-rendering="crispEdges"/><path fill="#F2F9FB" d="M47.1,-0.3L72.4,28.9L126.3,4Z" shape-rendering="crispEdges"/><path fill="#F0F7FA" d="M126.3,4L72.4,28.9L129.6,45.1Z" shape-rendering="crispEdges"/><path fill="#724E87" d="M1945,576.9L1908.9,513.7L1832.7,589.7Z" shape-rendering="crispEdges"/><path fill="#816695" d="M1877.4,426L1909.9,352.2L1848.8,368.1Z" shape-rendering="crispEdges"/><path fill="#77217B" d="M1842.4,865.4L1772.9,828.4L1769.8,852.3Z" shape-rendering="crispEdges"/><path fill="#6E4280" d="M1940.3,669.8L1945,576.9L1882.6,639.7Z" shape-rendering="crispEdges"/><path fill="#734885" d="M1882.6,639.7L1945,576.9L1832.7,589.7Z" shape-rendering="crispEdges"/><path fill="#6C0A69" d="M1646.8,1079.9L1731.3,1043.2L1617.7,1038.3Z" shape-rendering="crispEdges"/><path fill="#761876" d="M1759.8,967.6L1842.4,865.4L1769.8,852.3Z" shape-rendering="crispEdges"/><path fill="#640561" d="M1733.3,1107.7L1731.3,1043.2L1646.8,1079.9Z" shape-rendering="crispEdges"/><path fill="#681469" d="M1642.1,1191.7L1586.4,1075.6L1533.9,1156.7Z" shape-rendering="crispEdges"/><path fill="#7A6290" d="M1959.2,442.7L1909.9,352.2L1877.4,426Z" shape-rendering="crispEdges"/><path fill="#96759D" d="M1947.6,189.7L1869.4,141.8L1845,223.7Z" shape-rendering="crispEdges"/><path fill="#B587B2" d="M1761.2,-85.2L1726.9,-1L1794.6,-42.5Z" shape-rendering="crispEdges"/><path fill="#B889B4" d="M1761.2,-85.2L1736.7,-96.4L1726.9,-1Z" shape-rendering="crispEdges"/><path fill="#C08EBD" d="M1653.3,-85.7L1736.7,-96.4L1577.4,-114Z" shape-rendering="crispEdges"/><path fill="#B185B0" d="M85.2,1042.3L112.8,1003.6L86.3,930.4Z" shape-rendering="crispEdges"/><path fill="#B687B5" d="M86.3,930.4L112.8,1003.6L127,966Z" shape-rendering="crispEdges"/><path fill="#E7F0F6" d="M-17.9,145.7L-11.2,220.4L63.4,146Z" shape-rendering="crispEdges"/><path fill="#D4E2EF" d="M-14.1,275.9L-91.7,372.2L1,347.3Z" shape-rendering="crispEdges"/><path fill="#C1A2CF" d="M-65.3,806.3L11.7,810.9L12.8,729.3Z" shape-rendering="crispEdges"/><path fill="#C0A1CF" d="M12.8,729.3L11.7,810.9L41.7,794.6Z" shape-rendering="crispEdges"/><path fill="#C19BCB" d="M4.4,862.8L11.7,810.9L-65.3,806.3Z" shape-rendering="crispEdges"/><path fill="#EDF5F9" d="M257.3,-100.1L151.1,-123.5L212,-76.7Z" shape-rendering="crispEdges"/><path fill="#EEF6F9" d="M212,-76.7L151.1,-123.5L199.2,-44.1Z" shape-rendering="crispEdges"/><path fill="#EAF3F8" d="M381.4,-103.7L151.1,-123.5L257.3,-100.1Z" shape-rendering="crispEdges"/><path fill="#DFEBF3" d="M722.6,-113.3L151.1,-123.5L381.4,-103.7Z" shape-rendering="crispEdges"/><path fill="#C9D8EA" d="M1401.4,-120.6L151.1,-123.5L722.6,-113.3Z" shape-rendering="crispEdges"/><path fill="#720C6E" d="M1857.4,978.8L1842.4,865.4L1759.8,967.6Z" shape-rendering="crispEdges"/><path fill="#92729B" d="M1947.6,189.7L1845,223.7L1867.2,253Z" shape-rendering="crispEdges"/><path fill="#B386B0" d="M1794.6,-42.5L1726.9,-1L1799.1,70Z" shape-rendering="crispEdges"/><path fill="#A57FA7" d="M1869.4,141.8L1839.7,47.8L1799.1,70Z" shape-rendering="crispEdges"/><path fill="#AD83AB" d="M1839.7,47.8L1794.6,-42.5L1799.1,70Z" shape-rendering="crispEdges"/><path fill="#69196C" d="M1463.9,1204L1642.1,1191.7L1533.9,1156.7Z" shape-rendering="crispEdges"/><path fill="#690665" d="M1731.3,1043.2L1787,1054.3L1759.8,967.6Z" shape-rendering="crispEdges"/><path fill="#F3F9FB" d="M70.6,-98.8L47.1,-0.3L126.3,4Z" shape-rendering="crispEdges"/><path fill="#ECF4F9" d="M7.6,76.7L-17.9,145.7L63.4,146Z" shape-rendering="crispEdges"/><path fill="#EEF5F9" d="M7.6,76.7L63.4,146L72.4,28.9Z" shape-rendering="crispEdges"/><path fill="#DDE9F2" d="M-11.2,220.4L-73.6,255.8L-14.1,275.9Z" shape-rendering="crispEdges"/><path fill="#F2F8FB" d="M47.1,-0.3L7.6,76.7L72.4,28.9Z" shape-rendering="crispEdges"/><path fill="#C2AED5" d="M-90.5,702.4L12.8,729.3L2,670.1Z" shape-rendering="crispEdges"/><path fill="#BF98C7" d="M11.7,810.9L4.4,862.8L83.5,865.4Z" shape-rendering="crispEdges"/><path fill="#6D377B" d="M1940.3,669.8L1860.7,702.8L1956.7,712.5Z" shape-rendering="crispEdges"/><path fill="#703C7F" d="M1940.3,669.8L1882.6,639.7L1860.7,702.8Z" shape-rendering="crispEdges"/><path fill="#765B8C" d="M1908.9,513.7L1959.2,442.7L1877.4,426Z" shape-rendering="crispEdges"/><path fill="#650562" d="M1687,1192L1733.3,1107.7L1646.8,1079.9Z" shape-rendering="crispEdges"/><path fill="#74578A" d="M2021.4,510L1959.2,442.7L1908.9,513.7Z" shape-rendering="crispEdges"/><path fill="#876B95" d="M1909.9,352.2L1946.9,281L1867.2,253Z" shape-rendering="crispEdges"/><path fill="#6C3178" d="M1956.7,712.5L1860.7,702.8L1948.4,783.6Z" shape-rendering="crispEdges"/><path fill="#765C8C" d="M2021.4,510L2010.6,401.7L1959.2,442.7Z" shape-rendering="crispEdges"/><path fill="#6F2D79" d="M1860.7,702.8L1856.7,798.6L1948.4,783.6Z" shape-rendering="crispEdges"/><path fill="#B085AF" d="M-12.4,1035.4L85.2,1042.3L86.3,930.4Z" shape-rendering="crispEdges"/><path fill="#A37DA4" d="M112.8,1003.6L108.1,1091.2L210.6,1049.7Z" shape-rendering="crispEdges"/><path fill="#98779C" d="M215.4,1119.5L203.3,1195.3L301.2,1191Z" shape-rendering="crispEdges"/><path fill="#836893" d="M2006.1,328.6L1946.9,281L1909.9,352.2Z" shape-rendering="crispEdges"/><path fill="#A37EA2" d="M1950.3,63.2L1881.7,-9.8L1839.7,47.8Z" shape-rendering="crispEdges"/><path fill="#61045E" d="M1733.3,1107.7L1787,1054.3L1731.3,1043.2Z" shape-rendering="crispEdges"/><path fill="#9A799D" d="M124,1192.8L203.3,1195.3L215.4,1119.5Z" shape-rendering="crispEdges"/><path fill="#95759B" d="M301.2,1191L203.3,1195.3L342,1190.3Z" shape-rendering="crispEdges"/><path fill="#E5EFF6" d="M-115.2,188.1L-11.2,220.4L-17.9,145.7Z" shape-rendering="crispEdges"/><path fill="#E1ECF4" d="M-115.2,188.1L-73.6,255.8L-11.2,220.4Z" shape-rendering="crispEdges"/><path fill="#C7D3E7" d="M-26.3,406L-104.9,510.9L6.6,478.1Z" shape-rendering="crispEdges"/><path fill="#D7E5F0" d="M-73.6,255.8L-91.7,372.2L-14.1,275.9Z" shape-rendering="crispEdges"/><path fill="#A57FA5" d="M85.2,1042.3L108.1,1091.2L112.8,1003.6Z" shape-rendering="crispEdges"/><path fill="#F1F8FB" d="M151.1,-123.5L70.6,-98.8L126.3,4Z" shape-rendering="crispEdges"/><path fill="#F4FAFC" d="M47.1,-0.3L-9.1,-12.7L7.6,76.7Z" shape-rendering="crispEdges"/><path fill="#EEF5F9" d="M7.6,76.7L-82,110.1L-17.9,145.7Z" shape-rendering="crispEdges"/><path fill="#670964" d="M1642.1,1191.7L1687,1192L1646.8,1079.9Z" shape-rendering="crispEdges"/><path fill="#5D035A" d="M1733.3,1107.7L1783,1130.3L1787,1054.3Z" shape-rendering="crispEdges"/><path fill="#640561" d="M1781.8,1203.6L1687,1192L1642.1,1191.7Z" shape-rendering="crispEdges"/><path fill="#C8D6E8" d="M-106.8,419.3L-104.9,510.9L-26.3,406Z" shape-rendering="crispEdges"/><path fill="#D4E2EF" d="M-115.2,188.1L-106.8,419.3L-91.7,372.2Z" shape-rendering="crispEdges"/><path fill="#CCDCEC" d="M-91.7,372.2L-106.8,419.3L-26.3,406Z" shape-rendering="crispEdges"/><path fill="#6A2373" d="M1948.4,783.6L1856.7,798.6L1962.8,851.9Z" shape-rendering="crispEdges"/><path fill="#6E417F" d="M1940.3,669.8L1984.2,652.7L1945,576.9Z" shape-rendering="crispEdges"/><path fill="#8E7098" d="M2014.3,193.3L1947.6,189.7L1946.9,281Z" shape-rendering="crispEdges"/><path fill="#8C6F97" d="M1946.9,281L1947.6,189.7L1867.2,253Z" shape-rendering="crispEdges"/><path fill="#AC83A9" d="M1839.7,47.8L1881.7,-9.8L1794.6,-42.5Z" shape-rendering="crispEdges"/><path fill="#C4CDE4" d="M-106.8,419.3L-105.7,590.4L-104.9,510.9Z" shape-rendering="crispEdges"/><path fill="#C2C4E0" d="M-104.9,510.9L-105.7,590.4L2.3,589.9Z" shape-rendering="crispEdges"/><path fill="#61045E" d="M1852.3,1037.4L1857.4,978.8L1787,1054.3Z" shape-rendering="crispEdges"/><path fill="#690665" d="M1787,1054.3L1857.4,978.8L1759.8,967.6Z" shape-rendering="crispEdges"/><path fill="#C2B1D7" d="M-108.1,663.6L-90.5,702.4L2,670.1Z" shape-rendering="crispEdges"/><path fill="#A07D9F" d="M-3.4,1108.3L83,1109.6L85.2,1042.3Z" shape-rendering="crispEdges"/><path fill="#9E7C9E" d="M85.2,1042.3L83,1109.6L108.1,1091.2Z" shape-rendering="crispEdges"/><path fill="#C2A7D2" d="M-90.5,702.4L-65.3,806.3L12.8,729.3Z" shape-rendering="crispEdges"/><path fill="#6D1F73" d="M1962.8,851.9L1856.7,798.6L1842.4,865.4Z" shape-rendering="crispEdges"/><path fill="#A07CA1" d="M1950.3,63.2L1839.7,47.8L1869.4,141.8Z" shape-rendering="crispEdges"/><path fill="#B085AD" d="M1794.6,-42.5L1855,-91L1761.2,-85.2Z" shape-rendering="crispEdges"/><path fill="#6D357A" d="M2012.6,751.5L1984.2,652.7L1956.7,712.5Z" shape-rendering="crispEdges"/><path fill="#6D397C" d="M1956.7,712.5L1984.2,652.7L1940.3,669.8Z" shape-rendering="crispEdges"/><path fill="#7A6390" d="M1959.2,442.7L2010.6,401.7L1909.9,352.2Z" shape-rendering="crispEdges"/><path fill="#C2C5E0" d="M-106.8,419.3L-108.1,663.6L-105.7,590.4Z" shape-rendering="crispEdges"/><path fill="#C2BBDC" d="M-105.7,590.4L-108.1,663.6L2.3,589.9Z" shape-rendering="crispEdges"/><path fill="#C19FCD" d="M-90.5,702.4L-107.6,892.8L-65.3,806.3Z" shape-rendering="crispEdges"/><path fill="#F5FBFC" d="M70.6,-98.8L-9.1,-12.7L47.1,-0.3Z" shape-rendering="crispEdges"/><path fill="#BF8FBF" d="M-29.5,949.8L86.3,930.4L4.4,862.8Z" shape-rendering="crispEdges"/><path fill="#9C7A9D" d="M108.1,1091.2L124,1192.8L215.4,1119.5Z" shape-rendering="crispEdges"/><path fill="#61045D" d="M1687,1192L1783,1130.3L1733.3,1107.7Z" shape-rendering="crispEdges"/><path fill="#705186" d="M2021.4,510L1908.9,513.7L1945,576.9Z" shape-rendering="crispEdges"/><path fill="#570255" d="M1860.9,1128.9L1852.3,1037.4L1787,1054.3Z" shape-rendering="crispEdges"/><path fill="#69136A" d="M1913.2,977.1L1962.8,851.9L1842.4,865.4Z" shape-rendering="crispEdges"/><path fill="#AB83A9" d="M1881.7,-9.8L1855,-91L1794.6,-42.5Z" shape-rendering="crispEdges"/><path fill="#B386AF" d="M1761.2,-85.2L1855,-91L1736.7,-96.4Z" shape-rendering="crispEdges"/><path fill="#B587B1" d="M1736.7,-96.4L1987.6,-120.7L1577.4,-114Z" shape-rendering="crispEdges"/><path fill="#96769B" d="M1947.6,189.7L1952.8,113.2L1869.4,141.8Z" shape-rendering="crispEdges"/><path fill="#A580A3" d="M1881.7,-9.8L1953.7,-76.5L1855,-91Z" shape-rendering="crispEdges"/><path fill="#96769B" d="M2022,139L1952.8,113.2L1947.6,189.7Z" shape-rendering="crispEdges"/><path fill="#7F6591" d="M2010.6,401.7L2006.1,328.6L1909.9,352.2Z" shape-rendering="crispEdges"/><path fill="#B386B0" d="M-12.4,1035.4L-29.5,949.8L-67.2,1016.3Z" shape-rendering="crispEdges"/><path fill="#C092C1" d="M-107.6,892.8L-29.5,949.8L4.4,862.8Z" shape-rendering="crispEdges"/><path fill="#F0F7FA" d="M-97.5,62.3L-82,110.1L7.6,76.7Z" shape-rendering="crispEdges"/><path fill="#DBE7F1" d="M-73.6,255.8L-115.2,188.1L-91.7,372.2Z" shape-rendering="crispEdges"/><path fill="#704D85" d="M2032.2,586.1L2021.4,510L1945,576.9Z" shape-rendering="crispEdges"/><path fill="#816792" d="M2010.6,401.7L2009.6,288.4L2006.1,328.6Z" shape-rendering="crispEdges"/><path fill="#9E7C9E" d="M67.1,1151.6L124,1192.8L83,1109.6Z" shape-rendering="crispEdges"/><path fill="#9D7B9E" d="M83,1109.6L124,1192.8L108.1,1091.2Z" shape-rendering="crispEdges"/><path fill="#7A6390" d="M2021.4,510L2009.6,288.4L2010.6,401.7Z" shape-rendering="crispEdges"/><path fill="#856A94" d="M2006.1,328.6L2009.6,288.4L1946.9,281Z" shape-rendering="crispEdges"/><path fill="#EAF3F8" d="M-82,110.1L-115.2,188.1L-17.9,145.7Z" shape-rendering="crispEdges"/><path fill="#CAD9EA" d="M-106.8,419.3L-115.2,188.1L-108.1,663.6Z" shape-rendering="crispEdges"/><path fill="#9C7A9E" d="M2017.2,45.2L1950.3,63.2L1952.8,113.2Z" shape-rendering="crispEdges"/><path fill="#9A799D" d="M1952.8,113.2L1950.3,63.2L1869.4,141.8Z" shape-rendering="crispEdges"/><path fill="#6C0969" d="M1913.2,977.1L1842.4,865.4L1857.4,978.8Z" shape-rendering="crispEdges"/><path fill="#6C2E77" d="M1948.4,783.6L2012.6,751.5L1956.7,712.5Z" shape-rendering="crispEdges"/><path fill="#6F4681" d="M1984.2,652.7L2032.2,586.1L1945,576.9Z" shape-rendering="crispEdges"/><path fill="#5A0358" d="M1955.3,1031.1L1913.2,977.1L1852.3,1037.4Z" shape-rendering="crispEdges"/><path fill="#61045E" d="M1852.3,1037.4L1913.2,977.1L1857.4,978.8Z" shape-rendering="crispEdges"/><path fill="#6E3C7D" d="M2012.6,751.5L2032.2,586.1L1984.2,652.7Z" shape-rendering="crispEdges"/><path fill="#907198" d="M2022,139L2014.3,193.3L2009.6,288.4Z" shape-rendering="crispEdges"/><path fill="#A07D9F" d="M-3.4,1108.3L67.1,1151.6L83,1109.6Z" shape-rendering="crispEdges"/><path fill="#B989B5" d="M-29.5,949.8L-12.4,1035.4L86.3,930.4Z" shape-rendering="crispEdges"/><path fill="#C198C7" d="M-107.6,892.8L4.4,862.8L-65.3,806.3Z" shape-rendering="crispEdges"/><path fill="#F3FAFC" d="M151.1,-123.5L-0.5,-120.5L70.6,-98.8Z" shape-rendering="crispEdges"/><path fill="#F6FBFD" d="M70.6,-98.8L-0.5,-120.5L-9.1,-12.7Z" shape-rendering="crispEdges"/><path fill="#F3F9FC" d="M-9.1,-12.7L-97.5,62.3L7.6,76.7Z" shape-rendering="crispEdges"/><path fill="#EDF5F9" d="M-82,110.1L-97.5,62.3L-115.2,188.1Z" shape-rendering="crispEdges"/><path fill="#6B2975" d="M2029.9,803.6L2012.6,751.5L1948.4,783.6Z" shape-rendering="crispEdges"/><path fill="#6A2272" d="M2029.9,803.6L1948.4,783.6L1962.8,851.9Z" shape-rendering="crispEdges"/><path fill="#846993" d="M2022,139L2009.6,288.4L2021.4,510Z" shape-rendering="crispEdges"/><path fill="#8A6E96" d="M2009.6,288.4L2014.3,193.3L1946.9,281Z" shape-rendering="crispEdges"/><path fill="#F6FBFD" d="M-80.6,-20.4L-97.5,62.3L-9.1,-12.7Z" shape-rendering="crispEdges"/><path fill="#5F045C" d="M1687,1192L1781.8,1203.6L1783,1130.3Z" shape-rendering="crispEdges"/><path fill="#580256" d="M1783,1130.3L1860.9,1128.9L1787,1054.3Z" shape-rendering="crispEdges"/><path fill="#670E66" d="M1463.9,1204L1781.8,1203.6L1642.1,1191.7Z" shape-rendering="crispEdges"/><path fill="#A07D9F" d="M2017.2,45.2L1943.5,-24.5L1950.3,63.2Z" shape-rendering="crispEdges"/><path fill="#A17EA0" d="M1950.3,63.2L1943.5,-24.5L1881.7,-9.8Z" shape-rendering="crispEdges"/><path fill="#C2C1DE" d="M-115.2,188.1L-107.6,892.8L-108.1,663.6Z" shape-rendering="crispEdges"/><path fill="#C2A6D1" d="M-108.1,663.6L-107.6,892.8L-90.5,702.4Z" shape-rendering="crispEdges"/><path fill="#F7FCFD" d="M-92.9,-98.3L-80.6,-20.4L-9.1,-12.7Z" shape-rendering="crispEdges"/><path fill="#560253" d="M1862.5,1186.6L1860.9,1128.9L1783,1130.3Z" shape-rendering="crispEdges"/><path fill="#691C6E" d="M2032.1,899.3L2029.9,803.6L1962.8,851.9Z" shape-rendering="crispEdges"/><path fill="#79618F" d="M2032.2,586.1L2022,139L2021.4,510Z" shape-rendering="crispEdges"/><path fill="#93749A" d="M2014.3,193.3L2022,139L1947.6,189.7Z" shape-rendering="crispEdges"/><path fill="#A27EA0" d="M-94.3,1104.6L-3.4,1108.3L-12.4,1035.4Z" shape-rendering="crispEdges"/><path fill="#A57FA3" d="M-12.4,1035.4L-3.4,1108.3L85.2,1042.3Z" shape-rendering="crispEdges"/><path fill="#9F7C9F" d="M67.1,1151.6L6.4,1154.8L124,1192.8Z" shape-rendering="crispEdges"/><path fill="#6D3479" d="M2012.6,751.5L2029.9,803.6L2032.2,586.1Z" shape-rendering="crispEdges"/><path fill="#681067" d="M2032.1,899.3L1962.8,851.9L1913.2,977.1Z" shape-rendering="crispEdges"/><path fill="#B889B4" d="M-97.8,971.3L-67.2,1016.3L-29.5,949.8Z" shape-rendering="crispEdges"/><path fill="#C08DBC" d="M-107.6,892.8L-97.8,971.3L-29.5,949.8Z" shape-rendering="crispEdges"/><path fill="#A881A6" d="M-94.3,1104.6L-12.4,1035.4L-67.2,1016.3Z" shape-rendering="crispEdges"/><path fill="#A27EA0" d="M-69,1167.3L6.4,1154.8L-3.4,1108.3Z" shape-rendering="crispEdges"/><path fill="#A17EA0" d="M-3.4,1108.3L6.4,1154.8L67.1,1151.6Z" shape-rendering="crispEdges"/><path fill="#A27EA0" d="M1984.9,-46.9L1953.7,-76.5L1943.5,-24.5Z" shape-rendering="crispEdges"/><path fill="#A27EA0" d="M1943.5,-24.5L1953.7,-76.5L1881.7,-9.8Z" shape-rendering="crispEdges"/><path fill="#9A799D" d="M2022,139L2017.2,45.2L1952.8,113.2Z" shape-rendering="crispEdges"/><path fill="#520150" d="M1945.3,1087.5L1955.3,1031.1L1852.3,1037.4Z" shape-rendering="crispEdges"/><path fill="#A27EA0" d="M2017.2,45.2L1984.9,-46.9L1943.5,-24.5Z" shape-rendering="crispEdges"/><path fill="#590256" d="M1781.8,1203.6L1862.5,1186.6L1783,1130.3Z" shape-rendering="crispEdges"/><path fill="#51014E" d="M1860.9,1128.9L1945.3,1087.5L1852.3,1037.4Z" shape-rendering="crispEdges"/><path fill="#670864" d="M2037,932.2L2032.1,899.3L1913.2,977.1Z" shape-rendering="crispEdges"/><path fill="#6B2A75" d="M2029.9,803.6L2037,932.2L2032.2,586.1Z" shape-rendering="crispEdges"/><path fill="#F7FCFD" d="M-0.5,-120.5L-92.9,-98.3L-9.1,-12.7Z" shape-rendering="crispEdges"/><path fill="#F7FCFD" d="M-80.6,-20.4L-92.9,-98.3L-97.5,62.3Z" shape-rendering="crispEdges"/><path fill="#F3F9FB" d="M-97.5,62.3L-92.9,-98.3L-115.2,188.1Z" shape-rendering="crispEdges"/><path fill="#4E004C" d="M1921,1180L1945.3,1087.5L1860.9,1128.9Z" shape-rendering="crispEdges"/><path fill="#61045D" d="M2016.4,1017.4L2037,932.2L1913.2,977.1Z" shape-rendering="crispEdges"/><path fill="#5A0258" d="M2016.4,1017.4L1913.2,977.1L1955.3,1031.1Z" shape-rendering="crispEdges"/><path fill="#68176B" d="M2032.1,899.3L2037,932.2L2029.9,803.6Z" shape-rendering="crispEdges"/><path fill="#A27EA0" d="M2017.2,45.2L1987.6,-120.7L1984.9,-46.9Z" shape-rendering="crispEdges"/><path fill="#A27EA0" d="M1984.9,-46.9L1987.6,-120.7L1953.7,-76.5Z" shape-rendering="crispEdges"/><path fill="#A27EA0" d="M1953.7,-76.5L1987.6,-120.7L1855,-91Z" shape-rendering="crispEdges"/><path fill="#A982A7" d="M1855,-91L1987.6,-120.7L1736.7,-96.4Z" shape-rendering="crispEdges"/><path fill="#C08EBD" d="M1577.4,-114L1987.6,-120.7L1401.4,-120.6Z" shape-rendering="crispEdges"/><path fill="#C2B3D8" d="M1401.4,-120.6L1987.6,-120.7L151.1,-123.5Z" shape-rendering="crispEdges"/><path fill="#4E004C" d="M2003.1,1109.5L1955.3,1031.1L1945.3,1087.5Z" shape-rendering="crispEdges"/><path fill="#520150" d="M2003.1,1109.5L2016.4,1017.4L1955.3,1031.1Z" shape-rendering="crispEdges"/><path fill="#AD83AA" d="M-97.8,971.3L-94.3,1104.6L-67.2,1016.3Z" shape-rendering="crispEdges"/><path fill="#B688B2" d="M-107.6,892.8L-94.3,1104.6L-97.8,971.3Z" shape-rendering="crispEdges"/><path fill="#51014F" d="M1862.5,1186.6L1921,1180L1860.9,1128.9Z" shape-rendering="crispEdges"/><path fill="#540151" d="M1781.8,1203.6L1921,1180L1862.5,1186.6Z" shape-rendering="crispEdges"/><path fill="#A27EA0" d="M-94.3,1104.6L-69,1167.3L-3.4,1108.3Z" shape-rendering="crispEdges"/><path fill="#A17EA0" d="M6.4,1154.8L-69,1167.3L124,1192.8Z" shape-rendering="crispEdges"/><path fill="#4D004B" d="M1982.4,1151.3L2003.1,1109.5L1945.3,1087.5Z" shape-rendering="crispEdges"/><path fill="#580256" d="M2016.4,1017.4L2003.1,1109.5L2037,932.2Z" shape-rendering="crispEdges"/><path fill="#4D004B" d="M1921,1180L1982.4,1151.3L1945.3,1087.5Z" shape-rendering="crispEdges"/></svg>