<svg xmlns="http://www.w3.org/2000/svg" width="1920" height="1080"><path fill="#EFEDEE" d="M971.3,506.7L1023.9,497.5L1031.7,444Z" shape-rendering="crispEdges"/><path fill="#EEE8EE" d="M1031.7,444L985.3,413L971.3,506.7Z" shape-rendering="crispEdges"/><path fill="#F0E8F0" d="M985.3,413L903.3,426.3L971.3,506.7Z" shape-rendering="crispEdges"/><path fill="#E3D9E6" d="M1042.4,357.3L973.1,364L985.3,413Z" shape-rendering="crispEdges"/><path fill="#EADEEC" d="M985.3,413L973.1,364L903.3,426.3Z" shape-rendering="crispEdges"/><path fill="#F1EAF1" d="M903.3,426.3L889.1,511.4L971.3,506.7Z" shape-rendering="crispEdges"/><path fill="#EAE8E9" d="M1023.9,497.5L1100.9,436.5L1031.7,444Z" shape-rendering="crispEdges"/><path fill="#E6DEE7" d="M1031.7,444L1042.4,357.3L985.3,413Z" shape-rendering="crispEdges"/><path fill="#E4DFE4" d="M1100.9,436.5L1042.4,357.3L1031.7,444Z" shape-rendering="crispEdges"/><path fill="#F1F6F0" d="M935.9,601.6L1056,587.8L971.3,506.7Z" shape-rendering="crispEdges"/><path fill="#F2F4F1" d="M971.3,506.7L1056,587.8L1023.9,497.5Z" shape-rendering="crispEdges"/><path fill="#E9EBE7" d="M1023.9,497.5L1128.1,513.2L1100.9,436.5Z" shape-rendering="crispEdges"/><path fill="#EEF4EC" d="M1056,587.8L1128.1,513.2L1023.9,497.5Z" shape-rendering="crispEdges"/><path fill="#F6F4F6" d="M889.1,511.4L935.9,601.6L971.3,506.7Z" shape-rendering="crispEdges"/><path fill="#F1F1F1" d="M889.1,511.4L878.8,578.1L935.9,601.6Z" shape-rendering="crispEdges"/><path fill="#DFE0DD" d="M1206.2,452.9L1137.6,378.9L1100.9,436.5Z" shape-rendering="crispEdges"/><path fill="#DEDADE" d="M1100.9,436.5L1137.6,378.9L1042.4,357.3Z" shape-rendering="crispEdges"/><path fill="#D7CADD" d="M1010.6,290.5L984.8,295.2L1042.4,357.3Z" shape-rendering="crispEdges"/><path fill="#DCD0E1" d="M1042.4,357.3L984.8,295.2L973.1,364Z" shape-rendering="crispEdges"/><path fill="#E4D5E7" d="M973.1,364L874.6,340L903.3,426.3Z" shape-rendering="crispEdges"/><path fill="#DCCBE2" d="M897.8,293.7L874.6,340L973.1,364Z" shape-rendering="crispEdges"/><path fill="#EEE3EE" d="M800.5,454.7L808.2,492.7L889.1,511.4Z" shape-rendering="crispEdges"/><path fill="#F2ECF2" d="M889.1,511.4L808.2,492.7L878.8,578.1Z" shape-rendering="crispEdges"/><path fill="#E7F0E3" d="M1170.3,556.9L1164.2,493.2L1128.1,513.2Z" shape-rendering="crispEdges"/><path fill="#E6EAE3" d="M1128.1,513.2L1164.2,493.2L1100.9,436.5Z" shape-rendering="crispEdges"/><path fill="#D2C8D7" d="M1124.8,275.7L1010.6,290.5L1042.4,357.3Z" shape-rendering="crispEdges"/><path fill="#E5F3E1" d="M1046.3,643L1101.4,604.9L1056,587.8Z" shape-rendering="crispEdges"/><path fill="#E9F4E5" d="M1056,587.8L1101.4,604.9L1128.1,513.2Z" shape-rendering="crispEdges"/><path fill="#E3D2E6" d="M874.6,340L829.7,376.7L903.3,426.3Z" shape-rendering="crispEdges"/><path fill="#EDE2EE" d="M800.5,454.7L889.1,511.4L903.3,426.3Z" shape-rendering="crispEdges"/><path fill="#E9F4E6" d="M935.9,601.6L1046.3,643L1056,587.8Z" shape-rendering="crispEdges"/><path fill="#E8D8EA" d="M829.7,376.7L800.5,454.7L903.3,426.3Z" shape-rendering="crispEdges"/><path fill="#D2BED9" d="M974.4,213.4L897.8,293.7L984.8,295.2Z" shape-rendering="crispEdges"/><path fill="#DBCBE2" d="M984.8,295.2L897.8,293.7L973.1,364Z" shape-rendering="crispEdges"/><path fill="#D9C4DF" d="M874.6,340L811.6,273.9L829.7,376.7Z" shape-rendering="crispEdges"/><path fill="#E7F0E4" d="M876.6,680.2L962.7,659.8L935.9,601.6Z" shape-rendering="crispEdges"/><path fill="#E8F4E5" d="M935.9,601.6L962.7,659.8L1046.3,643Z" shape-rendering="crispEdges"/><path fill="#E7F3E4" d="M1101.4,604.9L1170.3,556.9L1128.1,513.2Z" shape-rendering="crispEdges"/><path fill="#E1F2DD" d="M1046.3,643L1107.6,633.9L1101.4,604.9Z" shape-rendering="crispEdges"/><path fill="#E0F2DB" d="M1101.4,604.9L1175.4,647.7L1170.3,556.9Z" shape-rendering="crispEdges"/><path fill="#D4EECE" d="M1175.4,647.7L1107.6,633.9L1122,748.7Z" shape-rendering="crispEdges"/><path fill="#DCE6D9" d="M1260.5,481.6L1206.2,452.9L1164.2,493.2Z" shape-rendering="crispEdges"/><path fill="#E2E7DF" d="M1164.2,493.2L1206.2,452.9L1100.9,436.5Z" shape-rendering="crispEdges"/><path fill="#CDC7D0" d="M1166.1,280.6L1124.8,275.7L1137.6,378.9Z" shape-rendering="crispEdges"/><path fill="#D5CED8" d="M1137.6,378.9L1124.8,275.7L1042.4,357.3Z" shape-rendering="crispEdges"/><path fill="#D0BED6" d="M1010.6,290.5L974.4,213.4L984.8,295.2Z" shape-rendering="crispEdges"/><path fill="#EFEAEF" d="M808.2,492.7L800.6,603.2L878.8,578.1Z" shape-rendering="crispEdges"/><path fill="#EAEFE7" d="M878.8,578.1L876.6,680.2L935.9,601.6Z" shape-rendering="crispEdges"/><path fill="#EFE6F0" d="M728.1,530.3L800.6,603.2L808.2,492.7Z" shape-rendering="crispEdges"/><path fill="#E6EBE3" d="M813.4,647.2L876.6,680.2L878.8,578.1Z" shape-rendering="crispEdges"/><path fill="#D7EFD2" d="M1122,748.7L1107.6,633.9L1046.3,643Z" shape-rendering="crispEdges"/><path fill="#D6D8D5" d="M1206.2,452.9L1209.2,355.2L1137.6,378.9Z" shape-rendering="crispEdges"/><path fill="#C8B6D0" d="M1026.9,197.2L974.4,213.4L1010.6,290.5Z" shape-rendering="crispEdges"/><path fill="#E8E9E6" d="M800.6,603.2L813.4,647.2L878.8,578.1Z" shape-rendering="crispEdges"/><path fill="#CFCDD1" d="M1209.2,355.2L1166.1,280.6L1137.6,378.9Z" shape-rendering="crispEdges"/><path fill="#C9BACF" d="M1124.8,275.7L1026.9,197.2L1010.6,290.5Z" shape-rendering="crispEdges"/><path fill="#DEC8E2" d="M724.3,361.3L740.3,406.3L829.7,376.7Z" shape-rendering="crispEdges"/><path fill="#E5D2E7" d="M829.7,376.7L740.3,406.3L800.5,454.7Z" shape-rendering="crispEdges"/><path fill="#ECDFED" d="M800.5,454.7L728.1,530.3L808.2,492.7Z" shape-rendering="crispEdges"/><path fill="#E4E5E2" d="M800.6,603.2L747.4,633.1L813.4,647.2Z" shape-rendering="crispEdges"/><path fill="#D4BFDB" d="M811.6,273.9L874.6,340L897.8,293.7Z" shape-rendering="crispEdges"/><path fill="#DDF0D9" d="M1013.8,732.2L1046.3,643L962.7,659.8Z" shape-rendering="crispEdges"/><path fill="#DEF1D8" d="M1107.6,633.9L1175.4,647.7L1101.4,604.9Z" shape-rendering="crispEdges"/><path fill="#E0ECDD" d="M1170.3,556.9L1260.5,481.6L1164.2,493.2Z" shape-rendering="crispEdges"/><path fill="#CBB3D3" d="M905,188.7L811.6,273.9L897.8,293.7Z" shape-rendering="crispEdges"/><path fill="#D9EED5" d="M954.1,733.6L1013.8,732.2L962.7,659.8Z" shape-rendering="crispEdges"/><path fill="#DDEFDA" d="M1271,581.8L1260.5,481.6L1170.3,556.9Z" shape-rendering="crispEdges"/><path fill="#D4DAD2" d="M1206.2,452.9L1261.5,429.3L1209.2,355.2Z" shape-rendering="crispEdges"/><path fill="#C0B2C6" d="M1113,194.1L1026.9,197.2L1124.8,275.7Z" shape-rendering="crispEdges"/><path fill="#DDEBD9" d="M897.1,728L962.7,659.8L876.6,680.2Z" shape-rendering="crispEdges"/><path fill="#DAECD6" d="M897.1,728L954.1,733.6L962.7,659.8Z" shape-rendering="crispEdges"/><path fill="#E8D8E9" d="M740.3,406.3L728.1,530.3L800.5,454.7Z" shape-rendering="crispEdges"/><path fill="#D7E1D3" d="M1260.5,481.6L1261.5,429.3L1206.2,452.9Z" shape-rendering="crispEdges"/><path fill="#C3C1C6" d="M1209.2,355.2L1234.7,256.7L1166.1,280.6Z" shape-rendering="crispEdges"/><path fill="#D4E5D0" d="M834.4,752.8L897.1,728L876.6,680.2Z" shape-rendering="crispEdges"/><path fill="#D8C1DE" d="M811.6,273.9L724.3,361.3L829.7,376.7Z" shape-rendering="crispEdges"/><path fill="#E9DDEB" d="M668.9,521.5L711.6,556.2L728.1,530.3Z" shape-rendering="crispEdges"/><path fill="#C3A6CA" d="M966.4,144L905,188.7L974.4,213.4Z" shape-rendering="crispEdges"/><path fill="#CAB3D2" d="M974.4,213.4L905,188.7L897.8,293.7Z" shape-rendering="crispEdges"/><path fill="#E4D4E7" d="M668.9,521.5L728.1,530.3L648,441.5Z" shape-rendering="crispEdges"/><path fill="#EAE2EA" d="M728.1,530.3L711.6,556.2L800.6,603.2Z" shape-rendering="crispEdges"/><path fill="#D9E5D6" d="M813.4,647.2L834.4,752.8L876.6,680.2Z" shape-rendering="crispEdges"/><path fill="#E6E2E5" d="M711.6,556.2L747.4,633.1L800.6,603.2Z" shape-rendering="crispEdges"/><path fill="#BBB0BF" d="M1207.1,191L1113,194.1L1166.1,280.6Z" shape-rendering="crispEdges"/><path fill="#C2B8C7" d="M1166.1,280.6L1113,194.1L1124.8,275.7Z" shape-rendering="crispEdges"/><path fill="#C2A8C8" d="M1026.9,197.2L966.4,144L974.4,213.4Z" shape-rendering="crispEdges"/><path fill="#D9EFD4" d="M1175.4,647.7L1271,581.8L1170.3,556.9Z" shape-rendering="crispEdges"/><path fill="#CBD5C9" d="M1310.9,419.4L1283.3,360.6L1261.5,429.3Z" shape-rendering="crispEdges"/><path fill="#D1DDCE" d="M1310.9,419.4L1261.5,429.3L1260.5,481.6Z" shape-rendering="crispEdges"/><path fill="#CCD2CB" d="M1261.5,429.3L1283.3,360.6L1209.2,355.2Z" shape-rendering="crispEdges"/><path fill="#C6E6C1" d="M1017.9,807.5L1122,748.7L1013.8,732.2Z" shape-rendering="crispEdges"/><path fill="#D2ECCD" d="M1013.8,732.2L1122,748.7L1046.3,643Z" shape-rendering="crispEdges"/><path fill="#D1ECCB" d="M1175.4,647.7L1282,632.1L1271,581.8Z" shape-rendering="crispEdges"/><path fill="#CBEAC5" d="M1122,748.7L1191,710.1L1175.4,647.7Z" shape-rendering="crispEdges"/><path fill="#C6A9CF" d="M730.2,207.5L731.7,282.8L811.6,273.9Z" shape-rendering="crispEdges"/><path fill="#D0B6D8" d="M811.6,273.9L731.7,282.8L724.3,361.3Z" shape-rendering="crispEdges"/><path fill="#C3C6C6" d="M1283.3,360.6L1234.7,256.7L1209.2,355.2Z" shape-rendering="crispEdges"/><path fill="#BCA0C2" d="M1062.8,150L966.4,144L1026.9,197.2Z" shape-rendering="crispEdges"/><path fill="#C3A7CC" d="M905,188.7L822.5,176L811.6,273.9Z" shape-rendering="crispEdges"/><path fill="#D1E1CD" d="M1317.4,514.1L1310.9,419.4L1260.5,481.6Z" shape-rendering="crispEdges"/><path fill="#B2ABB6" d="M1241.1,198.8L1207.1,191L1234.7,256.7Z" shape-rendering="crispEdges"/><path fill="#B69EB9" d="M1136.7,135.4L1062.8,150L1113,194.1Z" shape-rendering="crispEdges"/><path fill="#BBA5C0" d="M1113,194.1L1062.8,150L1026.9,197.2Z" shape-rendering="crispEdges"/><path fill="#DCC6E0" d="M648,441.5L740.3,406.3L724.3,361.3Z" shape-rendering="crispEdges"/><path fill="#E3D1E6" d="M648,441.5L728.1,530.3L740.3,406.3Z" shape-rendering="crispEdges"/><path fill="#E2DDE2" d="M711.6,556.2L672.3,599.9L747.4,633.1Z" shape-rendering="crispEdges"/><path fill="#D2DECE" d="M730.9,751.3L834.4,752.8L813.4,647.2Z" shape-rendering="crispEdges"/><path fill="#CFE6CB" d="M897.1,728L906.3,784.9L954.1,733.6Z" shape-rendering="crispEdges"/><path fill="#CCE8C7" d="M954.1,733.6L1017.9,807.5L1013.8,732.2Z" shape-rendering="crispEdges"/><path fill="#D2EBCE" d="M1327.2,563.9L1317.4,514.1L1271,581.8Z" shape-rendering="crispEdges"/><path fill="#D6EAD2" d="M1271,581.8L1317.4,514.1L1260.5,481.6Z" shape-rendering="crispEdges"/><path fill="#CCE2C8" d="M834.4,752.8L906.3,784.9L897.1,728Z" shape-rendering="crispEdges"/><path fill="#BE9CC5" d="M875.5,150L822.5,176L905,188.7Z" shape-rendering="crispEdges"/><path fill="#CAEAC3" d="M1266.3,710.7L1282,632.1L1175.4,647.7Z" shape-rendering="crispEdges"/><path fill="#BE9CC5" d="M966.4,144L875.5,150L905,188.7Z" shape-rendering="crispEdges"/><path fill="#AFD4AE" d="M976.3,862.7L942.1,802.4L910.4,885.3Z" shape-rendering="crispEdges"/><path fill="#C8E3C5" d="M906.3,784.9L942.1,802.4L954.1,733.6Z" shape-rendering="crispEdges"/><path fill="#C6E4C2" d="M942.1,802.4L1017.9,807.5L954.1,733.6Z" shape-rendering="crispEdges"/><path fill="#B9E3B2" d="M1256.5,789.3L1266.3,710.7L1191,710.1Z" shape-rendering="crispEdges"/><path fill="#D4BCDB" d="M633,328.7L648,441.5L724.3,361.3Z" shape-rendering="crispEdges"/><path fill="#DFD5E2" d="M590.2,600.9L672.3,599.9L668.9,521.5Z" shape-rendering="crispEdges"/><path fill="#E5DAE7" d="M668.9,521.5L672.3,599.9L711.6,556.2Z" shape-rendering="crispEdges"/><path fill="#C6D9C2" d="M730.9,751.3L822,791.5L834.4,752.8Z" shape-rendering="crispEdges"/><path fill="#BABCBC" d="M1307.7,261.8L1234.7,256.7L1283.3,360.6Z" shape-rendering="crispEdges"/><path fill="#B9B3BD" d="M1234.7,256.7L1207.1,191L1166.1,280.6Z" shape-rendering="crispEdges"/><path fill="#CEEAC9" d="M1282,632.1L1327.2,563.9L1271,581.8Z" shape-rendering="crispEdges"/><path fill="#B4C3B5" d="M1399.6,328.9L1332.9,338.6L1424.3,399.9Z" shape-rendering="crispEdges"/><path fill="#B39CB5" d="M1178.2,134.9L1136.7,135.4L1113,194.1Z" shape-rendering="crispEdges"/><path fill="#B28CB6" d="M1021.3,66.3L961.5,69.4L966.4,144Z" shape-rendering="crispEdges"/><path fill="#CCDFC8" d="M1390.2,495.1L1310.9,419.4L1317.4,514.1Z" shape-rendering="crispEdges"/><path fill="#C3CDC2" d="M1310.9,419.4L1332.9,338.6L1283.3,360.6Z" shape-rendering="crispEdges"/><path fill="#B2B0B5" d="M1307.7,261.8L1241.1,198.8L1234.7,256.7Z" shape-rendering="crispEdges"/><path fill="#B3A1B6" d="M1207.1,191L1178.2,134.9L1113,194.1Z" shape-rendering="crispEdges"/><path fill="#C1A4CB" d="M822.5,176L730.2,207.5L811.6,273.9Z" shape-rendering="crispEdges"/><path fill="#CCB1D5" d="M731.7,282.8L669.7,277.9L724.3,361.3Z" shape-rendering="crispEdges"/><path fill="#B890BF" d="M729.3,113.9L730.2,207.5L822.5,176Z" shape-rendering="crispEdges"/><path fill="#DADFD6" d="M730.9,751.3L813.4,647.2L747.4,633.1Z" shape-rendering="crispEdges"/><path fill="#C5DCC1" d="M834.4,752.8L822,791.5L906.3,784.9Z" shape-rendering="crispEdges"/><path fill="#BEE5B8" d="M1195.1,795.8L1191,710.1L1122,748.7Z" shape-rendering="crispEdges"/><path fill="#C8E9C1" d="M1191,710.1L1266.3,710.7L1175.4,647.7Z" shape-rendering="crispEdges"/><path fill="#C9E9C4" d="M1282,632.1L1329.2,637.1L1327.2,563.9Z" shape-rendering="crispEdges"/><path fill="#D9D4DB" d="M590.2,600.9L668.7,646.1L672.3,599.9Z" shape-rendering="crispEdges"/><path fill="#DDDADD" d="M672.3,599.9L668.7,646.1L747.4,633.1Z" shape-rendering="crispEdges"/><path fill="#C2A4CC" d="M730.2,207.5L669.7,277.9L731.7,282.8Z" shape-rendering="crispEdges"/><path fill="#BBC2BC" d="M1332.9,338.6L1307.7,261.8L1283.3,360.6Z" shape-rendering="crispEdges"/><path fill="#C4E7BD" d="M1266.3,710.7L1329.2,637.1L1282,632.1Z" shape-rendering="crispEdges"/><path fill="#CAE4C6" d="M1386.2,552.5L1390.2,495.1L1317.4,514.1Z" shape-rendering="crispEdges"/><path fill="#ACD7A9" d="M1107.5,863.3L1116.9,823.4L1017.9,807.5Z" shape-rendering="crispEdges"/><path fill="#B9DFB4" d="M1017.9,807.5L1116.9,823.4L1122,748.7Z" shape-rendering="crispEdges"/><path fill="#B7DBB5" d="M976.3,862.7L1017.9,807.5L942.1,802.4Z" shape-rendering="crispEdges"/><path fill="#A997AA" d="M1287.2,123.6L1178.2,134.9L1207.1,191Z" shape-rendering="crispEdges"/><path fill="#A99DAB" d="M1287.2,123.6L1207.1,191L1241.1,198.8Z" shape-rendering="crispEdges"/><path fill="#CBB1D5" d="M669.7,277.9L633,328.7L724.3,361.3Z" shape-rendering="crispEdges"/><path fill="#DFCDE4" d="M648,441.5L589.1,518.8L668.9,521.5Z" shape-rendering="crispEdges"/><path fill="#D5D9D3" d="M668.7,646.1L730.9,751.3L747.4,633.1Z" shape-rendering="crispEdges"/><path fill="#B5DFB0" d="M1116.9,823.4L1195.1,795.8L1122,748.7Z" shape-rendering="crispEdges"/><path fill="#BAE3B4" d="M1266.3,710.7L1328.1,726.3L1329.2,637.1Z" shape-rendering="crispEdges"/><path fill="#B693B9" d="M1021.3,66.3L966.4,144L1062.8,150Z" shape-rendering="crispEdges"/><path fill="#B890BD" d="M966.4,144L905.5,73.8L875.5,150Z" shape-rendering="crispEdges"/><path fill="#B890BE" d="M875.5,150L812,100L822.5,176Z" shape-rendering="crispEdges"/><path fill="#AB8AAD" d="M1021.3,66.3L1062.8,150L1114.7,41.6Z" shape-rendering="crispEdges"/><path fill="#B7D5B5" d="M910.4,885.3L906.3,784.9L822,791.5Z" shape-rendering="crispEdges"/><path fill="#B7D8B5" d="M910.4,885.3L942.1,802.4L906.3,784.9Z" shape-rendering="crispEdges"/><path fill="#CFE9CB" d="M1386.2,552.5L1317.4,514.1L1327.2,563.9Z" shape-rendering="crispEdges"/><path fill="#B2BBB4" d="M1332.9,338.6L1405,303.3L1307.7,261.8Z" shape-rendering="crispEdges"/><path fill="#AE8EB0" d="M1114.7,41.6L1062.8,150L1136.7,135.4Z" shape-rendering="crispEdges"/><path fill="#B48CB8" d="M961.5,69.4L905.5,73.8L966.4,144Z" shape-rendering="crispEdges"/><path fill="#C8E7C3" d="M1329.2,637.1L1386.2,552.5L1327.2,563.9Z" shape-rendering="crispEdges"/><path fill="#D9C3DF" d="M581.1,399.8L589.1,518.8L648,441.5Z" shape-rendering="crispEdges"/><path fill="#BACCB8" d="M669,802.8L746.5,799.6L730.9,751.3Z" shape-rendering="crispEdges"/><path fill="#B487B8" d="M905.5,73.8L812,100L875.5,150Z" shape-rendering="crispEdges"/><path fill="#BC9CC7" d="M730.2,207.5L659.6,219L669.7,277.9Z" shape-rendering="crispEdges"/><path fill="#B590C0" d="M672,153.9L659.6,219L730.2,207.5Z" shape-rendering="crispEdges"/><path fill="#C4A7CF" d="M669.7,277.9L603.7,303.7L633,328.7Z" shape-rendering="crispEdges"/><path fill="#CDD2CC" d="M636.7,703.2L730.9,751.3L668.7,646.1Z" shape-rendering="crispEdges"/><path fill="#C0D3BC" d="M730.9,751.3L746.5,799.6L822,791.5Z" shape-rendering="crispEdges"/><path fill="#A6D3A4" d="M1016.6,900.7L1107.5,863.3L1017.9,807.5Z" shape-rendering="crispEdges"/><path fill="#A6D6A2" d="M1116.9,823.4L1194.4,854.9L1195.1,795.8Z" shape-rendering="crispEdges"/><path fill="#CBB0D5" d="M566.4,371L581.1,399.8L633,328.7Z" shape-rendering="crispEdges"/><path fill="#D2B9DA" d="M633,328.7L581.1,399.8L648,441.5Z" shape-rendering="crispEdges"/><path fill="#A4D6A0" d="M1194.4,854.9L1256.5,789.3L1195.1,795.8Z" shape-rendering="crispEdges"/><path fill="#B4E0AE" d="M1195.1,795.8L1256.5,789.3L1191,710.1Z" shape-rendering="crispEdges"/><path fill="#BFE3BA" d="M1329.2,637.1L1407,645L1386.2,552.5Z" shape-rendering="crispEdges"/><path fill="#BE9FCA" d="M659.6,219L603.7,303.7L669.7,277.9Z" shape-rendering="crispEdges"/><path fill="#D3CAD7" d="M572.1,643.7L590.2,600.9L530.5,576.9Z" shape-rendering="crispEdges"/><path fill="#E0D2E4" d="M589.1,518.8L590.2,600.9L668.9,521.5Z" shape-rendering="crispEdges"/><path fill="#B0DFA9" d="M1308.6,783.6L1328.1,726.3L1266.3,710.7Z" shape-rendering="crispEdges"/><path fill="#D0CFD1" d="M572.1,643.7L636.7,703.2L668.7,646.1Z" shape-rendering="crispEdges"/><path fill="#AECDAD" d="M797.1,851.2L910.4,885.3L822,791.5Z" shape-rendering="crispEdges"/><path fill="#AAD4A8" d="M976.3,862.7L1016.6,900.7L1017.9,807.5Z" shape-rendering="crispEdges"/><path fill="#BFCDBD" d="M1424.3,399.9L1332.9,338.6L1310.9,419.4Z" shape-rendering="crispEdges"/><path fill="#ABABAE" d="M1307.7,261.8L1360.8,225.4L1241.1,198.8Z" shape-rendering="crispEdges"/><path fill="#AAC5A9" d="M728.5,880.7L797.1,851.2L746.5,799.6Z" shape-rendering="crispEdges"/><path fill="#B6CEB3" d="M746.5,799.6L797.1,851.2L822,791.5Z" shape-rendering="crispEdges"/><path fill="#C6AAD2" d="M603.7,303.7L566.4,371L633,328.7Z" shape-rendering="crispEdges"/><path fill="#D6C0DD" d="M581.1,399.8L529.1,476.4L589.1,518.8Z" shape-rendering="crispEdges"/><path fill="#9FC8A0" d="M964.7,943.1L1016.6,900.7L976.3,862.7Z" shape-rendering="crispEdges"/><path fill="#C3D6BF" d="M1390.2,495.1L1424.3,399.9L1310.9,419.4Z" shape-rendering="crispEdges"/><path fill="#BAD3B7" d="M1476.9,493.5L1424.3,399.9L1390.2,495.1Z" shape-rendering="crispEdges"/><path fill="#A677AC" d="M717.6,25.4L729.3,113.9L812,100Z" shape-rendering="crispEdges"/><path fill="#B488BA" d="M812,100L729.3,113.9L822.5,176Z" shape-rendering="crispEdges"/><path fill="#93C892" d="M1195.3,948.5L1194.4,854.9L1107.5,863.3Z" shape-rendering="crispEdges"/><path fill="#A2D39F" d="M1107.5,863.3L1194.4,854.9L1116.9,823.4Z" shape-rendering="crispEdges"/><path fill="#ADDEA7" d="M1256.5,789.3L1308.6,783.6L1266.3,710.7Z" shape-rendering="crispEdges"/><path fill="#AAB0AC" d="M1405,303.3L1360.8,225.4L1307.7,261.8Z" shape-rendering="crispEdges"/><path fill="#9F859F" d="M1199.2,34.7L1114.7,41.6L1178.2,134.9Z" shape-rendering="crispEdges"/><path fill="#AB8DAB" d="M1178.2,134.9L1114.7,41.6L1136.7,135.4Z" shape-rendering="crispEdges"/><path fill="#A782AA" d="M986.9,-3.2L905.5,73.8L961.5,69.4Z" shape-rendering="crispEdges"/><path fill="#9C76A0" d="M863.4,-43L838.1,28.5L905.5,73.8Z" shape-rendering="crispEdges"/><path fill="#B0BDB2" d="M1399.6,328.9L1405,303.3L1332.9,338.6Z" shape-rendering="crispEdges"/><path fill="#A8B8AA" d="M1493.5,356.1L1405,303.3L1399.6,328.9Z" shape-rendering="crispEdges"/><path fill="#B288BB" d="M729.3,113.9L672,153.9L730.2,207.5Z" shape-rendering="crispEdges"/><path fill="#B594C3" d="M559.6,187L536.8,287.2L603.7,303.7Z" shape-rendering="crispEdges"/><path fill="#C9AED3" d="M512.9,375.6L528.1,424.8L566.4,371Z" shape-rendering="crispEdges"/><path fill="#9BD397" d="M1308.4,856.5L1308.6,783.6L1256.5,789.3Z" shape-rendering="crispEdges"/><path fill="#A59EA7" d="M1360.8,225.4L1287.2,123.6L1241.1,198.8Z" shape-rendering="crispEdges"/><path fill="#AADBA5" d="M1426.7,743.7L1407,645L1328.1,726.3Z" shape-rendering="crispEdges"/><path fill="#B9E2B2" d="M1328.1,726.3L1407,645L1329.2,637.1Z" shape-rendering="crispEdges"/><path fill="#C0DDBD" d="M1386.2,552.5L1476.9,493.5L1390.2,495.1Z" shape-rendering="crispEdges"/><path fill="#D9CCDE" d="M530.5,576.9L590.2,600.9L589.1,518.8Z" shape-rendering="crispEdges"/><path fill="#D4CFD6" d="M590.2,600.9L572.1,643.7L668.7,646.1Z" shape-rendering="crispEdges"/><path fill="#C1CEBF" d="M636.7,703.2L669,802.8L730.9,751.3Z" shape-rendering="crispEdges"/><path fill="#D1B8D9" d="M528.1,424.8L529.1,476.4L581.1,399.8Z" shape-rendering="crispEdges"/><path fill="#A482A7" d="M986.9,-3.2L961.5,69.4L1021.3,66.3Z" shape-rendering="crispEdges"/><path fill="#A87EAC" d="M905.5,73.8L838.1,28.5L812,100Z" shape-rendering="crispEdges"/><path fill="#A373AF" d="M575.7,77.6L586.4,153.3L672,153.9Z" shape-rendering="crispEdges"/><path fill="#C2A4CE" d="M512.9,375.6L566.4,371L536.8,287.2Z" shape-rendering="crispEdges"/><path fill="#CDB3D6" d="M566.4,371L528.1,424.8L581.1,399.8Z" shape-rendering="crispEdges"/><path fill="#BCC7BC" d="M569.6,751.4L669,802.8L636.7,703.2Z" shape-rendering="crispEdges"/><path fill="#987A9A" d="M1053.2,-45.1L986.9,-3.2L1021.3,66.3Z" shape-rendering="crispEdges"/><path fill="#D9C7DF" d="M529.1,476.4L530.5,576.9L589.1,518.8Z" shape-rendering="crispEdges"/><path fill="#C5C8C6" d="M572.1,643.7L569.6,751.4L636.7,703.2Z" shape-rendering="crispEdges"/><path fill="#D2BDD9" d="M407.9,497.7L530.5,576.9L529.1,476.4Z" shape-rendering="crispEdges"/><path fill="#9D859C" d="M1279.2,77.9L1199.2,34.7L1178.2,134.9Z" shape-rendering="crispEdges"/><path fill="#997D9B" d="M1114.7,41.6L1053.2,-45.1L1021.3,66.3Z" shape-rendering="crispEdges"/><path fill="#9AC09B" d="M884.9,947.7L964.7,943.1L910.4,885.3Z" shape-rendering="crispEdges"/><path fill="#A2CAA3" d="M910.4,885.3L964.7,943.1L976.3,862.7Z" shape-rendering="crispEdges"/><path fill="#99C79A" d="M1016.6,900.7L1018.6,946.9L1107.5,863.3Z" shape-rendering="crispEdges"/><path fill="#A0C3A0" d="M884.9,947.7L910.4,885.3L797.1,851.2Z" shape-rendering="crispEdges"/><path fill="#96C198" d="M964.7,943.1L1018.6,946.9L1016.6,900.7Z" shape-rendering="crispEdges"/><path fill="#998698" d="M1327.2,110L1279.2,77.9L1287.2,123.6Z" shape-rendering="crispEdges"/><path fill="#A18AA0" d="M1287.2,123.6L1279.2,77.9L1178.2,134.9Z" shape-rendering="crispEdges"/><path fill="#9E939E" d="M1327.2,110L1287.2,123.6L1360.8,225.4Z" shape-rendering="crispEdges"/><path fill="#BBDDB9" d="M1489.5,572.2L1476.9,493.5L1386.2,552.5Z" shape-rendering="crispEdges"/><path fill="#ACBEAC" d="M1424.3,399.9L1493.5,356.1L1399.6,328.9Z" shape-rendering="crispEdges"/><path fill="#C1A3CE" d="M536.8,287.2L566.4,371L603.7,303.7Z" shape-rendering="crispEdges"/><path fill="#CEB4D5" d="M528.1,424.8L459.6,422L529.1,476.4Z" shape-rendering="crispEdges"/><path fill="#99D096" d="M1194.4,854.9L1266,867.7L1256.5,789.3Z" shape-rendering="crispEdges"/><path fill="#9CD597" d="M1412.5,811.8L1426.7,743.7L1328.1,726.3Z" shape-rendering="crispEdges"/><path fill="#89C489" d="M1243.2,944.9L1266,867.7L1194.4,854.9Z" shape-rendering="crispEdges"/><path fill="#B493C2" d="M559.6,187L603.7,303.7L659.6,219Z" shape-rendering="crispEdges"/><path fill="#9B989C" d="M1408.1,197.9L1327.2,110L1360.8,225.4Z" shape-rendering="crispEdges"/><path fill="#ACC3AB" d="M669,802.8L728.5,880.7L746.5,799.6Z" shape-rendering="crispEdges"/><path fill="#8C778C" d="M1180.8,-21.4L1122.8,-10.6L1199.2,34.7Z" shape-rendering="crispEdges"/><path fill="#947C94" d="M1199.2,34.7L1122.8,-10.6L1114.7,41.6Z" shape-rendering="crispEdges"/><path fill="#98BA9A" d="M818.9,961.3L884.9,947.7L797.1,851.2Z" shape-rendering="crispEdges"/><path fill="#8FB893" d="M964.7,943.1L953.8,1006.3L1018.6,946.9Z" shape-rendering="crispEdges"/><path fill="#9AA39D" d="M1471.3,228L1408.1,197.9L1405,303.3Z" shape-rendering="crispEdges"/><path fill="#A0A7A3" d="M1405,303.3L1408.1,197.9L1360.8,225.4Z" shape-rendering="crispEdges"/><path fill="#B2CBB0" d="M1476.9,493.5L1484.5,400L1424.3,399.9Z" shape-rendering="crispEdges"/><path fill="#C9C1CD" d="M455.8,669.5L531.3,655.9L530.5,576.9Z" shape-rendering="crispEdges"/><path fill="#CEC7D2" d="M530.5,576.9L531.3,655.9L572.1,643.7Z" shape-rendering="crispEdges"/><path fill="#A4BCA4" d="M669,802.8L653.3,849.9L728.5,880.7Z" shape-rendering="crispEdges"/><path fill="#81C181" d="M1307,943.1L1308.4,856.5L1266,867.7Z" shape-rendering="crispEdges"/><path fill="#93CE90" d="M1266,867.7L1308.4,856.5L1256.5,789.3Z" shape-rendering="crispEdges"/><path fill="#C0C3C2" d="M534.3,729.5L569.6,751.4L572.1,643.7Z" shape-rendering="crispEdges"/><path fill="#ADD9A9" d="M1484.5,664.5L1489.5,572.2L1407,645Z" shape-rendering="crispEdges"/><path fill="#B8DEB5" d="M1407,645L1489.5,572.2L1386.2,552.5Z" shape-rendering="crispEdges"/><path fill="#ABC7A9" d="M1476.9,493.5L1549.2,424.4L1484.5,400Z" shape-rendering="crispEdges"/><path fill="#A674AE" d="M637,43.6L672,153.9L729.3,113.9Z" shape-rendering="crispEdges"/><path fill="#AD85B9" d="M672,153.9L586.4,153.3L659.6,219Z" shape-rendering="crispEdges"/><path fill="#A7BBA8" d="M606.5,818.8L653.3,849.9L669,802.8Z" shape-rendering="crispEdges"/><path fill="#9CBB9D" d="M728.5,880.7L818.9,961.3L797.1,851.2Z" shape-rendering="crispEdges"/><path fill="#AB84B9" d="M586.4,153.3L559.6,187L659.6,219Z" shape-rendering="crispEdges"/><path fill="#C3A5CD" d="M459.1,375.3L459.6,422L512.9,375.6Z" shape-rendering="crispEdges"/><path fill="#A4BDA4" d="M1549.2,424.4L1493.5,356.1L1484.5,400Z" shape-rendering="crispEdges"/><path fill="#AAC0AA" d="M1484.5,400L1493.5,356.1L1424.3,399.9Z" shape-rendering="crispEdges"/><path fill="#917892" d="M1122.8,-10.6L1053.2,-45.1L1114.7,41.6Z" shape-rendering="crispEdges"/><path fill="#9B789F" d="M986.9,-3.2L863.4,-43L905.5,73.8Z" shape-rendering="crispEdges"/><path fill="#9FD79A" d="M1412.5,811.8L1328.1,726.3L1308.6,783.6Z" shape-rendering="crispEdges"/><path fill="#946C99" d="M784.6,-35.5L717.6,25.4L838.1,28.5Z" shape-rendering="crispEdges"/><path fill="#A175A5" d="M838.1,28.5L717.6,25.4L812,100Z" shape-rendering="crispEdges"/><path fill="#A0B1A3" d="M1493.5,356.1L1475.6,271.3L1405,303.3Z" shape-rendering="crispEdges"/><path fill="#8A7889" d="M1235.4,-49.3L1199.2,34.7L1279.2,77.9Z" shape-rendering="crispEdges"/><path fill="#887587" d="M1235.4,-49.3L1180.8,-21.4L1199.2,34.7Z" shape-rendering="crispEdges"/><path fill="#927893" d="M1122.8,-10.6L1090.2,-99.2L1053.2,-45.1Z" shape-rendering="crispEdges"/><path fill="#AFBFB0" d="M569.6,751.4L606.5,818.8L669,802.8Z" shape-rendering="crispEdges"/><path fill="#9A789D" d="M976.3,-89L863.4,-43L986.9,-3.2Z" shape-rendering="crispEdges"/><path fill="#90C091" d="M1134,973.3L1107.5,863.3L1018.6,946.9Z" shape-rendering="crispEdges"/><path fill="#8BBE8C" d="M1134,973.3L1195.3,948.5L1107.5,863.3Z" shape-rendering="crispEdges"/><path fill="#93B095" d="M714.9,942.6L818.9,961.3L728.5,880.7Z" shape-rendering="crispEdges"/><path fill="#8FB693" d="M884.9,947.7L953.8,1006.3L964.7,943.1Z" shape-rendering="crispEdges"/><path fill="#90AC93" d="M714.9,942.6L728.5,880.7L667,940Z" shape-rendering="crispEdges"/><path fill="#82B185" d="M1123.4,1027.8L1134,973.3L1018.6,946.9Z" shape-rendering="crispEdges"/><path fill="#AAB7AD" d="M569.6,751.4L491.9,796.4L606.5,818.8Z" shape-rendering="crispEdges"/><path fill="#C5C4C8" d="M531.3,655.9L534.3,729.5L572.1,643.7Z" shape-rendering="crispEdges"/><path fill="#BFBDC2" d="M455.8,669.5L534.3,729.5L531.3,655.9Z" shape-rendering="crispEdges"/><path fill="#A5D7A1" d="M1426.7,743.7L1484.5,664.5L1407,645Z" shape-rendering="crispEdges"/><path fill="#8F808D" d="M1393.5,104.6L1332.8,55.8L1327.2,110Z" shape-rendering="crispEdges"/><path fill="#928190" d="M1327.2,110L1332.8,55.8L1279.2,77.9Z" shape-rendering="crispEdges"/><path fill="#948A94" d="M1393.5,104.6L1327.2,110L1408.1,197.9Z" shape-rendering="crispEdges"/><path fill="#BA9BC8" d="M459.1,375.3L512.9,375.6L449.9,280.8Z" shape-rendering="crispEdges"/><path fill="#C8ACD1" d="M512.9,375.6L459.6,422L528.1,424.8Z" shape-rendering="crispEdges"/><path fill="#92A196" d="M1535.3,292.3L1471.3,228L1475.6,271.3Z" shape-rendering="crispEdges"/><path fill="#9AA79D" d="M1475.6,271.3L1471.3,228L1405,303.3Z" shape-rendering="crispEdges"/><path fill="#B898C6" d="M449.9,280.8L512.9,375.6L536.8,287.2Z" shape-rendering="crispEdges"/><path fill="#8C878C" d="M1475.6,123.6L1393.5,104.6L1408.1,197.9Z" shape-rendering="crispEdges"/><path fill="#77AF7A" d="M1188.2,1029L1243.2,944.9L1195.3,948.5Z" shape-rendering="crispEdges"/><path fill="#86BE86" d="M1195.3,948.5L1243.2,944.9L1194.4,854.9Z" shape-rendering="crispEdges"/><path fill="#91CE8E" d="M1308.4,856.5L1412.5,811.8L1308.6,783.6Z" shape-rendering="crispEdges"/><path fill="#956E99" d="M863.4,-43L784.6,-35.5L838.1,28.5Z" shape-rendering="crispEdges"/><path fill="#8AAE8E" d="M896.8,1020L953.8,1006.3L884.9,947.7Z" shape-rendering="crispEdges"/><path fill="#82C581" d="M1417.4,854.7L1412.5,811.8L1308.4,856.5Z" shape-rendering="crispEdges"/><path fill="#97D094" d="M1426.7,743.7L1500,743.1L1484.5,664.5Z" shape-rendering="crispEdges"/><path fill="#A9D3A8" d="M1566.7,583.8L1533.8,528.1L1489.5,572.2Z" shape-rendering="crispEdges"/><path fill="#B1D6B0" d="M1489.5,572.2L1533.8,528.1L1476.9,493.5Z" shape-rendering="crispEdges"/><path fill="#97AB9B" d="M1493.5,356.1L1535.3,292.3L1475.6,271.3Z" shape-rendering="crispEdges"/><path fill="#8E6295" d="M679,-18.9L637,43.6L717.6,25.4Z" shape-rendering="crispEdges"/><path fill="#9B6DA3" d="M717.6,25.4L637,43.6L729.3,113.9Z" shape-rendering="crispEdges"/><path fill="#A177B0" d="M486.9,133.5L485.2,226.8L559.6,187Z" shape-rendering="crispEdges"/><path fill="#97B199" d="M667,940L728.5,880.7L653.3,849.9Z" shape-rendering="crispEdges"/><path fill="#8BAE8F" d="M818.9,961.3L896.8,1020L884.9,947.7Z" shape-rendering="crispEdges"/><path fill="#906695" d="M784.6,-35.5L725.2,-18.3L717.6,25.4Z" shape-rendering="crispEdges"/><path fill="#967998" d="M1058.5,-109.5L976.3,-89L1053.2,-45.1Z" shape-rendering="crispEdges"/><path fill="#97799A" d="M1053.2,-45.1L976.3,-89L986.9,-3.2Z" shape-rendering="crispEdges"/><path fill="#946D98" d="M863.4,-43L798.8,-112.7L784.6,-35.5Z" shape-rendering="crispEdges"/><path fill="#A174AF" d="M486.9,133.5L559.6,187L586.4,153.3Z" shape-rendering="crispEdges"/><path fill="#AC88BB" d="M559.6,187L485.2,226.8L536.8,287.2Z" shape-rendering="crispEdges"/><path fill="#ABCCA9" d="M1533.8,528.1L1549.2,424.4L1476.9,493.5Z" shape-rendering="crispEdges"/><path fill="#87A58A" d="M785.8,1010.3L896.8,1020L818.9,961.3Z" shape-rendering="crispEdges"/><path fill="#87AF8B" d="M953.8,1006.3L1020.2,1041L1018.6,946.9Z" shape-rendering="crispEdges"/><path fill="#867C85" d="M1475.6,123.6L1408.2,80.5L1393.5,104.6Z" shape-rendering="crispEdges"/><path fill="#887C86" d="M1393.5,104.6L1408.2,80.5L1332.8,55.8Z" shape-rendering="crispEdges"/><path fill="#80727E" d="M1323.4,-33.1L1235.4,-49.3L1279.2,77.9Z" shape-rendering="crispEdges"/><path fill="#90609B" d="M537.4,52.7L575.7,77.6L637,43.6Z" shape-rendering="crispEdges"/><path fill="#9D6BA7" d="M637,43.6L575.7,77.6L672,153.9Z" shape-rendering="crispEdges"/><path fill="#857783" d="M1323.4,-33.1L1279.2,77.9L1332.8,55.8Z" shape-rendering="crispEdges"/><path fill="#8F778F" d="M1185.3,-98.1L1090.2,-99.2L1122.8,-10.6Z" shape-rendering="crispEdges"/><path fill="#95AC99" d="M1564.2,325.5L1535.3,292.3L1493.5,356.1Z" shape-rendering="crispEdges"/><path fill="#8D908F" d="M1471.3,228L1475.6,123.6L1408.1,197.9Z" shape-rendering="crispEdges"/><path fill="#A47EB5" d="M410.1,211.3L449.9,280.8L485.2,226.8Z" shape-rendering="crispEdges"/><path fill="#AE8ABD" d="M485.2,226.8L449.9,280.8L536.8,287.2Z" shape-rendering="crispEdges"/><path fill="#C3A6CC" d="M344.7,413.2L407.9,497.7L459.6,422Z" shape-rendering="crispEdges"/><path fill="#7DBA7E" d="M1243.2,944.9L1307,943.1L1266,867.7Z" shape-rendering="crispEdges"/><path fill="#6FAD73" d="M1271.3,1018.2L1307,943.1L1243.2,944.9Z" shape-rendering="crispEdges"/><path fill="#7BAF7D" d="M1188.2,1029L1195.3,948.5L1134,973.3Z" shape-rendering="crispEdges"/><path fill="#CBB2D3" d="M407.9,497.7L529.1,476.4L459.6,422Z" shape-rendering="crispEdges"/><path fill="#C7BCCC" d="M412.7,602.2L455.8,669.5L530.5,576.9Z" shape-rendering="crispEdges"/><path fill="#B1BAB3" d="M534.3,729.5L491.9,796.4L569.6,751.4Z" shape-rendering="crispEdges"/><path fill="#92AB95" d="M562.6,884.5L667,940L653.3,849.9Z" shape-rendering="crispEdges"/><path fill="#8D778C" d="M1185.3,-98.1L1122.8,-10.6L1180.8,-21.4Z" shape-rendering="crispEdges"/><path fill="#9BB29E" d="M562.6,884.5L653.3,849.9L606.5,818.8Z" shape-rendering="crispEdges"/><path fill="#89A78D" d="M714.9,942.6L785.8,1010.3L818.9,961.3Z" shape-rendering="crispEdges"/><path fill="#8B6192" d="M676.7,-78.4L679,-18.9L725.2,-18.3Z" shape-rendering="crispEdges"/><path fill="#8C6293" d="M725.2,-18.3L679,-18.9L717.6,25.4Z" shape-rendering="crispEdges"/><path fill="#8E6493" d="M676.7,-78.4L725.2,-18.3L762.3,-122.8Z" shape-rendering="crispEdges"/><path fill="#81A384" d="M1013.7,1078.1L1020.2,1041L953.8,1006.3Z" shape-rendering="crispEdges"/><path fill="#74BA75" d="M1407.8,955.6L1417.4,854.7L1308.4,856.5Z" shape-rendering="crispEdges"/><path fill="#8ACA88" d="M1482,810.9L1500,743.1L1426.7,743.7Z" shape-rendering="crispEdges"/><path fill="#A6D3A3" d="M1484.5,664.5L1566.7,583.8L1489.5,572.2Z" shape-rendering="crispEdges"/><path fill="#82AC85" d="M1020.2,1041L1123.4,1027.8L1018.6,946.9Z" shape-rendering="crispEdges"/><path fill="#937894" d="M1090.2,-99.2L1058.5,-109.5L1053.2,-45.1Z" shape-rendering="crispEdges"/><path fill="#98759B" d="M976.3,-89L870,-109L863.4,-43Z" shape-rendering="crispEdges"/><path fill="#88C986" d="M1482,810.9L1426.7,743.7L1412.5,811.8Z" shape-rendering="crispEdges"/><path fill="#829C86" d="M707,1043.4L785.8,1010.3L714.9,942.6Z" shape-rendering="crispEdges"/><path fill="#81A085" d="M910.4,1083.9L1013.7,1078.1L953.8,1006.3Z" shape-rendering="crispEdges"/><path fill="#C3A7CC" d="M384,521.2L407.9,497.7L344.7,413.2Z" shape-rendering="crispEdges"/><path fill="#9A799D" d="M1058.5,-109.5L870,-109L976.3,-89Z" shape-rendering="crispEdges"/><path fill="#9DCF9B" d="M1583.1,631.4L1566.7,583.8L1484.5,664.5Z" shape-rendering="crispEdges"/><path fill="#A2C3A2" d="M1533.8,528.1L1614.7,438.3L1549.2,424.4Z" shape-rendering="crispEdges"/><path fill="#9BB59D" d="M1549.2,424.4L1564.2,325.5L1493.5,356.1Z" shape-rendering="crispEdges"/><path fill="#99B59B" d="M1614.7,438.3L1564.2,325.5L1549.2,424.4Z" shape-rendering="crispEdges"/><path fill="#848C88" d="M1564.6,205.3L1475.6,123.6L1471.3,228Z" shape-rendering="crispEdges"/><path fill="#89998E" d="M1564.6,205.3L1471.3,228L1535.3,292.3Z" shape-rendering="crispEdges"/><path fill="#867485" d="M1242.8,-112.3L1185.3,-98.1L1235.4,-49.3Z" shape-rendering="crispEdges"/><path fill="#CDBBD4" d="M407.9,497.7L412.7,602.2L530.5,576.9Z" shape-rendering="crispEdges"/><path fill="#B8B2BC" d="M374.3,662.7L445.9,702.5L455.8,669.5Z" shape-rendering="crispEdges"/><path fill="#B9B8BC" d="M455.8,669.5L445.9,702.5L534.3,729.5Z" shape-rendering="crispEdges"/><path fill="#786E75" d="M1323.4,-33.1L1332.8,55.8L1395.1,-24.1Z" shape-rendering="crispEdges"/><path fill="#887587" d="M1235.4,-49.3L1185.3,-98.1L1180.8,-21.4Z" shape-rendering="crispEdges"/><path fill="#907891" d="M1090.2,-99.2L1185.3,-98.1L1058.5,-109.5Z" shape-rendering="crispEdges"/><path fill="#729E75" d="M1166.4,1090.2L1188.2,1029L1123.4,1027.8Z" shape-rendering="crispEdges"/><path fill="#79A97C" d="M1123.4,1027.8L1188.2,1029L1134,973.3Z" shape-rendering="crispEdges"/><path fill="#786F76" d="M1317.2,-75.3L1323.4,-33.1L1395.1,-24.1Z" shape-rendering="crispEdges"/><path fill="#B1B6B4" d="M445.9,702.5L491.9,796.4L534.3,729.5Z" shape-rendering="crispEdges"/><path fill="#95AA99" d="M507.4,869L562.6,884.5L606.5,818.8Z" shape-rendering="crispEdges"/><path fill="#849F8A" d="M667,940L664.9,1002.2L714.9,942.6Z" shape-rendering="crispEdges"/><path fill="#7CC17C" d="M1417.4,854.7L1482,810.9L1412.5,811.8Z" shape-rendering="crispEdges"/><path fill="#92CC90" d="M1500,743.1L1538.5,718L1484.5,664.5Z" shape-rendering="crispEdges"/><path fill="#73BC74" d="M1484.2,850.3L1482,810.9L1417.4,854.7Z" shape-rendering="crispEdges"/><path fill="#80C47F" d="M1547.9,828.3L1538.5,718L1500,743.1Z" shape-rendering="crispEdges"/><path fill="#935F9F" d="M537.4,52.7L486.9,133.5L575.7,77.6Z" shape-rendering="crispEdges"/><path fill="#9C69A9" d="M575.7,77.6L486.9,133.5L586.4,153.3Z" shape-rendering="crispEdges"/><path fill="#946D98" d="M762.3,-122.8L798.8,-112.7L870,-109Z" shape-rendering="crispEdges"/><path fill="#957099" d="M870,-109L798.8,-112.7L863.4,-43Z" shape-rendering="crispEdges"/><path fill="#BFA0CA" d="M344.7,413.2L459.6,422L459.1,375.3Z" shape-rendering="crispEdges"/><path fill="#CAB4D2" d="M407.9,497.7L384,521.2L412.7,602.2Z" shape-rendering="crispEdges"/><path fill="#BEB3C3" d="M412.7,602.2L374.3,662.7L455.8,669.5Z" shape-rendering="crispEdges"/><path fill="#B391C2" d="M363.1,338.9L459.1,375.3L449.9,280.8Z" shape-rendering="crispEdges"/><path fill="#83A287" d="M910.4,1083.9L953.8,1006.3L896.8,1020Z" shape-rendering="crispEdges"/><path fill="#779E7A" d="M1020.2,1041L1114.9,1098.4L1123.4,1027.8Z" shape-rendering="crispEdges"/><path fill="#855890" d="M572.6,-43.9L537.4,52.7L637,43.6Z" shape-rendering="crispEdges"/><path fill="#855A8E" d="M572.6,-43.9L637,43.6L679,-18.9Z" shape-rendering="crispEdges"/><path fill="#96CD94" d="M1538.5,718L1583.1,631.4L1484.5,664.5Z" shape-rendering="crispEdges"/><path fill="#9FC19F" d="M1635.1,476.6L1614.7,438.3L1533.8,528.1Z" shape-rendering="crispEdges"/><path fill="#669769" d="M1272.5,1129.2L1271.3,1018.2L1188.2,1029Z" shape-rendering="crispEdges"/><path fill="#70A874" d="M1188.2,1029L1271.3,1018.2L1243.2,944.9Z" shape-rendering="crispEdges"/><path fill="#68B46C" d="M1407.8,955.6L1484.2,850.3L1417.4,854.7Z" shape-rendering="crispEdges"/><path fill="#7D9881" d="M830.1,1085.6L910.4,1083.9L896.8,1020Z" shape-rendering="crispEdges"/><path fill="#809B84" d="M830.1,1085.6L896.8,1020L785.8,1010.3Z" shape-rendering="crispEdges"/><path fill="#A4CBA4" d="M1635.1,476.6L1533.8,528.1L1566.7,583.8Z" shape-rendering="crispEdges"/><path fill="#809086" d="M1629.4,208.7L1564.6,205.3L1535.3,292.3Z" shape-rendering="crispEdges"/><path fill="#73B675" d="M1407.8,955.6L1308.4,856.5L1307,943.1Z" shape-rendering="crispEdges"/><path fill="#79C079" d="M1482,810.9L1547.9,828.3L1500,743.1Z" shape-rendering="crispEdges"/><path fill="#8FC68E" d="M1538.5,718L1620.9,662.3L1583.1,631.4Z" shape-rendering="crispEdges"/><path fill="#C6B2CE" d="M384,521.2L372.8,566.1L412.7,602.2Z" shape-rendering="crispEdges"/><path fill="#90A195" d="M419.5,869.7L507.4,869L491.9,796.4Z" shape-rendering="crispEdges"/><path fill="#916896" d="M762.3,-122.8L725.2,-18.3L784.6,-35.5Z" shape-rendering="crispEdges"/><path fill="#7C9483" d="M610.3,1024.4L664.9,1002.2L667,940Z" shape-rendering="crispEdges"/><path fill="#8BA190" d="M1650.9,302.9L1535.3,292.3L1564.2,325.5Z" shape-rendering="crispEdges"/><path fill="#7D737B" d="M1395.1,-24.1L1332.8,55.8L1408.2,80.5Z" shape-rendering="crispEdges"/><path fill="#817280" d="M1317.2,-75.3L1242.8,-112.3L1235.4,-49.3Z" shape-rendering="crispEdges"/><path fill="#8D778C" d="M1185.3,-98.1L1242.8,-112.3L1058.5,-109.5Z" shape-rendering="crispEdges"/><path fill="#98749B" d="M1058.5,-109.5L762.3,-122.8L870,-109Z" shape-rendering="crispEdges"/><path fill="#9CAD9F" d="M491.9,796.4L507.4,869L606.5,818.8Z" shape-rendering="crispEdges"/><path fill="#87A08D" d="M562.6,884.5L558.5,938.3L667,940Z" shape-rendering="crispEdges"/><path fill="#AAAFAC" d="M437.9,782.9L491.9,796.4L445.9,702.5Z" shape-rendering="crispEdges"/><path fill="#967998" d="M1242.8,-112.3L762.3,-122.8L1058.5,-109.5Z" shape-rendering="crispEdges"/><path fill="#936A97" d="M798.8,-112.7L762.3,-122.8L784.6,-35.5Z" shape-rendering="crispEdges"/><path fill="#7E717C" d="M1323.4,-33.1L1317.2,-75.3L1235.4,-49.3Z" shape-rendering="crispEdges"/><path fill="#726C71" d="M1395.1,-24.1L1408.2,80.5L1492.5,33.9Z" shape-rendering="crispEdges"/><path fill="#9362A3" d="M369,184.8L410.1,211.3L409.7,101.8Z" shape-rendering="crispEdges"/><path fill="#9D73AD" d="M486.9,133.5L410.1,211.3L485.2,226.8Z" shape-rendering="crispEdges"/><path fill="#C4A9CB" d="M384,521.2L257.4,514.3L372.8,566.1Z" shape-rendering="crispEdges"/><path fill="#7A7379" d="M1492.5,33.9L1408.2,80.5L1475.6,123.6Z" shape-rendering="crispEdges"/><path fill="#AAACAD" d="M370.7,736.8L437.9,782.9L445.9,702.5Z" shape-rendering="crispEdges"/><path fill="#A37DB4" d="M410.1,211.3L381.6,270.1L449.9,280.8Z" shape-rendering="crispEdges"/><path fill="#AA85BA" d="M381.6,270.1L363.1,338.9L449.9,280.8Z" shape-rendering="crispEdges"/><path fill="#7A907E" d="M742,1097.4L830.1,1085.6L785.8,1010.3Z" shape-rendering="crispEdges"/><path fill="#899F8E" d="M507.4,869L558.5,938.3L562.6,884.5Z" shape-rendering="crispEdges"/><path fill="#72867B" d="M610.3,1024.4L558.5,938.3L518.5,1055Z" shape-rendering="crispEdges"/><path fill="#63A568" d="M1315.6,1054.7L1407.8,955.6L1307,943.1Z" shape-rendering="crispEdges"/><path fill="#9EC79F" d="M1655,575.8L1635.1,476.6L1566.7,583.8Z" shape-rendering="crispEdges"/><path fill="#90AA94" d="M1614.7,438.3L1631.6,327.9L1564.2,325.5Z" shape-rendering="crispEdges"/><path fill="#76897B" d="M682.4,1093.5L707,1043.4L664.9,1002.2Z" shape-rendering="crispEdges"/><path fill="#7F9884" d="M664.9,1002.2L707,1043.4L714.9,942.6Z" shape-rendering="crispEdges"/><path fill="#7D9A81" d="M964,1128.8L1013.7,1078.1L910.4,1083.9Z" shape-rendering="crispEdges"/><path fill="#739776" d="M1131.6,1168.7L1114.9,1098.4L1019.6,1193.8Z" shape-rendering="crispEdges"/><path fill="#789A7B" d="M1013.7,1078.1L1114.9,1098.4L1020.2,1041Z" shape-rendering="crispEdges"/><path fill="#66A26A" d="M1271.3,1018.2L1315.6,1054.7L1307,943.1Z" shape-rendering="crispEdges"/><path fill="#AEA0B0" d="M307.4,717.4L374.3,662.7L262.9,672.6Z" shape-rendering="crispEdges"/><path fill="#C0B0C6" d="M372.8,566.1L374.3,662.7L412.7,602.2Z" shape-rendering="crispEdges"/><path fill="#B796C3" d="M363.1,338.9L344.7,413.2L459.1,375.3Z" shape-rendering="crispEdges"/><path fill="#719974" d="M1114.9,1098.4L1166.4,1090.2L1123.4,1027.8Z" shape-rendering="crispEdges"/><path fill="#8DA891" d="M1687.1,370.9L1631.6,327.9L1614.7,438.3Z" shape-rendering="crispEdges"/><path fill="#7D5088" d="M501.8,-39.3L572.6,-43.9L561.1,-94.8Z" shape-rendering="crispEdges"/><path fill="#865B8F" d="M676.7,-78.4L572.6,-43.9L679,-18.9Z" shape-rendering="crispEdges"/><path fill="#9462A3" d="M409.7,101.8L410.1,211.3L486.9,133.5Z" shape-rendering="crispEdges"/><path fill="#83C083" d="M1641.4,744.4L1620.9,662.3L1538.5,718Z" shape-rendering="crispEdges"/><path fill="#99C799" d="M1583.1,631.4L1655,575.8L1566.7,583.8Z" shape-rendering="crispEdges"/><path fill="#6DB970" d="M1547.9,828.3L1482,810.9L1484.2,850.3Z" shape-rendering="crispEdges"/><path fill="#716D70" d="M1545.8,56.5L1492.5,33.9L1475.6,123.6Z" shape-rendering="crispEdges"/><path fill="#746C71" d="M1395.1,-24.1L1412.6,-76.4L1317.2,-75.3Z" shape-rendering="crispEdges"/><path fill="#726F72" d="M1545.8,56.5L1475.6,123.6L1587.6,105.6Z" shape-rendering="crispEdges"/><path fill="#7C9780" d="M911.4,1150.8L964,1128.8L910.4,1083.9Z" shape-rendering="crispEdges"/><path fill="#67936A" d="M1272.5,1129.2L1188.2,1029L1166.4,1090.2Z" shape-rendering="crispEdges"/><path fill="#5EB064" d="M1586.5,879.7L1547.9,828.3L1484.2,850.3Z" shape-rendering="crispEdges"/><path fill="#5B8E5F" d="M1316.9,1089.7L1315.6,1054.7L1272.5,1129.2Z" shape-rendering="crispEdges"/><path fill="#59A760" d="M1407.8,955.6L1502.9,963.8L1484.2,850.3Z" shape-rendering="crispEdges"/><path fill="#93C493" d="M1620.9,662.3L1655,575.8L1583.1,631.4Z" shape-rendering="crispEdges"/><path fill="#849D8B" d="M1687.1,370.9L1650.9,302.9L1631.6,327.9Z" shape-rendering="crispEdges"/><path fill="#809587" d="M482.3,957.8L558.5,938.3L507.4,869Z" shape-rendering="crispEdges"/><path fill="#7D9684" d="M558.5,938.3L610.3,1024.4L667,940Z" shape-rendering="crispEdges"/><path fill="#7A8F7E" d="M707,1043.4L742,1097.4L785.8,1010.3Z" shape-rendering="crispEdges"/><path fill="#7B947F" d="M830.1,1085.6L911.4,1150.8L910.4,1083.9Z" shape-rendering="crispEdges"/><path fill="#ACA4AF" d="M307.4,717.4L370.7,736.8L374.3,662.7Z" shape-rendering="crispEdges"/><path fill="#B1ACB5" d="M374.3,662.7L370.7,736.8L445.9,702.5Z" shape-rendering="crispEdges"/><path fill="#97A39B" d="M437.9,782.9L419.5,869.7L491.9,796.4Z" shape-rendering="crispEdges"/><path fill="#738478" d="M682.4,1093.5L742,1097.4L707,1043.4Z" shape-rendering="crispEdges"/><path fill="#96B697" d="M1686.6,443.7L1614.7,438.3L1635.1,476.6Z" shape-rendering="crispEdges"/><path fill="#889F8E" d="M1631.6,327.9L1650.9,302.9L1564.2,325.5Z" shape-rendering="crispEdges"/><path fill="#9A72AC" d="M410.1,211.3L369,184.8L381.6,270.1Z" shape-rendering="crispEdges"/><path fill="#A57AB3" d="M258.4,256.7L269.5,367L363.1,338.9Z" shape-rendering="crispEdges"/><path fill="#B48CBD" d="M269.5,367L285.1,430.1L344.7,413.2Z" shape-rendering="crispEdges"/><path fill="#8A5398" d="M409.7,101.8L486.9,133.5L409.1,48.1Z" shape-rendering="crispEdges"/><path fill="#8A5597" d="M409.1,48.1L486.9,133.5L537.4,52.7Z" shape-rendering="crispEdges"/><path fill="#6B676A" d="M1465.8,-72.9L1412.6,-76.4L1395.1,-24.1Z" shape-rendering="crispEdges"/><path fill="#7B7079" d="M1317.2,-75.3L1412.6,-76.4L1242.8,-112.3Z" shape-rendering="crispEdges"/><path fill="#819487" d="M1650.9,302.9L1629.4,208.7L1535.3,292.3Z" shape-rendering="crispEdges"/><path fill="#666465" d="M1492.5,33.9L1483.9,-37.4L1395.1,-24.1Z" shape-rendering="crispEdges"/><path fill="#797B7B" d="M1587.6,105.6L1475.6,123.6L1564.6,205.3Z" shape-rendering="crispEdges"/><path fill="#7A907D" d="M790.8,1178.6L911.4,1150.8L830.1,1085.6Z" shape-rendering="crispEdges"/><path fill="#76987A" d="M1019.6,1193.8L1114.9,1098.4L1013.7,1078.1Z" shape-rendering="crispEdges"/><path fill="#5F9262" d="M1272.5,1129.2L1315.6,1054.7L1271.3,1018.2Z" shape-rendering="crispEdges"/><path fill="#91B394" d="M1731.4,502.1L1686.6,443.7L1635.1,476.6Z" shape-rendering="crispEdges"/><path fill="#798C81" d="M1650.9,302.9L1689.8,283L1629.4,208.7Z" shape-rendering="crispEdges"/><path fill="#737776" d="M1620.4,142.5L1587.6,105.6L1564.6,205.3Z" shape-rendering="crispEdges"/><path fill="#74877B" d="M610.3,1024.4L682.4,1093.5L664.9,1002.2Z" shape-rendering="crispEdges"/><path fill="#788C7B" d="M742,1097.4L790.8,1178.6L830.1,1085.6Z" shape-rendering="crispEdges"/><path fill="#919D95" d="M388,823.9L419.5,869.7L437.9,782.9Z" shape-rendering="crispEdges"/><path fill="#6C7B73" d="M564.7,1128.1L639.3,1152.7L682.4,1093.5Z" shape-rendering="crispEdges"/><path fill="#9DA3A1" d="M370.7,736.8L388,823.9L437.9,782.9Z" shape-rendering="crispEdges"/><path fill="#90AD93" d="M1686.6,443.7L1687.1,370.9L1614.7,438.3Z" shape-rendering="crispEdges"/><path fill="#7C4F87" d="M572.6,-43.9L501.8,-39.3L537.4,52.7Z" shape-rendering="crispEdges"/><path fill="#83578C" d="M561.1,-94.8L572.6,-43.9L676.7,-78.4Z" shape-rendering="crispEdges"/><path fill="#60605F" d="M1465.8,-72.9L1483.9,-37.4L1538.6,-112.7Z" shape-rendering="crispEdges"/><path fill="#5E5F5D" d="M1546.2,-37.2L1483.9,-37.4L1492.5,33.9Z" shape-rendering="crispEdges"/><path fill="#709672" d="M1131.6,1168.7L1166.4,1090.2L1114.9,1098.4Z" shape-rendering="crispEdges"/><path fill="#58995E" d="M1315.6,1054.7L1410.5,1036.1L1407.8,955.6Z" shape-rendering="crispEdges"/><path fill="#895E90" d="M762.3,-122.8L561.1,-94.8L676.7,-78.4Z" shape-rendering="crispEdges"/><path fill="#B18ABC" d="M269.5,367L344.7,413.2L363.1,338.9Z" shape-rendering="crispEdges"/><path fill="#BE9CC6" d="M344.7,413.2L285.1,430.1L384,521.2Z" shape-rendering="crispEdges"/><path fill="#999C9C" d="M370.7,736.8L301.2,784.8L388,823.9Z" shape-rendering="crispEdges"/><path fill="#757F7A" d="M1629.4,208.7L1620.4,142.5L1564.6,205.3Z" shape-rendering="crispEdges"/><path fill="#5F605F" d="M1546.2,-37.2L1492.5,33.9L1545.8,56.5Z" shape-rendering="crispEdges"/><path fill="#6E7774" d="M1694.5,179.4L1620.4,142.5L1629.4,208.7Z" shape-rendering="crispEdges"/><path fill="#6AB26D" d="M1662.2,790.6L1641.4,744.4L1547.9,828.3Z" shape-rendering="crispEdges"/><path fill="#78BD79" d="M1547.9,828.3L1641.4,744.4L1538.5,718Z" shape-rendering="crispEdges"/><path fill="#8DBE8E" d="M1620.9,662.3L1702.3,634.5L1655,575.8Z" shape-rendering="crispEdges"/><path fill="#95BB98" d="M1655,575.8L1731.4,502.1L1635.1,476.6Z" shape-rendering="crispEdges"/><path fill="#819488" d="M419.5,869.7L482.3,957.8L507.4,869Z" shape-rendering="crispEdges"/><path fill="#538E58" d="M1385.9,1088L1410.5,1036.1L1315.6,1054.7Z" shape-rendering="crispEdges"/><path fill="#7B947F" d="M790.8,1178.6L952.5,1174.4L911.4,1150.8Z" shape-rendering="crispEdges"/><path fill="#7D9881" d="M911.4,1150.8L952.5,1174.4L964,1128.8Z" shape-rendering="crispEdges"/><path fill="#4D9A57" d="M1467.1,1007L1502.9,963.8L1407.8,955.6Z" shape-rendering="crispEdges"/><path fill="#7C4B89" d="M447.3,-9.9L409.1,48.1L537.4,52.7Z" shape-rendering="crispEdges"/><path fill="#8B559B" d="M409.7,101.8L334.3,122.3L369,184.8Z" shape-rendering="crispEdges"/><path fill="#A279B2" d="M258.4,256.7L363.1,338.9L381.6,270.1Z" shape-rendering="crispEdges"/><path fill="#7A997E" d="M1019.6,1193.8L1013.7,1078.1L964,1128.8Z" shape-rendering="crispEdges"/><path fill="#585A59" d="M1546.2,-37.2L1545.8,56.5L1636.3,28Z" shape-rendering="crispEdges"/><path fill="#686566" d="M1483.9,-37.4L1465.8,-72.9L1395.1,-24.1Z" shape-rendering="crispEdges"/><path fill="#706A6E" d="M1412.6,-76.4L1538.6,-112.7L1242.8,-112.3Z" shape-rendering="crispEdges"/><path fill="#679369" d="M1200.9,1191.9L1272.5,1129.2L1166.4,1090.2Z" shape-rendering="crispEdges"/><path fill="#568D5A" d="M1316.9,1089.7L1385.9,1088L1315.6,1054.7Z" shape-rendering="crispEdges"/><path fill="#458A4E" d="M1488.8,1077.3L1467.1,1007L1410.5,1036.1Z" shape-rendering="crispEdges"/><path fill="#509858" d="M1410.5,1036.1L1467.1,1007L1407.8,955.6Z" shape-rendering="crispEdges"/><path fill="#7E9685" d="M1759.4,372.6L1689.8,283L1687.1,370.9Z" shape-rendering="crispEdges"/><path fill="#7F9787" d="M1687.1,370.9L1689.8,283L1650.9,302.9Z" shape-rendering="crispEdges"/><path fill="#734480" d="M413.1,-94.7L447.3,-9.9L501.8,-39.3Z" shape-rendering="crispEdges"/><path fill="#784984" d="M501.8,-39.3L447.3,-9.9L537.4,52.7Z" shape-rendering="crispEdges"/><path fill="#53A75C" d="M1502.9,963.8L1586.5,879.7L1484.2,850.3Z" shape-rendering="crispEdges"/><path fill="#449A51" d="M1533.7,979.7L1586.5,879.7L1502.9,963.8Z" shape-rendering="crispEdges"/><path fill="#9669A7" d="M293.7,190.4L381.6,270.1L369,184.8Z" shape-rendering="crispEdges"/><path fill="#BE9CC5" d="M257.4,514.3L384,521.2L285.1,430.1Z" shape-rendering="crispEdges"/><path fill="#BDA8C2" d="M261.4,570.3L374.3,662.7L372.8,566.1Z" shape-rendering="crispEdges"/><path fill="#7B8B82" d="M367.1,880.9L440.8,959.3L419.5,869.7Z" shape-rendering="crispEdges"/><path fill="#788A7F" d="M419.5,869.7L440.8,959.3L482.3,957.8Z" shape-rendering="crispEdges"/><path fill="#7C9980" d="M952.5,1174.4L1019.6,1193.8L964,1128.8Z" shape-rendering="crispEdges"/><path fill="#7BB77D" d="M1732.3,707.5L1620.9,662.3L1641.4,744.4Z" shape-rendering="crispEdges"/><path fill="#81B782" d="M1732.3,707.5L1702.3,634.5L1620.9,662.3Z" shape-rendering="crispEdges"/><path fill="#86A28B" d="M1686.6,443.7L1759.4,372.6L1687.1,370.9Z" shape-rendering="crispEdges"/><path fill="#B890BE" d="M237.4,443.3L257.4,514.3L285.1,430.1Z" shape-rendering="crispEdges"/><path fill="#548B58" d="M1350.5,1158.8L1385.9,1088L1316.9,1089.7Z" shape-rendering="crispEdges"/><path fill="#C0A2C6" d="M257.4,514.3L261.4,570.3L372.8,566.1Z" shape-rendering="crispEdges"/><path fill="#85938A" d="M367.1,880.9L419.5,869.7L388,823.9Z" shape-rendering="crispEdges"/><path fill="#72867B" d="M482.3,957.8L518.5,1055L558.5,938.3Z" shape-rendering="crispEdges"/><path fill="#748578" d="M748.2,1192.3L742,1097.4L682.4,1093.5Z" shape-rendering="crispEdges"/><path fill="#76897A" d="M748.2,1192.3L790.8,1178.6L742,1097.4Z" shape-rendering="crispEdges"/><path fill="#7C957F" d="M952.5,1174.4L748.2,1192.3L1019.6,1193.8Z" shape-rendering="crispEdges"/><path fill="#91BA95" d="M1737.5,552L1731.4,502.1L1655,575.8Z" shape-rendering="crispEdges"/><path fill="#81418F" d="M308.5,121.9L334.3,122.3L300.3,74.2Z" shape-rendering="crispEdges"/><path fill="#824790" d="M333,54.3L334.3,122.3L409.7,101.8Z" shape-rendering="crispEdges"/><path fill="#5CAB63" d="M1586.5,879.7L1662.2,790.6L1547.9,828.3Z" shape-rendering="crispEdges"/><path fill="#3D8E4B" d="M1558,1002L1533.7,979.7L1467.1,1007Z" shape-rendering="crispEdges"/><path fill="#43944F" d="M1467.1,1007L1533.7,979.7L1502.9,963.8Z" shape-rendering="crispEdges"/><path fill="#4FA359" d="M1586.5,879.7L1621.5,901.6L1662.2,790.6Z" shape-rendering="crispEdges"/><path fill="#626263" d="M1636.3,28L1545.8,56.5L1587.6,105.6Z" shape-rendering="crispEdges"/><path fill="#666468" d="M1636.3,28L1587.6,105.6L1620.4,142.5Z" shape-rendering="crispEdges"/><path fill="#8D579C" d="M334.3,122.3L293.7,190.4L369,184.8Z" shape-rendering="crispEdges"/><path fill="#848E88" d="M295.6,850.6L367.1,880.9L388,823.9Z" shape-rendering="crispEdges"/><path fill="#84B487" d="M1757.1,659L1737.5,552L1702.3,634.5Z" shape-rendering="crispEdges"/><path fill="#8CBA8F" d="M1702.3,634.5L1737.5,552L1655,575.8Z" shape-rendering="crispEdges"/><path fill="#AB7CB4" d="M216.5,326.9L237.4,443.3L269.5,367Z" shape-rendering="crispEdges"/><path fill="#B288BA" d="M269.5,367L237.4,443.3L285.1,430.1Z" shape-rendering="crispEdges"/><path fill="#BB99C0" d="M257.4,514.3L224.5,567.3L261.4,570.3Z" shape-rendering="crispEdges"/><path fill="#6D7F76" d="M444.7,1015.9L482.3,957.8L440.8,959.3Z" shape-rendering="crispEdges"/><path fill="#6A7A73" d="M444.7,1015.9L518.5,1055L482.3,957.8Z" shape-rendering="crispEdges"/><path fill="#5A8E5D" d="M1272.5,1129.2L1350.5,1158.8L1316.9,1089.7Z" shape-rendering="crispEdges"/><path fill="#6D956F" d="M1131.6,1168.7L1200.9,1191.9L1166.4,1090.2Z" shape-rendering="crispEdges"/><path fill="#719774" d="M1019.6,1193.8L1200.9,1191.9L1131.6,1168.7Z" shape-rendering="crispEdges"/><path fill="#B5A0B9" d="M261.4,570.3L262.9,672.6L374.3,662.7Z" shape-rendering="crispEdges"/><path fill="#A19DA3" d="M307.4,717.4L301.2,784.8L370.7,736.8Z" shape-rendering="crispEdges"/><path fill="#B197B3" d="M215.6,668L262.9,672.6L261.4,570.3Z" shape-rendering="crispEdges"/><path fill="#697972" d="M1806,216.4L1694.5,179.4L1689.8,283Z" shape-rendering="crispEdges"/><path fill="#718179" d="M1689.8,283L1694.5,179.4L1629.4,208.7Z" shape-rendering="crispEdges"/><path fill="#84A088" d="M1759.4,372.6L1686.6,443.7L1807.9,431.6Z" shape-rendering="crispEdges"/><path fill="#B890BE" d="M237.4,443.3L232.2,501.1L257.4,514.3Z" shape-rendering="crispEdges"/><path fill="#A096A1" d="M229.4,702.4L301.2,784.8L307.4,717.4Z" shape-rendering="crispEdges"/><path fill="#9769A7" d="M293.7,190.4L258.4,256.7L381.6,270.1Z" shape-rendering="crispEdges"/><path fill="#83578C" d="M762.3,-122.8L493.2,-114.1L561.1,-94.8Z" shape-rendering="crispEdges"/><path fill="#7A4C85" d="M561.1,-94.8L493.2,-114.1L501.8,-39.3Z" shape-rendering="crispEdges"/><path fill="#7E478C" d="M333,54.3L409.7,101.8L409.1,48.1Z" shape-rendering="crispEdges"/><path fill="#874D96" d="M334.3,122.3L308.5,121.9L293.7,190.4Z" shape-rendering="crispEdges"/><path fill="#915B9F" d="M194.3,199.2L204.9,288.9L258.4,256.7Z" shape-rendering="crispEdges"/><path fill="#733D80" d="M333,54.3L409.1,48.1L359.3,-6.6Z" shape-rendering="crispEdges"/><path fill="#718176" d="M639.3,1152.7L748.2,1192.3L682.4,1093.5Z" shape-rendering="crispEdges"/><path fill="#798F7D" d="M790.8,1178.6L748.2,1192.3L952.5,1174.4Z" shape-rendering="crispEdges"/><path fill="#41974F" d="M1625.8,957.1L1621.5,901.6L1586.5,879.7Z" shape-rendering="crispEdges"/><path fill="#6B7972" d="M564.7,1128.1L682.4,1093.5L610.3,1024.4Z" shape-rendering="crispEdges"/><path fill="#B28CB5" d="M159.7,604.2L224.5,567.3L118.2,507.6Z" shape-rendering="crispEdges"/><path fill="#BB96C0" d="M232.2,501.1L224.5,567.3L257.4,514.3Z" shape-rendering="crispEdges"/><path fill="#8C898D" d="M211.9,783.9L295.6,850.6L301.2,784.8Z" shape-rendering="crispEdges"/><path fill="#89A98D" d="M1807.9,431.6L1686.6,443.7L1731.4,502.1Z" shape-rendering="crispEdges"/><path fill="#718079" d="M375.8,976.7L440.8,959.3L367.1,880.9Z" shape-rendering="crispEdges"/><path fill="#697972" d="M375.8,976.7L444.7,1015.9L440.8,959.3Z" shape-rendering="crispEdges"/><path fill="#687671" d="M518.5,1055L564.7,1128.1L610.3,1024.4Z" shape-rendering="crispEdges"/><path fill="#713F7E" d="M359.3,-6.6L409.1,48.1L447.3,-9.9Z" shape-rendering="crispEdges"/><path fill="#9966A7" d="M204.9,288.9L216.5,326.9L258.4,256.7Z" shape-rendering="crispEdges"/><path fill="#5C5C5F" d="M1704.9,51.1L1636.3,28L1620.4,142.5Z" shape-rendering="crispEdges"/><path fill="#6CAE70" d="M1722.1,778.6L1732.3,707.5L1641.4,744.4Z" shape-rendering="crispEdges"/><path fill="#8CB391" d="M1737.5,552L1781.9,554.6L1731.4,502.1Z" shape-rendering="crispEdges"/><path fill="#67AD6C" d="M1722.1,778.6L1641.4,744.4L1662.2,790.6Z" shape-rendering="crispEdges"/><path fill="#3C8748" d="M1488.8,1077.3L1558,1002L1467.1,1007Z" shape-rendering="crispEdges"/><path fill="#3F944D" d="M1533.7,979.7L1625.8,957.1L1586.5,879.7Z" shape-rendering="crispEdges"/><path fill="#47864E" d="M1488.8,1077.3L1410.5,1036.1L1385.9,1088Z" shape-rendering="crispEdges"/><path fill="#5B8E5F" d="M1284.5,1190.7L1350.5,1158.8L1272.5,1129.2Z" shape-rendering="crispEdges"/><path fill="#629165" d="M1200.9,1191.9L1284.5,1190.7L1272.5,1129.2Z" shape-rendering="crispEdges"/><path fill="#A071AD" d="M258.4,256.7L216.5,326.9L269.5,367Z" shape-rendering="crispEdges"/><path fill="#B78DBB" d="M118.2,507.6L224.5,567.3L232.2,501.1Z" shape-rendering="crispEdges"/><path fill="#844692" d="M194.3,199.2L293.7,190.4L195.9,115Z" shape-rendering="crispEdges"/><path fill="#636E6C" d="M492.9,1100.6L564.7,1128.1L518.5,1055Z" shape-rendering="crispEdges"/><path fill="#6F7F75" d="M639.3,1152.7L611.7,1181.8L748.2,1192.3Z" shape-rendering="crispEdges"/><path fill="#408049" d="M1485.8,1189.2L1488.8,1077.3L1385.9,1088Z" shape-rendering="crispEdges"/><path fill="#6E3D7B" d="M413.1,-94.7L359.3,-6.6L447.3,-9.9Z" shape-rendering="crispEdges"/><path fill="#7AB17D" d="M1732.3,707.5L1757.1,659L1702.3,634.5Z" shape-rendering="crispEdges"/><path fill="#71367E" d="M303.8,5.6L300.3,74.2L333,54.3Z" shape-rendering="crispEdges"/><path fill="#7C3F8A" d="M333,54.3L300.3,74.2L334.3,122.3Z" shape-rendering="crispEdges"/><path fill="#8C908F" d="M301.2,784.8L295.6,850.6L388,823.9Z" shape-rendering="crispEdges"/><path fill="#A796A8" d="M229.4,702.4L307.4,717.4L262.9,672.6Z" shape-rendering="crispEdges"/><path fill="#4C9E56" d="M1723,853.1L1662.2,790.6L1621.5,901.6Z" shape-rendering="crispEdges"/><path fill="#56A25E" d="M1723,853.1L1722.1,778.6L1662.2,790.6Z" shape-rendering="crispEdges"/><path fill="#71AA74" d="M1732.3,707.5L1784.6,723.5L1757.1,659Z" shape-rendering="crispEdges"/><path fill="#85B088" d="M1757.1,659L1781.9,554.6L1737.5,552Z" shape-rendering="crispEdges"/><path fill="#545754" d="M1656.6,-102.3L1538.6,-112.7L1546.2,-37.2Z" shape-rendering="crispEdges"/><path fill="#5C5D5B" d="M1546.2,-37.2L1538.6,-112.7L1483.9,-37.4Z" shape-rendering="crispEdges"/><path fill="#646263" d="M1465.8,-72.9L1538.6,-112.7L1412.6,-76.4Z" shape-rendering="crispEdges"/><path fill="#847382" d="M1242.8,-112.3L1719.1,-120.8L762.3,-122.8Z" shape-rendering="crispEdges"/><path fill="#A892A9" d="M215.6,668L229.4,702.4L262.9,672.6Z" shape-rendering="crispEdges"/><path fill="#6F7A75" d="M274.2,934.1L375.8,976.7L367.1,880.9Z" shape-rendering="crispEdges"/><path fill="#636F6C" d="M444.7,1015.9L492.9,1100.6L518.5,1055Z" shape-rendering="crispEdges"/><path fill="#B496B7" d="M224.5,567.3L215.6,668L261.4,570.3Z" shape-rendering="crispEdges"/><path fill="#B08FB2" d="M159.7,604.2L215.6,668L224.5,567.3Z" shape-rendering="crispEdges"/><path fill="#2F8341" d="M1616.1,1033.5L1625.8,957.1L1558,1002Z" shape-rendering="crispEdges"/><path fill="#368C47" d="M1558,1002L1625.8,957.1L1533.7,979.7Z" shape-rendering="crispEdges"/><path fill="#754681" d="M493.2,-114.1L413.1,-94.7L501.8,-39.3Z" shape-rendering="crispEdges"/><path fill="#6C3479" d="M359.3,-6.6L303.8,5.6L333,54.3Z" shape-rendering="crispEdges"/><path fill="#8D589D" d="M194.3,199.2L258.4,256.7L293.7,190.4Z" shape-rendering="crispEdges"/><path fill="#AE83B2" d="M118.2,507.6L232.2,501.1L112.4,444.4Z" shape-rendering="crispEdges"/><path fill="#5F6968" d="M491.6,1154.8L492.9,1100.6L463,1167.2Z" shape-rendering="crispEdges"/><path fill="#66726E" d="M491.6,1154.8L611.7,1181.8L564.7,1128.1Z" shape-rendering="crispEdges"/><path fill="#6A7872" d="M564.7,1128.1L611.7,1181.8L639.3,1152.7Z" shape-rendering="crispEdges"/><path fill="#75897C" d="M1835.8,334.4L1792.1,304.8L1759.4,372.6Z" shape-rendering="crispEdges"/><path fill="#778D7F" d="M1759.4,372.6L1792.1,304.8L1689.8,283Z" shape-rendering="crispEdges"/><path fill="#66696B" d="M1694.5,179.4L1729.7,115.5L1620.4,142.5Z" shape-rendering="crispEdges"/><path fill="#5F6264" d="M1759.5,123.1L1729.7,115.5L1694.5,179.4Z" shape-rendering="crispEdges"/><path fill="#505351" d="M1636.3,28L1649.7,-39.5L1546.2,-37.2Z" shape-rendering="crispEdges"/><path fill="#86A58A" d="M1809.4,485.5L1807.9,431.6L1731.4,502.1Z" shape-rendering="crispEdges"/><path fill="#89AC8D" d="M1781.9,554.6L1809.4,485.5L1731.4,502.1Z" shape-rendering="crispEdges"/><path fill="#87A98B" d="M1842.7,560.4L1809.4,485.5L1781.9,554.6Z" shape-rendering="crispEdges"/><path fill="#7FA783" d="M1842.7,560.4L1781.9,554.6L1832.2,655.5Z" shape-rendering="crispEdges"/><path fill="#605D63" d="M1729.7,115.5L1704.9,51.1L1620.4,142.5Z" shape-rendering="crispEdges"/><path fill="#652D72" d="M258.8,-113.8L303.8,5.6L359.3,-6.6Z" shape-rendering="crispEdges"/><path fill="#834491" d="M195.9,115L293.7,190.4L308.5,121.9Z" shape-rendering="crispEdges"/><path fill="#3A914A" d="M1691.1,944.6L1723,853.1L1621.5,901.6Z" shape-rendering="crispEdges"/><path fill="#68A86D" d="M1722.1,778.6L1784.6,723.5L1732.3,707.5Z" shape-rendering="crispEdges"/><path fill="#494C4B" d="M1708.7,-29.3L1649.7,-39.5L1636.3,28Z" shape-rendering="crispEdges"/><path fill="#5FA264" d="M1762.7,798.6L1784.6,723.5L1722.1,778.6Z" shape-rendering="crispEdges"/><path fill="#7C388A" d="M195.9,115L308.5,121.9L300.3,74.2Z" shape-rendering="crispEdges"/><path fill="#B284B7" d="M232.2,501.1L237.4,443.3L112.4,444.4Z" shape-rendering="crispEdges"/><path fill="#519C5A" d="M1723,853.1L1762.7,798.6L1722.1,778.6Z" shape-rendering="crispEdges"/><path fill="#504F54" d="M1729.7,115.5L1791,41.4L1704.9,51.1Z" shape-rendering="crispEdges"/><path fill="#4B4D4D" d="M1704.9,51.1L1708.7,-29.3L1636.3,28Z" shape-rendering="crispEdges"/><path fill="#606768" d="M1806,216.4L1759.5,123.1L1694.5,179.4Z" shape-rendering="crispEdges"/><path fill="#9F899F" d="M137.6,750.4L229.4,702.4L215.6,668Z" shape-rendering="crispEdges"/><path fill="#978696" d="M137.6,750.4L211.9,783.9L229.4,702.4Z" shape-rendering="crispEdges"/><path fill="#998E99" d="M229.4,702.4L211.9,783.9L301.2,784.8Z" shape-rendering="crispEdges"/><path fill="#636E6B" d="M274.2,934.1L338.8,1017.1L375.8,976.7Z" shape-rendering="crispEdges"/><path fill="#337C40" d="M1488.8,1077.3L1538.9,1105.9L1558,1002Z" shape-rendering="crispEdges"/><path fill="#368D47" d="M1625.8,957.1L1691.1,944.6L1621.5,901.6Z" shape-rendering="crispEdges"/><path fill="#41914E" d="M1723,853.1L1793.6,889.8L1762.7,798.6Z" shape-rendering="crispEdges"/><path fill="#367A41" d="M1485.8,1189.2L1538.9,1105.9L1488.8,1077.3Z" shape-rendering="crispEdges"/><path fill="#4E8854" d="M1411.4,1201.2L1385.9,1088L1350.5,1158.8Z" shape-rendering="crispEdges"/><path fill="#9761A3" d="M138.6,273.1L216.5,326.9L204.9,288.9Z" shape-rendering="crispEdges"/><path fill="#2D7A3D" d="M1538.9,1105.9L1616.1,1033.5L1558,1002Z" shape-rendering="crispEdges"/><path fill="#5B8E5F" d="M1200.9,1191.9L1411.4,1201.2L1284.5,1190.7Z" shape-rendering="crispEdges"/><path fill="#548C59" d="M1284.5,1190.7L1411.4,1201.2L1350.5,1158.8Z" shape-rendering="crispEdges"/><path fill="#67936A" d="M1019.6,1193.8L1411.4,1201.2L1200.9,1191.9Z" shape-rendering="crispEdges"/><path fill="#7D9880" d="M384.2,1197.7L1411.4,1201.2L1019.6,1193.8Z" shape-rendering="crispEdges"/><path fill="#267F3D" d="M1701.1,1018.8L1691.1,944.6L1625.8,957.1Z" shape-rendering="crispEdges"/><path fill="#5E6767" d="M426.5,1105.6L492.9,1100.6L444.7,1015.9Z" shape-rendering="crispEdges"/><path fill="#626D6B" d="M492.9,1100.6L491.6,1154.8L564.7,1128.1Z" shape-rendering="crispEdges"/><path fill="#5D6767" d="M426.5,1105.6L444.7,1015.9L338.8,1017.1Z" shape-rendering="crispEdges"/><path fill="#6C3A79" d="M413.1,-94.7L374.1,-121.6L359.3,-6.6Z" shape-rendering="crispEdges"/><path fill="#722C7F" d="M182.9,55.8L195.9,115L300.3,74.2Z" shape-rendering="crispEdges"/><path fill="#70407D" d="M493.2,-114.1L374.1,-121.6L413.1,-94.7Z" shape-rendering="crispEdges"/><path fill="#7D4F88" d="M762.3,-122.8L374.1,-121.6L493.2,-114.1Z" shape-rendering="crispEdges"/><path fill="#606C6A" d="M1835.1,203.9L1806,216.4L1857.3,272.2Z" shape-rendering="crispEdges"/><path fill="#6D7E76" d="M1792.1,304.8L1806,216.4L1689.8,283Z" shape-rendering="crispEdges"/><path fill="#7A9180" d="M1835.8,334.4L1759.4,372.6L1807.9,431.6Z" shape-rendering="crispEdges"/><path fill="#63706C" d="M338.8,1017.1L444.7,1015.9L375.8,976.7Z" shape-rendering="crispEdges"/><path fill="#777F7C" d="M274.2,934.1L367.1,880.9L295.6,850.6Z" shape-rendering="crispEdges"/><path fill="#7B9180" d="M1867.9,450.3L1835.8,334.4L1807.9,431.6Z" shape-rendering="crispEdges"/><path fill="#819B85" d="M1867.9,450.3L1807.9,431.6L1809.4,485.5Z" shape-rendering="crispEdges"/><path fill="#757878" d="M214.5,868.2L274.2,934.1L295.6,850.6Z" shape-rendering="crispEdges"/><path fill="#72A675" d="M1832.2,655.5L1757.1,659L1784.6,723.5Z" shape-rendering="crispEdges"/><path fill="#7DAA80" d="M1832.2,655.5L1781.9,554.6L1757.1,659Z" shape-rendering="crispEdges"/><path fill="#699E6C" d="M1879.7,730.8L1832.2,655.5L1784.6,723.5Z" shape-rendering="crispEdges"/><path fill="#6C2D79" d="M182.9,55.8L300.3,74.2L303.8,5.6Z" shape-rendering="crispEdges"/><path fill="#8B5399" d="M194.3,199.2L150.9,227.5L204.9,288.9Z" shape-rendering="crispEdges"/><path fill="#555259" d="M1791,41.4L1729.7,115.5L1759.5,123.1Z" shape-rendering="crispEdges"/><path fill="#414444" d="M1773.1,-26.5L1708.7,-29.3L1704.9,51.1Z" shape-rendering="crispEdges"/><path fill="#4F5250" d="M1649.7,-39.5L1656.6,-102.3L1546.2,-37.2Z" shape-rendering="crispEdges"/><path fill="#7D3F8B" d="M126.9,114L150.9,227.5L194.3,199.2Z" shape-rendering="crispEdges"/><path fill="#8D579A" d="M150.9,227.5L138.6,273.1L204.9,288.9Z" shape-rendering="crispEdges"/><path fill="#A673AF" d="M121.5,361.6L237.4,443.3L216.5,326.9Z" shape-rendering="crispEdges"/><path fill="#7A7479" d="M124,878.8L214.5,868.2L211.9,783.9Z" shape-rendering="crispEdges"/><path fill="#484B4A" d="M1708.7,-29.3L1656.6,-102.3L1649.7,-39.5Z" shape-rendering="crispEdges"/><path fill="#A88BA9" d="M127.7,651.8L215.6,668L159.7,604.2Z" shape-rendering="crispEdges"/><path fill="#817F82" d="M211.9,783.9L214.5,868.2L295.6,850.6Z" shape-rendering="crispEdges"/><path fill="#606667" d="M274.2,934.1L271,1001.1L338.8,1017.1Z" shape-rendering="crispEdges"/><path fill="#9764A3" d="M138.6,273.1L121.5,361.6L216.5,326.9Z" shape-rendering="crispEdges"/><path fill="#1C6C32" d="M1704.8,1090.6L1701.1,1018.8L1616.1,1033.5Z" shape-rendering="crispEdges"/><path fill="#267B3B" d="M1616.1,1033.5L1701.1,1018.8L1625.8,957.1Z" shape-rendering="crispEdges"/><path fill="#45834D" d="M1411.4,1201.2L1485.8,1189.2L1385.9,1088Z" shape-rendering="crispEdges"/><path fill="#83A287" d="M1880.2,503.3L1809.4,485.5L1842.7,560.4Z" shape-rendering="crispEdges"/><path fill="#809B84" d="M1880.2,503.3L1867.9,450.3L1809.4,485.5Z" shape-rendering="crispEdges"/><path fill="#677570" d="M1857.3,272.2L1806,216.4L1792.1,304.8Z" shape-rendering="crispEdges"/><path fill="#5A6163" d="M384.2,1197.7L463,1167.2L426.5,1105.6Z" shape-rendering="crispEdges"/><path fill="#5D6666" d="M426.5,1105.6L463,1167.2L492.9,1100.6Z" shape-rendering="crispEdges"/><path fill="#636E6B" d="M491.6,1154.8L463,1167.2L611.7,1181.8Z" shape-rendering="crispEdges"/><path fill="#565C60" d="M373.6,1121L426.5,1105.6L338.8,1017.1Z" shape-rendering="crispEdges"/><path fill="#A778AD" d="M121.5,361.6L112.4,444.4L237.4,443.3Z" shape-rendering="crispEdges"/><path fill="#A385A4" d="M65.9,604.1L127.7,651.8L159.7,604.2Z" shape-rendering="crispEdges"/><path fill="#A886AB" d="M65.9,604.1L159.7,604.2L118.2,507.6Z" shape-rendering="crispEdges"/><path fill="#6D7D75" d="M1857.3,272.2L1792.1,304.8L1835.8,334.4Z" shape-rendering="crispEdges"/><path fill="#5D6365" d="M1806,216.4L1835.1,203.9L1759.5,123.1Z" shape-rendering="crispEdges"/><path fill="#5F6868" d="M1923.8,226.1L1857.3,272.2L1941.3,286.2Z" shape-rendering="crispEdges"/><path fill="#7E9F82" d="M1925.1,604L1880.2,503.3L1842.7,560.4Z" shape-rendering="crispEdges"/><path fill="#677570" d="M1941.3,286.2L1857.3,272.2L1835.8,334.4Z" shape-rendering="crispEdges"/><path fill="#606265" d="M188.6,969L271,1001.1L274.2,934.1Z" shape-rendering="crispEdges"/><path fill="#9E869D" d="M127.7,651.8L137.6,750.4L215.6,668Z" shape-rendering="crispEdges"/><path fill="#69696C" d="M214.5,868.2L188.6,969L274.2,934.1Z" shape-rendering="crispEdges"/><path fill="#256F36" d="M1633.9,1129.1L1616.1,1033.5L1538.9,1105.9Z" shape-rendering="crispEdges"/><path fill="#338A45" d="M1691.1,944.6L1793.6,889.8L1723,853.1Z" shape-rendering="crispEdges"/><path fill="#5D9861" d="M1877,789.3L1879.7,730.8L1784.6,723.5Z" shape-rendering="crispEdges"/><path fill="#54555C" d="M281,1086.6L373.6,1121L338.8,1017.1Z" shape-rendering="crispEdges"/><path fill="#4E4A52" d="M1855.4,77.7L1791,41.4L1759.5,123.1Z" shape-rendering="crispEdges"/><path fill="#454848" d="M1708.7,-29.3L1719.1,-120.8L1656.6,-102.3Z" shape-rendering="crispEdges"/><path fill="#504A55" d="M1855.4,77.7L1759.5,123.1L1874,105.6Z" shape-rendering="crispEdges"/><path fill="#906099" d="M62.4,374.8L121.5,361.6L65.2,292.5Z" shape-rendering="crispEdges"/><path fill="#793486" d="M195.9,115L126.9,114L194.3,199.2Z" shape-rendering="crispEdges"/><path fill="#62216E" d="M210.6,-18.8L182.9,55.8L303.8,5.6Z" shape-rendering="crispEdges"/><path fill="#277E3D" d="M1765,965.9L1793.6,889.8L1691.1,944.6Z" shape-rendering="crispEdges"/><path fill="#79A07C" d="M1832.2,655.5L1925.1,604L1842.7,560.4Z" shape-rendering="crispEdges"/><path fill="#31783E" d="M1485.8,1189.2L1560.6,1177.2L1538.9,1105.9Z" shape-rendering="crispEdges"/><path fill="#1F6A32" d="M1634.6,1175.7L1560.6,1177.2L1699.8,1194.9Z" shape-rendering="crispEdges"/><path fill="#9D70A2" d="M62.4,374.8L74.3,441.8L112.4,444.4Z" shape-rendering="crispEdges"/><path fill="#A47AA9" d="M112.4,444.4L74.3,441.8L118.2,507.6Z" shape-rendering="crispEdges"/><path fill="#837781" d="M49.1,777L109.1,787L137.6,750.4Z" shape-rendering="crispEdges"/><path fill="#9A6CA2" d="M62.4,374.8L112.4,444.4L121.5,361.6Z" shape-rendering="crispEdges"/><path fill="#804D8D" d="M65.2,292.5L138.6,273.1L58.2,204.2Z" shape-rendering="crispEdges"/><path fill="#5F216C" d="M223.4,-93.1L210.6,-18.8L303.8,5.6Z" shape-rendering="crispEdges"/><path fill="#1C7837" d="M1701.1,1018.8L1765,965.9L1691.1,944.6Z" shape-rendering="crispEdges"/><path fill="#166F32" d="M1782.8,1002.1L1765,965.9L1701.1,1018.8Z" shape-rendering="crispEdges"/><path fill="#3B3B3E" d="M1843.7,-45.8L1773.1,-26.5L1791,41.4Z" shape-rendering="crispEdges"/><path fill="#444547" d="M1791,41.4L1773.1,-26.5L1704.9,51.1Z" shape-rendering="crispEdges"/><path fill="#287138" d="M1560.6,1177.2L1633.9,1129.1L1538.9,1105.9Z" shape-rendering="crispEdges"/><path fill="#458E4F" d="M1877,789.3L1762.7,798.6L1793.6,889.8Z" shape-rendering="crispEdges"/><path fill="#599A5F" d="M1877,789.3L1784.6,723.5L1762.7,798.6Z" shape-rendering="crispEdges"/><path fill="#611A6D" d="M210.6,-18.8L156.2,55.3L182.9,55.8Z" shape-rendering="crispEdges"/><path fill="#6C2278" d="M182.9,55.8L156.2,55.3L195.9,115Z" shape-rendering="crispEdges"/><path fill="#6E247B" d="M156.2,55.3L126.9,114L195.9,115Z" shape-rendering="crispEdges"/><path fill="#8D5C99" d="M65.2,292.5L121.5,361.6L138.6,273.1Z" shape-rendering="crispEdges"/><path fill="#673174" d="M374.1,-121.6L258.8,-113.8L359.3,-6.6Z" shape-rendering="crispEdges"/><path fill="#591464" d="M210.6,-18.8L115.4,-6.3L156.2,55.3Z" shape-rendering="crispEdges"/><path fill="#404444" d="M1773.1,-26.5L1719.1,-120.8L1708.7,-29.3Z" shape-rendering="crispEdges"/><path fill="#4C4F4E" d="M1656.6,-102.3L1719.1,-120.8L1538.6,-112.7Z" shape-rendering="crispEdges"/><path fill="#5F605E" d="M1538.6,-112.7L1719.1,-120.8L1242.8,-112.3Z" shape-rendering="crispEdges"/><path fill="#A179A5" d="M33.7,489.3L118.2,507.6L74.3,441.8Z" shape-rendering="crispEdges"/><path fill="#A581A9" d="M33.7,489.3L65.9,604.1L118.2,507.6Z" shape-rendering="crispEdges"/><path fill="#937F91" d="M36.3,699.6L137.6,750.4L127.7,651.8Z" shape-rendering="crispEdges"/><path fill="#8A7D88" d="M137.6,750.4L109.1,787L211.9,783.9Z" shape-rendering="crispEdges"/><path fill="#804B8E" d="M58.2,204.2L138.6,273.1L150.9,227.5Z" shape-rendering="crispEdges"/><path fill="#368243" d="M1866.7,899.6L1877,789.3L1793.6,889.8Z" shape-rendering="crispEdges"/><path fill="#54515A" d="M221,1046.2L281,1086.6L271,1001.1Z" shape-rendering="crispEdges"/><path fill="#585A5F" d="M271,1001.1L281,1086.6L338.8,1017.1Z" shape-rendering="crispEdges"/><path fill="#575E61" d="M373.6,1121L384.2,1197.7L426.5,1105.6Z" shape-rendering="crispEdges"/><path fill="#69976C" d="M1956.2,665.2L1832.2,655.5L1879.7,730.8Z" shape-rendering="crispEdges"/><path fill="#719973" d="M1956.2,665.2L1925.1,604L1832.2,655.5Z" shape-rendering="crispEdges"/><path fill="#697671" d="M1941.3,286.2L1835.8,334.4L1955.4,358Z" shape-rendering="crispEdges"/><path fill="#57565D" d="M1874,105.6L1759.5,123.1L1835.1,203.9Z" shape-rendering="crispEdges"/><path fill="#3E4041" d="M1773.1,-26.5L1799.6,-90.7L1719.1,-120.8Z" shape-rendering="crispEdges"/><path fill="#56585E" d="M1874,105.6L1835.1,203.9L1923.8,226.1Z" shape-rendering="crispEdges"/><path fill="#69666A" d="M124,878.8L188.6,969L214.5,868.2Z" shape-rendering="crispEdges"/><path fill="#17642E" d="M1699.8,1194.9L1704.8,1090.6L1633.9,1129.1Z" shape-rendering="crispEdges"/><path fill="#1C6730" d="M1633.9,1129.1L1704.8,1090.6L1616.1,1033.5Z" shape-rendering="crispEdges"/><path fill="#257538" d="M1850.8,970L1866.7,899.6L1793.6,889.8Z" shape-rendering="crispEdges"/><path fill="#61246D" d="M258.8,-113.8L223.4,-93.1L303.8,5.6Z" shape-rendering="crispEdges"/><path fill="#6B2A77" d="M35.8,109.8L58.2,204.2L126.9,114Z" shape-rendering="crispEdges"/><path fill="#54585D" d="M305.2,1174.1L384.2,1197.7L373.6,1121Z" shape-rendering="crispEdges"/><path fill="#5F6969" d="M463,1167.2L384.2,1197.7L611.7,1181.8Z" shape-rendering="crispEdges"/><path fill="#687570" d="M611.7,1181.8L384.2,1197.7L748.2,1192.3Z" shape-rendering="crispEdges"/><path fill="#738478" d="M748.2,1192.3L384.2,1197.7L1019.6,1193.8Z" shape-rendering="crispEdges"/><path fill="#5D6767" d="M1923.8,226.1L1835.1,203.9L1857.3,272.2Z" shape-rendering="crispEdges"/><path fill="#12682E" d="M1704.8,1090.6L1782.8,1002.1L1701.1,1018.8Z" shape-rendering="crispEdges"/><path fill="#9B739F" d="M8.3,477.8L33.7,489.3L74.3,441.8Z" shape-rendering="crispEdges"/><path fill="#6F6B6E" d="M65,853.5L124,878.8L109.1,787Z" shape-rendering="crispEdges"/><path fill="#956A9B" d="M11.9,404.5L74.3,441.8L62.4,374.8Z" shape-rendering="crispEdges"/><path fill="#236D35" d="M1560.6,1177.2L1634.6,1175.7L1633.9,1129.1Z" shape-rendering="crispEdges"/><path fill="#10642C" d="M1847.7,1018.3L1850.8,970L1782.8,1002.1Z" shape-rendering="crispEdges"/><path fill="#287138" d="M1699.8,1194.9L1560.6,1177.2L1485.8,1189.2Z" shape-rendering="crispEdges"/><path fill="#9A809A" d="M33.5,662.8L127.7,651.8L65.9,604.1Z" shape-rendering="crispEdges"/><path fill="#7D757C" d="M109.1,787L124,878.8L211.9,783.9Z" shape-rendering="crispEdges"/><path fill="#7B927E" d="M1959.6,443.6L1867.9,450.3L1880.2,503.3Z" shape-rendering="crispEdges"/><path fill="#58565D" d="M188.6,969L221,1046.2L271,1001.1Z" shape-rendering="crispEdges"/><path fill="#52525A" d="M281,1086.6L305.2,1174.1L373.6,1121Z" shape-rendering="crispEdges"/><path fill="#4E4552" d="M215.9,1083.8L221,1046.2L153.8,1044.4Z" shape-rendering="crispEdges"/><path fill="#7B997E" d="M2015.1,564.6L1955.7,508.9L1925.1,604Z" shape-rendering="crispEdges"/><path fill="#7D9A81" d="M1925.1,604L1955.7,508.9L1880.2,503.3Z" shape-rendering="crispEdges"/><path fill="#738579" d="M1955.4,358L1835.8,334.4L1867.9,450.3Z" shape-rendering="crispEdges"/><path fill="#7A927E" d="M1955.7,508.9L1959.6,443.6L1880.2,503.3Z" shape-rendering="crispEdges"/><path fill="#621B6E" d="M44.7,61.3L126.9,114L156.2,55.3Z" shape-rendering="crispEdges"/><path fill="#773B84" d="M126.9,114L58.2,204.2L150.9,227.5Z" shape-rendering="crispEdges"/><path fill="#8E6295" d="M7.3,364.9L11.9,404.5L62.4,374.8Z" shape-rendering="crispEdges"/><path fill="#758779" d="M1959.6,443.6L1955.4,358L1867.9,450.3Z" shape-rendering="crispEdges"/><path fill="#548E59" d="M1919.6,778.6L1879.7,730.8L1877,789.3Z" shape-rendering="crispEdges"/><path fill="#598F5D" d="M1919.6,778.6L1930.5,720.5L1879.7,730.8Z" shape-rendering="crispEdges"/><path fill="#207537" d="M1850.8,970L1793.6,889.8L1765,965.9Z" shape-rendering="crispEdges"/><path fill="#967C97" d="M8.5,595.1L33.5,662.8L65.9,604.1Z" shape-rendering="crispEdges"/><path fill="#408149" d="M1914.8,900.3L1919.6,778.6L1877,789.3Z" shape-rendering="crispEdges"/><path fill="#353239" d="M1843.7,-45.8L1855.4,77.7L1923.6,-28.5Z" shape-rendering="crispEdges"/><path fill="#3E3C42" d="M1843.7,-45.8L1791,41.4L1855.4,77.7Z" shape-rendering="crispEdges"/><path fill="#3A3A3E" d="M1843.7,-45.8L1799.6,-90.7L1773.1,-26.5Z" shape-rendering="crispEdges"/><path fill="#8A5C94" d="M7.3,364.9L62.4,374.8L65.2,292.5Z" shape-rendering="crispEdges"/><path fill="#9D7DA0" d="M33.7,489.3L8.5,595.1L65.9,604.1Z" shape-rendering="crispEdges"/><path fill="#976E9C" d="M11.9,404.5L8.3,477.8L74.3,441.8Z" shape-rendering="crispEdges"/><path fill="#937D92" d="M33.5,662.8L36.3,699.6L127.7,651.8Z" shape-rendering="crispEdges"/><path fill="#8D788C" d="M0.6,645.6L36.3,699.6L33.5,662.8Z" shape-rendering="crispEdges"/><path fill="#67936A" d="M2007.9,640.3L1956.2,665.2L2005.7,734Z" shape-rendering="crispEdges"/><path fill="#619164" d="M1930.5,720.5L1956.2,665.2L1879.7,730.8Z" shape-rendering="crispEdges"/><path fill="#758779" d="M2037.1,452.7L1955.4,358L1959.6,443.6Z" shape-rendering="crispEdges"/><path fill="#4F4A55" d="M210.1,1170L305.2,1174.1L281,1086.6Z" shape-rendering="crispEdges"/><path fill="#81538C" d="M7.2,264.7L7.3,364.9L65.2,292.5Z" shape-rendering="crispEdges"/><path fill="#9A789D" d="M-81.6,526.2L8.5,595.1L8.3,477.8Z" shape-rendering="crispEdges"/><path fill="#927892" d="M0.6,645.6L8.5,595.1L-63.7,602.8Z" shape-rendering="crispEdges"/><path fill="#9B799F" d="M8.3,477.8L8.5,595.1L33.7,489.3Z" shape-rendering="crispEdges"/><path fill="#534D57" d="M153.8,1044.4L221,1046.2L188.6,969Z" shape-rendering="crispEdges"/><path fill="#4E4854" d="M221,1046.2L215.9,1083.8L281,1086.6Z" shape-rendering="crispEdges"/><path fill="#5B5A5E" d="M119.2,979.1L188.6,969L124,878.8Z" shape-rendering="crispEdges"/><path fill="#81747F" d="M4.6,724.1L49.1,777L36.3,699.6Z" shape-rendering="crispEdges"/><path fill="#867884" d="M36.3,699.6L49.1,777L137.6,750.4Z" shape-rendering="crispEdges"/><path fill="#4A424F" d="M1923.2,106.6L1855.4,77.7L1874,105.6Z" shape-rendering="crispEdges"/><path fill="#541060" d="M122.4,-94.3L115.4,-6.3L210.6,-18.8Z" shape-rendering="crispEdges"/><path fill="#794886" d="M58.2,204.2L7.2,264.7L65.2,292.5Z" shape-rendering="crispEdges"/><path fill="#156C31" d="M1782.8,1002.1L1850.8,970L1765,965.9Z" shape-rendering="crispEdges"/><path fill="#327C3F" d="M1866.7,899.6L1914.8,900.3L1877,789.3Z" shape-rendering="crispEdges"/><path fill="#0C5C28" d="M1765.2,1123.2L1782.8,1002.1L1704.8,1090.6Z" shape-rendering="crispEdges"/><path fill="#4F4B56" d="M1923.8,226.1L1923.2,106.6L1874,105.6Z" shape-rendering="crispEdges"/><path fill="#515059" d="M2011.8,181.6L1923.2,106.6L1923.8,226.1Z" shape-rendering="crispEdges"/><path fill="#5D6666" d="M1985.1,266.8L1923.8,226.1L1941.3,286.2Z" shape-rendering="crispEdges"/><path fill="#706B6E" d="M-0.5,784.1L65,853.5L49.1,777Z" shape-rendering="crispEdges"/><path fill="#756F74" d="M49.1,777L65,853.5L109.1,787Z" shape-rendering="crispEdges"/><path fill="#703E7D" d="M-6.3,198.4L7.2,264.7L58.2,204.2Z" shape-rendering="crispEdges"/><path fill="#967998" d="M-63.7,602.8L8.5,595.1L-81.6,526.2Z" shape-rendering="crispEdges"/><path fill="#927992" d="M8.5,595.1L0.6,645.6L33.5,662.8Z" shape-rendering="crispEdges"/><path fill="#957099" d="M8.3,477.8L-93.4,421.4L-81.6,526.2Z" shape-rendering="crispEdges"/><path fill="#57575A" d="M79.4,958.4L119.2,979.1L124,878.8Z" shape-rendering="crispEdges"/><path fill="#67746F" d="M2032.7,333.5L1985.1,266.8L1955.4,358Z" shape-rendering="crispEdges"/><path fill="#64706D" d="M1955.4,358L1985.1,266.8L1941.3,286.2Z" shape-rendering="crispEdges"/><path fill="#798F7D" d="M2037.1,452.7L1959.6,443.6L1955.7,508.9Z" shape-rendering="crispEdges"/><path fill="#0E5E29" d="M1699.8,1194.9L1765.2,1123.2L1704.8,1090.6Z" shape-rendering="crispEdges"/><path fill="#30773D" d="M1411.4,1201.2L1699.8,1194.9L1485.8,1189.2Z" shape-rendering="crispEdges"/><path fill="#1B6730" d="M1634.6,1175.7L1699.8,1194.9L1633.9,1129.1Z" shape-rendering="crispEdges"/><path fill="#524F56" d="M119.2,979.1L153.8,1044.4L188.6,969Z" shape-rendering="crispEdges"/><path fill="#4D4653" d="M215.9,1083.8L210.1,1170L281,1086.6Z" shape-rendering="crispEdges"/><path fill="#611A6D" d="M44.7,61.3L35.8,109.8L126.9,114Z" shape-rendering="crispEdges"/><path fill="#0A5926" d="M1845,1111.7L1847.7,1018.3L1782.8,1002.1Z" shape-rendering="crispEdges"/><path fill="#226E35" d="M1911.6,942.9L1914.8,900.3L1866.7,899.6Z" shape-rendering="crispEdges"/><path fill="#619164" d="M2005.7,734L1956.2,665.2L1930.5,720.5Z" shape-rendering="crispEdges"/><path fill="#887686" d="M0.6,645.6L4.6,724.1L36.3,699.6Z" shape-rendering="crispEdges"/><path fill="#5E5F5F" d="M65,853.5L79.4,958.4L124,878.8Z" shape-rendering="crispEdges"/><path fill="#1C6B32" d="M1911.6,942.9L1866.7,899.6L1850.8,970Z" shape-rendering="crispEdges"/><path fill="#709773" d="M2007.9,640.3L1925.1,604L1956.2,665.2Z" shape-rendering="crispEdges"/><path fill="#759878" d="M2007.9,640.3L2015.1,564.6L1925.1,604Z" shape-rendering="crispEdges"/><path fill="#571363" d="M115.4,-6.3L44.7,61.3L156.2,55.3Z" shape-rendering="crispEdges"/><path fill="#693176" d="M11.4,137.7L-6.3,198.4L58.2,204.2Z" shape-rendering="crispEdges"/><path fill="#588D5C" d="M2005.7,734L1930.5,720.5L1919.6,778.6Z" shape-rendering="crispEdges"/><path fill="#662973" d="M11.4,137.7L58.2,204.2L35.8,109.8Z" shape-rendering="crispEdges"/><path fill="#8C6292" d="M-93.4,421.4L11.9,404.5L7.3,364.9Z" shape-rendering="crispEdges"/><path fill="#5A1566" d="M-19.3,53L11.4,137.7L35.8,109.8Z" shape-rendering="crispEdges"/><path fill="#591565" d="M223.4,-93.1L122.4,-94.3L210.6,-18.8Z" shape-rendering="crispEdges"/><path fill="#490755" d="M115.4,-6.3L36.3,-49.8L44.7,61.3Z" shape-rendering="crispEdges"/><path fill="#5B1867" d="M258.8,-113.8L122.4,-94.3L223.4,-93.1Z" shape-rendering="crispEdges"/><path fill="#493F4E" d="M2016.8,141L1947.9,73.5L1923.2,106.6Z" shape-rendering="crispEdges"/><path fill="#453C4A" d="M1923.2,106.6L1947.9,73.5L1855.4,77.7Z" shape-rendering="crispEdges"/><path fill="#343138" d="M1923.6,-28.5L1871.7,-80.6L1843.7,-45.8Z" shape-rendering="crispEdges"/><path fill="#38363B" d="M1843.7,-45.8L1871.7,-80.6L1799.6,-90.7Z" shape-rendering="crispEdges"/><path fill="#39393D" d="M1799.6,-90.7L1934.4,-95.4L1719.1,-120.8Z" shape-rendering="crispEdges"/><path fill="#535555" d="M-11.9,937.9L79.4,958.4L65,853.5Z" shape-rendering="crispEdges"/><path fill="#413A46" d="M38.8,1053.7L139.7,1098.7L153.8,1044.4Z" shape-rendering="crispEdges"/><path fill="#0E602A" d="M1948.7,1000.3L1911.6,942.9L1850.8,970Z" shape-rendering="crispEdges"/><path fill="#508955" d="M1987.3,804.7L2005.7,734L1919.6,778.6Z" shape-rendering="crispEdges"/><path fill="#0C5D28" d="M1948.7,1000.3L1850.8,970L1847.7,1018.3Z" shape-rendering="crispEdges"/><path fill="#7A7078" d="M-82.1,734.7L-0.5,784.1L4.6,724.1Z" shape-rendering="crispEdges"/><path fill="#7A7077" d="M4.6,724.1L-0.5,784.1L49.1,777Z" shape-rendering="crispEdges"/><path fill="#837382" d="M-82.1,734.7L4.6,724.1L0.6,645.6Z" shape-rendering="crispEdges"/><path fill="#78997C" d="M2007.9,640.3L2032.7,527.7L2015.1,564.6Z" shape-rendering="crispEdges"/><path fill="#7D9981" d="M2015.1,564.6L2032.7,527.7L1955.7,508.9Z" shape-rendering="crispEdges"/><path fill="#7B937F" d="M2032.7,527.7L2037.1,452.7L1955.7,508.9Z" shape-rendering="crispEdges"/><path fill="#585E61" d="M1985.1,266.8L2011.8,181.6L1923.8,226.1Z" shape-rendering="crispEdges"/><path fill="#3D7E46" d="M1987.3,804.7L1919.6,778.6L1914.8,900.3Z" shape-rendering="crispEdges"/><path fill="#709773" d="M2007.9,640.3L2005.7,734L2032.7,527.7Z" shape-rendering="crispEdges"/><path fill="#708076" d="M2037.1,452.7L2032.7,333.5L1955.4,358Z" shape-rendering="crispEdges"/><path fill="#473E4C" d="M139.7,1098.7L215.9,1083.8L153.8,1044.4Z" shape-rendering="crispEdges"/><path fill="#493F4E" d="M139.7,1098.7L210.1,1170L215.9,1083.8Z" shape-rendering="crispEdges"/><path fill="#514F58" d="M305.2,1174.1L210.1,1170L384.2,1197.7Z" shape-rendering="crispEdges"/><path fill="#32793F" d="M2012.4,861.8L1987.3,804.7L1914.8,900.3Z" shape-rendering="crispEdges"/><path fill="#322D36" d="M1992.7,-26.4L1923.6,-28.5L1947.9,73.5Z" shape-rendering="crispEdges"/><path fill="#3B343F" d="M1947.9,73.5L1923.6,-28.5L1855.4,77.7Z" shape-rendering="crispEdges"/><path fill="#5D6667" d="M2032.7,333.5L2011.8,181.6L1985.1,266.8Z" shape-rendering="crispEdges"/><path fill="#3F3744" d="M133.9,1161.9L139.7,1098.7L70,1122.8Z" shape-rendering="crispEdges"/><path fill="#47434B" d="M38.8,1053.7L153.8,1044.4L119.2,979.1Z" shape-rendering="crispEdges"/><path fill="#926A97" d="M8.3,477.8L11.9,404.5L-93.4,421.4Z" shape-rendering="crispEdges"/><path fill="#0A5A27" d="M1699.8,1194.9L1797,1169L1765.2,1123.2Z" shape-rendering="crispEdges"/><path fill="#075424" d="M1765.2,1123.2L1845,1111.7L1782.8,1002.1Z" shape-rendering="crispEdges"/><path fill="#246D35" d="M2013.4,948.5L2012.4,861.8L1914.8,900.3Z" shape-rendering="crispEdges"/><path fill="#075323" d="M1797,1169L1845,1111.7L1765.2,1123.2Z" shape-rendering="crispEdges"/><path fill="#80548A" d="M-85.4,342.3L7.3,364.9L7.2,264.7Z" shape-rendering="crispEdges"/><path fill="#575D61" d="M2032.7,333.5L2016.8,141L2011.8,181.6Z" shape-rendering="crispEdges"/><path fill="#4E4854" d="M2011.8,181.6L2016.8,141L1923.2,106.6Z" shape-rendering="crispEdges"/><path fill="#6F3E7C" d="M-84.4,225.7L7.2,264.7L-6.3,198.4Z" shape-rendering="crispEdges"/><path fill="#774983" d="M-84.4,225.7L-85.4,342.3L7.2,264.7Z" shape-rendering="crispEdges"/><path fill="#673174" d="M-84.4,225.7L-6.3,198.4L-102.3,135.1Z" shape-rendering="crispEdges"/><path fill="#4C0958" d="M122.4,-94.3L36.3,-49.8L115.4,-6.3Z" shape-rendering="crispEdges"/><path fill="#551161" d="M44.7,61.3L-19.3,53L35.8,109.8Z" shape-rendering="crispEdges"/><path fill="#895E90" d="M-85.4,342.3L-93.4,421.4L7.3,364.9Z" shape-rendering="crispEdges"/><path fill="#5F605E" d="M-103.9,869.1L-17.6,879.5L-0.5,784.1Z" shape-rendering="crispEdges"/><path fill="#636262" d="M-0.5,784.1L-17.6,879.5L65,853.5Z" shape-rendering="crispEdges"/><path fill="#907890" d="M-90.1,645.3L0.6,645.6L-63.7,602.8Z" shape-rendering="crispEdges"/><path fill="#490654" d="M-37.2,-5.9L-19.3,53L44.7,61.3Z" shape-rendering="crispEdges"/><path fill="#4A0756" d="M122.4,-94.3L71,-122.5L36.3,-49.8Z" shape-rendering="crispEdges"/><path fill="#42014D" d="M36.3,-49.8L-37.2,-5.9L44.7,61.3Z" shape-rendering="crispEdges"/><path fill="#551160" d="M258.8,-113.8L71,-122.5L122.4,-94.3Z" shape-rendering="crispEdges"/><path fill="#5E1F6B" d="M374.1,-121.6L71,-122.5L258.8,-113.8Z" shape-rendering="crispEdges"/><path fill="#6E3D7B" d="M762.3,-122.8L71,-122.5L374.1,-121.6Z" shape-rendering="crispEdges"/><path fill="#1C6730" d="M2013.4,948.5L1914.8,900.3L1911.6,942.9Z" shape-rendering="crispEdges"/><path fill="#46834E" d="M1987.3,804.7L2012.4,861.8L2005.7,734Z" shape-rendering="crispEdges"/><path fill="#619164" d="M2005.7,734L2012.4,861.8L2032.7,527.7Z" shape-rendering="crispEdges"/><path fill="#9A789D" d="M-93.4,421.4L-90.1,645.3L-81.6,526.2Z" shape-rendering="crispEdges"/><path fill="#947896" d="M-81.6,526.2L-90.1,645.3L-63.7,602.8Z" shape-rendering="crispEdges"/><path fill="#024A1E" d="M1935.8,1104.9L1847.7,1018.3L1845,1111.7Z" shape-rendering="crispEdges"/><path fill="#044E20" d="M1935.8,1104.9L1948.7,1000.3L1847.7,1018.3Z" shape-rendering="crispEdges"/><path fill="#312C35" d="M1992.7,-26.4L1934.4,-95.4L1923.6,-28.5Z" shape-rendering="crispEdges"/><path fill="#322D35" d="M1923.6,-28.5L1934.4,-95.4L1871.7,-80.6Z" shape-rendering="crispEdges"/><path fill="#353239" d="M1871.7,-80.6L1934.4,-95.4L1799.6,-90.7Z" shape-rendering="crispEdges"/><path fill="#473D4C" d="M2016.8,141L2018.4,72.6L1947.9,73.5Z" shape-rendering="crispEdges"/><path fill="#53535B" d="M2032.7,333.5L2018.4,72.6L2016.8,141Z" shape-rendering="crispEdges"/><path fill="#63286F" d="M-102.3,135.1L-6.3,198.4L11.4,137.7Z" shape-rendering="crispEdges"/><path fill="#82568C" d="M-85.4,342.3L-117.1,249.8L-93.4,421.4Z" shape-rendering="crispEdges"/><path fill="#48474B" d="M38.8,1053.7L119.2,979.1L79.4,958.4Z" shape-rendering="crispEdges"/><path fill="#463C4A" d="M139.7,1098.7L133.9,1161.9L210.1,1170Z" shape-rendering="crispEdges"/><path fill="#4A3F4F" d="M210.1,1170L-10.4,1202.6L384.2,1197.7Z" shape-rendering="crispEdges"/><path fill="#887587" d="M-90.1,645.3L-82.1,734.7L0.6,645.6Z" shape-rendering="crispEdges"/><path fill="#525553" d="M-103.9,869.1L-11.9,937.9L-17.6,879.5Z" shape-rendering="crispEdges"/><path fill="#555856" d="M-17.6,879.5L-11.9,937.9L65,853.5Z" shape-rendering="crispEdges"/><path fill="#3A333E" d="M2018.4,72.6L1992.7,-26.4L1947.9,73.5Z" shape-rendering="crispEdges"/><path fill="#444547" d="M-11.9,937.9L38.8,1053.7L79.4,958.4Z" shape-rendering="crispEdges"/><path fill="#085625" d="M1699.8,1194.9L1851.3,1190.1L1797,1169Z" shape-rendering="crispEdges"/><path fill="#055021" d="M1797,1169L1851.3,1190.1L1845,1111.7Z" shape-rendering="crispEdges"/><path fill="#764882" d="M-84.4,225.7L-117.1,249.8L-85.4,342.3Z" shape-rendering="crispEdges"/><path fill="#917892" d="M-93.4,421.4L-111.8,784.3L-90.1,645.3Z" shape-rendering="crispEdges"/><path fill="#6A3777" d="M-102.3,135.1L-117.1,249.8L-84.4,225.7Z" shape-rendering="crispEdges"/><path fill="#095725" d="M1998.6,1043.5L2013.4,948.5L1948.7,1000.3Z" shape-rendering="crispEdges"/><path fill="#105F2A" d="M1948.7,1000.3L2013.4,948.5L1911.6,942.9Z" shape-rendering="crispEdges"/><path fill="#4E8853" d="M2012.4,861.8L2013.4,948.5L2032.7,527.7Z" shape-rendering="crispEdges"/><path fill="#649267" d="M2032.7,527.7L2015.2,1096.9L2037.1,452.7Z" shape-rendering="crispEdges"/><path fill="#40004B" d="M-36.6,-102.9L-37.2,-5.9L36.3,-49.8Z" shape-rendering="crispEdges"/><path fill="#5B1666" d="M-19.3,53L-102.3,135.1L11.4,137.7Z" shape-rendering="crispEdges"/><path fill="#3B3440" d="M38.8,1053.7L70,1122.8L139.7,1098.7Z" shape-rendering="crispEdges"/><path fill="#024A1E" d="M1851.3,1190.1L1935.8,1104.9L1845,1111.7Z" shape-rendering="crispEdges"/><path fill="#530F5E" d="M-107,43L-102.3,135.1L-19.3,53Z" shape-rendering="crispEdges"/><path fill="#756D73" d="M-82.1,734.7L-111.8,784.3L-0.5,784.1Z" shape-rendering="crispEdges"/><path fill="#342E38" d="M-35.6,1110.2L70,1122.8L38.8,1053.7Z" shape-rendering="crispEdges"/><path fill="#342F38" d="M-35.6,1110.2L52.5,1153.2L70,1122.8Z" shape-rendering="crispEdges"/><path fill="#7F727E" d="M-90.1,645.3L-111.8,784.3L-82.1,734.7Z" shape-rendering="crispEdges"/><path fill="#96719A" d="M-117.1,249.8L-111.8,784.3L-93.4,421.4Z" shape-rendering="crispEdges"/><path fill="#00441B" d="M2015.2,1096.9L1998.6,1043.5L1935.8,1104.9Z" shape-rendering="crispEdges"/><path fill="#034B1F" d="M1935.8,1104.9L1998.6,1043.5L1948.7,1000.3Z" shape-rendering="crispEdges"/><path fill="#3B3B3E" d="M-39.7,1052L38.8,1053.7L-11.9,937.9Z" shape-rendering="crispEdges"/><path fill="#3C3440" d="M70,1122.8L52.5,1153.2L133.9,1161.9Z" shape-rendering="crispEdges"/><path fill="#3F3743" d="M133.9,1161.9L-10.4,1202.6L210.1,1170Z" shape-rendering="crispEdges"/><path fill="#686567" d="M-111.8,784.3L-103.9,869.1L-0.5,784.1Z" shape-rendering="crispEdges"/><path fill="#43024E" d="M71,-122.5L-36.6,-102.9L36.3,-49.8Z" shape-rendering="crispEdges"/><path fill="#470552" d="M-37.2,-5.9L-107,43L-19.3,53Z" shape-rendering="crispEdges"/><path fill="#40004B" d="M-83.2,-47.6L-107,43L-37.2,-5.9Z" shape-rendering="crispEdges"/><path fill="#60236C" d="M-102.3,135.1L-107,43L-117.1,249.8Z" shape-rendering="crispEdges"/><path fill="#3E4042" d="M-91,978.7L-39.7,1052L-11.9,937.9Z" shape-rendering="crispEdges"/><path fill="#473D4C" d="M2032.7,333.5L2027.8,-111.7L2018.4,72.6Z" shape-rendering="crispEdges"/><path fill="#312C35" d="M2018.4,72.6L2027.8,-111.7L1992.7,-26.4Z" shape-rendering="crispEdges"/><path fill="#312C35" d="M1992.7,-26.4L2027.8,-111.7L1934.4,-95.4Z" shape-rendering="crispEdges"/><path fill="#332F37" d="M1934.4,-95.4L2027.8,-111.7L1719.1,-120.8Z" shape-rendering="crispEdges"/><path fill="#585E61" d="M2037.1,452.7L2027.8,-111.7L2032.7,333.5Z" shape-rendering="crispEdges"/><path fill="#40004B" d="M-36.6,-102.9L-83.2,-47.6L-37.2,-5.9Z" shape-rendering="crispEdges"/><path fill="#4B4E4C" d="M-103.9,869.1L-91,978.7L-11.9,937.9Z" shape-rendering="crispEdges"/><path fill="#00451B" d="M1851.3,1190.1L1955.8,1181.2L1935.8,1104.9Z" shape-rendering="crispEdges"/><path fill="#00441B" d="M1983.1,1174.2L2015.2,1096.9L1935.8,1104.9Z" shape-rendering="crispEdges"/><path fill="#055021" d="M1998.6,1043.5L2015.2,1096.9L2013.4,948.5Z" shape-rendering="crispEdges"/><path fill="#31783E" d="M2013.4,948.5L2015.2,1096.9L2032.7,527.7Z" shape-rendering="crispEdges"/><path fill="#312C35" d="M-80.5,1095.7L-35.6,1110.2L-39.7,1052Z" shape-rendering="crispEdges"/><path fill="#322E36" d="M-39.7,1052L-35.6,1110.2L38.8,1053.7Z" shape-rendering="crispEdges"/><path fill="#40004B" d="M-36.6,-102.9L-101.9,-69.8L-83.2,-47.6Z" shape-rendering="crispEdges"/><path fill="#40004B" d="M-83.2,-47.6L-101.9,-69.8L-107,43Z" shape-rendering="crispEdges"/><path fill="#520E5E" d="M-107,43L-101.9,-69.8L-117.1,249.8Z" shape-rendering="crispEdges"/><path fill="#00441B" d="M1955.8,1181.2L1983.1,1174.2L1935.8,1104.9Z" shape-rendering="crispEdges"/><path fill="#454848" d="M-103.9,869.1L-117.5,1010.8L-91,978.7Z" shape-rendering="crispEdges"/><path fill="#3B3B3E" d="M-91,978.7L-117.5,1010.8L-39.7,1052Z" shape-rendering="crispEdges"/><path fill="#545754" d="M-111.8,784.3L-117.5,1010.8L-103.9,869.1Z" shape-rendering="crispEdges"/><path fill="#877586" d="M-117.1,249.8L-117.5,1010.8L-111.8,784.3Z" shape-rendering="crispEdges"/><path fill="#353239" d="M-117.5,1010.8L-80.5,1095.7L-39.7,1052Z" shape-rendering="crispEdges"/><path fill="#312C35" d="M-35.6,1110.2L-10.4,1202.6L52.5,1153.2Z" shape-rendering="crispEdges"/><path fill="#312C35" d="M-118,1166.2L-10.4,1202.6L-35.6,1110.2Z" shape-rendering="crispEdges"/><path fill="#38323C" d="M52.5,1153.2L-10.4,1202.6L133.9,1161.9Z" shape-rendering="crispEdges"/><path fill="#697771" d="M384.2,1197.7L-10.4,1202.6L1411.4,1201.2Z" shape-rendering="crispEdges"/><path fill="#312C35" d="M-117.5,1010.8L-118,1166.2L-80.5,1095.7Z" shape-rendering="crispEdges"/><path fill="#312C35" d="M-80.5,1095.7L-118,1166.2L-35.6,1110.2Z" shape-rendering="crispEdges"/><path fill="#696668" d="M-117.1,249.8L-118,1166.2L-117.5,1010.8Z" shape-rendering="crispEdges"/></svg>