<svg xmlns="http://www.w3.org/2000/svg" width="1920" height="1080"><path fill="#6DB4C0" d="M951.4,562.8L614.1,869.1L944.8,898.7Z" shape-rendering="crispEdges"/><path fill="#86CAC3" d="M951.4,562.8L603.2,512.2L614.1,869.1Z" shape-rendering="crispEdges"/><path fill="#5D879F" d="M605.3,1262.5L933.3,1256L944.8,898.7Z" shape-rendering="crispEdges"/><path fill="#4587AF" d="M933.3,1256L1307.5,915.4L944.8,898.7Z" shape-rendering="crispEdges"/><path fill="#51A8C6" d="M944.8,898.7L1307.5,915.4L951.4,562.8Z" shape-rendering="crispEdges"/><path fill="#86CCC2" d="M1334.9,535.3L943.4,200.6L951.4,562.8Z" shape-rendering="crispEdges"/><path fill="#9BD8BA" d="M951.4,562.8L943.4,200.6L603.2,512.2Z" shape-rendering="crispEdges"/><path fill="#B6E2BB" d="M943.4,200.6L616.7,193.2L603.2,512.2Z" shape-rendering="crispEdges"/><path fill="#7990A4" d="M236,1245.7L605.3,1262.5L614.1,869.1Z" shape-rendering="crispEdges"/><path fill="#6B95A7" d="M614.1,869.1L605.3,1262.5L944.8,898.7Z" shape-rendering="crispEdges"/><path fill="#4FB3D3" d="M1307.5,915.4L1334.9,535.3L951.4,562.8Z" shape-rendering="crispEdges"/><path fill="#BEE6C2" d="M250.7,198.7L255.6,516.4L603.2,512.2Z" shape-rendering="crispEdges"/><path fill="#9BD2CA" d="M603.2,512.2L255.6,516.4L614.1,869.1Z" shape-rendering="crispEdges"/><path fill="#94C4CC" d="M255.6,516.4L228.4,881.7L614.1,869.1Z" shape-rendering="crispEdges"/><path fill="#3478A9" d="M933.3,1256L1328.1,1258.1L1307.5,915.4Z" shape-rendering="crispEdges"/><path fill="#3C96C3" d="M1686.4,909.5L1685,553.5L1334.9,535.3Z" shape-rendering="crispEdges"/><path fill="#3378A9" d="M1315.5,1585.1L1328.1,1258.1L933.3,1256Z" shape-rendering="crispEdges"/><path fill="#C7E9C3" d="M616.7,193.2L250.7,198.7L603.2,512.2Z" shape-rendering="crispEdges"/><path fill="#A3CADB" d="M-118,529L-101.8,872.1L228.4,881.7Z" shape-rendering="crispEdges"/><path fill="#839FB6" d="M228.4,881.7L236,1245.7L614.1,869.1Z" shape-rendering="crispEdges"/><path fill="#92CCCA" d="M1334.9,535.3L1344.5,166.5L943.4,200.6Z" shape-rendering="crispEdges"/><path fill="#C9EACC" d="M943.4,200.6L606.3,-145.7L616.7,193.2Z" shape-rendering="crispEdges"/><path fill="#DAF0D4" d="M616.7,193.2L606.3,-145.7L250.7,198.7Z" shape-rendering="crispEdges"/><path fill="#85B7C0" d="M1673.1,209.9L1344.5,166.5L1334.9,535.3Z" shape-rendering="crispEdges"/><path fill="#C7E9D6" d="M936,-174.4L606.3,-145.7L943.4,200.6Z" shape-rendering="crispEdges"/><path fill="#688A9D" d="M579.2,1638.8L953.5,1616.9L605.3,1262.5Z" shape-rendering="crispEdges"/><path fill="#5C879F" d="M605.3,1262.5L953.5,1616.9L933.3,1256Z" shape-rendering="crispEdges"/><path fill="#8796B3" d="M228.4,881.7L-98.3,1228.5L236,1245.7Z" shape-rendering="crispEdges"/><path fill="#AAD8DB" d="M-118,529L228.4,881.7L255.6,516.4Z" shape-rendering="crispEdges"/><path fill="#2F8FC0" d="M1686.4,909.5L1334.9,535.3L1307.5,915.4Z" shape-rendering="crispEdges"/><path fill="#1E6DA8" d="M1328.1,1258.1L1686.4,909.5L1307.5,915.4Z" shape-rendering="crispEdges"/><path fill="#AFDCD9" d="M1344.5,166.5L936,-174.4L943.4,200.6Z" shape-rendering="crispEdges"/><path fill="#D6EFD2" d="M-97.7,210L255.6,516.4L250.7,198.7Z" shape-rendering="crispEdges"/><path fill="#CDECD2" d="M-97.7,210L-118,529L255.6,516.4Z" shape-rendering="crispEdges"/><path fill="#7E92A9" d="M236,1593.7L605.3,1262.5L236,1245.7Z" shape-rendering="crispEdges"/><path fill="#7A90A4" d="M236,1593.7L579.2,1638.8L605.3,1262.5Z" shape-rendering="crispEdges"/><path fill="#437DA6" d="M953.5,1616.9L1315.5,1585.1L933.3,1256Z" shape-rendering="crispEdges"/><path fill="#155C9B" d="M1328.1,1258.1L1665,1265.1L1686.4,909.5Z" shape-rendering="crispEdges"/><path fill="#6DA8B8" d="M1685,553.5L1673.1,209.9L1334.9,535.3Z" shape-rendering="crispEdges"/><path fill="#ABD6E1" d="M1344.5,166.5L1341.2,-199L936,-174.4Z" shape-rendering="crispEdges"/><path fill="#92A4C4" d="M-463.5,925.4L-98.3,1228.5L-101.8,872.1Z" shape-rendering="crispEdges"/><path fill="#92A6C6" d="M-101.8,872.1L-98.3,1228.5L228.4,881.7Z" shape-rendering="crispEdges"/><path fill="#1E659F" d="M1315.5,1585.1L1665,1265.1L1328.1,1258.1Z" shape-rendering="crispEdges"/><path fill="#8796B3" d="M-98.3,1228.5L236,1593.7L236,1245.7Z" shape-rendering="crispEdges"/><path fill="#EAF7E4" d="M253.5,-186.7L-97.7,210L250.7,198.7Z" shape-rendering="crispEdges"/><path fill="#E1F3DA" d="M589.2,-541.3L253.5,-186.7L606.3,-145.7Z" shape-rendering="crispEdges"/><path fill="#E6F5DF" d="M606.3,-145.7L253.5,-186.7L250.7,198.7Z" shape-rendering="crispEdges"/><path fill="#9EC1D7" d="M1675.2,-200.8L1341.2,-199L1344.5,166.5Z" shape-rendering="crispEdges"/><path fill="#D1EDD3" d="M936,-174.4L589.2,-541.3L606.3,-145.7Z" shape-rendering="crispEdges"/><path fill="#09488A" d="M2022.2,1259.9L2028.3,912.7L1686.4,909.5Z" shape-rendering="crispEdges"/><path fill="#3381B4" d="M1686.4,909.5L2033,568.1L1685,553.5Z" shape-rendering="crispEdges"/><path fill="#6493A9" d="M1685,553.5L2033,568.1L1673.1,209.9Z" shape-rendering="crispEdges"/><path fill="#2067A0" d="M2028.3,912.7L2033,568.1L1686.4,909.5Z" shape-rendering="crispEdges"/><path fill="#95B6CE" d="M1673.1,209.9L1675.2,-200.8L1344.5,166.5Z" shape-rendering="crispEdges"/><path fill="#094A8C" d="M1665,1265.1L2022.2,1259.9L1686.4,909.5Z" shape-rendering="crispEdges"/><path fill="#165C9B" d="M1315.5,1585.1L1690.6,1608.4L1665,1265.1Z" shape-rendering="crispEdges"/><path fill="#296EA4" d="M953.5,1616.9L1690.6,1608.4L1315.5,1585.1Z" shape-rendering="crispEdges"/><path fill="#155C9A" d="M2061.1,1636.8L1690.6,1608.4L953.5,1616.9Z" shape-rendering="crispEdges"/><path fill="#B4DEDE" d="M1341.2,-199L947.7,-531.7L936,-174.4Z" shape-rendering="crispEdges"/><path fill="#A1C6D9" d="M-497.5,551.3L-463.5,925.4L-101.8,872.1Z" shape-rendering="crispEdges"/><path fill="#8C98B8" d="M-98.3,1228.5L-112.3,1622.1L236,1593.7Z" shape-rendering="crispEdges"/><path fill="#AFD9E0" d="M-497.5,551.3L-101.8,872.1L-118,529Z" shape-rendering="crispEdges"/><path fill="#8D98B8" d="M-494.5,1250.6L-112.3,1622.1L-98.3,1228.5Z" shape-rendering="crispEdges"/><path fill="#8294AF" d="M236,1593.7L-112.3,1622.1L579.2,1638.8Z" shape-rendering="crispEdges"/><path fill="#91A3C3" d="M2051.6,-165.6L1675.2,-200.8L1673.1,209.9Z" shape-rendering="crispEdges"/><path fill="#ABD6E1" d="M1341.2,-199L1337.9,-553.3L947.7,-531.7Z" shape-rendering="crispEdges"/><path fill="#C7E9D6" d="M947.7,-531.7L589.2,-541.3L936,-174.4Z" shape-rendering="crispEdges"/><path fill="#F1FAEB" d="M215.8,-512.3L-107.1,-196.5L253.5,-186.7Z" shape-rendering="crispEdges"/><path fill="#F6FCEF" d="M253.5,-186.7L-107.1,-196.5L-97.7,210Z" shape-rendering="crispEdges"/><path fill="#CEECD3" d="M-493.6,179.8L-497.5,551.3L-118,529Z" shape-rendering="crispEdges"/><path fill="#DDF2D8" d="M-493.6,179.8L-118,529L-97.7,210Z" shape-rendering="crispEdges"/><path fill="#094A8C" d="M1690.6,1608.4L2022.2,1259.9L1665,1265.1Z" shape-rendering="crispEdges"/><path fill="#E7F6E0" d="M589.2,-541.3L215.8,-512.3L253.5,-186.7Z" shape-rendering="crispEdges"/><path fill="#61889E" d="M2400.6,569L2053.4,183.3L2033,568.1Z" shape-rendering="crispEdges"/><path fill="#738EA1" d="M2033,568.1L2053.4,183.3L1673.1,209.9Z" shape-rendering="crispEdges"/><path fill="#2067A0" d="M2367.9,906.4L2033,568.1L2028.3,912.7Z" shape-rendering="crispEdges"/><path fill="#98B4D1" d="M-497.5,551.3L-494.5,1250.6L-463.5,925.4Z" shape-rendering="crispEdges"/><path fill="#8D98B8" d="M-463.5,925.4L-494.5,1250.6L-98.3,1228.5Z" shape-rendering="crispEdges"/><path fill="#9FC2D7" d="M1652.4,-527.9L1337.9,-553.3L1341.2,-199Z" shape-rendering="crispEdges"/><path fill="#BCE4DA" d="M947.7,-531.7L1337.9,-553.3L589.2,-541.3Z" shape-rendering="crispEdges"/><path fill="#9BB9D3" d="M1652.4,-527.9L1341.2,-199L1675.2,-200.8Z" shape-rendering="crispEdges"/><path fill="#F2FAEB" d="M-107.1,-196.5L-493.6,179.8L-97.7,210Z" shape-rendering="crispEdges"/><path fill="#F7FCF0" d="M-483.2,-177.9L-493.6,179.8L-107.1,-196.5Z" shape-rendering="crispEdges"/><path fill="#92A5C5" d="M2024.8,-504.6L1652.4,-527.9L1675.2,-200.8Z" shape-rendering="crispEdges"/><path fill="#F7FCF0" d="M-497.5,-516.8L-130.8,-504.6L215.8,-512.3Z" shape-rendering="crispEdges"/><path fill="#F7FCF0" d="M215.8,-512.3L-130.8,-504.6L-107.1,-196.5Z" shape-rendering="crispEdges"/><path fill="#8796B3" d="M2053.4,183.3L2051.6,-165.6L1673.1,209.9Z" shape-rendering="crispEdges"/><path fill="#084081" d="M1690.6,1608.4L2061.1,1636.8L2022.2,1259.9Z" shape-rendering="crispEdges"/><path fill="#094889" d="M2022.2,1259.9L2367.9,906.4L2028.3,912.7Z" shape-rendering="crispEdges"/><path fill="#8D98B8" d="M2053.4,183.3L2409.9,-153.4L2051.6,-165.6Z" shape-rendering="crispEdges"/><path fill="#3377A9" d="M579.2,1638.8L2061.1,1636.8L953.5,1616.9Z" shape-rendering="crispEdges"/><path fill="#F7FCF0" d="M-130.8,-504.6L-483.2,-177.9L-107.1,-196.5Z" shape-rendering="crispEdges"/><path fill="#8D98B8" d="M-494.5,1250.6L-481.3,1641.2L-112.3,1622.1Z" shape-rendering="crispEdges"/><path fill="#8D98B8" d="M-112.3,1622.1L-481.3,1641.2L579.2,1638.8Z" shape-rendering="crispEdges"/><path fill="#688A9C" d="M579.2,1638.8L-481.3,1641.2L2061.1,1636.8Z" shape-rendering="crispEdges"/><path fill="#084081" d="M2407.1,1273L2367.9,906.4L2022.2,1259.9Z" shape-rendering="crispEdges"/><path fill="#3276A9" d="M2367.9,906.4L2400.6,569L2033,568.1Z" shape-rendering="crispEdges"/><path fill="#738EA1" d="M2400.6,569L2410.3,210L2053.4,183.3Z" shape-rendering="crispEdges"/><path fill="#084081" d="M2061.1,1636.8L2407.1,1273L2022.2,1259.9Z" shape-rendering="crispEdges"/><path fill="#0F5798" d="M2367.9,906.4L2407.1,1273L2400.6,569Z" shape-rendering="crispEdges"/><path fill="#3176A9" d="M2400.6,569L2407.1,1273L2410.3,210Z" shape-rendering="crispEdges"/><path fill="#8D98B8" d="M2051.6,-165.6L2024.8,-504.6L1675.2,-200.8Z" shape-rendering="crispEdges"/><path fill="#92A4C5" d="M1652.4,-527.9L2369.4,-512.3L1337.9,-553.3Z" shape-rendering="crispEdges"/><path fill="#8D98B8" d="M2369.4,-512.3L2024.8,-504.6L2051.6,-165.6Z" shape-rendering="crispEdges"/><path fill="#F7FCF0" d="M-130.8,-504.6L-497.5,-516.8L-483.2,-177.9Z" shape-rendering="crispEdges"/><path fill="#F7FCF0" d="M-483.2,-177.9L-497.5,-516.8L-493.6,179.8Z" shape-rendering="crispEdges"/><path fill="#F1FAEA" d="M-493.6,179.8L-497.5,-516.8L-497.5,551.3Z" shape-rendering="crispEdges"/><path fill="#F2FAEB" d="M589.2,-541.3L-497.5,-516.8L215.8,-512.3Z" shape-rendering="crispEdges"/><path fill="#8695B2" d="M2410.3,210L2409.9,-153.4L2053.4,183.3Z" shape-rendering="crispEdges"/><path fill="#084081" d="M2061.1,1636.8L2417.6,1635.6L2407.1,1273Z" shape-rendering="crispEdges"/><path fill="#094687" d="M2407.1,1273L2417.6,1635.6L2410.3,210Z" shape-rendering="crispEdges"/><path fill="#4A81A4" d="M2410.3,210L2417.6,1635.6L2409.9,-153.4Z" shape-rendering="crispEdges"/><path fill="#8D98B8" d="M2409.9,-153.4L2369.4,-512.3L2051.6,-165.6Z" shape-rendering="crispEdges"/><path fill="#8D98B8" d="M2024.8,-504.6L2369.4,-512.3L1652.4,-527.9Z" shape-rendering="crispEdges"/></svg>