<svg xmlns="http://www.w3.org/2000/svg" width="1920" height="1080"><path fill="#FD9628" d="M974.7,567.8L1023.9,564.3L962.3,497Z" shape-rendering="crispEdges"/><path fill="#FD992B" d="M1023.9,564.3L1033.6,487.8L962.3,497Z" shape-rendering="crispEdges"/><path fill="#FE9A2A" d="M962.3,497L904.2,553.1L974.7,567.8Z" shape-rendering="crispEdges"/><path fill="#FA9428" d="M1106.9,573.1L1087.7,477.6L1033.6,487.8Z" shape-rendering="crispEdges"/><path fill="#FDA333" d="M1033.6,487.8L980.9,404.1L962.3,497Z" shape-rendering="crispEdges"/><path fill="#FB9D30" d="M1087.7,477.6L1050.3,434L1033.6,487.8Z" shape-rendering="crispEdges"/><path fill="#F68820" d="M1050.8,662.8L1106.9,573.1L1023.9,564.3Z" shape-rendering="crispEdges"/><path fill="#FA9125" d="M1023.9,564.3L1106.9,573.1L1033.6,487.8Z" shape-rendering="crispEdges"/><path fill="#FCA435" d="M1050.3,434L980.9,404.1L1033.6,487.8Z" shape-rendering="crispEdges"/><path fill="#FEA131" d="M962.3,497L873.4,498.4L904.2,553.1Z" shape-rendering="crispEdges"/><path fill="#FB9226" d="M904.2,553.1L979.7,651.8L974.7,567.8Z" shape-rendering="crispEdges"/><path fill="#F98E23" d="M974.7,567.8L979.7,651.8L1023.9,564.3Z" shape-rendering="crispEdges"/><path fill="#FFA836" d="M903.2,435.5L873.4,498.4L962.3,497Z" shape-rendering="crispEdges"/><path fill="#FFA938" d="M980.9,404.1L903.2,435.5L962.3,497Z" shape-rendering="crispEdges"/><path fill="#F68720" d="M979.7,651.8L1050.8,662.8L1023.9,564.3Z" shape-rendering="crispEdges"/><path fill="#FCA93E" d="M1091.8,350.6L1035.9,371.9L1050.3,434Z" shape-rendering="crispEdges"/><path fill="#FDAA3A" d="M1050.3,434L1035.9,371.9L980.9,404.1Z" shape-rendering="crispEdges"/><path fill="#FFB240" d="M980.9,404.1L911.1,363.7L903.2,435.5Z" shape-rendering="crispEdges"/><path fill="#F3811D" d="M1050.8,662.8L1134.2,635.4L1106.9,573.1Z" shape-rendering="crispEdges"/><path fill="#F9982E" d="M1168.8,488.3L1133.8,418.9L1087.7,477.6Z" shape-rendering="crispEdges"/><path fill="#F89026" d="M1168.8,488.3L1087.7,477.6L1106.9,573.1Z" shape-rendering="crispEdges"/><path fill="#FA9E32" d="M1087.7,477.6L1133.8,418.9L1050.3,434Z" shape-rendering="crispEdges"/><path fill="#F78921" d="M1200.3,553L1168.8,488.3L1106.9,573.1Z" shape-rendering="crispEdges"/><path fill="#FFAD3B" d="M903.2,435.5L825.2,478.2L873.4,498.4Z" shape-rendering="crispEdges"/><path fill="#FB9C2F" d="M782.9,590.9L824.2,650.7L904.2,553.1Z" shape-rendering="crispEdges"/><path fill="#F99026" d="M904.2,553.1L867,678L979.7,651.8Z" shape-rendering="crispEdges"/><path fill="#FEB043" d="M1035.9,371.9L944.5,351.4L980.9,404.1Z" shape-rendering="crispEdges"/><path fill="#FFB340" d="M903.2,435.5L814.4,406.6L825.2,478.2Z" shape-rendering="crispEdges"/><path fill="#FFB446" d="M944.5,351.4L911.1,363.7L980.9,404.1Z" shape-rendering="crispEdges"/><path fill="#F07E1B" d="M957.4,749.4L1034.9,719L979.7,651.8Z" shape-rendering="crispEdges"/><path fill="#F37F1C" d="M979.7,651.8L1034.9,719L1050.8,662.8Z" shape-rendering="crispEdges"/><path fill="#F07919" d="M1050.8,662.8L1105.8,728.2L1134.2,635.4Z" shape-rendering="crispEdges"/><path fill="#F9952B" d="M824.2,650.7L867,678L904.2,553.1Z" shape-rendering="crispEdges"/><path fill="#FAA438" d="M1133.8,418.9L1091.8,350.6L1050.3,434Z" shape-rendering="crispEdges"/><path fill="#FFB34D" d="M1035.9,371.9L1013.6,292.6L944.5,351.4Z" shape-rendering="crispEdges"/><path fill="#F4821D" d="M1134.2,635.4L1200.3,553L1106.9,573.1Z" shape-rendering="crispEdges"/><path fill="#FEA231" d="M782.9,590.9L904.2,553.1L873.4,498.4Z" shape-rendering="crispEdges"/><path fill="#FFB946" d="M827.6,361.9L814.4,406.6L903.2,435.5Z" shape-rendering="crispEdges"/><path fill="#FFA837" d="M825.2,478.2L782.9,590.9L873.4,498.4Z" shape-rendering="crispEdges"/><path fill="#EE7517" d="M1198.3,702.3L1190.4,636.9L1134.2,635.4Z" shape-rendering="crispEdges"/><path fill="#F27C1A" d="M1134.2,635.4L1190.4,636.9L1200.3,553Z" shape-rendering="crispEdges"/><path fill="#FFAA38" d="M729.1,550.1L782.9,590.9L825.2,478.2Z" shape-rendering="crispEdges"/><path fill="#F08421" d="M867.1,744.2L957.4,749.4L867,678Z" shape-rendering="crispEdges"/><path fill="#F38520" d="M867,678L957.4,749.4L979.7,651.8Z" shape-rendering="crispEdges"/><path fill="#E97316" d="M1027.9,800.5L1105.8,728.2L1034.9,719Z" shape-rendering="crispEdges"/><path fill="#EE7818" d="M1034.9,719L1105.8,728.2L1050.8,662.8Z" shape-rendering="crispEdges"/><path fill="#FDAF4B" d="M1091.8,350.6L1013.6,292.6L1035.9,371.9Z" shape-rendering="crispEdges"/><path fill="#FFBF55" d="M862.3,293.4L827.6,361.9L911.1,363.7Z" shape-rendering="crispEdges"/><path fill="#FFB848" d="M911.1,363.7L827.6,361.9L903.2,435.5Z" shape-rendering="crispEdges"/><path fill="#F5902A" d="M1274.7,475.8L1211.4,430.5L1168.8,488.3Z" shape-rendering="crispEdges"/><path fill="#F7972E" d="M1168.8,488.3L1211.4,430.5L1133.8,418.9Z" shape-rendering="crispEdges"/><path fill="#F9A33C" d="M1133.8,418.9L1183.4,375.8L1091.8,350.6Z" shape-rendering="crispEdges"/><path fill="#FDB153" d="M1091.8,350.6L1137.1,260.9L1013.6,292.6Z" shape-rendering="crispEdges"/><path fill="#FFBC53" d="M862.3,293.4L911.1,363.7L944.5,351.4Z" shape-rendering="crispEdges"/><path fill="#F79C33" d="M1211.4,430.5L1183.4,375.8L1133.8,418.9Z" shape-rendering="crispEdges"/><path fill="#FEBA47" d="M727.6,444.9L749.7,475.3L814.4,406.6Z" shape-rendering="crispEdges"/><path fill="#FFB643" d="M814.4,406.6L749.7,475.3L825.2,478.2Z" shape-rendering="crispEdges"/><path fill="#F59029" d="M821.3,713.6L867,678L824.2,650.7Z" shape-rendering="crispEdges"/><path fill="#F28A26" d="M821.3,713.6L867.1,744.2L867,678Z" shape-rendering="crispEdges"/><path fill="#F6942D" d="M725.9,669.8L821.3,713.6L824.2,650.7Z" shape-rendering="crispEdges"/><path fill="#F17D1B" d="M1190.4,636.9L1251,568.1L1200.3,553Z" shape-rendering="crispEdges"/><path fill="#F58924" d="M1200.3,553L1274.7,475.8L1168.8,488.3Z" shape-rendering="crispEdges"/><path fill="#FFBC61" d="M1035.7,180.6L987.5,265.2L1013.6,292.6Z" shape-rendering="crispEdges"/><path fill="#FFB956" d="M1013.6,292.6L987.5,265.2L944.5,351.4Z" shape-rendering="crispEdges"/><path fill="#EC7316" d="M1105.8,728.2L1198.3,702.3L1134.2,635.4Z" shape-rendering="crispEdges"/><path fill="#EE7718" d="M1190.4,636.9L1248.2,649L1251,568.1Z" shape-rendering="crispEdges"/><path fill="#FFB13E" d="M749.7,475.3L729.1,550.1L825.2,478.2Z" shape-rendering="crispEdges"/><path fill="#F99B31" d="M782.9,590.9L725.9,669.8L824.2,650.7Z" shape-rendering="crispEdges"/><path fill="#FFBD59" d="M987.5,265.2L862.3,293.4L944.5,351.4Z" shape-rendering="crispEdges"/><path fill="#FEC14C" d="M729.9,364L727.6,444.9L814.4,406.6Z" shape-rendering="crispEdges"/><path fill="#E87617" d="M933.4,797.1L1027.9,800.5L957.4,749.4Z" shape-rendering="crispEdges"/><path fill="#EA7617" d="M957.4,749.4L1027.9,800.5L1034.9,719Z" shape-rendering="crispEdges"/><path fill="#E66B12" d="M1105.8,728.2L1162.1,789L1198.3,702.3Z" shape-rendering="crispEdges"/><path fill="#EB7F1E" d="M886.4,791.4L957.4,749.4L867.1,744.2Z" shape-rendering="crispEdges"/><path fill="#E97B1B" d="M886.4,791.4L933.4,797.1L957.4,749.4Z" shape-rendering="crispEdges"/><path fill="#EC7115" d="M1198.3,702.3L1248.2,649L1190.4,636.9Z" shape-rendering="crispEdges"/><path fill="#FFC151" d="M729.9,364L814.4,406.6L827.6,361.9Z" shape-rendering="crispEdges"/><path fill="#FFB542" d="M749.7,475.3L671.8,478.1L729.1,550.1Z" shape-rendering="crispEdges"/><path fill="#F08420" d="M1320.5,491.1L1274.7,475.8L1251,568.1Z" shape-rendering="crispEdges"/><path fill="#F3831E" d="M1251,568.1L1274.7,475.8L1200.3,553Z" shape-rendering="crispEdges"/><path fill="#F69C38" d="M1211.4,430.5L1273.4,343.4L1183.4,375.8Z" shape-rendering="crispEdges"/><path fill="#EB8222" d="M806.9,777.9L886.4,791.4L867.1,744.2Z" shape-rendering="crispEdges"/><path fill="#F3902A" d="M1274.7,475.8L1273.1,444.8L1211.4,430.5Z" shape-rendering="crispEdges"/><path fill="#FFC868" d="M900.6,193.7L832.1,285.3L862.3,293.4Z" shape-rendering="crispEdges"/><path fill="#FFC45D" d="M862.3,293.4L832.1,285.3L827.6,361.9Z" shape-rendering="crispEdges"/><path fill="#E56D13" d="M1027.9,800.5L1112.1,796.4L1105.8,728.2Z" shape-rendering="crispEdges"/><path fill="#E86C12" d="M1198.3,702.3L1285.1,700.1L1248.2,649Z" shape-rendering="crispEdges"/><path fill="#FAAA50" d="M1200.8,254.2L1137.1,260.9L1183.4,375.8Z" shape-rendering="crispEdges"/><path fill="#FAA94A" d="M1183.4,375.8L1137.1,260.9L1091.8,350.6Z" shape-rendering="crispEdges"/><path fill="#FBA537" d="M685.6,651.5L782.9,590.9L729.1,550.1Z" shape-rendering="crispEdges"/><path fill="#F9A035" d="M685.6,651.5L725.9,669.8L782.9,590.9Z" shape-rendering="crispEdges"/><path fill="#EE8825" d="M821.3,713.6L806.9,777.9L867.1,744.2Z" shape-rendering="crispEdges"/><path fill="#E36A11" d="M1112.1,796.4L1162.1,789L1105.8,728.2Z" shape-rendering="crispEdges"/><path fill="#FFC55B" d="M832.1,285.3L729.9,364L827.6,361.9Z" shape-rendering="crispEdges"/><path fill="#EE8C29" d="M728.1,737.1L806.9,777.9L821.3,713.6Z" shape-rendering="crispEdges"/><path fill="#F18E29" d="M1274.7,475.8L1311,428.9L1273.1,444.8Z" shape-rendering="crispEdges"/><path fill="#F39731" d="M1273.1,444.8L1273.4,343.4L1211.4,430.5Z" shape-rendering="crispEdges"/><path fill="#ED7B1A" d="M1344.1,603L1320.5,491.1L1251,568.1Z" shape-rendering="crispEdges"/><path fill="#FFBE4E" d="M632.6,452.3L671.8,478.1L727.6,444.9Z" shape-rendering="crispEdges"/><path fill="#FEBB47" d="M727.6,444.9L671.8,478.1L749.7,475.3Z" shape-rendering="crispEdges"/><path fill="#EF8A27" d="M1320.5,491.1L1311,428.9L1274.7,475.8Z" shape-rendering="crispEdges"/><path fill="#F19530" d="M1311,428.9L1273.4,343.4L1273.1,444.8Z" shape-rendering="crispEdges"/><path fill="#DD6C14" d="M953.7,868.7L1037.2,857.5L1027.9,800.5Z" shape-rendering="crispEdges"/><path fill="#E06A12" d="M1027.9,800.5L1037.2,857.5L1112.1,796.4Z" shape-rendering="crispEdges"/><path fill="#DA610D" d="M1112.1,796.4L1180.8,904.8L1162.1,789Z" shape-rendering="crispEdges"/><path fill="#E27116" d="M953.7,868.7L1027.9,800.5L933.4,797.1Z" shape-rendering="crispEdges"/><path fill="#DE7319" d="M953.7,868.7L933.4,797.1L899.5,875Z" shape-rendering="crispEdges"/><path fill="#FCAB3F" d="M636.9,551.9L685.6,651.5L729.1,550.1Z" shape-rendering="crispEdges"/><path fill="#F3932E" d="M725.9,669.8L728.1,737.1L821.3,713.6Z" shape-rendering="crispEdges"/><path fill="#E1630D" d="M1265.2,823.8L1285.1,700.1L1198.3,702.3Z" shape-rendering="crispEdges"/><path fill="#EB7517" d="M1248.2,649L1344.1,603L1251,568.1Z" shape-rendering="crispEdges"/><path fill="#F29632" d="M677.9,743.5L728.1,737.1L725.9,669.8Z" shape-rendering="crispEdges"/><path fill="#F8A64D" d="M1263.2,283.8L1200.8,254.2L1183.4,375.8Z" shape-rendering="crispEdges"/><path fill="#FFC068" d="M1035.7,180.6L951.3,186.1L987.5,265.2Z" shape-rendering="crispEdges"/><path fill="#E0791E" d="M899.5,875L886.4,791.4L815,857.9Z" shape-rendering="crispEdges"/><path fill="#E4771B" d="M899.5,875L933.4,797.1L886.4,791.4Z" shape-rendering="crispEdges"/><path fill="#FEB85F" d="M1035.7,180.6L1013.6,292.6L1137.1,260.9Z" shape-rendering="crispEdges"/><path fill="#FFC466" d="M987.5,265.2L900.6,193.7L862.3,293.4Z" shape-rendering="crispEdges"/><path fill="#FFCC65" d="M832.1,285.3L719.3,275.5L729.9,364Z" shape-rendering="crispEdges"/><path fill="#FFC469" d="M951.3,186.1L900.6,193.7L987.5,265.2Z" shape-rendering="crispEdges"/><path fill="#FEB763" d="M1119.8,189.2L1035.7,180.6L1137.1,260.9Z" shape-rendering="crispEdges"/><path fill="#E86F14" d="M1355.5,630.6L1344.1,603L1248.2,649Z" shape-rendering="crispEdges"/><path fill="#ED912E" d="M1405.7,436.3L1320.6,346.8L1311,428.9Z" shape-rendering="crispEdges"/><path fill="#FDB461" d="M1170.6,187L1119.8,189.2L1137.1,260.9Z" shape-rendering="crispEdges"/><path fill="#FFB445" d="M671.8,478.1L636.9,551.9L729.1,550.1Z" shape-rendering="crispEdges"/><path fill="#E67F21" d="M815,857.9L886.4,791.4L806.9,777.9Z" shape-rendering="crispEdges"/><path fill="#F6A044" d="M1273.4,343.4L1263.2,283.8L1183.4,375.8Z" shape-rendering="crispEdges"/><path fill="#FBB05D" d="M1200.8,254.2L1170.6,187L1137.1,260.9Z" shape-rendering="crispEdges"/><path fill="#F39E45" d="M1320.6,346.8L1263.2,283.8L1273.4,343.4Z" shape-rendering="crispEdges"/><path fill="#EB8B29" d="M728.1,737.1L759.8,800.4L806.9,777.9Z" shape-rendering="crispEdges"/><path fill="#ED8927" d="M1405.7,436.3L1311,428.9L1320.5,491.1Z" shape-rendering="crispEdges"/><path fill="#F19738" d="M1311,428.9L1320.6,346.8L1273.4,343.4Z" shape-rendering="crispEdges"/><path fill="#FEC350" d="M729.9,364L632.6,452.3L727.6,444.9Z" shape-rendering="crispEdges"/><path fill="#FFBA4E" d="M671.8,478.1L595.8,491.4L636.9,551.9Z" shape-rendering="crispEdges"/><path fill="#FFCA5C" d="M662.6,324.5L632.6,452.3L729.9,364Z" shape-rendering="crispEdges"/><path fill="#E76B12" d="M1285.1,700.1L1355.5,630.6L1248.2,649Z" shape-rendering="crispEdges"/><path fill="#EA8121" d="M1426.3,527.4L1405.7,436.3L1320.5,491.1Z" shape-rendering="crispEdges"/><path fill="#FFD070" d="M782.2,183.4L719.3,275.5L832.1,285.3Z" shape-rendering="crispEdges"/><path fill="#E68325" d="M759.8,800.4L815,857.9L806.9,777.9Z" shape-rendering="crispEdges"/><path fill="#DD5F0B" d="M1323.7,817.6L1329.4,705.7L1285.1,700.1Z" shape-rendering="crispEdges"/><path fill="#E3660F" d="M1285.1,700.1L1329.4,705.7L1355.5,630.6Z" shape-rendering="crispEdges"/><path fill="#E0630D" d="M1265.2,823.8L1198.3,702.3L1162.1,789Z" shape-rendering="crispEdges"/><path fill="#CE6212" d="M1032.2,980L1091.6,897.6L1037.2,857.5Z" shape-rendering="crispEdges"/><path fill="#D96510" d="M1037.2,857.5L1091.6,897.6L1112.1,796.4Z" shape-rendering="crispEdges"/><path fill="#D56A15" d="M948.4,942.7L1037.2,857.5L953.7,868.7Z" shape-rendering="crispEdges"/><path fill="#FAAE5D" d="M1245.8,219.4L1170.6,187L1200.8,254.2Z" shape-rendering="crispEdges"/><path fill="#FFBF6F" d="M1107.7,129.6L1051.4,121.8L1035.7,180.6Z" shape-rendering="crispEdges"/><path fill="#F59B36" d="M685.6,651.5L677.9,743.5L725.9,669.8Z" shape-rendering="crispEdges"/><path fill="#ED902D" d="M728.1,737.1L677.9,743.5L759.8,800.4Z" shape-rendering="crispEdges"/><path fill="#E08126" d="M759.8,800.4L757.1,877.6L815,857.9Z" shape-rendering="crispEdges"/><path fill="#F59D3D" d="M568.6,699.8L677.9,743.5L685.6,651.5Z" shape-rendering="crispEdges"/><path fill="#FFCF67" d="M719.3,275.5L662.6,324.5L729.9,364Z" shape-rendering="crispEdges"/><path fill="#F4A553" d="M1346.4,296.1L1245.8,219.4L1263.2,283.8Z" shape-rendering="crispEdges"/><path fill="#F7A957" d="M1263.2,283.8L1245.8,219.4L1200.8,254.2Z" shape-rendering="crispEdges"/><path fill="#D65B0B" d="M1180.8,904.8L1265.2,823.8L1162.1,789Z" shape-rendering="crispEdges"/><path fill="#FFC359" d="M559.5,451.6L595.8,491.4L632.6,452.3Z" shape-rendering="crispEdges"/><path fill="#FFBF52" d="M632.6,452.3L595.8,491.4L671.8,478.1Z" shape-rendering="crispEdges"/><path fill="#FBA943" d="M636.9,551.9L596.7,637L685.6,651.5Z" shape-rendering="crispEdges"/><path fill="#FFD27A" d="M787.3,132.3L782.2,183.4L900.6,193.7Z" shape-rendering="crispEdges"/><path fill="#FFCD70" d="M900.6,193.7L782.2,183.4L832.1,285.3Z" shape-rendering="crispEdges"/><path fill="#FFD371" d="M719.3,275.5L665.4,272.7L662.6,324.5Z" shape-rendering="crispEdges"/><path fill="#FFCA73" d="M895.8,120.9L900.6,193.7L951.3,186.1Z" shape-rendering="crispEdges"/><path fill="#FFBB6B" d="M1107.7,129.6L1035.7,180.6L1119.8,189.2Z" shape-rendering="crispEdges"/><path fill="#FFC470" d="M1035.7,180.6L960.2,117.6L951.3,186.1Z" shape-rendering="crispEdges"/><path fill="#FEB869" d="M1107.7,129.6L1119.8,189.2L1170.6,187Z" shape-rendering="crispEdges"/><path fill="#FFC372" d="M1051.4,121.8L960.2,117.6L1035.7,180.6Z" shape-rendering="crispEdges"/><path fill="#FFB64D" d="M595.8,491.4L588.2,583.2L636.9,551.9Z" shape-rendering="crispEdges"/><path fill="#FEB86B" d="M1177.3,122.2L1107.7,129.6L1170.6,187Z" shape-rendering="crispEdges"/><path fill="#FDAF4A" d="M588.2,583.2L596.7,637L636.9,551.9Z" shape-rendering="crispEdges"/><path fill="#FFD778" d="M716.3,187.9L665.4,272.7L719.3,275.5Z" shape-rendering="crispEdges"/><path fill="#FFCB60" d="M589.7,327.1L559.5,451.6L632.6,452.3Z" shape-rendering="crispEdges"/><path fill="#CF6D1A" d="M879.2,963.5L948.4,942.7L899.5,875Z" shape-rendering="crispEdges"/><path fill="#D56E18" d="M899.5,875L948.4,942.7L953.7,868.7Z" shape-rendering="crispEdges"/><path fill="#FFCA76" d="M960.2,117.6L895.8,120.9L951.3,186.1Z" shape-rendering="crispEdges"/><path fill="#EA7919" d="M1426.3,527.4L1320.5,491.1L1344.1,603Z" shape-rendering="crispEdges"/><path fill="#F29E48" d="M1320.6,346.8L1346.4,296.1L1263.2,283.8Z" shape-rendering="crispEdges"/><path fill="#EF9B46" d="M1382.7,295L1346.4,296.1L1320.6,346.8Z" shape-rendering="crispEdges"/><path fill="#CB5B0E" d="M1117.2,933.7L1180.8,904.8L1091.6,897.6Z" shape-rendering="crispEdges"/><path fill="#D45F0E" d="M1091.6,897.6L1180.8,904.8L1112.1,796.4Z" shape-rendering="crispEdges"/><path fill="#E2670F" d="M1329.4,705.7L1404.2,630.4L1355.5,630.6Z" shape-rendering="crispEdges"/><path fill="#E56C12" d="M1355.5,630.6L1404.2,630.4L1344.1,603Z" shape-rendering="crispEdges"/><path fill="#DF610C" d="M1429.8,708.3L1404.2,630.4L1329.4,705.7Z" shape-rendering="crispEdges"/><path fill="#C85D10" d="M1032.2,980L1117.2,933.7L1091.6,897.6Z" shape-rendering="crispEdges"/><path fill="#E3882A" d="M647.8,816.4L757.1,877.6L759.8,800.4Z" shape-rendering="crispEdges"/><path fill="#D77720" d="M815,857.9L798.1,931.3L899.5,875Z" shape-rendering="crispEdges"/><path fill="#EA8E30" d="M647.8,816.4L759.8,800.4L677.9,743.5Z" shape-rendering="crispEdges"/><path fill="#E67316" d="M1430.4,553.6L1426.3,527.4L1344.1,603Z" shape-rendering="crispEdges"/><path fill="#E56E13" d="M1404.2,630.4L1430.4,553.6L1344.1,603Z" shape-rendering="crispEdges"/><path fill="#CF5407" d="M1269.3,895.9L1323.7,817.6L1265.2,823.8Z" shape-rendering="crispEdges"/><path fill="#D95B09" d="M1265.2,823.8L1323.7,817.6L1285.1,700.1Z" shape-rendering="crispEdges"/><path fill="#FFD87F" d="M748.8,141.7L716.3,187.9L782.2,183.4Z" shape-rendering="crispEdges"/><path fill="#FFD678" d="M782.2,183.4L716.3,187.9L719.3,275.5Z" shape-rendering="crispEdges"/><path fill="#FFCE66" d="M589.7,327.1L632.6,452.3L662.6,324.5Z" shape-rendering="crispEdges"/><path fill="#FFBC56" d="M595.8,491.4L515.3,485.3L588.2,583.2Z" shape-rendering="crispEdges"/><path fill="#F9A74C" d="M510.9,649.8L568.6,699.8L596.7,637Z" shape-rendering="crispEdges"/><path fill="#FCB369" d="M1264.5,135.4L1177.3,122.2L1170.6,187Z" shape-rendering="crispEdges"/><path fill="#FFC17A" d="M1122.7,31.1L1027,62.6L1051.4,121.8Z" shape-rendering="crispEdges"/><path fill="#FFC578" d="M1051.4,121.8L1027,62.6L960.2,117.6Z" shape-rendering="crispEdges"/><path fill="#FAAF63" d="M1264.5,135.4L1170.6,187L1245.8,219.4Z" shape-rendering="crispEdges"/><path fill="#FFD07A" d="M895.8,120.9L787.3,132.3L900.6,193.7Z" shape-rendering="crispEdges"/><path fill="#D77C24" d="M757.1,877.6L798.1,931.3L815,857.9Z" shape-rendering="crispEdges"/><path fill="#ED9842" d="M1424.4,335.1L1382.7,295L1320.6,346.8Z" shape-rendering="crispEdges"/><path fill="#F7AC63" d="M1342.3,146.2L1264.5,135.4L1245.8,219.4Z" shape-rendering="crispEdges"/><path fill="#EB9235" d="M1424.4,335.1L1320.6,346.8L1405.7,436.3Z" shape-rendering="crispEdges"/><path fill="#D0721E" d="M798.1,931.3L879.2,963.5L899.5,875Z" shape-rendering="crispEdges"/><path fill="#CD6414" d="M948.4,942.7L1032.2,980L1037.2,857.5Z" shape-rendering="crispEdges"/><path fill="#EA9137" d="M608.4,821.9L647.8,816.4L677.9,743.5Z" shape-rendering="crispEdges"/><path fill="#D27B25" d="M757.1,877.6L743.1,936.6L798.1,931.3Z" shape-rendering="crispEdges"/><path fill="#FFD779" d="M575.8,289.6L589.7,327.1L665.4,272.7Z" shape-rendering="crispEdges"/><path fill="#FFD473" d="M665.4,272.7L589.7,327.1L662.6,324.5Z" shape-rendering="crispEdges"/><path fill="#BD5E14" d="M1025.5,1005.6L1032.2,980L978.1,1019.3Z" shape-rendering="crispEdges"/><path fill="#C5520A" d="M1243.3,947.4L1269.3,895.9L1180.8,904.8Z" shape-rendering="crispEdges"/><path fill="#CD5509" d="M1180.8,904.8L1269.3,895.9L1265.2,823.8Z" shape-rendering="crispEdges"/><path fill="#C6560D" d="M1189.6,955.7L1180.8,904.8L1117.2,933.7Z" shape-rendering="crispEdges"/><path fill="#FFD780" d="M787.3,132.3L748.8,141.7L782.2,183.4Z" shape-rendering="crispEdges"/><path fill="#FFDA7F" d="M716.3,187.9L667.2,183.5L665.4,272.7Z" shape-rendering="crispEdges"/><path fill="#FBAD4E" d="M510.9,649.8L596.7,637L588.2,583.2Z" shape-rendering="crispEdges"/><path fill="#F9A443" d="M596.7,637L568.6,699.8L685.6,651.5Z" shape-rendering="crispEdges"/><path fill="#FFBE76" d="M1122.7,31.1L1051.4,121.8L1107.7,129.6Z" shape-rendering="crispEdges"/><path fill="#FFCC7E" d="M960.2,117.6L933.4,38.8L895.8,120.9Z" shape-rendering="crispEdges"/><path fill="#FFD485" d="M895.8,120.9L819,30.7L787.3,132.3Z" shape-rendering="crispEdges"/><path fill="#FFDA86" d="M787.3,132.3L760,78.5L748.8,141.7Z" shape-rendering="crispEdges"/><path fill="#E78B2D" d="M1478.7,420.8L1424.4,335.1L1405.7,436.3Z" shape-rendering="crispEdges"/><path fill="#E77D1F" d="M1469.7,488.3L1405.7,436.3L1426.3,527.4Z" shape-rendering="crispEdges"/><path fill="#D65707" d="M1402.6,805L1329.4,705.7L1323.7,817.6Z" shape-rendering="crispEdges"/><path fill="#D85A08" d="M1402.6,805L1429.8,708.3L1329.4,705.7Z" shape-rendering="crispEdges"/><path fill="#E16B12" d="M1404.2,630.4L1505.3,587.5L1430.4,553.6Z" shape-rendering="crispEdges"/><path fill="#BF560F" d="M1091.8,1023.2L1189.6,955.7L1117.2,933.7Z" shape-rendering="crispEdges"/><path fill="#E27116" d="M1505.3,587.5L1469.7,488.3L1430.4,553.6Z" shape-rendering="crispEdges"/><path fill="#E57619" d="M1430.4,553.6L1469.7,488.3L1426.3,527.4Z" shape-rendering="crispEdges"/><path fill="#EFA052" d="M1361.7,181.4L1346.4,296.1L1382.7,295Z" shape-rendering="crispEdges"/><path fill="#F3A557" d="M1361.7,181.4L1245.8,219.4L1346.4,296.1Z" shape-rendering="crispEdges"/><path fill="#FFBB74" d="M1177.3,122.2L1122.7,31.1L1107.7,129.6Z" shape-rendering="crispEdges"/><path fill="#FFDD87" d="M653.8,136.1L667.2,183.5L716.3,187.9Z" shape-rendering="crispEdges"/><path fill="#FFCE67" d="M519.1,354.4L525.5,452.4L559.5,451.6Z" shape-rendering="crispEdges"/><path fill="#FFC35D" d="M559.5,451.6L515.3,485.3L595.8,491.4Z" shape-rendering="crispEdges"/><path fill="#C36215" d="M978.1,1019.3L1032.2,980L948.4,942.7Z" shape-rendering="crispEdges"/><path fill="#BF5A11" d="M1032.2,980L1091.8,1023.2L1117.2,933.7Z" shape-rendering="crispEdges"/><path fill="#D48029" d="M672.4,901.7L743.1,936.6L757.1,877.6Z" shape-rendering="crispEdges"/><path fill="#BF6D20" d="M788.8,1020.2L857.9,1031.6L879.2,963.5Z" shape-rendering="crispEdges"/><path fill="#C56618" d="M879.2,963.5L978.1,1019.3L948.4,942.7Z" shape-rendering="crispEdges"/><path fill="#FFC762" d="M525.5,452.4L515.3,485.3L559.5,451.6Z" shape-rendering="crispEdges"/><path fill="#FFDC82" d="M604.3,188.3L575.8,289.6L665.4,272.7Z" shape-rendering="crispEdges"/><path fill="#FFD26D" d="M589.7,327.1L519.1,354.4L559.5,451.6Z" shape-rendering="crispEdges"/><path fill="#FFCC6B" d="M525.5,452.4L410.8,411.3L515.3,485.3Z" shape-rendering="crispEdges"/><path fill="#BB4E0B" d="M1236.5,1013.6L1243.3,947.4L1189.6,955.7Z" shape-rendering="crispEdges"/><path fill="#C3520B" d="M1189.6,955.7L1243.3,947.4L1180.8,904.8Z" shape-rendering="crispEdges"/><path fill="#CB4F04" d="M1382.4,893.4L1402.6,805L1323.7,817.6Z" shape-rendering="crispEdges"/><path fill="#EF973D" d="M568.6,699.8L608.4,821.9L677.9,743.5Z" shape-rendering="crispEdges"/><path fill="#DC862E" d="M647.8,816.4L672.4,901.7L757.1,877.6Z" shape-rendering="crispEdges"/><path fill="#C85007" d="M1348.5,903.8L1323.7,817.6L1269.3,895.9Z" shape-rendering="crispEdges"/><path fill="#BF671B" d="M857.9,1031.6L978.1,1019.3L879.2,963.5Z" shape-rendering="crispEdges"/><path fill="#BC5B13" d="M1025.5,1005.6L1091.8,1023.2L1032.2,980Z" shape-rendering="crispEdges"/><path fill="#FFC97E" d="M1027,62.6L933.4,38.8L960.2,117.6Z" shape-rendering="crispEdges"/><path fill="#FFDD85" d="M748.8,141.7L653.8,136.1L716.3,187.9Z" shape-rendering="crispEdges"/><path fill="#E58224" d="M1469.7,488.3L1478.7,420.8L1405.7,436.3Z" shape-rendering="crispEdges"/><path fill="#DE8A36" d="M596.6,872.9L672.4,901.7L647.8,816.4Z" shape-rendering="crispEdges"/><path fill="#D65908" d="M1465.4,747.5L1475.7,668.2L1429.8,708.3Z" shape-rendering="crispEdges"/><path fill="#DD5F0B" d="M1429.8,708.3L1475.7,668.2L1404.2,630.4Z" shape-rendering="crispEdges"/><path fill="#DD862C" d="M1562.9,404.5L1547.8,368.4L1478.7,420.8Z" shape-rendering="crispEdges"/><path fill="#FDB153" d="M495.8,584.8L510.9,649.8L588.2,583.2Z" shape-rendering="crispEdges"/><path fill="#EF9B45" d="M568.6,699.8L522.3,742.8L608.4,821.9Z" shape-rendering="crispEdges"/><path fill="#EFA157" d="M1414.6,174.7L1361.7,181.4L1382.7,295Z" shape-rendering="crispEdges"/><path fill="#EA9746" d="M1470.3,270.1L1382.7,295L1424.4,335.1Z" shape-rendering="crispEdges"/><path fill="#FFB957" d="M515.3,485.3L495.8,584.8L588.2,583.2Z" shape-rendering="crispEdges"/><path fill="#B55813" d="M1047.8,1081.3L1091.8,1023.2L1025.5,1005.6Z" shape-rendering="crispEdges"/><path fill="#FFCF84" d="M933.4,38.8L895.4,32.3L895.8,120.9Z" shape-rendering="crispEdges"/><path fill="#FBB373" d="M1253,28.8L1197.2,61.9L1264.5,135.4Z" shape-rendering="crispEdges"/><path fill="#FCB46F" d="M1264.5,135.4L1197.2,61.9L1177.3,122.2Z" shape-rendering="crispEdges"/><path fill="#FFC884" d="M1027,62.6L1040.3,-10.6L933.4,38.8Z" shape-rendering="crispEdges"/><path fill="#FFD18E" d="M937.9,-33.8L861.1,-8.4L895.4,32.3Z" shape-rendering="crispEdges"/><path fill="#FFD98A" d="M819,30.7L760,78.5L787.3,132.3Z" shape-rendering="crispEdges"/><path fill="#FFDC82" d="M516.1,258.2L519.1,354.4L575.8,289.6Z" shape-rendering="crispEdges"/><path fill="#FFD879" d="M575.8,289.6L519.1,354.4L589.7,327.1Z" shape-rendering="crispEdges"/><path fill="#FEB65D" d="M411.6,580.5L451.3,647L495.8,584.8Z" shape-rendering="crispEdges"/><path fill="#FFB976" d="M1197.2,61.9L1122.7,31.1L1177.3,122.2Z" shape-rendering="crispEdges"/><path fill="#DD640F" d="M1475.7,668.2L1505.3,587.5L1404.2,630.4Z" shape-rendering="crispEdges"/><path fill="#F4A95F" d="M1361.7,181.4L1342.3,146.2L1245.8,219.4Z" shape-rendering="crispEdges"/><path fill="#BD4805" d="M1382.4,893.4L1348.5,903.8L1387.7,928.4Z" shape-rendering="crispEdges"/><path fill="#BE4B07" d="M1309.2,977.3L1348.5,903.8L1269.3,895.9Z" shape-rendering="crispEdges"/><path fill="#CF5004" d="M1478.3,786.2L1465.4,747.5L1402.6,805Z" shape-rendering="crispEdges"/><path fill="#D35405" d="M1402.6,805L1465.4,747.5L1429.8,708.3Z" shape-rendering="crispEdges"/><path fill="#D8610E" d="M1475.7,668.2L1534.5,644.3L1505.3,587.5Z" shape-rendering="crispEdges"/><path fill="#FFE08C" d="M653.8,136.1L604.3,188.3L667.2,183.5Z" shape-rendering="crispEdges"/><path fill="#FFDC84" d="M667.2,183.5L604.3,188.3L665.4,272.7Z" shape-rendering="crispEdges"/><path fill="#E18932" d="M1547.8,368.4L1481.6,342.5L1478.7,420.8Z" shape-rendering="crispEdges"/><path fill="#E68D35" d="M1478.7,420.8L1481.6,342.5L1424.4,335.1Z" shape-rendering="crispEdges"/><path fill="#F2A762" d="M1361.7,181.4L1391.9,139.3L1342.3,146.2Z" shape-rendering="crispEdges"/><path fill="#FFE08D" d="M671.8,73.3L653.8,136.1L748.8,141.7Z" shape-rendering="crispEdges"/><path fill="#F9A953" d="M451.3,647L522.3,742.8L510.9,649.8Z" shape-rendering="crispEdges"/><path fill="#F6A44D" d="M510.9,649.8L522.3,742.8L568.6,699.8Z" shape-rendering="crispEdges"/><path fill="#E38E3A" d="M608.4,821.9L596.6,872.9L647.8,816.4Z" shape-rendering="crispEdges"/><path fill="#C87624" d="M788.8,1020.2L798.1,931.3L743.1,936.6Z" shape-rendering="crispEdges"/><path fill="#C67121" d="M788.8,1020.2L879.2,963.5L798.1,931.3Z" shape-rendering="crispEdges"/><path fill="#B65B14" d="M978.1,1019.3L1047.8,1081.3L1025.5,1005.6Z" shape-rendering="crispEdges"/><path fill="#FFD48F" d="M861.1,-8.4L819,30.7L895.4,32.3Z" shape-rendering="crispEdges"/><path fill="#FFD287" d="M895.4,32.3L819,30.7L895.8,120.9Z" shape-rendering="crispEdges"/><path fill="#FFDE8C" d="M760,78.5L671.8,73.3L748.8,141.7Z" shape-rendering="crispEdges"/><path fill="#E39040" d="M518.5,818.7L596.6,872.9L608.4,821.9Z" shape-rendering="crispEdges"/><path fill="#CF7F2C" d="M672.4,901.7L683.4,958.6L743.1,936.6Z" shape-rendering="crispEdges"/><path fill="#BE4D08" d="M1309.2,977.3L1269.3,895.9L1243.3,947.4Z" shape-rendering="crispEdges"/><path fill="#C64D05" d="M1348.5,903.8L1382.4,893.4L1323.7,817.6Z" shape-rendering="crispEdges"/><path fill="#CE8133" d="M598.2,956.5L683.4,958.6L672.4,901.7Z" shape-rendering="crispEdges"/><path fill="#C07527" d="M707.3,1046.8L788.8,1020.2L743.1,936.6Z" shape-rendering="crispEdges"/><path fill="#E79342" d="M1481.6,342.5L1470.3,270.1L1424.4,335.1Z" shape-rendering="crispEdges"/><path fill="#FFC180" d="M1102.4,-7.1L1027,62.6L1122.7,31.1Z" shape-rendering="crispEdges"/><path fill="#FFC383" d="M1102.4,-7.1L1040.3,-10.6L1027,62.6Z" shape-rendering="crispEdges"/><path fill="#B64D0C" d="M1212.5,1025.1L1236.5,1013.6L1189.6,955.7Z" shape-rendering="crispEdges"/><path fill="#B8510E" d="M1091.8,1023.2L1212.5,1025.1L1189.6,955.7Z" shape-rendering="crispEdges"/><path fill="#B0500F" d="M1124.7,1081.2L1212.5,1025.1L1091.8,1023.2Z" shape-rendering="crispEdges"/><path fill="#FFBD81" d="M1174,4.5L1102.4,-7.1L1122.7,31.1Z" shape-rendering="crispEdges"/><path fill="#FFBA7C" d="M1174,4.5L1122.7,31.1L1197.2,61.9Z" shape-rendering="crispEdges"/><path fill="#CA4B02" d="M1465,852.3L1478.3,786.2L1402.6,805Z" shape-rendering="crispEdges"/><path fill="#D2590A" d="M1537.3,747.2L1534.5,644.3L1475.7,668.2Z" shape-rendering="crispEdges"/><path fill="#EC9E55" d="M1468.6,206.6L1414.6,174.7L1382.7,295Z" shape-rendering="crispEdges"/><path fill="#FEB77A" d="M1253,28.8L1174,4.5L1197.2,61.9Z" shape-rendering="crispEdges"/><path fill="#B74B0A" d="M1236.5,1013.6L1309.2,977.3L1243.3,947.4Z" shape-rendering="crispEdges"/><path fill="#C64A03" d="M1382.4,893.4L1465,852.3L1402.6,805Z" shape-rendering="crispEdges"/><path fill="#D15507" d="M1537.3,747.2L1475.7,668.2L1465.4,747.5Z" shape-rendering="crispEdges"/><path fill="#DD7219" d="M1505.3,587.5L1573.3,494.3L1469.7,488.3Z" shape-rendering="crispEdges"/><path fill="#E69A53" d="M1533.7,196.1L1468.6,206.6L1470.3,270.1Z" shape-rendering="crispEdges"/><path fill="#FFE596" d="M487.3,226.8L516.1,258.2L526.7,154.1Z" shape-rendering="crispEdges"/><path fill="#FFDF8A" d="M604.3,188.3L516.1,258.2L575.8,289.6Z" shape-rendering="crispEdges"/><path fill="#FFBF60" d="M423,530.5L495.8,584.8L515.3,485.3Z" shape-rendering="crispEdges"/><path fill="#F9B073" d="M1253,28.8L1264.5,135.4L1338.2,27.1Z" shape-rendering="crispEdges"/><path fill="#FFCF8B" d="M937.9,-33.8L895.4,32.3L933.4,38.8Z" shape-rendering="crispEdges"/><path fill="#FFDF93" d="M745.1,-1.3L671.8,73.3L760,78.5Z" shape-rendering="crispEdges"/><path fill="#F0A55F" d="M1414.6,174.7L1391.9,139.3L1361.7,181.4Z" shape-rendering="crispEdges"/><path fill="#B66219" d="M961.5,1091.3L978.1,1019.3L857.9,1031.6Z" shape-rendering="crispEdges"/><path fill="#B15B15" d="M961.5,1091.3L1047.8,1081.3L978.1,1019.3Z" shape-rendering="crispEdges"/><path fill="#D76411" d="M1534.5,644.3L1551.2,587.2L1505.3,587.5Z" shape-rendering="crispEdges"/><path fill="#FCB158" d="M495.8,584.8L451.3,647L510.9,649.8Z" shape-rendering="crispEdges"/><path fill="#EB9745" d="M522.3,742.8L518.5,818.7L608.4,821.9Z" shape-rendering="crispEdges"/><path fill="#FFD471" d="M458.1,367.4L525.5,452.4L519.1,354.4Z" shape-rendering="crispEdges"/><path fill="#FFDB92" d="M745.1,-1.3L760,78.5L819,30.7Z" shape-rendering="crispEdges"/><path fill="#FFE393" d="M653.8,136.1L581.6,116.8L604.3,188.3Z" shape-rendering="crispEdges"/><path fill="#ED9C4C" d="M461,778.9L518.5,818.7L522.3,742.8Z" shape-rendering="crispEdges"/><path fill="#D48637" d="M596.6,872.9L598.2,956.5L672.4,901.7Z" shape-rendering="crispEdges"/><path fill="#BA4706" d="M1309.2,977.3L1387.7,928.4L1348.5,903.8Z" shape-rendering="crispEdges"/><path fill="#F6AD6C" d="M1338.2,27.1L1264.5,135.4L1342.3,146.2Z" shape-rendering="crispEdges"/><path fill="#FFDB81" d="M454.9,299L458.1,367.4L519.1,354.4Z" shape-rendering="crispEdges"/><path fill="#FFC988" d="M1019.8,-96.6L937.9,-33.8L1040.3,-10.6Z" shape-rendering="crispEdges"/><path fill="#FFCB89" d="M1040.3,-10.6L937.9,-33.8L933.4,38.8Z" shape-rendering="crispEdges"/><path fill="#FFC285" d="M1092.1,-79.6L1040.3,-10.6L1102.4,-7.1Z" shape-rendering="crispEdges"/><path fill="#B0621C" d="M877.7,1122.3L961.5,1091.3L857.9,1031.6Z" shape-rendering="crispEdges"/><path fill="#A94E10" d="M1177.5,1116.5L1124.7,1081.2L1111.4,1196Z" shape-rendering="crispEdges"/><path fill="#AE5412" d="M1047.8,1081.3L1124.7,1081.2L1091.8,1023.2Z" shape-rendering="crispEdges"/><path fill="#A9460B" d="M1272.8,1096.3L1327.3,1024.6L1236.5,1013.6Z" shape-rendering="crispEdges"/><path fill="#B04709" d="M1236.5,1013.6L1327.3,1024.6L1309.2,977.3Z" shape-rendering="crispEdges"/><path fill="#BE4704" d="M1387.7,928.4L1465,852.3L1382.4,893.4Z" shape-rendering="crispEdges"/><path fill="#CC5005" d="M1478.3,786.2L1537.3,747.2L1465.4,747.5Z" shape-rendering="crispEdges"/><path fill="#E29245" d="M1579.4,285.3L1470.3,270.1L1481.6,342.5Z" shape-rendering="crispEdges"/><path fill="#EA9A4F" d="M1470.3,270.1L1468.6,206.6L1382.7,295Z" shape-rendering="crispEdges"/><path fill="#EFA568" d="M1471,117.9L1396.4,51L1391.9,139.3Z" shape-rendering="crispEdges"/><path fill="#FFCA6A" d="M410.8,411.3L423,530.5L515.3,485.3Z" shape-rendering="crispEdges"/><path fill="#DF7C21" d="M1573.3,494.3L1478.7,420.8L1469.7,488.3Z" shape-rendering="crispEdges"/><path fill="#D96B15" d="M1551.2,587.2L1573.3,494.3L1505.3,587.5Z" shape-rendering="crispEdges"/><path fill="#DC7F25" d="M1573.3,494.3L1562.9,404.5L1478.7,420.8Z" shape-rendering="crispEdges"/><path fill="#FFD693" d="M870.2,-123.6L791.2,-15.1L861.1,-8.4Z" shape-rendering="crispEdges"/><path fill="#FFD893" d="M861.1,-8.4L791.2,-15.1L819,30.7Z" shape-rendering="crispEdges"/><path fill="#C74D04" d="M1551.9,785.2L1537.3,747.2L1478.3,786.2Z" shape-rendering="crispEdges"/><path fill="#CF6212" d="M1657.6,634.7L1608.1,555.9L1551.2,587.2Z" shape-rendering="crispEdges"/><path fill="#D66B15" d="M1551.2,587.2L1608.1,555.9L1573.3,494.3Z" shape-rendering="crispEdges"/><path fill="#FFE496" d="M671.8,73.3L581.6,116.8L653.8,136.1Z" shape-rendering="crispEdges"/><path fill="#FEDE87" d="M516.1,258.2L454.9,299L519.1,354.4Z" shape-rendering="crispEdges"/><path fill="#FFE69E" d="M573.9,47.1L581.6,116.8L671.8,73.3Z" shape-rendering="crispEdges"/><path fill="#D1873E" d="M522.1,956.5L598.2,956.5L596.6,872.9Z" shape-rendering="crispEdges"/><path fill="#B16D24" d="M725.7,1113.7L828.7,1090.9L788.8,1020.2Z" shape-rendering="crispEdges"/><path fill="#B76B21" d="M788.8,1020.2L828.7,1090.9L857.9,1031.6Z" shape-rendering="crispEdges"/><path fill="#FFDB96" d="M791.2,-15.1L745.1,-1.3L819,30.7Z" shape-rendering="crispEdges"/><path fill="#FFBB65" d="M368,629.9L411.6,580.5L352,571.8Z" shape-rendering="crispEdges"/><path fill="#FFBC61" d="M423,530.5L411.6,580.5L495.8,584.8Z" shape-rendering="crispEdges"/><path fill="#F0A152" d="M421.1,744.6L461,778.9L522.3,742.8Z" shape-rendering="crispEdges"/><path fill="#FEE392" d="M487.3,226.8L454.9,299L516.1,258.2Z" shape-rendering="crispEdges"/><path fill="#FFD372" d="M458.1,367.4L410.8,411.3L525.5,452.4Z" shape-rendering="crispEdges"/><path fill="#C57A2A" d="M707.3,1046.8L743.1,936.6L683.4,958.6Z" shape-rendering="crispEdges"/><path fill="#FFE493" d="M526.7,154.1L516.1,258.2L604.3,188.3Z" shape-rendering="crispEdges"/><path fill="#F5A755" d="M421.1,744.6L522.3,742.8L451.3,647Z" shape-rendering="crispEdges"/><path fill="#E09145" d="M518.5,818.7L485.4,883.2L596.6,872.9Z" shape-rendering="crispEdges"/><path fill="#C07A2E" d="M660,1018.2L707.3,1046.8L683.4,958.6Z" shape-rendering="crispEdges"/><path fill="#C67E33" d="M598.2,956.5L660,1018.2L683.4,958.6Z" shape-rendering="crispEdges"/><path fill="#B24507" d="M1309.2,977.3L1327.3,1024.6L1387.7,928.4Z" shape-rendering="crispEdges"/><path fill="#B84303" d="M1387.7,928.4L1498.8,936.5L1465,852.3Z" shape-rendering="crispEdges"/><path fill="#AB480C" d="M1272.8,1096.3L1236.5,1013.6L1212.5,1025.1Z" shape-rendering="crispEdges"/><path fill="#FFDA80" d="M340,338.8L410.8,411.3L458.1,367.4Z" shape-rendering="crispEdges"/><path fill="#FFEAA5" d="M492.7,30.4L526.7,154.1L581.6,116.8Z" shape-rendering="crispEdges"/><path fill="#FFE698" d="M581.6,116.8L526.7,154.1L604.3,188.3Z" shape-rendering="crispEdges"/><path fill="#F2A868" d="M1396.4,51L1342.3,146.2L1391.9,139.3Z" shape-rendering="crispEdges"/><path fill="#F4AB6E" d="M1396.4,51L1338.2,27.1L1342.3,146.2Z" shape-rendering="crispEdges"/><path fill="#FFBC81" d="M1190.4,-103.3L1092.1,-79.6L1174,4.5Z" shape-rendering="crispEdges"/><path fill="#FFBE83" d="M1174,4.5L1092.1,-79.6L1102.4,-7.1Z" shape-rendering="crispEdges"/><path fill="#B0661F" d="M905.6,1161.3L877.7,1122.3L793.3,1174.2Z" shape-rendering="crispEdges"/><path fill="#B0661F" d="M828.7,1090.9L877.7,1122.3L857.9,1031.6Z" shape-rendering="crispEdges"/><path fill="#AA5212" d="M1111.4,1196L1124.7,1081.2L1047.8,1081.3Z" shape-rendering="crispEdges"/><path fill="#D05F0F" d="M1657.6,634.7L1551.2,587.2L1534.5,644.3Z" shape-rendering="crispEdges"/><path fill="#D57923" d="M1573.3,494.3L1660.1,453.9L1562.9,404.5Z" shape-rendering="crispEdges"/><path fill="#C64902" d="M1465,852.3L1551.9,785.2L1478.3,786.2Z" shape-rendering="crispEdges"/><path fill="#CB5409" d="M1537.3,747.2L1611.1,718.7L1534.5,644.3Z" shape-rendering="crispEdges"/><path fill="#BD4503" d="M1543.2,892.1L1551.9,785.2L1465,852.3Z" shape-rendering="crispEdges"/><path fill="#FEB67E" d="M1258.7,-73L1174,4.5L1253,28.8Z" shape-rendering="crispEdges"/><path fill="#FFD28F" d="M937.9,-33.8L870.2,-123.6L861.1,-8.4Z" shape-rendering="crispEdges"/><path fill="#F6A959" d="M386.3,738.4L421.1,744.6L451.3,647Z" shape-rendering="crispEdges"/><path fill="#E2954C" d="M421.4,855.5L485.4,883.2L518.5,818.7Z" shape-rendering="crispEdges"/><path fill="#AD5915" d="M1019.4,1160.7L1047.8,1081.3L961.5,1091.3Z" shape-rendering="crispEdges"/><path fill="#A94C0F" d="M1124.7,1081.2L1177.5,1116.5L1212.5,1025.1Z" shape-rendering="crispEdges"/><path fill="#EEA461" d="M1471,117.9L1391.9,139.3L1414.6,174.7Z" shape-rendering="crispEdges"/><path fill="#FAB17B" d="M1338.2,27.1L1286.5,-48.9L1253,28.8Z" shape-rendering="crispEdges"/><path fill="#ECA05D" d="M1471,117.9L1414.6,174.7L1468.6,206.6Z" shape-rendering="crispEdges"/><path fill="#E9994E" d="M421.4,855.5L518.5,818.7L461,778.9Z" shape-rendering="crispEdges"/><path fill="#C17E37" d="M598.2,956.5L588.5,1041L660,1018.2Z" shape-rendering="crispEdges"/><path fill="#FFC486" d="M1092.1,-79.6L1019.8,-96.6L1040.3,-10.6Z" shape-rendering="crispEdges"/><path fill="#FFE29D" d="M709,-81.4L661.9,-5.1L745.1,-1.3Z" shape-rendering="crispEdges"/><path fill="#E79D5B" d="M1533.7,196.1L1471,117.9L1468.6,206.6Z" shape-rendering="crispEdges"/><path fill="#E1964F" d="M1533.7,196.1L1470.3,270.1L1579.4,285.3Z" shape-rendering="crispEdges"/><path fill="#FFDF99" d="M709,-81.4L745.1,-1.3L791.2,-15.1Z" shape-rendering="crispEdges"/><path fill="#FFE29C" d="M745.1,-1.3L661.9,-5.1L671.8,73.3Z" shape-rendering="crispEdges"/><path fill="#DA8C40" d="M1579.4,285.3L1547.8,368.4L1610.7,297.5Z" shape-rendering="crispEdges"/><path fill="#DE8D3D" d="M1579.4,285.3L1481.6,342.5L1547.8,368.4Z" shape-rendering="crispEdges"/><path fill="#D68739" d="M1610.7,297.5L1547.8,368.4L1656.4,370.9Z" shape-rendering="crispEdges"/><path fill="#A5480D" d="M1177.5,1116.5L1272.8,1096.3L1212.5,1025.1Z" shape-rendering="crispEdges"/><path fill="#AD3F04" d="M1423.2,1044.7L1498.8,936.5L1387.7,928.4Z" shape-rendering="crispEdges"/><path fill="#CD6715" d="M1732.6,554L1629.9,517.5L1608.1,555.9Z" shape-rendering="crispEdges"/><path fill="#D36D18" d="M1608.1,555.9L1629.9,517.5L1573.3,494.3Z" shape-rendering="crispEdges"/><path fill="#AE5B16" d="M974.4,1191.9L1019.4,1160.7L961.5,1091.3Z" shape-rendering="crispEdges"/><path fill="#A4460C" d="M1177.5,1116.5L1274.2,1194.2L1272.8,1096.3Z" shape-rendering="crispEdges"/><path fill="#FFC167" d="M356.2,526.2L411.6,580.5L423,530.5Z" shape-rendering="crispEdges"/><path fill="#FDB660" d="M411.6,580.5L368,629.9L451.3,647Z" shape-rendering="crispEdges"/><path fill="#D78C43" d="M485.4,883.2L522.1,956.5L596.6,872.9Z" shape-rendering="crispEdges"/><path fill="#B0732C" d="M644,1095.2L725.7,1113.7L707.3,1046.8Z" shape-rendering="crispEdges"/><path fill="#FFE7A3" d="M608,0.7L573.9,47.1L671.8,73.3Z" shape-rendering="crispEdges"/><path fill="#FFEA9F" d="M458.7,141.9L430.3,206.2L487.3,226.8Z" shape-rendering="crispEdges"/><path fill="#AF611A" d="M877.7,1122.3L905.6,1161.3L961.5,1091.3Z" shape-rendering="crispEdges"/><path fill="#B06821" d="M793.3,1174.2L877.7,1122.3L828.7,1090.9Z" shape-rendering="crispEdges"/><path fill="#B47127" d="M725.7,1113.7L788.8,1020.2L707.3,1046.8Z" shape-rendering="crispEdges"/><path fill="#FFCE71" d="M360.4,449.7L423,530.5L410.8,411.3Z" shape-rendering="crispEdges"/><path fill="#FFC86D" d="M360.4,449.7L356.2,526.2L423,530.5Z" shape-rendering="crispEdges"/><path fill="#FFD97C" d="M340,338.8L360.4,449.7L410.8,411.3Z" shape-rendering="crispEdges"/><path fill="#FFDE87" d="M340,338.8L458.1,367.4L454.9,299Z" shape-rendering="crispEdges"/><path fill="#FEE697" d="M430.3,206.2L454.9,299L487.3,226.8Z" shape-rendering="crispEdges"/><path fill="#F3A975" d="M1430.9,4L1356.6,-5.5L1396.4,51Z" shape-rendering="crispEdges"/><path fill="#F5AB75" d="M1396.4,51L1356.6,-5.5L1338.2,27.1Z" shape-rendering="crispEdges"/><path fill="#C54E06" d="M1551.9,785.2L1611.1,718.7L1537.3,747.2Z" shape-rendering="crispEdges"/><path fill="#F8AF7A" d="M1356.6,-5.5L1286.5,-48.9L1338.2,27.1Z" shape-rendering="crispEdges"/><path fill="#FFC385" d="M1190.4,-103.3L976.1,-122.9L1019.8,-96.6Z" shape-rendering="crispEdges"/><path fill="#FBAE5D" d="M368,629.9L386.3,738.4L451.3,647Z" shape-rendering="crispEdges"/><path fill="#ED9D52" d="M421.1,744.6L421.4,855.5L461,778.9Z" shape-rendering="crispEdges"/><path fill="#D28D4A" d="M485.4,883.2L412.9,947.1L522.1,956.5Z" shape-rendering="crispEdges"/><path fill="#B67730" d="M644,1095.2L707.3,1046.8L660,1018.2Z" shape-rendering="crispEdges"/><path fill="#FFC068" d="M356.2,526.2L352,571.8L411.6,580.5Z" shape-rendering="crispEdges"/><path fill="#F8AD60" d="M368,629.9L294.2,732.6L386.3,738.4Z" shape-rendering="crispEdges"/><path fill="#FFC26B" d="M310.4,574.9L352,571.8L356.2,526.2Z" shape-rendering="crispEdges"/><path fill="#AB4106" d="M1423.2,1044.7L1387.7,928.4L1327.3,1024.6Z" shape-rendering="crispEdges"/><path fill="#BE4905" d="M1551.9,785.2L1658.3,810.1L1611.1,718.7Z" shape-rendering="crispEdges"/><path fill="#9F410A" d="M1349.4,1195.2L1335.2,1082.2L1272.8,1096.3Z" shape-rendering="crispEdges"/><path fill="#A2420A" d="M1272.8,1096.3L1335.2,1082.2L1327.3,1024.6Z" shape-rendering="crispEdges"/><path fill="#FFC084" d="M1190.4,-103.3L1019.8,-96.6L1092.1,-79.6Z" shape-rendering="crispEdges"/><path fill="#FFCA89" d="M1019.8,-96.6L976.1,-122.9L937.9,-33.8Z" shape-rendering="crispEdges"/><path fill="#FFE99F" d="M458.7,141.9L487.3,226.8L526.7,154.1Z" shape-rendering="crispEdges"/><path fill="#FFE5A1" d="M661.9,-5.1L608,0.7L671.8,73.3Z" shape-rendering="crispEdges"/><path fill="#FFEDA9" d="M492.7,30.4L458.7,141.9L526.7,154.1Z" shape-rendering="crispEdges"/><path fill="#FFE6A6" d="M648.2,-121.8L608,0.7L661.9,-5.1Z" shape-rendering="crispEdges"/><path fill="#FAB27C" d="M1323.3,-72.6L1258.7,-73L1286.5,-48.9Z" shape-rendering="crispEdges"/><path fill="#FBB37D" d="M1286.5,-48.9L1258.7,-73L1253,28.8Z" shape-rendering="crispEdges"/><path fill="#D78430" d="M1656.4,370.9L1547.8,368.4L1562.9,404.5Z" shape-rendering="crispEdges"/><path fill="#DA9451" d="M1579.4,285.3L1650.7,209.7L1533.7,196.1Z" shape-rendering="crispEdges"/><path fill="#C6823D" d="M522.1,956.5L588.5,1041L598.2,956.5Z" shape-rendering="crispEdges"/><path fill="#B54103" d="M1498.8,936.5L1543.2,892.1L1465,852.3Z" shape-rendering="crispEdges"/><path fill="#FFB77F" d="M1258.7,-73L1190.4,-103.3L1174,4.5Z" shape-rendering="crispEdges"/><path fill="#FFEAA8" d="M492.7,30.4L581.6,116.8L573.9,47.1Z" shape-rendering="crispEdges"/><path fill="#EC9E55" d="M342.6,806.7L421.4,855.5L421.1,744.6Z" shape-rendering="crispEdges"/><path fill="#B77D3E" d="M511.8,1038.5L579.3,1088L588.5,1041Z" shape-rendering="crispEdges"/><path fill="#FFCF8C" d="M976.1,-122.9L870.2,-123.6L937.9,-33.8Z" shape-rendering="crispEdges"/><path fill="#AF5E18" d="M905.6,1161.3L974.4,1191.9L961.5,1091.3Z" shape-rendering="crispEdges"/><path fill="#AC5513" d="M1019.4,1160.7L1111.4,1196L1047.8,1081.3Z" shape-rendering="crispEdges"/><path fill="#B0631C" d="M793.3,1174.2L974.4,1191.9L905.6,1161.3Z" shape-rendering="crispEdges"/><path fill="#CD6F1D" d="M1717.8,494.5L1660.1,453.9L1629.9,517.5Z" shape-rendering="crispEdges"/><path fill="#D2721D" d="M1629.9,517.5L1660.1,453.9L1573.3,494.3Z" shape-rendering="crispEdges"/><path fill="#B77935" d="M588.5,1041L644,1095.2L660,1018.2Z" shape-rendering="crispEdges"/><path fill="#B06C24" d="M744.7,1159.9L793.3,1174.2L828.7,1090.9Z" shape-rendering="crispEdges"/><path fill="#C4530B" d="M1725.5,659.8L1657.6,634.7L1611.1,718.7Z" shape-rendering="crispEdges"/><path fill="#CB570C" d="M1611.1,718.7L1657.6,634.7L1534.5,644.3Z" shape-rendering="crispEdges"/><path fill="#A23F08" d="M1335.2,1082.2L1423.2,1044.7L1327.3,1024.6Z" shape-rendering="crispEdges"/><path fill="#AA3C04" d="M1498.8,936.5L1556.4,975.8L1543.2,892.1Z" shape-rendering="crispEdges"/><path fill="#FFDD98" d="M782.9,-122.1L709,-81.4L791.2,-15.1Z" shape-rendering="crispEdges"/><path fill="#FFEBA2" d="M351.7,194.7L379.5,250.7L430.3,206.2Z" shape-rendering="crispEdges"/><path fill="#FEE799" d="M430.3,206.2L379.5,250.7L454.9,299Z" shape-rendering="crispEdges"/><path fill="#B06E25" d="M744.7,1159.9L828.7,1090.9L725.7,1113.7Z" shape-rendering="crispEdges"/><path fill="#D27E28" d="M1660.1,453.9L1656.4,370.9L1562.9,404.5Z" shape-rendering="crispEdges"/><path fill="#AC5714" d="M974.4,1191.9L1111.4,1196L1019.4,1160.7Z" shape-rendering="crispEdges"/><path fill="#9B3C08" d="M1335.2,1082.2L1408.7,1110.9L1423.2,1044.7Z" shape-rendering="crispEdges"/><path fill="#F0A671" d="M1489.4,43.8L1430.9,4L1396.4,51Z" shape-rendering="crispEdges"/><path fill="#F8AF7B" d="M1356.6,-5.5L1323.3,-72.6L1286.5,-48.9Z" shape-rendering="crispEdges"/><path fill="#EDA46C" d="M1489.4,43.8L1396.4,51L1471,117.9Z" shape-rendering="crispEdges"/><path fill="#E59E60" d="M1545,115.8L1471,117.9L1533.7,196.1Z" shape-rendering="crispEdges"/><path fill="#DD985A" d="M1545,115.8L1533.7,196.1L1650.7,209.7Z" shape-rendering="crispEdges"/><path fill="#B0722A" d="M650.9,1167.9L744.7,1159.9L725.7,1113.7Z" shape-rendering="crispEdges"/><path fill="#FFE493" d="M379.5,250.7L340,338.8L454.9,299Z" shape-rendering="crispEdges"/><path fill="#FFC670" d="M272.3,494.4L310.4,574.9L356.2,526.2Z" shape-rendering="crispEdges"/><path fill="#F5AC79" d="M1406.9,-87.4L1323.3,-72.6L1356.6,-5.5Z" shape-rendering="crispEdges"/><path fill="#FCB47D" d="M1258.7,-73L1323.3,-72.6L1190.4,-103.3Z" shape-rendering="crispEdges"/><path fill="#FFD994" d="M870.2,-123.6L782.9,-122.1L791.2,-15.1Z" shape-rendering="crispEdges"/><path fill="#D7904B" d="M1650.7,209.7L1579.4,285.3L1610.7,297.5Z" shape-rendering="crispEdges"/><path fill="#FFCC74" d="M272.3,494.4L356.2,526.2L360.4,449.7Z" shape-rendering="crispEdges"/><path fill="#FFBA67" d="M352,571.8L306.2,629.5L368,629.9Z" shape-rendering="crispEdges"/><path fill="#F1A359" d="M386.3,738.4L342.6,806.7L421.1,744.6Z" shape-rendering="crispEdges"/><path fill="#E7A167" d="M1545,115.8L1489.4,43.8L1471,117.9Z" shape-rendering="crispEdges"/><path fill="#F3AA78" d="M1430.9,4L1406.9,-87.4L1356.6,-5.5Z" shape-rendering="crispEdges"/><path fill="#FFBD6A" d="M310.4,574.9L306.2,629.5L352,571.8Z" shape-rendering="crispEdges"/><path fill="#B27938" d="M588.5,1041L579.3,1088L644,1095.2Z" shape-rendering="crispEdges"/><path fill="#B1742F" d="M644,1095.2L650.9,1167.9L725.7,1113.7Z" shape-rendering="crispEdges"/><path fill="#C08241" d="M511.8,1038.5L588.5,1041L522.1,956.5Z" shape-rendering="crispEdges"/><path fill="#DA924E" d="M412.9,947.1L485.4,883.2L421.4,855.5Z" shape-rendering="crispEdges"/><path fill="#C78849" d="M412.9,947.1L511.8,1038.5L522.1,956.5Z" shape-rendering="crispEdges"/><path fill="#FFDF8A" d="M262.5,362L300.9,403.3L340,338.8Z" shape-rendering="crispEdges"/><path fill="#FFDA80" d="M340,338.8L300.9,403.3L360.4,449.7Z" shape-rendering="crispEdges"/><path fill="#FFBE6E" d="M310.4,574.9L194.3,592.7L306.2,629.5Z" shape-rendering="crispEdges"/><path fill="#FFEDB3" d="M507,-30.5L492.7,30.4L573.9,47.1Z" shape-rendering="crispEdges"/><path fill="#FFEDA6" d="M458.7,141.9L385.2,150.3L430.3,206.2Z" shape-rendering="crispEdges"/><path fill="#FFE79A" d="M379.5,250.7L271.1,272L340,338.8Z" shape-rendering="crispEdges"/><path fill="#FFEBAF" d="M507,-30.5L573.9,47.1L608,0.7Z" shape-rendering="crispEdges"/><path fill="#FFE4A2" d="M648.2,-121.8L661.9,-5.1L709,-81.4Z" shape-rendering="crispEdges"/><path fill="#CD7B28" d="M1660.1,453.9L1697.1,413.2L1656.4,370.9Z" shape-rendering="crispEdges"/><path fill="#D28D4B" d="M1712.4,279.5L1650.7,209.7L1610.7,297.5Z" shape-rendering="crispEdges"/><path fill="#CB7422" d="M1717.8,494.5L1697.1,413.2L1660.1,453.9Z" shape-rendering="crispEdges"/><path fill="#AA5112" d="M974.4,1191.9L1209.8,1204.8L1111.4,1196Z" shape-rendering="crispEdges"/><path fill="#A84C0F" d="M1111.4,1196L1209.8,1204.8L1177.5,1116.5Z" shape-rendering="crispEdges"/><path fill="#F2A65D" d="M294.2,732.6L342.6,806.7L386.3,738.4Z" shape-rendering="crispEdges"/><path fill="#9C3D08" d="M1349.4,1195.2L1408.7,1110.9L1335.2,1082.2Z" shape-rendering="crispEdges"/><path fill="#A23A05" d="M1496.3,1050.2L1556.4,975.8L1498.8,936.5Z" shape-rendering="crispEdges"/><path fill="#A23A05" d="M1496.3,1050.2L1498.8,936.5L1423.2,1044.7Z" shape-rendering="crispEdges"/><path fill="#B74203" d="M1630.1,878.3L1658.3,810.1L1551.9,785.2Z" shape-rendering="crispEdges"/><path fill="#E9A271" d="M1540.7,42.7L1480.5,-3.4L1489.4,43.8Z" shape-rendering="crispEdges"/><path fill="#EDA573" d="M1489.4,43.8L1480.5,-3.4L1430.9,4Z" shape-rendering="crispEdges"/><path fill="#FFF0AE" d="M417.3,78.1L385.2,150.3L458.7,141.9Z" shape-rendering="crispEdges"/><path fill="#D99351" d="M370.4,897.8L412.9,947.1L421.4,855.5Z" shape-rendering="crispEdges"/><path fill="#B54103" d="M1630.1,878.3L1551.9,785.2L1543.2,892.1Z" shape-rendering="crispEdges"/><path fill="#CA6918" d="M1732.6,554L1717.8,494.5L1629.9,517.5Z" shape-rendering="crispEdges"/><path fill="#CA6112" d="M1732.6,554L1608.1,555.9L1657.6,634.7Z" shape-rendering="crispEdges"/><path fill="#A5480D" d="M1209.8,1204.8L1274.2,1194.2L1177.5,1116.5Z" shape-rendering="crispEdges"/><path fill="#963706" d="M1459.6,1129.4L1496.3,1050.2L1423.2,1044.7Z" shape-rendering="crispEdges"/><path fill="#A93B04" d="M1651.7,932.7L1630.1,878.3L1543.2,892.1Z" shape-rendering="crispEdges"/><path fill="#FFD37B" d="M300.9,403.3L272.3,494.4L360.4,449.7Z" shape-rendering="crispEdges"/><path fill="#FCB364" d="M306.2,629.5L294.2,732.6L368,629.9Z" shape-rendering="crispEdges"/><path fill="#FFEDA7" d="M385.2,150.3L351.7,194.7L430.3,206.2Z" shape-rendering="crispEdges"/><path fill="#FFD37F" d="M185,444.1L206.2,486.7L272.3,494.4Z" shape-rendering="crispEdges"/><path fill="#D1873F" d="M1712.4,279.5L1610.7,297.5L1656.4,370.9Z" shape-rendering="crispEdges"/><path fill="#E5A06B" d="M1545,115.8L1540.7,42.7L1489.4,43.8Z" shape-rendering="crispEdges"/><path fill="#CB7F31" d="M1728.4,336.4L1656.4,370.9L1697.1,413.2Z" shape-rendering="crispEdges"/><path fill="#E39955" d="M342.6,806.7L370.4,897.8L421.4,855.5Z" shape-rendering="crispEdges"/><path fill="#B17938" d="M582.6,1205.3L650.9,1167.9L579.3,1088Z" shape-rendering="crispEdges"/><path fill="#B17735" d="M579.3,1088L650.9,1167.9L644,1095.2Z" shape-rendering="crispEdges"/><path fill="#B07128" d="M744.7,1159.9L650.9,1167.9L793.3,1174.2Z" shape-rendering="crispEdges"/><path fill="#B06C24" d="M793.3,1174.2L582.6,1205.3L974.4,1191.9Z" shape-rendering="crispEdges"/><path fill="#B27D40" d="M529.4,1105.3L579.3,1088L511.8,1038.5Z" shape-rendering="crispEdges"/><path fill="#DF9D67" d="M1628.3,99.5L1540.7,42.7L1545,115.8Z" shape-rendering="crispEdges"/><path fill="#FCB368" d="M194.9,680L294.2,732.6L306.2,629.5Z" shape-rendering="crispEdges"/><path fill="#E29A59" d="M342.6,806.7L270.2,882.2L370.4,897.8Z" shape-rendering="crispEdges"/><path fill="#FFEFB0" d="M492.7,30.4L417.3,78.1L458.7,141.9Z" shape-rendering="crispEdges"/><path fill="#FFF1AF" d="M264.6,146.1L299.2,198.9L351.7,194.7Z" shape-rendering="crispEdges"/><path fill="#C35A10" d="M1725.5,659.8L1732.6,554L1657.6,634.7Z" shape-rendering="crispEdges"/><path fill="#C77E31" d="M1765.8,368.3L1728.4,336.4L1697.1,413.2Z" shape-rendering="crispEdges"/><path fill="#FFE4A0" d="M613.1,-123.5L648.2,-121.8L782.9,-122.1Z" shape-rendering="crispEdges"/><path fill="#FFE19C" d="M782.9,-122.1L648.2,-121.8L709,-81.4Z" shape-rendering="crispEdges"/><path fill="#FFF1B9" d="M492.7,30.4L412.5,-5.3L417.3,78.1Z" shape-rendering="crispEdges"/><path fill="#EEA576" d="M1501.2,-87.4L1406.9,-87.4L1480.5,-3.4Z" shape-rendering="crispEdges"/><path fill="#F1A776" d="M1480.5,-3.4L1406.9,-87.4L1430.9,4Z" shape-rendering="crispEdges"/><path fill="#F9B07B" d="M1323.3,-72.6L1406.9,-87.4L1190.4,-103.3Z" shape-rendering="crispEdges"/><path fill="#FBB37D" d="M1190.4,-103.3L1639.1,-109.9L976.1,-122.9Z" shape-rendering="crispEdges"/><path fill="#BA4806" d="M1725.6,737L1611.1,718.7L1658.3,810.1Z" shape-rendering="crispEdges"/><path fill="#BD4D09" d="M1725.6,737L1725.5,659.8L1611.1,718.7Z" shape-rendering="crispEdges"/><path fill="#FFEDB3" d="M506.4,-85.9L507,-30.5L608,0.7Z" shape-rendering="crispEdges"/><path fill="#B28046" d="M429.8,1093.1L529.4,1105.3L511.8,1038.5Z" shape-rendering="crispEdges"/><path fill="#C2874C" d="M410.7,1040.8L511.8,1038.5L412.9,947.1Z" shape-rendering="crispEdges"/><path fill="#FFE595" d="M271.1,272L262.5,362L340,338.8Z" shape-rendering="crispEdges"/><path fill="#F5AB65" d="M189.3,714.4L284.4,775.3L294.2,732.6Z" shape-rendering="crispEdges"/><path fill="#F1A55F" d="M294.2,732.6L284.4,775.3L342.6,806.7Z" shape-rendering="crispEdges"/><path fill="#FFC572" d="M194.3,592.7L310.4,574.9L272.3,494.4Z" shape-rendering="crispEdges"/><path fill="#9A3705" d="M1496.3,1050.2L1578.4,1007.1L1556.4,975.8Z" shape-rendering="crispEdges"/><path fill="#A53A04" d="M1556.4,975.8L1651.7,932.7L1543.2,892.1Z" shape-rendering="crispEdges"/><path fill="#B34305" d="M1723,805.3L1725.6,737L1658.3,810.1Z" shape-rendering="crispEdges"/><path fill="#933506" d="M1540,1099.2L1578.4,1007.1L1496.3,1050.2Z" shape-rendering="crispEdges"/><path fill="#983907" d="M1459.6,1129.4L1423.2,1044.7L1408.7,1110.9Z" shape-rendering="crispEdges"/><path fill="#A2440B" d="M1209.8,1204.8L1349.4,1195.2L1274.2,1194.2Z" shape-rendering="crispEdges"/><path fill="#A0420B" d="M1274.2,1194.2L1349.4,1195.2L1272.8,1096.3Z" shape-rendering="crispEdges"/><path fill="#FFDE99" d="M870.2,-123.6L613.1,-123.5L782.9,-122.1Z" shape-rendering="crispEdges"/><path fill="#FFE7A8" d="M648.2,-121.8L613.1,-123.5L608,0.7Z" shape-rendering="crispEdges"/><path fill="#C67020" d="M1764.2,499.6L1697.1,413.2L1717.8,494.5Z" shape-rendering="crispEdges"/><path fill="#CC843C" d="M1728.4,336.4L1712.4,279.5L1656.4,370.9Z" shape-rendering="crispEdges"/><path fill="#DA995E" d="M1650.7,209.7L1628.3,99.5L1545,115.8Z" shape-rendering="crispEdges"/><path fill="#AC3D04" d="M1723,805.3L1658.3,810.1L1704.6,889Z" shape-rendering="crispEdges"/><path fill="#C06115" d="M1799.3,595.2L1764.2,499.6L1732.6,554Z" shape-rendering="crispEdges"/><path fill="#983807" d="M1435.7,1193.6L1459.6,1129.4L1408.7,1110.9Z" shape-rendering="crispEdges"/><path fill="#D5955B" d="M1688.7,153.6L1628.3,99.5L1650.7,209.7Z" shape-rendering="crispEdges"/><path fill="#E8A275" d="M1552.8,-75.9L1501.2,-87.4L1480.5,-3.4Z" shape-rendering="crispEdges"/><path fill="#BE5810" d="M1763.2,650.4L1732.6,554L1725.5,659.8Z" shape-rendering="crispEdges"/><path fill="#C46819" d="M1732.6,554L1764.2,499.6L1717.8,494.5Z" shape-rendering="crispEdges"/><path fill="#FFECA4" d="M299.2,198.9L271.1,272L379.5,250.7Z" shape-rendering="crispEdges"/><path fill="#FFEDA6" d="M299.2,198.9L379.5,250.7L351.7,194.7Z" shape-rendering="crispEdges"/><path fill="#973404" d="M1683.8,950L1651.7,932.7L1658.9,1001.4Z" shape-rendering="crispEdges"/><path fill="#9C3704" d="M1578.4,1007.1L1651.7,932.7L1556.4,975.8Z" shape-rendering="crispEdges"/><path fill="#FFF1AF" d="M264.6,146.1L351.7,194.7L385.2,150.3Z" shape-rendering="crispEdges"/><path fill="#FFF2B6" d="M355,44L385.2,150.3L417.3,78.1Z" shape-rendering="crispEdges"/><path fill="#D08E50" d="M1712.4,279.5L1688.7,180.1L1650.7,209.7Z" shape-rendering="crispEdges"/><path fill="#CE925B" d="M1688.7,153.6L1688.7,180.1L1759.7,126Z" shape-rendering="crispEdges"/><path fill="#B74B0A" d="M1775.8,733.6L1725.5,659.8L1725.6,737Z" shape-rendering="crispEdges"/><path fill="#B84E0C" d="M1775.8,733.6L1763.2,650.4L1725.5,659.8Z" shape-rendering="crispEdges"/><path fill="#AB3C04" d="M1704.6,889L1658.3,810.1L1630.1,878.3Z" shape-rendering="crispEdges"/><path fill="#D19052" d="M354.5,976.2L412.9,947.1L370.4,897.8Z" shape-rendering="crispEdges"/><path fill="#C78B50" d="M354.5,976.2L410.7,1040.8L412.9,947.1Z" shape-rendering="crispEdges"/><path fill="#D19155" d="M302.8,958.4L354.5,976.2L370.4,897.8Z" shape-rendering="crispEdges"/><path fill="#FFEBAE" d="M613.1,-123.5L506.4,-85.9L608,0.7Z" shape-rendering="crispEdges"/><path fill="#FFF1BC" d="M507,-30.5L412.5,-5.3L492.7,30.4Z" shape-rendering="crispEdges"/><path fill="#C47A2B" d="M1805,409.7L1765.8,368.3L1697.1,413.2Z" shape-rendering="crispEdges"/><path fill="#C78541" d="M1728.4,336.4L1797.5,291.9L1712.4,279.5Z" shape-rendering="crispEdges"/><path fill="#C37324" d="M1805,409.7L1697.1,413.2L1764.2,499.6Z" shape-rendering="crispEdges"/><path fill="#CA8C4F" d="M1794.6,230.6L1688.7,180.1L1712.4,279.5Z" shape-rendering="crispEdges"/><path fill="#D29257" d="M1688.7,180.1L1688.7,153.6L1650.7,209.7Z" shape-rendering="crispEdges"/><path fill="#8F3406" d="M1564,1173.7L1540,1099.2L1459.6,1129.4Z" shape-rendering="crispEdges"/><path fill="#913506" d="M1459.6,1129.4L1540,1099.2L1496.3,1050.2Z" shape-rendering="crispEdges"/><path fill="#FFF2BE" d="M414.5,-110.9L412.5,-5.3L507,-30.5Z" shape-rendering="crispEdges"/><path fill="#FFDD86" d="M185,444.1L300.9,403.3L262.5,362Z" shape-rendering="crispEdges"/><path fill="#FFD680" d="M185,444.1L272.3,494.4L300.9,403.3Z" shape-rendering="crispEdges"/><path fill="#FFEAA0" d="M230.7,285.5L230.2,327.8L271.1,272Z" shape-rendering="crispEdges"/><path fill="#FFE699" d="M271.1,272L230.2,327.8L262.5,362Z" shape-rendering="crispEdges"/><path fill="#B27D40" d="M505.1,1173.4L582.6,1205.3L529.4,1105.3Z" shape-rendering="crispEdges"/><path fill="#B27B3D" d="M529.4,1105.3L582.6,1205.3L579.3,1088Z" shape-rendering="crispEdges"/><path fill="#B1742F" d="M650.9,1167.9L582.6,1205.3L793.3,1174.2Z" shape-rendering="crispEdges"/><path fill="#AF601A" d="M974.4,1191.9L582.6,1205.3L1209.8,1204.8Z" shape-rendering="crispEdges"/><path fill="#9D3604" d="M1683.8,950L1704.6,889L1651.7,932.7Z" shape-rendering="crispEdges"/><path fill="#A33904" d="M1651.7,932.7L1704.6,889L1630.1,878.3Z" shape-rendering="crispEdges"/><path fill="#B45712" d="M1864.7,574.9L1799.3,595.2L1871.8,628.1Z" shape-rendering="crispEdges"/><path fill="#DF9D70" d="M1569.9,-31L1540.7,42.7L1658.8,48.9Z" shape-rendering="crispEdges"/><path fill="#E6A174" d="M1569.9,-31L1480.5,-3.4L1540.7,42.7Z" shape-rendering="crispEdges"/><path fill="#F2A977" d="M1406.9,-87.4L1639.1,-109.9L1190.4,-103.3Z" shape-rendering="crispEdges"/><path fill="#9A3B08" d="M1349.4,1195.2L1435.7,1193.6L1408.7,1110.9Z" shape-rendering="crispEdges"/><path fill="#983907" d="M1491.4,1205L1435.7,1193.6L1349.4,1195.2Z" shape-rendering="crispEdges"/><path fill="#DC9B69" d="M1658.8,48.9L1540.7,42.7L1628.3,99.5Z" shape-rendering="crispEdges"/><path fill="#B3834F" d="M347.4,1119.7L429.8,1093.1L410.7,1040.8Z" shape-rendering="crispEdges"/><path fill="#B7834A" d="M410.7,1040.8L429.8,1093.1L511.8,1038.5Z" shape-rendering="crispEdges"/><path fill="#FFEFAC" d="M187.3,215.9L271.1,272L299.2,198.9Z" shape-rendering="crispEdges"/><path fill="#FFEEA9" d="M187.3,215.9L230.7,285.5L271.1,272Z" shape-rendering="crispEdges"/><path fill="#FFE18E" d="M230.2,327.8L185,444.1L262.5,362Z" shape-rendering="crispEdges"/><path fill="#FFF5C3" d="M353,-2.4L355,44L412.5,-5.3Z" shape-rendering="crispEdges"/><path fill="#FFF3BD" d="M412.5,-5.3L355,44L417.3,78.1Z" shape-rendering="crispEdges"/><path fill="#FFCB79" d="M206.2,486.7L194.3,592.7L272.3,494.4Z" shape-rendering="crispEdges"/><path fill="#EAA05D" d="M284.4,775.3L270.2,882.2L342.6,806.7Z" shape-rendering="crispEdges"/><path fill="#B04507" d="M1775.8,733.6L1725.6,737L1760.8,789.3Z" shape-rendering="crispEdges"/><path fill="#BD5A12" d="M1763.2,650.4L1799.3,595.2L1732.6,554Z" shape-rendering="crispEdges"/><path fill="#B04206" d="M1760.8,789.3L1725.6,737L1723,805.3Z" shape-rendering="crispEdges"/><path fill="#973405" d="M1658.9,1001.4L1651.7,932.7L1578.4,1007.1Z" shape-rendering="crispEdges"/><path fill="#A73C05" d="M1791.9,864.6L1760.8,789.3L1723,805.3Z" shape-rendering="crispEdges"/><path fill="#A33A04" d="M1791.9,864.6L1723,805.3L1704.6,889Z" shape-rendering="crispEdges"/><path fill="#E8A060" d="M225.7,851.6L270.2,882.2L284.4,775.3Z" shape-rendering="crispEdges"/><path fill="#C18A52" d="M354.5,976.2L337.2,1037.3L410.7,1040.8Z" shape-rendering="crispEdges"/><path fill="#B28047" d="M429.8,1093.1L505.1,1173.4L529.4,1105.3Z" shape-rendering="crispEdges"/><path fill="#8D3206" d="M1612.9,1114.8L1658.9,1001.4L1578.4,1007.1Z" shape-rendering="crispEdges"/><path fill="#8B3206" d="M1612.9,1114.8L1578.4,1007.1L1540,1099.2Z" shape-rendering="crispEdges"/><path fill="#FFD889" d="M147.3,481.4L185,444.1L133.5,410.1Z" shape-rendering="crispEdges"/><path fill="#FFCC7D" d="M206.2,486.7L147.3,481.4L194.3,592.7Z" shape-rendering="crispEdges"/><path fill="#F9B16E" d="M189.3,714.4L194.9,680L134.8,740.8Z" shape-rendering="crispEdges"/><path fill="#FFBB6F" d="M194.3,592.7L194.9,680L306.2,629.5Z" shape-rendering="crispEdges"/><path fill="#D89559" d="M270.2,882.2L302.8,958.4L370.4,897.8Z" shape-rendering="crispEdges"/><path fill="#B3814A" d="M429.8,1093.1L407.2,1179.7L505.1,1173.4Z" shape-rendering="crispEdges"/><path fill="#BD7023" d="M1859.8,431.6L1805,409.7L1764.2,499.6Z" shape-rendering="crispEdges"/><path fill="#C4813B" d="M1765.8,368.3L1797.5,291.9L1728.4,336.4Z" shape-rendering="crispEdges"/><path fill="#D29665" d="M1722.4,48.4L1658.8,48.9L1688.7,153.6Z" shape-rendering="crispEdges"/><path fill="#D59763" d="M1688.7,153.6L1658.8,48.9L1628.3,99.5Z" shape-rendering="crispEdges"/><path fill="#DF9E73" d="M1639.1,-109.9L1552.8,-75.9L1569.9,-31Z" shape-rendering="crispEdges"/><path fill="#E6A174" d="M1569.9,-31L1552.8,-75.9L1480.5,-3.4Z" shape-rendering="crispEdges"/><path fill="#FFF4B7" d="M355,44L264.6,146.1L385.2,150.3Z" shape-rendering="crispEdges"/><path fill="#FFDF8F" d="M133.5,410.1L185,444.1L131.3,354.8Z" shape-rendering="crispEdges"/><path fill="#F9B06A" d="M194.9,680L189.3,714.4L294.2,732.6Z" shape-rendering="crispEdges"/><path fill="#C58F5B" d="M225.7,1015.2L274.2,1037.5L302.8,958.4Z" shape-rendering="crispEdges"/><path fill="#FFBB74" d="M108.1,637.8L194.9,680L194.3,592.7Z" shape-rendering="crispEdges"/><path fill="#F3A966" d="M189.3,714.4L211.4,806.9L284.4,775.3Z" shape-rendering="crispEdges"/><path fill="#B48655" d="M347.4,1119.7L337.2,1037.3L282.1,1109.5Z" shape-rendering="crispEdges"/><path fill="#C78D55" d="M302.8,958.4L337.2,1037.3L354.5,976.2Z" shape-rendering="crispEdges"/><path fill="#FFF5C4" d="M376,-108.5L353,-2.4L412.5,-5.3Z" shape-rendering="crispEdges"/><path fill="#FFF6BF" d="M355,44L271.5,49.2L264.6,146.1Z" shape-rendering="crispEdges"/><path fill="#BE7D37" d="M1863.8,375.2L1797.5,291.9L1765.8,368.3Z" shape-rendering="crispEdges"/><path fill="#EDA362" d="M211.4,806.9L225.7,851.6L284.4,775.3Z" shape-rendering="crispEdges"/><path fill="#9D3E09" d="M1209.8,1204.8L1491.4,1205L1349.4,1195.2Z" shape-rendering="crispEdges"/><path fill="#953706" d="M1435.7,1193.6L1491.4,1205L1459.6,1129.4Z" shape-rendering="crispEdges"/><path fill="#973806" d="M1616.3,1205.4L1491.4,1205L1209.8,1204.8Z" shape-rendering="crispEdges"/><path fill="#FFE293" d="M185,444.1L230.2,327.8L131.3,354.8Z" shape-rendering="crispEdges"/><path fill="#FFD483" d="M185,444.1L147.3,481.4L206.2,486.7Z" shape-rendering="crispEdges"/><path fill="#8A3206" d="M1564,1173.7L1612.9,1114.8L1540,1099.2Z" shape-rendering="crispEdges"/><path fill="#903205" d="M1658.9,1001.4L1689.3,1023.8L1683.8,950Z" shape-rendering="crispEdges"/><path fill="#973505" d="M1783.4,965.3L1791.9,864.6L1704.6,889Z" shape-rendering="crispEdges"/><path fill="#C58749" d="M1797.5,291.9L1794.6,230.6L1712.4,279.5Z" shape-rendering="crispEdges"/><path fill="#BE8447" d="M1868.9,299.8L1794.6,230.6L1797.5,291.9Z" shape-rendering="crispEdges"/><path fill="#883006" d="M1612.9,1114.8L1689.3,1023.8L1658.9,1001.4Z" shape-rendering="crispEdges"/><path fill="#DB9C72" d="M1658.8,48.9L1643,-28.9L1569.9,-31Z" shape-rendering="crispEdges"/><path fill="#D69971" d="M1702.6,-1.3L1643,-28.9L1658.8,48.9Z" shape-rendering="crispEdges"/><path fill="#913506" d="M1491.4,1205L1564,1173.7L1459.6,1129.4Z" shape-rendering="crispEdges"/><path fill="#822D06" d="M1612.9,1114.8L1709.3,1074.5L1689.3,1023.8Z" shape-rendering="crispEdges"/><path fill="#C98F57" d="M1794.6,230.6L1759.7,126L1688.7,180.1Z" shape-rendering="crispEdges"/><path fill="#963304" d="M1783.4,965.3L1704.6,889L1683.8,950Z" shape-rendering="crispEdges"/><path fill="#A94409" d="M1857.8,774.8L1851.7,710.9L1775.8,733.6Z" shape-rendering="crispEdges"/><path fill="#B75D15" d="M1864.7,574.9L1865,506.6L1799.3,595.2Z" shape-rendering="crispEdges"/><path fill="#BA6A1F" d="M1865,506.6L1859.8,431.6L1764.2,499.6Z" shape-rendering="crispEdges"/><path fill="#FFEFB7" d="M613.1,-123.5L414.5,-110.9L506.4,-85.9Z" shape-rendering="crispEdges"/><path fill="#FFF1BB" d="M506.4,-85.9L414.5,-110.9L507,-30.5Z" shape-rendering="crispEdges"/><path fill="#FFF4B7" d="M159.7,187.3L187.3,215.9L264.6,146.1Z" shape-rendering="crispEdges"/><path fill="#FFF7C7" d="M271.5,49.2L355,44L295.5,-18.9Z" shape-rendering="crispEdges"/><path fill="#FFF3B3" d="M264.6,146.1L187.3,215.9L299.2,198.9Z" shape-rendering="crispEdges"/><path fill="#BC6217" d="M1865,506.6L1764.2,499.6L1799.3,595.2Z" shape-rendering="crispEdges"/><path fill="#BD792E" d="M1805,409.7L1863.8,375.2L1765.8,368.3Z" shape-rendering="crispEdges"/><path fill="#FFF7C7" d="M295.5,-18.9L355,44L353,-2.4Z" shape-rendering="crispEdges"/><path fill="#B65510" d="M1799.3,595.2L1763.2,650.4L1871.8,628.1Z" shape-rendering="crispEdges"/><path fill="#B24A0B" d="M1851.7,710.9L1763.2,650.4L1775.8,733.6Z" shape-rendering="crispEdges"/><path fill="#CD9361" d="M1759.7,126L1722.4,48.4L1688.7,153.6Z" shape-rendering="crispEdges"/><path fill="#FFE9A3" d="M131.3,354.8L230.2,327.8L149.6,250.4Z" shape-rendering="crispEdges"/><path fill="#FFC87C" d="M147.3,481.4L115.4,584.3L194.3,592.7Z" shape-rendering="crispEdges"/><path fill="#AA4207" d="M1857.8,774.8L1775.8,733.6L1760.8,789.3Z" shape-rendering="crispEdges"/><path fill="#C38D57" d="M274.2,1037.5L337.2,1037.3L302.8,958.4Z" shape-rendering="crispEdges"/><path fill="#B68651" d="M337.2,1037.3L347.4,1119.7L410.7,1040.8Z" shape-rendering="crispEdges"/><path fill="#B27F45" d="M505.1,1173.4L407.2,1179.7L582.6,1205.3Z" shape-rendering="crispEdges"/><path fill="#B3834F" d="M347.4,1119.7L407.2,1179.7L429.8,1093.1Z" shape-rendering="crispEdges"/><path fill="#B47329" d="M1937.6,408.9L1863.8,375.2L1859.8,431.6Z" shape-rendering="crispEdges"/><path fill="#B97529" d="M1859.8,431.6L1863.8,375.2L1805,409.7Z" shape-rendering="crispEdges"/><path fill="#C49062" d="M1860,103.1L1776.3,66.8L1759.7,126Z" shape-rendering="crispEdges"/><path fill="#B24E0E" d="M1851.7,710.9L1871.8,628.1L1763.2,650.4Z" shape-rendering="crispEdges"/><path fill="#B25F18" d="M1864.7,574.9L1955.9,510.6L1865,506.6Z" shape-rendering="crispEdges"/><path fill="#B47A3A" d="M1953,324.7L1868.9,299.8L1863.8,375.2Z" shape-rendering="crispEdges"/><path fill="#CE956F" d="M1776.4,-14.3L1702.6,-1.3L1722.4,48.4Z" shape-rendering="crispEdges"/><path fill="#D2976C" d="M1722.4,48.4L1702.6,-1.3L1658.8,48.9Z" shape-rendering="crispEdges"/><path fill="#DC9C72" d="M1643,-28.9L1639.1,-109.9L1569.9,-31Z" shape-rendering="crispEdges"/><path fill="#FFEBA5" d="M149.6,250.4L230.2,327.8L230.7,285.5Z" shape-rendering="crispEdges"/><path fill="#FFDA8D" d="M84,418.6L147.3,481.4L133.5,410.1Z" shape-rendering="crispEdges"/><path fill="#FFC783" d="M42,593L115.4,584.3L32.1,514.8Z" shape-rendering="crispEdges"/><path fill="#F5AB6B" d="M189.3,714.4L134.8,740.8L211.4,806.9Z" shape-rendering="crispEdges"/><path fill="#E8A165" d="M211.4,806.9L156.4,854.1L225.7,851.6Z" shape-rendering="crispEdges"/><path fill="#CC925D" d="M225.7,1015.2L302.8,958.4L184.4,953.5Z" shape-rendering="crispEdges"/><path fill="#D5965D" d="M302.8,958.4L270.2,882.2L184.4,953.5Z" shape-rendering="crispEdges"/><path fill="#FCB472" d="M108.1,637.8L134.8,740.8L194.9,680Z" shape-rendering="crispEdges"/><path fill="#FFF4C2" d="M414.5,-110.9L376,-108.5L412.5,-5.3Z" shape-rendering="crispEdges"/><path fill="#FFF6C6" d="M264.7,-125.4L376,-108.5L414.5,-110.9Z" shape-rendering="crispEdges"/><path fill="#FFF7C7" d="M376,-108.5L295.5,-18.9L353,-2.4Z" shape-rendering="crispEdges"/><path fill="#FFF2B5" d="M159.7,187.3L149.6,250.4L187.3,215.9Z" shape-rendering="crispEdges"/><path fill="#FFF7BD" d="M159.7,187.3L264.6,146.1L195.8,102.8Z" shape-rendering="crispEdges"/><path fill="#FFEFAE" d="M187.3,215.9L149.6,250.4L230.7,285.5Z" shape-rendering="crispEdges"/><path fill="#FFBD7D" d="M56.5,678.7L108.1,637.8L42,593Z" shape-rendering="crispEdges"/><path fill="#FFC079" d="M115.4,584.3L108.1,637.8L194.3,592.7Z" shape-rendering="crispEdges"/><path fill="#A43C05" d="M1791.9,864.6L1857.8,774.8L1760.8,789.3Z" shape-rendering="crispEdges"/><path fill="#AB5010" d="M1933.8,669.3L1913.1,604.5L1871.8,628.1Z" shape-rendering="crispEdges"/><path fill="#9C3805" d="M1846.7,877.7L1857.8,774.8L1791.9,864.6Z" shape-rendering="crispEdges"/><path fill="#7E2C06" d="M1733.2,1151.1L1709.3,1074.5L1612.9,1114.8Z" shape-rendering="crispEdges"/><path fill="#8C3005" d="M1777.8,1003.1L1783.4,965.3L1683.8,950Z" shape-rendering="crispEdges"/><path fill="#8C3005" d="M1777.8,1003.1L1683.8,950L1689.3,1023.8Z" shape-rendering="crispEdges"/><path fill="#F1A76B" d="M107.8,822L211.4,806.9L134.8,740.8Z" shape-rendering="crispEdges"/><path fill="#EBA268" d="M107.8,822L156.4,854.1L211.4,806.9Z" shape-rendering="crispEdges"/><path fill="#B46C23" d="M1937.6,408.9L1859.8,431.6L1865,506.6Z" shape-rendering="crispEdges"/><path fill="#BB7E3C" d="M1863.8,375.2L1868.9,299.8L1797.5,291.9Z" shape-rendering="crispEdges"/><path fill="#CA9365" d="M1759.7,126L1776.3,66.8L1722.4,48.4Z" shape-rendering="crispEdges"/><path fill="#FFF8C1" d="M195.8,102.8L264.6,146.1L271.5,49.2Z" shape-rendering="crispEdges"/><path fill="#FFE39A" d="M45.1,368.7L84,418.6L131.3,354.8Z" shape-rendering="crispEdges"/><path fill="#D79A72" d="M1690.5,-80L1639.1,-109.9L1643,-28.9Z" shape-rendering="crispEdges"/><path fill="#E29F74" d="M1552.8,-75.9L1639.1,-109.9L1501.2,-87.4Z" shape-rendering="crispEdges"/><path fill="#E8A275" d="M1501.2,-87.4L1639.1,-109.9L1406.9,-87.4Z" shape-rendering="crispEdges"/><path fill="#C28C56" d="M1858.3,191.2L1759.7,126L1794.6,230.6Z" shape-rendering="crispEdges"/><path fill="#D59871" d="M1702.6,-1.3L1690.5,-80L1643,-28.9Z" shape-rendering="crispEdges"/><path fill="#FFF9C8" d="M193.1,46.4L195.8,102.8L271.5,49.2Z" shape-rendering="crispEdges"/><path fill="#DC9A61" d="M184.4,953.5L270.2,882.2L225.7,851.6Z" shape-rendering="crispEdges"/><path fill="#B88957" d="M274.2,1037.5L282.1,1109.5L337.2,1037.3Z" shape-rendering="crispEdges"/><path fill="#B38551" d="M347.4,1119.7L336.7,1175.6L407.2,1179.7Z" shape-rendering="crispEdges"/><path fill="#832E06" d="M1709.3,1074.5L1777.8,1003.1L1689.3,1023.8Z" shape-rendering="crispEdges"/><path fill="#933405" d="M1783.4,965.3L1846.7,877.7L1791.9,864.6Z" shape-rendering="crispEdges"/><path fill="#DF9C64" d="M156.4,854.1L184.4,953.5L225.7,851.6Z" shape-rendering="crispEdges"/><path fill="#8B3206" d="M1491.4,1205L1616.3,1205.4L1564,1173.7Z" shape-rendering="crispEdges"/><path fill="#873006" d="M1564,1173.7L1616.3,1205.4L1612.9,1114.8Z" shape-rendering="crispEdges"/><path fill="#7A2B06" d="M1802.4,1086.5L1844.5,1019.3L1777.8,1003.1Z" shape-rendering="crispEdges"/><path fill="#A94E10" d="M582.6,1205.3L1616.3,1205.4L1209.8,1204.8Z" shape-rendering="crispEdges"/><path fill="#FFE8A6" d="M45.1,368.7L131.3,354.8L45.3,272.3Z" shape-rendering="crispEdges"/><path fill="#FFE094" d="M131.3,354.8L84,418.6L133.5,410.1Z" shape-rendering="crispEdges"/><path fill="#8A3005" d="M1866,961.5L1846.7,877.7L1783.4,965.3Z" shape-rendering="crispEdges"/><path fill="#AB4B0E" d="M1933.8,669.3L1871.8,628.1L1851.7,710.9Z" shape-rendering="crispEdges"/><path fill="#AF5513" d="M1871.8,628.1L1913.1,604.5L1864.7,574.9Z" shape-rendering="crispEdges"/><path fill="#A4460C" d="M1933.8,669.3L1851.7,710.9L1937.7,738.6Z" shape-rendering="crispEdges"/><path fill="#B4895A" d="M281.9,1170.9L282.1,1109.5L219.7,1122.8Z" shape-rendering="crispEdges"/><path fill="#B4895A" d="M219.7,1122.8L282.1,1109.5L274.2,1037.5Z" shape-rendering="crispEdges"/><path fill="#CF9671" d="M1776.4,-14.3L1690.5,-80L1702.6,-1.3Z" shape-rendering="crispEdges"/><path fill="#B48655" d="M281.9,1170.9L336.7,1175.6L347.4,1119.7Z" shape-rendering="crispEdges"/><path fill="#B3824B" d="M407.2,1179.7L336.7,1175.6L582.6,1205.3Z" shape-rendering="crispEdges"/><path fill="#BC864D" d="M1868.9,299.8L1858.3,191.2L1794.6,230.6Z" shape-rendering="crispEdges"/><path fill="#CA946B" d="M1776.3,66.8L1776.4,-14.3L1722.4,48.4Z" shape-rendering="crispEdges"/><path fill="#B7834B" d="M1935.1,257.1L1858.3,191.2L1868.9,299.8Z" shape-rendering="crispEdges"/><path fill="#D89865" d="M156.4,854.1L145.4,959.5L184.4,953.5Z" shape-rendering="crispEdges"/><path fill="#F4AB71" d="M46.6,737.9L107.8,822L134.8,740.8Z" shape-rendering="crispEdges"/><path fill="#FDB576" d="M56.5,678.7L134.8,740.8L108.1,637.8Z" shape-rendering="crispEdges"/><path fill="#FFFACE" d="M230.5,-26.2L271.5,49.2L295.5,-18.9Z" shape-rendering="crispEdges"/><path fill="#FFFACE" d="M230.5,-26.2L193.1,46.4L271.5,49.2Z" shape-rendering="crispEdges"/><path fill="#FFF8C2" d="M195.8,102.8L127.9,136.5L159.7,187.3Z" shape-rendering="crispEdges"/><path fill="#FFF2BA" d="M44.8,183.6L45.3,272.3L149.6,250.4Z" shape-rendering="crispEdges"/><path fill="#FFFBD0" d="M217.1,-82.3L230.5,-26.2L295.5,-18.9Z" shape-rendering="crispEdges"/><path fill="#A3420A" d="M1937.7,738.6L1851.7,710.9L1857.8,774.8Z" shape-rendering="crispEdges"/><path fill="#B06720" d="M1955.9,510.6L1937.6,408.9L1865,506.6Z" shape-rendering="crispEdges"/><path fill="#AF5A15" d="M1955.9,510.6L1864.7,574.9L1913.1,604.5Z" shape-rendering="crispEdges"/><path fill="#C4916B" d="M1883.1,40L1776.4,-14.3L1776.3,66.8Z" shape-rendering="crispEdges"/><path fill="#FFC17D" d="M42,593L108.1,637.8L115.4,584.3Z" shape-rendering="crispEdges"/><path fill="#FFFACD" d="M78.4,134.4L127.9,136.5L120.2,27.7Z" shape-rendering="crispEdges"/><path fill="#FFFACB" d="M120.2,27.7L127.9,136.5L195.8,102.8Z" shape-rendering="crispEdges"/><path fill="#C79266" d="M156.2,1009.9L145.4,959.5L78.3,1031.8Z" shape-rendering="crispEdges"/><path fill="#DA9A68" d="M86.5,927.7L145.4,959.5L156.4,854.1Z" shape-rendering="crispEdges"/><path fill="#C89261" d="M184.4,953.5L156.2,1009.9L225.7,1015.2Z" shape-rendering="crispEdges"/><path fill="#B48756" d="M282.1,1109.5L281.9,1170.9L347.4,1119.7Z" shape-rendering="crispEdges"/><path fill="#FFCC83" d="M32.1,514.8L115.4,584.3L147.3,481.4Z" shape-rendering="crispEdges"/><path fill="#FFD58B" d="M32.1,514.8L147.3,481.4L84,418.6Z" shape-rendering="crispEdges"/><path fill="#AD5915" d="M2020.8,589.5L1955.9,510.6L1913.1,604.5Z" shape-rendering="crispEdges"/><path fill="#B98B5C" d="M219.7,1122.8L274.2,1037.5L225.7,1015.2Z" shape-rendering="crispEdges"/><path fill="#B48654" d="M336.7,1175.6L61.7,1179.4L582.6,1205.3Z" shape-rendering="crispEdges"/><path fill="#B98B5B" d="M1922.7,130L1860,103.1L1858.3,191.2Z" shape-rendering="crispEdges"/><path fill="#C08E5C" d="M1858.3,191.2L1860,103.1L1759.7,126Z" shape-rendering="crispEdges"/><path fill="#9C3D08" d="M1962.3,792.5L1937.7,738.6L1857.8,774.8Z" shape-rendering="crispEdges"/><path fill="#B0641E" d="M2024.8,512.1L1986.6,452L1955.9,510.6Z" shape-rendering="crispEdges"/><path fill="#9A3906" d="M1962.3,792.5L1857.8,774.8L1846.7,877.7Z" shape-rendering="crispEdges"/><path fill="#FFD992" d="M1.1,432.4L32.1,514.8L84,418.6Z" shape-rendering="crispEdges"/><path fill="#FFECAC" d="M45.3,272.3L131.3,354.8L149.6,250.4Z" shape-rendering="crispEdges"/><path fill="#822E06" d="M1616.3,1205.4L1733.2,1151.1L1612.9,1114.8Z" shape-rendering="crispEdges"/><path fill="#812D06" d="M1844.5,1019.3L1866,961.5L1783.4,965.3Z" shape-rendering="crispEdges"/><path fill="#CD9364" d="M145.4,959.5L156.2,1009.9L184.4,953.5Z" shape-rendering="crispEdges"/><path fill="#DE9C6B" d="M86.5,927.7L156.4,854.1L68.4,893.9Z" shape-rendering="crispEdges"/><path fill="#822D06" d="M1844.5,1019.3L1783.4,965.3L1777.8,1003.1Z" shape-rendering="crispEdges"/><path fill="#FBB37B" d="M-35,713.2L46.6,737.9L56.5,678.7Z" shape-rendering="crispEdges"/><path fill="#FAB176" d="M56.5,678.7L46.6,737.9L134.8,740.8Z" shape-rendering="crispEdges"/><path fill="#F8AF79" d="M35.5,776.8L46.6,737.9L-35,713.2Z" shape-rendering="crispEdges"/><path fill="#B17531" d="M1953,324.7L1863.8,375.2L1937.6,408.9Z" shape-rendering="crispEdges"/><path fill="#B27E42" d="M1953,324.7L1935.1,257.1L1868.9,299.8Z" shape-rendering="crispEdges"/><path fill="#B17631" d="M2006.9,372.1L1953,324.7L1937.6,408.9Z" shape-rendering="crispEdges"/><path fill="#BC8D5F" d="M156.2,1009.9L219.7,1122.8L225.7,1015.2Z" shape-rendering="crispEdges"/><path fill="#7B2B06" d="M1802.4,1086.5L1777.8,1003.1L1709.3,1074.5Z" shape-rendering="crispEdges"/><path fill="#FFF8CA" d="M376,-108.5L264.7,-125.4L295.5,-18.9Z" shape-rendering="crispEdges"/><path fill="#FFFCD5" d="M156.6,-31.9L120.2,27.7L193.1,46.4Z" shape-rendering="crispEdges"/><path fill="#FFF3BF" d="M613.1,-123.5L264.7,-125.4L414.5,-110.9Z" shape-rendering="crispEdges"/><path fill="#FFEAAD" d="M870.2,-123.6L264.7,-125.4L613.1,-123.5Z" shape-rendering="crispEdges"/><path fill="#782A06" d="M1733.2,1151.1L1802.4,1086.5L1709.3,1074.5Z" shape-rendering="crispEdges"/><path fill="#B48858" d="M1922.7,130L1927.3,209.2L2037.7,144.5Z" shape-rendering="crispEdges"/><path fill="#B5844F" d="M1935.1,257.1L1927.3,209.2L1858.3,191.2Z" shape-rendering="crispEdges"/><path fill="#FFF7C2" d="M44.8,183.6L159.7,187.3L127.9,136.5Z" shape-rendering="crispEdges"/><path fill="#FFF4BB" d="M44.8,183.6L149.6,250.4L159.7,187.3Z" shape-rendering="crispEdges"/><path fill="#FFE097" d="M45.1,368.7L1.1,432.4L84,418.6Z" shape-rendering="crispEdges"/><path fill="#FFFACF" d="M264.7,-125.4L217.1,-82.3L295.5,-18.9Z" shape-rendering="crispEdges"/><path fill="#FFBC7F" d="M-18.6,663.1L56.5,678.7L42,593Z" shape-rendering="crispEdges"/><path fill="#F3AA73" d="M46.6,737.9L35.5,776.8L107.8,822Z" shape-rendering="crispEdges"/><path fill="#AA5111" d="M2020.8,589.5L1913.1,604.5L1933.8,669.3Z" shape-rendering="crispEdges"/><path fill="#B06A22" d="M1955.9,510.6L1986.6,452L1937.6,408.9Z" shape-rendering="crispEdges"/><path fill="#B3834E" d="M2027.2,210.1L1927.3,209.2L1935.1,257.1Z" shape-rendering="crispEdges"/><path fill="#E6A06B" d="M68.4,893.9L156.4,854.1L107.8,822Z" shape-rendering="crispEdges"/><path fill="#B58A5F" d="M140.1,1167.2L222,1165.3L219.7,1122.8Z" shape-rendering="crispEdges"/><path fill="#C08F65" d="M1883.1,40L1776.3,66.8L1860,103.1Z" shape-rendering="crispEdges"/><path fill="#C69270" d="M1837.5,-79.8L1790.8,-74.1L1776.4,-14.3Z" shape-rendering="crispEdges"/><path fill="#CC9570" d="M1776.4,-14.3L1790.8,-74.1L1690.5,-80Z" shape-rendering="crispEdges"/><path fill="#D19771" d="M1690.5,-80L1790.8,-74.1L1639.1,-109.9Z" shape-rendering="crispEdges"/><path fill="#EBA370" d="M35.5,776.8L68.4,893.9L107.8,822Z" shape-rendering="crispEdges"/><path fill="#FFFACE" d="M120.2,27.7L195.8,102.8L193.1,46.4Z" shape-rendering="crispEdges"/><path fill="#FFE4A2" d="M-31.1,326.4L1.1,432.4L45.1,368.7Z" shape-rendering="crispEdges"/><path fill="#FFC987" d="M32.1,514.8L-18.1,565L42,593Z" shape-rendering="crispEdges"/><path fill="#FFDA95" d="M-42,484.3L1.1,432.4L-107.3,440.7Z" shape-rendering="crispEdges"/><path fill="#8F3406" d="M1961,903.8L1962.3,792.5L1846.7,877.7Z" shape-rendering="crispEdges"/><path fill="#A94E10" d="M2020.6,659.4L2020.8,589.5L1933.8,669.3Z" shape-rendering="crispEdges"/><path fill="#883006" d="M1961,903.8L1846.7,877.7L1866,961.5Z" shape-rendering="crispEdges"/><path fill="#B78B62" d="M114.6,1083L219.7,1122.8L156.2,1009.9Z" shape-rendering="crispEdges"/><path fill="#B5895B" d="M219.7,1122.8L222,1165.3L281.9,1170.9Z" shape-rendering="crispEdges"/><path fill="#B58A5D" d="M281.9,1170.9L61.7,1179.4L336.7,1175.6Z" shape-rendering="crispEdges"/><path fill="#B68756" d="M1927.3,209.2L1922.7,130L1858.3,191.2Z" shape-rendering="crispEdges"/><path fill="#B27E44" d="M2001.2,280.6L1935.1,257.1L1953,324.7Z" shape-rendering="crispEdges"/><path fill="#FFFCD4" d="M156.6,-31.9L193.1,46.4L230.5,-26.2Z" shape-rendering="crispEdges"/><path fill="#FFFCD7" d="M107.3,-79.7L156.6,-31.9L217.1,-82.3Z" shape-rendering="crispEdges"/><path fill="#FFFCD4" d="M217.1,-82.3L156.6,-31.9L230.5,-26.2Z" shape-rendering="crispEdges"/><path fill="#BA8D65" d="M1912.9,72.9L1883.1,40L1860,103.1Z" shape-rendering="crispEdges"/><path fill="#FFF7C8" d="M-20.8,230.3L44.8,183.6L-19.3,147.8Z" shape-rendering="crispEdges"/><path fill="#FFF8C7" d="M78.4,134.4L44.8,183.6L127.9,136.5Z" shape-rendering="crispEdges"/><path fill="#FFCF8C" d="M-42,484.3L-18.1,565L32.1,514.8Z" shape-rendering="crispEdges"/><path fill="#7B2B06" d="M1616.3,1205.4L1800.1,1158.8L1733.2,1151.1Z" shape-rendering="crispEdges"/><path fill="#752906" d="M1733.2,1151.1L1800.1,1158.8L1802.4,1086.5Z" shape-rendering="crispEdges"/><path fill="#712806" d="M1802.4,1086.5L1851.3,1105.1L1844.5,1019.3Z" shape-rendering="crispEdges"/><path fill="#7F2D06" d="M1955.1,964.1L1961,903.8L1866,961.5Z" shape-rendering="crispEdges"/><path fill="#B06B23" d="M2024.8,512.1L2006.9,372.1L1986.6,452Z" shape-rendering="crispEdges"/><path fill="#B07128" d="M1986.6,452L2006.9,372.1L1937.6,408.9Z" shape-rendering="crispEdges"/><path fill="#B68C67" d="M1960.8,3.9L1912.9,72.9L2033.8,76.4Z" shape-rendering="crispEdges"/><path fill="#B88B60" d="M1922.7,130L1912.9,72.9L1860,103.1Z" shape-rendering="crispEdges"/><path fill="#C2916F" d="M1866.5,-50.3L1837.5,-79.8L1776.4,-14.3Z" shape-rendering="crispEdges"/><path fill="#FFC284" d="M-18.1,565L-18.6,663.1L42,593Z" shape-rendering="crispEdges"/><path fill="#D99A6E" d="M1.5,943.5L86.5,927.7L68.4,893.9Z" shape-rendering="crispEdges"/><path fill="#A3450C" d="M2007.8,702.8L1933.8,669.3L1937.7,738.6Z" shape-rendering="crispEdges"/><path fill="#9B3C08" d="M2004.7,830.2L2007.8,702.8L1962.3,792.5Z" shape-rendering="crispEdges"/><path fill="#9F400A" d="M1962.3,792.5L2007.8,702.8L1937.7,738.6Z" shape-rendering="crispEdges"/><path fill="#AF5D17" d="M2020.8,589.5L2024.8,512.1L1955.9,510.6Z" shape-rendering="crispEdges"/><path fill="#712806" d="M1800.1,1158.8L1851.3,1105.1L1802.4,1086.5Z" shape-rendering="crispEdges"/><path fill="#A6490E" d="M2007.8,702.8L2020.6,659.4L1933.8,669.3Z" shape-rendering="crispEdges"/><path fill="#AC5614" d="M2020.8,589.5L2020.6,659.4L2024.8,512.1Z" shape-rendering="crispEdges"/><path fill="#B27E44" d="M2027.2,210.1L2001.2,280.6L2006.9,372.1Z" shape-rendering="crispEdges"/><path fill="#B27A3B" d="M2006.9,372.1L2001.2,280.6L1953,324.7Z" shape-rendering="crispEdges"/><path fill="#792B06" d="M1955.1,964.1L1866,961.5L1950.4,1007Z" shape-rendering="crispEdges"/><path fill="#A0420B" d="M2007.8,702.8L2004.7,830.2L2020.6,659.4Z" shape-rendering="crispEdges"/><path fill="#C0916F" d="M1866.5,-50.3L1776.4,-14.3L1883.1,40Z" shape-rendering="crispEdges"/><path fill="#CB9570" d="M1790.8,-74.1L1837.5,-79.8L1639.1,-109.9Z" shape-rendering="crispEdges"/><path fill="#FFEAAD" d="M-31.1,326.4L45.1,368.7L45.3,272.3Z" shape-rendering="crispEdges"/><path fill="#FFD692" d="M1.1,432.4L-42,484.3L32.1,514.8Z" shape-rendering="crispEdges"/><path fill="#FFB77F" d="M-92.5,662.8L-35,713.2L-18.6,663.1Z" shape-rendering="crispEdges"/><path fill="#BE8E66" d="M78.3,1031.8L114.6,1083L156.2,1009.9Z" shape-rendering="crispEdges"/><path fill="#CD9468" d="M78.3,1031.8L145.4,959.5L86.5,927.7Z" shape-rendering="crispEdges"/><path fill="#CB946C" d="M78.3,1031.8L86.5,927.7L-0.5,1003.7Z" shape-rendering="crispEdges"/><path fill="#B68C69" d="M1960.8,3.9L1883.1,40L1912.9,72.9Z" shape-rendering="crispEdges"/><path fill="#B98E6E" d="M1960.8,3.9L1866.5,-50.3L1883.1,40Z" shape-rendering="crispEdges"/><path fill="#FFEEB4" d="M-31.9,294.6L-31.1,326.4L45.3,272.3Z" shape-rendering="crispEdges"/><path fill="#FFF1BC" d="M-31.9,294.6L45.3,272.3L-20.8,230.3Z" shape-rendering="crispEdges"/><path fill="#E8A272" d="M-10.1,873.6L68.4,893.9L35.5,776.8Z" shape-rendering="crispEdges"/><path fill="#FFBF83" d="M-92.5,662.8L-18.6,663.1L-18.1,565Z" shape-rendering="crispEdges"/><path fill="#FEB77F" d="M-18.6,663.1L-35,713.2L56.5,678.7Z" shape-rendering="crispEdges"/><path fill="#8B3206" d="M2019.6,896L2004.7,830.2L1961,903.8Z" shape-rendering="crispEdges"/><path fill="#923506" d="M1961,903.8L2004.7,830.2L1962.3,792.5Z" shape-rendering="crispEdges"/><path fill="#792B06" d="M1950.4,1007L1866,961.5L1844.5,1019.3Z" shape-rendering="crispEdges"/><path fill="#FFF4C0" d="M-20.8,230.3L45.3,272.3L44.8,183.6Z" shape-rendering="crispEdges"/><path fill="#FFD692" d="M-107.3,440.7L-78,502.8L-42,484.3Z" shape-rendering="crispEdges"/><path fill="#FFF9CA" d="M-19.3,147.8L44.8,183.6L78.4,134.4Z" shape-rendering="crispEdges"/><path fill="#FFFCD4" d="M31.9,36.3L78.4,134.4L120.2,27.7Z" shape-rendering="crispEdges"/><path fill="#F3A977" d="M-64.1,775.8L-25.3,817.4L35.5,776.8Z" shape-rendering="crispEdges"/><path fill="#EEA576" d="M-25.3,817.4L-10.1,873.6L35.5,776.8Z" shape-rendering="crispEdges"/><path fill="#6C2706" d="M1909.3,1104.1L1844.5,1019.3L1851.3,1105.1Z" shape-rendering="crispEdges"/><path fill="#6F2806" d="M1909.3,1104.1L1950.4,1007L1844.5,1019.3Z" shape-rendering="crispEdges"/><path fill="#832E06" d="M1955.1,964.1L2019.6,896L1961,903.8Z" shape-rendering="crispEdges"/><path fill="#B88C68" d="M53.1,1102.2L114.6,1083L78.3,1031.8Z" shape-rendering="crispEdges"/><path fill="#B68B66" d="M53.1,1102.2L140.1,1167.2L114.6,1083Z" shape-rendering="crispEdges"/><path fill="#B58B62" d="M114.6,1083L140.1,1167.2L219.7,1122.8Z" shape-rendering="crispEdges"/><path fill="#B58A5D" d="M222,1165.3L140.1,1167.2L281.9,1170.9Z" shape-rendering="crispEdges"/><path fill="#FFE09B" d="M-107.3,440.7L1.1,432.4L-116.4,358.8Z" shape-rendering="crispEdges"/><path fill="#FFCF8D" d="M-42,484.3L-78,502.8L-18.1,565Z" shape-rendering="crispEdges"/><path fill="#F7AE7A" d="M-35,713.2L-64.1,775.8L35.5,776.8Z" shape-rendering="crispEdges"/><path fill="#FFECB2" d="M-71,303.6L-31.1,326.4L-31.9,294.6Z" shape-rendering="crispEdges"/><path fill="#FFFCD4" d="M264.7,-125.4L107.3,-79.7L217.1,-82.3Z" shape-rendering="crispEdges"/><path fill="#FFFDDC" d="M156.6,-31.9L53.5,-39.8L120.2,27.7Z" shape-rendering="crispEdges"/><path fill="#B17632" d="M2024.8,512.1L2027.2,210.1L2006.9,372.1Z" shape-rendering="crispEdges"/><path fill="#B3824B" d="M2001.2,280.6L2027.2,210.1L1935.1,257.1Z" shape-rendering="crispEdges"/><path fill="#D89A72" d="M-80.5,965.6L1.5,943.5L-10.1,873.6Z" shape-rendering="crispEdges"/><path fill="#DD9C71" d="M-10.1,873.6L1.5,943.5L68.4,893.9Z" shape-rendering="crispEdges"/><path fill="#6A2606" d="M1875.3,1180.8L1909.3,1104.1L1851.3,1105.1Z" shape-rendering="crispEdges"/><path fill="#FFFEDE" d="M53.5,-39.8L31.9,36.3L120.2,27.7Z" shape-rendering="crispEdges"/><path fill="#FFFBD2" d="M31.9,36.3L-19.3,147.8L78.4,134.4Z" shape-rendering="crispEdges"/><path fill="#FFF0BA" d="M-20.8,230.3L-71,303.6L-31.9,294.6Z" shape-rendering="crispEdges"/><path fill="#782A06" d="M2029.1,972.3L1955.1,964.1L1950.4,1007Z" shape-rendering="crispEdges"/><path fill="#7F2D06" d="M2029.1,972.3L2019.6,896L1955.1,964.1Z" shape-rendering="crispEdges"/><path fill="#993A07" d="M2004.7,830.2L2019.6,896L2020.6,659.4Z" shape-rendering="crispEdges"/><path fill="#A2440B" d="M2020.6,659.4L2029.1,972.3L2024.8,512.1Z" shape-rendering="crispEdges"/><path fill="#F8AF7A" d="M-111.4,751.5L-64.1,775.8L-35,713.2Z" shape-rendering="crispEdges"/><path fill="#E8A275" d="M-25.3,817.4L-74.2,863.2L-10.1,873.6Z" shape-rendering="crispEdges"/><path fill="#FFF3C0" d="M-114.3,178.9L-71,303.6L-20.8,230.3Z" shape-rendering="crispEdges"/><path fill="#6E2706" d="M1800.1,1158.8L1875.3,1180.8L1851.3,1105.1Z" shape-rendering="crispEdges"/><path fill="#742906" d="M2009,1034.4L2029.1,972.3L1950.4,1007Z" shape-rendering="crispEdges"/><path fill="#762A06" d="M1616.3,1205.4L1875.3,1180.8L1800.1,1158.8Z" shape-rendering="crispEdges"/><path fill="#FFD28F" d="M-107.3,440.7L-98.5,551.2L-78,502.8Z" shape-rendering="crispEdges"/><path fill="#FFCC8A" d="M-78,502.8L-98.5,551.2L-18.1,565Z" shape-rendering="crispEdges"/><path fill="#B58A61" d="M2033.8,76.4L1912.9,72.9L1922.7,130Z" shape-rendering="crispEdges"/><path fill="#BB8F6F" d="M1866.5,-50.3L1940.4,-112L1837.5,-79.8Z" shape-rendering="crispEdges"/><path fill="#FFC486" d="M-98.5,551.2L-92.5,662.8L-18.1,565Z" shape-rendering="crispEdges"/><path fill="#FFFDDC" d="M107.3,-79.7L53.5,-39.8L156.6,-31.9Z" shape-rendering="crispEdges"/><path fill="#FFFDD9" d="M31.9,36.3L-15,46.5L-19.3,147.8Z" shape-rendering="crispEdges"/><path fill="#B78C6B" d="M9,1102L53.1,1102.2L78.3,1031.8Z" shape-rendering="crispEdges"/><path fill="#D1976F" d="M-0.5,1003.7L86.5,927.7L1.5,943.5Z" shape-rendering="crispEdges"/><path fill="#CF9671" d="M-80.5,965.6L-0.5,1003.7L1.5,943.5Z" shape-rendering="crispEdges"/><path fill="#FFE5A3" d="M-116.4,358.8L1.1,432.4L-31.1,326.4Z" shape-rendering="crispEdges"/><path fill="#FFBB81" d="M-98.5,551.2L-111.4,751.5L-92.5,662.8Z" shape-rendering="crispEdges"/><path fill="#B48654" d="M2027.2,210.1L2037.7,144.5L1927.3,209.2Z" shape-rendering="crispEdges"/><path fill="#B27E43" d="M2024.8,512.1L2037.7,144.5L2027.2,210.1Z" shape-rendering="crispEdges"/><path fill="#AF5C17" d="M2029.1,972.3L2037.7,144.5L2024.8,512.1Z" shape-rendering="crispEdges"/><path fill="#FFFEE0" d="M12.8,-8.5L-15,46.5L31.9,36.3Z" shape-rendering="crispEdges"/><path fill="#FFF0B9" d="M-114.3,178.9L-116.4,358.8L-71,303.6Z" shape-rendering="crispEdges"/><path fill="#FFEAAD" d="M-71,303.6L-116.4,358.8L-31.1,326.4Z" shape-rendering="crispEdges"/><path fill="#FFFEE2" d="M53.5,-39.8L12.8,-8.5L31.9,36.3Z" shape-rendering="crispEdges"/><path fill="#F2A877" d="M-111.4,751.5L-74.2,863.2L-64.1,775.8Z" shape-rendering="crispEdges"/><path fill="#EFA676" d="M-64.1,775.8L-74.2,863.2L-25.3,817.4Z" shape-rendering="crispEdges"/><path fill="#6C2706" d="M2009,1034.4L1950.4,1007L1909.3,1104.1Z" shape-rendering="crispEdges"/><path fill="#913506" d="M2019.6,896L2029.1,972.3L2020.6,659.4Z" shape-rendering="crispEdges"/><path fill="#FFF7C8" d="M-114.3,178.9L-20.8,230.3L-19.3,147.8Z" shape-rendering="crispEdges"/><path fill="#FFC687" d="M-107.3,440.7L-111.4,751.5L-98.5,551.2Z" shape-rendering="crispEdges"/><path fill="#FFCF8D" d="M-116.4,358.8L-111.4,751.5L-107.3,440.7Z" shape-rendering="crispEdges"/><path fill="#FCB47D" d="M-92.5,662.8L-111.4,751.5L-35,713.2Z" shape-rendering="crispEdges"/><path fill="#B58A5E" d="M2037.7,144.5L2033.8,76.4L1922.7,130Z" shape-rendering="crispEdges"/><path fill="#662506" d="M2015.5,1100.8L2009,1034.4L1909.3,1104.1Z" shape-rendering="crispEdges"/><path fill="#682506" d="M1875.3,1180.8L1928.2,1172.6L1909.3,1104.1Z" shape-rendering="crispEdges"/><path fill="#B68C6B" d="M9,1102L61.7,1179.4L53.1,1102.2Z" shape-rendering="crispEdges"/><path fill="#B68C68" d="M53.1,1102.2L61.7,1179.4L140.1,1167.2Z" shape-rendering="crispEdges"/><path fill="#B58B62" d="M140.1,1167.2L61.7,1179.4L281.9,1170.9Z" shape-rendering="crispEdges"/><path fill="#BE8F6D" d="M9,1102L78.3,1031.8L-0.5,1003.7Z" shape-rendering="crispEdges"/><path fill="#B78D6E" d="M1983.8,-124.9L1940.4,-112L1960.8,3.9Z" shape-rendering="crispEdges"/><path fill="#B78D6E" d="M1960.8,3.9L1940.4,-112L1866.5,-50.3Z" shape-rendering="crispEdges"/><path fill="#C59270" d="M1837.5,-79.8L1940.4,-112L1639.1,-109.9Z" shape-rendering="crispEdges"/><path fill="#E6A174" d="M1639.1,-109.9L1983.8,-124.9L976.1,-122.9Z" shape-rendering="crispEdges"/><path fill="#B88D6E" d="M-68.8,1116.6L9,1102L-0.5,1003.7Z" shape-rendering="crispEdges"/><path fill="#B68C6A" d="M2033.8,76.4L2014.7,1.3L1960.8,3.9Z" shape-rendering="crispEdges"/><path fill="#FFFEDF" d="M107.3,-79.7L42.1,-121.6L53.5,-39.8Z" shape-rendering="crispEdges"/><path fill="#FFFFE4" d="M53.5,-39.8L-34.3,-93.1L12.8,-8.5Z" shape-rendering="crispEdges"/><path fill="#FFFDD9" d="M-70,34.6L-19.3,147.8L-15,46.5Z" shape-rendering="crispEdges"/><path fill="#FFFDD9" d="M264.7,-125.4L42.1,-121.6L107.3,-79.7Z" shape-rendering="crispEdges"/><path fill="#D49871" d="M-110.6,1020.3L-80.5,965.6L-74.2,863.2Z" shape-rendering="crispEdges"/><path fill="#DE9D73" d="M-74.2,863.2L-80.5,965.6L-10.1,873.6Z" shape-rendering="crispEdges"/><path fill="#FFFCD4" d="M-105.8,143.8L-19.3,147.8L-70,34.6Z" shape-rendering="crispEdges"/><path fill="#FFF9CD" d="M-105.8,143.8L-114.3,178.9L-19.3,147.8Z" shape-rendering="crispEdges"/><path fill="#FFFEE1" d="M-70,34.6L-15,46.5L12.8,-8.5Z" shape-rendering="crispEdges"/><path fill="#662506" d="M2007.3,1162.2L2015.5,1100.8L1909.3,1104.1Z" shape-rendering="crispEdges"/><path fill="#6E2706" d="M2009,1034.4L2015.5,1100.8L2029.1,972.3Z" shape-rendering="crispEdges"/><path fill="#FFFFE5" d="M-77.7,-26.2L-70,34.6L12.8,-8.5Z" shape-rendering="crispEdges"/><path fill="#B78D6E" d="M2033.8,76.4L1983.8,-124.9L2014.7,1.3Z" shape-rendering="crispEdges"/><path fill="#B78D6E" d="M2014.7,1.3L1983.8,-124.9L1960.8,3.9Z" shape-rendering="crispEdges"/><path fill="#BF906F" d="M1940.4,-112L1983.8,-124.9L1639.1,-109.9Z" shape-rendering="crispEdges"/><path fill="#FBB27C" d="M976.1,-122.9L1983.8,-124.9L870.2,-123.6Z" shape-rendering="crispEdges"/><path fill="#FFC586" d="M870.2,-123.6L1983.8,-124.9L264.7,-125.4Z" shape-rendering="crispEdges"/><path fill="#662506" d="M1875.3,1180.8L2007.3,1162.2L1928.2,1172.6Z" shape-rendering="crispEdges"/><path fill="#662506" d="M1928.2,1172.6L2007.3,1162.2L1909.3,1104.1Z" shape-rendering="crispEdges"/><path fill="#FFFFE3" d="M42.1,-121.6L-34.3,-93.1L53.5,-39.8Z" shape-rendering="crispEdges"/><path fill="#FFFEE0" d="M-70,34.6L-113.2,-88.4L-105.8,143.8Z" shape-rendering="crispEdges"/><path fill="#FFFFE5" d="M-34.3,-93.1L-77.7,-26.2L12.8,-8.5Z" shape-rendering="crispEdges"/><path fill="#FFFDD9" d="M-105.8,143.8L-113.2,-88.4L-114.3,178.9Z" shape-rendering="crispEdges"/><path fill="#E29F74" d="M-111.4,751.5L-110.6,1020.3L-74.2,863.2Z" shape-rendering="crispEdges"/><path fill="#C99470" d="M-80.5,965.6L-110.6,1020.3L-0.5,1003.7Z" shape-rendering="crispEdges"/><path fill="#B78D6D" d="M9,1102L-41,1162.6L61.7,1179.4Z" shape-rendering="crispEdges"/><path fill="#FCB37D" d="M-116.4,358.8L-110.6,1020.3L-111.4,751.5Z" shape-rendering="crispEdges"/><path fill="#B78D6E" d="M-68.8,1116.6L-41,1162.6L9,1102Z" shape-rendering="crispEdges"/><path fill="#BE906F" d="M-110.6,1020.3L-68.8,1116.6L-0.5,1003.7Z" shape-rendering="crispEdges"/><path fill="#B78D6E" d="M-110.6,1020.3L-72.8,1157.3L-68.8,1116.6Z" shape-rendering="crispEdges"/><path fill="#B78D6E" d="M-68.8,1116.6L-72.8,1157.3L-41,1162.6Z" shape-rendering="crispEdges"/><path fill="#FFFFE5" d="M42.1,-121.6L-113.2,-88.4L-34.3,-93.1Z" shape-rendering="crispEdges"/><path fill="#FFFFE5" d="M-34.3,-93.1L-113.2,-88.4L-77.7,-26.2Z" shape-rendering="crispEdges"/><path fill="#FFFFE5" d="M-77.7,-26.2L-113.2,-88.4L-70,34.6Z" shape-rendering="crispEdges"/><path fill="#FFFACE" d="M-114.3,178.9L-113.2,-88.4L-116.4,358.8Z" shape-rendering="crispEdges"/></svg>