<svg xmlns="http://www.w3.org/2000/svg" width="1920" height="1080"><path fill="#6CA5CD" d="M967.4,568.3L1049.2,591.3L1041.7,491.4Z" shape-rendering="crispEdges"/><path fill="#75A9CF" d="M1041.7,491.4L980.7,482.8L967.4,568.3Z" shape-rendering="crispEdges"/><path fill="#6BA4CC" d="M1049.2,591.3L1088.2,510.2L1041.7,491.4Z" shape-rendering="crispEdges"/><path fill="#63A1CA" d="M1049.2,591.3L1137,560.8L1088.2,510.2Z" shape-rendering="crispEdges"/><path fill="#589CC7" d="M968.7,674.2L1042.5,661L1049.2,591.3Z" shape-rendering="crispEdges"/><path fill="#579CC7" d="M1049.2,591.3L1085.5,672L1137,560.8Z" shape-rendering="crispEdges"/><path fill="#7DABD0" d="M1112.2,412L1041.3,414.1L1041.7,491.4Z" shape-rendering="crispEdges"/><path fill="#7DABD1" d="M1041.7,491.4L1041.3,414.1L980.7,482.8Z" shape-rendering="crispEdges"/><path fill="#75A8CE" d="M1112.2,412L1041.7,491.4L1088.2,510.2Z" shape-rendering="crispEdges"/><path fill="#62A0CA" d="M967.4,568.3L968.7,674.2L1049.2,591.3Z" shape-rendering="crispEdges"/><path fill="#7EADD1" d="M857.5,515.3L874.6,557.8L980.7,482.8Z" shape-rendering="crispEdges"/><path fill="#77AAD0" d="M980.7,482.8L874.6,557.8L967.4,568.3Z" shape-rendering="crispEdges"/><path fill="#63A1CA" d="M967.4,568.3L880.9,668.9L968.7,674.2Z" shape-rendering="crispEdges"/><path fill="#4A95C3" d="M1043.8,754.3L1085.5,672L1042.5,661Z" shape-rendering="crispEdges"/><path fill="#549AC6" d="M1042.5,661L1085.5,672L1049.2,591.3Z" shape-rendering="crispEdges"/><path fill="#85AFD3" d="M1041.3,414.1L973,404L980.7,482.8Z" shape-rendering="crispEdges"/><path fill="#529AC6" d="M1171.1,650.8L1168.2,562.9L1137,560.8Z" shape-rendering="crispEdges"/><path fill="#64A1CA" d="M1137,560.8L1188,495.1L1088.2,510.2Z" shape-rendering="crispEdges"/><path fill="#6FA5CD" d="M1188,495.1L1112.2,412L1088.2,510.2Z" shape-rendering="crispEdges"/><path fill="#8BB1D4" d="M1041.3,414.1L1021.1,353.7L973,404Z" shape-rendering="crispEdges"/><path fill="#85B0D3" d="M891.6,438.4L857.5,515.3L980.7,482.8Z" shape-rendering="crispEdges"/><path fill="#88B1D4" d="M973,404L891.6,438.4L980.7,482.8Z" shape-rendering="crispEdges"/><path fill="#5D9EC9" d="M1168.2,562.9L1188,495.1L1137,560.8Z" shape-rendering="crispEdges"/><path fill="#599AC6" d="M884.4,715.6L965.6,717.1L968.7,674.2Z" shape-rendering="crispEdges"/><path fill="#549AC6" d="M968.7,674.2L965.6,717.1L1042.5,661Z" shape-rendering="crispEdges"/><path fill="#74A8CE" d="M798.9,581.7L880.9,668.9L874.6,557.8Z" shape-rendering="crispEdges"/><path fill="#6FA6CD" d="M874.6,557.8L880.9,668.9L967.4,568.3Z" shape-rendering="crispEdges"/><path fill="#4093C2" d="M1169.4,704.4L1171.1,650.8L1085.5,672Z" shape-rendering="crispEdges"/><path fill="#4D98C5" d="M1085.5,672L1171.1,650.8L1137,560.8Z" shape-rendering="crispEdges"/><path fill="#599CC7" d="M1168.2,562.9L1254.8,554L1188,495.1Z" shape-rendering="crispEdges"/><path fill="#86AFD2" d="M1112.2,412L1021.1,353.7L1041.3,414.1Z" shape-rendering="crispEdges"/><path fill="#91B4D6" d="M973,404L944.3,365.7L891.6,438.4Z" shape-rendering="crispEdges"/><path fill="#91B4D6" d="M1021.1,353.7L944.3,365.7L973,404Z" shape-rendering="crispEdges"/><path fill="#74A6CD" d="M1188,495.1L1163.3,405.3L1112.2,412Z" shape-rendering="crispEdges"/><path fill="#88AFD3" d="M1112.2,412L1126.5,330.5L1021.1,353.7Z" shape-rendering="crispEdges"/><path fill="#4E95C4" d="M965.6,717.1L1043.8,754.3L1042.5,661Z" shape-rendering="crispEdges"/><path fill="#649FC9" d="M825.5,677.3L884.4,715.6L880.9,668.9Z" shape-rendering="crispEdges"/><path fill="#5E9DC8" d="M880.9,668.9L884.4,715.6L968.7,674.2Z" shape-rendering="crispEdges"/><path fill="#4A8FC1" d="M965.6,717.1L1015.3,812.7L1043.8,754.3Z" shape-rendering="crispEdges"/><path fill="#3E90C0" d="M1136.5,739.8L1169.4,704.4L1085.5,672Z" shape-rendering="crispEdges"/><path fill="#4E98C5" d="M1171.1,650.8L1254.8,554L1168.2,562.9Z" shape-rendering="crispEdges"/><path fill="#84AFD3" d="M783.7,522.4L798.9,581.7L857.5,515.3Z" shape-rendering="crispEdges"/><path fill="#7FADD1" d="M857.5,515.3L798.9,581.7L874.6,557.8Z" shape-rendering="crispEdges"/><path fill="#4390C1" d="M1043.8,754.3L1136.5,739.8L1085.5,672Z" shape-rendering="crispEdges"/><path fill="#99B8D8" d="M884.1,327.1L822.6,414.5L891.6,438.4Z" shape-rendering="crispEdges"/><path fill="#8FB3D5" d="M891.6,438.4L822.6,414.5L857.5,515.3Z" shape-rendering="crispEdges"/><path fill="#6FA5CC" d="M798.9,581.7L825.5,677.3L880.9,668.9Z" shape-rendering="crispEdges"/><path fill="#8EB3D5" d="M822.6,414.5L783.7,522.4L857.5,515.3Z" shape-rendering="crispEdges"/><path fill="#4493C2" d="M1275.5,656.7L1254.8,554L1171.1,650.8Z" shape-rendering="crispEdges"/><path fill="#79A8CE" d="M1233.7,399.8L1197.1,360.4L1163.3,405.3Z" shape-rendering="crispEdges"/><path fill="#80ABD0" d="M1197.1,360.4L1126.5,330.5L1163.3,405.3Z" shape-rendering="crispEdges"/><path fill="#80ABD0" d="M1163.3,405.3L1126.5,330.5L1112.2,412Z" shape-rendering="crispEdges"/><path fill="#9EBAD9" d="M933.6,298.9L884.1,327.1L944.3,365.7Z" shape-rendering="crispEdges"/><path fill="#98B7D7" d="M933.6,298.9L944.3,365.7L1021.1,353.7Z" shape-rendering="crispEdges"/><path fill="#98B7D7" d="M944.3,365.7L884.1,327.1L891.6,438.4Z" shape-rendering="crispEdges"/><path fill="#70A4CC" d="M1233.7,399.8L1163.3,405.3L1188,495.1Z" shape-rendering="crispEdges"/><path fill="#68A0CA" d="M1276.4,497.7L1233.7,399.8L1188,495.1Z" shape-rendering="crispEdges"/><path fill="#9AB8D8" d="M1036.2,279.6L933.6,298.9L1021.1,353.7Z" shape-rendering="crispEdges"/><path fill="#5C9BC7" d="M1254.8,554L1276.4,497.7L1188,495.1Z" shape-rendering="crispEdges"/><path fill="#8FB2D4" d="M1112.8,293.5L1021.1,353.7L1126.5,330.5Z" shape-rendering="crispEdges"/><path fill="#94B5D6" d="M1112.8,293.5L1036.2,279.6L1021.1,353.7Z" shape-rendering="crispEdges"/><path fill="#8EB1D4" d="M1175.4,269.1L1112.8,293.5L1126.5,330.5Z" shape-rendering="crispEdges"/><path fill="#3D8BBE" d="M1043.8,754.3L1110.5,794.6L1136.5,739.8Z" shape-rendering="crispEdges"/><path fill="#368ABD" d="M1136.5,739.8L1159.4,792.5L1169.4,704.4Z" shape-rendering="crispEdges"/><path fill="#418ABE" d="M1015.3,812.7L1110.5,794.6L1043.8,754.3Z" shape-rendering="crispEdges"/><path fill="#5694C4" d="M936,828.6L965.6,717.1L884.4,715.6Z" shape-rendering="crispEdges"/><path fill="#4D8EC1" d="M936,828.6L1015.3,812.7L965.6,717.1Z" shape-rendering="crispEdges"/><path fill="#6A9EC9" d="M707.1,728.5L833.3,742.6L825.5,677.3Z" shape-rendering="crispEdges"/><path fill="#649CC8" d="M825.5,677.3L833.3,742.6L884.4,715.6Z" shape-rendering="crispEdges"/><path fill="#76A7CE" d="M713,648.9L825.5,677.3L798.9,581.7Z" shape-rendering="crispEdges"/><path fill="#A0BBDA" d="M884.1,327.1L822.3,352.8L822.6,414.5Z" shape-rendering="crispEdges"/><path fill="#8DB3D5" d="M734.6,488.5L735.8,574.6L783.7,522.4Z" shape-rendering="crispEdges"/><path fill="#AFC1DD" d="M761.6,305L822.3,352.8L791.4,263.8Z" shape-rendering="crispEdges"/><path fill="#308ABD" d="M1285.8,738.4L1275.5,656.7L1169.4,704.4Z" shape-rendering="crispEdges"/><path fill="#3790C0" d="M1169.4,704.4L1275.5,656.7L1171.1,650.8Z" shape-rendering="crispEdges"/><path fill="#5697C5" d="M1254.8,554L1309.1,553.7L1276.4,497.7Z" shape-rendering="crispEdges"/><path fill="#95B6D7" d="M734.6,488.5L783.7,522.4L736.4,437.9Z" shape-rendering="crispEdges"/><path fill="#85AFD3" d="M783.7,522.4L735.8,574.6L798.9,581.7Z" shape-rendering="crispEdges"/><path fill="#3383B9" d="M1116.6,868.6L1159.4,792.5L1110.5,794.6Z" shape-rendering="crispEdges"/><path fill="#3687BC" d="M1110.5,794.6L1159.4,792.5L1136.5,739.8Z" shape-rendering="crispEdges"/><path fill="#97B6D7" d="M736.4,437.9L783.7,522.4L822.6,414.5Z" shape-rendering="crispEdges"/><path fill="#4992C2" d="M1275.5,656.7L1309.1,553.7L1254.8,554Z" shape-rendering="crispEdges"/><path fill="#6EA0CB" d="M1276.4,497.7L1271.9,380.1L1233.7,399.8Z" shape-rendering="crispEdges"/><path fill="#5792C3" d="M866,803.7L936,828.6L884.4,715.6Z" shape-rendering="crispEdges"/><path fill="#3F86BA" d="M1015.3,812.7L1028.6,873.1L1110.5,794.6Z" shape-rendering="crispEdges"/><path fill="#A0BBDA" d="M756.6,372.8L736.4,437.9L822.6,414.5Z" shape-rendering="crispEdges"/><path fill="#6A9DC9" d="M1348.3,439.9L1271.9,380.1L1276.4,497.7Z" shape-rendering="crispEdges"/><path fill="#78A6CD" d="M1233.7,399.8L1271.9,380.1L1197.1,360.4Z" shape-rendering="crispEdges"/><path fill="#88AED2" d="M1197.1,360.4L1175.4,269.1L1126.5,330.5Z" shape-rendering="crispEdges"/><path fill="#5D93C4" d="M825.9,829.3L866,803.7L833.3,742.6Z" shape-rendering="crispEdges"/><path fill="#5E97C5" d="M833.3,742.6L866,803.7L884.4,715.6Z" shape-rendering="crispEdges"/><path fill="#AABFDC" d="M761.6,305L756.6,372.8L822.3,352.8Z" shape-rendering="crispEdges"/><path fill="#A2BBDA" d="M822.3,352.8L756.6,372.8L822.6,414.5Z" shape-rendering="crispEdges"/><path fill="#A7BFDC" d="M980.2,228.8L896,254.9L933.6,298.9Z" shape-rendering="crispEdges"/><path fill="#A6BDDB" d="M933.6,298.9L896,254.9L884.1,327.1Z" shape-rendering="crispEdges"/><path fill="#88AED2" d="M1251.8,256.1L1175.4,269.1L1197.1,360.4Z" shape-rendering="crispEdges"/><path fill="#9CB8D8" d="M1112.8,293.5L1059.9,179.5L1036.2,279.6Z" shape-rendering="crispEdges"/><path fill="#A2BCDA" d="M1036.2,279.6L980.2,228.8L933.6,298.9Z" shape-rendering="crispEdges"/><path fill="#A2BDDA" d="M1059.9,179.5L980.2,228.8L1036.2,279.6Z" shape-rendering="crispEdges"/><path fill="#528CBE" d="M866,803.7L937.1,852.4L936,828.6Z" shape-rendering="crispEdges"/><path fill="#4B8ABD" d="M936,828.6L937.1,852.4L1015.3,812.7Z" shape-rendering="crispEdges"/><path fill="#85AED2" d="M664,574.7L713,648.9L735.8,574.6Z" shape-rendering="crispEdges"/><path fill="#80ACD1" d="M735.8,574.6L713,648.9L798.9,581.7Z" shape-rendering="crispEdges"/><path fill="#91B4D6" d="M684.8,503.2L735.8,574.6L734.6,488.5Z" shape-rendering="crispEdges"/><path fill="#3089BD" d="M1315.9,708.5L1329.6,644.9L1275.5,656.7Z" shape-rendering="crispEdges"/><path fill="#408EC0" d="M1275.5,656.7L1329.6,644.9L1309.1,553.7Z" shape-rendering="crispEdges"/><path fill="#6198C6" d="M1361.1,484.8L1348.3,439.9L1276.4,497.7Z" shape-rendering="crispEdges"/><path fill="#4687BA" d="M937.1,852.4L1028.6,873.1L1015.3,812.7Z" shape-rendering="crispEdges"/><path fill="#2D86BB" d="M1251.7,779.6L1169.4,704.4L1159.4,792.5Z" shape-rendering="crispEdges"/><path fill="#2B86BB" d="M1251.7,779.6L1285.8,738.4L1169.4,704.4Z" shape-rendering="crispEdges"/><path fill="#247FB7" d="M1208,870.3L1251.7,779.6L1159.4,792.5Z" shape-rendering="crispEdges"/><path fill="#9EB9D9" d="M684,435.5L734.6,488.5L736.4,437.9Z" shape-rendering="crispEdges"/><path fill="#9BB9D8" d="M684,435.5L684.8,503.2L734.6,488.5Z" shape-rendering="crispEdges"/><path fill="#3983B7" d="M1028.6,873.1L1116.6,868.6L1110.5,794.6Z" shape-rendering="crispEdges"/><path fill="#227EB7" d="M1358.4,819.2L1315.9,708.5L1285.8,738.4Z" shape-rendering="crispEdges"/><path fill="#2C87BB" d="M1285.8,738.4L1315.9,708.5L1275.5,656.7Z" shape-rendering="crispEdges"/><path fill="#ABC1DD" d="M980.2,228.8L894.2,223.3L896,254.9Z" shape-rendering="crispEdges"/><path fill="#A9BFDC" d="M791.4,263.8L822.3,352.8L884.1,327.1Z" shape-rendering="crispEdges"/><path fill="#6394C5" d="M719.6,812.9L825.9,829.3L833.3,742.6Z" shape-rendering="crispEdges"/><path fill="#538BBB" d="M866,803.7L888.1,899.9L937.1,852.4Z" shape-rendering="crispEdges"/><path fill="#4381B0" d="M937.2,934.7L1037.1,933.6L1028.6,873.1Z" shape-rendering="crispEdges"/><path fill="#5996C5" d="M1361.1,484.8L1276.4,497.7L1309.1,553.7Z" shape-rendering="crispEdges"/><path fill="#81A9CF" d="M1271.9,380.1L1251.8,256.1L1197.1,360.4Z" shape-rendering="crispEdges"/><path fill="#5592C3" d="M1429.8,524.9L1361.1,484.8L1309.1,553.7Z" shape-rendering="crispEdges"/><path fill="#739FCA" d="M1348.3,439.9L1310.5,354.5L1271.9,380.1Z" shape-rendering="crispEdges"/><path fill="#ACC0DD" d="M791.4,263.8L884.1,327.1L896,254.9Z" shape-rendering="crispEdges"/><path fill="#A4BCDA" d="M756.6,372.8L684,435.5L736.4,437.9Z" shape-rendering="crispEdges"/><path fill="#ABBFDC" d="M660.3,351L684,435.5L756.6,372.8Z" shape-rendering="crispEdges"/><path fill="#96B7D7" d="M574.1,526.1L664,574.7L684.8,503.2Z" shape-rendering="crispEdges"/><path fill="#8EB3D5" d="M684.8,503.2L664,574.7L735.8,574.6Z" shape-rendering="crispEdges"/><path fill="#71A4CC" d="M713,648.9L707.1,728.5L825.5,677.3Z" shape-rendering="crispEdges"/><path fill="#B3C4DF" d="M789.2,230.3L791.4,263.8L896,254.9Z" shape-rendering="crispEdges"/><path fill="#79A8CE" d="M636,648L707.1,728.5L713,648.9Z" shape-rendering="crispEdges"/><path fill="#95B5D6" d="M1124,185L1112.8,293.5L1175.4,269.1Z" shape-rendering="crispEdges"/><path fill="#9CB9D8" d="M1124,185L1059.9,179.5L1112.8,293.5Z" shape-rendering="crispEdges"/><path fill="#AFC4DF" d="M980.2,228.8L898.2,147.3L894.2,223.3Z" shape-rendering="crispEdges"/><path fill="#7FA6CE" d="M1310.5,354.5L1251.8,256.1L1271.9,380.1Z" shape-rendering="crispEdges"/><path fill="#96B6D6" d="M1202.7,202.8L1124,185L1175.4,269.1Z" shape-rendering="crispEdges"/><path fill="#2879AC" d="M1190.2,972.4L1208,870.3L1116.6,868.6Z" shape-rendering="crispEdges"/><path fill="#2C7FB5" d="M1116.6,868.6L1208,870.3L1159.4,792.5Z" shape-rendering="crispEdges"/><path fill="#217DB7" d="M1251.7,779.6L1358.4,819.2L1285.8,738.4Z" shape-rendering="crispEdges"/><path fill="#5A8CBB" d="M793.2,874.6L888.1,899.9L825.9,829.3Z" shape-rendering="crispEdges"/><path fill="#588DBD" d="M825.9,829.3L888.1,899.9L866,803.7Z" shape-rendering="crispEdges"/><path fill="#3B80B1" d="M1028.6,873.1L1037.1,933.6L1116.6,868.6Z" shape-rendering="crispEdges"/><path fill="#90B1D4" d="M1251.8,256.1L1202.7,202.8L1175.4,269.1Z" shape-rendering="crispEdges"/><path fill="#B1C4DF" d="M894.2,223.3L789.2,230.3L896,254.9Z" shape-rendering="crispEdges"/><path fill="#B9C7E0" d="M791.4,263.8L724.7,190.5L761.6,305Z" shape-rendering="crispEdges"/><path fill="#AFC1DD" d="M761.6,305L660.3,351L756.6,372.8Z" shape-rendering="crispEdges"/><path fill="#B5C7E0" d="M898.2,147.3L789.2,230.3L894.2,223.3Z" shape-rendering="crispEdges"/><path fill="#4885B5" d="M937.2,934.7L1028.6,873.1L937.1,852.4Z" shape-rendering="crispEdges"/><path fill="#89AFD3" d="M588.3,629.1L636,648L664,574.7Z" shape-rendering="crispEdges"/><path fill="#84ADD1" d="M664,574.7L636,648L713,648.9Z" shape-rendering="crispEdges"/><path fill="#4E86B5" d="M888.1,899.9L937.2,934.7L937.1,852.4Z" shape-rendering="crispEdges"/><path fill="#6A9AC8" d="M719.6,812.9L833.3,742.6L707.1,728.5Z" shape-rendering="crispEdges"/><path fill="#6291C0" d="M719.6,812.9L793.2,874.6L825.9,829.3Z" shape-rendering="crispEdges"/><path fill="#4F83B0" d="M888.1,899.9L885.9,969.3L937.2,934.7Z" shape-rendering="crispEdges"/><path fill="#6396C5" d="M1361.1,484.8L1408,445.9L1348.3,439.9Z" shape-rendering="crispEdges"/><path fill="#739ECA" d="M1348.3,439.9L1383.1,348.6L1310.5,354.5Z" shape-rendering="crispEdges"/><path fill="#84A7CE" d="M1310.5,354.5L1353.9,278.1L1251.8,256.1Z" shape-rendering="crispEdges"/><path fill="#5B93C3" d="M1429.8,524.9L1408,445.9L1361.1,484.8Z" shape-rendering="crispEdges"/><path fill="#4B8EC0" d="M1429.8,524.9L1309.1,553.7L1430,592.7Z" shape-rendering="crispEdges"/><path fill="#6E99C8" d="M680,808.1L719.6,812.9L707.1,728.5Z" shape-rendering="crispEdges"/><path fill="#1F76AC" d="M1242.7,944L1269,860.6L1208,870.3Z" shape-rendering="crispEdges"/><path fill="#207BB3" d="M1208,870.3L1269,860.6L1251.7,779.6Z" shape-rendering="crispEdges"/><path fill="#438CBF" d="M1430,592.7L1309.1,553.7L1329.6,644.9Z" shape-rendering="crispEdges"/><path fill="#A8C1DD" d="M1115.3,113.2L1016.6,137.3L1059.9,179.5Z" shape-rendering="crispEdges"/><path fill="#A8C1DD" d="M1059.9,179.5L1016.6,137.3L980.2,228.8Z" shape-rendering="crispEdges"/><path fill="#A3BEDB" d="M1115.3,113.2L1059.9,179.5L1124,185Z" shape-rendering="crispEdges"/><path fill="#B6C5DF" d="M655.2,295.2L660.3,351L761.6,305Z" shape-rendering="crispEdges"/><path fill="#A2BBDA" d="M684,435.5L591,452L684.8,503.2Z" shape-rendering="crispEdges"/><path fill="#3887BC" d="M1430,592.7L1329.6,644.9L1432.9,639.8Z" shape-rendering="crispEdges"/><path fill="#6E98C7" d="M1458.9,375.8L1383.1,348.6L1408,445.9Z" shape-rendering="crispEdges"/><path fill="#6C99C7" d="M1408,445.9L1383.1,348.6L1348.3,439.9Z" shape-rendering="crispEdges"/><path fill="#91B2D4" d="M1251.8,256.1L1239.1,189.9L1202.7,202.8Z" shape-rendering="crispEdges"/><path fill="#B1C6E0" d="M970.3,108.3L898.2,147.3L980.2,228.8Z" shape-rendering="crispEdges"/><path fill="#2F86BB" d="M1432.9,639.8L1329.6,644.9L1315.9,708.5Z" shape-rendering="crispEdges"/><path fill="#90AFD3" d="M1333.1,178.6L1239.1,189.9L1251.8,256.1Z" shape-rendering="crispEdges"/><path fill="#9AB9D8" d="M1202.7,202.8L1180.2,151.4L1124,185Z" shape-rendering="crispEdges"/><path fill="#79A5CD" d="M636,648L644.8,735.4L707.1,728.5Z" shape-rendering="crispEdges"/><path fill="#96B6D7" d="M1239.1,189.9L1180.2,151.4L1202.7,202.8Z" shape-rendering="crispEdges"/><path fill="#2580B8" d="M1414.7,755L1432.9,639.8L1315.9,708.5Z" shape-rendering="crispEdges"/><path fill="#4E8BBE" d="M1507.1,587.9L1468.5,480.1L1429.8,524.9Z" shape-rendering="crispEdges"/><path fill="#7CA1CC" d="M1383.1,348.6L1353.9,278.1L1310.5,354.5Z" shape-rendering="crispEdges"/><path fill="#739ECA" d="M644.8,735.4L680,808.1L707.1,728.5Z" shape-rendering="crispEdges"/><path fill="#6490BE" d="M719.6,812.9L749.6,887.9L793.2,874.6Z" shape-rendering="crispEdges"/><path fill="#6991BF" d="M647.1,888.6L749.6,887.9L719.6,812.9Z" shape-rendering="crispEdges"/><path fill="#5585B2" d="M784.4,935.4L885.9,969.3L888.1,899.9Z" shape-rendering="crispEdges"/><path fill="#7DA7CE" d="M636,648L611.1,701.5L644.8,735.4Z" shape-rendering="crispEdges"/><path fill="#7094C1" d="M588.3,875.5L647.1,888.6L680,808.1Z" shape-rendering="crispEdges"/><path fill="#83ACD1" d="M588.3,629.1L611.1,701.5L636,648Z" shape-rendering="crispEdges"/><path fill="#ABC0DC" d="M660.3,351L591,452L684,435.5Z" shape-rendering="crispEdges"/><path fill="#B0C7E0" d="M1037.9,70.5L970.3,108.3L1016.6,137.3Z" shape-rendering="crispEdges"/><path fill="#ADC4DF" d="M1016.6,137.3L970.3,108.3L980.2,228.8Z" shape-rendering="crispEdges"/><path fill="#1B79B4" d="M1269,860.6L1358.4,819.2L1251.7,779.6Z" shape-rendering="crispEdges"/><path fill="#3878A5" d="M1045.3,1009.5L1098.6,974.1L1037.1,933.6Z" shape-rendering="crispEdges"/><path fill="#377CAC" d="M1037.1,933.6L1098.6,974.1L1116.6,868.6Z" shape-rendering="crispEdges"/><path fill="#1874AD" d="M1269,860.6L1327.7,900.3L1358.4,819.2Z" shape-rendering="crispEdges"/><path fill="#8FB3D5" d="M566.8,578.3L588.3,629.1L664,574.7Z" shape-rendering="crispEdges"/><path fill="#BDC8E1" d="M679.8,206.9L655.2,295.2L761.6,305Z" shape-rendering="crispEdges"/><path fill="#B3C3DE" d="M660.3,351L572.9,354.7L591,452Z" shape-rendering="crispEdges"/><path fill="#BBC8E1" d="M724.7,190.5L791.4,263.8L789.2,230.3Z" shape-rendering="crispEdges"/><path fill="#A0BDDA" d="M1180.2,151.4L1115.3,113.2L1124,185Z" shape-rendering="crispEdges"/><path fill="#A0BBD9" d="M591,452L574.1,526.1L684.8,503.2Z" shape-rendering="crispEdges"/><path fill="#5A89B6" d="M784.4,935.4L888.1,899.9L793.2,874.6Z" shape-rendering="crispEdges"/><path fill="#447EAA" d="M937.2,934.7L951.7,1005.4L1037.1,933.6Z" shape-rendering="crispEdges"/><path fill="#1D7BB5" d="M1358.4,819.2L1414.7,755L1315.9,708.5Z" shape-rendering="crispEdges"/><path fill="#96B6D7" d="M574.1,526.1L566.8,578.3L664,574.7Z" shape-rendering="crispEdges"/><path fill="#86ADD1" d="M588.3,629.1L528.9,665.6L611.1,701.5Z" shape-rendering="crispEdges"/><path fill="#4589BD" d="M1507.1,587.9L1429.8,524.9L1430,592.7Z" shape-rendering="crispEdges"/><path fill="#5A90C2" d="M1429.8,524.9L1468.5,480.1L1408,445.9Z" shape-rendering="crispEdges"/><path fill="#81A1CC" d="M1383.1,348.6L1416.9,251.6L1353.9,278.1Z" shape-rendering="crispEdges"/><path fill="#3B85BB" d="M1507.1,587.9L1430,592.7L1432.9,639.8Z" shape-rendering="crispEdges"/><path fill="#6089B4" d="M741.9,967.5L784.4,935.4L749.6,887.9Z" shape-rendering="crispEdges"/><path fill="#608BB8" d="M749.6,887.9L784.4,935.4L793.2,874.6Z" shape-rendering="crispEdges"/><path fill="#2175A8" d="M1190.2,972.4L1242.7,944L1208,870.3Z" shape-rendering="crispEdges"/><path fill="#BCCBE2" d="M814.4,106L789.2,230.3L898.2,147.3Z" shape-rendering="crispEdges"/><path fill="#C0CCE3" d="M814.4,106L724.7,190.5L789.2,230.3Z" shape-rendering="crispEdges"/><path fill="#2E78A9" d="M1098.6,974.1L1190.2,972.4L1116.6,868.6Z" shape-rendering="crispEdges"/><path fill="#4C7CA4" d="M857.8,1015.9L951.7,1005.4L885.9,969.3Z" shape-rendering="crispEdges"/><path fill="#4A7EA9" d="M885.9,969.3L951.7,1005.4L937.2,934.7Z" shape-rendering="crispEdges"/><path fill="#2C72A0" d="M1098.6,974.1L1116.7,1007.9L1190.2,972.4Z" shape-rendering="crispEdges"/><path fill="#3E79A4" d="M951.7,1005.4L1045.3,1009.5L1037.1,933.6Z" shape-rendering="crispEdges"/><path fill="#6894C4" d="M1504.3,415L1458.9,375.8L1408,445.9Z" shape-rendering="crispEdges"/><path fill="#1B73A9" d="M1242.7,944L1327.7,900.3L1269,860.6Z" shape-rendering="crispEdges"/><path fill="#1174B2" d="M1358.4,819.2L1417.6,828.1L1414.7,755Z" shape-rendering="crispEdges"/><path fill="#186FA5" d="M1354.4,943L1327.7,900.3L1242.7,944Z" shape-rendering="crispEdges"/><path fill="#ABC4DE" d="M1115.3,113.2L1037.9,70.5L1016.6,137.3Z" shape-rendering="crispEdges"/><path fill="#BECEE4" d="M875.4,38.6L814.4,106L898.2,147.3Z" shape-rendering="crispEdges"/><path fill="#33739F" d="M1045.3,1009.5L1116.7,1007.9L1098.6,974.1Z" shape-rendering="crispEdges"/><path fill="#C2CAE2" d="M679.8,206.9L612.4,295.4L655.2,295.2Z" shape-rendering="crispEdges"/><path fill="#BBC7E0" d="M655.2,295.2L612.4,295.4L660.3,351Z" shape-rendering="crispEdges"/><path fill="#A4BDDB" d="M591,452L522,513.5L574.1,526.1Z" shape-rendering="crispEdges"/><path fill="#BFCAE2" d="M724.7,190.5L679.8,206.9L761.6,305Z" shape-rendering="crispEdges"/><path fill="#C6CFE5" d="M685.1,154.2L679.8,206.9L724.7,190.5Z" shape-rendering="crispEdges"/><path fill="#8BA8D0" d="M1419,205.1L1333.1,178.6L1353.9,278.1Z" shape-rendering="crispEdges"/><path fill="#8BAAD1" d="M1353.9,278.1L1333.1,178.6L1251.8,256.1Z" shape-rendering="crispEdges"/><path fill="#99B8D8" d="M1239.1,189.9L1254,105L1180.2,151.4Z" shape-rendering="crispEdges"/><path fill="#A1BEDB" d="M1180.2,151.4L1209.4,36L1115.3,113.2Z" shape-rendering="crispEdges"/><path fill="#AAC4DE" d="M1115.3,113.2L1136.9,25.7L1037.9,70.5Z" shape-rendering="crispEdges"/><path fill="#B9CCE3" d="M875.4,38.6L898.2,147.3L970.3,108.3Z" shape-rendering="crispEdges"/><path fill="#BBC7E0" d="M612.4,295.4L572.9,354.7L660.3,351Z" shape-rendering="crispEdges"/><path fill="#9DBAD9" d="M574.1,526.1L522,513.5L566.8,578.3Z" shape-rendering="crispEdges"/><path fill="#1D79B3" d="M1498.1,734.8L1489.7,664.8L1414.7,755Z" shape-rendering="crispEdges"/><path fill="#237EB7" d="M1414.7,755L1489.7,664.8L1432.9,639.8Z" shape-rendering="crispEdges"/><path fill="#6191C2" d="M1468.5,480.1L1504.3,415L1408,445.9Z" shape-rendering="crispEdges"/><path fill="#0E70AC" d="M1407.6,897.8L1417.6,828.1L1358.4,819.2Z" shape-rendering="crispEdges"/><path fill="#B3C9E1" d="M1037.9,70.5L979.4,54.6L970.3,108.3Z" shape-rendering="crispEdges"/><path fill="#3482B8" d="M1489.7,664.8L1507.1,587.9L1432.9,639.8Z" shape-rendering="crispEdges"/><path fill="#799CC9" d="M1458.9,375.8L1416.9,251.6L1383.1,348.6Z" shape-rendering="crispEdges"/><path fill="#ACC0DD" d="M520.9,419.9L522,513.5L591,452Z" shape-rendering="crispEdges"/><path fill="#8EB2D4" d="M566.8,578.3L528.9,665.6L588.3,629.1Z" shape-rendering="crispEdges"/><path fill="#96B2D5" d="M1340.9,142.6L1254,105L1333.1,178.6Z" shape-rendering="crispEdges"/><path fill="#96B3D6" d="M1333.1,178.6L1254,105L1239.1,189.9Z" shape-rendering="crispEdges"/><path fill="#B4CAE2" d="M1037.9,70.5L1017.3,0.3L979.4,54.6Z" shape-rendering="crispEdges"/><path fill="#5481AA" d="M784.4,935.4L857.8,1015.9L885.9,969.3Z" shape-rendering="crispEdges"/><path fill="#33698F" d="M1007.6,1130.5L1129.2,1087.4L1045.3,1009.5Z" shape-rendering="crispEdges"/><path fill="#276A93" d="M1129.2,1087.4L1197.1,1033.5L1116.7,1007.9Z" shape-rendering="crispEdges"/><path fill="#C5CFE5" d="M814.4,106L709.4,149.7L724.7,190.5Z" shape-rendering="crispEdges"/><path fill="#CACFE5" d="M567.8,179.5L526.7,276.8L612.4,295.4Z" shape-rendering="crispEdges"/><path fill="#BBC7E1" d="M512,347.3L520.9,419.9L572.9,354.7Z" shape-rendering="crispEdges"/><path fill="#608FBF" d="M1543.9,443.5L1504.3,415L1468.5,480.1Z" shape-rendering="crispEdges"/><path fill="#839FCA" d="M1505.9,263.4L1483.9,230.6L1416.9,251.6Z" shape-rendering="crispEdges"/><path fill="#93B4D5" d="M491.7,600.8L528.9,665.6L566.8,578.3Z" shape-rendering="crispEdges"/><path fill="#759CC9" d="M566.2,813.6L680,808.1L644.8,735.4Z" shape-rendering="crispEdges"/><path fill="#648BB6" d="M683.7,928.9L741.9,967.5L749.6,887.9Z" shape-rendering="crispEdges"/><path fill="#557EA6" d="M784.4,935.4L812,1045.1L857.8,1015.9Z" shape-rendering="crispEdges"/><path fill="#6D95C3" d="M647.1,888.6L719.6,812.9L680,808.1Z" shape-rendering="crispEdges"/><path fill="#7BA1CC" d="M566.2,813.6L644.8,735.4L611.1,701.5Z" shape-rendering="crispEdges"/><path fill="#698EBA" d="M647.1,888.6L683.7,928.9L749.6,887.9Z" shape-rendering="crispEdges"/><path fill="#CED4E8" d="M637.7,68L685.1,154.2L709.4,149.7Z" shape-rendering="crispEdges"/><path fill="#C7D0E5" d="M709.4,149.7L685.1,154.2L724.7,190.5Z" shape-rendering="crispEdges"/><path fill="#C2CAE2" d="M512,347.3L572.9,354.7L526.7,276.8Z" shape-rendering="crispEdges"/><path fill="#B3C3DE" d="M572.9,354.7L520.9,419.9L591,452Z" shape-rendering="crispEdges"/><path fill="#90ACD2" d="M1419,205.1L1340.9,142.6L1333.1,178.6Z" shape-rendering="crispEdges"/><path fill="#9DB9D9" d="M1308.2,29.7L1241.4,78.4L1254,105Z" shape-rendering="crispEdges"/><path fill="#9CBAD9" d="M1254,105L1241.4,78.4L1180.2,151.4Z" shape-rendering="crispEdges"/><path fill="#1374B1" d="M1479.6,814.3L1498.1,734.8L1414.7,755Z" shape-rendering="crispEdges"/><path fill="#3480B5" d="M1489.7,664.8L1554.1,626L1507.1,587.9Z" shape-rendering="crispEdges"/><path fill="#C6D1E6" d="M814.4,106L784.3,80L709.4,149.7Z" shape-rendering="crispEdges"/><path fill="#C4D1E6" d="M875.4,38.6L784.3,80L814.4,106Z" shape-rendering="crispEdges"/><path fill="#266E9B" d="M1116.7,1007.9L1197.1,1033.5L1190.2,972.4Z" shape-rendering="crispEdges"/><path fill="#1D6E9F" d="M1190.2,972.4L1287.5,1004.1L1242.7,944Z" shape-rendering="crispEdges"/><path fill="#1270AA" d="M1327.7,900.3L1407.6,897.8L1358.4,819.2Z" shape-rendering="crispEdges"/><path fill="#306D97" d="M1129.2,1087.4L1116.7,1007.9L1045.3,1009.5Z" shape-rendering="crispEdges"/><path fill="#186C9F" d="M1287.5,1004.1L1354.4,943L1242.7,944Z" shape-rendering="crispEdges"/><path fill="#0A71B1" d="M1417.6,828.1L1479.6,814.3L1414.7,755Z" shape-rendering="crispEdges"/><path fill="#87A4CE" d="M1416.9,251.6L1419,205.1L1353.9,278.1Z" shape-rendering="crispEdges"/><path fill="#86A2CD" d="M1483.9,230.6L1419,205.1L1416.9,251.6Z" shape-rendering="crispEdges"/><path fill="#BCCEE4" d="M965.8,-1.2L875.4,38.6L979.4,54.6Z" shape-rendering="crispEdges"/><path fill="#B9CCE3" d="M979.4,54.6L875.4,38.6L970.3,108.3Z" shape-rendering="crispEdges"/><path fill="#126CA5" d="M1354.4,943L1407.6,897.8L1327.7,900.3Z" shape-rendering="crispEdges"/><path fill="#7DA1CC" d="M535.1,786.7L566.2,813.6L611.1,701.5Z" shape-rendering="crispEdges"/><path fill="#6E8FB8" d="M647.1,888.6L561.9,956.4L683.7,928.9Z" shape-rendering="crispEdges"/><path fill="#A4BDDA" d="M461.5,494.8L491.7,600.8L522,513.5Z" shape-rendering="crispEdges"/><path fill="#9CB9D8" d="M522,513.5L491.7,600.8L566.8,578.3Z" shape-rendering="crispEdges"/><path fill="#81A5CD" d="M511,735.1L535.1,786.7L611.1,701.5Z" shape-rendering="crispEdges"/><path fill="#A6C1DD" d="M1209.4,36L1136.9,25.7L1115.3,113.2Z" shape-rendering="crispEdges"/><path fill="#1D6B99" d="M1197.1,1033.5L1287.5,1004.1L1190.2,972.4Z" shape-rendering="crispEdges"/><path fill="#0E6AA2" d="M1354.4,943L1394.4,952.5L1407.6,897.8Z" shape-rendering="crispEdges"/><path fill="#5B8DBC" d="M1566.3,476.2L1543.9,443.5L1468.5,480.1Z" shape-rendering="crispEdges"/><path fill="#7D9CC8" d="M1505.9,263.4L1416.9,251.6L1458.9,375.8Z" shape-rendering="crispEdges"/><path fill="#4988BA" d="M1566.1,568.6L1468.5,480.1L1507.1,587.9Z" shape-rendering="crispEdges"/><path fill="#056DAA" d="M1500.6,870.1L1479.6,814.3L1417.6,828.1Z" shape-rendering="crispEdges"/><path fill="#84AAD0" d="M511,735.1L611.1,701.5L528.9,665.6Z" shape-rendering="crispEdges"/><path fill="#7498C5" d="M566.2,813.6L588.3,875.5L680,808.1Z" shape-rendering="crispEdges"/><path fill="#1D77B0" d="M1572.4,746L1489.7,664.8L1498.1,734.8Z" shape-rendering="crispEdges"/><path fill="#237BB0" d="M1572.4,746L1554.1,626L1489.7,664.8Z" shape-rendering="crispEdges"/><path fill="#A1BDDB" d="M1278.3,-12.2L1209.4,36L1241.4,78.4Z" shape-rendering="crispEdges"/><path fill="#9FBCDA" d="M1241.4,78.4L1209.4,36L1180.2,151.4Z" shape-rendering="crispEdges"/><path fill="#9AB6D7" d="M1308.2,29.7L1254,105L1340.9,142.6Z" shape-rendering="crispEdges"/><path fill="#8BAED2" d="M424.5,665.4L511,735.1L528.9,665.6Z" shape-rendering="crispEdges"/><path fill="#5A82AA" d="M741.9,967.5L812,1045.1L784.4,935.4Z" shape-rendering="crispEdges"/><path fill="#4A769B" d="M857.8,1015.9L857,1100.1L951.7,1005.4Z" shape-rendering="crispEdges"/><path fill="#587DA2" d="M763.1,1050.8L812,1045.1L741.9,967.5Z" shape-rendering="crispEdges"/><path fill="#AEC7E0" d="M1098.3,-26.3L1037.9,70.5L1136.9,25.7Z" shape-rendering="crispEdges"/><path fill="#B2CAE2" d="M1098.3,-26.3L1017.3,0.3L1037.9,70.5Z" shape-rendering="crispEdges"/><path fill="#C2CAE2" d="M526.7,276.8L572.9,354.7L612.4,295.4Z" shape-rendering="crispEdges"/><path fill="#ADC1DD" d="M520.9,419.9L461.5,494.8L522,513.5Z" shape-rendering="crispEdges"/><path fill="#7999C4" d="M499.3,862.7L588.3,875.5L566.2,813.6Z" shape-rendering="crispEdges"/><path fill="#5D7FA3" d="M678.1,1050.7L763.1,1050.8L741.9,967.5Z" shape-rendering="crispEdges"/><path fill="#B8CDE4" d="M1017.3,0.3L965.8,-1.2L979.4,54.6Z" shape-rendering="crispEdges"/><path fill="#3D82B5" d="M1554.1,626L1566.1,568.6L1507.1,587.9Z" shape-rendering="crispEdges"/><path fill="#528ABA" d="M1566.1,568.6L1566.3,476.2L1468.5,480.1Z" shape-rendering="crispEdges"/><path fill="#7597C3" d="M1505.9,263.4L1458.9,375.8L1573.4,362.7Z" shape-rendering="crispEdges"/><path fill="#3C7097" d="M1007.6,1130.5L1045.3,1009.5L951.7,1005.4Z" shape-rendering="crispEdges"/><path fill="#14608E" d="M1324.8,1110.3L1344.1,1010L1287.5,1004.1Z" shape-rendering="crispEdges"/><path fill="#10679C" d="M1344.1,1010L1394.4,952.5L1354.4,943Z" shape-rendering="crispEdges"/><path fill="#056BA9" d="M1407.6,897.8L1500.6,870.1L1417.6,828.1Z" shape-rendering="crispEdges"/><path fill="#146799" d="M1344.1,1010L1354.4,943L1287.5,1004.1Z" shape-rendering="crispEdges"/><path fill="#B4C4DF" d="M449.5,423.9L461.5,494.8L520.9,419.9Z" shape-rendering="crispEdges"/><path fill="#92B3D5" d="M491.7,600.8L424.5,665.4L528.9,665.6Z" shape-rendering="crispEdges"/><path fill="#C8CFE5" d="M567.8,179.5L612.4,295.4L679.8,206.9Z" shape-rendering="crispEdges"/><path fill="#BBC7E1" d="M512,347.3L449.5,423.9L520.9,419.9Z" shape-rendering="crispEdges"/><path fill="#6C93C1" d="M1458.9,375.8L1504.3,415L1573.4,362.7Z" shape-rendering="crispEdges"/><path fill="#91ACD2" d="M1419,205.1L1394.5,114.9L1340.9,142.6Z" shape-rendering="crispEdges"/><path fill="#6790BE" d="M1573.4,362.7L1504.3,415L1543.9,443.5Z" shape-rendering="crispEdges"/><path fill="#CAD3E7" d="M784.3,80L734,54.7L709.4,149.7Z" shape-rendering="crispEdges"/><path fill="#CBD1E6" d="M685.1,154.2L567.8,179.5L679.8,206.9Z" shape-rendering="crispEdges"/><path fill="#CAD4E8" d="M822.1,0.9L734,54.7L784.3,80Z" shape-rendering="crispEdges"/><path fill="#C6D3E7" d="M822.1,0.9L784.3,80L875.4,38.6Z" shape-rendering="crispEdges"/><path fill="#6385AC" d="M678.1,1050.7L741.9,967.5L683.7,928.9Z" shape-rendering="crispEdges"/><path fill="#4E769A" d="M812,1045.1L857,1100.1L857.8,1015.9Z" shape-rendering="crispEdges"/><path fill="#1A6490" d="M1265.9,1093L1287.5,1004.1L1197.1,1033.5Z" shape-rendering="crispEdges"/><path fill="#91AAD1" d="M1459.1,107L1394.5,114.9L1419,205.1Z" shape-rendering="crispEdges"/><path fill="#A6C3DE" d="M1199.7,-23.7L1136.9,25.7L1209.4,36Z" shape-rendering="crispEdges"/><path fill="#ABC5DF" d="M1199.7,-23.7L1098.3,-26.3L1136.9,25.7Z" shape-rendering="crispEdges"/><path fill="#BFD1E6" d="M938.1,-86.7L884.8,-39L965.8,-1.2Z" shape-rendering="crispEdges"/><path fill="#C1D2E6" d="M884.8,-39L875.4,38.6L965.8,-1.2Z" shape-rendering="crispEdges"/><path fill="#C5D4E7" d="M884.8,-39L822.1,0.9L875.4,38.6Z" shape-rendering="crispEdges"/><path fill="#D1D5E8" d="M600.3,110.6L567.8,179.5L685.1,154.2Z" shape-rendering="crispEdges"/><path fill="#A1BBD9" d="M461.5,494.8L442,603L491.7,600.8Z" shape-rendering="crispEdges"/><path fill="#819ECA" d="M414.1,799.9L499.3,862.7L535.1,786.7Z" shape-rendering="crispEdges"/><path fill="#4D7394" d="M837,1120.4L857,1100.1L812,1045.1Z" shape-rendering="crispEdges"/><path fill="#23648B" d="M1165.3,1154L1203.9,1093.7L1129.2,1087.4Z" shape-rendering="crispEdges"/><path fill="#21648D" d="M1129.2,1087.4L1203.9,1093.7L1197.1,1033.5Z" shape-rendering="crispEdges"/><path fill="#056CA9" d="M1500.6,870.1L1544.8,789.3L1479.6,814.3Z" shape-rendering="crispEdges"/><path fill="#0F70AD" d="M1479.6,814.3L1544.8,789.3L1498.1,734.8Z" shape-rendering="crispEdges"/><path fill="#3B80B2" d="M1554.1,626L1611.6,597.2L1566.1,568.6Z" shape-rendering="crispEdges"/><path fill="#0567A1" d="M1500.6,870.1L1407.6,897.8L1478.8,967.7Z" shape-rendering="crispEdges"/><path fill="#C0CAE2" d="M413.2,370L449.5,423.9L512,347.3Z" shape-rendering="crispEdges"/><path fill="#9EBBD9" d="M338.8,582.6L375.1,637.5L442,603Z" shape-rendering="crispEdges"/><path fill="#CACEE4" d="M448.7,286.3L512,347.3L526.7,276.8Z" shape-rendering="crispEdges"/><path fill="#07669F" d="M1478.8,967.7L1407.6,897.8L1394.4,952.5Z" shape-rendering="crispEdges"/><path fill="#5D8BB9" d="M1644.8,432.5L1543.9,443.5L1566.3,476.2Z" shape-rendering="crispEdges"/><path fill="#658EBA" d="M1644.8,432.5L1573.4,362.7L1543.9,443.5Z" shape-rendering="crispEdges"/><path fill="#829DC7" d="M1505.9,263.4L1536.4,257.2L1483.9,230.6Z" shape-rendering="crispEdges"/><path fill="#3E6E91" d="M933.4,1127.8L1007.6,1130.5L951.7,1005.4Z" shape-rendering="crispEdges"/><path fill="#98B2D5" d="M1394.5,114.9L1308.2,29.7L1340.9,142.6Z" shape-rendering="crispEdges"/><path fill="#136EA7" d="M1628.1,737.4L1572.4,746L1622.1,795.2Z" shape-rendering="crispEdges"/><path fill="#1572AC" d="M1544.8,789.3L1572.4,746L1498.1,734.8Z" shape-rendering="crispEdges"/><path fill="#5086B5" d="M1566.1,568.6L1662.5,485L1566.3,476.2Z" shape-rendering="crispEdges"/><path fill="#457093" d="M857,1100.1L933.4,1127.8L951.7,1005.4Z" shape-rendering="crispEdges"/><path fill="#7B98C3" d="M1573.4,362.7L1536.4,257.2L1505.9,263.4Z" shape-rendering="crispEdges"/><path fill="#8BA5CE" d="M1483.9,230.6L1459.1,107L1419,205.1Z" shape-rendering="crispEdges"/><path fill="#A4C0DD" d="M1278.3,-12.2L1199.7,-23.7L1209.4,36Z" shape-rendering="crispEdges"/><path fill="#337CAE" d="M1652.6,651.2L1611.6,597.2L1554.1,626Z" shape-rendering="crispEdges"/><path fill="#BBCFE5" d="M938.1,-86.7L965.8,-1.2L1017.3,0.3Z" shape-rendering="crispEdges"/><path fill="#CFD5E9" d="M637.7,68L709.4,149.7L734,54.7Z" shape-rendering="crispEdges"/><path fill="#B8CDE4" d="M938.1,-86.7L1017.3,0.3L1041.4,-108.5Z" shape-rendering="crispEdges"/><path fill="#D2D7E9" d="M637.7,68L600.3,110.6L685.1,154.2Z" shape-rendering="crispEdges"/><path fill="#D1D3E7" d="M567.8,179.5L500.3,203.5L526.7,276.8Z" shape-rendering="crispEdges"/><path fill="#D5DAEB" d="M637.7,68L734,54.7L660.2,-46.2Z" shape-rendering="crispEdges"/><path fill="#1A6089" d="M1233.4,1150.4L1265.9,1093L1203.9,1093.7Z" shape-rendering="crispEdges"/><path fill="#1B628B" d="M1203.9,1093.7L1265.9,1093L1197.1,1033.5Z" shape-rendering="crispEdges"/><path fill="#0C6296" d="M1344.1,1010L1436.5,1008.7L1394.4,952.5Z" shape-rendering="crispEdges"/><path fill="#517495" d="M754,1103L837,1120.4L812,1045.1Z" shape-rendering="crispEdges"/><path fill="#487193" d="M857,1100.1L869.5,1166.2L933.4,1127.8Z" shape-rendering="crispEdges"/><path fill="#98B7D7" d="M375.1,637.5L424.5,665.4L442,603Z" shape-rendering="crispEdges"/><path fill="#98B6D7" d="M442,603L424.5,665.4L491.7,600.8Z" shape-rendering="crispEdges"/><path fill="#7C9CC8" d="M535.1,786.7L499.3,862.7L566.2,813.6Z" shape-rendering="crispEdges"/><path fill="#CED7E9" d="M737.5,-19.9L734,54.7L822.1,0.9Z" shape-rendering="crispEdges"/><path fill="#84A3CD" d="M414.1,799.9L535.1,786.7L511,735.1Z" shape-rendering="crispEdges"/><path fill="#6583A7" d="M591.2,1046.4L678.1,1050.7L683.7,928.9Z" shape-rendering="crispEdges"/><path fill="#579" d="M763.1,1050.8L754,1103L812,1045.1Z" shape-rendering="crispEdges"/><path fill="#7292BB" d="M561.9,956.4L647.1,888.6L588.3,875.5Z" shape-rendering="crispEdges"/><path fill="#A0BBDA" d="M1308.2,29.7L1278.3,-12.2L1241.4,78.4Z" shape-rendering="crispEdges"/><path fill="#A0BADA" d="M1360.9,-7.7L1278.3,-12.2L1308.2,29.7Z" shape-rendering="crispEdges"/><path fill="#99B3D6" d="M1403.6,33.6L1308.2,29.7L1394.5,114.9Z" shape-rendering="crispEdges"/><path fill="#7492BA" d="M535.5,943.5L561.9,956.4L588.3,875.5Z" shape-rendering="crispEdges"/><path fill="#8DAED2" d="M424.5,665.4L421,703.7L511,735.1Z" shape-rendering="crispEdges"/><path fill="#597899" d="M678.1,1050.7L754,1103L763.1,1050.8Z" shape-rendering="crispEdges"/><path fill="#D6D8EA" d="M513.2,134.3L567.8,179.5L600.3,110.6Z" shape-rendering="crispEdges"/><path fill="#D6D7E9" d="M513.2,134.3L500.3,203.5L567.8,179.5Z" shape-rendering="crispEdges"/><path fill="#33698F" d="M1046.8,1187.9L1108.8,1156.7L1007.6,1130.5Z" shape-rendering="crispEdges"/><path fill="#30688E" d="M1007.6,1130.5L1108.8,1156.7L1129.2,1087.4Z" shape-rendering="crispEdges"/><path fill="#3A6C90" d="M1046.8,1187.9L1007.6,1130.5L937.6,1191Z" shape-rendering="crispEdges"/><path fill="#8CA4CB" d="M1568.1,131.5L1459.1,107L1483.9,230.6Z" shape-rendering="crispEdges"/><path fill="#809AC2" d="M1620.2,275.7L1556.1,225.2L1536.4,257.2Z" shape-rendering="crispEdges"/><path fill="#839DC6" d="M1536.4,257.2L1556.1,225.2L1483.9,230.6Z" shape-rendering="crispEdges"/><path fill="#7996C0" d="M1620.2,275.7L1536.4,257.2L1573.4,362.7Z" shape-rendering="crispEdges"/><path fill="#D0D2E6" d="M500.3,203.5L448.7,286.3L526.7,276.8Z" shape-rendering="crispEdges"/><path fill="#B3C4DF" d="M449.5,423.9L368,494.8L461.5,494.8Z" shape-rendering="crispEdges"/><path fill="#93B4D5" d="M424.5,665.4L375.1,637.5L421,703.7Z" shape-rendering="crispEdges"/><path fill="#095B8D" d="M1433.3,1083.2L1436.5,1008.7L1344.1,1010Z" shape-rendering="crispEdges"/><path fill="#0569A5" d="M1500.6,870.1L1556.6,868.8L1544.8,789.3Z" shape-rendering="crispEdges"/><path fill="#056198" d="M1436.5,1008.7L1478.8,967.7L1394.4,952.5Z" shape-rendering="crispEdges"/><path fill="#7A94BB" d="M455.4,969.7L535.5,943.5L499.3,862.7Z" shape-rendering="crispEdges"/><path fill="#7895BE" d="M499.3,862.7L535.5,943.5L588.3,875.5Z" shape-rendering="crispEdges"/><path fill="#617C9C" d="M591.2,1046.4L678.1,1091.6L678.1,1050.7Z" shape-rendering="crispEdges"/><path fill="#28658C" d="M1108.8,1156.7L1165.3,1154L1129.2,1087.4Z" shape-rendering="crispEdges"/><path fill="#155E89" d="M1265.9,1093L1324.8,1110.3L1287.5,1004.1Z" shape-rendering="crispEdges"/><path fill="#04649C" d="M1581.4,959.9L1556.6,868.8L1500.6,870.1Z" shape-rendering="crispEdges"/><path fill="#1E76AC" d="M1572.4,746L1628.1,737.4L1554.1,626Z" shape-rendering="crispEdges"/><path fill="#CCD7E9" d="M810.1,-108.3L737.5,-19.9L822.1,0.9Z" shape-rendering="crispEdges"/><path fill="#C7CDE4" d="M448.7,286.3L413.2,370L512,347.3Z" shape-rendering="crispEdges"/><path fill="#AAC5DF" d="M1171.6,-77.9L1098.3,-26.3L1199.7,-23.7Z" shape-rendering="crispEdges"/><path fill="#B3CAE2" d="M1041.4,-108.5L1017.3,0.3L1098.3,-26.3Z" shape-rendering="crispEdges"/><path fill="#C8D5E8" d="M884.8,-39L810.1,-108.3L822.1,0.9Z" shape-rendering="crispEdges"/><path fill="#5988B5" d="M1662.5,485L1644.8,432.5L1566.3,476.2Z" shape-rendering="crispEdges"/><path fill="#93ABD2" d="M1468.6,65.7L1394.5,114.9L1459.1,107Z" shape-rendering="crispEdges"/><path fill="#96AED4" d="M1468.6,65.7L1403.6,33.6L1394.5,114.9Z" shape-rendering="crispEdges"/><path fill="#0F6DA8" d="M1622.1,795.2L1572.4,746L1544.8,789.3Z" shape-rendering="crispEdges"/><path fill="#4683B2" d="M1611.6,597.2L1662.5,485L1566.1,568.6Z" shape-rendering="crispEdges"/><path fill="#A3BEDC" d="M1277.1,-91.2L1199.7,-23.7L1278.3,-12.2Z" shape-rendering="crispEdges"/><path fill="#A5C1DD" d="M1277.1,-91.2L1171.6,-77.9L1199.7,-23.7Z" shape-rendering="crispEdges"/><path fill="#4C7294" d="M834.4,1177.9L869.5,1166.2L837,1120.4Z" shape-rendering="crispEdges"/><path fill="#4B7294" d="M837,1120.4L869.5,1166.2L857,1100.1Z" shape-rendering="crispEdges"/><path fill="#ACC6E0" d="M1171.6,-77.9L1106.9,-92L1098.3,-26.3Z" shape-rendering="crispEdges"/><path fill="#2478AB" d="M1628.1,737.4L1652.6,651.2L1554.1,626Z" shape-rendering="crispEdges"/><path fill="#1C628A" d="M1165.3,1154L1233.4,1150.4L1203.9,1093.7Z" shape-rendering="crispEdges"/><path fill="#145C87" d="M1309.6,1162.6L1324.8,1110.3L1265.9,1093Z" shape-rendering="crispEdges"/><path fill="#6B8FBA" d="M1644.8,432.5L1626.9,329.9L1573.4,362.7Z" shape-rendering="crispEdges"/><path fill="#3F6E91" d="M937.6,1191L1007.6,1130.5L933.4,1127.8Z" shape-rendering="crispEdges"/><path fill="#2C678D" d="M1108.8,1156.7L1046.8,1187.9L1165.3,1154Z" shape-rendering="crispEdges"/><path fill="#1A6089" d="M1165.3,1154L1309.6,1162.6L1233.4,1150.4Z" shape-rendering="crispEdges"/><path fill="#5B7897" d="M678.1,1050.7L678.1,1091.6L754,1103Z" shape-rendering="crispEdges"/><path fill="#507495" d="M754,1103L834.4,1177.9L837,1120.4Z" shape-rendering="crispEdges"/><path fill="#6C89AF" d="M591.2,1046.4L683.7,928.9L561.9,956.4Z" shape-rendering="crispEdges"/><path fill="#4681AF" d="M1683,567.6L1662.5,485L1611.6,597.2Z" shape-rendering="crispEdges"/><path fill="#728FB6" d="M1723.2,349L1696.9,295.1L1626.9,329.9Z" shape-rendering="crispEdges"/><path fill="#9DB6D8" d="M1403.6,33.6L1360.9,-7.7L1308.2,29.7Z" shape-rendering="crispEdges"/><path fill="#D9DAEB" d="M580.1,62.3L513.2,134.3L600.3,110.6Z" shape-rendering="crispEdges"/><path fill="#D2D3E7" d="M355.1,269.4L360.9,329.9L448.7,286.3Z" shape-rendering="crispEdges"/><path fill="#D7DAEB" d="M580.1,62.3L600.3,110.6L637.7,68Z" shape-rendering="crispEdges"/><path fill="#A9C0DC" d="M368,494.8L442,603L461.5,494.8Z" shape-rendering="crispEdges"/><path fill="#89A8D0" d="M421,703.7L414.1,799.9L511,735.1Z" shape-rendering="crispEdges"/><path fill="#DBDDED" d="M596.9,-43.9L580.1,62.3L637.7,68Z" shape-rendering="crispEdges"/><path fill="#B1C9E1" d="M1106.9,-92L1041.4,-108.5L1098.3,-26.3Z" shape-rendering="crispEdges"/><path fill="#ABC5DF" d="M1277.1,-91.2L1041.4,-108.5L1106.9,-92Z" shape-rendering="crispEdges"/><path fill="#B9C7E1" d="M360.2,433.3L368,494.8L449.5,423.9Z" shape-rendering="crispEdges"/><path fill="#447092" d="M869.5,1166.2L937.6,1191L933.4,1127.8Z" shape-rendering="crispEdges"/><path fill="#05659E" d="M1617.2,899.5L1622.1,795.2L1556.6,868.8Z" shape-rendering="crispEdges"/><path fill="#0569A5" d="M1556.6,868.8L1622.1,795.2L1544.8,789.3Z" shape-rendering="crispEdges"/><path fill="#2174A6" d="M1697.9,729.2L1692.2,647.9L1652.6,651.2Z" shape-rendering="crispEdges"/><path fill="#91A8CE" d="M1568.1,131.5L1468.6,65.7L1459.1,107Z" shape-rendering="crispEdges"/><path fill="#9CB4D7" d="M1403.6,33.6L1427.9,-32.6L1360.9,-7.7Z" shape-rendering="crispEdges"/><path fill="#87A0C7" d="M1568.1,131.5L1483.9,230.6L1556.1,225.2Z" shape-rendering="crispEdges"/><path fill="#8BA9D0" d="M369.5,778.6L414.1,799.9L421,703.7Z" shape-rendering="crispEdges"/><path fill="#BDD0E5" d="M1041.4,-108.5L877.2,-98.1L938.1,-86.7Z" shape-rendering="crispEdges"/><path fill="#C2D2E7" d="M938.1,-86.7L877.2,-98.1L884.8,-39Z" shape-rendering="crispEdges"/><path fill="#D4DAEB" d="M737.5,-19.9L660.2,-46.2L734,54.7Z" shape-rendering="crispEdges"/><path fill="#7793BA" d="M1696.9,295.1L1620.2,275.7L1626.9,329.9Z" shape-rendering="crispEdges"/><path fill="#7493BC" d="M1626.9,329.9L1620.2,275.7L1573.4,362.7Z" shape-rendering="crispEdges"/><path fill="#6F87A9" d="M494.6,1030L591.2,1046.4L561.9,956.4Z" shape-rendering="crispEdges"/><path fill="#677D9A" d="M585.3,1094.9L591.2,1046.4L526,1114.3Z" shape-rendering="crispEdges"/><path fill="#547596" d="M732.1,1162L834.4,1177.9L754,1103Z" shape-rendering="crispEdges"/><path fill="#487193" d="M869.5,1166.2L834.4,1177.9L937.6,1191Z" shape-rendering="crispEdges"/><path fill="#597797" d="M732.1,1162L754,1103L678.1,1091.6Z" shape-rendering="crispEdges"/><path fill="#387CAC" d="M1652.6,651.2L1683,567.6L1611.6,597.2Z" shape-rendering="crispEdges"/><path fill="#8299BE" d="M1709,175.8L1607.5,193.5L1620.2,275.7Z" shape-rendering="crispEdges"/><path fill="#3379A9" d="M1692.2,647.9L1683,567.6L1652.6,651.2Z" shape-rendering="crispEdges"/><path fill="#BFCAE2" d="M413.2,370L360.2,433.3L449.5,423.9Z" shape-rendering="crispEdges"/><path fill="#A7BFDC" d="M368,494.8L338.8,582.6L442,603Z" shape-rendering="crispEdges"/><path fill="#C5CEE4" d="M360.9,329.9L360.2,433.3L413.2,370Z" shape-rendering="crispEdges"/><path fill="#CBD0E5" d="M360.9,329.9L413.2,370L448.7,286.3Z" shape-rendering="crispEdges"/><path fill="#045C91" d="M1436.5,1008.7L1494.4,1019.2L1478.8,967.7Z" shape-rendering="crispEdges"/><path fill="#046198" d="M1581.4,959.9L1617.2,899.5L1556.6,868.8Z" shape-rendering="crispEdges"/><path fill="#04588A" d="M1433.3,1083.2L1494.4,1019.2L1436.5,1008.7Z" shape-rendering="crispEdges"/><path fill="#0E5987" d="M1324.8,1110.3L1433.3,1083.2L1344.1,1010Z" shape-rendering="crispEdges"/><path fill="#0B5784" d="M1391.9,1176.4L1433.3,1083.2L1324.8,1110.3Z" shape-rendering="crispEdges"/><path fill="#AEC4DE" d="M298.3,527.2L338.8,582.6L368,494.8Z" shape-rendering="crispEdges"/><path fill="#8FAED2" d="M342.1,702.5L369.5,778.6L421,703.7Z" shape-rendering="crispEdges"/><path fill="#1D72A6" d="M1697.9,729.2L1652.6,651.2L1628.1,737.4Z" shape-rendering="crispEdges"/><path fill="#5D7898" d="M639.8,1191.8L732.1,1162L678.1,1091.6Z" shape-rendering="crispEdges"/><path fill="#C1D1E6" d="M1041.4,-108.5L810.1,-108.3L877.2,-98.1Z" shape-rendering="crispEdges"/><path fill="#C6D4E8" d="M877.2,-98.1L810.1,-108.3L884.8,-39Z" shape-rendering="crispEdges"/><path fill="#21638B" d="M1046.8,1187.9L1309.6,1162.6L1165.3,1154Z" shape-rendering="crispEdges"/><path fill="#175E88" d="M1233.4,1150.4L1309.6,1162.6L1265.9,1093Z" shape-rendering="crispEdges"/><path fill="#5A87B2" d="M1698.5,448.5L1644.8,432.5L1662.5,485Z" shape-rendering="crispEdges"/><path fill="#819AC1" d="M1620.2,275.7L1607.5,193.5L1556.1,225.2Z" shape-rendering="crispEdges"/><path fill="#A0B9D9" d="M1341.4,-80.3L1278.3,-12.2L1360.9,-7.7Z" shape-rendering="crispEdges"/><path fill="#A1BBDA" d="M1341.4,-80.3L1277.1,-91.2L1278.3,-12.2Z" shape-rendering="crispEdges"/><path fill="#A7C3DE" d="M1171.6,-77.9L1277.1,-91.2L1106.9,-92Z" shape-rendering="crispEdges"/><path fill="#4E82AE" d="M1706.1,478.1L1662.5,485L1683,567.6Z" shape-rendering="crispEdges"/><path fill="#5684AF" d="M1706.1,478.1L1698.5,448.5L1662.5,485Z" shape-rendering="crispEdges"/><path fill="#879FC4" d="M1607.5,193.5L1568.1,131.5L1556.1,225.2Z" shape-rendering="crispEdges"/><path fill="#98AFD4" d="M1468.6,65.7L1463.2,3.9L1403.6,33.6Z" shape-rendering="crispEdges"/><path fill="#87A2CD" d="M369.5,778.6L410.9,864.2L414.1,799.9Z" shape-rendering="crispEdges"/><path fill="#839EC8" d="M414.1,799.9L410.9,864.2L499.3,862.7Z" shape-rendering="crispEdges"/><path fill="#D5DBEC" d="M687.6,-69.7L660.2,-46.2L737.5,-19.9Z" shape-rendering="crispEdges"/><path fill="#DBDAEB" d="M443.4,138.2L500.3,203.5L513.2,134.3Z" shape-rendering="crispEdges"/><path fill="#93B4D5" d="M342.1,702.5L421,703.7L375.1,637.5Z" shape-rendering="crispEdges"/><path fill="#4A7EA9" d="M1776.8,521L1706.1,478.1L1683,567.6Z" shape-rendering="crispEdges"/><path fill="#D6D6E9" d="M429.5,175.2L448.7,286.3L500.3,203.5Z" shape-rendering="crispEdges"/><path fill="#B8C8E1" d="M297.7,420.3L298.3,527.2L368,494.8Z" shape-rendering="crispEdges"/><path fill="#E0DEED" d="M443.4,138.2L513.2,134.3L494.1,30.9Z" shape-rendering="crispEdges"/><path fill="#DBDAEB" d="M443.4,138.2L429.5,175.2L500.3,203.5Z" shape-rendering="crispEdges"/><path fill="#97B7D7" d="M298.9,659.2L342.1,702.5L375.1,637.5Z" shape-rendering="crispEdges"/><path fill="#04629A" d="M1581.4,959.9L1500.6,870.1L1478.8,967.7Z" shape-rendering="crispEdges"/><path fill="#146DA4" d="M1622.1,795.2L1697.9,729.2L1628.1,737.4Z" shape-rendering="crispEdges"/><path fill="#045C91" d="M1581.4,959.9L1478.8,967.7L1494.4,1019.2Z" shape-rendering="crispEdges"/><path fill="#D3DAEB" d="M719.4,-100L687.6,-69.7L737.5,-19.9Z" shape-rendering="crispEdges"/><path fill="#97ADD1" d="M1551.5,-4.2L1463.2,3.9L1468.6,65.7Z" shape-rendering="crispEdges"/><path fill="#045A8C" d="M1617.1,952.9L1581.4,959.9L1617.8,1010.4Z" shape-rendering="crispEdges"/><path fill="#738DB1" d="M494.6,1030L561.9,956.4L535.5,943.5Z" shape-rendering="crispEdges"/><path fill="#637B9A" d="M591.2,1046.4L585.3,1094.9L678.1,1091.6Z" shape-rendering="crispEdges"/><path fill="#9DB5D8" d="M1427.9,-32.6L1341.4,-80.3L1360.9,-7.7Z" shape-rendering="crispEdges"/><path fill="#DEDDED" d="M494.1,30.9L513.2,134.3L580.1,62.3Z" shape-rendering="crispEdges"/><path fill="#D7D6E9" d="M429.5,175.2L355.1,269.4L448.7,286.3Z" shape-rendering="crispEdges"/><path fill="#DADDED" d="M596.9,-43.9L637.7,68L660.2,-46.2Z" shape-rendering="crispEdges"/><path fill="#0E68A0" d="M1708.7,817.2L1697.9,729.2L1622.1,795.2Z" shape-rendering="crispEdges"/><path fill="#4179A4" d="M1788.3,588.8L1776.8,521L1683,567.6Z" shape-rendering="crispEdges"/><path fill="#798DAD" d="M459.7,1029L455.4,969.7L337.2,1024.9Z" shape-rendering="crispEdges"/><path fill="#7F98C0" d="M410.9,864.2L455.4,969.7L499.3,862.7Z" shape-rendering="crispEdges"/><path fill="#9BB1D6" d="M1463.2,3.9L1427.9,-32.6L1403.6,33.6Z" shape-rendering="crispEdges"/><path fill="#CFD8EA" d="M810.1,-108.3L719.4,-100L737.5,-19.9Z" shape-rendering="crispEdges"/><path fill="#DDDEEE" d="M558.8,-92.5L596.9,-43.9L660.2,-46.2Z" shape-rendering="crispEdges"/><path fill="#768DB1" d="M455.4,969.7L494.6,1030L535.5,943.5Z" shape-rendering="crispEdges"/><path fill="#DCDAEB" d="M364,180.6L355.1,269.4L429.5,175.2Z" shape-rendering="crispEdges"/><path fill="#BCCAE2" d="M297.7,420.3L368,494.8L360.2,433.3Z" shape-rendering="crispEdges"/><path fill="#C5CEE4" d="M297.7,420.3L360.2,433.3L360.9,329.9Z" shape-rendering="crispEdges"/><path fill="#9EBBD9" d="M338.8,582.6L298.9,659.2L375.1,637.5Z" shape-rendering="crispEdges"/><path fill="#8EA3C6" d="M1627.9,125.6L1582.9,69.5L1568.1,131.5Z" shape-rendering="crispEdges"/><path fill="#6A8DB6" d="M1723.2,349L1626.9,329.9L1644.8,432.5Z" shape-rendering="crispEdges"/><path fill="#6289B2" d="M1723.2,349L1644.8,432.5L1698.5,448.5Z" shape-rendering="crispEdges"/><path fill="#DADDED" d="M558.8,-92.5L660.2,-46.2L687.6,-69.7Z" shape-rendering="crispEdges"/><path fill="#045E93" d="M1581.4,959.9L1617.1,952.9L1617.2,899.5Z" shape-rendering="crispEdges"/><path fill="#04649C" d="M1698,868.8L1708.7,817.2L1622.1,795.2Z" shape-rendering="crispEdges"/><path fill="#04598C" d="M1584,1008.3L1581.4,959.9L1494.4,1019.2Z" shape-rendering="crispEdges"/><path fill="#AAC2DD" d="M298.3,527.2L292.8,583.8L338.8,582.6Z" shape-rendering="crispEdges"/><path fill="#92B0D4" d="M342.1,702.5L284.9,701.3L369.5,778.6Z" shape-rendering="crispEdges"/><path fill="#A3BEDB" d="M292.8,583.8L298.9,659.2L338.8,582.6Z" shape-rendering="crispEdges"/><path fill="#8199BF" d="M345.9,898.9L455.4,969.7L410.9,864.2Z" shape-rendering="crispEdges"/><path fill="#5A83AB" d="M1800,406.5L1698.5,448.5L1706.1,478.1Z" shape-rendering="crispEdges"/><path fill="#6587AE" d="M1764.1,356.8L1723.2,349L1698.5,448.5Z" shape-rendering="crispEdges"/><path fill="#CBD1E6" d="M262.4,361.4L297.7,420.3L360.9,329.9Z" shape-rendering="crispEdges"/><path fill="#AEC5DF" d="M298.3,527.2L225.4,555.6L292.8,583.8Z" shape-rendering="crispEdges"/><path fill="#035382" d="M1492.9,1118.8L1494.4,1019.2L1433.3,1083.2Z" shape-rendering="crispEdges"/><path fill="#035381" d="M1575.6,1113.3L1584,1008.3L1494.4,1019.2Z" shape-rendering="crispEdges"/><path fill="#E1E0EE" d="M514.9,0.6L494.1,30.9L580.1,62.3Z" shape-rendering="crispEdges"/><path fill="#DFDDEC" d="M443.4,138.2L364,180.6L429.5,175.2Z" shape-rendering="crispEdges"/><path fill="#195F89" d="M1046.8,1187.9L1391.9,1176.4L1309.6,1162.6Z" shape-rendering="crispEdges"/><path fill="#105986" d="M1309.6,1162.6L1391.9,1176.4L1324.8,1110.3Z" shape-rendering="crispEdges"/><path fill="#91A7CB" d="M1568.1,131.5L1582.9,69.5L1468.6,65.7Z" shape-rendering="crispEdges"/><path fill="#9AB0D4" d="M1463.2,3.9L1483.6,-102L1427.9,-32.6Z" shape-rendering="crispEdges"/><path fill="#8AA0C4" d="M1627.9,125.6L1568.1,131.5L1607.5,193.5Z" shape-rendering="crispEdges"/><path fill="#7D95BA" d="M1709,175.8L1620.2,275.7L1696.9,295.1Z" shape-rendering="crispEdges"/><path fill="#889DC0" d="M1699.6,154.4L1627.9,125.6L1607.5,193.5Z" shape-rendering="crispEdges"/><path fill="#E0E0EE" d="M596.9,-43.9L514.9,0.6L580.1,62.3Z" shape-rendering="crispEdges"/><path fill="#86A0C9" d="M345.9,898.9L410.9,864.2L369.5,778.6Z" shape-rendering="crispEdges"/><path fill="#768AAB" d="M455.4,969.7L459.7,1029L494.6,1030Z" shape-rendering="crispEdges"/><path fill="#6B809E" d="M494.6,1030L526,1114.3L591.2,1046.4Z" shape-rendering="crispEdges"/><path fill="#045D92" d="M1698,868.8L1617.2,899.5L1727.8,951.6Z" shape-rendering="crispEdges"/><path fill="#04639B" d="M1698,868.8L1622.1,795.2L1617.2,899.5Z" shape-rendering="crispEdges"/><path fill="#3778A5" d="M1788.3,588.8L1683,567.6L1692.2,647.9Z" shape-rendering="crispEdges"/><path fill="#035281" d="M1473.4,1165.7L1492.9,1118.8L1433.3,1083.2Z" shape-rendering="crispEdges"/><path fill="#E2DFEE" d="M310.9,214.6L364,180.6L309.6,152.9Z" shape-rendering="crispEdges"/><path fill="#E2DFEE" d="M332.9,128.1L364,180.6L443.4,138.2Z" shape-rendering="crispEdges"/><path fill="#D4D5E8" d="M355.1,269.4L296.5,304.8L360.9,329.9Z" shape-rendering="crispEdges"/><path fill="#9BBAD9" d="M200.4,652.1L284.9,701.3L298.9,659.2Z" shape-rendering="crispEdges"/><path fill="#96B6D7" d="M298.9,659.2L284.9,701.3L342.1,702.5Z" shape-rendering="crispEdges"/><path fill="#A2BEDB" d="M200.4,652.1L298.9,659.2L292.8,583.8Z" shape-rendering="crispEdges"/><path fill="#647B99" d="M600.3,1182.9L639.8,1191.8L585.3,1094.9Z" shape-rendering="crispEdges"/><path fill="#617A99" d="M585.3,1094.9L639.8,1191.8L678.1,1091.6Z" shape-rendering="crispEdges"/><path fill="#587697" d="M732.1,1162L639.8,1191.8L834.4,1177.9Z" shape-rendering="crispEdges"/><path fill="#517495" d="M834.4,1177.9L639.8,1191.8L937.6,1191Z" shape-rendering="crispEdges"/><path fill="#045C90" d="M1727.8,951.6L1617.2,899.5L1617.1,952.9Z" shape-rendering="crispEdges"/><path fill="#6E809C" d="M435.3,1111.2L526,1114.3L494.6,1030Z" shape-rendering="crispEdges"/><path fill="#13689C" d="M1764.6,720.9L1697.9,729.2L1708.7,817.2Z" shape-rendering="crispEdges"/><path fill="#1D6FA0" d="M1764.6,720.9L1692.2,647.9L1697.9,729.2Z" shape-rendering="crispEdges"/><path fill="#03517F" d="M1617.8,1099.7L1617.8,1010.4L1584,1008.3Z" shape-rendering="crispEdges"/><path fill="#045889" d="M1584,1008.3L1617.8,1010.4L1581.4,959.9Z" shape-rendering="crispEdges"/><path fill="#DAD9EA" d="M310.9,214.6L296.5,304.8L355.1,269.4Z" shape-rendering="crispEdges"/><path fill="#B5C9E1" d="M213.1,478.1L225.4,555.6L298.3,527.2Z" shape-rendering="crispEdges"/><path fill="#88A1C8" d="M296.6,888.2L345.9,898.9L369.5,778.6Z" shape-rendering="crispEdges"/><path fill="#7284A1" d="M459.7,1029L435.3,1111.2L494.6,1030Z" shape-rendering="crispEdges"/><path fill="#93A8CA" d="M1610.2,29.4L1551.5,-4.2L1582.9,69.5Z" shape-rendering="crispEdges"/><path fill="#94AACD" d="M1582.9,69.5L1551.5,-4.2L1468.6,65.7Z" shape-rendering="crispEdges"/><path fill="#9DB4D7" d="M1427.9,-32.6L1412.3,-115.8L1341.4,-80.3Z" shape-rendering="crispEdges"/><path fill="#677D9A" d="M526,1114.3L600.3,1182.9L585.3,1094.9Z" shape-rendering="crispEdges"/><path fill="#0C6296" d="M1812.5,814L1764.6,720.9L1708.7,817.2Z" shape-rendering="crispEdges"/><path fill="#9AB1D5" d="M1483.6,-102L1412.3,-115.8L1427.9,-32.6Z" shape-rendering="crispEdges"/><path fill="#9FB8D9" d="M1341.4,-80.3L1412.3,-115.8L1277.1,-91.2Z" shape-rendering="crispEdges"/><path fill="#A3BFDC" d="M1277.1,-91.2L1412.3,-115.8L1041.4,-108.5Z" shape-rendering="crispEdges"/><path fill="#CCD7E9" d="M1041.4,-108.5L522.5,-119.1L810.1,-108.3Z" shape-rendering="crispEdges"/><path fill="#6184AB" d="M1800,406.5L1764.1,356.8L1698.5,448.5Z" shape-rendering="crispEdges"/><path fill="#6E8BB1" d="M1723.2,349L1764.1,356.8L1696.9,295.1Z" shape-rendering="crispEdges"/><path fill="#90A4C6" d="M1627.9,125.6L1610.2,29.4L1582.9,69.5Z" shape-rendering="crispEdges"/><path fill="#045483" d="M1391.9,1176.4L1473.4,1165.7L1433.3,1083.2Z" shape-rendering="crispEdges"/><path fill="#03507D" d="M1492.9,1118.8L1575.6,1113.3L1494.4,1019.2Z" shape-rendering="crispEdges"/><path fill="#2D729F" d="M1786.8,674.2L1788.3,588.8L1692.2,647.9Z" shape-rendering="crispEdges"/><path fill="#547FA7" d="M1776.8,521L1800,406.5L1706.1,478.1Z" shape-rendering="crispEdges"/><path fill="#D7D8EA" d="M226.6,261.5L262.4,361.4L296.5,304.8Z" shape-rendering="crispEdges"/><path fill="#D1D4E8" d="M296.5,304.8L262.4,361.4L360.9,329.9Z" shape-rendering="crispEdges"/><path fill="#2C6C96" d="M1851.6,595.6L1786.8,674.2L1866.9,626.6Z" shape-rendering="crispEdges"/><path fill="#1F6F9E" d="M1764.6,720.9L1786.8,674.2L1692.2,647.9Z" shape-rendering="crispEdges"/><path fill="#DDDBEC" d="M364,180.6L310.9,214.6L355.1,269.4Z" shape-rendering="crispEdges"/><path fill="#E4E1EF" d="M414.2,42L443.4,138.2L494.1,30.9Z" shape-rendering="crispEdges"/><path fill="#7E93B5" d="M1781.2,178.9L1709,175.8L1696.9,295.1Z" shape-rendering="crispEdges"/><path fill="#8EA1C2" d="M1737.4,80.6L1610.2,29.4L1627.9,125.6Z" shape-rendering="crispEdges"/><path fill="#98AED1" d="M1551.5,-4.2L1483.6,-102L1463.2,3.9Z" shape-rendering="crispEdges"/><path fill="#859BBE" d="M1709,175.8L1699.6,154.4L1607.5,193.5Z" shape-rendering="crispEdges"/><path fill="#D8DCEC" d="M719.4,-100L558.8,-92.5L687.6,-69.7Z" shape-rendering="crispEdges"/><path fill="#E1E1EF" d="M596.9,-43.9L558.8,-92.5L514.9,0.6Z" shape-rendering="crispEdges"/><path fill="#E9E5F1" d="M412.2,-31.2L414.2,42L494.1,30.9Z" shape-rendering="crispEdges"/><path fill="#DDDFEE" d="M522.5,-119.1L558.8,-92.5L719.4,-100Z" shape-rendering="crispEdges"/><path fill="#E8E4F1" d="M412.2,-31.2L494.1,30.9L514.9,0.6Z" shape-rendering="crispEdges"/><path fill="#BCCBE3" d="M213.1,478.1L298.3,527.2L297.7,420.3Z" shape-rendering="crispEdges"/><path fill="#8CA5CD" d="M257,812.1L296.6,888.2L369.5,778.6Z" shape-rendering="crispEdges"/><path fill="#527BA1" d="M1862,474.7L1800,406.5L1776.8,521Z" shape-rendering="crispEdges"/><path fill="#718AAE" d="M1764.1,356.8L1810.6,271.4L1696.9,295.1Z" shape-rendering="crispEdges"/><path fill="#3D749D" d="M1851.6,595.6L1776.8,521L1788.3,588.8Z" shape-rendering="crispEdges"/><path fill="#97ACCE" d="M1567.1,-108.7L1483.6,-102L1551.5,-4.2Z" shape-rendering="crispEdges"/><path fill="#034F7B" d="M1568.4,1187.8L1575.6,1113.3L1492.9,1118.8Z" shape-rendering="crispEdges"/><path fill="#045889" d="M1617.8,1010.4L1727.8,951.6L1617.1,952.9Z" shape-rendering="crispEdges"/><path fill="#91ACD2" d="M257,812.1L369.5,778.6L284.9,701.3Z" shape-rendering="crispEdges"/><path fill="#8097BA" d="M345.9,898.9L332.2,979.5L455.4,969.7Z" shape-rendering="crispEdges"/><path fill="#E5E2EF" d="M414.2,42L332.9,128.1L443.4,138.2Z" shape-rendering="crispEdges"/><path fill="#CDD4E8" d="M193.3,375.7L225.1,422.7L262.4,361.4Z" shape-rendering="crispEdges"/><path fill="#DDDBEB" d="M226.6,261.5L296.5,304.8L310.9,214.6Z" shape-rendering="crispEdges"/><path fill="#C9D1E6" d="M262.4,361.4L225.1,422.7L297.7,420.3Z" shape-rendering="crispEdges"/><path fill="#96B2D5" d="M188.7,704.6L257,812.1L284.9,701.3Z" shape-rendering="crispEdges"/><path fill="#C3CFE5" d="M225.1,422.7L213.1,478.1L297.7,420.3Z" shape-rendering="crispEdges"/><path fill="#A9C2DD" d="M225.4,555.6L200.4,652.1L292.8,583.8Z" shape-rendering="crispEdges"/><path fill="#E4E1EF" d="M332.9,128.1L309.6,152.9L364,180.6Z" shape-rendering="crispEdges"/><path fill="#869DC1" d="M298.6,963.3L345.9,898.9L296.6,888.2Z" shape-rendering="crispEdges"/><path fill="#8499BC" d="M298.6,963.3L332.2,979.5L345.9,898.9Z" shape-rendering="crispEdges"/><path fill="#697E9B" d="M526,1114.3L499.1,1187.5L600.3,1182.9Z" shape-rendering="crispEdges"/><path fill="#7587A3" d="M337.2,1024.9L435.3,1111.2L459.7,1029Z" shape-rendering="crispEdges"/><path fill="#034B76" d="M1655.9,1172.8L1617.8,1099.7L1575.6,1113.3Z" shape-rendering="crispEdges"/><path fill="#034D79" d="M1575.6,1113.3L1617.8,1099.7L1584,1008.3Z" shape-rendering="crispEdges"/><path fill="#045B8F" d="M1801.2,903.2L1812.5,814L1708.7,817.2Z" shape-rendering="crispEdges"/><path fill="#045382" d="M1700,1039.6L1727.8,951.6L1617.8,1010.4Z" shape-rendering="crispEdges"/><path fill="#A9C3DE" d="M132.9,636.1L200.4,652.1L125.4,569.9Z" shape-rendering="crispEdges"/><path fill="#6E809C" d="M439.9,1155L499.1,1187.5L526,1114.3Z" shape-rendering="crispEdges"/><path fill="#667C9A" d="M600.3,1182.9L499.1,1187.5L639.8,1191.8Z" shape-rendering="crispEdges"/><path fill="#D6DBEC" d="M810.1,-108.3L522.5,-119.1L719.4,-100Z" shape-rendering="crispEdges"/><path fill="#E3E2EF" d="M558.8,-92.5L522.5,-119.1L514.9,0.6Z" shape-rendering="crispEdges"/><path fill="#E9E5F1" d="M414.2,42L353.5,38.2L332.9,128.1Z" shape-rendering="crispEdges"/><path fill="#ECE7F2" d="M268.7,35.6L206.6,150.8L309.6,152.9Z" shape-rendering="crispEdges"/><path fill="#D8DCEC" d="M423.1,-124.6L522.5,-119.1L1041.4,-108.5Z" shape-rendering="crispEdges"/><path fill="#7D91B1" d="M332.2,979.5L337.2,1024.9L455.4,969.7Z" shape-rendering="crispEdges"/><path fill="#70819D" d="M435.3,1111.2L439.9,1155L526,1114.3Z" shape-rendering="crispEdges"/><path fill="#889DBF" d="M214.1,960.8L298.6,963.3L296.6,888.2Z" shape-rendering="crispEdges"/><path fill="#8EA5CB" d="M186.6,868.4L296.6,888.2L257,812.1Z" shape-rendering="crispEdges"/><path fill="#7F92B0" d="M272.1,1012L337.2,1024.9L332.2,979.5Z" shape-rendering="crispEdges"/><path fill="#1A6897" d="M1839.2,730.6L1786.8,674.2L1764.6,720.9Z" shape-rendering="crispEdges"/><path fill="#306F9A" d="M1786.8,674.2L1851.6,595.6L1788.3,588.8Z" shape-rendering="crispEdges"/><path fill="#EBE7F2" d="M412.2,-31.2L353.5,38.2L414.2,42Z" shape-rendering="crispEdges"/><path fill="#E7E4F0" d="M522.5,-119.1L412.2,-31.2L514.9,0.6Z" shape-rendering="crispEdges"/><path fill="#94A7C6" d="M1701.1,-2.3L1618.6,-39L1610.2,29.4Z" shape-rendering="crispEdges"/><path fill="#95A9CA" d="M1610.2,29.4L1618.6,-39L1551.5,-4.2Z" shape-rendering="crispEdges"/><path fill="#8A9DBE" d="M1737.4,80.6L1627.9,125.6L1699.6,154.4Z" shape-rendering="crispEdges"/><path fill="#6583A6" d="M1845.5,337.8L1764.1,356.8L1800,406.5Z" shape-rendering="crispEdges"/><path fill="#6C85A8" d="M1845.5,337.8L1810.6,271.4L1764.1,356.8Z" shape-rendering="crispEdges"/><path fill="#8598B9" d="M1709,175.8L1764.4,126.6L1699.6,154.4Z" shape-rendering="crispEdges"/><path fill="#045C91" d="M1801.2,903.2L1708.7,817.2L1698,868.8Z" shape-rendering="crispEdges"/><path fill="#E4E1EE" d="M220.5,205.8L310.9,214.6L309.6,152.9Z" shape-rendering="crispEdges"/><path fill="#E2DFEE" d="M220.5,205.8L226.6,261.5L310.9,214.6Z" shape-rendering="crispEdges"/><path fill="#C6D1E6" d="M225.1,422.7L113.5,406.1L213.1,478.1Z" shape-rendering="crispEdges"/><path fill="#ACC4DF" d="M125.4,569.9L200.4,652.1L225.4,555.6Z" shape-rendering="crispEdges"/><path fill="#126293" d="M1812.5,814L1839.2,730.6L1764.6,720.9Z" shape-rendering="crispEdges"/><path fill="#73839E" d="M363.3,1155.7L439.9,1155L435.3,1111.2Z" shape-rendering="crispEdges"/><path fill="#D5D8EA" d="M226.6,261.5L193.3,375.7L262.4,361.4Z" shape-rendering="crispEdges"/><path fill="#034E7A" d="M1617.8,1099.7L1700,1039.6L1617.8,1010.4Z" shape-rendering="crispEdges"/><path fill="#04588B" d="M1727.8,951.6L1801.2,903.2L1698,868.8Z" shape-rendering="crispEdges"/><path fill="#798EB0" d="M1810.6,271.4L1781.2,178.9L1696.9,295.1Z" shape-rendering="crispEdges"/><path fill="#A0BEDB" d="M132.9,636.1L188.7,704.6L200.4,652.1Z" shape-rendering="crispEdges"/><path fill="#9BBAD9" d="M200.4,652.1L188.7,704.6L284.9,701.3Z" shape-rendering="crispEdges"/><path fill="#44759C" d="M1851.6,595.6L1862,474.7L1776.8,521Z" shape-rendering="crispEdges"/><path fill="#03507E" d="M1473.4,1165.7L1568.4,1187.8L1492.9,1118.8Z" shape-rendering="crispEdges"/><path fill="#034A73" d="M1617.8,1099.7L1726.7,1076.2L1700,1039.6Z" shape-rendering="crispEdges"/><path fill="#035280" d="M1391.9,1176.4L1568.4,1187.8L1473.4,1165.7Z" shape-rendering="crispEdges"/><path fill="#115A86" d="M1046.8,1187.9L1568.4,1187.8L1391.9,1176.4Z" shape-rendering="crispEdges"/><path fill="#1F638B" d="M937.6,1191L1568.4,1187.8L1046.8,1187.9Z" shape-rendering="crispEdges"/><path fill="#95A9C9" d="M1621,-110.9L1567.1,-108.7L1618.6,-39Z" shape-rendering="crispEdges"/><path fill="#96AACB" d="M1618.6,-39L1567.1,-108.7L1551.5,-4.2Z" shape-rendering="crispEdges"/><path fill="#99AED2" d="M1483.6,-102L1567.1,-108.7L1412.3,-115.8Z" shape-rendering="crispEdges"/><path fill="#5E7EA1" d="M1866.2,449.2L1845.5,337.8L1800,406.5Z" shape-rendering="crispEdges"/><path fill="#7A8CAA" d="M1810.6,271.4L1880.6,181.7L1781.2,178.9Z" shape-rendering="crispEdges"/><path fill="#1E6994" d="M1839.2,730.6L1866.9,626.6L1786.8,674.2Z" shape-rendering="crispEdges"/><path fill="#407196" d="M1851.6,595.6L1912.2,560.2L1862,474.7Z" shape-rendering="crispEdges"/><path fill="#567A9E" d="M1862,474.7L1866.2,449.2L1800,406.5Z" shape-rendering="crispEdges"/><path fill="#52779A" d="M1913,429.2L1866.2,449.2L1862,474.7Z" shape-rendering="crispEdges"/><path fill="#8697B3" d="M1767.6,32.6L1764.4,126.6L1832.9,117Z" shape-rendering="crispEdges"/><path fill="#8396B5" d="M1781.2,178.9L1764.4,126.6L1709,175.8Z" shape-rendering="crispEdges"/><path fill="#879AB9" d="M1764.4,126.6L1737.4,80.6L1699.6,154.4Z" shape-rendering="crispEdges"/><path fill="#6F85A6" d="M1845.5,337.8L1833.1,280.7L1810.6,271.4Z" shape-rendering="crispEdges"/><path fill="#045484" d="M1804.4,930.6L1801.2,903.2L1727.8,951.6Z" shape-rendering="crispEdges"/><path fill="#0B5C8D" d="M1812.5,814L1877.9,802.3L1839.2,730.6Z" shape-rendering="crispEdges"/><path fill="#2E688F" d="M1947.4,657.2L1912.2,560.2L1866.9,626.6Z" shape-rendering="crispEdges"/><path fill="#E8E4F0" d="M206.6,150.8L220.5,205.8L309.6,152.9Z" shape-rendering="crispEdges"/><path fill="#D6D9EA" d="M151,278.2L152.2,369.8L193.3,375.7Z" shape-rendering="crispEdges"/><path fill="#90A3C2" d="M1737.4,80.6L1701.1,-2.3L1610.2,29.4Z" shape-rendering="crispEdges"/><path fill="#8D9EBB" d="M1767.6,32.6L1701.1,-2.3L1737.4,80.6Z" shape-rendering="crispEdges"/><path fill="#98B2D5" d="M147.1,754.6L185.7,811.8L188.7,704.6Z" shape-rendering="crispEdges"/><path fill="#95AFD4" d="M188.7,704.6L185.7,811.8L257,812.1Z" shape-rendering="crispEdges"/><path fill="#8295B5" d="M298.6,963.3L272.1,1012L332.2,979.5Z" shape-rendering="crispEdges"/><path fill="#034F7C" d="M1790.3,1001.7L1727.8,951.6L1700,1039.6Z" shape-rendering="crispEdges"/><path fill="#03517F" d="M1790.3,1001.7L1804.4,930.6L1727.8,951.6Z" shape-rendering="crispEdges"/><path fill="#045788" d="M1873.9,857.1L1877.9,802.3L1812.5,814Z" shape-rendering="crispEdges"/><path fill="#8598B7" d="M214.1,960.8L272.1,1012L298.6,963.3Z" shape-rendering="crispEdges"/><path fill="#75859F" d="M337.2,1024.9L339,1123.7L435.3,1111.2Z" shape-rendering="crispEdges"/><path fill="#DBDBEC" d="M151,278.2L193.3,375.7L226.6,261.5Z" shape-rendering="crispEdges"/><path fill="#CCD4E8" d="M193.3,375.7L113.5,406.1L225.1,422.7Z" shape-rendering="crispEdges"/><path fill="#034973" d="M1655.9,1172.8L1726.7,1076.2L1617.8,1099.7Z" shape-rendering="crispEdges"/><path fill="#93A6C5" d="M1715.7,-90.5L1621,-110.9L1618.6,-39Z" shape-rendering="crispEdges"/><path fill="#97ACCE" d="M1567.1,-108.7L1621,-110.9L1412.3,-115.8Z" shape-rendering="crispEdges"/><path fill="#B4C9E2" d="M125.4,569.9L225.4,555.6L108.6,523Z" shape-rendering="crispEdges"/><path fill="#93AAD0" d="M112.2,795.3L186.6,868.4L185.7,811.8Z" shape-rendering="crispEdges"/><path fill="#91A8CF" d="M185.7,811.8L186.6,868.4L257,812.1Z" shape-rendering="crispEdges"/><path fill="#B8CBE3" d="M108.6,523L225.4,555.6L213.1,478.1Z" shape-rendering="crispEdges"/><path fill="#7787A0" d="M305.1,1113.4L339,1123.7L337.2,1024.9Z" shape-rendering="crispEdges"/><path fill="#71829D" d="M439.9,1155L363.3,1155.7L499.1,1187.5Z" shape-rendering="crispEdges"/><path fill="#1E658E" d="M1947.4,657.2L1866.9,626.6L1839.2,730.6Z" shape-rendering="crispEdges"/><path fill="#346C93" d="M1866.9,626.6L1912.2,560.2L1851.6,595.6Z" shape-rendering="crispEdges"/><path fill="#5B7A9C" d="M1866.2,449.2L1913,429.2L1845.5,337.8Z" shape-rendering="crispEdges"/><path fill="#6D82A1" d="M1845.5,337.8L1932.5,279.3L1833.1,280.7Z" shape-rendering="crispEdges"/><path fill="#EEE9F3" d="M412.2,-31.2L349.5,-49.9L353.5,38.2Z" shape-rendering="crispEdges"/><path fill="#EAE6F1" d="M268.7,35.6L309.6,152.9L332.9,128.1Z" shape-rendering="crispEdges"/><path fill="#ECE8F3" d="M423.1,-124.6L349.5,-49.9L412.2,-31.2Z" shape-rendering="crispEdges"/><path fill="#BCCFE5" d="M1412.3,-115.8L423.1,-124.6L1041.4,-108.5Z" shape-rendering="crispEdges"/><path fill="#E9E5F1" d="M522.5,-119.1L423.1,-124.6L412.2,-31.2Z" shape-rendering="crispEdges"/><path fill="#034C77" d="M1568.4,1187.8L1655.9,1172.8L1575.6,1113.3Z" shape-rendering="crispEdges"/><path fill="#9DB9D9" d="M74.7,678.9L147.1,754.6L188.7,704.6Z" shape-rendering="crispEdges"/><path fill="#75849F" d="M339,1123.7L363.3,1155.7L435.3,1111.2Z" shape-rendering="crispEdges"/><path fill="#035280" d="M1873.9,857.1L1801.2,903.2L1839.2,947.9Z" shape-rendering="crispEdges"/><path fill="#045687" d="M1873.9,857.1L1812.5,814L1801.2,903.2Z" shape-rendering="crispEdges"/><path fill="#03446B" d="M1832.7,1029.9L1790.3,1001.7L1777.9,1115.9Z" shape-rendering="crispEdges"/><path fill="#034A73" d="M1726.7,1076.2L1790.3,1001.7L1700,1039.6Z" shape-rendering="crispEdges"/><path fill="#4E7496" d="M1931.5,500.6L1913,429.2L1862,474.7Z" shape-rendering="crispEdges"/><path fill="#8294B1" d="M1832.9,117L1764.4,126.6L1781.2,178.9Z" shape-rendering="crispEdges"/><path fill="#899AB7" d="M1764.4,126.6L1767.6,32.6L1737.4,80.6Z" shape-rendering="crispEdges"/><path fill="#ECE7F2" d="M268.7,35.6L332.9,128.1L353.5,38.2Z" shape-rendering="crispEdges"/><path fill="#E2DFEE" d="M220.5,205.8L151,278.2L226.6,261.5Z" shape-rendering="crispEdges"/><path fill="#F0EBF4" d="M298.5,-17.1L268.7,35.6L353.5,38.2Z" shape-rendering="crispEdges"/><path fill="#8595B1" d="M229.6,1048.9L214.1,960.8L115.2,1032.7Z" shape-rendering="crispEdges"/><path fill="#8CA1C4" d="M186.6,868.4L214.1,960.8L296.6,888.2Z" shape-rendering="crispEdges"/><path fill="#7B8CA7" d="M272.1,1012L305.1,1113.4L337.2,1024.9Z" shape-rendering="crispEdges"/><path fill="#7787A0" d="M339,1123.7L278.1,1196.3L363.3,1155.7Z" shape-rendering="crispEdges"/><path fill="#7F8FAB" d="M1832.9,117L1781.2,178.9L1880.6,181.7Z" shape-rendering="crispEdges"/><path fill="#93A5C3" d="M1701.1,-2.3L1715.7,-90.5L1618.6,-39Z" shape-rendering="crispEdges"/><path fill="#E6E2EF" d="M162.2,175.2L151,278.2L220.5,205.8Z" shape-rendering="crispEdges"/><path fill="#C2D0E5" d="M113.5,406.1L108.6,523L213.1,478.1Z" shape-rendering="crispEdges"/><path fill="#D0D6E9" d="M113.5,406.1L193.3,375.7L152.2,369.8Z" shape-rendering="crispEdges"/><path fill="#ABC5DF" d="M48.2,549.7L74.7,678.9L132.9,636.1Z" shape-rendering="crispEdges"/><path fill="#99B3D6" d="M83.2,755L112.2,795.3L147.1,754.6Z" shape-rendering="crispEdges"/><path fill="#035280" d="M1839.2,947.9L1801.2,903.2L1804.4,930.6Z" shape-rendering="crispEdges"/><path fill="#3E6D91" d="M1998.4,578.1L1931.5,500.6L1912.2,560.2Z" shape-rendering="crispEdges"/><path fill="#F1ECF5" d="M278.9,-106.9L298.5,-17.1L349.5,-49.9Z" shape-rendering="crispEdges"/><path fill="#F0EBF4" d="M349.5,-49.9L298.5,-17.1L353.5,38.2Z" shape-rendering="crispEdges"/><path fill="#7D8CA6" d="M229.6,1048.9L305.1,1113.4L272.1,1012Z" shape-rendering="crispEdges"/><path fill="#175F8A" d="M1947.4,657.2L1839.2,730.6L1930.4,755.6Z" shape-rendering="crispEdges"/><path fill="#467195" d="M1912.2,560.2L1931.5,500.6L1862,474.7Z" shape-rendering="crispEdges"/><path fill="#034F7B" d="M1790.3,1001.7L1839.2,947.9L1804.4,930.6Z" shape-rendering="crispEdges"/><path fill="#034A73" d="M1832.7,1029.9L1839.2,947.9L1790.3,1001.7Z" shape-rendering="crispEdges"/><path fill="#D4D8EA" d="M82.8,334L113.5,406.1L152.2,369.8Z" shape-rendering="crispEdges"/><path fill="#7588A7" d="M1880.6,181.7L1810.6,271.4L1833.1,280.7Z" shape-rendering="crispEdges"/><path fill="#607B9B" d="M1923.9,346.3L1845.5,337.8L1913,429.2Z" shape-rendering="crispEdges"/><path fill="#5F7998" d="M1983.5,337.7L1923.9,346.3L1913,429.2Z" shape-rendering="crispEdges"/><path fill="#E9E5F1" d="M206.6,150.8L162.2,175.2L220.5,205.8Z" shape-rendering="crispEdges"/><path fill="#D2D8EA" d="M82.8,334L82.9,419.9L113.5,406.1Z" shape-rendering="crispEdges"/><path fill="#EDE8F3" d="M112.1,131.3L162.2,175.2L206.6,150.8Z" shape-rendering="crispEdges"/><path fill="#F0EBF4" d="M196.6,57L206.6,150.8L268.7,35.6Z" shape-rendering="crispEdges"/><path fill="#7586A3" d="M1930,220.3L1880.6,181.7L1833.1,280.7Z" shape-rendering="crispEdges"/><path fill="#0F5B8A" d="M1930.4,755.6L1839.2,730.6L1877.9,802.3Z" shape-rendering="crispEdges"/><path fill="#677D9A" d="M1983.5,337.7L1932.5,279.3L1923.9,346.3Z" shape-rendering="crispEdges"/><path fill="#0A5684" d="M1950.3,794.3L1930.4,755.6L1877.9,802.3Z" shape-rendering="crispEdges"/><path fill="#035281" d="M1950.3,794.3L1877.9,802.3L1929.9,880.2Z" shape-rendering="crispEdges"/><path fill="#8394B1" d="M214.1,960.8L229.6,1048.9L272.1,1012Z" shape-rendering="crispEdges"/><path fill="#8CA1C3" d="M159.8,937.1L214.1,960.8L186.6,868.4Z" shape-rendering="crispEdges"/><path fill="#8695AF" d="M1882.2,44L1767.6,32.6L1832.9,117Z" shape-rendering="crispEdges"/><path fill="#8C9BB4" d="M1859.3,3L1772.9,-18.6L1767.6,32.6Z" shape-rendering="crispEdges"/><path fill="#8F9FBB" d="M1767.6,32.6L1772.9,-18.6L1701.1,-2.3Z" shape-rendering="crispEdges"/><path fill="#A0BEDB" d="M74.7,678.9L188.7,704.6L132.9,636.1Z" shape-rendering="crispEdges"/><path fill="#96AFD4" d="M147.1,754.6L112.2,795.3L185.7,811.8Z" shape-rendering="crispEdges"/><path fill="#90A1BD" d="M1772.9,-18.6L1715.7,-90.5L1701.1,-2.3Z" shape-rendering="crispEdges"/><path fill="#C7D3E7" d="M113.5,406.1L82.9,419.9L108.6,523Z" shape-rendering="crispEdges"/><path fill="#B7CCE3" d="M108.6,523L48.2,549.7L125.4,569.9Z" shape-rendering="crispEdges"/><path fill="#DADBEC" d="M82.8,334L152.2,369.8L151,278.2Z" shape-rendering="crispEdges"/><path fill="#8FA4C6" d="M107.6,905L159.8,937.1L186.6,868.4Z" shape-rendering="crispEdges"/><path fill="#C2D1E6" d="M82.9,419.9L71.7,501.1L108.6,523Z" shape-rendering="crispEdges"/><path fill="#03456C" d="M1777.9,1115.9L1790.3,1001.7L1726.7,1076.2Z" shape-rendering="crispEdges"/><path fill="#035281" d="M1929.9,880.2L1877.9,802.3L1873.9,857.1Z" shape-rendering="crispEdges"/><path fill="#034A74" d="M1568.4,1187.8L1732.6,1167.7L1655.9,1172.8Z" shape-rendering="crispEdges"/><path fill="#03476F" d="M1655.9,1172.8L1732.6,1167.7L1726.7,1076.2Z" shape-rendering="crispEdges"/><path fill="#EEE9F3" d="M423.1,-124.6L333.7,-114.8L349.5,-49.9Z" shape-rendering="crispEdges"/><path fill="#F4EEF6" d="M219.4,-3.4L196.6,57L268.7,35.6Z" shape-rendering="crispEdges"/><path fill="#03446B" d="M1732.6,1167.7L1777.9,1115.9L1726.7,1076.2Z" shape-rendering="crispEdges"/><path fill="#5A7797" d="M1983.5,337.7L1913,429.2L2016.3,438.9Z" shape-rendering="crispEdges"/><path fill="#687E9D" d="M1923.9,346.3L1932.5,279.3L1845.5,337.8Z" shape-rendering="crispEdges"/><path fill="#B0C8E1" d="M48.2,549.7L132.9,636.1L125.4,569.9Z" shape-rendering="crispEdges"/><path fill="#F4EEF6" d="M219.4,-3.4L268.7,35.6L298.5,-17.1Z" shape-rendering="crispEdges"/><path fill="#E0DFEE" d="M40.1,279.2L82.8,334L151,278.2Z" shape-rendering="crispEdges"/><path fill="#E7E3F0" d="M75.3,223.9L151,278.2L162.2,175.2Z" shape-rendering="crispEdges"/><path fill="#BBCFE5" d="M1.3,551.8L48.2,549.7L-7.5,525.4Z" shape-rendering="crispEdges"/><path fill="#9DB8D8" d="M74.7,678.9L83.2,755L147.1,754.6Z" shape-rendering="crispEdges"/><path fill="#92A8CD" d="M112.2,795.3L107.6,905L186.6,868.4Z" shape-rendering="crispEdges"/><path fill="#7E8CA4" d="M147.6,1096.2L220,1082.3L229.6,1048.9Z" shape-rendering="crispEdges"/><path fill="#7C8AA2" d="M229.6,1048.9L220,1082.3L305.1,1113.4Z" shape-rendering="crispEdges"/><path fill="#7987A0" d="M305.1,1113.4L278.1,1196.3L339,1123.7Z" shape-rendering="crispEdges"/><path fill="#899BB9" d="M115.2,1032.7L214.1,960.8L159.8,937.1Z" shape-rendering="crispEdges"/><path fill="#185E88" d="M1930.4,755.6L1983.7,714L1947.4,657.2Z" shape-rendering="crispEdges"/><path fill="#034F7C" d="M1929.9,880.2L1873.9,857.1L1839.2,947.9Z" shape-rendering="crispEdges"/><path fill="#8290A8" d="M1931.2,104.1L1882.2,44L1832.9,117Z" shape-rendering="crispEdges"/><path fill="#71839F" d="M1932.5,279.3L1930,220.3L1833.1,280.7Z" shape-rendering="crispEdges"/><path fill="#F5EFF6" d="M220.6,-92.4L219.4,-3.4L298.5,-17.1Z" shape-rendering="crispEdges"/><path fill="#F1EBF4" d="M196.6,57L144.4,71.1L206.6,150.8Z" shape-rendering="crispEdges"/><path fill="#BCCEE4" d="M71.7,501.1L48.2,549.7L108.6,523Z" shape-rendering="crispEdges"/><path fill="#9BB3D6" d="M-5.6,779.6L65.1,810.4L83.2,755Z" shape-rendering="crispEdges"/><path fill="#BDCFE5" d="M48.2,549.7L71.7,501.1L-7.5,525.4Z" shape-rendering="crispEdges"/><path fill="#034D78" d="M1982.7,855.5L1929.9,880.2L1962.5,943.4Z" shape-rendering="crispEdges"/><path fill="#034B76" d="M1962.5,943.4L1929.9,880.2L1839.2,947.9Z" shape-rendering="crispEdges"/><path fill="#0D5785" d="M1992.4,804.9L1983.7,714L1950.3,794.3Z" shape-rendering="crispEdges"/><path fill="#105986" d="M1950.3,794.3L1983.7,714L1930.4,755.6Z" shape-rendering="crispEdges"/><path fill="#32698E" d="M1947.4,657.2L1998.4,578.1L1912.2,560.2Z" shape-rendering="crispEdges"/><path fill="#70819D" d="M1932.5,279.3L2009.6,275.5L1930,220.3Z" shape-rendering="crispEdges"/><path fill="#99B1D5" d="M65.1,810.4L112.2,795.3L83.2,755Z" shape-rendering="crispEdges"/><path fill="#94AACE" d="M56.7,849.4L107.6,905L112.2,795.3Z" shape-rendering="crispEdges"/><path fill="#29668C" d="M2003.6,664.2L1998.4,578.1L1947.4,657.2Z" shape-rendering="crispEdges"/><path fill="#F1EBF4" d="M333.7,-114.8L278.9,-106.9L349.5,-49.9Z" shape-rendering="crispEdges"/><path fill="#507495" d="M2016.3,438.9L1913,429.2L1931.5,500.6Z" shape-rendering="crispEdges"/><path fill="#7C8AA2" d="M224.5,1205.4L278.1,1196.3L220,1082.3Z" shape-rendering="crispEdges"/><path fill="#7B89A1" d="M220,1082.3L278.1,1196.3L305.1,1113.4Z" shape-rendering="crispEdges"/><path fill="#74849F" d="M363.3,1155.7L278.1,1196.3L499.1,1187.5Z" shape-rendering="crispEdges"/><path fill="#70819D" d="M499.1,1187.5L224.5,1205.4L639.8,1191.8Z" shape-rendering="crispEdges"/><path fill="#647C9A" d="M639.8,1191.8L224.5,1205.4L937.6,1191Z" shape-rendering="crispEdges"/><path fill="#457093" d="M937.6,1191L224.5,1205.4L1568.4,1187.8Z" shape-rendering="crispEdges"/><path fill="#A0BCDA" d="M-5.3,705.8L83.2,755L74.7,678.9Z" shape-rendering="crispEdges"/><path fill="#155C87" d="M1992.4,804.9L2003.6,664.2L1983.7,714Z" shape-rendering="crispEdges"/><path fill="#1C628A" d="M1983.7,714L2003.6,664.2L1947.4,657.2Z" shape-rendering="crispEdges"/><path fill="#F8F1F8" d="M116.2,-49.9L144.4,71.1L219.4,-3.4Z" shape-rendering="crispEdges"/><path fill="#F5EEF6" d="M219.4,-3.4L144.4,71.1L196.6,57Z" shape-rendering="crispEdges"/><path fill="#F1EBF4" d="M144.4,71.1L112.1,131.3L206.6,150.8Z" shape-rendering="crispEdges"/><path fill="#D1D9EA" d="M-16.4,378L-20.5,436.5L82.9,419.9Z" shape-rendering="crispEdges"/><path fill="#EDE8F2" d="M112.1,131.3L75.3,223.9L162.2,175.2Z" shape-rendering="crispEdges"/><path fill="#7B89A1" d="M1931.2,104.1L1880.6,181.7L1991.5,155.6Z" shape-rendering="crispEdges"/><path fill="#7E8DA6" d="M1931.2,104.1L1832.9,117L1880.6,181.7Z" shape-rendering="crispEdges"/><path fill="#8E9EB9" d="M1772.9,-18.6L1805.8,-75.1L1715.7,-90.5Z" shape-rendering="crispEdges"/><path fill="#023F63" d="M1777.9,1115.9L1834.5,1117.5L1832.7,1029.9Z" shape-rendering="crispEdges"/><path fill="#024064" d="M1807.9,1158.3L1834.5,1117.5L1777.9,1115.9Z" shape-rendering="crispEdges"/><path fill="#8897AF" d="M1882.2,44L1859.3,3L1767.6,32.6Z" shape-rendering="crispEdges"/><path fill="#034268" d="M1732.6,1167.7L1807.9,1158.3L1777.9,1115.9Z" shape-rendering="crispEdges"/><path fill="#8B9AB3" d="M1859.3,3L1805.8,-75.1L1772.9,-18.6Z" shape-rendering="crispEdges"/><path fill="#8FA0BC" d="M1715.7,-90.5L1871.4,-96.4L1621,-110.9Z" shape-rendering="crispEdges"/><path fill="#497193" d="M2037.9,528.3L2016.3,438.9L1931.5,500.6Z" shape-rendering="crispEdges"/><path fill="#406E92" d="M2037.9,528.3L1931.5,500.6L1998.4,578.1Z" shape-rendering="crispEdges"/><path fill="#035382" d="M1982.7,855.5L1992.4,804.9L1950.3,794.3Z" shape-rendering="crispEdges"/><path fill="#03517E" d="M1982.7,855.5L1950.3,794.3L1929.9,880.2Z" shape-rendering="crispEdges"/><path fill="#99AFD4" d="M-5.6,779.6L56.7,849.4L65.1,810.4Z" shape-rendering="crispEdges"/><path fill="#97AED3" d="M65.1,810.4L56.7,849.4L112.2,795.3Z" shape-rendering="crispEdges"/><path fill="#8B9DBB" d="M57.6,954L115.2,1032.7L159.8,937.1Z" shape-rendering="crispEdges"/><path fill="#8693AA" d="M1882.2,44L1912.3,27.8L1859.3,3Z" shape-rendering="crispEdges"/><path fill="#8997AF" d="M1859.3,3L1871.4,-96.4L1805.8,-75.1Z" shape-rendering="crispEdges"/><path fill="#7786A0" d="M1991.5,155.6L1880.6,181.7L1930,220.3Z" shape-rendering="crispEdges"/><path fill="#6B7E9B" d="M2009.6,275.5L1932.5,279.3L1983.5,337.7Z" shape-rendering="crispEdges"/><path fill="#03466E" d="M1962.5,943.4L1839.2,947.9L1951.4,1006.1Z" shape-rendering="crispEdges"/><path fill="#EAE5F1" d="M1.3,199.5L40.1,279.2L75.3,223.9Z" shape-rendering="crispEdges"/><path fill="#E5E2EF" d="M75.3,223.9L40.1,279.2L151,278.2Z" shape-rendering="crispEdges"/><path fill="#B1C9E1" d="M48.2,549.7L1.3,551.8L74.7,678.9Z" shape-rendering="crispEdges"/><path fill="#C4D3E7" d="M-7.5,525.4L71.7,501.1L-20.5,436.5Z" shape-rendering="crispEdges"/><path fill="#125B86" d="M2031,1039.1L2037.9,528.3L2003.6,664.2Z" shape-rendering="crispEdges"/><path fill="#34698F" d="M2003.6,664.2L2037.9,528.3L1998.4,578.1Z" shape-rendering="crispEdges"/><path fill="#F4EEF6" d="M278.9,-106.9L220.6,-92.4L298.5,-17.1Z" shape-rendering="crispEdges"/><path fill="#F4EEF6" d="M144.4,71.1L43.3,101.2L112.1,131.3Z" shape-rendering="crispEdges"/><path fill="#E0E0EF" d="M-35.8,291.4L-16.4,378L40.1,279.2Z" shape-rendering="crispEdges"/><path fill="#023D60" d="M1951.4,1006.1L1832.7,1029.9L1936.8,1099.4Z" shape-rendering="crispEdges"/><path fill="#03466D" d="M1951.4,1006.1L1839.2,947.9L1832.7,1029.9Z" shape-rendering="crispEdges"/><path fill="#C9D5E8" d="M-20.5,436.5L71.7,501.1L82.9,419.9Z" shape-rendering="crispEdges"/><path fill="#A4C0DD" d="M-30.4,676.4L-5.3,705.8L74.7,678.9Z" shape-rendering="crispEdges"/><path fill="#697E9B" d="M2025.4,209.9L2009.6,275.5L2016.3,438.9Z" shape-rendering="crispEdges"/><path fill="#627B99" d="M2016.3,438.9L2009.6,275.5L1983.5,337.7Z" shape-rendering="crispEdges"/><path fill="#8FA3C3" d="M57.6,954L159.8,937.1L107.6,905Z" shape-rendering="crispEdges"/><path fill="#818FA8" d="M115.2,1032.7L147.6,1096.2L229.6,1048.9Z" shape-rendering="crispEdges"/><path fill="#818EA4" d="M1985.1,70.1L1912.3,27.8L1931.2,104.1Z" shape-rendering="crispEdges"/><path fill="#828FA6" d="M1931.2,104.1L1912.3,27.8L1882.2,44Z" shape-rendering="crispEdges"/><path fill="#7E8BA3" d="M155.5,1183.3L224.5,1205.4L220,1082.3Z" shape-rendering="crispEdges"/><path fill="#7786A0" d="M278.1,1196.3L224.5,1205.4L499.1,1187.5Z" shape-rendering="crispEdges"/><path fill="#ABC6DF" d="M-30.4,676.4L74.7,678.9L1.3,551.8Z" shape-rendering="crispEdges"/><path fill="#92A6C8" d="M56.7,849.4L57.6,954L107.6,905Z" shape-rendering="crispEdges"/><path fill="#023C5E" d="M1936.8,1099.4L1832.7,1029.9L1834.5,1117.5Z" shape-rendering="crispEdges"/><path fill="#034B75" d="M1962.5,943.4L1998,956.1L1982.7,855.5Z" shape-rendering="crispEdges"/><path fill="#D5DAEB" d="M-16.4,378L82.9,419.9L82.8,334Z" shape-rendering="crispEdges"/><path fill="#AEC7E0" d="M-93,644.3L-30.4,676.4L1.3,551.8Z" shape-rendering="crispEdges"/><path fill="#94A8C9" d="M-8.5,894L57.6,954L56.7,849.4Z" shape-rendering="crispEdges"/><path fill="#818EA4" d="M79.9,1157.9L155.5,1183.3L147.6,1096.2Z" shape-rendering="crispEdges"/><path fill="#76869F" d="M2025.4,209.9L1991.5,155.6L1930,220.3Z" shape-rendering="crispEdges"/><path fill="#DDDEED" d="M40.1,279.2L-16.4,378L82.8,334Z" shape-rendering="crispEdges"/><path fill="#F1EBF4" d="M43.3,101.2L75.3,223.9L112.1,131.3Z" shape-rendering="crispEdges"/><path fill="#023E61" d="M1807.9,1158.3L1865.6,1161L1834.5,1117.5Z" shape-rendering="crispEdges"/><path fill="#024065" d="M1732.6,1167.7L1865.6,1161L1807.9,1158.3Z" shape-rendering="crispEdges"/><path fill="#03466D" d="M1568.4,1187.8L1865.6,1161L1732.6,1167.7Z" shape-rendering="crispEdges"/><path fill="#9FB8D9" d="M-5.3,705.8L-5.6,779.6L83.2,755Z" shape-rendering="crispEdges"/><path fill="#A0B9D9" d="M-90.5,745.9L-5.6,779.6L-5.3,705.8Z" shape-rendering="crispEdges"/><path fill="#BDD0E5" d="M-94.3,530.5L1.3,551.8L-7.5,525.4Z" shape-rendering="crispEdges"/><path fill="#5B7897" d="M2037.9,528.3L2025.4,209.9L2016.3,438.9Z" shape-rendering="crispEdges"/><path fill="#72839E" d="M2009.6,275.5L2025.4,209.9L1930,220.3Z" shape-rendering="crispEdges"/><path fill="#8692A7" d="M1962.3,-18.9L1859.3,3L1912.3,27.8Z" shape-rendering="crispEdges"/><path fill="#034267" d="M2031,1039.1L1998,956.1L1951.4,1006.1Z" shape-rendering="crispEdges"/><path fill="#03466D" d="M1951.4,1006.1L1998,956.1L1962.5,943.4Z" shape-rendering="crispEdges"/><path fill="#034E7B" d="M1982.7,855.5L1998,956.1L1992.4,804.9Z" shape-rendering="crispEdges"/><path fill="#03517F" d="M1992.4,804.9L2031,1039.1L2003.6,664.2Z" shape-rendering="crispEdges"/><path fill="#7E8BA3" d="M1985.1,70.1L1931.2,104.1L1991.5,155.6Z" shape-rendering="crispEdges"/><path fill="#8793A9" d="M1962.3,-18.9L1871.4,-96.4L1859.3,3Z" shape-rendering="crispEdges"/><path fill="#8C9BB5" d="M1805.8,-75.1L1871.4,-96.4L1715.7,-90.5Z" shape-rendering="crispEdges"/><path fill="#F7F0F7" d="M59.8,29.6L43.3,101.2L144.4,71.1Z" shape-rendering="crispEdges"/><path fill="#023B5C" d="M1865.6,1161L1936.8,1099.4L1834.5,1117.5Z" shape-rendering="crispEdges"/><path fill="#F0EAF4" d="M43.3,101.2L1.3,199.5L75.3,223.9Z" shape-rendering="crispEdges"/><path fill="#818EA4" d="M61.6,1126.8L147.6,1096.2L115.2,1032.7Z" shape-rendering="crispEdges"/><path fill="#7F8CA3" d="M147.6,1096.2L155.5,1183.3L220,1082.3Z" shape-rendering="crispEdges"/><path fill="#808DA4" d="M2036,2.9L1985.1,70.1L1991.5,155.6Z" shape-rendering="crispEdges"/><path fill="#F8F1F8" d="M220.6,-92.4L116.2,-49.9L219.4,-3.4Z" shape-rendering="crispEdges"/><path fill="#E9E5F1" d="M1.3,199.5L-35.8,291.4L40.1,279.2Z" shape-rendering="crispEdges"/><path fill="#D2D9EB" d="M-16.4,378L-102.9,413.4L-20.5,436.5Z" shape-rendering="crispEdges"/><path fill="#C3D3E7" d="M-20.5,436.5L-94.3,530.5L-7.5,525.4Z" shape-rendering="crispEdges"/><path fill="#98AED1" d="M-5.6,779.6L-8.5,894L56.7,849.4Z" shape-rendering="crispEdges"/><path fill="#8A9BB6" d="M57.6,954L32.3,1014.2L115.2,1032.7Z" shape-rendering="crispEdges"/><path fill="#9AAFD4" d="M-89,801.6L-8.5,894L-5.6,779.6Z" shape-rendering="crispEdges"/><path fill="#FAF2F8" d="M116.2,-49.9L59.8,29.6L144.4,71.1Z" shape-rendering="crispEdges"/><path fill="#F5EEF6" d="M43.3,101.2L-17.8,122.6L1.3,199.5Z" shape-rendering="crispEdges"/><path fill="#E8E5F1" d="M-115.2,193.2L-63.6,295.4L-35.8,291.4Z" shape-rendering="crispEdges"/><path fill="#8D9DB9" d="M5.8,1000.2L32.3,1014.2L57.6,954Z" shape-rendering="crispEdges"/><path fill="#F9F2F8" d="M220.6,-92.4L122.7,-87.1L116.2,-49.9Z" shape-rendering="crispEdges"/><path fill="#FCF4FA" d="M116.2,-49.9L56.7,3.9L59.8,29.6Z" shape-rendering="crispEdges"/><path fill="#F7F0F7" d="M278.9,-106.9L122.7,-87.1L220.6,-92.4Z" shape-rendering="crispEdges"/><path fill="#F9F2F8" d="M87.5,-86L122.7,-87.1L278.9,-106.9Z" shape-rendering="crispEdges"/><path fill="#93A5C5" d="M-8.5,894L-2.1,949L57.6,954Z" shape-rendering="crispEdges"/><path fill="#8591A6" d="M1963.1,-82.2L1962.3,-18.9L2002.1,-84.4Z" shape-rendering="crispEdges"/><path fill="#8490A5" d="M1985.1,70.1L1962.3,-18.9L1912.3,27.8Z" shape-rendering="crispEdges"/><path fill="#FCF4F9" d="M87.5,-86L56.7,3.9L116.2,-49.9Z" shape-rendering="crispEdges"/><path fill="#F8F1F8" d="M-25.7,68.9L-17.8,122.6L43.3,101.2Z" shape-rendering="crispEdges"/><path fill="#ECE7F2" d="M-115.2,193.2L-35.8,291.4L1.3,199.5Z" shape-rendering="crispEdges"/><path fill="#E0E0EE" d="M-35.8,291.4L-63.6,295.4L-16.4,378Z" shape-rendering="crispEdges"/><path fill="#8FA1BE" d="M-2.1,949L5.8,1000.2L57.6,954Z" shape-rendering="crispEdges"/><path fill="#8592AA" d="M32.3,1014.2L61.6,1126.8L115.2,1032.7Z" shape-rendering="crispEdges"/><path fill="#023858" d="M2004,1162.3L1944.6,1158.5L1865.6,1161Z" shape-rendering="crispEdges"/><path fill="#023858" d="M1865.6,1161L1944.6,1158.5L1936.8,1099.4Z" shape-rendering="crispEdges"/><path fill="#023C5D" d="M2000.9,1108.1L2031,1039.1L1951.4,1006.1Z" shape-rendering="crispEdges"/><path fill="#CAD5E9" d="M-102.9,413.4L-94.3,530.5L-20.5,436.5Z" shape-rendering="crispEdges"/><path fill="#A3BEDB" d="M-30.4,676.4L-90.5,745.9L-5.3,705.8Z" shape-rendering="crispEdges"/><path fill="#94A6C6" d="M-8.5,894L-72.1,936.7L-2.1,949Z" shape-rendering="crispEdges"/><path fill="#8A99B1" d="M-106,1011L-8.3,1075.7L5.8,1000.2Z" shape-rendering="crispEdges"/><path fill="#B2CAE2" d="M-104.1,602L-93,644.3L1.3,551.8Z" shape-rendering="crispEdges"/><path fill="#F9F2F8" d="M-25.7,68.9L43.3,101.2L59.8,29.6Z" shape-rendering="crispEdges"/><path fill="#8592A7" d="M-8.3,1075.7L61.6,1126.8L32.3,1014.2Z" shape-rendering="crispEdges"/><path fill="#828EA4" d="M61.6,1126.8L79.9,1157.9L147.6,1096.2Z" shape-rendering="crispEdges"/><path fill="#FBF3F9" d="M122.7,-87.1L87.5,-86L116.2,-49.9Z" shape-rendering="crispEdges"/><path fill="#FCF5FA" d="M-6.5,-4.7L-25.7,68.9L59.8,29.6Z" shape-rendering="crispEdges"/><path fill="#F6EFF7" d="M333.7,-114.8L87.5,-86L278.9,-106.9Z" shape-rendering="crispEdges"/><path fill="#B8CDE4" d="M-94.3,530.5L-104.1,602L1.3,551.8Z" shape-rendering="crispEdges"/><path fill="#C0D1E6" d="M-102.9,413.4L-104.1,602L-94.3,530.5Z" shape-rendering="crispEdges"/><path fill="#02395A" d="M2000.9,1108.1L1951.4,1006.1L1936.8,1099.4Z" shape-rendering="crispEdges"/><path fill="#034A73" d="M1998,956.1L2031,1039.1L1992.4,804.9Z" shape-rendering="crispEdges"/><path fill="#A7C3DE" d="M-104.1,602L-90.5,745.9L-93,644.3Z" shape-rendering="crispEdges"/><path fill="#A4C0DD" d="M-93,644.3L-90.5,745.9L-30.4,676.4Z" shape-rendering="crispEdges"/><path fill="#DDDFEE" d="M-108.7,337.4L-16.4,378L-63.6,295.4Z" shape-rendering="crispEdges"/><path fill="#D7DCEC" d="M-108.7,337.4L-102.9,413.4L-16.4,378Z" shape-rendering="crispEdges"/><path fill="#8490A6" d="M2036,2.9L1962.3,-18.9L1985.1,70.1Z" shape-rendering="crispEdges"/><path fill="#8591A6" d="M1962.3,-18.9L1963.1,-82.2L1871.4,-96.4Z" shape-rendering="crispEdges"/><path fill="#023858" d="M1944.6,1158.5L2000.9,1108.1L1936.8,1099.4Z" shape-rendering="crispEdges"/><path fill="#9DB5D8" d="M-90.5,745.9L-89,801.6L-5.6,779.6Z" shape-rendering="crispEdges"/><path fill="#8A98B1" d="M5.8,1000.2L-8.3,1075.7L32.3,1014.2Z" shape-rendering="crispEdges"/><path fill="#9AB0D5" d="M-108.8,893.2L-89,801.6L-90.5,745.9Z" shape-rendering="crispEdges"/><path fill="#E7E3F0" d="M-115.2,193.2L-108.7,337.4L-63.6,295.4Z" shape-rendering="crispEdges"/><path fill="#CBD6E9" d="M-102.9,413.4L-108.7,337.4L-104.1,602Z" shape-rendering="crispEdges"/><path fill="#FDF5FA" d="M-6.5,-4.7L59.8,29.6L56.7,3.9Z" shape-rendering="crispEdges"/><path fill="#F4EEF6" d="M-17.8,122.6L-74.1,127.2L1.3,199.5Z" shape-rendering="crispEdges"/><path fill="#7D8BA2" d="M2025.4,209.9L2036,2.9L1991.5,155.6Z" shape-rendering="crispEdges"/><path fill="#71829D" d="M2037.9,528.3L2036,2.9L2025.4,209.9Z" shape-rendering="crispEdges"/><path fill="#91A2BF" d="M-72.1,936.7L5.8,1000.2L-2.1,949Z" shape-rendering="crispEdges"/><path fill="#8490A5" d="M61.6,1126.8L-1.8,1186.7L79.9,1157.9Z" shape-rendering="crispEdges"/><path fill="#95A8C8" d="M-108.8,893.2L-72.1,936.7L-8.5,894Z" shape-rendering="crispEdges"/><path fill="#FFF7FB" d="M-16,-74.5L-6.5,-4.7L56.7,3.9Z" shape-rendering="crispEdges"/><path fill="#F8F1F7" d="M-25.7,68.9L-74.1,127.2L-17.8,122.6Z" shape-rendering="crispEdges"/><path fill="#023F63" d="M1568.4,1187.8L2004,1162.3L1865.6,1161Z" shape-rendering="crispEdges"/><path fill="#023858" d="M1944.6,1158.5L2004,1162.3L2000.9,1108.1Z" shape-rendering="crispEdges"/><path fill="#023858" d="M2000.9,1108.1L2004,1162.3L2031,1039.1Z" shape-rendering="crispEdges"/><path fill="#8591A6" d="M2036,2.9L2002.1,-84.4L1962.3,-18.9Z" shape-rendering="crispEdges"/><path fill="#8591A6" d="M1963.1,-82.2L2002.1,-84.4L1871.4,-96.4Z" shape-rendering="crispEdges"/><path fill="#F9F2F8" d="M-103.9,50.8L-74.1,127.2L-25.7,68.9Z" shape-rendering="crispEdges"/><path fill="#A0B9D9" d="M-104.1,602L-108.8,893.2L-90.5,745.9Z" shape-rendering="crispEdges"/><path fill="#97ACCE" d="M-89,801.6L-108.8,893.2L-8.5,894Z" shape-rendering="crispEdges"/><path fill="#8591A6" d="M-75.7,1128.7L-1.8,1186.7L-8.3,1075.7Z" shape-rendering="crispEdges"/><path fill="#B8CDE4" d="M-115.2,193.2L-108.8,893.2L-104.1,602Z" shape-rendering="crispEdges"/><path fill="#F6F0F7" d="M-103.9,50.8L-115.2,193.2L-74.1,127.2Z" shape-rendering="crispEdges"/><path fill="#F2ECF5" d="M-74.1,127.2L-115.2,193.2L1.3,199.5Z" shape-rendering="crispEdges"/><path fill="#D7DCEC" d="M-108.7,337.4L-115.2,193.2L-104.1,602Z" shape-rendering="crispEdges"/><path fill="#FDF6FA" d="M87.5,-86L-16,-74.5L56.7,3.9Z" shape-rendering="crispEdges"/><path fill="#FCF5FA" d="M-6.5,-4.7L-103.9,50.8L-25.7,68.9Z" shape-rendering="crispEdges"/><path fill="#FFF7FB" d="M-78.1,-73.2L-16,-74.5L87.5,-86Z" shape-rendering="crispEdges"/><path fill="#8F9FBB" d="M-106,1011L5.8,1000.2L-72.1,936.7Z" shape-rendering="crispEdges"/><path fill="#8591A6" d="M-8.3,1075.7L-1.8,1186.7L61.6,1126.8Z" shape-rendering="crispEdges"/><path fill="#828FA5" d="M79.9,1157.9L-1.8,1186.7L155.5,1183.3Z" shape-rendering="crispEdges"/><path fill="#818EA4" d="M155.5,1183.3L-1.8,1186.7L224.5,1205.4Z" shape-rendering="crispEdges"/><path fill="#92A4C3" d="M-108.8,893.2L-106,1011L-72.1,936.7Z" shape-rendering="crispEdges"/><path fill="#FFF7FB" d="M-84.9,-41.8L-103.9,50.8L-6.5,-4.7Z" shape-rendering="crispEdges"/><path fill="#8693A8" d="M-106,1011L-75.7,1128.7L-8.3,1075.7Z" shape-rendering="crispEdges"/><path fill="#FFF7FB" d="M-16,-74.5L-84.9,-41.8L-6.5,-4.7Z" shape-rendering="crispEdges"/><path fill="#8591A6" d="M-106,1011L-64.8,1172.4L-75.7,1128.7Z" shape-rendering="crispEdges"/><path fill="#8591A6" d="M-75.7,1128.7L-64.8,1172.4L-1.8,1186.7Z" shape-rendering="crispEdges"/><path fill="#FAF3F9" d="M333.7,-114.8L-78.1,-73.2L87.5,-86Z" shape-rendering="crispEdges"/><path fill="#FFF7FB" d="M-16,-74.5L-78.1,-73.2L-84.9,-41.8Z" shape-rendering="crispEdges"/><path fill="#F6EFF7" d="M423.1,-124.6L-78.1,-73.2L333.7,-114.8Z" shape-rendering="crispEdges"/></svg>