<svg xmlns="http://www.w3.org/2000/svg" width="1920" height="1080"><path fill="#F76FA3" d="M933.4,528.4L893.2,522.5L891.9,573.7Z" shape-rendering="crispEdges"/><path fill="#F567A1" d="M891.9,573.7L965.9,598.4L933.4,528.4Z" shape-rendering="crispEdges"/><path fill="#F06BA3" d="M823.8,647.5L865.1,633.2L788.4,598.1Z" shape-rendering="crispEdges"/><path fill="#F264A1" d="M891.9,573.7L865.1,633.2L965.9,598.4Z" shape-rendering="crispEdges"/><path fill="#F877A6" d="M933.4,528.4L890.1,453.7L893.2,522.5Z" shape-rendering="crispEdges"/><path fill="#F671A4" d="M893.2,522.5L788.4,598.1L891.9,573.7Z" shape-rendering="crispEdges"/><path fill="#F97FA9" d="M890.1,453.7L837.7,475.1L893.2,522.5Z" shape-rendering="crispEdges"/><path fill="#F770A4" d="M1041.2,505L967,453.8L933.4,528.4Z" shape-rendering="crispEdges"/><path fill="#F879A7" d="M933.4,528.4L967,453.8L890.1,453.7Z" shape-rendering="crispEdges"/><path fill="#F26CA3" d="M788.4,598.1L865.1,633.2L891.9,573.7Z" shape-rendering="crispEdges"/><path fill="#ED579D" d="M979.5,666.9L1034.3,598.4L965.9,598.4Z" shape-rendering="crispEdges"/><path fill="#F879A7" d="M837.7,475.1L788.4,598.1L893.2,522.5Z" shape-rendering="crispEdges"/><path fill="#EE5B9F" d="M979.5,666.9L965.9,598.4L865.1,633.2Z" shape-rendering="crispEdges"/><path fill="#F665A0" d="M965.9,598.4L1041.2,505L933.4,528.4Z" shape-rendering="crispEdges"/><path fill="#EB589E" d="M895.4,713.4L979.5,666.9L865.1,633.2Z" shape-rendering="crispEdges"/><path fill="#F25E9F" d="M1034.3,598.4L1041.2,505L965.9,598.4Z" shape-rendering="crispEdges"/><path fill="#FA8FAF" d="M869.3,364L832.6,412.1L890.1,453.7Z" shape-rendering="crispEdges"/><path fill="#F988AC" d="M890.1,453.7L832.6,412.1L837.7,475.1Z" shape-rendering="crispEdges"/><path fill="#F87CA8" d="M837.7,475.1L741.9,562.5L788.4,598.1Z" shape-rendering="crispEdges"/><path fill="#EC60A1" d="M823.8,647.5L895.4,713.4L865.1,633.2Z" shape-rendering="crispEdges"/><path fill="#F986AC" d="M725.4,476.9L741.9,562.5L837.7,475.1Z" shape-rendering="crispEdges"/><path fill="#F06EA5" d="M788.4,598.1L748.6,650.8L823.8,647.5Z" shape-rendering="crispEdges"/><path fill="#E64F9A" d="M895.4,713.4L962.6,716.2L979.5,666.9Z" shape-rendering="crispEdges"/><path fill="#EA509C" d="M979.5,666.9L1039.8,671.4L1034.3,598.4Z" shape-rendering="crispEdges"/><path fill="#E74B9A" d="M962.6,716.2L1039.8,671.4L979.5,666.9Z" shape-rendering="crispEdges"/><path fill="#F169A3" d="M1132.8,482.8L1102.7,450.7L1041.2,505Z" shape-rendering="crispEdges"/><path fill="#F985AB" d="M936.4,353.3L890.1,453.7L967,453.8Z" shape-rendering="crispEdges"/><path fill="#FA8EAE" d="M936.4,353.3L869.3,364L890.1,453.7Z" shape-rendering="crispEdges"/><path fill="#F376A7" d="M741.9,562.5L748.6,650.8L788.4,598.1Z" shape-rendering="crispEdges"/><path fill="#E75D9E" d="M823.8,647.5L805,744.7L895.4,713.4Z" shape-rendering="crispEdges"/><path fill="#F371A5" d="M1102.7,450.7L1047.7,411.8L1041.2,505Z" shape-rendering="crispEdges"/><path fill="#F575A6" d="M1041.2,505L1047.7,411.8L967,453.8Z" shape-rendering="crispEdges"/><path fill="#F987AC" d="M1021.7,345L936.4,353.3L967,453.8Z" shape-rendering="crispEdges"/><path fill="#FA96B1" d="M716.6,405.2L725.4,476.9L832.6,412.1Z" shape-rendering="crispEdges"/><path fill="#F98DAE" d="M832.6,412.1L725.4,476.9L837.7,475.1Z" shape-rendering="crispEdges"/><path fill="#F47CA9" d="M741.9,562.5L682.3,568.7L748.6,650.8Z" shape-rendering="crispEdges"/><path fill="#EF5A9E" d="M1136.1,576.5L1041.2,505L1034.3,598.4Z" shape-rendering="crispEdges"/><path fill="#E865A1" d="M734.5,707.8L805,744.7L823.8,647.5Z" shape-rendering="crispEdges"/><path fill="#DF4C97" d="M895.4,713.4L953.2,792.4L962.6,716.2Z" shape-rendering="crispEdges"/><path fill="#E94F9C" d="M1136,634.1L1136.1,576.5L1034.3,598.4Z" shape-rendering="crispEdges"/><path fill="#F986AB" d="M725.4,476.9L682.3,568.7L741.9,562.5Z" shape-rendering="crispEdges"/><path fill="#ED6BA4" d="M748.6,650.8L734.5,707.8L823.8,647.5Z" shape-rendering="crispEdges"/><path fill="#FB9FB4" d="M809.3,280.8L795.6,349.3L869.3,364Z" shape-rendering="crispEdges"/><path fill="#FA97B2" d="M869.3,364L795.6,349.3L832.6,412.1Z" shape-rendering="crispEdges"/><path fill="#E14698" d="M962.6,716.2L1053.3,730L1039.8,671.4Z" shape-rendering="crispEdges"/><path fill="#E84C9B" d="M1039.8,671.4L1136,634.1L1034.3,598.4Z" shape-rendering="crispEdges"/><path fill="#DA4194" d="M1024.5,801.9L1053.3,730L962.6,716.2Z" shape-rendering="crispEdges"/><path fill="#F581AA" d="M1086.1,371.5L1021.7,345L1047.7,411.8Z" shape-rendering="crispEdges"/><path fill="#F680AA" d="M1047.7,411.8L1021.7,345L967,453.8Z" shape-rendering="crispEdges"/><path fill="#FA96B0" d="M936.4,353.3L896.8,291.2L869.3,364Z" shape-rendering="crispEdges"/><path fill="#F05F9F" d="M1136.1,576.5L1132.8,482.8L1041.2,505Z" shape-rendering="crispEdges"/><path fill="#F379A8" d="M1102.7,450.7L1086.1,371.5L1047.7,411.8Z" shape-rendering="crispEdges"/><path fill="#EB6FA5" d="M662.2,701.4L734.5,707.8L748.6,650.8Z" shape-rendering="crispEdges"/><path fill="#FA9BB3" d="M795.6,349.3L716.6,405.2L832.6,412.1Z" shape-rendering="crispEdges"/><path fill="#FA8DAE" d="M725.4,476.9L654,491.1L682.3,568.7Z" shape-rendering="crispEdges"/><path fill="#E34199" d="M1127.4,706.1L1136,634.1L1039.8,671.4Z" shape-rendering="crispEdges"/><path fill="#D95597" d="M804.9,805L893.3,792.9L805,744.7Z" shape-rendering="crispEdges"/><path fill="#DE5599" d="M805,744.7L893.3,792.9L895.4,713.4Z" shape-rendering="crispEdges"/><path fill="#DB4C95" d="M893.3,792.9L953.2,792.4L895.4,713.4Z" shape-rendering="crispEdges"/><path fill="#F175A7" d="M1156.9,423.2L1086.1,371.5L1102.7,450.7Z" shape-rendering="crispEdges"/><path fill="#F990AE" d="M1025.5,275.7L944.6,299.8L1021.7,345Z" shape-rendering="crispEdges"/><path fill="#FA8FAE" d="M1021.7,345L944.6,299.8L936.4,353.3Z" shape-rendering="crispEdges"/><path fill="#FB96B0" d="M944.6,299.8L896.8,291.2L936.4,353.3Z" shape-rendering="crispEdges"/><path fill="#FAA1B5" d="M795.6,349.3L733.3,357L716.6,405.2Z" shape-rendering="crispEdges"/><path fill="#FBA5B6" d="M752.2,285.3L733.3,357L795.6,349.3Z" shape-rendering="crispEdges"/><path fill="#FA9AB3" d="M638.3,452.3L725.4,476.9L716.6,405.2Z" shape-rendering="crispEdges"/><path fill="#FA96B1" d="M638.3,452.3L654,491.1L725.4,476.9Z" shape-rendering="crispEdges"/><path fill="#DF4097" d="M1053.3,730L1127.4,706.1L1039.8,671.4Z" shape-rendering="crispEdges"/><path fill="#D73893" d="M1124.7,786.6L1127.4,706.1L1053.3,730Z" shape-rendering="crispEdges"/><path fill="#E74A9B" d="M1136,634.1L1177.3,584.8L1136.1,576.5Z" shape-rendering="crispEdges"/><path fill="#ED5B9F" d="M1136.1,576.5L1195.9,484L1132.8,482.8Z" shape-rendering="crispEdges"/><path fill="#EF6CA4" d="M1132.8,482.8L1156.9,423.2L1102.7,450.7Z" shape-rendering="crispEdges"/><path fill="#E34299" d="M1175.9,675.1L1177.3,584.8L1136,634.1Z" shape-rendering="crispEdges"/><path fill="#EE66A3" d="M1195.9,484L1156.9,423.2L1132.8,482.8Z" shape-rendering="crispEdges"/><path fill="#D85B99" d="M723.8,820.7L804.9,805L805,744.7Z" shape-rendering="crispEdges"/><path fill="#CE3E8F" d="M944.2,883.5L1024.5,801.9L953.2,792.4Z" shape-rendering="crispEdges"/><path fill="#D04490" d="M944.2,883.5L953.2,792.4L893.3,792.9Z" shape-rendering="crispEdges"/><path fill="#D84393" d="M953.2,792.4L1024.5,801.9L962.6,716.2Z" shape-rendering="crispEdges"/><path fill="#F27FAA" d="M587.8,648.7L650.3,656L682.3,568.7Z" shape-rendering="crispEdges"/><path fill="#F17AA9" d="M682.3,568.7L650.3,656L748.6,650.8Z" shape-rendering="crispEdges"/><path fill="#DE629D" d="M734.5,707.8L723.8,820.7L805,744.7Z" shape-rendering="crispEdges"/><path fill="#FB9EB3" d="M896.8,291.2L809.3,280.8L869.3,364Z" shape-rendering="crispEdges"/><path fill="#FAA3B6" d="M670.6,343L638.3,452.3L716.6,405.2Z" shape-rendering="crispEdges"/><path fill="#F484AB" d="M558.7,603.9L587.8,648.7L682.3,568.7Z" shape-rendering="crispEdges"/><path fill="#FAA5B7" d="M670.6,343L716.6,405.2L733.3,357Z" shape-rendering="crispEdges"/><path fill="#ED74A7" d="M650.3,656L662.2,701.4L748.6,650.8Z" shape-rendering="crispEdges"/><path fill="#EB529C" d="M1177.3,584.8L1195.9,484L1136.1,576.5Z" shape-rendering="crispEdges"/><path fill="#DC3796" d="M1172.7,701.2L1175.9,675.1L1127.4,706.1Z" shape-rendering="crispEdges"/><path fill="#E03C98" d="M1127.4,706.1L1175.9,675.1L1136,634.1Z" shape-rendering="crispEdges"/><path fill="#E9539C" d="M1177.3,584.8L1284.4,506.1L1195.9,484Z" shape-rendering="crispEdges"/><path fill="#F484AB" d="M1128.6,304.1L1021.7,345L1086.1,371.5Z" shape-rendering="crispEdges"/><path fill="#F68BAD" d="M1128.6,304.1L1025.5,275.7L1021.7,345Z" shape-rendering="crispEdges"/><path fill="#FB9EB3" d="M944.6,299.8L908.7,212.4L896.8,291.2Z" shape-rendering="crispEdges"/><path fill="#FBA3B5" d="M896.8,291.2L908.7,212.4L809.3,280.8Z" shape-rendering="crispEdges"/><path fill="#D63293" d="M1186.6,777L1172.7,701.2L1127.4,706.1Z" shape-rendering="crispEdges"/><path fill="#FBA6B6" d="M809.3,280.8L752.2,285.3L795.6,349.3Z" shape-rendering="crispEdges"/><path fill="#FBAAB8" d="M752.2,285.3L670.6,343L733.3,357Z" shape-rendering="crispEdges"/><path fill="#D33891" d="M1024.5,801.9L1124.7,786.6L1053.3,730Z" shape-rendering="crispEdges"/><path fill="#E370A2" d="M566.7,728.1L680.3,776.3L662.2,701.4Z" shape-rendering="crispEdges"/><path fill="#E36CA2" d="M662.2,701.4L680.3,776.3L734.5,707.8Z" shape-rendering="crispEdges"/><path fill="#F079A8" d="M1177.4,340.2L1086.1,371.5L1156.9,423.2Z" shape-rendering="crispEdges"/><path fill="#F180AA" d="M1177.4,340.2L1128.6,304.1L1086.1,371.5Z" shape-rendering="crispEdges"/><path fill="#DC669D" d="M680.3,776.3L723.8,820.7L734.5,707.8Z" shape-rendering="crispEdges"/><path fill="#CA4691" d="M884.2,885.4L944.2,883.5L893.3,792.9Z" shape-rendering="crispEdges"/><path fill="#FA97B0" d="M986.8,220.4L944.6,299.8L1025.5,275.7Z" shape-rendering="crispEdges"/><path fill="#FC9DB4" d="M986.8,220.4L908.7,212.4L944.6,299.8Z" shape-rendering="crispEdges"/><path fill="#FCADB9" d="M809.3,280.8L782.3,207.6L752.2,285.3Z" shape-rendering="crispEdges"/><path fill="#D04E93" d="M884.2,885.4L893.3,792.9L804.9,805Z" shape-rendering="crispEdges"/><path fill="#CB338D" d="M1024.5,801.9L1042.6,872.7L1124.7,786.6Z" shape-rendering="crispEdges"/><path fill="#F998B3" d="M1040.4,220.6L986.8,220.4L1025.5,275.7Z" shape-rendering="crispEdges"/><path fill="#FA90AE" d="M560.3,508.6L682.3,568.7L654,491.1Z" shape-rendering="crispEdges"/><path fill="#EE78A8" d="M650.3,656L587.8,648.7L662.2,701.4Z" shape-rendering="crispEdges"/><path fill="#CB5194" d="M782.8,880.1L884.2,885.4L804.9,805Z" shape-rendering="crispEdges"/><path fill="#ED72A7" d="M1274.7,399.7L1177.4,340.2L1156.9,423.2Z" shape-rendering="crispEdges"/><path fill="#C8398E" d="M944.2,883.5L1042.6,872.7L1024.5,801.9Z" shape-rendering="crispEdges"/><path fill="#FB9FB4" d="M574.5,416.4L560.3,508.6L638.3,452.3Z" shape-rendering="crispEdges"/><path fill="#FA98B1" d="M638.3,452.3L560.3,508.6L654,491.1Z" shape-rendering="crispEdges"/><path fill="#F592B2" d="M1106.5,176.4L1040.4,220.6L1128.6,304.1Z" shape-rendering="crispEdges"/><path fill="#F691AF" d="M1128.6,304.1L1040.4,220.6L1025.5,275.7Z" shape-rendering="crispEdges"/><path fill="#FDB0C1" d="M883.9,105.1L805.8,122.6L908.7,212.4Z" shape-rendering="crispEdges"/><path fill="#CC5796" d="M740.5,866.6L782.8,880.1L804.9,805Z" shape-rendering="crispEdges"/><path fill="#F88CAD" d="M560.3,508.6L558.7,603.9L682.3,568.7Z" shape-rendering="crispEdges"/><path fill="#D83094" d="M1273.8,650.3L1175.9,675.1L1262,724.7Z" shape-rendering="crispEdges"/><path fill="#DC3996" d="M1273.8,650.3L1264.8,600.6L1175.9,675.1Z" shape-rendering="crispEdges"/><path fill="#E24099" d="M1175.9,675.1L1264.8,600.6L1177.3,584.8Z" shape-rendering="crispEdges"/><path fill="#EB68A3" d="M1195.9,484L1274.7,399.7L1156.9,423.2Z" shape-rendering="crispEdges"/><path fill="#C8268B" d="M1177.7,861.7L1186.6,777L1124.7,786.6Z" shape-rendering="crispEdges"/><path fill="#D23091" d="M1124.7,786.6L1186.6,777L1127.4,706.1Z" shape-rendering="crispEdges"/><path fill="#CA5F99" d="M646.1,901.8L740.5,866.6L723.8,820.7Z" shape-rendering="crispEdges"/><path fill="#D05B97" d="M723.8,820.7L740.5,866.6L804.9,805Z" shape-rendering="crispEdges"/><path fill="#D1629A" d="M646.1,901.8L723.8,820.7L680.3,776.3Z" shape-rendering="crispEdges"/><path fill="#FBA7B7" d="M670.6,343L574.5,416.4L638.3,452.3Z" shape-rendering="crispEdges"/><path fill="#FCAABA" d="M908.7,212.4L782.3,207.6L809.3,280.8Z" shape-rendering="crispEdges"/><path fill="#FBB0BA" d="M752.2,285.3L653.4,266.4L670.6,343Z" shape-rendering="crispEdges"/><path fill="#FBADB9" d="M670.6,343L600.1,330.1L574.5,416.4Z" shape-rendering="crispEdges"/><path fill="#E44999" d="M1264.8,600.6L1284.4,506.1L1177.3,584.8Z" shape-rendering="crispEdges"/><path fill="#FCB2BC" d="M782.3,207.6L713.6,225.6L752.2,285.3Z" shape-rendering="crispEdges"/><path fill="#D83094" d="M1262,724.7L1175.9,675.1L1172.7,701.2Z" shape-rendering="crispEdges"/><path fill="#DE4596" d="M1264.8,600.6L1348.5,578L1284.4,506.1Z" shape-rendering="crispEdges"/><path fill="#FBB2BB" d="M653.4,266.4L600.1,330.1L670.6,343Z" shape-rendering="crispEdges"/><path fill="#FBB4BC" d="M713.6,225.6L653.4,266.4L752.2,285.3Z" shape-rendering="crispEdges"/><path fill="#BE4A91" d="M797.4,932.7L884.8,931.6L884.2,885.4Z" shape-rendering="crispEdges"/><path fill="#C14490" d="M884.2,885.4L884.8,931.6L944.2,883.5Z" shape-rendering="crispEdges"/><path fill="#C03A8D" d="M944.2,883.5L949.1,938.5L1042.6,872.7Z" shape-rendering="crispEdges"/><path fill="#C24F93" d="M797.4,932.7L884.2,885.4L782.8,880.1Z" shape-rendering="crispEdges"/><path fill="#EE80AA" d="M1267.7,272.6L1182.3,275.3L1177.4,340.2Z" shape-rendering="crispEdges"/><path fill="#F082AB" d="M1177.4,340.2L1182.3,275.3L1128.6,304.1Z" shape-rendering="crispEdges"/><path fill="#EE7FAA" d="M484.8,660.2L566.7,728.1L587.8,648.7Z" shape-rendering="crispEdges"/><path fill="#EB78A7" d="M587.8,648.7L566.7,728.1L662.2,701.4Z" shape-rendering="crispEdges"/><path fill="#BE408E" d="M884.8,931.6L949.1,938.5L944.2,883.5Z" shape-rendering="crispEdges"/><path fill="#C32F8C" d="M1042.6,872.7L1103.7,892.3L1124.7,786.6Z" shape-rendering="crispEdges"/><path fill="#D22B91" d="M1186.6,777L1262,724.7L1172.7,701.2Z" shape-rendering="crispEdges"/><path fill="#E6609F" d="M1284.4,506.1L1274.7,399.7L1195.9,484Z" shape-rendering="crispEdges"/><path fill="#B92D8A" d="M1118,948.6L1103.7,892.3L1042.6,872.7Z" shape-rendering="crispEdges"/><path fill="#CB258D" d="M1186.6,777L1245.8,778.7L1262,724.7Z" shape-rendering="crispEdges"/><path fill="#FBA0B4" d="M574.5,416.4L518.2,492.9L560.3,508.6Z" shape-rendering="crispEdges"/><path fill="#F88FAE" d="M560.3,508.6L515.1,597.4L558.7,603.9Z" shape-rendering="crispEdges"/><path fill="#F285AC" d="M558.7,603.9L484.8,660.2L587.8,648.7Z" shape-rendering="crispEdges"/><path fill="#FBA6B6" d="M483.1,440.8L518.2,492.9L574.5,416.4Z" shape-rendering="crispEdges"/><path fill="#FB96B0" d="M518.2,492.9L515.1,597.4L560.3,508.6Z" shape-rendering="crispEdges"/><path fill="#C25796" d="M745.2,966.9L782.8,880.1L740.5,866.6Z" shape-rendering="crispEdges"/><path fill="#BD5494" d="M745.2,966.9L797.4,932.7L782.8,880.1Z" shape-rendering="crispEdges"/><path fill="#B0378A" d="M970.9,1040.7L1012.4,980.4L949.1,938.5Z" shape-rendering="crispEdges"/><path fill="#FCBDC3" d="M655.9,146.8L662.6,228.3L713.6,225.6Z" shape-rendering="crispEdges"/><path fill="#FCB9BF" d="M713.6,225.6L662.6,228.3L653.4,266.4Z" shape-rendering="crispEdges"/><path fill="#FCB7BC" d="M653.4,266.4L591.4,284.4L600.1,330.1Z" shape-rendering="crispEdges"/><path fill="#C6208B" d="M1177.7,861.7L1245.8,778.7L1186.6,777Z" shape-rendering="crispEdges"/><path fill="#C2298B" d="M1103.7,892.3L1177.7,861.7L1124.7,786.6Z" shape-rendering="crispEdges"/><path fill="#FCBDBF" d="M574.2,207.3L591.4,284.4L653.4,266.4Z" shape-rendering="crispEdges"/><path fill="#FBB1BA" d="M490.9,324.8L483.1,440.8L574.5,416.4Z" shape-rendering="crispEdges"/><path fill="#F28CAF" d="M1182.3,275.3L1106.5,176.4L1128.6,304.1Z" shape-rendering="crispEdges"/><path fill="#FCA4BD" d="M1026,112.2L957.9,104.3L986.8,220.4Z" shape-rendering="crispEdges"/><path fill="#FDB0BF" d="M908.7,212.4L805.8,122.6L782.3,207.6Z" shape-rendering="crispEdges"/><path fill="#DF75A2" d="M485.4,741.4L580.9,814.1L566.7,728.1Z" shape-rendering="crispEdges"/><path fill="#DC6E9F" d="M566.7,728.1L580.9,814.1L680.3,776.3Z" shape-rendering="crispEdges"/><path fill="#E470A3" d="M1323.2,358.3L1285.9,341.6L1274.7,399.7Z" shape-rendering="crispEdges"/><path fill="#E974A5" d="M1274.7,399.7L1285.9,341.6L1177.4,340.2Z" shape-rendering="crispEdges"/><path fill="#F497BA" d="M1198.8,125.1L1094.3,139.5L1106.5,176.4Z" shape-rendering="crispEdges"/><path fill="#E0599B" d="M1349.2,493.7L1318.8,418.1L1284.4,506.1Z" shape-rendering="crispEdges"/><path fill="#E3629E" d="M1284.4,506.1L1318.8,418.1L1274.7,399.7Z" shape-rendering="crispEdges"/><path fill="#D83894" d="M1334.3,636.8L1264.8,600.6L1273.8,650.3Z" shape-rendering="crispEdges"/><path fill="#CF2990" d="M1320.5,736.4L1273.8,650.3L1262,724.7Z" shape-rendering="crispEdges"/><path fill="#D22B91" d="M1320.5,736.4L1334.3,636.8L1273.8,650.3Z" shape-rendering="crispEdges"/><path fill="#FDABC0" d="M883.9,105.1L908.7,212.4L957.9,104.3Z" shape-rendering="crispEdges"/><path fill="#FCBFC7" d="M717.7,104.6L655.9,146.8L713.6,225.6Z" shape-rendering="crispEdges"/><path fill="#F28BAE" d="M452.4,668.4L484.8,660.2L431.3,600.1Z" shape-rendering="crispEdges"/><path fill="#F48AAD" d="M515.1,597.4L484.8,660.2L558.7,603.9Z" shape-rendering="crispEdges"/><path fill="#D83B94" d="M1334.3,636.8L1348.5,578L1264.8,600.6Z" shape-rendering="crispEdges"/><path fill="#FBB3BB" d="M490.9,324.8L574.5,416.4L600.1,330.1Z" shape-rendering="crispEdges"/><path fill="#FB99B1" d="M518.2,492.9L455.8,511.6L515.1,597.4Z" shape-rendering="crispEdges"/><path fill="#D2679B" d="M580.9,814.1L646.1,901.8L680.3,776.3Z" shape-rendering="crispEdges"/><path fill="#DE4B96" d="M1348.5,578L1349.2,493.7L1284.4,506.1Z" shape-rendering="crispEdges"/><path fill="#B6428E" d="M875.2,1011.9L949.1,938.5L884.8,931.6Z" shape-rendering="crispEdges"/><path fill="#B8368C" d="M949.1,938.5L1012.4,980.4L1042.6,872.7Z" shape-rendering="crispEdges"/><path fill="#B72489" d="M1103.7,892.3L1200.5,925.7L1177.7,861.7Z" shape-rendering="crispEdges"/><path fill="#B64890" d="M875.2,1011.9L884.8,931.6L797.4,932.7Z" shape-rendering="crispEdges"/><path fill="#FDA4BA" d="M957.9,104.3L908.7,212.4L986.8,220.4Z" shape-rendering="crispEdges"/><path fill="#FA9DB8" d="M1026,112.2L986.8,220.4L1040.4,220.6Z" shape-rendering="crispEdges"/><path fill="#F28FB2" d="M1184.6,185.3L1106.5,176.4L1182.3,275.3Z" shape-rendering="crispEdges"/><path fill="#F799B8" d="M1106.5,176.4L1094.3,139.5L1040.4,220.6Z" shape-rendering="crispEdges"/><path fill="#C15C97" d="M646.1,901.8L745.2,966.9L740.5,866.6Z" shape-rendering="crispEdges"/><path fill="#B5308A" d="M1012.4,980.4L1118,948.6L1042.6,872.7Z" shape-rendering="crispEdges"/><path fill="#C31D89" d="M1351.5,783.3L1320.5,736.4L1245.8,778.7Z" shape-rendering="crispEdges"/><path fill="#F89DBA" d="M1094.3,139.5L1026,112.2L1040.4,220.6Z" shape-rendering="crispEdges"/><path fill="#BD1D88" d="M1255,882.7L1245.8,778.7L1177.7,861.7Z" shape-rendering="crispEdges"/><path fill="#C9238C" d="M1245.8,778.7L1320.5,736.4L1262,724.7Z" shape-rendering="crispEdges"/><path fill="#D43891" d="M1334.3,636.8L1403,598.4L1348.5,578Z" shape-rendering="crispEdges"/><path fill="#E47AA5" d="M1353.3,270L1267.7,272.6L1285.9,341.6Z" shape-rendering="crispEdges"/><path fill="#EA7BA7" d="M1285.9,341.6L1267.7,272.6L1177.4,340.2Z" shape-rendering="crispEdges"/><path fill="#E26BA1" d="M1323.2,358.3L1274.7,399.7L1318.8,418.1Z" shape-rendering="crispEdges"/><path fill="#DF6AA0" d="M1389.3,365.1L1323.2,358.3L1318.8,418.1Z" shape-rendering="crispEdges"/><path fill="#EF8AB0" d="M1254.1,198.4L1184.6,185.3L1182.3,275.3Z" shape-rendering="crispEdges"/><path fill="#FBA4B5" d="M483.1,440.8L455.8,511.6L518.2,492.9Z" shape-rendering="crispEdges"/><path fill="#B04A8F" d="M811.1,1047.5L875.2,1011.9L797.4,932.7Z" shape-rendering="crispEdges"/><path fill="#EC83AB" d="M452.4,668.4L485.4,741.4L484.8,660.2Z" shape-rendering="crispEdges"/><path fill="#E97EA8" d="M484.8,660.2L485.4,741.4L566.7,728.1Z" shape-rendering="crispEdges"/><path fill="#CA679B" d="M580.9,814.1L595.8,896.5L646.1,901.8Z" shape-rendering="crispEdges"/><path fill="#CF6D9C" d="M497.8,830.3L595.8,896.5L580.9,814.1Z" shape-rendering="crispEdges"/><path fill="#BA5D97" d="M646.1,901.8L641.7,966.5L745.2,966.9Z" shape-rendering="crispEdges"/><path fill="#F48DAE" d="M431.3,600.1L484.8,660.2L515.1,597.4Z" shape-rendering="crispEdges"/><path fill="#FBB3BC" d="M429.6,350.7L448.1,439.5L483.1,440.8Z" shape-rendering="crispEdges"/><path fill="#FCA8B7" d="M483.1,440.8L448.1,439.5L455.8,511.6Z" shape-rendering="crispEdges"/><path fill="#F995B0" d="M455.8,511.6L431.3,600.1L515.1,597.4Z" shape-rendering="crispEdges"/><path fill="#FEB6C6" d="M883.9,105.1L833.3,79.8L805.8,122.6Z" shape-rendering="crispEdges"/><path fill="#FCBAC3" d="M717.7,104.6L713.6,225.6L782.3,207.6Z" shape-rendering="crispEdges"/><path fill="#FCBEBE" d="M490.9,280.9L490.9,324.8L591.4,284.4Z" shape-rendering="crispEdges"/><path fill="#FEB5C7" d="M909.3,50.7L833.3,79.8L883.9,105.1Z" shape-rendering="crispEdges"/><path fill="#FEB0C4" d="M909.3,50.7L883.9,105.1L957.9,104.3Z" shape-rendering="crispEdges"/><path fill="#FCBDC0" d="M574.2,207.3L653.4,266.4L662.6,228.3Z" shape-rendering="crispEdges"/><path fill="#FCB9BC" d="M591.4,284.4L490.9,324.8L600.1,330.1Z" shape-rendering="crispEdges"/><path fill="#FDBAC6" d="M717.7,104.6L782.3,207.6L805.8,122.6Z" shape-rendering="crispEdges"/><path fill="#AA2387" d="M1121.2,1021.1L1200.5,925.7L1118,948.6Z" shape-rendering="crispEdges"/><path fill="#B32689" d="M1118,948.6L1200.5,925.7L1103.7,892.3Z" shape-rendering="crispEdges"/><path fill="#FCC1C5" d="M655.9,146.8L574.2,207.3L662.6,228.3Z" shape-rendering="crispEdges"/><path fill="#AA3288" d="M970.9,1040.7L1045.5,1009.1L1012.4,980.4Z" shape-rendering="crispEdges"/><path fill="#AC2E88" d="M1012.4,980.4L1045.5,1009.1L1118,948.6Z" shape-rendering="crispEdges"/><path fill="#B51D88" d="M1200.5,925.7L1255,882.7L1177.7,861.7Z" shape-rendering="crispEdges"/><path fill="#FB9CB4" d="M357.2,527L431.3,600.1L455.8,511.6Z" shape-rendering="crispEdges"/><path fill="#FDC0CB" d="M740.7,42.4L717.7,104.6L805.8,122.6Z" shape-rendering="crispEdges"/><path fill="#FCA7C1" d="M1007.8,69.7L957.9,104.3L1026,112.2Z" shape-rendering="crispEdges"/><path fill="#FEABC3" d="M1007.8,69.7L953.6,62.9L957.9,104.3Z" shape-rendering="crispEdges"/><path fill="#FAA5C2" d="M1007.8,69.7L1026,112.2L1107.5,40Z" shape-rendering="crispEdges"/><path fill="#F8A1BF" d="M1107.5,40L1026,112.2L1094.3,139.5Z" shape-rendering="crispEdges"/><path fill="#EC85AC" d="M1267.7,272.6L1254.1,198.4L1182.3,275.3Z" shape-rendering="crispEdges"/><path fill="#F393B8" d="M1184.6,185.3L1198.8,125.1L1106.5,176.4Z" shape-rendering="crispEdges"/><path fill="#E885AC" d="M1326.3,196.4L1254.1,198.4L1267.7,272.6Z" shape-rendering="crispEdges"/><path fill="#CA248D" d="M1389.3,728.6L1334.3,636.8L1320.5,736.4Z" shape-rendering="crispEdges"/><path fill="#CE2F8F" d="M1430.5,667.3L1403,598.4L1334.3,636.8Z" shape-rendering="crispEdges"/><path fill="#D94794" d="M1348.5,578L1412.7,518.6L1349.2,493.7Z" shape-rendering="crispEdges"/><path fill="#DB659D" d="M1420.5,422.3L1389.3,365.1L1318.8,418.1Z" shape-rendering="crispEdges"/><path fill="#AF3C8B" d="M875.2,1011.9L970.9,1040.7L949.1,938.5Z" shape-rendering="crispEdges"/><path fill="#BE6499" d="M561,927.5L641.7,966.5L595.8,896.5Z" shape-rendering="crispEdges"/><path fill="#BF6299" d="M595.8,896.5L641.7,966.5L646.1,901.8Z" shape-rendering="crispEdges"/><path fill="#B35092" d="M745.2,966.9L811.1,1047.5L797.4,932.7Z" shape-rendering="crispEdges"/><path fill="#A03887" d="M878.6,1116.7L958.4,1113.1L970.9,1040.7Z" shape-rendering="crispEdges"/><path fill="#FCC1C0" d="M574.2,207.3L490.9,280.9L591.4,284.4Z" shape-rendering="crispEdges"/><path fill="#FCB8BD" d="M490.9,324.8L429.6,350.7L483.1,440.8Z" shape-rendering="crispEdges"/><path fill="#FFB9CC" d="M873.3,-28.8L909.3,50.7L932.2,-47.3Z" shape-rendering="crispEdges"/><path fill="#FEAFC4" d="M953.6,62.9L909.3,50.7L957.9,104.3Z" shape-rendering="crispEdges"/><path fill="#FEC6CE" d="M740.7,42.4L663.2,80.5L717.7,104.6Z" shape-rendering="crispEdges"/><path fill="#D977A0" d="M431.4,826.7L497.8,830.3L485.4,741.4Z" shape-rendering="crispEdges"/><path fill="#D9749F" d="M485.4,741.4L497.8,830.3L580.9,814.1Z" shape-rendering="crispEdges"/><path fill="#EA83AB" d="M420.1,701.2L485.4,741.4L452.4,668.4Z" shape-rendering="crispEdges"/><path fill="#BA1585" d="M1327.2,880.1L1351.5,783.3L1245.8,778.7Z" shape-rendering="crispEdges"/><path fill="#D53F91" d="M1403,598.4L1412.7,518.6L1348.5,578Z" shape-rendering="crispEdges"/><path fill="#E275A3" d="M1323.2,358.3L1353.3,270L1285.9,341.6Z" shape-rendering="crispEdges"/><path fill="#B35895" d="M641.7,966.5L726.9,1018.8L745.2,966.9Z" shape-rendering="crispEdges"/><path fill="#AE5191" d="M726.9,1018.8L811.1,1047.5L745.2,966.9Z" shape-rendering="crispEdges"/><path fill="#C11B88" d="M1351.5,783.3L1389.3,728.6L1320.5,736.4Z" shape-rendering="crispEdges"/><path fill="#CF3E8F" d="M1495.6,593.2L1491.3,526L1412.7,518.6Z" shape-rendering="crispEdges"/><path fill="#F091B7" d="M1247.1,145.2L1198.8,125.1L1184.6,185.3Z" shape-rendering="crispEdges"/><path fill="#F48FB1" d="M356.6,625.1L452.4,668.4L431.3,600.1Z" shape-rendering="crispEdges"/><path fill="#F18BB0" d="M356.6,625.1L420.1,701.2L452.4,668.4Z" shape-rendering="crispEdges"/><path fill="#DC5D9B" d="M1420.5,422.3L1318.8,418.1L1349.2,493.7Z" shape-rendering="crispEdges"/><path fill="#EE8DB4" d="M1254.1,198.4L1247.1,145.2L1184.6,185.3Z" shape-rendering="crispEdges"/><path fill="#C46A9B" d="M485.3,879L561,927.5L595.8,896.5Z" shape-rendering="crispEdges"/><path fill="#B15B95" d="M641.7,966.5L635.8,1000.3L726.9,1018.8Z" shape-rendering="crispEdges"/><path fill="#A12B85" d="M1033.5,1087.3L1121.2,1021.1L1045.5,1009.1Z" shape-rendering="crispEdges"/><path fill="#A82987" d="M1045.5,1009.1L1121.2,1021.1L1118,948.6Z" shape-rendering="crispEdges"/><path fill="#AA1684" d="M1240.5,977.1L1327.2,880.1L1255,882.7Z" shape-rendering="crispEdges"/><path fill="#B71786" d="M1255,882.7L1327.2,880.1L1245.8,778.7Z" shape-rendering="crispEdges"/><path fill="#FCBFC0" d="M408.6,301.8L429.6,350.7L490.9,324.8Z" shape-rendering="crispEdges"/><path fill="#FCA5B7" d="M448.1,439.5L357.2,527L455.8,511.6Z" shape-rendering="crispEdges"/><path fill="#DF71A1" d="M1389.3,365.1L1353.3,270L1323.2,358.3Z" shape-rendering="crispEdges"/><path fill="#E989B1" d="M1326.3,196.4L1247.1,145.2L1254.1,198.4Z" shape-rendering="crispEdges"/><path fill="#FDC8CC" d="M663.2,80.5L606.6,118.9L655.9,146.8Z" shape-rendering="crispEdges"/><path fill="#FDC6C9" d="M655.9,146.8L606.6,118.9L574.2,207.3Z" shape-rendering="crispEdges"/><path fill="#FCC5C3" d="M574.2,207.3L509.7,202.6L490.9,280.9Z" shape-rendering="crispEdges"/><path fill="#FCC1C0" d="M490.9,280.9L408.6,301.8L490.9,324.8Z" shape-rendering="crispEdges"/><path fill="#FDC5CC" d="M663.2,80.5L655.9,146.8L717.7,104.6Z" shape-rendering="crispEdges"/><path fill="#D85396" d="M1412.7,518.6L1420.5,422.3L1349.2,493.7Z" shape-rendering="crispEdges"/><path fill="#DC74A0" d="M1389.3,365.1L1428.1,258.1L1353.3,270Z" shape-rendering="crispEdges"/><path fill="#B76198" d="M561,927.5L635.8,1000.3L641.7,966.5Z" shape-rendering="crispEdges"/><path fill="#A14A8D" d="M754.6,1110.9L793.7,1105.3L811.1,1047.5Z" shape-rendering="crispEdges"/><path fill="#FDCBC9" d="M492,117.4L509.7,202.6L574.2,207.3Z" shape-rendering="crispEdges"/><path fill="#FEBDCA" d="M740.7,42.4L805.8,122.6L833.3,79.8Z" shape-rendering="crispEdges"/><path fill="#AB1A86" d="M1240.5,977.1L1255,882.7L1200.5,925.7Z" shape-rendering="crispEdges"/><path fill="#BB1585" d="M1351.5,783.3L1417.9,780.5L1389.3,728.6Z" shape-rendering="crispEdges"/><path fill="#FFC1CE" d="M804.6,-14.1L740.7,42.4L833.3,79.8Z" shape-rendering="crispEdges"/><path fill="#C01B88" d="M1505.2,710.4L1430.5,667.3L1389.3,728.6Z" shape-rendering="crispEdges"/><path fill="#CA258D" d="M1389.3,728.6L1430.5,667.3L1334.3,636.8Z" shape-rendering="crispEdges"/><path fill="#D45596" d="M1412.7,518.6L1484.4,425.7L1420.5,422.3Z" shape-rendering="crispEdges"/><path fill="#CB6E9D" d="M497.8,830.3L485.3,879L595.8,896.5Z" shape-rendering="crispEdges"/><path fill="#B26197" d="M561,927.5L599.2,1055.4L635.8,1000.3Z" shape-rendering="crispEdges"/><path fill="#D0749F" d="M431.4,826.7L485.3,879L497.8,830.3Z" shape-rendering="crispEdges"/><path fill="#A31A85" d="M1196.8,1042.3L1240.5,977.1L1200.5,925.7Z" shape-rendering="crispEdges"/><path fill="#E480A8" d="M1353.3,270L1326.3,196.4L1267.7,272.6Z" shape-rendering="crispEdges"/><path fill="#DF80A8" d="M1421.6,184.6L1326.3,196.4L1353.3,270Z" shape-rendering="crispEdges"/><path fill="#F299BF" d="M1170.2,33.4L1198.8,125.1L1257.5,38.1Z" shape-rendering="crispEdges"/><path fill="#F59DC0" d="M1170.2,33.4L1107.5,40L1198.8,125.1Z" shape-rendering="crispEdges"/><path fill="#F59CBE" d="M1198.8,125.1L1107.5,40L1094.3,139.5Z" shape-rendering="crispEdges"/><path fill="#FFB4C9" d="M932.2,-47.3L909.3,50.7L953.6,62.9Z" shape-rendering="crispEdges"/><path fill="#FFBECE" d="M873.3,-28.8L804.6,-14.1L833.3,79.8Z" shape-rendering="crispEdges"/><path fill="#9E3185" d="M958.4,1113.1L1033.5,1087.3L970.9,1040.7Z" shape-rendering="crispEdges"/><path fill="#A33086" d="M970.9,1040.7L1033.5,1087.3L1045.5,1009.1Z" shape-rendering="crispEdges"/><path fill="#A31E85" d="M1121.2,1021.1L1196.8,1042.3L1200.5,925.7Z" shape-rendering="crispEdges"/><path fill="#FCADBC" d="M347,426.4L357.2,527L448.1,439.5Z" shape-rendering="crispEdges"/><path fill="#E17EA6" d="M420.1,701.2L431.4,826.7L485.4,741.4Z" shape-rendering="crispEdges"/><path fill="#DF7FA8" d="M332.1,777.6L431.4,826.7L420.1,701.2Z" shape-rendering="crispEdges"/><path fill="#AD0C81" d="M1419.1,894.1L1351.5,783.3L1327.2,880.1Z" shape-rendering="crispEdges"/><path fill="#B00880" d="M1419.1,894.1L1417.9,780.5L1351.5,783.3Z" shape-rendering="crispEdges"/><path fill="#F695B4" d="M343.5,592.2L356.6,625.1L431.3,600.1Z" shape-rendering="crispEdges"/><path fill="#FCC8C3" d="M438.2,207.2L408.6,301.8L490.9,280.9Z" shape-rendering="crispEdges"/><path fill="#FCB6BF" d="M429.6,350.7L347,426.4L448.1,439.5Z" shape-rendering="crispEdges"/><path fill="#A43C89" d="M878.6,1116.7L970.9,1040.7L875.2,1011.9Z" shape-rendering="crispEdges"/><path fill="#A4438B" d="M878.6,1116.7L875.2,1011.9L811.1,1047.5Z" shape-rendering="crispEdges"/><path fill="#F99AB5" d="M357.2,527L343.5,592.2L431.3,600.1Z" shape-rendering="crispEdges"/><path fill="#CD76A2" d="M334.7,885.3L446.7,884.4L431.4,826.7Z" shape-rendering="crispEdges"/><path fill="#A54E8F" d="M754.6,1110.9L811.1,1047.5L726.9,1018.8Z" shape-rendering="crispEdges"/><path fill="#A1458B" d="M793.7,1105.3L878.6,1116.7L811.1,1047.5Z" shape-rendering="crispEdges"/><path fill="#9A2783" d="M1105.9,1114.9L1121.2,1021.1L1033.5,1087.3Z" shape-rendering="crispEdges"/><path fill="#991E82" d="M1157.9,1121.4L1196.8,1042.3L1121.2,1021.1Z" shape-rendering="crispEdges"/><path fill="#A21282" d="M1240.5,977.1L1362.6,950.3L1327.2,880.1Z" shape-rendering="crispEdges"/><path fill="#EF8BB1" d="M344.8,709.4L420.1,701.2L356.6,625.1Z" shape-rendering="crispEdges"/><path fill="#CD749F" d="M431.4,826.7L446.7,884.4L485.3,879Z" shape-rendering="crispEdges"/><path fill="#C06C9C" d="M485.3,879L495.3,965.3L561,927.5Z" shape-rendering="crispEdges"/><path fill="#A25290" d="M685.6,1098.8L754.6,1110.9L726.9,1018.8Z" shape-rendering="crispEdges"/><path fill="#FFB9CA" d="M873.3,-28.8L833.3,79.8L909.3,50.7Z" shape-rendering="crispEdges"/><path fill="#FECED2" d="M678,-36.4L603.8,63.4L663.2,80.5Z" shape-rendering="crispEdges"/><path fill="#FECBD2" d="M678,-36.4L663.2,80.5L740.7,42.4Z" shape-rendering="crispEdges"/><path fill="#FDCBCF" d="M663.2,80.5L603.8,63.4L606.6,118.9Z" shape-rendering="crispEdges"/><path fill="#FDCBCB" d="M606.6,118.9L492,117.4L574.2,207.3Z" shape-rendering="crispEdges"/><path fill="#FCC9C4" d="M509.7,202.6L438.2,207.2L490.9,280.9Z" shape-rendering="crispEdges"/><path fill="#FCBCC2" d="M344.1,353.3L347,426.4L429.6,350.7Z" shape-rendering="crispEdges"/><path fill="#FB9FB9" d="M357.2,527L278.8,562.1L343.5,592.2Z" shape-rendering="crispEdges"/><path fill="#EE94BA" d="M1257.5,38.1L1198.8,125.1L1247.1,145.2Z" shape-rendering="crispEdges"/><path fill="#FFB2C9" d="M932.2,-47.3L953.6,62.9L1024.7,-43.3Z" shape-rendering="crispEdges"/><path fill="#FDADC6" d="M953.6,62.9L1007.8,69.7L1024.7,-43.3Z" shape-rendering="crispEdges"/><path fill="#CA2F8C" d="M1495.6,593.2L1403,598.4L1430.5,667.3Z" shape-rendering="crispEdges"/><path fill="#D03A8F" d="M1495.6,593.2L1412.7,518.6L1403,598.4Z" shape-rendering="crispEdges"/><path fill="#D6659B" d="M1420.5,422.3L1474.7,359.5L1389.3,365.1Z" shape-rendering="crispEdges"/><path fill="#FDCECA" d="M492,117.4L438.2,207.2L509.7,202.6Z" shape-rendering="crispEdges"/><path fill="#FCC1C2" d="M408.6,301.8L344.1,353.3L429.6,350.7Z" shape-rendering="crispEdges"/><path fill="#A95793" d="M685.6,1098.8L726.9,1018.8L635.8,1000.3Z" shape-rendering="crispEdges"/><path fill="#A1468B" d="M793.7,1105.3L802.5,1156.1L878.6,1116.7Z" shape-rendering="crispEdges"/><path fill="#C5298B" d="M1501.1,659.2L1495.6,593.2L1430.5,667.3Z" shape-rendering="crispEdges"/><path fill="#D14C93" d="M1491.3,526L1484.4,425.7L1412.7,518.6Z" shape-rendering="crispEdges"/><path fill="#F291B5" d="M275.2,635.9L344.8,709.4L356.6,625.1Z" shape-rendering="crispEdges"/><path fill="#C3709D" d="M446.7,884.4L495.3,965.3L485.3,879Z" shape-rendering="crispEdges"/><path fill="#E288B0" d="M1420.7,139.8L1311.5,115.3L1326.3,196.4Z" shape-rendering="crispEdges"/><path fill="#E78BB3" d="M1326.3,196.4L1311.5,115.3L1247.1,145.2Z" shape-rendering="crispEdges"/><path fill="#D7709E" d="M1478.2,305.6L1428.1,258.1L1389.3,365.1Z" shape-rendering="crispEdges"/><path fill="#A75A93" d="M599.2,1055.4L685.6,1098.8L635.8,1000.3Z" shape-rendering="crispEdges"/><path fill="#B16497" d="M501,1023.7L599.2,1055.4L561,927.5Z" shape-rendering="crispEdges"/><path fill="#941480" d="M1268.5,1089.5L1265.4,1025.2L1196.8,1042.3Z" shape-rendering="crispEdges"/><path fill="#9B1782" d="M1196.8,1042.3L1265.4,1025.2L1240.5,977.1Z" shape-rendering="crispEdges"/><path fill="#D36099" d="M1484.4,425.7L1474.7,359.5L1420.5,422.3Z" shape-rendering="crispEdges"/><path fill="#FBAAC6" d="M1024.7,-43.3L1007.8,69.7L1107.5,40Z" shape-rendering="crispEdges"/><path fill="#FFC7D2" d="M718.6,-94.4L738.3,-31.2L837.3,-118.9Z" shape-rendering="crispEdges"/><path fill="#FCC7C5" d="M347.7,250.3L344.1,353.3L408.6,301.8Z" shape-rendering="crispEdges"/><path fill="#FDADBE" d="M347,426.4L264.5,493.1L357.2,527Z" shape-rendering="crispEdges"/><path fill="#9D2F85" d="M1026.3,1193L1033.5,1087.3L958.4,1113.1Z" shape-rendering="crispEdges"/><path fill="#9B2A84" d="M1026.3,1193L1105.9,1114.9L1033.5,1087.3Z" shape-rendering="crispEdges"/><path fill="#FDCFCF" d="M603.8,63.4L492,117.4L606.6,118.9Z" shape-rendering="crispEdges"/><path fill="#FCCBC7" d="M438.2,207.2L347.7,250.3L408.6,301.8Z" shape-rendering="crispEdges"/><path fill="#BA1485" d="M1505.2,710.4L1389.3,728.6L1417.9,780.5Z" shape-rendering="crispEdges"/><path fill="#C01F8A" d="M1505.2,710.4L1501.1,659.2L1430.5,667.3Z" shape-rendering="crispEdges"/><path fill="#C7388D" d="M1495.6,593.2L1542.2,601.4L1491.3,526Z" shape-rendering="crispEdges"/><path fill="#CD629A" d="M1578.6,352L1474.7,359.5L1484.4,425.7Z" shape-rendering="crispEdges"/><path fill="#FAA9C7" d="M1097.8,-38.6L1024.7,-43.3L1107.5,40Z" shape-rendering="crispEdges"/><path fill="#FFBFCE" d="M837.3,-118.9L804.6,-14.1L873.3,-28.8Z" shape-rendering="crispEdges"/><path fill="#FFC7D2" d="M804.6,-14.1L738.3,-31.2L740.7,42.4Z" shape-rendering="crispEdges"/><path fill="#FDD6D2" d="M483.9,69.8L448.1,107.7L492,117.4Z" shape-rendering="crispEdges"/><path fill="#9C1280" d="M1265.4,1025.2L1362.6,950.3L1240.5,977.1Z" shape-rendering="crispEdges"/><path fill="#A20B7F" d="M1362.6,950.3L1419.1,894.1L1327.2,880.1Z" shape-rendering="crispEdges"/><path fill="#F6A3C5" d="M1198.6,-11.6L1097.8,-38.6L1170.2,33.4Z" shape-rendering="crispEdges"/><path fill="#F7A4C5" d="M1170.2,33.4L1097.8,-38.6L1107.5,40Z" shape-rendering="crispEdges"/><path fill="#B40F82" d="M1480.1,785.2L1505.2,710.4L1417.9,780.5Z" shape-rendering="crispEdges"/><path fill="#CC5094" d="M1543.3,453.5L1484.4,425.7L1491.3,526Z" shape-rendering="crispEdges"/><path fill="#A14D8E" d="M714.2,1176L802.5,1156.1L754.6,1110.9Z" shape-rendering="crispEdges"/><path fill="#A14A8D" d="M754.6,1110.9L802.5,1156.1L793.7,1105.3Z" shape-rendering="crispEdges"/><path fill="#A03B88" d="M878.6,1116.7L895.5,1173L958.4,1113.1Z" shape-rendering="crispEdges"/><path fill="#AB017E" d="M1478.4,886L1480.1,785.2L1417.9,780.5Z" shape-rendering="crispEdges"/><path fill="#E994BB" d="M1309.8,25.5L1257.5,38.1L1311.5,115.3Z" shape-rendering="crispEdges"/><path fill="#EB92B9" d="M1311.5,115.3L1257.5,38.1L1247.1,145.2Z" shape-rendering="crispEdges"/><path fill="#D56A9C" d="M1474.7,359.5L1478.2,305.6L1389.3,365.1Z" shape-rendering="crispEdges"/><path fill="#DC7BA4" d="M1428.1,258.1L1421.6,184.6L1353.3,270Z" shape-rendering="crispEdges"/><path fill="#CE699B" d="M1578.6,352L1478.2,305.6L1474.7,359.5Z" shape-rendering="crispEdges"/><path fill="#C2308C" d="M1542.2,601.4L1495.6,593.2L1548.6,629.3Z" shape-rendering="crispEdges"/><path fill="#E486AE" d="M296.2,749.6L332.1,777.6L344.8,709.4Z" shape-rendering="crispEdges"/><path fill="#E685AD" d="M344.8,709.4L332.1,777.6L420.1,701.2Z" shape-rendering="crispEdges"/><path fill="#AF6999" d="M462.7,1047.9L501,1023.7L495.3,965.3Z" shape-rendering="crispEdges"/><path fill="#F697B7" d="M275.2,635.9L356.6,625.1L343.5,592.2Z" shape-rendering="crispEdges"/><path fill="#972182" d="M1130,1173.4L1157.9,1121.4L1105.9,1114.9Z" shape-rendering="crispEdges"/><path fill="#972182" d="M1105.9,1114.9L1157.9,1121.4L1121.2,1021.1Z" shape-rendering="crispEdges"/><path fill="#94097C" d="M1350.5,1042.4L1382.5,971.6L1362.6,950.3Z" shape-rendering="crispEdges"/><path fill="#A1428A" d="M802.5,1156.1L895.5,1173L878.6,1116.7Z" shape-rendering="crispEdges"/><path fill="#B7689A" d="M495.3,965.3L501,1023.7L561,927.5Z" shape-rendering="crispEdges"/><path fill="#A25A92" d="M599.2,1055.4L572.4,1079.3L685.6,1098.8Z" shape-rendering="crispEdges"/><path fill="#A15290" d="M685.6,1098.8L714.2,1176L754.6,1110.9Z" shape-rendering="crispEdges"/><path fill="#BD6F9E" d="M410.9,973.3L495.3,965.3L446.7,884.4Z" shape-rendering="crispEdges"/><path fill="#D87BA4" d="M1464.6,214.9L1421.6,184.6L1428.1,258.1Z" shape-rendering="crispEdges"/><path fill="#FCC0C6" d="M301.3,332.3L292.7,428.2L344.1,353.3Z" shape-rendering="crispEdges"/><path fill="#FCBBC4" d="M344.1,353.3L292.7,428.2L347,426.4Z" shape-rendering="crispEdges"/><path fill="#A76095" d="M501,1023.7L572.4,1079.3L599.2,1055.4Z" shape-rendering="crispEdges"/><path fill="#FFCCD4" d="M718.6,-94.4L678,-36.4L738.3,-31.2Z" shape-rendering="crispEdges"/><path fill="#FFCCD4" d="M738.3,-31.2L678,-36.4L740.7,42.4Z" shape-rendering="crispEdges"/><path fill="#F39DC2" d="M1257.5,38.1L1198.6,-11.6L1170.2,33.4Z" shape-rendering="crispEdges"/><path fill="#FDA6BC" d="M264.5,493.1L278.8,562.1L357.2,527Z" shape-rendering="crispEdges"/><path fill="#940D7E" d="M1350.5,1042.4L1362.6,950.3L1265.4,1025.2Z" shape-rendering="crispEdges"/><path fill="#9A077D" d="M1362.6,950.3L1382.5,971.6L1419.1,894.1Z" shape-rendering="crispEdges"/><path fill="#A6017D" d="M1419.1,894.1L1478.4,886L1417.9,780.5Z" shape-rendering="crispEdges"/><path fill="#BB1C88" d="M1532.4,703L1501.1,659.2L1505.2,710.4Z" shape-rendering="crispEdges"/><path fill="#C22C8B" d="M1548.6,629.3L1495.6,593.2L1501.1,659.2Z" shape-rendering="crispEdges"/><path fill="#FDD0CB" d="M376.5,190L347.7,250.3L438.2,207.2Z" shape-rendering="crispEdges"/><path fill="#FDD3D1" d="M483.9,69.8L492,117.4L603.8,63.4Z" shape-rendering="crispEdges"/><path fill="#FDD3CF" d="M492,117.4L448.1,107.7L438.2,207.2Z" shape-rendering="crispEdges"/><path fill="#A1438B" d="M668,1205.4L965.4,1185.9L895.5,1173Z" shape-rendering="crispEdges"/><path fill="#A03787" d="M895.5,1173L965.4,1185.9L958.4,1113.1Z" shape-rendering="crispEdges"/><path fill="#C94B92" d="M1558.1,481.3L1543.3,453.5L1491.3,526Z" shape-rendering="crispEdges"/><path fill="#F89BB9" d="M278.8,562.1L275.2,635.9L343.5,592.2Z" shape-rendering="crispEdges"/><path fill="#FED6D5" d="M558.1,-37.3L483.9,69.8L603.8,63.4Z" shape-rendering="crispEdges"/><path fill="#AD0C81" d="M1559.4,806.2L1505.2,710.4L1480.1,785.2Z" shape-rendering="crispEdges"/><path fill="#B01383" d="M1559.4,806.2L1532.4,703L1505.2,710.4Z" shape-rendering="crispEdges"/><path fill="#FDD2CE" d="M448.1,107.7L376.5,190L438.2,207.2Z" shape-rendering="crispEdges"/><path fill="#BD228A" d="M1532.4,703L1548.6,629.3L1501.1,659.2Z" shape-rendering="crispEdges"/><path fill="#C83F8F" d="M1542.2,601.4L1558.1,481.3L1491.3,526Z" shape-rendering="crispEdges"/><path fill="#EC8DB4" d="M275.2,635.9L296.2,749.6L344.8,709.4Z" shape-rendering="crispEdges"/><path fill="#C374A1" d="M334.7,885.3L410.9,973.3L446.7,884.4Z" shape-rendering="crispEdges"/><path fill="#FDCCC9" d="M286.1,286.9L301.3,332.3L347.7,250.3Z" shape-rendering="crispEdges"/><path fill="#FDC8C7" d="M347.7,250.3L301.3,332.3L344.1,353.3Z" shape-rendering="crispEdges"/><path fill="#FDB4C2" d="M292.7,428.2L264.5,493.1L347,426.4Z" shape-rendering="crispEdges"/><path fill="#D1749F" d="M1556,268.7L1464.6,214.9L1478.2,305.6Z" shape-rendering="crispEdges"/><path fill="#D576A0" d="M1478.2,305.6L1464.6,214.9L1428.1,258.1Z" shape-rendering="crispEdges"/><path fill="#DE83AC" d="M1421.6,184.6L1420.7,139.8L1326.3,196.4Z" shape-rendering="crispEdges"/><path fill="#FDB7C4" d="M236.1,411.5L264.5,493.1L292.7,428.2Z" shape-rendering="crispEdges"/><path fill="#F99EBB" d="M278.8,562.1L230.7,571.4L275.2,635.9Z" shape-rendering="crispEdges"/><path fill="#FDAEC8" d="M1047.2,-109.7L973.8,-96.7L1024.7,-43.3Z" shape-rendering="crispEdges"/><path fill="#FFB1C9" d="M1024.7,-43.3L973.8,-96.7L932.2,-47.3Z" shape-rendering="crispEdges"/><path fill="#FFBACC" d="M932.2,-47.3L868.7,-106.6L873.3,-28.8Z" shape-rendering="crispEdges"/><path fill="#FBABC7" d="M1047.2,-109.7L1024.7,-43.3L1097.8,-38.6Z" shape-rendering="crispEdges"/><path fill="#921780" d="M1157.9,1121.4L1268.5,1089.5L1196.8,1042.3Z" shape-rendering="crispEdges"/><path fill="#921680" d="M1208.9,1183.5L1268.5,1089.5L1157.9,1121.4Z" shape-rendering="crispEdges"/><path fill="#C33B8D" d="M1614.9,563.8L1558.1,481.3L1542.2,601.4Z" shape-rendering="crispEdges"/><path fill="#CA5C98" d="M1543.3,453.5L1578.6,352L1484.4,425.7Z" shape-rendering="crispEdges"/><path fill="#D982AC" d="M1480.7,116.9L1420.7,139.8L1421.6,184.6Z" shape-rendering="crispEdges"/><path fill="#F09CC2" d="M1257.5,38.1L1267.2,-37.3L1198.6,-11.6Z" shape-rendering="crispEdges"/><path fill="#9F3285" d="M965.4,1185.9L1026.3,1193L958.4,1113.1Z" shape-rendering="crispEdges"/><path fill="#D47BA5" d="M334.7,885.3L431.4,826.7L332.1,777.6Z" shape-rendering="crispEdges"/><path fill="#A46194" d="M501,1023.7L535.4,1117.4L572.4,1079.3Z" shape-rendering="crispEdges"/><path fill="#FFB7CB" d="M973.8,-96.7L868.7,-106.6L932.2,-47.3Z" shape-rendering="crispEdges"/><path fill="#A25491" d="M668,1205.4L714.2,1176L685.6,1098.8Z" shape-rendering="crispEdges"/><path fill="#A14A8D" d="M802.5,1156.1L668,1205.4L895.5,1173Z" shape-rendering="crispEdges"/><path fill="#A03E89" d="M965.4,1185.9L668,1205.4L1026.3,1193Z" shape-rendering="crispEdges"/><path fill="#A25892" d="M668,1205.4L685.6,1098.8L579.8,1202.1Z" shape-rendering="crispEdges"/><path fill="#E591B8" d="M1382.1,38.1L1309.8,25.5L1311.5,115.3Z" shape-rendering="crispEdges"/><path fill="#F9A8C7" d="M1120.9,-116.8L1047.2,-109.7L1097.8,-38.6Z" shape-rendering="crispEdges"/><path fill="#97037C" d="M1470.5,947.6L1419.1,894.1L1382.5,971.6Z" shape-rendering="crispEdges"/><path fill="#99017B" d="M1470.5,947.6L1478.4,886L1419.1,894.1Z" shape-rendering="crispEdges"/><path fill="#8F0F7D" d="M1268.5,1089.5L1350.5,1042.4L1265.4,1025.2Z" shape-rendering="crispEdges"/><path fill="#992683" d="M1026.3,1193L1130,1173.4L1105.9,1114.9Z" shape-rendering="crispEdges"/><path fill="#880C7B" d="M1268.5,1089.5L1319.1,1115L1350.5,1042.4Z" shape-rendering="crispEdges"/><path fill="#D27DA8" d="M277.6,863.6L334.7,885.3L332.1,777.6Z" shape-rendering="crispEdges"/><path fill="#B06D9C" d="M378.6,1009L462.7,1047.9L410.9,973.3Z" shape-rendering="crispEdges"/><path fill="#B36B9B" d="M410.9,973.3L462.7,1047.9L495.3,965.3Z" shape-rendering="crispEdges"/><path fill="#FFC4D0" d="M837.3,-118.9L738.3,-31.2L804.6,-14.1Z" shape-rendering="crispEdges"/><path fill="#FFD4D6" d="M678,-36.4L558.1,-37.3L603.8,63.4Z" shape-rendering="crispEdges"/><path fill="#FFBACC" d="M973.8,-96.7L837.3,-118.9L868.7,-106.6Z" shape-rendering="crispEdges"/><path fill="#FFBDCD" d="M868.7,-106.6L837.3,-118.9L873.3,-28.8Z" shape-rendering="crispEdges"/><path fill="#F7A4C5" d="M1120.9,-116.8L1097.8,-38.6L1198.6,-11.6Z" shape-rendering="crispEdges"/><path fill="#FFB4C9" d="M973.8,-96.7L1047.2,-109.7L837.3,-118.9Z" shape-rendering="crispEdges"/><path fill="#FDD1CD" d="M306.9,195.2L286.1,286.9L347.7,250.3Z" shape-rendering="crispEdges"/><path fill="#FDC0C7" d="M301.3,332.3L236.1,411.5L292.7,428.2Z" shape-rendering="crispEdges"/><path fill="#FDD2CE" d="M306.9,195.2L347.7,250.3L376.5,190Z" shape-rendering="crispEdges"/><path fill="#FDA6BD" d="M264.5,493.1L230.7,571.4L278.8,562.1Z" shape-rendering="crispEdges"/><path fill="#ED8FB6" d="M275.2,635.9L204.6,708.2L296.2,749.6Z" shape-rendering="crispEdges"/><path fill="#DE84AC" d="M296.2,749.6L266,808.6L332.1,777.6Z" shape-rendering="crispEdges"/><path fill="#FDAAC0" d="M206.9,520.1L230.7,571.4L264.5,493.1Z" shape-rendering="crispEdges"/><path fill="#A66496" d="M462.7,1047.9L535.4,1117.4L501,1023.7Z" shape-rendering="crispEdges"/><path fill="#FFD4D6" d="M606.2,-109.1L558.1,-37.3L678,-36.4Z" shape-rendering="crispEdges"/><path fill="#FDD8D4" d="M350.6,102.1L376.5,190L448.1,107.7Z" shape-rendering="crispEdges"/><path fill="#FDD7D4" d="M350.6,102.1L306.9,195.2L376.5,190Z" shape-rendering="crispEdges"/><path fill="#F79CBC" d="M230.7,571.4L229.6,634L275.2,635.9Z" shape-rendering="crispEdges"/><path fill="#E998BE" d="M1345.2,-32.9L1267.2,-37.3L1309.8,25.5Z" shape-rendering="crispEdges"/><path fill="#EC99BF" d="M1309.8,25.5L1267.2,-37.3L1257.5,38.1Z" shape-rendering="crispEdges"/><path fill="#FDC5CA" d="M196.2,364.9L236.1,411.5L301.3,332.3Z" shape-rendering="crispEdges"/><path fill="#8E0179" d="M1419.5,1045.2L1470.5,947.6L1382.5,971.6Z" shape-rendering="crispEdges"/><path fill="#A4017D" d="M1478.4,886L1559.4,806.2L1480.1,785.2Z" shape-rendering="crispEdges"/><path fill="#DE86AF" d="M189.6,789.5L266,808.6L296.2,749.6Z" shape-rendering="crispEdges"/><path fill="#BD74A2" d="M334.7,885.3L361.2,976.4L410.9,973.3Z" shape-rendering="crispEdges"/><path fill="#DB88B0" d="M1480.7,116.9L1382.1,38.1L1420.7,139.8Z" shape-rendering="crispEdges"/><path fill="#E18BB3" d="M1420.7,139.8L1382.1,38.1L1311.5,115.3Z" shape-rendering="crispEdges"/><path fill="#BE76A5" d="M285.5,962.5L361.2,976.4L334.7,885.3Z" shape-rendering="crispEdges"/><path fill="#A36596" d="M462.7,1047.9L408.4,1100L535.4,1117.4Z" shape-rendering="crispEdges"/><path fill="#C55294" d="M1625.4,427.1L1543.3,453.5L1558.1,481.3Z" shape-rendering="crispEdges"/><path fill="#C55B97" d="M1625.4,427.1L1578.6,352L1543.3,453.5Z" shape-rendering="crispEdges"/><path fill="#D77FA9" d="M1464.6,214.9L1480.7,116.9L1421.6,184.6Z" shape-rendering="crispEdges"/><path fill="#F5A1C5" d="M1207.4,-116.4L1120.9,-116.8L1198.6,-11.6Z" shape-rendering="crispEdges"/><path fill="#FEAFC8" d="M1047.2,-109.7L1120.9,-116.8L837.3,-118.9Z" shape-rendering="crispEdges"/><path fill="#99017B" d="M1572.5,899.9L1559.4,806.2L1478.4,886Z" shape-rendering="crispEdges"/><path fill="#BC2C8B" d="M1613.2,638.6L1542.2,601.4L1548.6,629.3Z" shape-rendering="crispEdges"/><path fill="#BC308B" d="M1613.2,638.6L1614.9,563.8L1542.2,601.4Z" shape-rendering="crispEdges"/><path fill="#8B0F7C" d="M1270.8,1162.4L1319.1,1115L1268.5,1089.5Z" shape-rendering="crispEdges"/><path fill="#8C067A" d="M1350.5,1042.4L1419.5,1045.2L1382.5,971.6Z" shape-rendering="crispEdges"/><path fill="#FEDAD5" d="M431.4,28.2L448.1,107.7L483.9,69.8Z" shape-rendering="crispEdges"/><path fill="#FDCACC" d="M191,299.5L196.2,364.9L301.3,332.3Z" shape-rendering="crispEdges"/><path fill="#A25A92" d="M579.8,1202.1L685.6,1098.8L572.4,1079.3Z" shape-rendering="crispEdges"/><path fill="#A1518F" d="M714.2,1176L668,1205.4L802.5,1156.1Z" shape-rendering="crispEdges"/><path fill="#972282" d="M1026.3,1193L1208.9,1183.5L1130,1173.4Z" shape-rendering="crispEdges"/><path fill="#951C81" d="M1130,1173.4L1208.9,1183.5L1157.9,1121.4Z" shape-rendering="crispEdges"/><path fill="#A56B9C" d="M408.4,1100L378.6,1009L333,1104.6Z" shape-rendering="crispEdges"/><path fill="#B5709F" d="M361.2,976.4L378.6,1009L410.9,973.3Z" shape-rendering="crispEdges"/><path fill="#FDB3C4" d="M236.1,411.5L206.9,520.1L264.5,493.1Z" shape-rendering="crispEdges"/><path fill="#F8A0BE" d="M230.7,571.4L152.1,590.6L229.6,634Z" shape-rendering="crispEdges"/><path fill="#CC6C9C" d="M1578.6,352L1556,268.7L1478.2,305.6Z" shape-rendering="crispEdges"/><path fill="#B92389" d="M1613.2,638.6L1548.6,629.3L1532.4,703Z" shape-rendering="crispEdges"/><path fill="#FFDAD8" d="M520.8,-97.6L526.1,-44.4L558.1,-37.3Z" shape-rendering="crispEdges"/><path fill="#FEDBD8" d="M558.1,-37.3L526.1,-44.4L483.9,69.8Z" shape-rendering="crispEdges"/><path fill="#D780AA" d="M266,808.6L277.6,863.6L332.1,777.6Z" shape-rendering="crispEdges"/><path fill="#FEDDD9" d="M450.7,-23.9L431.4,28.2L483.9,69.8Z" shape-rendering="crispEdges"/><path fill="#B31B87" d="M1613.2,724L1613.2,638.6L1532.4,703Z" shape-rendering="crispEdges"/><path fill="#840477" d="M1399.6,1107L1419.5,1045.2L1350.5,1042.4Z" shape-rendering="crispEdges"/><path fill="#93007A" d="M1470.5,947.6L1572.5,899.9L1478.4,886Z" shape-rendering="crispEdges"/><path fill="#B94991" d="M1683.5,441.6L1620.8,510L1722.7,494.1Z" shape-rendering="crispEdges"/><path fill="#C1428F" d="M1614.9,563.8L1620.8,510L1558.1,481.3Z" shape-rendering="crispEdges"/><path fill="#8E137E" d="M1208.9,1183.5L1270.8,1162.4L1268.5,1089.5Z" shape-rendering="crispEdges"/><path fill="#840778" d="M1319.1,1115L1399.6,1107L1350.5,1042.4Z" shape-rendering="crispEdges"/><path fill="#FDDBD7" d="M376.1,71.6L350.6,102.1L448.1,107.7Z" shape-rendering="crispEdges"/><path fill="#D27CA7" d="M1557.9,221.7L1480.7,116.9L1464.6,214.9Z" shape-rendering="crispEdges"/><path fill="#FEDCD7" d="M431.4,28.2L376.1,71.6L448.1,107.7Z" shape-rendering="crispEdges"/><path fill="#F396BA" d="M229.6,634L204.6,708.2L275.2,635.9Z" shape-rendering="crispEdges"/><path fill="#D080AB" d="M266,808.6L188.4,896.2L277.6,863.6Z" shape-rendering="crispEdges"/><path fill="#F398BD" d="M132.8,626.3L204.6,708.2L229.6,634Z" shape-rendering="crispEdges"/><path fill="#FFD2D5" d="M640.2,-124.8L606.2,-109.1L678,-36.4Z" shape-rendering="crispEdges"/><path fill="#FEDDD9" d="M526.1,-44.4L450.7,-23.9L483.9,69.8Z" shape-rendering="crispEdges"/><path fill="#FEE1DD" d="M431.4,28.2L373,-27L376.1,71.6Z" shape-rendering="crispEdges"/><path fill="#FFCFD5" d="M640.2,-124.8L678,-36.4L718.6,-94.4Z" shape-rendering="crispEdges"/><path fill="#AB1182" d="M1559.4,806.2L1613.2,724L1532.4,703Z" shape-rendering="crispEdges"/><path fill="#BA398C" d="M1714.4,574L1620.8,510L1614.9,563.8Z" shape-rendering="crispEdges"/><path fill="#A2087E" d="M1626.7,815.7L1613.2,724L1559.4,806.2Z" shape-rendering="crispEdges"/><path fill="#FFB7CB" d="M1275,-119.3L640.2,-124.8L837.3,-118.9Z" shape-rendering="crispEdges"/><path fill="#FFCAD3" d="M837.3,-118.9L640.2,-124.8L718.6,-94.4Z" shape-rendering="crispEdges"/><path fill="#C24D92" d="M1620.8,510L1625.4,427.1L1558.1,481.3Z" shape-rendering="crispEdges"/><path fill="#C7729F" d="M1638.3,265L1557.9,221.7L1556,268.7Z" shape-rendering="crispEdges"/><path fill="#BD4F93" d="M1683.5,441.6L1625.4,427.1L1620.8,510Z" shape-rendering="crispEdges"/><path fill="#C66D9C" d="M1638.3,265L1556,268.7L1578.6,352Z" shape-rendering="crispEdges"/><path fill="#CE76A1" d="M1556,268.7L1557.9,221.7L1464.6,214.9Z" shape-rendering="crispEdges"/><path fill="#E193BA" d="M1427.3,-42.3L1345.2,-32.9L1382.1,38.1Z" shape-rendering="crispEdges"/><path fill="#E594BB" d="M1382.1,38.1L1345.2,-32.9L1309.8,25.5Z" shape-rendering="crispEdges"/><path fill="#F19DC3" d="M1267.2,-37.3L1207.4,-116.4L1198.6,-11.6Z" shape-rendering="crispEdges"/><path fill="#EF9CC1" d="M1275,-119.3L1207.4,-116.4L1267.2,-37.3Z" shape-rendering="crispEdges"/><path fill="#FAA9C7" d="M1120.9,-116.8L1275,-119.3L837.3,-118.9Z" shape-rendering="crispEdges"/><path fill="#A36094" d="M517.5,1189.5L579.8,1202.1L535.4,1117.4Z" shape-rendering="crispEdges"/><path fill="#A25E94" d="M535.4,1117.4L579.8,1202.1L572.4,1079.3Z" shape-rendering="crispEdges"/><path fill="#FEDDD9" d="M520.8,-97.6L450.7,-23.9L526.1,-44.4Z" shape-rendering="crispEdges"/><path fill="#FEE0DC" d="M290.4,42.2L299,114.3L350.6,102.1Z" shape-rendering="crispEdges"/><path fill="#FDD4D0" d="M227.3,220.9L286.1,286.9L306.9,195.2Z" shape-rendering="crispEdges"/><path fill="#FDCCCC" d="M191,299.5L301.3,332.3L286.1,286.9Z" shape-rendering="crispEdges"/><path fill="#FEB5C6" d="M144.4,426.1L145.5,512.9L206.9,520.1Z" shape-rendering="crispEdges"/><path fill="#FCA6C0" d="M206.9,520.1L152.1,590.6L230.7,571.4Z" shape-rendering="crispEdges"/><path fill="#BE5896" d="M1683.5,441.6L1627.9,371.6L1625.4,427.1Z" shape-rendering="crispEdges"/><path fill="#C25F98" d="M1625.4,427.1L1627.9,371.6L1578.6,352Z" shape-rendering="crispEdges"/><path fill="#850879" d="M1326.8,1184L1399.6,1107L1319.1,1115Z" shape-rendering="crispEdges"/><path fill="#8A0179" d="M1582.8,978L1572.5,899.9L1470.5,947.6Z" shape-rendering="crispEdges"/><path fill="#A86A9A" d="M378.6,1009L408.4,1100L462.7,1047.9Z" shape-rendering="crispEdges"/><path fill="#B171A0" d="M311,1040.4L378.6,1009L361.2,976.4Z" shape-rendering="crispEdges"/><path fill="#C17BA9" d="M236.1,945L285.5,962.5L277.6,863.6Z" shape-rendering="crispEdges"/><path fill="#C57AA7" d="M277.6,863.6L285.5,962.5L334.7,885.3Z" shape-rendering="crispEdges"/><path fill="#FEE0DC" d="M290.4,42.2L350.6,102.1L376.1,71.6Z" shape-rendering="crispEdges"/><path fill="#FDDBD8" d="M350.6,102.1L299,114.3L306.9,195.2Z" shape-rendering="crispEdges"/><path fill="#860077" d="M1499.8,1036.1L1470.5,947.6L1419.5,1045.2Z" shape-rendering="crispEdges"/><path fill="#A36395" d="M456.6,1193.2L517.5,1189.5L535.4,1117.4Z" shape-rendering="crispEdges"/><path fill="#FFD8D7" d="M606.2,-109.1L520.8,-97.6L558.1,-37.3Z" shape-rendering="crispEdges"/><path fill="#FEE1DD" d="M450.7,-23.9L373,-27L431.4,28.2Z" shape-rendering="crispEdges"/><path fill="#FEDBD8" d="M446.5,-120.6L520.8,-97.6L606.2,-109.1Z" shape-rendering="crispEdges"/><path fill="#FDDAD7" d="M231.8,136.6L227.3,220.9L306.9,195.2Z" shape-rendering="crispEdges"/><path fill="#FEAAC2" d="M145.5,512.9L152.1,590.6L206.9,520.1Z" shape-rendering="crispEdges"/><path fill="#E48BB3" d="M204.6,708.2L189.6,789.5L296.2,749.6Z" shape-rendering="crispEdges"/><path fill="#E58EB5" d="M156.6,742.4L189.6,789.5L204.6,708.2Z" shape-rendering="crispEdges"/><path fill="#E394BB" d="M1427.3,-42.3L1328,-86L1345.2,-32.9Z" shape-rendering="crispEdges"/><path fill="#E898BE" d="M1345.2,-32.9L1328,-86L1267.2,-37.3Z" shape-rendering="crispEdges"/><path fill="#890D7B" d="M1270.8,1162.4L1326.8,1184L1319.1,1115Z" shape-rendering="crispEdges"/><path fill="#8D117D" d="M1208.9,1183.5L1326.8,1184L1270.8,1162.4Z" shape-rendering="crispEdges"/><path fill="#880C7A" d="M1417.3,1203.4L1326.8,1184L1208.9,1183.5Z" shape-rendering="crispEdges"/><path fill="#911680" d="M1417.3,1203.4L1208.9,1183.5L1026.3,1193Z" shape-rendering="crispEdges"/><path fill="#FDD3CF" d="M227.3,220.9L191,299.5L286.1,286.9Z" shape-rendering="crispEdges"/><path fill="#FDB9C7" d="M144.4,426.1L206.9,520.1L236.1,411.5Z" shape-rendering="crispEdges"/><path fill="#EB99BF" d="M1328,-86L1275,-119.3L1267.2,-37.3Z" shape-rendering="crispEdges"/><path fill="#F49FC4" d="M1207.4,-116.4L1275,-119.3L1120.9,-116.8Z" shape-rendering="crispEdges"/><path fill="#98007B" d="M1572.5,899.9L1626.7,815.7L1559.4,806.2Z" shape-rendering="crispEdges"/><path fill="#B52D8A" d="M1688.7,636.4L1614.9,563.8L1613.2,638.6Z" shape-rendering="crispEdges"/><path fill="#FDC3CB" d="M144.4,426.1L236.1,411.5L196.2,364.9Z" shape-rendering="crispEdges"/><path fill="#7D0075" d="M1475.3,1103L1419.5,1045.2L1399.6,1107Z" shape-rendering="crispEdges"/><path fill="#7D0075" d="M1475.3,1103L1499.8,1036.1L1419.5,1045.2Z" shape-rendering="crispEdges"/><path fill="#92007A" d="M1572.5,899.9L1644.4,853.5L1626.7,815.7Z" shape-rendering="crispEdges"/><path fill="#B074A4" d="M233.8,1036.7L311,1040.4L285.5,962.5Z" shape-rendering="crispEdges"/><path fill="#B473A3" d="M285.5,962.5L311,1040.4L361.2,976.4Z" shape-rendering="crispEdges"/><path fill="#A36696" d="M408.4,1100L456.6,1193.2L535.4,1117.4Z" shape-rendering="crispEdges"/><path fill="#FDC8CD" d="M146.2,338.2L144.4,426.1L196.2,364.9Z" shape-rendering="crispEdges"/><path fill="#EF95BB" d="M132.8,626.3L156.6,742.4L204.6,708.2Z" shape-rendering="crispEdges"/><path fill="#C67EAB" d="M188.4,896.2L236.1,945L277.6,863.6Z" shape-rendering="crispEdges"/><path fill="#F79FBF" d="M132.8,626.3L229.6,634L152.1,590.6Z" shape-rendering="crispEdges"/><path fill="#B01F88" d="M1688.7,636.4L1613.2,638.6L1613.2,724Z" shape-rendering="crispEdges"/><path fill="#C2679A" d="M1627.9,371.6L1638.3,265L1578.6,352Z" shape-rendering="crispEdges"/><path fill="#FEADC4" d="M84.8,514.4L152.1,590.6L145.5,512.9Z" shape-rendering="crispEdges"/><path fill="#FAA5C2" d="M51.3,565.2L132.8,626.3L152.1,590.6Z" shape-rendering="crispEdges"/><path fill="#CE7FAA" d="M1557.9,221.7L1566.6,107.5L1480.7,116.9Z" shape-rendering="crispEdges"/><path fill="#DC8FB7" d="M1508.5,-0.8L1427.3,-42.3L1382.1,38.1Z" shape-rendering="crispEdges"/><path fill="#BD669A" d="M1714.5,338.8L1638.3,265L1627.9,371.6Z" shape-rendering="crispEdges"/><path fill="#D583AD" d="M188.4,896.2L266,808.6L189.6,789.5Z" shape-rendering="crispEdges"/><path fill="#A81885" d="M1726.1,734L1688.7,636.4L1613.2,724Z" shape-rendering="crispEdges"/><path fill="#D889B2" d="M1512.8,31.1L1382.1,38.1L1480.7,116.9Z" shape-rendering="crispEdges"/><path fill="#E696BC" d="M1328,-86L1423.6,-117.2L1275,-119.3Z" shape-rendering="crispEdges"/><path fill="#FEE1DD" d="M446.5,-120.6L373,-27L450.7,-23.9Z" shape-rendering="crispEdges"/><path fill="#FDDCD9" d="M299,114.3L231.8,136.6L306.9,195.2Z" shape-rendering="crispEdges"/><path fill="#A3699A" d="M363.1,1192.4L456.6,1193.2L408.4,1100Z" shape-rendering="crispEdges"/><path fill="#A36295" d="M517.5,1189.5L456.6,1193.2L579.8,1202.1Z" shape-rendering="crispEdges"/><path fill="#C97DAA" d="M1617.5,116.4L1566.6,107.5L1557.9,221.7Z" shape-rendering="crispEdges"/><path fill="#7D0075" d="M1417.3,1203.4L1475.3,1103L1399.6,1107Z" shape-rendering="crispEdges"/><path fill="#890179" d="M1619.1,972.3L1644.4,853.5L1572.5,899.9Z" shape-rendering="crispEdges"/><path fill="#FDD0D0" d="M145.9,302L146.2,338.2L191,299.5Z" shape-rendering="crispEdges"/><path fill="#FDCDCF" d="M191,299.5L146.2,338.2L196.2,364.9Z" shape-rendering="crispEdges"/><path fill="#FEB7C8" d="M144.4,426.1L84.8,514.4L145.5,512.9Z" shape-rendering="crispEdges"/><path fill="#FDD6D2" d="M145.9,302L191,299.5L126.8,226.8Z" shape-rendering="crispEdges"/><path fill="#FDE1DE" d="M290.4,42.2L231.8,136.6L299,114.3Z" shape-rendering="crispEdges"/><path fill="#D185B0" d="M1566.6,107.5L1512.8,31.1L1480.7,116.9Z" shape-rendering="crispEdges"/><path fill="#840077" d="M1582.8,978L1470.5,947.6L1499.8,1036.1Z" shape-rendering="crispEdges"/><path fill="#9E097E" d="M1626.7,815.7L1696.8,781.8L1613.2,724Z" shape-rendering="crispEdges"/><path fill="#7C0076" d="M1585.2,1025.9L1582.8,978L1499.8,1036.1Z" shape-rendering="crispEdges"/><path fill="#FEE4E0" d="M299.5,1.5L290.4,42.2L376.1,71.6Z" shape-rendering="crispEdges"/><path fill="#D786B0" d="M118.9,794.2L188.4,896.2L189.6,789.5Z" shape-rendering="crispEdges"/><path fill="#A36E9F" d="M299.2,1121.7L333,1104.6L311,1040.4Z" shape-rendering="crispEdges"/><path fill="#B678A7" d="M233.8,1036.7L285.5,962.5L236.1,945Z" shape-rendering="crispEdges"/><path fill="#A96E9F" d="M311,1040.4L333,1104.6L378.6,1009Z" shape-rendering="crispEdges"/><path fill="#FDD7D3" d="M126.8,226.8L191,299.5L227.3,220.9Z" shape-rendering="crispEdges"/><path fill="#FEBDCB" d="M68.1,433.7L84.8,514.4L144.4,426.1Z" shape-rendering="crispEdges"/><path fill="#AC2B88" d="M1796.1,626.8L1714.4,574L1688.7,636.4Z" shape-rendering="crispEdges"/><path fill="#B4308A" d="M1688.7,636.4L1714.4,574L1614.9,563.8Z" shape-rendering="crispEdges"/><path fill="#D08AB4" d="M1575.6,27.5L1508.5,-0.8L1512.8,31.1Z" shape-rendering="crispEdges"/><path fill="#D88CB5" d="M1512.8,31.1L1508.5,-0.8L1382.1,38.1Z" shape-rendering="crispEdges"/><path fill="#FFD7D7" d="M640.2,-124.8L446.5,-120.6L606.2,-109.1Z" shape-rendering="crispEdges"/><path fill="#FEDEDA" d="M520.8,-97.6L446.5,-120.6L450.7,-23.9Z" shape-rendering="crispEdges"/><path fill="#FEE4E0" d="M373,-27L299.5,1.5L376.1,71.6Z" shape-rendering="crispEdges"/><path fill="#B83E8D" d="M1714.4,574L1722.7,494.1L1620.8,510Z" shape-rendering="crispEdges"/><path fill="#BE709E" d="M1708.9,261.3L1656.2,219.3L1638.3,265Z" shape-rendering="crispEdges"/><path fill="#C373A0" d="M1638.3,265L1656.2,219.3L1557.9,221.7Z" shape-rendering="crispEdges"/><path fill="#CE86B1" d="M1566.6,107.5L1575.6,27.5L1512.8,31.1Z" shape-rendering="crispEdges"/><path fill="#BB5D97" d="M1714.5,338.8L1627.9,371.6L1683.5,441.6Z" shape-rendering="crispEdges"/><path fill="#FEE5E2" d="M290.4,42.2L209.8,37.9L231.8,136.6Z" shape-rendering="crispEdges"/><path fill="#FDDCD9" d="M231.8,136.6L126.8,226.8L227.3,220.9Z" shape-rendering="crispEdges"/><path fill="#FEE6E2" d="M343.5,-85.8L299.5,1.5L373,-27Z" shape-rendering="crispEdges"/><path fill="#8F007A" d="M1709.5,868.6L1696.8,781.8L1644.4,853.5Z" shape-rendering="crispEdges"/><path fill="#95007B" d="M1644.4,853.5L1696.8,781.8L1626.7,815.7Z" shape-rendering="crispEdges"/><path fill="#B33E8C" d="M1714.4,574L1770.2,485.9L1722.7,494.1Z" shape-rendering="crispEdges"/><path fill="#FEC9CF" d="M80.5,377.7L144.4,426.1L146.2,338.2Z" shape-rendering="crispEdges"/><path fill="#E390B7" d="M35.9,747.6L118.9,794.2L156.6,742.4Z" shape-rendering="crispEdges"/><path fill="#E08CB4" d="M156.6,742.4L118.9,794.2L189.6,789.5Z" shape-rendering="crispEdges"/><path fill="#7B0076" d="M1585.2,1025.9L1619.1,972.3L1582.8,978Z" shape-rendering="crispEdges"/><path fill="#830178" d="M1582.8,978L1619.1,972.3L1572.5,899.9Z" shape-rendering="crispEdges"/><path fill="#740073" d="M1560.7,1121.9L1585.2,1025.9L1499.8,1036.1Z" shape-rendering="crispEdges"/><path fill="#F399BF" d="M87.7,651L156.6,742.4L132.8,626.3Z" shape-rendering="crispEdges"/><path fill="#820477" d="M1326.8,1184L1417.3,1203.4L1399.6,1107Z" shape-rendering="crispEdges"/><path fill="#750073" d="M1475.3,1103L1560.7,1121.9L1499.8,1036.1Z" shape-rendering="crispEdges"/><path fill="#9C2C84" d="M668,1205.4L1417.3,1203.4L1026.3,1193Z" shape-rendering="crispEdges"/><path fill="#F8A4C2" d="M51.3,565.2L87.7,651L132.8,626.3Z" shape-rendering="crispEdges"/><path fill="#C578A5" d="M1656.2,219.3L1617.5,116.4L1557.9,221.7Z" shape-rendering="crispEdges"/><path fill="#B25D96" d="M1775.4,336L1714.5,338.8L1792,415.1Z" shape-rendering="crispEdges"/><path fill="#BF79A7" d="M1656.2,219.3L1725.9,142.8L1617.5,116.4Z" shape-rendering="crispEdges"/><path fill="#B278A8" d="M159.8,1027.4L233.8,1036.7L236.1,945Z" shape-rendering="crispEdges"/><path fill="#A36B9C" d="M333,1104.6L363.1,1192.4L408.4,1100Z" shape-rendering="crispEdges"/><path fill="#C27FAD" d="M127.1,925.3L236.1,945L188.4,896.2Z" shape-rendering="crispEdges"/><path fill="#D48DB6" d="M1544,-49.2L1469.2,-72.7L1508.5,-0.8Z" shape-rendering="crispEdges"/><path fill="#D88EB7" d="M1508.5,-0.8L1469.2,-72.7L1427.3,-42.3Z" shape-rendering="crispEdges"/><path fill="#E092BA" d="M1427.3,-42.3L1423.6,-117.2L1328,-86Z" shape-rendering="crispEdges"/><path fill="#94077C" d="M1786.8,823.8L1726.1,734L1696.8,781.8Z" shape-rendering="crispEdges"/><path fill="#9F0F80" d="M1696.8,781.8L1726.1,734L1613.2,724Z" shape-rendering="crispEdges"/><path fill="#A671A1" d="M233.8,1036.7L299.2,1121.7L311,1040.4Z" shape-rendering="crispEdges"/><path fill="#DC8FB7" d="M1469.2,-72.7L1423.6,-117.2L1427.3,-42.3Z" shape-rendering="crispEdges"/><path fill="#A36D9E" d="M299.2,1121.7L363.1,1192.4L333,1104.6Z" shape-rendering="crispEdges"/><path fill="#A36798" d="M456.6,1193.2L297.7,1197.3L579.8,1202.1Z" shape-rendering="crispEdges"/><path fill="#C984B0" d="M1616.3,67L1575.6,27.5L1566.6,107.5Z" shape-rendering="crispEdges"/><path fill="#D58DB6" d="M1469.2,-72.7L1587,-99.6L1423.6,-117.2Z" shape-rendering="crispEdges"/><path fill="#FDE1DD" d="M110.4,140L126.8,226.8L231.8,136.6Z" shape-rendering="crispEdges"/><path fill="#FECFD1" d="M145.9,302L80.5,377.7L146.2,338.2Z" shape-rendering="crispEdges"/><path fill="#FED3D3" d="M47.2,267.8L80.5,377.7L145.9,302Z" shape-rendering="crispEdges"/><path fill="#FDACC4" d="M84.8,514.4L51.3,565.2L152.1,590.6Z" shape-rendering="crispEdges"/><path fill="#7A0074" d="M1417.3,1203.4L1507.9,1150.8L1475.3,1103Z" shape-rendering="crispEdges"/><path fill="#810178" d="M1697.6,949.1L1644.4,853.5L1619.1,972.3Z" shape-rendering="crispEdges"/><path fill="#BB6A9B" d="M1714.5,338.8L1708.9,261.3L1638.3,265Z" shape-rendering="crispEdges"/><path fill="#C781AE" d="M1617.5,116.4L1616.3,67L1566.6,107.5Z" shape-rendering="crispEdges"/><path fill="#FEC5CF" d="M80.5,377.7L68.1,433.7L144.4,426.1Z" shape-rendering="crispEdges"/><path fill="#FEE3DF" d="M446.5,-120.6L343.5,-85.8L373,-27Z" shape-rendering="crispEdges"/><path fill="#FEEAE6" d="M221.4,-23.7L209.8,37.9L290.4,42.2Z" shape-rendering="crispEdges"/><path fill="#C281AE" d="M1705.2,60.7L1616.3,67L1617.5,116.4Z" shape-rendering="crispEdges"/><path fill="#FFB2C8" d="M11,520.7L51.3,565.2L84.8,514.4Z" shape-rendering="crispEdges"/><path fill="#EC96BC" d="M87.7,651L35.9,747.6L156.6,742.4Z" shape-rendering="crispEdges"/><path fill="#750075" d="M1635,1038.7L1619.1,972.3L1585.2,1025.9Z" shape-rendering="crispEdges"/><path fill="#840178" d="M1697.6,949.1L1709.5,868.6L1644.4,853.5Z" shape-rendering="crispEdges"/><path fill="#AF378A" d="M1809.1,579.6L1770.2,485.9L1714.4,574Z" shape-rendering="crispEdges"/><path fill="#B44990" d="M1722.7,494.1L1770.2,485.9L1683.5,441.6Z" shape-rendering="crispEdges"/><path fill="#B76E9D" d="M1763.9,254.7L1720.7,220L1708.9,261.3Z" shape-rendering="crispEdges"/><path fill="#A31884" d="M1767,707.8L1688.7,636.4L1726.1,734Z" shape-rendering="crispEdges"/><path fill="#D188B2" d="M39.3,871.4L121.9,903.8L118.9,794.2Z" shape-rendering="crispEdges"/><path fill="#CF85B0" d="M118.9,794.2L121.9,903.8L188.4,896.2Z" shape-rendering="crispEdges"/><path fill="#A371A2" d="M233.8,1036.7L228.9,1116.9L299.2,1121.7Z" shape-rendering="crispEdges"/><path fill="#FEE9E6" d="M221.4,-23.7L290.4,42.2L299.5,1.5Z" shape-rendering="crispEdges"/><path fill="#6B0072" d="M1631.7,1103.3L1560.7,1121.9L1611.1,1201.4Z" shape-rendering="crispEdges"/><path fill="#740073" d="M1507.9,1150.8L1560.7,1121.9L1475.3,1103Z" shape-rendering="crispEdges"/><path fill="#C682AF" d="M121.9,903.8L127.1,925.3L188.4,896.2Z" shape-rendering="crispEdges"/><path fill="#CA89B5" d="M1587,-99.6L1544,-49.2L1645.3,-39Z" shape-rendering="crispEdges"/><path fill="#D08BB6" d="M1575.6,27.5L1544,-49.2L1508.5,-0.8Z" shape-rendering="crispEdges"/><path fill="#950C7D" d="M1786.8,823.8L1767,707.8L1726.1,734Z" shape-rendering="crispEdges"/><path fill="#BB709F" d="M1708.9,261.3L1720.7,220L1656.2,219.3Z" shape-rendering="crispEdges"/><path fill="#C787B3" d="M1616.3,67L1645.3,-39L1575.6,27.5Z" shape-rendering="crispEdges"/><path fill="#B7699A" d="M1763.9,254.7L1708.9,261.3L1714.5,338.8Z" shape-rendering="crispEdges"/><path fill="#6D0073" d="M1631.7,1103.3L1635,1038.7L1585.2,1025.9Z" shape-rendering="crispEdges"/><path fill="#750176" d="M1691.7,1011.1L1697.6,949.1L1619.1,972.3Z" shape-rendering="crispEdges"/><path fill="#8C0079" d="M1709.5,868.6L1786.8,823.8L1696.8,781.8Z" shape-rendering="crispEdges"/><path fill="#A474A5" d="M154.7,1114.4L228.9,1116.9L233.8,1036.7Z" shape-rendering="crispEdges"/><path fill="#A36E9F" d="M299.2,1121.7L297.7,1197.3L363.1,1192.4Z" shape-rendering="crispEdges"/><path fill="#A62086" d="M1767,707.8L1796.1,626.8L1688.7,636.4Z" shape-rendering="crispEdges"/><path fill="#9D1883" d="M1850,720.3L1796.1,626.8L1767,707.8Z" shape-rendering="crispEdges"/><path fill="#BA7DAB" d="M127.1,925.3L159.8,1027.4L236.1,945Z" shape-rendering="crispEdges"/><path fill="#B24E91" d="M1792,415.1L1683.5,441.6L1770.2,485.9Z" shape-rendering="crispEdges"/><path fill="#B55995" d="M1792,415.1L1714.5,338.8L1683.5,441.6Z" shape-rendering="crispEdges"/><path fill="#A370A1" d="M220.7,1168.6L297.7,1197.3L299.2,1121.7Z" shape-rendering="crispEdges"/><path fill="#A36B9C" d="M363.1,1192.4L297.7,1197.3L456.6,1193.2Z" shape-rendering="crispEdges"/><path fill="#A36295" d="M579.8,1202.1L297.7,1197.3L668,1205.4Z" shape-rendering="crispEdges"/><path fill="#AC4C90" d="M1876.6,442L1792,415.1L1770.2,485.9Z" shape-rendering="crispEdges"/><path fill="#FEEBE7" d="M234.6,-76.2L221.4,-23.7L299.5,1.5Z" shape-rendering="crispEdges"/><path fill="#FEE5E2" d="M209.8,37.9L110.4,140L231.8,136.6Z" shape-rendering="crispEdges"/><path fill="#C283B0" d="M121.9,903.8L36.8,956.7L127.1,925.3Z" shape-rendering="crispEdges"/><path fill="#B67EAD" d="M127.1,925.3L66.3,1014.2L159.8,1027.4Z" shape-rendering="crispEdges"/><path fill="#F09BC1" d="M-20.1,678.5L35.9,747.6L87.7,651Z" shape-rendering="crispEdges"/><path fill="#FEEAE6" d="M133.5,34.8L110.4,140L209.8,37.9Z" shape-rendering="crispEdges"/><path fill="#FED9D5" d="M126.8,226.8L47.2,267.8L145.9,302Z" shape-rendering="crispEdges"/><path fill="#FFBFCE" d="M-12.1,453.2L11,520.7L68.1,433.7Z" shape-rendering="crispEdges"/><path fill="#FEC6D0" d="M-12.1,453.2L68.1,433.7L80.5,377.7Z" shape-rendering="crispEdges"/><path fill="#FFB9CB" d="M68.1,433.7L11,520.7L84.8,514.4Z" shape-rendering="crispEdges"/><path fill="#F7A3C4" d="M51.3,565.2L-20.1,678.5L87.7,651Z" shape-rendering="crispEdges"/><path fill="#A92E88" d="M1796.1,626.8L1809.1,579.6L1714.4,574Z" shape-rendering="crispEdges"/><path fill="#B06C9C" d="M1789.6,196L1763.9,254.7L1836.4,272.6Z" shape-rendering="crispEdges"/><path fill="#B46598" d="M1775.4,336L1763.9,254.7L1714.5,338.8Z" shape-rendering="crispEdges"/><path fill="#BA74A3" d="M1720.7,220L1725.9,142.8L1656.2,219.3Z" shape-rendering="crispEdges"/><path fill="#FFB1C8" d="M11,520.7L5.6,549.5L51.3,565.2Z" shape-rendering="crispEdges"/><path fill="#FEDFDA" d="M72.3,180.9L47.2,267.8L126.8,226.8Z" shape-rendering="crispEdges"/><path fill="#FFB3C9" d="M11,520.7L-94.6,551L5.6,549.5Z" shape-rendering="crispEdges"/><path fill="#720074" d="M1635,1038.7L1691.7,1011.1L1619.1,972.3Z" shape-rendering="crispEdges"/><path fill="#830077" d="M1779.7,890.7L1786.8,823.8L1709.5,868.6Z" shape-rendering="crispEdges"/><path fill="#A73487" d="M1858.7,563L1855.4,511.4L1809.1,579.6Z" shape-rendering="crispEdges"/><path fill="#680072" d="M1722.9,1080.6L1691.7,1011.1L1635,1038.7Z" shape-rendering="crispEdges"/><path fill="#E292BA" d="M-2.4,795.4L32.1,784.4L35.9,747.6Z" shape-rendering="crispEdges"/><path fill="#E190B8" d="M35.9,747.6L32.1,784.4L118.9,794.2Z" shape-rendering="crispEdges"/><path fill="#6C0072" d="M1560.7,1121.9L1631.7,1103.3L1585.2,1025.9Z" shape-rendering="crispEdges"/><path fill="#700072" d="M1586.1,1199L1560.7,1121.9L1507.9,1150.8Z" shape-rendering="crispEdges"/><path fill="#FEE9E5" d="M343.5,-85.8L234.6,-76.2L299.5,1.5Z" shape-rendering="crispEdges"/><path fill="#FEE5E0" d="M446.5,-120.6L293.7,-121.8L343.5,-85.8Z" shape-rendering="crispEdges"/><path fill="#FEDFDA" d="M640.2,-124.8L293.7,-121.8L446.5,-120.6Z" shape-rendering="crispEdges"/><path fill="#B673A3" d="M1789.6,196L1725.9,142.8L1720.7,220Z" shape-rendering="crispEdges"/><path fill="#FEE7E3" d="M45.3,113.5L72.3,180.9L110.4,140Z" shape-rendering="crispEdges"/><path fill="#FEE2DE" d="M110.4,140L72.3,180.9L126.8,226.8Z" shape-rendering="crispEdges"/><path fill="#7D0077" d="M1779.7,890.7L1709.5,868.6L1697.6,949.1Z" shape-rendering="crispEdges"/><path fill="#FEE9E5" d="M293.7,-121.8L234.6,-76.2L343.5,-85.8Z" shape-rendering="crispEdges"/><path fill="#FEEEEA" d="M135.3,-7.8L133.5,34.8L209.8,37.9Z" shape-rendering="crispEdges"/><path fill="#FED6D6" d="M-30.5,298L80.5,377.7L47.2,267.8Z" shape-rendering="crispEdges"/><path fill="#FFCDD4" d="M-41.6,333.6L-12.1,453.2L80.5,377.7Z" shape-rendering="crispEdges"/><path fill="#FBAAC7" d="M5.6,549.5L-20.1,678.5L51.3,565.2Z" shape-rendering="crispEdges"/><path fill="#A474A5" d="M154.7,1114.4L220.7,1168.6L228.9,1116.9Z" shape-rendering="crispEdges"/><path fill="#A371A3" d="M228.9,1116.9L220.7,1168.6L299.2,1121.7Z" shape-rendering="crispEdges"/><path fill="#A876A7" d="M154.7,1114.4L233.8,1036.7L159.8,1027.4Z" shape-rendering="crispEdges"/><path fill="#DA8EB6" d="M-2.4,795.4L39.3,871.4L32.1,784.4Z" shape-rendering="crispEdges"/><path fill="#DA8CB4" d="M32.1,784.4L39.3,871.4L118.9,794.2Z" shape-rendering="crispEdges"/><path fill="#FEEEEA" d="M135.3,-7.8L209.8,37.9L221.4,-23.7Z" shape-rendering="crispEdges"/><path fill="#B87BAA" d="M1765.8,127L1705.2,60.7L1725.9,142.8Z" shape-rendering="crispEdges"/><path fill="#BD7DAC" d="M1725.9,142.8L1705.2,60.7L1617.5,116.4Z" shape-rendering="crispEdges"/><path fill="#710075" d="M1757.8,961.7L1697.6,949.1L1691.7,1011.1Z" shape-rendering="crispEdges"/><path fill="#760076" d="M1757.8,961.7L1779.7,890.7L1697.6,949.1Z" shape-rendering="crispEdges"/><path fill="#CA8AB5" d="M1645.3,-39L1544,-49.2L1575.6,27.5Z" shape-rendering="crispEdges"/><path fill="#D18CB6" d="M1544,-49.2L1587,-99.6L1469.2,-72.7Z" shape-rendering="crispEdges"/><path fill="#760073" d="M1417.3,1203.4L1586.1,1199L1507.9,1150.8Z" shape-rendering="crispEdges"/><path fill="#6A0073" d="M1759.4,1033.9L1757.8,961.7L1691.7,1011.1Z" shape-rendering="crispEdges"/><path fill="#F39FC4" d="M-37.4,706L-20.1,678.5L-71.9,649.7Z" shape-rendering="crispEdges"/><path fill="#C285B2" d="M1705.2,60.7L1645.3,-39L1616.3,67Z" shape-rendering="crispEdges"/><path fill="#650071" d="M1722.9,1080.6L1635,1038.7L1631.7,1103.3Z" shape-rendering="crispEdges"/><path fill="#A578A8" d="M55.1,1091.3L154.7,1114.4L159.8,1027.4Z" shape-rendering="crispEdges"/><path fill="#E696BD" d="M-37.4,706L-2.4,795.4L35.9,747.6Z" shape-rendering="crispEdges"/><path fill="#BB81B0" d="M36.8,956.7L66.3,1014.2L127.1,925.3Z" shape-rendering="crispEdges"/><path fill="#A22785" d="M1809.1,579.6L1796.1,626.8L1876.1,651.6Z" shape-rendering="crispEdges"/><path fill="#A22B85" d="M1858.7,563L1809.1,579.6L1876.1,651.6Z" shape-rendering="crispEdges"/><path fill="#AB3B8A" d="M1809.1,579.6L1855.4,511.4L1770.2,485.9Z" shape-rendering="crispEdges"/><path fill="#AB6096" d="M1884.1,362.4L1836.4,272.6L1775.4,336Z" shape-rendering="crispEdges"/><path fill="#B46F9F" d="M1763.9,254.7L1789.6,196L1720.7,220Z" shape-rendering="crispEdges"/><path fill="#B06798" d="M1836.4,272.6L1763.9,254.7L1775.4,336Z" shape-rendering="crispEdges"/><path fill="#C287B4" d="M1694.5,-113.6L1629.6,-91.5L1645.3,-39Z" shape-rendering="crispEdges"/><path fill="#920C7D" d="M1850,720.3L1767,707.8L1786.8,823.8Z" shape-rendering="crispEdges"/><path fill="#FEEEEA" d="M131.3,-97.4L221.4,-23.7L234.6,-76.2Z" shape-rendering="crispEdges"/><path fill="#FEEFEC" d="M131.3,-97.4L135.3,-7.8L221.4,-23.7Z" shape-rendering="crispEdges"/><path fill="#FEEBE7" d="M83.9,34.1L45.3,113.5L110.4,140Z" shape-rendering="crispEdges"/><path fill="#B476A5" d="M1789.6,196L1765.8,127L1725.9,142.8Z" shape-rendering="crispEdges"/><path fill="#820076" d="M1833.2,820.4L1786.8,823.8L1779.7,890.7Z" shape-rendering="crispEdges"/><path fill="#8A0379" d="M1833.2,820.4L1850,720.3L1786.8,823.8Z" shape-rendering="crispEdges"/><path fill="#720073" d="M1417.3,1203.4L1611.1,1201.4L1586.1,1199Z" shape-rendering="crispEdges"/><path fill="#6D0072" d="M1586.1,1199L1611.1,1201.4L1560.7,1121.9Z" shape-rendering="crispEdges"/><path fill="#F8A6C6" d="M-71.9,649.7L-20.1,678.5L5.6,549.5Z" shape-rendering="crispEdges"/><path fill="#ED9BC1" d="M-20.1,678.5L-37.4,706L35.9,747.6Z" shape-rendering="crispEdges"/><path fill="#7D0075" d="M1872.8,851.7L1833.2,820.4L1779.7,890.7Z" shape-rendering="crispEdges"/><path fill="#BE86B4" d="M1718.8,-17.8L1645.3,-39L1705.2,60.7Z" shape-rendering="crispEdges"/><path fill="#C688B5" d="M1645.3,-39L1629.6,-91.5L1587,-99.6Z" shape-rendering="crispEdges"/><path fill="#C685B2" d="M36.8,956.7L121.9,903.8L39.3,871.4Z" shape-rendering="crispEdges"/><path fill="#C988B4" d="M36.8,956.7L39.3,871.4L-7.2,867Z" shape-rendering="crispEdges"/><path fill="#D48CB6" d="M-7.2,867L39.3,871.4L-2.4,795.4Z" shape-rendering="crispEdges"/><path fill="#AC5A94" d="M1884.1,362.4L1775.4,336L1792,415.1Z" shape-rendering="crispEdges"/><path fill="#AF75A5" d="M1789.6,196L1885.2,123.5L1765.8,127Z" shape-rendering="crispEdges"/><path fill="#FEECE8" d="M83.9,34.1L110.4,140L133.5,34.8Z" shape-rendering="crispEdges"/><path fill="#FEE1DD" d="M72.3,180.9L-5,222.6L47.2,267.8Z" shape-rendering="crispEdges"/><path fill="#D28CB6" d="M-72.2,898.2L-7.2,867L-110,809.1Z" shape-rendering="crispEdges"/><path fill="#FEE6E2" d="M-24,155.3L-5,222.6L72.3,180.9Z" shape-rendering="crispEdges"/><path fill="#FCACC8" d="M-94.6,551L-71.9,649.7L5.6,549.5Z" shape-rendering="crispEdges"/><path fill="#91137E" d="M1933.1,750.3L1876.1,651.6L1850,720.3Z" shape-rendering="crispEdges"/><path fill="#9C1B83" d="M1850,720.3L1876.1,651.6L1796.1,626.8Z" shape-rendering="crispEdges"/><path fill="#A4428B" d="M1928.9,498.1L1876.6,442L1855.4,511.4Z" shape-rendering="crispEdges"/><path fill="#A9458D" d="M1855.4,511.4L1876.6,442L1770.2,485.9Z" shape-rendering="crispEdges"/><path fill="#610070" d="M1708.7,1170L1722.9,1080.6L1631.7,1103.3Z" shape-rendering="crispEdges"/><path fill="#720074" d="M1875.7,966.4L1872.8,851.7L1779.7,890.7Z" shape-rendering="crispEdges"/><path fill="#A43988" d="M1928.9,498.1L1855.4,511.4L1858.7,563Z" shape-rendering="crispEdges"/><path fill="#FFF0EC" d="M135.3,-7.8L83.9,34.1L133.5,34.8Z" shape-rendering="crispEdges"/><path fill="#FEDFDA" d="M-5,222.6L-30.5,298L47.2,267.8Z" shape-rendering="crispEdges"/><path fill="#A478A8" d="M55.1,1091.3L142.6,1150.4L154.7,1114.4Z" shape-rendering="crispEdges"/><path fill="#A475A6" d="M154.7,1114.4L142.6,1150.4L220.7,1168.6Z" shape-rendering="crispEdges"/><path fill="#A474A5" d="M220.7,1168.6L52,1172.2L297.7,1197.3Z" shape-rendering="crispEdges"/><path fill="#FFD5D6" d="M-30.5,298L-41.6,333.6L80.5,377.7Z" shape-rendering="crispEdges"/><path fill="#640071" d="M1722.9,1080.6L1759.4,1033.9L1691.7,1011.1Z" shape-rendering="crispEdges"/><path fill="#FFB5CA" d="M-94.6,551L11,520.7L-113,517.3Z" shape-rendering="crispEdges"/><path fill="#E797BD" d="M-37.4,706L-95.5,733.3L-2.4,795.4Z" shape-rendering="crispEdges"/><path fill="#B67DAC" d="M1799.1,35.2L1705.2,60.7L1765.8,127Z" shape-rendering="crispEdges"/><path fill="#B882B0" d="M1799.1,35.2L1718.8,-17.8L1705.2,60.7Z" shape-rendering="crispEdges"/><path fill="#A85392" d="M1876.6,442L1884.1,362.4L1792,415.1Z" shape-rendering="crispEdges"/><path fill="#AD6C9C" d="M1836.4,272.6L1857.4,228.8L1789.6,196Z" shape-rendering="crispEdges"/><path fill="#A45291" d="M1922.3,410.3L1884.1,362.4L1876.6,442Z" shape-rendering="crispEdges"/><path fill="#FFD5D6" d="M-94.5,299.7L-70.5,379.6L-41.6,333.6Z" shape-rendering="crispEdges"/><path fill="#FFCED4" d="M-41.6,333.6L-70.5,379.6L-12.1,453.2Z" shape-rendering="crispEdges"/><path fill="#FFD8D8" d="M-94.5,299.7L-41.6,333.6L-30.5,298Z" shape-rendering="crispEdges"/><path fill="#A76797" d="M1942.5,296.6L1857.4,228.8L1836.4,272.6Z" shape-rendering="crispEdges"/><path fill="#FBC" d="M-113,517.3L11,520.7L-12.1,453.2Z" shape-rendering="crispEdges"/><path fill="#89087A" d="M1833.2,820.4L1933.1,750.3L1850,720.3Z" shape-rendering="crispEdges"/><path fill="#A03386" d="M1945.1,583.1L1928.9,498.1L1858.7,563Z" shape-rendering="crispEdges"/><path fill="#6F0074" d="M1875.7,966.4L1779.7,890.7L1757.8,961.7Z" shape-rendering="crispEdges"/><path fill="#FEECE9" d="M293.7,-121.8L131.3,-97.4L234.6,-76.2Z" shape-rendering="crispEdges"/><path fill="#FFF3EF" d="M135.3,-7.8L48.1,-18.7L83.9,34.1Z" shape-rendering="crispEdges"/><path fill="#FEEDE9" d="M12.5,62.5L-24,155.3L45.3,113.5Z" shape-rendering="crispEdges"/><path fill="#FEE9E5" d="M45.3,113.5L-24,155.3L72.3,180.9Z" shape-rendering="crispEdges"/><path fill="#650071" d="M1611.1,1201.4L1708.7,1170L1631.7,1103.3Z" shape-rendering="crispEdges"/><path fill="#5B006F" d="M1722.9,1080.6L1778.1,1110.8L1759.4,1033.9Z" shape-rendering="crispEdges"/><path fill="#670072" d="M1759.4,1033.9L1875.7,966.4L1757.8,961.7Z" shape-rendering="crispEdges"/><path fill="#AB7EAE" d="M-38.6,1041.4L55.1,1091.3L66.3,1014.2Z" shape-rendering="crispEdges"/><path fill="#AB7BAB" d="M66.3,1014.2L55.1,1091.3L159.8,1027.4Z" shape-rendering="crispEdges"/><path fill="#B983B1" d="M-20.1,960.3L66.3,1014.2L36.8,956.7Z" shape-rendering="crispEdges"/><path fill="#C387B4" d="M-20.1,960.3L36.8,956.7L-7.2,867Z" shape-rendering="crispEdges"/><path fill="#FEEFEB" d="M12.5,62.5L45.3,113.5L83.9,34.1Z" shape-rendering="crispEdges"/><path fill="#FEDFDA" d="M-90.7,189.9L-94.5,299.7L-30.5,298Z" shape-rendering="crispEdges"/><path fill="#F09CC2" d="M-95.5,733.3L-37.4,706L-71.9,649.7Z" shape-rendering="crispEdges"/><path fill="#C789B5" d="M-72.2,898.2L-20.1,960.3L-7.2,867Z" shape-rendering="crispEdges"/><path fill="#9D2A84" d="M1945.1,583.1L1858.7,563L1876.1,651.6Z" shape-rendering="crispEdges"/><path fill="#A66095" d="M1884.1,362.4L1942.5,296.6L1836.4,272.6Z" shape-rendering="crispEdges"/><path fill="#FFF2EF" d="M48.1,-18.7L12.5,62.5L83.9,34.1Z" shape-rendering="crispEdges"/><path fill="#A2498D" d="M1928.9,498.1L1922.3,410.3L1876.6,442Z" shape-rendering="crispEdges"/><path fill="#F7A3C5" d="M-94.6,551L-95.5,733.3L-71.9,649.7Z" shape-rendering="crispEdges"/><path fill="#FFC8D2" d="M-111.3,440L-12.1,453.2L-70.5,379.6Z" shape-rendering="crispEdges"/><path fill="#FFC0CF" d="M-111.3,440L-113,517.3L-12.1,453.2Z" shape-rendering="crispEdges"/><path fill="#FAAAC7" d="M-94.6,551L-113,517.3L-95.5,733.3Z" shape-rendering="crispEdges"/><path fill="#BE86B4" d="M1718.8,-17.8L1694.5,-113.6L1645.3,-39Z" shape-rendering="crispEdges"/><path fill="#C488B5" d="M1629.6,-91.5L1694.5,-113.6L1587,-99.6Z" shape-rendering="crispEdges"/><path fill="#CC8AB6" d="M1587,-99.6L1694.5,-113.6L1423.6,-117.2Z" shape-rendering="crispEdges"/><path fill="#D38DB6" d="M1423.6,-117.2L1837,-121.4L1275,-119.3Z" shape-rendering="crispEdges"/><path fill="#B984B2" d="M1794.6,-103.9L1694.5,-113.6L1718.8,-17.8Z" shape-rendering="crispEdges"/><path fill="#AB70A0" d="M1885.2,123.5L1789.6,196L1857.4,228.8Z" shape-rendering="crispEdges"/><path fill="#B07BAB" d="M1869.4,63.2L1799.1,35.2L1765.8,127Z" shape-rendering="crispEdges"/><path fill="#FFD0D5" d="M-94.5,299.7L-111.3,440L-70.5,379.6Z" shape-rendering="crispEdges"/><path fill="#FFF2EE" d="M131.3,-97.4L48.1,-18.7L135.3,-7.8Z" shape-rendering="crispEdges"/><path fill="#5C006F" d="M1708.7,1170L1778.1,1110.8L1722.9,1080.6Z" shape-rendering="crispEdges"/><path fill="#FEE6E2" d="M-90.7,189.9L-5,222.6L-24,155.3Z" shape-rendering="crispEdges"/><path fill="#FEE1DD" d="M-90.7,189.9L-30.5,298L-5,222.6Z" shape-rendering="crispEdges"/><path fill="#FEECE9" d="M-75,152.4L-24,155.3L-100.9,76.6Z" shape-rendering="crispEdges"/><path fill="#972382" d="M1960.5,654L1945.1,583.1L1876.1,651.6Z" shape-rendering="crispEdges"/><path fill="#A25791" d="M1961.4,339.7L1884.1,362.4L1922.3,410.3Z" shape-rendering="crispEdges"/><path fill="#D98EB7" d="M-110,809.1L-7.2,867L-2.4,795.4Z" shape-rendering="crispEdges"/><path fill="#A57BAC" d="M-1.9,1128.9L52,1172.2L55.1,1091.3Z" shape-rendering="crispEdges"/><path fill="#7E0075" d="M1958.2,808.9L1933.1,750.3L1872.8,851.7Z" shape-rendering="crispEdges"/><path fill="#810075" d="M1872.8,851.7L1933.1,750.3L1833.2,820.4Z" shape-rendering="crispEdges"/><path fill="#5F0070" d="M1879.4,1027.1L1875.7,966.4L1759.4,1033.9Z" shape-rendering="crispEdges"/><path fill="#E193BA" d="M-95.5,733.3L-110,809.1L-2.4,795.4Z" shape-rendering="crispEdges"/><path fill="#F29EC3" d="M-113,517.3L-110,809.1L-95.5,733.3Z" shape-rendering="crispEdges"/><path fill="#8C107C" d="M1983.5,755L1960.5,654L1933.1,750.3Z" shape-rendering="crispEdges"/><path fill="#911680" d="M1933.1,750.3L1960.5,654L1876.1,651.6Z" shape-rendering="crispEdges"/><path fill="#A25691" d="M1961.4,339.7L1922.3,410.3L2010.9,375.8Z" shape-rendering="crispEdges"/><path fill="#58006E" d="M1875.4,1084.1L1879.4,1027.1L1759.4,1033.9Z" shape-rendering="crispEdges"/><path fill="#5B006F" d="M1708.7,1170L1758.5,1184.5L1778.1,1110.8Z" shape-rendering="crispEdges"/><path fill="#610070" d="M1611.1,1201.4L1758.5,1184.5L1708.7,1170Z" shape-rendering="crispEdges"/><path fill="#B382B1" d="M-38.6,1041.4L66.3,1014.2L-20.1,960.3Z" shape-rendering="crispEdges"/><path fill="#A479AA" d="M55.1,1091.3L52,1172.2L142.6,1150.4Z" shape-rendering="crispEdges"/><path fill="#A477A8" d="M142.6,1150.4L52,1172.2L220.7,1168.6Z" shape-rendering="crispEdges"/><path fill="#FEEFEB" d="M-100.9,76.6L-24,155.3L12.5,62.5Z" shape-rendering="crispEdges"/><path fill="#A15290" d="M1922.3,410.3L2016.5,413.3L2010.9,375.8Z" shape-rendering="crispEdges"/><path fill="#A25C93" d="M1961.4,339.7L1942.5,296.6L1884.1,362.4Z" shape-rendering="crispEdges"/><path fill="#FEE8E5" d="M-75,152.4L-90.7,189.9L-24,155.3Z" shape-rendering="crispEdges"/><path fill="#FEDED9" d="M-94.5,299.7L-100.9,76.6L-111.3,440Z" shape-rendering="crispEdges"/><path fill="#A472A3" d="M1913.2,123.2L1885.2,123.5L1951.1,176.6Z" shape-rendering="crispEdges"/><path fill="#B583B1" d="M1799.1,35.2L1806.2,-27.3L1718.8,-17.8Z" shape-rendering="crispEdges"/><path fill="#AF81B0" d="M1876.6,-9.1L1806.2,-27.3L1799.1,35.2Z" shape-rendering="crispEdges"/><path fill="#FFF7F3" d="M-30.5,-87.4L-0.9,-5.6L48.1,-18.7Z" shape-rendering="crispEdges"/><path fill="#FFF5F1" d="M48.1,-18.7L-0.9,-5.6L12.5,62.5Z" shape-rendering="crispEdges"/><path fill="#C087B4" d="M-107.8,961.1L-20.1,960.3L-72.2,898.2Z" shape-rendering="crispEdges"/><path fill="#B282B1" d="M-93.6,1028L-38.6,1041.4L-20.1,960.3Z" shape-rendering="crispEdges"/><path fill="#6F0073" d="M1875.7,966.4L1934.8,861.7L1872.8,851.7Z" shape-rendering="crispEdges"/><path fill="#660071" d="M1962.8,943.7L1934.8,861.7L1875.7,966.4Z" shape-rendering="crispEdges"/><path fill="#9F3285" d="M2006.9,579.4L1928.9,498.1L1945.1,583.1Z" shape-rendering="crispEdges"/><path fill="#A66FA0" d="M1951.1,176.6L1885.2,123.5L1857.4,228.8Z" shape-rendering="crispEdges"/><path fill="#A777A8" d="M1923,66.8L1869.4,63.2L1885.2,123.5Z" shape-rendering="crispEdges"/><path fill="#AC77A8" d="M1885.2,123.5L1869.4,63.2L1765.8,127Z" shape-rendering="crispEdges"/><path fill="#770073" d="M1934.8,861.7L1958.2,808.9L1872.8,851.7Z" shape-rendering="crispEdges"/><path fill="#A57DAD" d="M-38.6,1041.4L-1.9,1128.9L55.1,1091.3Z" shape-rendering="crispEdges"/><path fill="#56006D" d="M1875.4,1084.1L1759.4,1033.9L1778.1,1110.8Z" shape-rendering="crispEdges"/><path fill="#7B0074" d="M1998.3,858.7L2006.3,784.8L1958.2,808.9Z" shape-rendering="crispEdges"/><path fill="#A36899" d="M1951.1,176.6L1857.4,228.8L1942.5,296.6Z" shape-rendering="crispEdges"/><path fill="#B181B0" d="M1837,-121.4L1794.6,-103.9L1806.2,-27.3Z" shape-rendering="crispEdges"/><path fill="#FEF0EC" d="M293.7,-121.8L41.8,-115.9L131.3,-97.4Z" shape-rendering="crispEdges"/><path fill="#FFF3F0" d="M131.3,-97.4L41.8,-115.9L48.1,-18.7Z" shape-rendering="crispEdges"/><path fill="#FFF3EF" d="M-92.9,-4L-100.9,76.6L12.5,62.5Z" shape-rendering="crispEdges"/><path fill="#810377" d="M2006.3,784.8L1983.5,755L1958.2,808.9Z" shape-rendering="crispEdges"/><path fill="#830578" d="M1958.2,808.9L1983.5,755L1933.1,750.3Z" shape-rendering="crispEdges"/><path fill="#972382" d="M1960.5,654L1998.8,651.3L1945.1,583.1Z" shape-rendering="crispEdges"/><path fill="#91157F" d="M1983.5,755L1998.8,651.3L1960.5,654Z" shape-rendering="crispEdges"/><path fill="#9A2883" d="M1998.8,651.3L2006.9,579.4L1945.1,583.1Z" shape-rendering="crispEdges"/><path fill="#CB8AB5" d="M-110,809.1L-107.8,961.1L-72.2,898.2Z" shape-rendering="crispEdges"/><path fill="#A57DAD" d="M-38.6,1041.4L-74.5,1078.5L-1.9,1128.9Z" shape-rendering="crispEdges"/><path fill="#AC7DAD" d="M1876.6,-9.1L1799.1,35.2L1869.4,63.2Z" shape-rendering="crispEdges"/><path fill="#B583B1" d="M1806.2,-27.3L1794.6,-103.9L1718.8,-17.8Z" shape-rendering="crispEdges"/><path fill="#51006C" d="M1876.5,1177.7L1875.4,1084.1L1778.1,1110.8Z" shape-rendering="crispEdges"/><path fill="#760073" d="M1998.3,858.7L1958.2,808.9L1934.8,861.7Z" shape-rendering="crispEdges"/><path fill="#A36697" d="M1999.4,294.2L1951.1,176.6L1942.5,296.6Z" shape-rendering="crispEdges"/><path fill="#A87BAB" d="M1923,66.8L1876.6,-9.1L1869.4,63.2Z" shape-rendering="crispEdges"/><path fill="#A35F94" d="M1999.4,294.2L1942.5,296.6L1961.4,339.7Z" shape-rendering="crispEdges"/><path fill="#B884B2" d="M-107.8,961.1L-93.6,1028L-20.1,960.3Z" shape-rendering="crispEdges"/><path fill="#A14A8D" d="M2016.5,413.3L1922.3,410.3L1928.9,498.1Z" shape-rendering="crispEdges"/><path fill="#A1448B" d="M2029.1,496.6L2016.5,413.3L1928.9,498.1Z" shape-rendering="crispEdges"/><path fill="#FFF5F2" d="M-92.9,-4L12.5,62.5L-0.9,-5.6Z" shape-rendering="crispEdges"/><path fill="#FEEBE7" d="M-75,152.4L-100.9,76.6L-90.7,189.9Z" shape-rendering="crispEdges"/><path fill="#FEE6E2" d="M-90.7,189.9L-100.9,76.6L-94.5,299.7Z" shape-rendering="crispEdges"/><path fill="#A575A6" d="M1923,66.8L1885.2,123.5L1913.2,123.2Z" shape-rendering="crispEdges"/><path fill="#AB7FAF" d="M-93.6,1028L-74.5,1078.5L-38.6,1041.4Z" shape-rendering="crispEdges"/><path fill="#A57DAD" d="M-1.9,1128.9L-24.7,1170.4L52,1172.2Z" shape-rendering="crispEdges"/><path fill="#A36395" d="M2034.9,186.2L1999.4,294.2L2010.9,375.8Z" shape-rendering="crispEdges"/><path fill="#A25B93" d="M2010.9,375.8L1999.4,294.2L1961.4,339.7Z" shape-rendering="crispEdges"/><path fill="#A476A7" d="M2025.8,59.2L1923,66.8L1913.2,123.2Z" shape-rendering="crispEdges"/><path fill="#9C2E84" d="M1998.8,651.3L2029.1,496.6L2006.9,579.4Z" shape-rendering="crispEdges"/><path fill="#A03887" d="M2006.9,579.4L2029.1,496.6L1928.9,498.1Z" shape-rendering="crispEdges"/><path fill="#A25D93" d="M2016.5,413.3L2034.9,186.2L2010.9,375.8Z" shape-rendering="crispEdges"/><path fill="#961F82" d="M2006.3,784.8L2029.1,496.6L1998.8,651.3Z" shape-rendering="crispEdges"/><path fill="#5D006F" d="M1962.8,943.7L1875.7,966.4L1947.3,1013.8Z" shape-rendering="crispEdges"/><path fill="#8A0E7B" d="M1983.5,755L2006.3,784.8L1998.8,651.3Z" shape-rendering="crispEdges"/><path fill="#A47AAA" d="M1951,-1.7L1923,66.8L2025.8,59.2Z" shape-rendering="crispEdges"/><path fill="#A57DAD" d="M-82.6,1152.4L-24.7,1170.4L-1.9,1128.9Z" shape-rendering="crispEdges"/><path fill="#A478A9" d="M52,1172.2L-24.7,1170.4L297.7,1197.3Z" shape-rendering="crispEdges"/><path fill="#59006E" d="M1947.3,1013.8L1875.7,966.4L1879.4,1027.1Z" shape-rendering="crispEdges"/><path fill="#6E0072" d="M1987,926.6L1998.3,858.7L1934.8,861.7Z" shape-rendering="crispEdges"/><path fill="#FFF6F2" d="M41.8,-115.9L-30.5,-87.4L48.1,-18.7Z" shape-rendering="crispEdges"/><path fill="#51006C" d="M1912.6,1089.5L1947.3,1013.8L1879.4,1027.1Z" shape-rendering="crispEdges"/><path fill="#690071" d="M1962.8,943.7L1987,926.6L1934.8,861.7Z" shape-rendering="crispEdges"/><path fill="#4B006A" d="M1927.2,1157.4L1912.6,1089.5L1875.4,1084.1Z" shape-rendering="crispEdges"/><path fill="#4F006B" d="M1875.4,1084.1L1912.6,1089.5L1879.4,1027.1Z" shape-rendering="crispEdges"/><path fill="#5D006F" d="M2011,1043.6L1987,926.6L1962.8,943.7Z" shape-rendering="crispEdges"/><path fill="#A97EAE" d="M1934.1,-117L1837,-121.4L1876.6,-9.1Z" shape-rendering="crispEdges"/><path fill="#AE80B0" d="M1876.6,-9.1L1837,-121.4L1806.2,-27.3Z" shape-rendering="crispEdges"/><path fill="#B583B1" d="M1794.6,-103.9L1837,-121.4L1694.5,-113.6Z" shape-rendering="crispEdges"/><path fill="#C287B4" d="M1694.5,-113.6L1837,-121.4L1423.6,-117.2Z" shape-rendering="crispEdges"/><path fill="#EF9CC1" d="M1275,-119.3L1837,-121.4L640.2,-124.8Z" shape-rendering="crispEdges"/><path fill="#FFF7F3" d="M-30.5,-87.4L-92.9,-4L-0.9,-5.6Z" shape-rendering="crispEdges"/><path fill="#4F006B" d="M1912.6,1089.5L2011,1043.6L1947.3,1013.8Z" shape-rendering="crispEdges"/><path fill="#58006E" d="M1947.3,1013.8L2011,1043.6L1962.8,943.7Z" shape-rendering="crispEdges"/><path fill="#55006D" d="M1758.5,1184.5L1876.5,1177.7L1778.1,1110.8Z" shape-rendering="crispEdges"/><path fill="#4E006B" d="M1994.9,1180L1876.5,1177.7L1758.5,1184.5Z" shape-rendering="crispEdges"/><path fill="#A57DAD" d="M-93.6,1028L-82.6,1152.4L-74.5,1078.5Z" shape-rendering="crispEdges"/><path fill="#A57DAD" d="M-74.5,1078.5L-82.6,1152.4L-1.9,1128.9Z" shape-rendering="crispEdges"/><path fill="#AB7FAF" d="M-107.8,961.1L-82.6,1152.4L-93.6,1028Z" shape-rendering="crispEdges"/><path fill="#A371A2" d="M2030.1,150.1L1913.2,123.2L1951.1,176.6Z" shape-rendering="crispEdges"/><path fill="#A57CAC" d="M1923,66.8L1951,-1.7L1876.6,-9.1Z" shape-rendering="crispEdges"/><path fill="#A25791" d="M2029.1,496.6L2034.9,186.2L2016.5,413.3Z" shape-rendering="crispEdges"/><path fill="#A36A9B" d="M1999.4,294.2L2034.9,186.2L1951.1,176.6Z" shape-rendering="crispEdges"/><path fill="#FFF7F3" d="M41.8,-115.9L-96.4,-75.8L-30.5,-87.4Z" shape-rendering="crispEdges"/><path fill="#FFF7F3" d="M-30.5,-87.4L-96.4,-75.8L-92.9,-4Z" shape-rendering="crispEdges"/><path fill="#FFF7F3" d="M-92.9,-4L-96.4,-75.8L-100.9,76.6Z" shape-rendering="crispEdges"/><path fill="#4C006B" d="M1876.5,1177.7L1927.2,1157.4L1875.4,1084.1Z" shape-rendering="crispEdges"/><path fill="#A36E9F" d="M2034.9,186.2L2030.1,150.1L1951.1,176.6Z" shape-rendering="crispEdges"/><path fill="#49006A" d="M1990.2,1123.6L2011,1043.6L1912.6,1089.5Z" shape-rendering="crispEdges"/><path fill="#620071" d="M1987,926.6L2011,1043.6L1998.3,858.7Z" shape-rendering="crispEdges"/><path fill="#6C0072" d="M1998.3,858.7L2011,1043.6L2006.3,784.8Z" shape-rendering="crispEdges"/><path fill="#820577" d="M2006.3,784.8L2011,1043.6L2029.1,496.6Z" shape-rendering="crispEdges"/><path fill="#A372A3" d="M2034.9,186.2L2025.8,59.2L2030.1,150.1Z" shape-rendering="crispEdges"/><path fill="#A474A5" d="M2030.1,150.1L2025.8,59.2L1913.2,123.2Z" shape-rendering="crispEdges"/><path fill="#A57DAD" d="M1951,-1.7L1934.1,-117L1876.6,-9.1Z" shape-rendering="crispEdges"/><path fill="#A57DAD" d="M1996.4,-27L1934.1,-117L1951,-1.7Z" shape-rendering="crispEdges"/><path fill="#49006A" d="M1927.2,1157.4L1990.2,1123.6L1912.6,1089.5Z" shape-rendering="crispEdges"/><path fill="#A57CAD" d="M2025.8,59.2L1996.4,-27L1951,-1.7Z" shape-rendering="crispEdges"/><path fill="#49006A" d="M1876.5,1177.7L1994.9,1180L1927.2,1157.4Z" shape-rendering="crispEdges"/><path fill="#49006A" d="M1927.2,1157.4L1994.9,1180L1990.2,1123.6Z" shape-rendering="crispEdges"/><path fill="#49006A" d="M1990.2,1123.6L1994.9,1180L2011,1043.6Z" shape-rendering="crispEdges"/><path fill="#57006E" d="M1611.1,1201.4L1994.9,1180L1758.5,1184.5Z" shape-rendering="crispEdges"/><path fill="#A57DAD" d="M2025.8,59.2L2000.3,-96.8L1996.4,-27Z" shape-rendering="crispEdges"/><path fill="#A57DAD" d="M1996.4,-27L2000.3,-96.8L1934.1,-117Z" shape-rendering="crispEdges"/></svg>