<svg xmlns="http://www.w3.org/2000/svg" width="1920" height="1080"><path fill="#EEB485" d="M1074.7,326.3L1159,27.1L604.9,191.2Z" shape-rendering="crispEdges"/><path fill="#C89062" d="M1159,27.1L616.3,-137.2L604.9,191.2Z" shape-rendering="crispEdges"/><path fill="#FABC75" d="M321,391.9L563.3,640L604.9,191.2Z" shape-rendering="crispEdges"/><path fill="#FFD5A0" d="M604.9,191.2L563.3,640L1074.7,326.3Z" shape-rendering="crispEdges"/><path fill="#C3680C" d="M141.9,-296.3L321,391.9L604.9,191.2Z" shape-rendering="crispEdges"/><path fill="#955F60" d="M1750.7,207.8L1565.4,-169L1159,27.1Z" shape-rendering="crispEdges"/><path fill="#C0937A" d="M1159,27.1L1168.9,-580.3L616.3,-137.2Z" shape-rendering="crispEdges"/><path fill="#A6776E" d="M1565.4,-169L1168.9,-580.3L1159,27.1Z" shape-rendering="crispEdges"/><path fill="#F2BE93" d="M321,391.9L448,734.4L563.3,640Z" shape-rendering="crispEdges"/><path fill="#EBE9EC" d="M563.3,640L1136.6,918.7L1074.7,326.3Z" shape-rendering="crispEdges"/><path fill="#C2916E" d="M1168.9,-580.3L859.3,-706.7L616.3,-137.2Z" shape-rendering="crispEdges"/><path fill="#B4671E" d="M616.3,-137.2L141.9,-296.3L604.9,191.2Z" shape-rendering="crispEdges"/><path fill="#A4540B" d="M120.9,-457.4L141.9,-296.3L616.3,-137.2Z" shape-rendering="crispEdges"/><path fill="#8F759E" d="M1113.8,1065.9L1136.6,918.7L711.7,1247.3Z" shape-rendering="crispEdges"/><path fill="#D09279" d="M1074.7,326.3L1750.7,207.8L1159,27.1Z" shape-rendering="crispEdges"/><path fill="#C3AAB2" d="M1727.9,748.4L1750.7,207.8L1074.7,326.3Z" shape-rendering="crispEdges"/><path fill="#BA722D" d="M859.3,-706.7L120.9,-457.4L616.3,-137.2Z" shape-rendering="crispEdges"/><path fill="#B390AD" d="M711.7,1247.3L1136.6,918.7L563.3,640Z" shape-rendering="crispEdges"/><path fill="#C5C2DF" d="M1136.6,918.7L1727.9,748.4L1074.7,326.3Z" shape-rendering="crispEdges"/><path fill="#B7671A" d="M-136.3,-129.4L-85.1,472.9L321,391.9Z" shape-rendering="crispEdges"/><path fill="#E3A980" d="M321,391.9L-85.1,472.9L448,734.4Z" shape-rendering="crispEdges"/><path fill="#C99283" d="M448,734.4L478.2,1114.2L563.3,640Z" shape-rendering="crispEdges"/><path fill="#8D4308" d="M-136.3,-129.4L321,391.9L141.9,-296.3Z" shape-rendering="crispEdges"/><path fill="#853E08" d="M120.9,-457.4L-136.3,-129.4L141.9,-296.3Z" shape-rendering="crispEdges"/><path fill="#946162" d="M1565.4,-169L1636.3,-625.1L1168.9,-580.3Z" shape-rendering="crispEdges"/><path fill="#AD7F72" d="M1168.9,-580.3L1636.3,-625.1L859.3,-706.7Z" shape-rendering="crispEdges"/><path fill="#75304D" d="M1965.8,-418L1636.3,-625.1L1565.4,-169Z" shape-rendering="crispEdges"/><path fill="#9280B8" d="M1113.8,1065.9L1727.9,748.4L1136.6,918.7Z" shape-rendering="crispEdges"/><path fill="#A55E5F" d="M-145.6,862.6L478.2,1114.2L448,734.4Z" shape-rendering="crispEdges"/><path fill="#A96875" d="M478.2,1114.2L711.7,1247.3L563.3,640Z" shape-rendering="crispEdges"/><path fill="#A7570C" d="M859.3,-706.7L-19.5,-614L120.9,-457.4Z" shape-rendering="crispEdges"/><path fill="#7F3B08" d="M120.9,-457.4L-19.5,-614L-136.3,-129.4Z" shape-rendering="crispEdges"/><path fill="#5F1E33" d="M2167,-71.8L1965.8,-418L1565.4,-169Z" shape-rendering="crispEdges"/><path fill="#68253D" d="M2167,-71.8L1565.4,-169L1750.7,207.8Z" shape-rendering="crispEdges"/><path fill="#5A3E7D" d="M2151.3,1050.4L1915.2,745L1727.9,748.4Z" shape-rendering="crispEdges"/><path fill="#9B80B1" d="M1727.9,748.4L1915.2,745L1750.7,207.8Z" shape-rendering="crispEdges"/><path fill="#583B7D" d="M1785,1391.4L1727.9,748.4L1113.8,1065.9Z" shape-rendering="crispEdges"/><path fill="#96626F" d="M1915.2,745L2101.1,182.5L1750.7,207.8Z" shape-rendering="crispEdges"/><path fill="#7B3B51" d="M-424.6,1027.1L-145.6,862.6L-521,927.7Z" shape-rendering="crispEdges"/><path fill="#B88574" d="M-85.1,472.9L-145.6,862.6L448,734.4Z" shape-rendering="crispEdges"/><path fill="#965F69" d="M478.2,1114.2L743.2,1677.8L711.7,1247.3Z" shape-rendering="crispEdges"/><path fill="#752935" d="M2101.1,182.5L2167,-71.8L1750.7,207.8Z" shape-rendering="crispEdges"/><path fill="#7F3B08" d="M-465.9,-691.7L-572,-230.9L-136.3,-129.4Z" shape-rendering="crispEdges"/><path fill="#A9580C" d="M-136.3,-129.4L-651.1,223.1L-85.1,472.9Z" shape-rendering="crispEdges"/><path fill="#7E3339" d="M2579.5,355L2167,-71.8L2101.1,182.5Z" shape-rendering="crispEdges"/><path fill="#5F1E31" d="M2579.5,355L2350.4,-251.6L2167,-71.8Z" shape-rendering="crispEdges"/><path fill="#5C1C30" d="M2167,-71.8L2350.4,-251.6L1965.8,-418Z" shape-rendering="crispEdges"/><path fill="#5C1C30" d="M1965.8,-418L2675.8,-644.4L1636.3,-625.1Z" shape-rendering="crispEdges"/><path fill="#7F3B08" d="M-572,-230.9L-651.1,223.1L-136.3,-129.4Z" shape-rendering="crispEdges"/><path fill="#71568D" d="M1082.1,1729.4L1785,1391.4L1113.8,1065.9Z" shape-rendering="crispEdges"/><path fill="#956A7F" d="M1915.2,745L2579.5,355L2101.1,182.5Z" shape-rendering="crispEdges"/><path fill="#7F3B08" d="M-19.5,-614L-465.9,-691.7L-136.3,-129.4Z" shape-rendering="crispEdges"/><path fill="#904408" d="M859.3,-706.7L-465.9,-691.7L-19.5,-614Z" shape-rendering="crispEdges"/><path fill="#8C4344" d="M32.6,1569L743.2,1677.8L478.2,1114.2Z" shape-rendering="crispEdges"/><path fill="#90759E" d="M711.7,1247.3L1082.1,1729.4L1113.8,1065.9Z" shape-rendering="crispEdges"/><path fill="#330554" d="M1785,1391.4L2151.3,1050.4L1727.9,748.4Z" shape-rendering="crispEdges"/><path fill="#A2726B" d="M-521,927.7L-145.6,862.6L-85.1,472.9Z" shape-rendering="crispEdges"/><path fill="#611F33" d="M-145.6,862.6L-253.6,1240.6L478.2,1114.2Z" shape-rendering="crispEdges"/><path fill="#642339" d="M-424.6,1027.1L-253.6,1240.6L-145.6,862.6Z" shape-rendering="crispEdges"/><path fill="#C2957B" d="M-651.1,223.1L-521,927.7L-85.1,472.9Z" shape-rendering="crispEdges"/><path fill="#5C1C30" d="M-424.6,1027.1L-773.6,1513.2L-253.6,1240.6Z" shape-rendering="crispEdges"/><path fill="#93708C" d="M743.2,1677.8L1082.1,1729.4L711.7,1247.3Z" shape-rendering="crispEdges"/><path fill="#672233" d="M-253.6,1240.6L32.6,1569L478.2,1114.2Z" shape-rendering="crispEdges"/><path fill="#806797" d="M2459.3,871.7L2579.5,355L1915.2,745Z" shape-rendering="crispEdges"/><path fill="#2D004B" d="M2441.9,1320.6L2459.3,871.7L2151.3,1050.4Z" shape-rendering="crispEdges"/><path fill="#523276" d="M2151.3,1050.4L2459.3,871.7L1915.2,745Z" shape-rendering="crispEdges"/><path fill="#5C1C30" d="M-773.6,1513.2L112.7,1743.1L32.6,1569Z" shape-rendering="crispEdges"/><path fill="#81353A" d="M32.6,1569L112.7,1743.1L743.2,1677.8Z" shape-rendering="crispEdges"/><path fill="#965F69" d="M743.2,1677.8L112.7,1743.1L1082.1,1729.4Z" shape-rendering="crispEdges"/><path fill="#5C1C30" d="M-773.6,1513.2L32.6,1569L-253.6,1240.6Z" shape-rendering="crispEdges"/><path fill="#583C7B" d="M1082.1,1729.4L1704.6,1797L1785,1391.4Z" shape-rendering="crispEdges"/><path fill="#2D004B" d="M1785,1391.4L2441.9,1320.6L2151.3,1050.4Z" shape-rendering="crispEdges"/><path fill="#90769E" d="M112.7,1743.1L1704.6,1797L1082.1,1729.4Z" shape-rendering="crispEdges"/><path fill="#5C1C30" d="M2579.5,355L2675.8,-644.4L2350.4,-251.6Z" shape-rendering="crispEdges"/><path fill="#5C1C30" d="M2350.4,-251.6L2675.8,-644.4L1965.8,-418Z" shape-rendering="crispEdges"/><path fill="#75304C" d="M1636.3,-625.1L2675.8,-644.4L859.3,-706.7Z" shape-rendering="crispEdges"/><path fill="#2D004B" d="M2164.1,1755L2441.9,1320.6L1785,1391.4Z" shape-rendering="crispEdges"/><path fill="#502E74" d="M2459.3,871.7L2662.3,1470.4L2579.5,355Z" shape-rendering="crispEdges"/><path fill="#300350" d="M1704.6,1797L2164.1,1755L1785,1391.4Z" shape-rendering="crispEdges"/><path fill="#854E58" d="M-651.1,223.1L-773.6,1513.2L-521,927.7Z" shape-rendering="crispEdges"/><path fill="#5C1C30" d="M-521,927.7L-773.6,1513.2L-424.6,1027.1Z" shape-rendering="crispEdges"/><path fill="#2D004B" d="M2164.1,1755L2662.3,1470.4L2441.9,1320.6Z" shape-rendering="crispEdges"/><path fill="#2D004B" d="M2441.9,1320.6L2662.3,1470.4L2459.3,871.7Z" shape-rendering="crispEdges"/><path fill="#966474" d="M2579.5,355L2662.3,1470.4L2675.8,-644.4Z" shape-rendering="crispEdges"/></svg>