<svg xmlns="http://www.w3.org/2000/svg" width="1920" height="1080"><path fill="#F3EEF3" d="M993.6,593.1L968.4,435.8L778.8,496.6Z" shape-rendering="crispEdges"/><path fill="#EFEAEF" d="M778.8,496.6L709.2,589L993.6,593.1Z" shape-rendering="crispEdges"/><path fill="#EEF1EC" d="M993.6,593.1L1205.4,515.1L968.4,435.8Z" shape-rendering="crispEdges"/><path fill="#DED6E0" d="M1205.4,515.1L959.8,151L968.4,435.8Z" shape-rendering="crispEdges"/><path fill="#E1D0E5" d="M968.4,435.8L959.8,151L778.8,496.6Z" shape-rendering="crispEdges"/><path fill="#E2D6E6" d="M778.8,496.6L454.4,558L709.2,589Z" shape-rendering="crispEdges"/><path fill="#DDECD9" d="M709.2,589L1060.4,892L993.6,593.1Z" shape-rendering="crispEdges"/><path fill="#E1F1DD" d="M993.6,593.1L1321.8,610.3L1205.4,515.1Z" shape-rendering="crispEdges"/><path fill="#CFECC9" d="M1060.4,892L1321.8,610.3L993.6,593.1Z" shape-rendering="crispEdges"/><path fill="#BDB4C2" d="M1205.4,515.1L1317.4,43.8L959.8,151Z" shape-rendering="crispEdges"/><path fill="#D0B6D8" d="M689,51.3L454.4,558L778.8,496.6Z" shape-rendering="crispEdges"/><path fill="#B0CEAE" d="M709.2,589L742,1027.1L1060.4,892Z" shape-rendering="crispEdges"/><path fill="#C5A9CE" d="M959.8,151L689,51.3L778.8,496.6Z" shape-rendering="crispEdges"/><path fill="#9AB19D" d="M352.8,938.7L742,1027.1L709.2,589Z" shape-rendering="crispEdges"/><path fill="#D2E7CE" d="M1321.8,610.3L1417.5,429.6L1205.4,515.1Z" shape-rendering="crispEdges"/><path fill="#A384A5" d="M1317.4,43.8L916.8,-24.2L959.8,151Z" shape-rendering="crispEdges"/><path fill="#A67DAA" d="M959.8,151L916.8,-24.2L689,51.3Z" shape-rendering="crispEdges"/><path fill="#B796C3" d="M347.4,121.7L336.4,469.1L454.4,558Z" shape-rendering="crispEdges"/><path fill="#BDBCC0" d="M454.4,558L352.8,938.7L709.2,589Z" shape-rendering="crispEdges"/><path fill="#7EA981" d="M1022.9,1111.2L1156,1039.6L1060.4,892Z" shape-rendering="crispEdges"/><path fill="#B2E0AC" d="M1060.4,892L1442,732.3L1321.8,610.3Z" shape-rendering="crispEdges"/><path fill="#BFE2BA" d="M1321.8,610.3L1442,732.3L1417.5,429.6Z" shape-rendering="crispEdges"/><path fill="#8CC58B" d="M1156,1039.6L1442,732.3L1060.4,892Z" shape-rendering="crispEdges"/><path fill="#88AB8C" d="M742,1027.1L1022.9,1111.2L1060.4,892Z" shape-rendering="crispEdges"/><path fill="#BCC3BD" d="M1417.5,429.6L1317.4,43.8L1205.4,515.1Z" shape-rendering="crispEdges"/><path fill="#A87EB6" d="M347.4,121.7L225.3,413.6L336.4,469.1Z" shape-rendering="crispEdges"/><path fill="#A19BA2" d="M144,741.5L352.8,938.7L454.4,558Z" shape-rendering="crispEdges"/><path fill="#BCA4C1" d="M144,741.5L454.4,558L336.4,469.1Z" shape-rendering="crispEdges"/><path fill="#798E7C" d="M742,1027.1L690.6,1184.6L1022.9,1111.2Z" shape-rendering="crispEdges"/><path fill="#7C4D87" d="M515.1,-148.7L347.4,121.7L689,51.3Z" shape-rendering="crispEdges"/><path fill="#AA86BA" d="M689,51.3L347.4,121.7L454.4,558Z" shape-rendering="crispEdges"/><path fill="#697771" d="M357.7,1141.5L690.6,1184.6L742,1027.1Z" shape-rendering="crispEdges"/><path fill="#706A6F" d="M1578.3,-42.1L1284.8,-108.7L1317.4,43.8Z" shape-rendering="crispEdges"/><path fill="#8B768B" d="M1317.4,43.8L1284.8,-108.7L916.8,-24.2Z" shape-rendering="crispEdges"/><path fill="#94AD98" d="M1730.3,461.5L1557.4,175.1L1417.5,429.6Z" shape-rendering="crispEdges"/><path fill="#949D99" d="M1417.5,429.6L1557.4,175.1L1317.4,43.8Z" shape-rendering="crispEdges"/><path fill="#8F6594" d="M916.8,-24.2L587.6,-175.1L689,51.3Z" shape-rendering="crispEdges"/><path fill="#8E6594" d="M685.7,-322L587.6,-175.1L916.8,-24.2Z" shape-rendering="crispEdges"/><path fill="#82568C" d="M587.6,-175.1L515.1,-148.7L689,51.3Z" shape-rendering="crispEdges"/><path fill="#BC97C1" d="M225.3,413.6L144,741.5L336.4,469.1Z" shape-rendering="crispEdges"/><path fill="#6EB670" d="M1156,1039.6L1596.8,918.2L1442,732.3Z" shape-rendering="crispEdges"/><path fill="#ACD4AB" d="M1442,732.3L1730.3,461.5L1417.5,429.6Z" shape-rendering="crispEdges"/><path fill="#509056" d="M1449.2,1169.8L1596.8,918.2L1156,1039.6Z" shape-rendering="crispEdges"/><path fill="#5E6264" d="M122.7,893L357.7,1141.5L352.8,938.7Z" shape-rendering="crispEdges"/><path fill="#66746F" d="M352.8,938.7L357.7,1141.5L742,1027.1Z" shape-rendering="crispEdges"/><path fill="#78987B" d="M926.9,1348.8L1151.6,1304.4L1022.9,1111.2Z" shape-rendering="crispEdges"/><path fill="#729774" d="M1022.9,1111.2L1151.6,1304.4L1156,1039.6Z" shape-rendering="crispEdges"/><path fill="#7B937F" d="M926.9,1348.8L1022.9,1111.2L690.6,1184.6Z" shape-rendering="crispEdges"/><path fill="#76897A" d="M661,1444.4L926.9,1348.8L690.6,1184.6Z" shape-rendering="crispEdges"/><path fill="#8EBE90" d="M1825.4,630.7L1730.3,461.5L1442,732.3Z" shape-rendering="crispEdges"/><path fill="#629165" d="M1151.6,1304.4L1449.2,1169.8L1156,1039.6Z" shape-rendering="crispEdges"/><path fill="#787578" d="M144,741.5L122.7,893L352.8,938.7Z" shape-rendering="crispEdges"/><path fill="#935EA1" d="M347.4,121.7L86.5,241.9L225.3,413.6Z" shape-rendering="crispEdges"/><path fill="#A783AA" d="M225.3,413.6L-104.5,495.7L144,741.5Z" shape-rendering="crispEdges"/><path fill="#776F75" d="M144,741.5L-149.6,706.1L122.7,893Z" shape-rendering="crispEdges"/><path fill="#72297F" d="M173,-97.2L86.5,241.9L347.4,121.7Z" shape-rendering="crispEdges"/><path fill="#7B8F82" d="M1730.3,461.5L1690.2,195.8L1557.4,175.1Z" shape-rendering="crispEdges"/><path fill="#716D70" d="M1557.4,175.1L1578.3,-42.1L1317.4,43.8Z" shape-rendering="crispEdges"/><path fill="#97729A" d="M1016.3,-342.8L685.7,-322L916.8,-24.2Z" shape-rendering="crispEdges"/><path fill="#794A84" d="M587.6,-175.1L413.4,-391.8L515.1,-148.7Z" shape-rendering="crispEdges"/><path fill="#693476" d="M515.1,-148.7L173,-97.2L347.4,121.7Z" shape-rendering="crispEdges"/><path fill="#937894" d="M1284.8,-108.7L1016.3,-342.8L916.8,-24.2Z" shape-rendering="crispEdges"/><path fill="#8E778E" d="M1137,-415.8L1016.3,-342.8L1284.8,-108.7Z" shape-rendering="crispEdges"/><path fill="#6B696D" d="M1690.2,195.8L1578.3,-42.1L1557.4,175.1Z" shape-rendering="crispEdges"/><path fill="#609F65" d="M1950.2,711.7L1825.4,630.7L1596.8,918.2Z" shape-rendering="crispEdges"/><path fill="#73B775" d="M1596.8,918.2L1825.4,630.7L1442,732.3Z" shape-rendering="crispEdges"/><path fill="#534F59" d="M2072.4,200.6L1771.7,-7.4L1690.2,195.8Z" shape-rendering="crispEdges"/><path fill="#6C7B73" d="M536.2,1436.1L661,1444.4L690.6,1184.6Z" shape-rendering="crispEdges"/><path fill="#719773" d="M926.9,1348.8L1285,1501.9L1151.6,1304.4Z" shape-rendering="crispEdges"/><path fill="#6A3878" d="M413.4,-391.8L173,-97.2L515.1,-148.7Z" shape-rendering="crispEdges"/><path fill="#2C7A3C" d="M1449.2,1169.8L1716,1032.3L1596.8,918.2Z" shape-rendering="crispEdges"/><path fill="#7D717B" d="M1493.6,-359.5L1137,-415.8L1284.8,-108.7Z" shape-rendering="crispEdges"/><path fill="#9A789D" d="M1016.3,-342.8L1137,-415.8L685.7,-322Z" shape-rendering="crispEdges"/><path fill="#55595E" d="M196.2,1435.2L536.2,1436.1L357.7,1141.5Z" shape-rendering="crispEdges"/><path fill="#636F6C" d="M357.7,1141.5L536.2,1436.1L690.6,1184.6Z" shape-rendering="crispEdges"/><path fill="#764782" d="M-65.5,69.1L-104.5,495.7L86.5,241.9Z" shape-rendering="crispEdges"/><path fill="#94679C" d="M86.5,241.9L-104.5,495.7L225.3,413.6Z" shape-rendering="crispEdges"/><path fill="#697972" d="M2072.4,200.6L1690.2,195.8L1730.3,461.5Z" shape-rendering="crispEdges"/><path fill="#535355" d="M1690.2,195.8L1771.7,-7.4L1578.3,-42.1Z" shape-rendering="crispEdges"/><path fill="#676466" d="M1578.3,-42.1L1493.6,-359.5L1284.8,-108.7Z" shape-rendering="crispEdges"/><path fill="#7F5289" d="M685.7,-322L413.4,-391.8L587.6,-175.1Z" shape-rendering="crispEdges"/><path fill="#906795" d="M1137,-415.8L413.4,-391.8L685.7,-322Z" shape-rendering="crispEdges"/><path fill="#5C8F5F" d="M1151.6,1304.4L1285,1501.9L1449.2,1169.8Z" shape-rendering="crispEdges"/><path fill="#1D6831" d="M1449.2,1169.8L1777.1,1299.1L1716,1032.3Z" shape-rendering="crispEdges"/><path fill="#7D9A81" d="M661,1444.4L1285,1501.9L926.9,1348.8Z" shape-rendering="crispEdges"/><path fill="#738478" d="M196.2,1435.2L1285,1501.9L661,1444.4Z" shape-rendering="crispEdges"/><path fill="#8E778D" d="M-104.5,495.7L-149.6,706.1L144,741.5Z" shape-rendering="crispEdges"/><path fill="#4A404F" d="M122.7,893L123.3,1269.6L357.7,1141.5Z" shape-rendering="crispEdges"/><path fill="#5A1566" d="M173,-97.2L-65.5,69.1L86.5,241.9Z" shape-rendering="crispEdges"/><path fill="#97799A" d="M-104.5,495.7L-270.8,493.3L-149.6,706.1Z" shape-rendering="crispEdges"/><path fill="#450350" d="M10.7,-124.4L-65.5,69.1L173,-97.2Z" shape-rendering="crispEdges"/><path fill="#36303A" d="M-120.8,1185.7L123.3,1269.6L122.7,893Z" shape-rendering="crispEdges"/><path fill="#4C4F4D" d="M1859,-269.7L1493.6,-359.5L1578.3,-42.1Z" shape-rendering="crispEdges"/><path fill="#348945" d="M1716,1032.3L1950.2,711.7L1596.8,918.2Z" shape-rendering="crispEdges"/><path fill="#687570" d="M2106.8,317.6L2072.4,200.6L1730.3,461.5Z" shape-rendering="crispEdges"/><path fill="#520F5E" d="M221.2,-479.2L10.7,-124.4L173,-97.2Z" shape-rendering="crispEdges"/><path fill="#43814B" d="M1285,1501.9L1590.9,1416.5L1449.2,1169.8Z" shape-rendering="crispEdges"/><path fill="#2A763A" d="M1716,1032.3L1989.6,924.5L1950.2,711.7Z" shape-rendering="crispEdges"/><path fill="#36303B" d="M-183.7,1343.2L196.2,1435.2L123.3,1269.6Z" shape-rendering="crispEdges"/><path fill="#4C4452" d="M123.3,1269.6L196.2,1435.2L357.7,1141.5Z" shape-rendering="crispEdges"/><path fill="#5E6667" d="M536.2,1436.1L196.2,1435.2L661,1444.4Z" shape-rendering="crispEdges"/><path fill="#71417E" d="M-344.3,167.3L-104.5,495.7L-65.5,69.1Z" shape-rendering="crispEdges"/><path fill="#8A6091" d="M-344.3,167.3L-270.8,493.3L-104.5,495.7Z" shape-rendering="crispEdges"/><path fill="#595B58" d="M-149.6,706.1L-196.4,1005.8L122.7,893Z" shape-rendering="crispEdges"/><path fill="#00451B" d="M2060.4,1272.6L1989.6,924.5L1716,1032.3Z" shape-rendering="crispEdges"/><path fill="#246E35" d="M1590.9,1416.5L1777.1,1299.1L1449.2,1169.8Z" shape-rendering="crispEdges"/><path fill="#6D686C" d="M-327.3,670.6L-196.4,1005.8L-149.6,706.1Z" shape-rendering="crispEdges"/><path fill="#38373C" d="M-196.4,1005.8L-120.8,1185.7L122.7,893Z" shape-rendering="crispEdges"/><path fill="#62266E" d="M413.4,-391.8L221.2,-479.2L173,-97.2Z" shape-rendering="crispEdges"/><path fill="#81558B" d="M1137,-415.8L221.2,-479.2L413.4,-391.8Z" shape-rendering="crispEdges"/><path fill="#33793F" d="M1285,1501.9L1674.1,1461.9L1590.9,1416.5Z" shape-rendering="crispEdges"/><path fill="#17642D" d="M1590.9,1416.5L1674.1,1461.9L1777.1,1299.1Z" shape-rendering="crispEdges"/><path fill="#7C9480" d="M2106.8,317.6L1730.3,461.5L1825.4,630.7Z" shape-rendering="crispEdges"/><path fill="#404344" d="M1771.7,-7.4L1859,-269.7L1578.3,-42.1Z" shape-rendering="crispEdges"/><path fill="#7B997F" d="M2106.8,317.6L1825.4,630.7L1950.2,711.7Z" shape-rendering="crispEdges"/><path fill="#917891" d="M-270.8,493.3L-327.3,670.6L-149.6,706.1Z" shape-rendering="crispEdges"/><path fill="#7D9981" d="M2239.6,578.3L2106.8,317.6L1950.2,711.7Z" shape-rendering="crispEdges"/><path fill="#36343A" d="M1941.8,-180.1L1859,-269.7L1771.7,-7.4Z" shape-rendering="crispEdges"/><path fill="#322D36" d="M2072.4,200.6L1941.8,-180.1L1771.7,-7.4Z" shape-rendering="crispEdges"/><path fill="#470552" d="M-378.4,-151.8L-344.3,167.3L-65.5,69.1Z" shape-rendering="crispEdges"/><path fill="#936B97" d="M-270.8,493.3L-344.3,167.3L-327.3,670.6Z" shape-rendering="crispEdges"/><path fill="#40004B" d="M-378.4,-151.8L-65.5,69.1L10.7,-124.4Z" shape-rendering="crispEdges"/><path fill="#4B0857" d="M221.2,-479.2L18.8,-486.9L10.7,-124.4Z" shape-rendering="crispEdges"/><path fill="#4B8651" d="M2373.7,859.1L2239.6,578.3L1989.6,924.5Z" shape-rendering="crispEdges"/><path fill="#5A8E5D" d="M1989.6,924.5L2239.6,578.3L1950.2,711.7Z" shape-rendering="crispEdges"/><path fill="#53555C" d="M2106.8,317.6L2227.4,47.4L2072.4,200.6Z" shape-rendering="crispEdges"/><path fill="#36303A" d="M2072.4,200.6L2227.4,47.4L1941.8,-180.1Z" shape-rendering="crispEdges"/><path fill="#034D20" d="M2060.4,1272.6L1716,1032.3L1777.1,1299.1Z" shape-rendering="crispEdges"/><path fill="#312C35" d="M-120.8,1185.7L-183.7,1343.2L123.3,1269.6Z" shape-rendering="crispEdges"/><path fill="#312C35" d="M-398.4,1255.3L-183.7,1343.2L-120.8,1185.7Z" shape-rendering="crispEdges"/><path fill="#312C35" d="M-398.4,1255.3L-120.8,1185.7L-196.4,1005.8Z" shape-rendering="crispEdges"/><path fill="#00441B" d="M2042.5,1507.9L2060.4,1272.6L1777.1,1299.1Z" shape-rendering="crispEdges"/><path fill="#927893" d="M-344.3,167.3L-408.7,1000.6L-327.3,670.6Z" shape-rendering="crispEdges"/><path fill="#535653" d="M-327.3,670.6L-408.7,1000.6L-196.4,1005.8Z" shape-rendering="crispEdges"/><path fill="#5C6465" d="M2323.7,388.6L2227.4,47.4L2106.8,317.6Z" shape-rendering="crispEdges"/><path fill="#312C35" d="M1941.8,-180.1L2079.6,-447.4L1859,-269.7Z" shape-rendering="crispEdges"/><path fill="#77897A" d="M2239.6,578.3L2323.7,388.6L2106.8,317.6Z" shape-rendering="crispEdges"/><path fill="#749877" d="M2373.7,859.1L2323.7,388.6L2239.6,578.3Z" shape-rendering="crispEdges"/><path fill="#40004B" d="M-269.5,-345.1L-378.4,-151.8L10.7,-124.4Z" shape-rendering="crispEdges"/><path fill="#82578C" d="M-344.3,167.3L-378.4,-151.8L-408.7,1000.6Z" shape-rendering="crispEdges"/><path fill="#40004B" d="M18.8,-486.9L-269.5,-345.1L10.7,-124.4Z" shape-rendering="crispEdges"/><path fill="#312C35" d="M-408.7,1000.6L-398.4,1255.3L-196.4,1005.8Z" shape-rendering="crispEdges"/><path fill="#4C4452" d="M2323.7,388.6L2260.7,-56.6L2227.4,47.4Z" shape-rendering="crispEdges"/><path fill="#312C35" d="M2227.4,47.4L2260.7,-56.6L1941.8,-180.1Z" shape-rendering="crispEdges"/><path fill="#00441B" d="M2225,1563L2042.5,1507.9L1674.1,1461.9Z" shape-rendering="crispEdges"/><path fill="#055021" d="M1674.1,1461.9L2042.5,1507.9L1777.1,1299.1Z" shape-rendering="crispEdges"/><path fill="#065323" d="M2292.8,1264.6L2373.7,859.1L1989.6,924.5Z" shape-rendering="crispEdges"/><path fill="#00441B" d="M2292.8,1264.6L1989.6,924.5L2060.4,1272.6Z" shape-rendering="crispEdges"/><path fill="#312C35" d="M2198,-371.9L2079.6,-447.4L1941.8,-180.1Z" shape-rendering="crispEdges"/><path fill="#3A3A3D" d="M1859,-269.7L2079.6,-447.4L1493.6,-359.5Z" shape-rendering="crispEdges"/><path fill="#555855" d="M1493.6,-359.5L2079.6,-447.4L1137,-415.8Z" shape-rendering="crispEdges"/><path fill="#8E778E" d="M1137,-415.8L2079.6,-447.4L221.2,-479.2Z" shape-rendering="crispEdges"/><path fill="#926A97" d="M221.2,-479.2L2079.6,-447.4L18.8,-486.9Z" shape-rendering="crispEdges"/><path fill="#00441B" d="M2225,1563L2292.8,1264.6L2060.4,1272.6Z" shape-rendering="crispEdges"/><path fill="#312C35" d="M2260.7,-56.6L2198,-371.9L1941.8,-180.1Z" shape-rendering="crispEdges"/><path fill="#312C35" d="M-398.4,1255.3L-427.4,1421.1L-183.7,1343.2Z" shape-rendering="crispEdges"/><path fill="#312C35" d="M-183.7,1343.2L-427.4,1421.1L196.2,1435.2Z" shape-rendering="crispEdges"/><path fill="#54575D" d="M196.2,1435.2L-427.4,1421.1L1285,1501.9Z" shape-rendering="crispEdges"/><path fill="#312C35" d="M-408.7,1000.6L-427.4,1421.1L-398.4,1255.3Z" shape-rendering="crispEdges"/><path fill="#786F76" d="M-378.4,-151.8L-427.4,1421.1L-408.7,1000.6Z" shape-rendering="crispEdges"/><path fill="#0C5D29" d="M1285,1501.9L2225,1563L1674.1,1461.9Z" shape-rendering="crispEdges"/><path fill="#00441B" d="M2042.5,1507.9L2225,1563L2060.4,1272.6Z" shape-rendering="crispEdges"/><path fill="#78997B" d="M-427.4,1421.1L2225,1563L1285,1501.9Z" shape-rendering="crispEdges"/></svg>