<svg xmlns="http://www.w3.org/2000/svg" width="1920" height="1080"><path fill="#DD69AF" d="M875.6,370.4L1092.9,716.8L1121.1,367.5Z" shape-rendering="crispEdges"/><path fill="#E060A7" d="M875.6,370.4L666.3,793.7L1092.9,716.8Z" shape-rendering="crispEdges"/><path fill="#D4B3D7" d="M741.4,-81.4L479.4,309.6L875.6,370.4Z" shape-rendering="crispEdges"/><path fill="#D28AC1" d="M875.6,370.4L479.4,309.6L666.3,793.7Z" shape-rendering="crispEdges"/><path fill="#DC789D" d="M1677.6,428L1307.5,23.7L1121.1,367.5Z" shape-rendering="crispEdges"/><path fill="#DD9DCB" d="M1121.1,367.5L741.4,-81.4L875.6,370.4Z" shape-rendering="crispEdges"/><path fill="#BA6487" d="M442.1,1020.2L600.3,1009.9L666.3,793.7Z" shape-rendering="crispEdges"/><path fill="#CD5887" d="M666.3,793.7L600.3,1009.9L1092.9,716.8Z" shape-rendering="crispEdges"/><path fill="#ECA0C8" d="M1307.5,23.7L741.4,-81.4L1121.1,367.5Z" shape-rendering="crispEdges"/><path fill="#D32D73" d="M1741.7,736.6L1677.6,428L1092.9,716.8Z" shape-rendering="crispEdges"/><path fill="#DD5195" d="M1092.9,716.8L1677.6,428L1121.1,367.5Z" shape-rendering="crispEdges"/><path fill="#C4708E" d="M229,934.8L442.1,1020.2L666.3,793.7Z" shape-rendering="crispEdges"/><path fill="#A33663" d="M996.1,1507.6L1266.4,1246L600.3,1009.9Z" shape-rendering="crispEdges"/><path fill="#B4366E" d="M600.3,1009.9L1266.4,1246L1092.9,716.8Z" shape-rendering="crispEdges"/><path fill="#C10E52" d="M1465,1179.5L1741.7,736.6L1092.9,716.8Z" shape-rendering="crispEdges"/><path fill="#A8104F" d="M1266.4,1246L1465,1179.5L1092.9,716.8Z" shape-rendering="crispEdges"/><path fill="#E1CEE5" d="M741.4,-81.4L339,-22.1L479.4,309.6Z" shape-rendering="crispEdges"/><path fill="#E480B1" d="M479.4,309.6L229,934.8L666.3,793.7Z" shape-rendering="crispEdges"/><path fill="#E8A7D0" d="M-105.5,369.2L229,934.8L479.4,309.6Z" shape-rendering="crispEdges"/><path fill="#ED94A6" d="M1772.1,-136L1173,-369.8L1307.5,23.7Z" shape-rendering="crispEdges"/><path fill="#F3A6CA" d="M1307.5,23.7L1173,-369.8L741.4,-81.4Z" shape-rendering="crispEdges"/><path fill="#E5D5E9" d="M741.4,-81.4L401.5,-421.3L339,-22.1Z" shape-rendering="crispEdges"/><path fill="#A15F74" d="M759.1,1754.7L600.3,1009.9L193.8,1540Z" shape-rendering="crispEdges"/><path fill="#9E496A" d="M759.1,1754.7L996.1,1507.6L600.3,1009.9Z" shape-rendering="crispEdges"/><path fill="#960538" d="M1266.4,1246L1673.1,1472.5L1465,1179.5Z" shape-rendering="crispEdges"/><path fill="#D48599" d="M1677.6,428L1772.1,-136L1307.5,23.7Z" shape-rendering="crispEdges"/><path fill="#B37684" d="M2102.8,147.6L1772.1,-136L1677.6,428Z" shape-rendering="crispEdges"/><path fill="#E1D5E9" d="M339,-22.1L-105.5,369.2L479.4,309.6Z" shape-rendering="crispEdges"/><path fill="#E2C8E2" d="M833.6,-583.1L401.5,-421.3L741.4,-81.4Z" shape-rendering="crispEdges"/><path fill="#F5F2F8" d="M339,-22.1L-190,-269.7L-105.5,369.2Z" shape-rendering="crispEdges"/><path fill="#ECB3D6" d="M1173,-369.8L833.6,-583.1L741.4,-81.4Z" shape-rendering="crispEdges"/><path fill="#F59BBB" d="M1708.2,-644.6L833.6,-583.1L1173,-369.8Z" shape-rendering="crispEdges"/><path fill="#850133" d="M2078.5,1160.6L2092.7,844.4L1741.7,736.6Z" shape-rendering="crispEdges"/><path fill="#A52D5F" d="M1741.7,736.6L2304,579.4L1677.6,428Z" shape-rendering="crispEdges"/><path fill="#810032" d="M2078.5,1160.6L1741.7,736.6L1465,1179.5Z" shape-rendering="crispEdges"/><path fill="#A00D46" d="M996.1,1507.6L1673.1,1472.5L1266.4,1246Z" shape-rendering="crispEdges"/><path fill="#9D526E" d="M2304,579.4L2102.8,147.6L1677.6,428Z" shape-rendering="crispEdges"/><path fill="#B07880" d="M2425.4,24.4L2125.8,84.5L2102.8,147.6Z" shape-rendering="crispEdges"/><path fill="#B37C82" d="M2102.8,147.6L2125.8,84.5L1772.1,-136Z" shape-rendering="crispEdges"/><path fill="#A56778" d="M193.8,1540L600.3,1009.9L442.1,1020.2Z" shape-rendering="crispEdges"/><path fill="#A51E56" d="M996.1,1507.6L759.1,1754.7L1673.1,1472.5Z" shape-rendering="crispEdges"/><path fill="#79002C" d="M1673.1,1472.5L2078.5,1160.6L1465,1179.5Z" shape-rendering="crispEdges"/><path fill="#F399B6" d="M-105.5,369.2L-233.1,857.3L229,934.8Z" shape-rendering="crispEdges"/><path fill="#AB717D" d="M229,934.8L193.8,1540L442.1,1020.2Z" shape-rendering="crispEdges"/><path fill="#B17A81" d="M-136.7,1153.2L193.8,1540L229,934.8Z" shape-rendering="crispEdges"/><path fill="#C88593" d="M-233.1,857.3L-136.7,1153.2L229,934.8Z" shape-rendering="crispEdges"/><path fill="#850132" d="M2452.1,1325.5L2304,579.4L2092.7,844.4Z" shape-rendering="crispEdges"/><path fill="#A10F49" d="M2092.7,844.4L2304,579.4L1741.7,736.6Z" shape-rendering="crispEdges"/><path fill="#B87F86" d="M2176.6,-496.5L1708.2,-644.6L1772.1,-136Z" shape-rendering="crispEdges"/><path fill="#DF8E9E" d="M1772.1,-136L1708.2,-644.6L1173,-369.8Z" shape-rendering="crispEdges"/><path fill="#F1EDF5" d="M401.5,-421.3L-190,-269.7L339,-22.1Z" shape-rendering="crispEdges"/><path fill="#F5A2C6" d="M-105.5,369.2L-482.3,679.7L-233.1,857.3Z" shape-rendering="crispEdges"/><path fill="#F6F2F8" d="M-79.9,-505.9L-190,-269.7L401.5,-421.3Z" shape-rendering="crispEdges"/><path fill="#E4C0DE" d="M-626.1,246.2L-482.3,679.7L-105.5,369.2Z" shape-rendering="crispEdges"/><path fill="#B57E83" d="M-598,1174.7L-443.7,1447.3L-136.7,1153.2Z" shape-rendering="crispEdges"/><path fill="#E9DEEE" d="M833.6,-583.1L-79.9,-505.9L401.5,-421.3Z" shape-rendering="crispEdges"/><path fill="#67001F" d="M1673.1,1472.5L2092.3,1573.5L2078.5,1160.6Z" shape-rendering="crispEdges"/><path fill="#67001F" d="M2078.5,1160.6L2452.1,1325.5L2092.7,844.4Z" shape-rendering="crispEdges"/><path fill="#920437" d="M759.1,1754.7L2092.3,1573.5L1673.1,1472.5Z" shape-rendering="crispEdges"/><path fill="#AD757F" d="M2533.7,205.6L2425.4,24.4L2102.8,147.6Z" shape-rendering="crispEdges"/><path fill="#B57E83" d="M2125.8,84.5L2176.6,-496.5L1772.1,-136Z" shape-rendering="crispEdges"/><path fill="#A05C73" d="M2533.7,205.6L2102.8,147.6L2304,579.4Z" shape-rendering="crispEdges"/><path fill="#B57E83" d="M2463.9,-372L2176.6,-496.5L2125.8,84.5Z" shape-rendering="crispEdges"/><path fill="#A3104C" d="M2452.1,1325.5L2533.7,205.6L2304,579.4Z" shape-rendering="crispEdges"/><path fill="#B57E83" d="M2425.4,24.4L2463.9,-372L2125.8,84.5Z" shape-rendering="crispEdges"/><path fill="#F7F4F9" d="M-563.3,-81.7L-105.5,369.2L-190,-269.7Z" shape-rendering="crispEdges"/><path fill="#ECE4F1" d="M-563.3,-81.7L-626.1,246.2L-105.5,369.2Z" shape-rendering="crispEdges"/><path fill="#67001F" d="M2431.4,1446L2452.1,1325.5L2078.5,1160.6Z" shape-rendering="crispEdges"/><path fill="#F7F4F9" d="M-658.3,-522.9L-563.3,-81.7L-190,-269.7Z" shape-rendering="crispEdges"/><path fill="#67001F" d="M2092.3,1573.5L2431.4,1446L2078.5,1160.6Z" shape-rendering="crispEdges"/><path fill="#D88B9C" d="M-598,1174.7L-233.1,857.3L-482.3,679.7Z" shape-rendering="crispEdges"/><path fill="#B87F86" d="M-598,1174.7L-136.7,1153.2L-233.1,857.3Z" shape-rendering="crispEdges"/><path fill="#B57E83" d="M-136.7,1153.2L-240.7,1715.7L193.8,1540Z" shape-rendering="crispEdges"/><path fill="#AD757F" d="M193.8,1540L-240.7,1715.7L759.1,1754.7Z" shape-rendering="crispEdges"/><path fill="#B57E83" d="M-443.7,1447.3L-240.7,1715.7L-136.7,1153.2Z" shape-rendering="crispEdges"/><path fill="#B57E83" d="M2533.7,205.6L2463.9,-372L2425.4,24.4Z" shape-rendering="crispEdges"/><path fill="#F59ABB" d="M-626.1,246.2L-598,1174.7L-482.3,679.7Z" shape-rendering="crispEdges"/><path fill="#F7F4F9" d="M-563.3,-81.7L-658.3,-522.9L-626.1,246.2Z" shape-rendering="crispEdges"/><path fill="#E5D2E7" d="M-626.1,246.2L-658.3,-522.9L-598,1174.7Z" shape-rendering="crispEdges"/><path fill="#F7F4F9" d="M-79.9,-505.9L-658.3,-522.9L-190,-269.7Z" shape-rendering="crispEdges"/><path fill="#F6F3F8" d="M833.6,-583.1L-658.3,-522.9L-79.9,-505.9Z" shape-rendering="crispEdges"/><path fill="#E3CBE4" d="M1708.2,-644.6L-658.3,-522.9L833.6,-583.1Z" shape-rendering="crispEdges"/></svg>