<svg xmlns="http://www.w3.org/2000/svg" width="1920" height="1080"><path fill="#959595" d="M963.8,493.6L952.9,593.1L1059.3,494.3Z" shape-rendering="crispEdges"/><path fill="#8E8E8E" d="M952.9,593.1L1063.9,602.3L1059.3,494.3Z" shape-rendering="crispEdges"/><path fill="#888" d="M952.9,593.1L970.1,690.2L1063.9,602.3Z" shape-rendering="crispEdges"/><path fill="#818181" d="M970.1,690.2L1068.1,690.6L1063.9,602.3Z" shape-rendering="crispEdges"/><path fill="#898989" d="M1063.9,602.3L1174.7,585.7L1059.3,494.3Z" shape-rendering="crispEdges"/><path fill="#9B9B9B" d="M963.8,493.6L860.3,493.9L952.9,593.1Z" shape-rendering="crispEdges"/><path fill="#898989" d="M952.9,593.1L843.6,691.9L970.1,690.2Z" shape-rendering="crispEdges"/><path fill="#999" d="M860.3,493.9L854.5,586.4L952.9,593.1Z" shape-rendering="crispEdges"/><path fill="#7E7E7E" d="M1164.3,696L1174.7,585.7L1063.9,602.3Z" shape-rendering="crispEdges"/><path fill="#8C8C8C" d="M1174.7,585.7L1166.9,484.4L1059.3,494.3Z" shape-rendering="crispEdges"/><path fill="#9F9F9F" d="M1059.3,494.3L955.5,388.2L963.8,493.6Z" shape-rendering="crispEdges"/><path fill="#A4A4A4" d="M963.8,493.6L955.5,388.2L860.3,493.9Z" shape-rendering="crispEdges"/><path fill="#A3A3A3" d="M1059,371.1L955.5,388.2L1059.3,494.3Z" shape-rendering="crispEdges"/><path fill="#999" d="M1166.9,484.4L1059,371.1L1059.3,494.3Z" shape-rendering="crispEdges"/><path fill="#737373" d="M1063.1,804.1L1164.3,696L1068.1,690.6Z" shape-rendering="crispEdges"/><path fill="#7C7C7C" d="M1068.1,690.6L1164.3,696L1063.9,602.3Z" shape-rendering="crispEdges"/><path fill="#979797" d="M735.1,589.2L843.6,691.9L854.5,586.4Z" shape-rendering="crispEdges"/><path fill="#919191" d="M854.5,586.4L843.6,691.9L952.9,593.1Z" shape-rendering="crispEdges"/><path fill="#787878" d="M970.1,690.2L1063.1,804.1L1068.1,690.6Z" shape-rendering="crispEdges"/><path fill="#919191" d="M1271,489.3L1171.5,373.9L1166.9,484.4Z" shape-rendering="crispEdges"/><path fill="#9C9C9C" d="M1166.9,484.4L1171.5,373.9L1059,371.1Z" shape-rendering="crispEdges"/><path fill="#B2B2B2" d="M956.9,281.7L855,369.2L955.5,388.2Z" shape-rendering="crispEdges"/><path fill="#ADADAD" d="M955.5,388.2L855,369.2L860.3,493.9Z" shape-rendering="crispEdges"/><path fill="#A4A4A4" d="M860.3,493.9L749.8,482.9L854.5,586.4Z" shape-rendering="crispEdges"/><path fill="gray" d="M843.6,691.9L961.2,796.9L970.1,690.2Z" shape-rendering="crispEdges"/><path fill="#767676" d="M961.2,796.9L1063.1,804.1L970.1,690.2Z" shape-rendering="crispEdges"/><path fill="#7F7F7F" d="M1291.9,585.5L1271,489.3L1174.7,585.7Z" shape-rendering="crispEdges"/><path fill="#878787" d="M1174.7,585.7L1271,489.3L1166.9,484.4Z" shape-rendering="crispEdges"/><path fill="#AEAEAE" d="M855,369.2L749.8,482.9L860.3,493.9Z" shape-rendering="crispEdges"/><path fill="#ADADAD" d="M1076.5,283.1L956.9,281.7L1059,371.1Z" shape-rendering="crispEdges"/><path fill="#ADADAD" d="M1059,371.1L956.9,281.7L955.5,388.2Z" shape-rendering="crispEdges"/><path fill="#A5A5A5" d="M1171.5,373.9L1076.5,283.1L1059,371.1Z" shape-rendering="crispEdges"/><path fill="#A3A3A3" d="M749.8,482.9L735.1,589.2L854.5,586.4Z" shape-rendering="crispEdges"/><path fill="#747474" d="M1286.4,705.5L1174.7,585.7L1164.3,696Z" shape-rendering="crispEdges"/><path fill="#767676" d="M1286.4,705.5L1291.9,585.5L1174.7,585.7Z" shape-rendering="crispEdges"/><path fill="#949494" d="M735.1,589.2L755.8,702L843.6,691.9Z" shape-rendering="crispEdges"/><path fill="#7E7E7E" d="M843.6,691.9L854.4,812.4L961.2,796.9Z" shape-rendering="crispEdges"/><path fill="#6C6C6C" d="M1063.1,804.1L1175.6,806.6L1164.3,696Z" shape-rendering="crispEdges"/><path fill="#888" d="M755.8,702L854.4,812.4L843.6,691.9Z" shape-rendering="crispEdges"/><path fill="#696969" d="M961.2,796.9L1065.3,912.8L1063.1,804.1Z" shape-rendering="crispEdges"/><path fill="#616161" d="M1063.1,804.1L1163.7,916.8L1175.6,806.6Z" shape-rendering="crispEdges"/><path fill="#6B6B6B" d="M1175.6,806.6L1286.4,705.5L1164.3,696Z" shape-rendering="crispEdges"/><path fill="#A0A0A0" d="M1291.3,275L1171.4,271.3L1171.5,373.9Z" shape-rendering="crispEdges"/><path fill="#A5A5A5" d="M1171.5,373.9L1171.4,271.3L1076.5,283.1Z" shape-rendering="crispEdges"/><path fill="#BCBCBC" d="M966.9,161.4L862.3,263.6L956.9,281.7Z" shape-rendering="crispEdges"/><path fill="#B9B9B9" d="M956.9,281.7L862.3,263.6L855,369.2Z" shape-rendering="crispEdges"/><path fill="#B7B7B7" d="M855,369.2L743.2,370.4L749.8,482.9Z" shape-rendering="crispEdges"/><path fill="#B6B6B6" d="M966.9,161.4L956.9,281.7L1076.5,283.1Z" shape-rendering="crispEdges"/><path fill="#BFBFBF" d="M743.8,272.7L743.2,370.4L855,369.2Z" shape-rendering="crispEdges"/><path fill="#ADADAD" d="M749.8,482.9L639.2,494.6L735.1,589.2Z" shape-rendering="crispEdges"/><path fill="#888" d="M1387.7,489.6L1291.3,378.1L1271,489.3Z" shape-rendering="crispEdges"/><path fill="#939393" d="M1271,489.3L1291.3,378.1L1171.5,373.9Z" shape-rendering="crispEdges"/><path fill="#646464" d="M949.3,920.7L1065.3,912.8L961.2,796.9Z" shape-rendering="crispEdges"/><path fill="#636363" d="M1175.6,806.6L1285.9,814.9L1286.4,705.5Z" shape-rendering="crispEdges"/><path fill="#858585" d="M755.8,702L746.9,808L854.4,812.4Z" shape-rendering="crispEdges"/><path fill="#707070" d="M854.4,812.4L949.3,920.7L961.2,796.9Z" shape-rendering="crispEdges"/><path fill="#8F8F8F" d="M640.4,700.2L746.9,808L755.8,702Z" shape-rendering="crispEdges"/><path fill="#717171" d="M1286.4,705.5L1379,588.7L1291.9,585.5Z" shape-rendering="crispEdges"/><path fill="#7E7E7E" d="M1291.9,585.5L1387.7,489.6L1271,489.3Z" shape-rendering="crispEdges"/><path fill="#B9B9B9" d="M631.7,381.4L639.2,494.6L749.8,482.9Z" shape-rendering="crispEdges"/><path fill="#999" d="M735.1,589.2L640.4,700.2L755.8,702Z" shape-rendering="crispEdges"/><path fill="#AAA" d="M639.2,494.6L636.4,586.1L735.1,589.2Z" shape-rendering="crispEdges"/><path fill="#6B6B6B" d="M850.3,915.4L949.3,920.7L854.4,812.4Z" shape-rendering="crispEdges"/><path fill="#777" d="M1379,588.7L1387.7,489.6L1291.9,585.5Z" shape-rendering="crispEdges"/><path fill="#595959" d="M1287.2,908.7L1285.9,814.9L1175.6,806.6Z" shape-rendering="crispEdges"/><path fill="#6A6A6A" d="M1286.4,705.5L1385.2,705.7L1379,588.7Z" shape-rendering="crispEdges"/><path fill="#BFBFBF" d="M862.3,263.6L743.8,272.7L855,369.2Z" shape-rendering="crispEdges"/><path fill="#BDBDBD" d="M743.2,370.4L631.7,381.4L749.8,482.9Z" shape-rendering="crispEdges"/><path fill="#AFAFAF" d="M1169.2,156.1L1071.2,163.6L1171.4,271.3Z" shape-rendering="crispEdges"/><path fill="#AEAEAE" d="M1171.4,271.3L1071.2,163.6L1076.5,283.1Z" shape-rendering="crispEdges"/><path fill="#C6C6C6" d="M862.3,263.6L850.5,156.8L743.8,272.7Z" shape-rendering="crispEdges"/><path fill="#B6B6B6" d="M1071.2,163.6L966.9,161.4L1076.5,283.1Z" shape-rendering="crispEdges"/><path fill="#949494" d="M1382.3,379.9L1291.3,275L1291.3,378.1Z" shape-rendering="crispEdges"/><path fill="#9A9A9A" d="M1291.3,378.1L1291.3,275L1171.5,373.9Z" shape-rendering="crispEdges"/><path fill="#505050" d="M1076.6,1030.7L1163.7,916.8L1065.3,912.8Z" shape-rendering="crispEdges"/><path fill="#5D5D5D" d="M1065.3,912.8L1163.7,916.8L1063.1,804.1Z" shape-rendering="crispEdges"/><path fill="#777" d="M746.9,808L850.3,915.4L854.4,812.4Z" shape-rendering="crispEdges"/><path fill="#A1A1A1" d="M636.4,586.1L640.4,700.2L735.1,589.2Z" shape-rendering="crispEdges"/><path fill="#737373" d="M746.9,808L743.4,920.1L850.3,915.4Z" shape-rendering="crispEdges"/><path fill="#616161" d="M1387,803.4L1385.2,705.7L1286.4,705.5Z" shape-rendering="crispEdges"/><path fill="#747474" d="M1501.9,583.5L1492,489.4L1387.7,489.6Z" shape-rendering="crispEdges"/><path fill="#8A8A8A" d="M1387.7,489.6L1382.3,379.9L1291.3,378.1Z" shape-rendering="crispEdges"/><path fill="#C6C6C6" d="M629.6,276.9L631.7,381.4L743.2,370.4Z" shape-rendering="crispEdges"/><path fill="#AFAFAF" d="M530.2,495.4L533.5,593.3L636.4,586.1Z" shape-rendering="crispEdges"/><path fill="#AAA" d="M1282.6,154.8L1169.2,156.1L1171.4,271.3Z" shape-rendering="crispEdges"/><path fill="#BDBDBD" d="M1071.2,163.6L1064.1,64L966.9,161.4Z" shape-rendering="crispEdges"/><path fill="#C8C8C8" d="M848.6,59.6L850.5,156.8L966.9,161.4Z" shape-rendering="crispEdges"/><path fill="#C3C3C3" d="M966.9,161.4L850.5,156.8L862.3,263.6Z" shape-rendering="crispEdges"/><path fill="#C8C8C8" d="M743.8,272.7L629.6,276.9L743.2,370.4Z" shape-rendering="crispEdges"/><path fill="#565656" d="M1163.7,916.8L1287.2,908.7L1175.6,806.6Z" shape-rendering="crispEdges"/><path fill="#5E5E5E" d="M1285.9,814.9L1387,803.4L1286.4,705.5Z" shape-rendering="crispEdges"/><path fill="#525252" d="M1378.8,907.3L1387,803.4L1285.9,814.9Z" shape-rendering="crispEdges"/><path fill="#737373" d="M1501.9,583.5L1387.7,489.6L1379,588.7Z" shape-rendering="crispEdges"/><path fill="#909090" d="M539.1,805.2L640.7,815.1L640.4,700.2Z" shape-rendering="crispEdges"/><path fill="#8D8D8D" d="M640.4,700.2L640.7,815.1L746.9,808Z" shape-rendering="crispEdges"/><path fill="#A4A4A4" d="M533.5,593.3L640.4,700.2L636.4,586.1Z" shape-rendering="crispEdges"/><path fill="#7F7F7F" d="M640.7,815.1L743.4,920.1L746.9,808Z" shape-rendering="crispEdges"/><path fill="#575757" d="M949.2,1032.5L1065.3,912.8L949.3,920.7Z" shape-rendering="crispEdges"/><path fill="#8D8D8D" d="M1491.9,373L1391.3,279.2L1382.3,379.9Z" shape-rendering="crispEdges"/><path fill="#959595" d="M1382.3,379.9L1391.3,279.2L1291.3,275Z" shape-rendering="crispEdges"/><path fill="#A4A4A4" d="M1291.3,275L1282.6,154.8L1171.4,271.3Z" shape-rendering="crispEdges"/><path fill="gray" d="M1492,489.4L1382.3,379.9L1387.7,489.6Z" shape-rendering="crispEdges"/><path fill="#D0D0D0" d="M636.7,175.3L629.6,276.9L743.8,272.7Z" shape-rendering="crispEdges"/><path fill="#CCC" d="M850.5,156.8L735.9,164.7L743.8,272.7Z" shape-rendering="crispEdges"/><path fill="#A1A1A1" d="M1392.1,165L1282.6,154.8L1291.3,275Z" shape-rendering="crispEdges"/><path fill="#B7B7B7" d="M1169.2,156.1L1064.1,64L1071.2,163.6Z" shape-rendering="crispEdges"/><path fill="#BCBCBC" d="M530.2,495.4L639.2,494.6L631.7,381.4Z" shape-rendering="crispEdges"/><path fill="#B2B2B2" d="M530.2,495.4L636.4,586.1L639.2,494.6Z" shape-rendering="crispEdges"/><path fill="#C4C4C4" d="M539.5,372.3L530.2,495.4L631.7,381.4Z" shape-rendering="crispEdges"/><path fill="#666" d="M1501.9,583.5L1379,588.7L1494.1,705.8Z" shape-rendering="crispEdges"/><path fill="#505050" d="M949.2,1032.5L1076.6,1030.7L1065.3,912.8Z" shape-rendering="crispEdges"/><path fill="#494949" d="M1163.7,916.8L1184.9,1029.3L1287.2,908.7Z" shape-rendering="crispEdges"/><path fill="#575757" d="M949.2,1032.5L949.3,920.7L857.6,1029.4Z" shape-rendering="crispEdges"/><path fill="#5E5E5E" d="M857.6,1029.4L949.3,920.7L850.3,915.4Z" shape-rendering="crispEdges"/><path fill="#B7B7B7" d="M1163.4,49.8L1064.1,64L1169.2,156.1Z" shape-rendering="crispEdges"/><path fill="#CFCFCF" d="M850.5,156.8L848.6,59.6L735.9,164.7Z" shape-rendering="crispEdges"/><path fill="#656565" d="M1494.1,705.8L1379,588.7L1385.2,705.7Z" shape-rendering="crispEdges"/><path fill="#A1A1A1" d="M533.5,593.3L536.3,702.6L640.4,700.2Z" shape-rendering="crispEdges"/><path fill="#A5A5A5" d="M430,694.4L536.3,702.6L533.5,593.3Z" shape-rendering="crispEdges"/><path fill="#C1C1C1" d="M1064.1,64L969.7,51.9L966.9,161.4Z" shape-rendering="crispEdges"/><path fill="#CACACA" d="M629.6,276.9L539.5,372.3L631.7,381.4Z" shape-rendering="crispEdges"/><path fill="#5F5F5F" d="M740.1,1017.5L857.6,1029.4L850.3,915.4Z" shape-rendering="crispEdges"/><path fill="#555" d="M1490.9,811.8L1494.1,705.8L1387,803.4Z" shape-rendering="crispEdges"/><path fill="#5C5C5C" d="M1387,803.4L1494.1,705.8L1385.2,705.7Z" shape-rendering="crispEdges"/><path fill="#383838" d="M1278,1030.5L1184.9,1029.3L1287.6,1138.6Z" shape-rendering="crispEdges"/><path fill="#484848" d="M1076.6,1030.7L1184.9,1029.3L1163.7,916.8Z" shape-rendering="crispEdges"/><path fill="#4E4E4E" d="M1287.2,908.7L1378.8,907.3L1285.9,814.9Z" shape-rendering="crispEdges"/><path fill="#838383" d="M1492,489.4L1491.9,373L1382.3,379.9Z" shape-rendering="crispEdges"/><path fill="#9B9B9B" d="M1391.3,279.2L1392.1,165L1291.3,275Z" shape-rendering="crispEdges"/><path fill="#767676" d="M1592.5,490.6L1491.9,373L1492,489.4Z" shape-rendering="crispEdges"/><path fill="#414141" d="M1394.5,1012.7L1378.8,907.3L1287.2,908.7Z" shape-rendering="crispEdges"/><path fill="#C7C7C7" d="M969.7,51.9L848.6,59.6L966.9,161.4Z" shape-rendering="crispEdges"/><path fill="#B1B1B1" d="M1279.6,65.3L1163.4,49.8L1169.2,156.1Z" shape-rendering="crispEdges"/><path fill="#C3C3C3" d="M1064.1,64L1059.1,-52.9L969.7,51.9Z" shape-rendering="crispEdges"/><path fill="#D9D9D9" d="M637.1,57.8L636.7,175.3L735.9,164.7Z" shape-rendering="crispEdges"/><path fill="#D1D1D1" d="M735.9,164.7L636.7,175.3L743.8,272.7Z" shape-rendering="crispEdges"/><path fill="#D0D0D0" d="M629.6,276.9L533.3,273.1L539.5,372.3Z" shape-rendering="crispEdges"/><path fill="#797979" d="M640.7,815.1L632.1,925.4L743.4,920.1Z" shape-rendering="crispEdges"/><path fill="#676767" d="M743.4,920.1L740.1,1017.5L850.3,915.4Z" shape-rendering="crispEdges"/><path fill="#848484" d="M539.1,805.2L632.1,925.4L640.7,815.1Z" shape-rendering="crispEdges"/><path fill="#9B9B9B" d="M430,694.4L539.1,805.2L536.3,702.6Z" shape-rendering="crispEdges"/><path fill="#979797" d="M536.3,702.6L539.1,805.2L640.4,700.2Z" shape-rendering="crispEdges"/><path fill="#999" d="M1496.6,170.3L1392.1,165L1391.3,279.2Z" shape-rendering="crispEdges"/><path fill="#ADADAD" d="M1282.6,154.8L1279.6,65.3L1169.2,156.1Z" shape-rendering="crispEdges"/><path fill="#6C6C6C" d="M632.1,925.4L740.1,1017.5L743.4,920.1Z" shape-rendering="crispEdges"/><path fill="#4E4E4E" d="M1378.8,907.3L1490.9,811.8L1387,803.4Z" shape-rendering="crispEdges"/><path fill="#646464" d="M1596.5,598.1L1592.5,490.6L1501.9,583.5Z" shape-rendering="crispEdges"/><path fill="#414141" d="M1184.9,1029.3L1278,1030.5L1287.2,908.7Z" shape-rendering="crispEdges"/><path fill="#444" d="M1378.8,907.3L1498.5,919.9L1490.9,811.8Z" shape-rendering="crispEdges"/><path fill="#3F3F3F" d="M1169.7,1139.5L1184.9,1029.3L1076.6,1030.7Z" shape-rendering="crispEdges"/><path fill="#D4D4D4" d="M636.7,175.3L533.3,273.1L629.6,276.9Z" shape-rendering="crispEdges"/><path fill="#C3C3C3" d="M539.5,372.3L435.1,489.1L530.2,495.4Z" shape-rendering="crispEdges"/><path fill="#A8A8A8" d="M1392,67.7L1279.6,65.3L1282.6,154.8Z" shape-rendering="crispEdges"/><path fill="#858585" d="M1612.8,277.7L1499.2,275L1491.9,373Z" shape-rendering="crispEdges"/><path fill="#8D8D8D" d="M1491.9,373L1499.2,275L1391.3,279.2Z" shape-rendering="crispEdges"/><path fill="#D4D4D4" d="M848.6,59.6L740,47.6L735.9,164.7Z" shape-rendering="crispEdges"/><path fill="#D9D9D9" d="M636.7,175.3L523.4,176.1L533.3,273.1Z" shape-rendering="crispEdges"/><path fill="#D4D4D4" d="M852.2,-38L740,47.6L848.6,59.6Z" shape-rendering="crispEdges"/><path fill="#CECECE" d="M852.2,-38L848.6,59.6L969.7,51.9Z" shape-rendering="crispEdges"/><path fill="#CACACA" d="M417.3,378L435.1,489.1L539.5,372.3Z" shape-rendering="crispEdges"/><path fill="#B3B3B3" d="M530.2,495.4L426,593L533.5,593.3Z" shape-rendering="crispEdges"/><path fill="#474747" d="M949.1,1128.1L1068.1,1127.1L949.2,1032.5Z" shape-rendering="crispEdges"/><path fill="#464646" d="M949.2,1032.5L1068.1,1127.1L1076.6,1030.7Z" shape-rendering="crispEdges"/><path fill="#4C4C4C" d="M949.1,1128.1L949.2,1032.5L861.5,1133.2Z" shape-rendering="crispEdges"/><path fill="#505050" d="M861.5,1133.2L949.2,1032.5L857.6,1029.4Z" shape-rendering="crispEdges"/><path fill="#5F5F5F" d="M1596.5,598.1L1501.9,583.5L1494.1,705.8Z" shape-rendering="crispEdges"/><path fill="#6C6C6C" d="M1501.9,583.5L1592.5,490.6L1492,489.4Z" shape-rendering="crispEdges"/><path fill="#BABABA" d="M435.1,489.1L426,593L530.2,495.4Z" shape-rendering="crispEdges"/><path fill="#575757" d="M1600.5,695L1596.5,598.1L1494.1,705.8Z" shape-rendering="crispEdges"/><path fill="#ACACAC" d="M426,593L430,694.4L533.5,593.3Z" shape-rendering="crispEdges"/><path fill="#6B6B6B" d="M533.7,1030L646.1,1028.8L632.1,925.4Z" shape-rendering="crispEdges"/><path fill="#333" d="M1383.4,1133.7L1394.5,1012.7L1278,1030.5Z" shape-rendering="crispEdges"/><path fill="#3E3E3E" d="M1278,1030.5L1394.5,1012.7L1287.2,908.7Z" shape-rendering="crispEdges"/><path fill="#4E4E4E" d="M1600.1,813.2L1600.5,695L1494.1,705.8Z" shape-rendering="crispEdges"/><path fill="#686868" d="M632.1,925.4L646.1,1028.8L740.1,1017.5Z" shape-rendering="crispEdges"/><path fill="#535353" d="M741.1,1124.7L861.5,1133.2L857.6,1029.4Z" shape-rendering="crispEdges"/><path fill="gray" d="M521,915.8L632.1,925.4L539.1,805.2Z" shape-rendering="crispEdges"/><path fill="#595959" d="M741.1,1124.7L857.6,1029.4L740.1,1017.5Z" shape-rendering="crispEdges"/><path fill="#3D3D3D" d="M1169.4,1226.1L1169.7,1139.5L1076.7,1243.7Z" shape-rendering="crispEdges"/><path fill="#BCBCBC" d="M1169.4,-43L1059.1,-52.9L1163.4,49.8Z" shape-rendering="crispEdges"/><path fill="#BEBEBE" d="M1163.4,49.8L1059.1,-52.9L1064.1,64Z" shape-rendering="crispEdges"/><path fill="#4D4D4D" d="M1600.1,813.2L1494.1,705.8L1490.9,811.8Z" shape-rendering="crispEdges"/><path fill="#6A6A6A" d="M1716,486.7L1613.1,381.8L1592.5,490.6Z" shape-rendering="crispEdges"/><path fill="#C6C6C6" d="M1059.1,-52.9L957.4,-56.4L969.7,51.9Z" shape-rendering="crispEdges"/><path fill="#CCC" d="M957.4,-56.4L852.2,-38L969.7,51.9Z" shape-rendering="crispEdges"/><path fill="#474747" d="M950.9,1227.7L1068.1,1127.1L949.1,1128.1Z" shape-rendering="crispEdges"/><path fill="#404040" d="M1068.1,1127.1L1169.7,1139.5L1076.6,1030.7Z" shape-rendering="crispEdges"/><path fill="#8B8B8B" d="M416.5,812.8L521,915.8L539.1,805.2Z" shape-rendering="crispEdges"/><path fill="#3C3C3C" d="M1394.5,1012.7L1498.5,919.9L1378.8,907.3Z" shape-rendering="crispEdges"/><path fill="#B2B2B2" d="M1277.4,-44.8L1163.4,49.8L1279.6,65.3Z" shape-rendering="crispEdges"/><path fill="#B6B6B6" d="M1277.4,-44.8L1169.4,-43L1163.4,49.8Z" shape-rendering="crispEdges"/><path fill="#9E9E9E" d="M1496.6,170.3L1392,67.7L1392.1,165Z" shape-rendering="crispEdges"/><path fill="#A4A4A4" d="M1392.1,165L1392,67.7L1282.6,154.8Z" shape-rendering="crispEdges"/><path fill="#DFDFDF" d="M527.7,58.7L523.4,176.1L636.7,175.3Z" shape-rendering="crispEdges"/><path fill="#D2D2D2" d="M418.5,283.1L417.3,378L539.5,372.3Z" shape-rendering="crispEdges"/><path fill="#DADADA" d="M637.1,57.8L735.9,164.7L740,47.6Z" shape-rendering="crispEdges"/><path fill="#8A8A8A" d="M1612.8,277.7L1496.6,170.3L1499.2,275Z" shape-rendering="crispEdges"/><path fill="#929292" d="M1499.2,275L1496.6,170.3L1391.3,279.2Z" shape-rendering="crispEdges"/><path fill="#DFDFDF" d="M637.5,-38.5L637.1,57.8L740,47.6Z" shape-rendering="crispEdges"/><path fill="#D4D4D4" d="M418.5,283.1L539.5,372.3L533.3,273.1Z" shape-rendering="crispEdges"/><path fill="#BABABA" d="M323.8,479.8L323.2,594.7L426,593Z" shape-rendering="crispEdges"/><path fill="#A0A0A0" d="M313.4,709.5L416.5,812.8L430,694.4Z" shape-rendering="crispEdges"/><path fill="#5C5C5C" d="M1707.8,599.8L1592.5,490.6L1596.5,598.1Z" shape-rendering="crispEdges"/><path fill="#777" d="M1592.5,490.6L1613.1,381.8L1491.9,373Z" shape-rendering="crispEdges"/><path fill="#5E5E5E" d="M646.1,1028.8L741.1,1124.7L740.1,1017.5Z" shape-rendering="crispEdges"/><path fill="#5C5C5C" d="M640.6,1121.2L741.1,1124.7L646.1,1028.8Z" shape-rendering="crispEdges"/><path fill="#434343" d="M1498.5,919.9L1600.1,813.2L1490.9,811.8Z" shape-rendering="crispEdges"/><path fill="#545454" d="M1600.5,695L1707.8,599.8L1596.5,598.1Z" shape-rendering="crispEdges"/><path fill="#DFDFDF" d="M421.3,171.3L418.5,283.1L523.4,176.1Z" shape-rendering="crispEdges"/><path fill="#DADADA" d="M523.4,176.1L418.5,283.1L533.3,273.1Z" shape-rendering="crispEdges"/><path fill="#999" d="M430,694.4L416.5,812.8L539.1,805.2Z" shape-rendering="crispEdges"/><path fill="#AFAFAF" d="M323.2,594.7L430,694.4L426,593Z" shape-rendering="crispEdges"/><path fill="#AEAEAE" d="M1378,-50.8L1277.4,-44.8L1279.6,65.3Z" shape-rendering="crispEdges"/><path fill="#C4C4C4" d="M1070.2,-157.1L966.5,-154.4L1059.1,-52.9Z" shape-rendering="crispEdges"/><path fill="#AAA" d="M1378,-50.8L1279.6,65.3L1392,67.7Z" shape-rendering="crispEdges"/><path fill="#393939" d="M1169.7,1139.5L1287.6,1138.6L1184.9,1029.3Z" shape-rendering="crispEdges"/><path fill="#343434" d="M1394.5,1012.7L1497,1015.9L1498.5,919.9Z" shape-rendering="crispEdges"/><path fill="#D5D5D5" d="M852.2,-151.7L754.2,-50.3L852.2,-38Z" shape-rendering="crispEdges"/><path fill="#D8D8D8" d="M852.2,-38L754.2,-50.3L740,47.6Z" shape-rendering="crispEdges"/><path fill="#7D7D7D" d="M1613.1,381.8L1612.8,277.7L1491.9,373Z" shape-rendering="crispEdges"/><path fill="#9D9D9D" d="M1496.6,170.3L1502.8,53.6L1392,67.7Z" shape-rendering="crispEdges"/><path fill="#2C2C2C" d="M1493.1,1118.7L1497,1015.9L1394.5,1012.7Z" shape-rendering="crispEdges"/><path fill="#393939" d="M1498.5,919.9L1597.5,915.9L1600.1,813.2Z" shape-rendering="crispEdges"/><path fill="#727272" d="M423.8,1031.1L533.7,1030L521,915.8Z" shape-rendering="crispEdges"/><path fill="#737373" d="M521,915.8L533.7,1030L632.1,925.4Z" shape-rendering="crispEdges"/><path fill="#535353" d="M855.8,1231.4L861.5,1133.2L754.4,1240.8Z" shape-rendering="crispEdges"/><path fill="#4E4E4E" d="M855.8,1231.4L950.9,1227.7L861.5,1133.2Z" shape-rendering="crispEdges"/><path fill="#4C4C4C" d="M861.5,1133.2L950.9,1227.7L949.1,1128.1Z" shape-rendering="crispEdges"/><path fill="#373737" d="M1169.7,1139.5L1278.6,1231.2L1287.6,1138.6Z" shape-rendering="crispEdges"/><path fill="#636363" d="M533.7,1030L640.6,1121.2L646.1,1028.8Z" shape-rendering="crispEdges"/><path fill="#E3E3E3" d="M637.5,-38.5L527.7,58.7L637.1,57.8Z" shape-rendering="crispEdges"/><path fill="#DFDFDF" d="M637.1,57.8L527.7,58.7L636.7,175.3Z" shape-rendering="crispEdges"/><path fill="#C8C8C8" d="M323.8,479.8L435.1,489.1L417.3,378Z" shape-rendering="crispEdges"/><path fill="#BEBEBE" d="M323.8,479.8L426,593L435.1,489.1Z" shape-rendering="crispEdges"/><path fill="#D0D0D0" d="M318.7,378.5L323.8,479.8L417.3,378Z" shape-rendering="crispEdges"/><path fill="#2F2F2F" d="M1593.1,1019.1L1597.5,915.9L1498.5,919.9Z" shape-rendering="crispEdges"/><path fill="#4C4C4C" d="M1719.4,690.1L1707.8,599.8L1600.5,695Z" shape-rendering="crispEdges"/><path fill="#323232" d="M1287.6,1138.6L1383.4,1133.7L1278,1030.5Z" shape-rendering="crispEdges"/><path fill="#2E2E2E" d="M1497,1015.9L1593.1,1019.1L1498.5,919.9Z" shape-rendering="crispEdges"/><path fill="#303030" d="M1386.5,1235.1L1383.4,1133.7L1287.6,1138.6Z" shape-rendering="crispEdges"/><path fill="#8A8A8A" d="M325.6,905.8L420.7,913.2L416.5,812.8Z" shape-rendering="crispEdges"/><path fill="#868686" d="M416.5,812.8L420.7,913.2L521,915.8Z" shape-rendering="crispEdges"/><path fill="#404040" d="M1076.7,1243.7L1169.7,1139.5L1068.1,1127.1Z" shape-rendering="crispEdges"/><path fill="#DEDEDE" d="M754.2,-50.3L637.5,-38.5L740,47.6Z" shape-rendering="crispEdges"/><path fill="#444" d="M950.9,1227.7L1076.7,1243.7L1068.1,1127.1Z" shape-rendering="crispEdges"/><path fill="#939393" d="M1603.6,154.9L1502.8,53.6L1496.6,170.3Z" shape-rendering="crispEdges"/><path fill="#444" d="M1719.4,690.1L1600.5,695L1707.6,818.1Z" shape-rendering="crispEdges"/><path fill="#757575" d="M1613.1,381.8L1713.6,373L1612.8,277.7Z" shape-rendering="crispEdges"/><path fill="#555" d="M754.4,1240.8L861.5,1133.2L741.1,1124.7Z" shape-rendering="crispEdges"/><path fill="#494949" d="M950.9,1227.7L855.8,1231.4L1076.7,1243.7Z" shape-rendering="crispEdges"/><path fill="#E6E6E6" d="M421.3,61.9L421.3,171.3L523.4,176.1Z" shape-rendering="crispEdges"/><path fill="#D5D5D5" d="M418.5,283.1L318.7,378.5L417.3,378Z" shape-rendering="crispEdges"/><path fill="#A6A6A6" d="M1486.2,-48.5L1378,-50.8L1392,67.7Z" shape-rendering="crispEdges"/><path fill="#BEBEBE" d="M1070.2,-157.1L1059.1,-52.9L1174,-149.4Z" shape-rendering="crispEdges"/><path fill="#C7C7C7" d="M1059.1,-52.9L966.5,-154.4L957.4,-56.4Z" shape-rendering="crispEdges"/><path fill="#BCBCBC" d="M1059.1,-52.9L1169.4,-43L1174,-149.4Z" shape-rendering="crispEdges"/><path fill="#CFCFCF" d="M957.4,-56.4L852.2,-151.7L852.2,-38Z" shape-rendering="crispEdges"/><path fill="#DEDEDE" d="M754.2,-50.3L742.3,-145.3L637.5,-38.5Z" shape-rendering="crispEdges"/><path fill="#5D5D5D" d="M1707.8,599.8L1716,486.7L1592.5,490.6Z" shape-rendering="crispEdges"/><path fill="#8A8A8A" d="M1612.8,277.7L1603.6,154.9L1496.6,170.3Z" shape-rendering="crispEdges"/><path fill="#B6B6B6" d="M1174,-149.4L1169.4,-43L1277.4,-44.8Z" shape-rendering="crispEdges"/><path fill="gray" d="M1698.9,267.4L1603.6,154.9L1612.8,277.7Z" shape-rendering="crispEdges"/><path fill="#DBDBDB" d="M323,266.5L318.7,378.5L418.5,283.1Z" shape-rendering="crispEdges"/><path fill="#B3B3B3" d="M203.5,604L313.4,709.5L323.2,594.7Z" shape-rendering="crispEdges"/><path fill="#C3C3C3" d="M208.2,491.7L323.2,594.7L323.8,479.8Z" shape-rendering="crispEdges"/><path fill="#ABABAB" d="M323.2,594.7L313.4,709.5L430,694.4Z" shape-rendering="crispEdges"/><path fill="#B3B3B3" d="M1288.1,-149.4L1174,-149.4L1277.4,-44.8Z" shape-rendering="crispEdges"/><path fill="#E0E0E0" d="M638.7,-150.5L852.2,-151.7L542.1,-159.9Z" shape-rendering="crispEdges"/><path fill="#CCC" d="M966.5,-154.4L852.2,-151.7L957.4,-56.4Z" shape-rendering="crispEdges"/><path fill="#434343" d="M1707.6,818.1L1600.5,695L1600.1,813.2Z" shape-rendering="crispEdges"/><path fill="#535353" d="M1707.8,599.8L1817.7,597.7L1716,486.7Z" shape-rendering="crispEdges"/><path fill="#6B6B6B" d="M1716,486.7L1713.6,373L1613.1,381.8Z" shape-rendering="crispEdges"/><path fill="#9D9D9D" d="M313.4,709.5L325.7,803.2L416.5,812.8Z" shape-rendering="crispEdges"/><path fill="#3B3B3B" d="M1076.7,1243.7L1278.6,1231.2L1169.4,1226.1Z" shape-rendering="crispEdges"/><path fill="#393939" d="M1169.4,1226.1L1278.6,1231.2L1169.7,1139.5Z" shape-rendering="crispEdges"/><path fill="#5B5B5B" d="M633.5,1241.9L754.4,1240.8L741.1,1124.7Z" shape-rendering="crispEdges"/><path fill="#4E4E4E" d="M855.8,1231.4L754.4,1240.8L1076.7,1243.7Z" shape-rendering="crispEdges"/><path fill="#5D5D5D" d="M633.5,1241.9L741.1,1124.7L640.6,1121.2Z" shape-rendering="crispEdges"/><path fill="#767676" d="M1713.6,373L1698.9,267.4L1612.8,277.7Z" shape-rendering="crispEdges"/><path fill="#E5E5E5" d="M311.2,175.3L323,266.5L421.3,171.3Z" shape-rendering="crispEdges"/><path fill="#E0E0E0" d="M421.3,171.3L323,266.5L418.5,283.1Z" shape-rendering="crispEdges"/><path fill="#D8D8D8" d="M852.2,-151.7L742.3,-145.3L754.2,-50.3Z" shape-rendering="crispEdges"/><path fill="#EBEBEB" d="M432.3,-41.7L421.3,61.9L527.7,58.7Z" shape-rendering="crispEdges"/><path fill="#292929" d="M1491.3,1226.8L1493.1,1118.7L1383.4,1133.7Z" shape-rendering="crispEdges"/><path fill="#2C2C2C" d="M1383.4,1133.7L1493.1,1118.7L1394.5,1012.7Z" shape-rendering="crispEdges"/><path fill="#353535" d="M1700.7,914.9L1707.6,818.1L1600.1,813.2Z" shape-rendering="crispEdges"/><path fill="#333" d="M1700.7,914.9L1600.1,813.2L1597.5,915.9Z" shape-rendering="crispEdges"/><path fill="#656565" d="M430.4,1119L542.3,1130.2L533.7,1030Z" shape-rendering="crispEdges"/><path fill="#626262" d="M533.7,1030L542.3,1130.2L640.6,1121.2Z" shape-rendering="crispEdges"/><path fill="#797979" d="M423.8,1031.1L521,915.8L420.7,913.2Z" shape-rendering="crispEdges"/><path fill="#262626" d="M1493.1,1118.7L1593.1,1019.1L1497,1015.9Z" shape-rendering="crispEdges"/><path fill="#AEAEAE" d="M1378,-50.8L1288.1,-149.4L1277.4,-44.8Z" shape-rendering="crispEdges"/><path fill="#B8B8B8" d="M1174,-149.4L1288.1,-149.4L1070.2,-157.1Z" shape-rendering="crispEdges"/><path fill="#ABABAB" d="M1377.6,-149L1288.1,-149.4L1378,-50.8Z" shape-rendering="crispEdges"/><path fill="#767676" d="M322.4,1028.1L423.8,1031.1L420.7,913.2Z" shape-rendering="crispEdges"/><path fill="#9A9A9A" d="M1596.5,-44.8L1486.2,-48.5L1502.8,53.6Z" shape-rendering="crispEdges"/><path fill="#A1A1A1" d="M1502.8,53.6L1486.2,-48.5L1392,67.7Z" shape-rendering="crispEdges"/><path fill="#919191" d="M1610.8,61.5L1502.8,53.6L1603.6,154.9Z" shape-rendering="crispEdges"/><path fill="#E7E7E7" d="M521.2,-40.6L527.7,58.7L637.5,-38.5Z" shape-rendering="crispEdges"/><path fill="#E6E6E6" d="M527.7,58.7L421.3,61.9L523.4,176.1Z" shape-rendering="crispEdges"/><path fill="#E7E7E7" d="M542.1,-159.9L521.2,-40.6L637.5,-38.5Z" shape-rendering="crispEdges"/><path fill="#959595" d="M216.5,817.5L325.6,905.8L325.7,803.2Z" shape-rendering="crispEdges"/><path fill="#929292" d="M325.7,803.2L325.6,905.8L416.5,812.8Z" shape-rendering="crispEdges"/><path fill="#898989" d="M1710.1,69.1L1610.8,61.5L1603.6,154.9Z" shape-rendering="crispEdges"/><path fill="#292929" d="M1593.1,1019.1L1700.7,914.9L1597.5,915.9Z" shape-rendering="crispEdges"/><path fill="#444" d="M1821.9,708L1817.7,597.7L1719.4,690.1Z" shape-rendering="crispEdges"/><path fill="#212121" d="M1717.1,1022.7L1700.7,914.9L1593.1,1019.1Z" shape-rendering="crispEdges"/><path fill="#323232" d="M1278.6,1231.2L1386.5,1235.1L1287.6,1138.6Z" shape-rendering="crispEdges"/><path fill="#202020" d="M1493.1,1118.7L1599.3,1133.5L1593.1,1019.1Z" shape-rendering="crispEdges"/><path fill="#373737" d="M1076.7,1243.7L1386.5,1235.1L1278.6,1231.2Z" shape-rendering="crispEdges"/><path fill="#A2A2A2" d="M1501.8,-161.7L1377.6,-149L1486.2,-48.5Z" shape-rendering="crispEdges"/><path fill="#A6A6A6" d="M1486.2,-48.5L1377.6,-149L1378,-50.8Z" shape-rendering="crispEdges"/><path fill="#B0B0B0" d="M1288.1,-149.4L1501.8,-161.7L1070.2,-157.1Z" shape-rendering="crispEdges"/><path fill="#626262" d="M522.9,1234.9L633.5,1241.9L542.3,1130.2Z" shape-rendering="crispEdges"/><path fill="#606060" d="M542.3,1130.2L633.5,1241.9L640.6,1121.2Z" shape-rendering="crispEdges"/><path fill="#535353" d="M754.4,1240.8L633.5,1241.9L1076.7,1243.7Z" shape-rendering="crispEdges"/><path fill="#E0E0E0" d="M742.3,-145.3L638.7,-150.5L637.5,-38.5Z" shape-rendering="crispEdges"/><path fill="#DBDBDB" d="M852.2,-151.7L638.7,-150.5L742.3,-145.3Z" shape-rendering="crispEdges"/><path fill="#D8D8D8" d="M542.1,-159.9L852.2,-151.7L966.5,-154.4Z" shape-rendering="crispEdges"/><path fill="#EBEBEB" d="M308.1,63.5L311.2,175.3L421.3,171.3Z" shape-rendering="crispEdges"/><path fill="#D3D3D3" d="M208,384.9L323.8,479.8L318.7,378.5Z" shape-rendering="crispEdges"/><path fill="#CFCFCF" d="M208,384.9L208.2,491.7L323.8,479.8Z" shape-rendering="crispEdges"/><path fill="#767676" d="M1823.4,272.8L1707.8,168.9L1698.9,267.4Z" shape-rendering="crispEdges"/><path fill="#7F7F7F" d="M1698.9,267.4L1707.8,168.9L1603.6,154.9Z" shape-rendering="crispEdges"/><path fill="#DCDCDC" d="M208,384.9L318.7,378.5L207.6,266.4Z" shape-rendering="crispEdges"/><path fill="#A0A0A0" d="M313.4,709.5L216.5,817.5L325.7,803.2Z" shape-rendering="crispEdges"/><path fill="#3C3C3C" d="M1821.9,708L1719.4,690.1L1823.2,800.6Z" shape-rendering="crispEdges"/><path fill="#4B4B4B" d="M1719.4,690.1L1817.7,597.7L1707.8,599.8Z" shape-rendering="crispEdges"/><path fill="#666" d="M1716,486.7L1818.7,373L1713.6,373Z" shape-rendering="crispEdges"/><path fill="#707070" d="M1713.6,373L1823.4,272.8L1698.9,267.4Z" shape-rendering="crispEdges"/><path fill="#BFBFBF" d="M208.2,491.7L203.5,604L323.2,594.7Z" shape-rendering="crispEdges"/><path fill="#6A6A6A" d="M321.2,1121.5L430.4,1119L423.8,1031.1Z" shape-rendering="crispEdges"/><path fill="#6A6A6A" d="M423.8,1031.1L430.4,1119L533.7,1030Z" shape-rendering="crispEdges"/><path fill="#545454" d="M1817.7,597.7L1825.7,493.7L1716,486.7Z" shape-rendering="crispEdges"/><path fill="#DFDFDF" d="M207.6,266.4L318.7,378.5L323,266.5Z" shape-rendering="crispEdges"/><path fill="#C6C6C6" d="M208.2,491.7L105.8,494.3L203.5,604Z" shape-rendering="crispEdges"/><path fill="#B0B0B0" d="M203.5,604L202.6,709.4L313.4,709.5Z" shape-rendering="crispEdges"/><path fill="#7D7D7D" d="M325.6,905.8L322.4,1028.1L420.7,913.2Z" shape-rendering="crispEdges"/><path fill="#3B3B3B" d="M1823.2,800.6L1719.4,690.1L1707.6,818.1Z" shape-rendering="crispEdges"/><path fill="#4F4F4F" d="M1817.7,597.7L1917,496.2L1825.7,493.7Z" shape-rendering="crispEdges"/><path fill="#5E5E5E" d="M1825.7,493.7L1818.7,373L1716,486.7Z" shape-rendering="crispEdges"/><path fill="#EBEBEB" d="M521.2,-40.6L432.3,-41.7L527.7,58.7Z" shape-rendering="crispEdges"/><path fill="#EBEBEB" d="M421.3,61.9L308.1,63.5L421.3,171.3Z" shape-rendering="crispEdges"/><path fill="#EDEDED" d="M416.6,-153.6L432.3,-41.7L521.2,-40.6Z" shape-rendering="crispEdges"/><path fill="#232323" d="M1491.3,1226.8L1599.3,1133.5L1493.1,1118.7Z" shape-rendering="crispEdges"/><path fill="#2E2E2E" d="M1813.7,922.2L1823.2,800.6L1707.6,818.1Z" shape-rendering="crispEdges"/><path fill="#2C2C2C" d="M1386.5,1235.1L1491.3,1226.8L1383.4,1133.7Z" shape-rendering="crispEdges"/><path fill="#8E8E8E" d="M1715.5,-50.2L1596.5,-44.8L1610.8,61.5Z" shape-rendering="crispEdges"/><path fill="#959595" d="M1610.8,61.5L1596.5,-44.8L1502.8,53.6Z" shape-rendering="crispEdges"/><path fill="#848484" d="M1710.1,69.1L1603.6,154.9L1707.8,168.9Z" shape-rendering="crispEdges"/><path fill="#A6A6A6" d="M202.6,709.4L216.5,817.5L313.4,709.5Z" shape-rendering="crispEdges"/><path fill="gray" d="M215.5,922.8L322.4,1028.1L325.6,905.8Z" shape-rendering="crispEdges"/><path fill="#676767" d="M416.7,1240.3L522.9,1234.9L430.4,1119Z" shape-rendering="crispEdges"/><path fill="#656565" d="M430.4,1119L522.9,1234.9L542.3,1130.2Z" shape-rendering="crispEdges"/><path fill="#7F7F7F" d="M1820.5,66.7L1710.1,69.1L1707.8,168.9Z" shape-rendering="crispEdges"/><path fill="#1A1A1A" d="M1702.8,1119.5L1717.1,1022.7L1593.1,1019.1Z" shape-rendering="crispEdges"/><path fill="#2B2B2B" d="M1813.7,922.2L1707.6,818.1L1700.7,914.9Z" shape-rendering="crispEdges"/><path fill="#494949" d="M1924.6,596.8L1917,496.2L1817.7,597.7Z" shape-rendering="crispEdges"/><path fill="#D2D2D2" d="M1070.2,-157.1L542.1,-159.9L966.5,-154.4Z" shape-rendering="crispEdges"/><path fill="#E4E4E4" d="M638.7,-150.5L542.1,-159.9L637.5,-38.5Z" shape-rendering="crispEdges"/><path fill="#EAEAEA" d="M213.8,155.5L207.6,266.4L311.2,175.3Z" shape-rendering="crispEdges"/><path fill="#E5E5E5" d="M311.2,175.3L207.6,266.4L323,266.5Z" shape-rendering="crispEdges"/><path fill="#D0D0D0" d="M208,384.9L105.8,494.3L208.2,491.7Z" shape-rendering="crispEdges"/><path fill="#F1F1F1" d="M315.6,-47.7L308.1,63.5L421.3,61.9Z" shape-rendering="crispEdges"/><path fill="#F0F0F0" d="M315.6,-47.7L421.3,61.9L432.3,-41.7Z" shape-rendering="crispEdges"/><path fill="#6A6A6A" d="M1818.7,373L1823.4,272.8L1713.6,373Z" shape-rendering="crispEdges"/><path fill="#686868" d="M1923.9,280.3L1823.4,272.8L1818.7,373Z" shape-rendering="crispEdges"/><path fill="#969696" d="M1610.1,-156.1L1501.8,-161.7L1596.5,-44.8Z" shape-rendering="crispEdges"/><path fill="#9A9A9A" d="M1596.5,-44.8L1501.8,-161.7L1486.2,-48.5Z" shape-rendering="crispEdges"/><path fill="#A8A8A8" d="M1377.6,-149L1501.8,-161.7L1288.1,-149.4Z" shape-rendering="crispEdges"/><path fill="#C3C3C3" d="M1070.2,-157.1L1501.8,-161.7L542.1,-159.9Z" shape-rendering="crispEdges"/><path fill="#8F8F8F" d="M216.5,817.5L215.5,922.8L325.6,905.8Z" shape-rendering="crispEdges"/><path fill="#6E6E6E" d="M322.4,1028.1L321.2,1121.5L423.8,1031.1Z" shape-rendering="crispEdges"/><path fill="#919191" d="M94.6,904.3L215.5,922.8L216.5,817.5Z" shape-rendering="crispEdges"/><path fill="#202020" d="M1717.1,1022.7L1813.7,922.2L1700.7,914.9Z" shape-rendering="crispEdges"/><path fill="#EEE" d="M308.1,63.5L213.8,155.5L311.2,175.3Z" shape-rendering="crispEdges"/><path fill="#6E6E6E" d="M220.9,1129.9L321.2,1121.5L322.4,1028.1Z" shape-rendering="crispEdges"/><path fill="#171717" d="M1702.8,1243.8L1702.8,1119.5L1599.3,1133.5Z" shape-rendering="crispEdges"/><path fill="#1A1A1A" d="M1599.3,1133.5L1702.8,1119.5L1593.1,1019.1Z" shape-rendering="crispEdges"/><path fill="#1A1A1A" d="M1717.1,1022.7L1816.7,1010.9L1813.7,922.2Z" shape-rendering="crispEdges"/><path fill="#757575" d="M1823.4,272.8L1825.6,171.2L1707.8,168.9Z" shape-rendering="crispEdges"/><path fill="#888" d="M1710.1,69.1L1715.5,-50.2L1610.8,61.5Z" shape-rendering="crispEdges"/><path fill="#6D6D6D" d="M1923.9,280.3L1825.6,171.2L1823.4,272.8Z" shape-rendering="crispEdges"/><path fill="#262626" d="M1386.5,1235.1L1593.6,1239L1491.3,1226.8Z" shape-rendering="crispEdges"/><path fill="#202020" d="M1491.3,1226.8L1593.6,1239L1599.3,1133.5Z" shape-rendering="crispEdges"/><path fill="#303030" d="M1076.7,1243.7L1593.6,1239L1386.5,1235.1Z" shape-rendering="crispEdges"/><path fill="#DFDFDF" d="M96.2,383.3L208,384.9L113.1,271.4Z" shape-rendering="crispEdges"/><path fill="#D7D7D7" d="M96.2,383.3L105.8,494.3L208,384.9Z" shape-rendering="crispEdges"/><path fill="#B2B2B2" d="M203.5,604L113.5,695.6L202.6,709.4Z" shape-rendering="crispEdges"/><path fill="#A4A4A4" d="M202.6,709.4L96,803.2L216.5,817.5Z" shape-rendering="crispEdges"/><path fill="#414141" d="M1924.6,596.8L1817.7,597.7L1926.5,689.7Z" shape-rendering="crispEdges"/><path fill="#595959" d="M1825.7,493.7L1917,496.2L1818.7,373Z" shape-rendering="crispEdges"/><path fill="#3F3F3F" d="M1817.7,597.7L1821.9,708L1926.5,689.7Z" shape-rendering="crispEdges"/><path fill="#B8B8B8" d="M98.9,597.3L113.5,695.6L203.5,604Z" shape-rendering="crispEdges"/><path fill="#6A6A6A" d="M321.2,1121.5L416.7,1240.3L430.4,1119Z" shape-rendering="crispEdges"/><path fill="#646464" d="M522.9,1234.9L416.7,1240.3L633.5,1241.9Z" shape-rendering="crispEdges"/><path fill="#C2C2C2" d="M105.8,494.3L98.9,597.3L203.5,604Z" shape-rendering="crispEdges"/><path fill="#353535" d="M1926.5,689.7L1821.9,708L1912.6,799.7Z" shape-rendering="crispEdges"/><path fill="#F0F0F0" d="M416.6,-153.6L315.6,-47.7L432.3,-41.7Z" shape-rendering="crispEdges"/><path fill="#F2F2F2" d="M308.1,63.5L214.6,53.5L213.8,155.5Z" shape-rendering="crispEdges"/><path fill="#EBEBEB" d="M542.1,-159.9L416.6,-153.6L521.2,-40.6Z" shape-rendering="crispEdges"/><path fill="#848484" d="M1811.6,-44.5L1715.5,-50.2L1710.1,69.1Z" shape-rendering="crispEdges"/><path fill="#8E8E8E" d="M1715.5,-50.2L1610.1,-156.1L1596.5,-44.8Z" shape-rendering="crispEdges"/><path fill="#343434" d="M1912.6,799.7L1821.9,708L1823.2,800.6Z" shape-rendering="crispEdges"/><path fill="#131313" d="M1806,1129.4L1816.7,1010.9L1717.1,1022.7Z" shape-rendering="crispEdges"/><path fill="#282828" d="M1922,917.7L1912.6,799.7L1823.2,800.6Z" shape-rendering="crispEdges"/><path fill="#121212" d="M1806,1129.4L1717.1,1022.7L1702.8,1119.5Z" shape-rendering="crispEdges"/><path fill="#E2E2E2" d="M113.1,271.4L208,384.9L207.6,266.4Z" shape-rendering="crispEdges"/><path fill="#C5C5C5" d="M105.8,494.3L3,584.7L98.9,597.3Z" shape-rendering="crispEdges"/><path fill="#EAEAEA" d="M113.1,271.4L207.6,266.4L107.5,174.1Z" shape-rendering="crispEdges"/><path fill="#7E7E7E" d="M106.3,1029.3L209.5,1028.5L215.5,922.8Z" shape-rendering="crispEdges"/><path fill="#7C7C7C" d="M215.5,922.8L209.5,1028.5L322.4,1028.1Z" shape-rendering="crispEdges"/><path fill="#6C6C6C" d="M321.2,1121.5L325.2,1232.1L416.7,1240.3Z" shape-rendering="crispEdges"/><path fill="#595959" d="M2020.1,384.6L1928.6,371.6L1917,496.2Z" shape-rendering="crispEdges"/><path fill="#5B5B5B" d="M1917,496.2L1928.6,371.6L1818.7,373Z" shape-rendering="crispEdges"/><path fill="#7B7B7B" d="M1825.6,171.2L1820.5,66.7L1707.8,168.9Z" shape-rendering="crispEdges"/><path fill="#535353" d="M2020.1,384.6L1917,496.2L2039,490.6Z" shape-rendering="crispEdges"/><path fill="#242424" d="M1922,917.7L1823.2,800.6L1813.7,922.2Z" shape-rendering="crispEdges"/><path fill="#F7F7F7" d="M210.1,-52.5L214.6,53.5L315.6,-47.7Z" shape-rendering="crispEdges"/><path fill="#F4F4F4" d="M315.6,-47.7L214.6,53.5L308.1,63.5Z" shape-rendering="crispEdges"/><path fill="#EDEDED" d="M107.5,174.1L207.6,266.4L213.8,155.5Z" shape-rendering="crispEdges"/><path fill="#767676" d="M1918.7,156.2L1820.5,66.7L1825.6,171.2Z" shape-rendering="crispEdges"/><path fill="#ADADAD" d="M2.6,696.7L96,803.2L113.5,695.6Z" shape-rendering="crispEdges"/><path fill="#AAA" d="M113.5,695.6L96,803.2L202.6,709.4Z" shape-rendering="crispEdges"/><path fill="#B6B6B6" d="M2.6,696.7L113.5,695.6L98.9,597.3Z" shape-rendering="crispEdges"/><path fill="#626262" d="M1928.6,371.6L1923.9,280.3L1818.7,373Z" shape-rendering="crispEdges"/><path fill="#6E6E6E" d="M220.9,1129.9L325.2,1232.1L321.2,1121.5Z" shape-rendering="crispEdges"/><path fill="#F3F3F3" d="M95,65L107.5,174.1L213.8,155.5Z" shape-rendering="crispEdges"/><path fill="#DBDBDB" d="M-1.1,373.6L-13.3,493L96.2,383.3Z" shape-rendering="crispEdges"/><path fill="#292929" d="M1076.7,1243.7L1702.8,1243.8L1593.6,1239Z" shape-rendering="crispEdges"/><path fill="#1A1A1A" d="M1593.6,1239L1702.8,1243.8L1599.3,1133.5Z" shape-rendering="crispEdges"/><path fill="#727272" d="M105.3,1124.1L220.9,1129.9L209.5,1028.5Z" shape-rendering="crispEdges"/><path fill="#727272" d="M209.5,1028.5L220.9,1129.9L322.4,1028.1Z" shape-rendering="crispEdges"/><path fill="#171717" d="M1916.7,1010.9L1813.7,922.2L1816.7,1010.9Z" shape-rendering="crispEdges"/><path fill="#181818" d="M1916.7,1010.9L1922,917.7L1813.7,922.2Z" shape-rendering="crispEdges"/><path fill="#3B3B3B" d="M2029.5,702.3L2036.6,603.4L1926.5,689.7Z" shape-rendering="crispEdges"/><path fill="#9A9A9A" d="M96,803.2L94.6,904.3L216.5,817.5Z" shape-rendering="crispEdges"/><path fill="#9D9D9D" d="M-10.7,808.3L94.6,904.3L96,803.2Z" shape-rendering="crispEdges"/><path fill="#121212" d="M1702.8,1243.8L1806,1129.4L1702.8,1119.5Z" shape-rendering="crispEdges"/><path fill="#F4F4F4" d="M220.3,-152.6L315.1,-151L416.6,-153.6Z" shape-rendering="crispEdges"/><path fill="#F2F2F2" d="M416.6,-153.6L315.1,-151L315.6,-47.7Z" shape-rendering="crispEdges"/><path fill="#F4F4F4" d="M214.6,53.5L95,65L213.8,155.5Z" shape-rendering="crispEdges"/><path fill="#848484" d="M1811.6,-44.5L1711.9,-147.9L1715.5,-50.2Z" shape-rendering="crispEdges"/><path fill="#8A8A8A" d="M1715.5,-50.2L1711.9,-147.9L1610.1,-156.1Z" shape-rendering="crispEdges"/><path fill="#6E6E6E" d="M1923.9,280.3L1918.7,156.2L1825.6,171.2Z" shape-rendering="crispEdges"/><path fill="gray" d="M1820.5,66.7L1811.6,-44.5L1710.1,69.1Z" shape-rendering="crispEdges"/><path fill="#6B6B6B" d="M2020.5,167.6L1918.7,156.2L1923.9,280.3Z" shape-rendering="crispEdges"/><path fill="#7C7C7C" d="M1925.3,-46.1L1811.6,-44.5L1820.5,66.7Z" shape-rendering="crispEdges"/><path fill="#F7F7F7" d="M220.3,-152.6L210.1,-52.5L315.6,-47.7Z" shape-rendering="crispEdges"/><path fill="#D4D4D4" d="M-13.3,493L105.8,494.3L96.2,383.3Z" shape-rendering="crispEdges"/><path fill="#CBCBCB" d="M-13.3,493L3,584.7L105.8,494.3Z" shape-rendering="crispEdges"/><path fill="#040404" d="M1934,1134.9L1916.7,1010.9L1806,1129.4Z" shape-rendering="crispEdges"/><path fill="#0E0E0E" d="M1806,1129.4L1916.7,1010.9L1816.7,1010.9Z" shape-rendering="crispEdges"/><path fill="#BCBCBC" d="M3,584.7L2.6,696.7L98.9,597.3Z" shape-rendering="crispEdges"/><path fill="#4B4B4B" d="M2039,490.6L1917,496.2L1924.6,596.8Z" shape-rendering="crispEdges"/><path fill="#606060" d="M1928.6,371.6L2020.1,384.6L1923.9,280.3Z" shape-rendering="crispEdges"/><path fill="#3F3F3F" d="M2036.6,603.4L1924.6,596.8L1926.5,689.7Z" shape-rendering="crispEdges"/><path fill="#333" d="M1926.5,689.7L1912.6,799.7L2029.5,702.3Z" shape-rendering="crispEdges"/><path fill="#828282" d="M-8.2,1018.9L106.3,1029.3L94.6,904.3Z" shape-rendering="crispEdges"/><path fill="#858585" d="M94.6,904.3L106.3,1029.3L215.5,922.8Z" shape-rendering="crispEdges"/><path fill="#707070" d="M220.9,1129.9L212.5,1232.8L325.2,1232.1Z" shape-rendering="crispEdges"/><path fill="#E2E2E2" d="M-1.1,373.6L96.2,383.3L113.1,271.4Z" shape-rendering="crispEdges"/><path fill="#BDBDBD" d="M3,584.7L-113.6,600.2L2.6,696.7Z" shape-rendering="crispEdges"/><path fill="#2F2F2F" d="M2029.5,702.3L1912.6,799.7L2031.3,800.5Z" shape-rendering="crispEdges"/><path fill="#E7E7E7" d="M-6.2,271.3L-1.1,373.6L113.1,271.4Z" shape-rendering="crispEdges"/><path fill="#ECECEC" d="M-6.2,271.3L113.1,271.4L107.5,174.1Z" shape-rendering="crispEdges"/><path fill="#464646" d="M2036.6,603.4L2039,490.6L1924.6,596.8Z" shape-rendering="crispEdges"/><path fill="#262626" d="M2031.3,800.5L1912.6,799.7L1922,917.7Z" shape-rendering="crispEdges"/><path fill="#727272" d="M2019.7,68.2L1923.6,63.2L1918.7,156.2Z" shape-rendering="crispEdges"/><path fill="#757575" d="M1918.7,156.2L1923.6,63.2L1820.5,66.7Z" shape-rendering="crispEdges"/><path fill="#828282" d="M1811.6,-44.5L1825,-163.6L1711.9,-147.9Z" shape-rendering="crispEdges"/><path fill="#FAFAFA" d="M106.1,-58.4L95,65L214.6,53.5Z" shape-rendering="crispEdges"/><path fill="#202020" d="M2019.9,922.2L2031.3,800.5L1922,917.7Z" shape-rendering="crispEdges"/><path fill="#373737" d="M2029.5,702.3L2031.3,800.5L2036.6,603.4Z" shape-rendering="crispEdges"/><path fill="#727272" d="M105.3,1124.1L212.5,1232.8L220.9,1129.9Z" shape-rendering="crispEdges"/><path fill="#6D6D6D" d="M325.2,1232.1L212.5,1232.8L416.7,1240.3Z" shape-rendering="crispEdges"/><path fill="#AEAEAE" d="M-119.4,698.8L-10.7,808.3L2.6,696.7Z" shape-rendering="crispEdges"/><path fill="#A9A9A9" d="M2.6,696.7L-10.7,808.3L96,803.2Z" shape-rendering="crispEdges"/><path fill="#767676" d="M106.3,1029.3L105.3,1124.1L209.5,1028.5Z" shape-rendering="crispEdges"/><path fill="#CCC" d="M-119.7,478.4L-113.6,600.2L-13.3,493Z" shape-rendering="crispEdges"/><path fill="#F1F1F1" d="M-13,167.8L-6.2,271.3L107.5,174.1Z" shape-rendering="crispEdges"/><path fill="#F0F0F0" d="M542.1,-159.9L220.3,-152.6L416.6,-153.6Z" shape-rendering="crispEdges"/><path fill="#F5F5F5" d="M315.1,-151L220.3,-152.6L315.6,-47.7Z" shape-rendering="crispEdges"/><path fill="#F9F9F9" d="M210.1,-52.5L106.1,-58.4L214.6,53.5Z" shape-rendering="crispEdges"/><path fill="#5C5C5C" d="M2039,490.6L2031.3,268.2L2020.1,384.6Z" shape-rendering="crispEdges"/><path fill="#636363" d="M2020.1,384.6L2031.3,268.2L1923.9,280.3Z" shape-rendering="crispEdges"/><path fill="#0F0F0F" d="M1702.8,1243.8L1820.9,1231.1L1806,1129.4Z" shape-rendering="crispEdges"/><path fill="#161616" d="M1916.7,1010.9L2019.9,922.2L1922,917.7Z" shape-rendering="crispEdges"/><path fill="#757575" d="M-12.1,1124.2L105.3,1124.1L106.3,1029.3Z" shape-rendering="crispEdges"/><path fill="#979797" d="M-10.7,808.3L-1.9,908.2L94.6,904.3Z" shape-rendering="crispEdges"/><path fill="#121212" d="M2021,1015.9L2019.9,922.2L1916.7,1010.9Z" shape-rendering="crispEdges"/><path fill="#696969" d="M2031.3,268.2L2020.5,167.6L1923.9,280.3Z" shape-rendering="crispEdges"/><path fill="#7C7C7C" d="M1915.8,-151.9L1825,-163.6L1811.6,-44.5Z" shape-rendering="crispEdges"/><path fill="#878787" d="M1711.9,-147.9L1825,-163.6L1610.1,-156.1Z" shape-rendering="crispEdges"/><path fill="#8D8D8D" d="M1610.1,-156.1L1825,-163.6L1501.8,-161.7Z" shape-rendering="crispEdges"/><path fill="#E2E2E2" d="M1501.8,-161.7L-113.4,-164.5L542.1,-159.9Z" shape-rendering="crispEdges"/><path fill="#787878" d="M1925.3,-46.1L1820.5,66.7L1923.6,63.2Z" shape-rendering="crispEdges"/><path fill="#FBFBFB" d="M110.9,-150.8L106.1,-58.4L210.1,-52.5Z" shape-rendering="crispEdges"/><path fill="#F5F5F5" d="M95,65L-13,167.8L107.5,174.1Z" shape-rendering="crispEdges"/><path fill="#777" d="M2021.1,-42.1L1925.3,-46.1L1923.6,63.2Z" shape-rendering="crispEdges"/><path fill="#F9F9F9" d="M-3.2,52.3L-13,167.8L95,65Z" shape-rendering="crispEdges"/><path fill="#DCDCDC" d="M-108.6,384.7L-13.3,493L-1.1,373.6Z" shape-rendering="crispEdges"/><path fill="#070707" d="M1820.9,1231.1L1934,1134.9L1806,1129.4Z" shape-rendering="crispEdges"/><path fill="#050505" d="M1934,1134.9L2021,1015.9L1916.7,1010.9Z" shape-rendering="crispEdges"/><path fill="#151515" d="M2019.9,922.2L2040,1134.7L2031.3,800.5Z" shape-rendering="crispEdges"/><path fill="#6E6E6E" d="M2031.3,268.2L2019.7,68.2L2020.5,167.6Z" shape-rendering="crispEdges"/><path fill="#717171" d="M2020.5,167.6L2019.7,68.2L1918.7,156.2Z" shape-rendering="crispEdges"/><path fill="#898989" d="M-115.3,921.3L-8.2,1018.9L-1.9,908.2Z" shape-rendering="crispEdges"/><path fill="#898989" d="M-1.9,908.2L-8.2,1018.9L94.6,904.3Z" shape-rendering="crispEdges"/><path fill="#737373" d="M105.3,1124.1L112.9,1238.6L212.5,1232.8Z" shape-rendering="crispEdges"/><path fill="#C7C7C7" d="M-13.3,493L-113.6,600.2L3,584.7Z" shape-rendering="crispEdges"/><path fill="#9D9D9D" d="M-10.7,808.3L-100,816.1L-1.9,908.2Z" shape-rendering="crispEdges"/><path fill="#E4E4E4" d="M-108.6,384.7L-1.1,373.6L-109.3,272Z" shape-rendering="crispEdges"/><path fill="#FDFDFD" d="M2.4,-44L-3.2,52.3L95,65Z" shape-rendering="crispEdges"/><path fill="#E8E8E8" d="M-109.3,272L-1.1,373.6L-6.2,271.3Z" shape-rendering="crispEdges"/><path fill="#EFEFEF" d="M-109.3,272L-6.2,271.3L-13,167.8Z" shape-rendering="crispEdges"/><path fill="#757575" d="M-13.5,1245.4L112.9,1238.6L105.3,1124.1Z" shape-rendering="crispEdges"/><path fill="#707070" d="M212.5,1232.8L112.9,1238.6L416.7,1240.3Z" shape-rendering="crispEdges"/><path fill="#6C6C6C" d="M416.7,1240.3L-13.5,1245.4L633.5,1241.9Z" shape-rendering="crispEdges"/><path fill="#D6D6D6" d="M-108.6,384.7L-119.7,478.4L-13.3,493Z" shape-rendering="crispEdges"/><path fill="#FDFDFD" d="M106.1,-58.4L2.4,-44L95,65Z" shape-rendering="crispEdges"/><path fill="#F9F9F9" d="M220.3,-152.6L110.9,-150.8L210.1,-52.5Z" shape-rendering="crispEdges"/><path fill="#FFF" d="M3.5,-150.3L110.9,-150.8L-113.4,-164.5Z" shape-rendering="crispEdges"/><path fill="#C2C2C2" d="M-119.7,478.4L-119.4,698.8L-113.6,600.2Z" shape-rendering="crispEdges"/><path fill="#B8B8B8" d="M-113.6,600.2L-119.4,698.8L2.6,696.7Z" shape-rendering="crispEdges"/><path fill="#030303" d="M1820.9,1231.1L1921.9,1239.2L1934,1134.9Z" shape-rendering="crispEdges"/><path fill="#000" d="M1934,1134.9L2040,1134.7L2021,1015.9Z" shape-rendering="crispEdges"/><path fill="#0C0C0C" d="M1702.8,1243.8L1921.9,1239.2L1820.9,1231.1Z" shape-rendering="crispEdges"/><path fill="#A9A9A9" d="M-119.4,698.8L-100,816.1L-10.7,808.3Z" shape-rendering="crispEdges"/><path fill="#777" d="M2021.1,-42.1L1915.8,-151.9L1925.3,-46.1Z" shape-rendering="crispEdges"/><path fill="#7A7A7A" d="M1925.3,-46.1L1915.8,-151.9L1811.6,-44.5Z" shape-rendering="crispEdges"/><path fill="#E0E0E0" d="M-108.6,384.7L-109.3,272L-119.7,478.4Z" shape-rendering="crispEdges"/><path fill="#F2F2F2" d="M-106.4,168.1L-109.3,272L-13,167.8Z" shape-rendering="crispEdges"/><path fill="#FEFEFE" d="M3.5,-150.3L2.4,-44L106.1,-58.4Z" shape-rendering="crispEdges"/><path fill="#F8F8F8" d="M-115.2,62.2L-106.4,168.1L-13,167.8Z" shape-rendering="crispEdges"/><path fill="#777" d="M2032.1,-164.3L2021.1,-42.1L2019.7,68.2Z" shape-rendering="crispEdges"/><path fill="#757575" d="M2019.7,68.2L2021.1,-42.1L1923.6,63.2Z" shape-rendering="crispEdges"/><path fill="#747474" d="M2032.1,-164.3L2019.7,68.2L2031.3,268.2Z" shape-rendering="crispEdges"/><path fill="#7B7B7B" d="M-111.1,1017.2L-12.1,1124.2L-8.2,1018.9Z" shape-rendering="crispEdges"/><path fill="#797979" d="M-8.2,1018.9L-12.1,1124.2L106.3,1029.3Z" shape-rendering="crispEdges"/><path fill="#FAFAFA" d="M-115.2,62.2L-13,167.8L-3.2,52.3Z" shape-rendering="crispEdges"/><path fill="#ECECEC" d="M-109.3,272L-115.2,62.2L-119.7,478.4Z" shape-rendering="crispEdges"/><path fill="#000" d="M2031.6,1244.9L2040,1134.7L1934,1134.9Z" shape-rendering="crispEdges"/><path fill="#0B0B0B" d="M2021,1015.9L2040,1134.7L2019.9,922.2Z" shape-rendering="crispEdges"/><path fill="#252525" d="M2031.3,800.5L2040,1134.7L2036.6,603.4Z" shape-rendering="crispEdges"/><path fill="#323232" d="M2036.6,603.4L2040,1134.7L2039,490.6Z" shape-rendering="crispEdges"/><path fill="#969696" d="M-100,816.1L-115.3,921.3L-1.9,908.2Z" shape-rendering="crispEdges"/><path fill="#A4A4A4" d="M-119.4,698.8L-115.3,921.3L-100,816.1Z" shape-rendering="crispEdges"/><path fill="#848484" d="M-115.3,921.3L-111.1,1017.2L-8.2,1018.9Z" shape-rendering="crispEdges"/><path fill="#FDFDFD" d="M110.9,-150.8L3.5,-150.3L106.1,-58.4Z" shape-rendering="crispEdges"/><path fill="#FEFEFE" d="M-108.1,-52.2L-115.2,62.2L-3.2,52.3Z" shape-rendering="crispEdges"/><path fill="#FDFDFD" d="M-113.4,-164.5L110.9,-150.8L220.3,-152.6Z" shape-rendering="crispEdges"/><path fill="#FFF" d="M-108.1,-52.2L-3.2,52.3L2.4,-44Z" shape-rendering="crispEdges"/><path fill="#F5F5F5" d="M-106.4,168.1L-115.2,62.2L-109.3,272Z" shape-rendering="crispEdges"/><path fill="#040404" d="M1702.8,1243.8L2031.6,1244.9L1921.9,1239.2Z" shape-rendering="crispEdges"/><path fill="#000" d="M1921.9,1239.2L2031.6,1244.9L1934,1134.9Z" shape-rendering="crispEdges"/><path fill="#1D1D1D" d="M1076.7,1243.7L2031.6,1244.9L1702.8,1243.8Z" shape-rendering="crispEdges"/><path fill="#777" d="M-102.1,1131.7L-13.5,1245.4L-12.1,1124.2Z" shape-rendering="crispEdges"/><path fill="#767676" d="M-12.1,1124.2L-13.5,1245.4L105.3,1124.1Z" shape-rendering="crispEdges"/><path fill="#727272" d="M112.9,1238.6L-13.5,1245.4L416.7,1240.3Z" shape-rendering="crispEdges"/><path fill="#626262" d="M633.5,1241.9L-13.5,1245.4L1076.7,1243.7Z" shape-rendering="crispEdges"/><path fill="#444" d="M1076.7,1243.7L-13.5,1245.4L2031.6,1244.9Z" shape-rendering="crispEdges"/><path fill="#6C6C6C" d="M2039,490.6L2032.1,-164.3L2031.3,268.2Z" shape-rendering="crispEdges"/><path fill="#777" d="M2021.1,-42.1L2032.1,-164.3L1915.8,-151.9Z" shape-rendering="crispEdges"/><path fill="#777" d="M1915.8,-151.9L2032.1,-164.3L1825,-163.6Z" shape-rendering="crispEdges"/><path fill="silver" d="M1825,-163.6L-113.4,-164.5L1501.8,-161.7Z" shape-rendering="crispEdges"/><path fill="#777" d="M-111.1,1017.2L-102.1,1131.7L-12.1,1124.2Z" shape-rendering="crispEdges"/><path fill="#FFF" d="M3.5,-150.3L-108.1,-52.2L2.4,-44Z" shape-rendering="crispEdges"/><path fill="#7A7A7A" d="M-115.3,921.3L-113.2,1243.8L-111.1,1017.2Z" shape-rendering="crispEdges"/><path fill="#777" d="M-111.1,1017.2L-113.2,1243.8L-102.1,1131.7Z" shape-rendering="crispEdges"/><path fill="#777" d="M-102.1,1131.7L-113.2,1243.8L-13.5,1245.4Z" shape-rendering="crispEdges"/><path fill="#888" d="M-119.4,698.8L-113.2,1243.8L-115.3,921.3Z" shape-rendering="crispEdges"/><path fill="#F8F8F8" d="M542.1,-159.9L-113.4,-164.5L220.3,-152.6Z" shape-rendering="crispEdges"/><path fill="#FFF" d="M3.5,-150.3L-113.4,-164.5L-108.1,-52.2Z" shape-rendering="crispEdges"/><path fill="#FFF" d="M-108.1,-52.2L-113.4,-164.5L-115.2,62.2Z" shape-rendering="crispEdges"/><path fill="#F8F8F8" d="M-115.2,62.2L-113.4,-164.5L-119.7,478.4Z" shape-rendering="crispEdges"/><path fill="#B3B3B3" d="M2032.1,-164.3L-113.4,-164.5L1825,-163.6Z" shape-rendering="crispEdges"/></svg>