<svg xmlns="http://www.w3.org/2000/svg" width="1920" height="1080"><path fill="#9995C6" d="M987.7,552.6L1029.5,593.5L1012.9,521.1Z" shape-rendering="crispEdges"/><path fill="#9591C4" d="M987.7,552.6L1008.3,633.5L1029.5,593.5Z" shape-rendering="crispEdges"/><path fill="#9F9BC9" d="M1012.9,521.1L961.3,478.6L987.7,552.6Z" shape-rendering="crispEdges"/><path fill="#9490C3" d="M987.7,552.6L950.1,665.5L1008.3,633.5Z" shape-rendering="crispEdges"/><path fill="#908CC1" d="M1103.8,646.9L1129,553.3L1029.5,593.5Z" shape-rendering="crispEdges"/><path fill="#9692C4" d="M1029.5,593.5L1129,553.3L1012.9,521.1Z" shape-rendering="crispEdges"/><path fill="#A6A4CE" d="M1031.4,426.6L954.5,452.3L961.3,478.6Z" shape-rendering="crispEdges"/><path fill="#8F8CC1" d="M1008.3,633.5L1103.8,646.9L1029.5,593.5Z" shape-rendering="crispEdges"/><path fill="#9995C6" d="M1129,553.3L1115.7,476.3L1012.9,521.1Z" shape-rendering="crispEdges"/><path fill="#A19ECA" d="M961.3,478.6L908.7,516L987.7,552.6Z" shape-rendering="crispEdges"/><path fill="#A3A0CC" d="M1031.4,426.6L961.3,478.6L1012.9,521.1Z" shape-rendering="crispEdges"/><path fill="#A6A3CD" d="M961.3,478.6L954.5,452.3L908.7,516Z" shape-rendering="crispEdges"/><path fill="#9F9DCA" d="M1115.7,476.3L1031.4,426.6L1012.9,521.1Z" shape-rendering="crispEdges"/><path fill="#9A96C6" d="M869.3,560.8L950.1,665.5L987.7,552.6Z" shape-rendering="crispEdges"/><path fill="#8B87BF" d="M1008.3,633.5L1035.8,709.9L1103.8,646.9Z" shape-rendering="crispEdges"/><path fill="#8F8BC1" d="M1196.8,601.7L1174.7,525.5L1129,553.3Z" shape-rendering="crispEdges"/><path fill="#9592C4" d="M1129,553.3L1174.7,525.5L1115.7,476.3Z" shape-rendering="crispEdges"/><path fill="#8D8AC0" d="M950.1,665.5L1035.8,709.9L1008.3,633.5Z" shape-rendering="crispEdges"/><path fill="#A6A3CD" d="M828.8,488.5L869.3,560.8L908.7,516Z" shape-rendering="crispEdges"/><path fill="#A09CC9" d="M908.7,516L869.3,560.8L987.7,552.6Z" shape-rendering="crispEdges"/><path fill="#9794C6" d="M869.3,560.8L901.2,663.6L950.1,665.5Z" shape-rendering="crispEdges"/><path fill="#8D87BF" d="M950.1,665.5L932.1,708L1035.8,709.9Z" shape-rendering="crispEdges"/><path fill="#9996C7" d="M1174.7,525.5L1137.9,436.7L1115.7,476.3Z" shape-rendering="crispEdges"/><path fill="#A09ECB" d="M1115.7,476.3L1137.9,436.7L1031.4,426.6Z" shape-rendering="crispEdges"/><path fill="#8481BC" d="M1168.7,718.6L1175.1,644.9L1103.8,646.9Z" shape-rendering="crispEdges"/><path fill="#8B87BF" d="M1103.8,646.9L1175.1,644.9L1129,553.3Z" shape-rendering="crispEdges"/><path fill="#918DC2" d="M901.2,663.6L932.1,708L950.1,665.5Z" shape-rendering="crispEdges"/><path fill="#8B87BF" d="M1175.1,644.9L1196.8,601.7L1129,553.3Z" shape-rendering="crispEdges"/><path fill="#A9A8D0" d="M1120.1,352.8L1007.8,376.4L1031.4,426.6Z" shape-rendering="crispEdges"/><path fill="#A9A7D0" d="M1031.4,426.6L1007.8,376.4L954.5,452.3Z" shape-rendering="crispEdges"/><path fill="#ABA9D0" d="M836.5,445.5L828.8,488.5L908.7,516Z" shape-rendering="crispEdges"/><path fill="#918CC1" d="M901.2,663.6L909.9,705.5L932.1,708Z" shape-rendering="crispEdges"/><path fill="#938EC3" d="M807.9,714.8L909.9,705.5L901.2,663.6Z" shape-rendering="crispEdges"/><path fill="#ADABD2" d="M1007.8,376.4L957.5,361.1L954.5,452.3Z" shape-rendering="crispEdges"/><path fill="#A9A7D0" d="M836.5,445.5L908.7,516L954.5,452.3Z" shape-rendering="crispEdges"/><path fill="#9C98C8" d="M869.3,560.8L824.1,625.3L901.2,663.6Z" shape-rendering="crispEdges"/><path fill="#A5A3CD" d="M828.8,488.5L817.7,575.5L869.3,560.8Z" shape-rendering="crispEdges"/><path fill="#A19ECB" d="M817.7,575.5L824.1,625.3L869.3,560.8Z" shape-rendering="crispEdges"/><path fill="#8278B7" d="M1100.6,783.5L1135.1,737.9L1035.8,709.9Z" shape-rendering="crispEdges"/><path fill="#8580BB" d="M1035.8,709.9L1135.1,737.9L1103.8,646.9Z" shape-rendering="crispEdges"/><path fill="#8782BC" d="M1240.1,645.5L1253.4,554.9L1196.8,601.7Z" shape-rendering="crispEdges"/><path fill="#887FBB" d="M1015.4,786.3L1035.8,709.9L932.1,708Z" shape-rendering="crispEdges"/><path fill="#827DBA" d="M1135.1,737.9L1168.7,718.6L1103.8,646.9Z" shape-rendering="crispEdges"/><path fill="#908BC1" d="M1253.4,554.9L1232.9,493.1L1174.7,525.5Z" shape-rendering="crispEdges"/><path fill="#9996C7" d="M1174.7,525.5L1211.7,444.9L1137.9,436.7Z" shape-rendering="crispEdges"/><path fill="#8C88C0" d="M1253.4,554.9L1174.7,525.5L1196.8,601.7Z" shape-rendering="crispEdges"/><path fill="#9591C5" d="M1232.9,493.1L1211.7,444.9L1174.7,525.5Z" shape-rendering="crispEdges"/><path fill="#A5A3CE" d="M1137.9,436.7L1120.1,352.8L1031.4,426.6Z" shape-rendering="crispEdges"/><path fill="#AEADD3" d="M856.9,410L836.5,445.5L954.5,452.3Z" shape-rendering="crispEdges"/><path fill="#AFAED3" d="M957.5,361.1L856.9,410L954.5,452.3Z" shape-rendering="crispEdges"/><path fill="#9E9CCB" d="M1211.7,444.9L1160.7,378.4L1137.9,436.7Z" shape-rendering="crispEdges"/><path fill="#B3B1D5" d="M1007.8,376.4L960.7,286.2L957.5,361.1Z" shape-rendering="crispEdges"/><path fill="#A4A2CE" d="M1160.7,378.4L1120.1,352.8L1137.9,436.7Z" shape-rendering="crispEdges"/><path fill="#8581BC" d="M1240.1,645.5L1196.8,601.7L1175.1,644.9Z" shape-rendering="crispEdges"/><path fill="#887CB9" d="M942.5,805L1015.4,786.3L932.1,708Z" shape-rendering="crispEdges"/><path fill="#817EBA" d="M1168.7,718.6L1240.1,645.5L1175.1,644.9Z" shape-rendering="crispEdges"/><path fill="#8378B7" d="M1015.4,786.3L1100.6,783.5L1035.8,709.9Z" shape-rendering="crispEdges"/><path fill="#7C72B4" d="M1135.1,737.9L1174,819.7L1168.7,718.6Z" shape-rendering="crispEdges"/><path fill="#B7B5D7" d="M960.7,286.2L871.6,347.3L957.5,361.1Z" shape-rendering="crispEdges"/><path fill="#B5B3D6" d="M957.5,361.1L871.6,347.3L856.9,410Z" shape-rendering="crispEdges"/><path fill="#B4B4D7" d="M856.9,410L818.6,369.7L836.5,445.5Z" shape-rendering="crispEdges"/><path fill="#8E85BE" d="M873.6,789.9L932.1,708L909.9,705.5Z" shape-rendering="crispEdges"/><path fill="#8B7FBB" d="M873.6,789.9L942.5,805L932.1,708Z" shape-rendering="crispEdges"/><path fill="#7869AF" d="M1167.6,856.2L1174,819.7L1100.6,783.5Z" shape-rendering="crispEdges"/><path fill="#9C9AC9" d="M728.3,626.2L807.9,714.8L824.1,625.3Z" shape-rendering="crispEdges"/><path fill="#9794C6" d="M824.1,625.3L807.9,714.8L901.2,663.6Z" shape-rendering="crispEdges"/><path fill="#9691C5" d="M1232.9,493.1L1273.8,449.6L1211.7,444.9Z" shape-rendering="crispEdges"/><path fill="#9F9DCB" d="M1211.7,444.9L1244.6,351.7L1160.7,378.4Z" shape-rendering="crispEdges"/><path fill="#ACAAD2" d="M1184.4,296.3L1109.2,292.9L1120.1,352.8Z" shape-rendering="crispEdges"/><path fill="#918AC1" d="M1338.1,526.5L1273.8,449.6L1232.9,493.1Z" shape-rendering="crispEdges"/><path fill="#8E86BF" d="M1338.1,526.5L1232.9,493.1L1253.4,554.9Z" shape-rendering="crispEdges"/><path fill="#A8A6D0" d="M1184.4,296.3L1120.1,352.8L1160.7,378.4Z" shape-rendering="crispEdges"/><path fill="#ADABD2" d="M1120.1,352.8L1109.2,292.9L1007.8,376.4Z" shape-rendering="crispEdges"/><path fill="#B0AED4" d="M760.4,442.6L750.3,517.4L828.8,488.5Z" shape-rendering="crispEdges"/><path fill="#A9A7D0" d="M828.8,488.5L750.3,517.4L817.7,575.5Z" shape-rendering="crispEdges"/><path fill="#A19FCC" d="M817.7,575.5L728.3,626.2L824.1,625.3Z" shape-rendering="crispEdges"/><path fill="#B0AFD4" d="M760.4,442.6L828.8,488.5L836.5,445.5Z" shape-rendering="crispEdges"/><path fill="#B5B3D6" d="M1007.4,270.3L960.7,286.2L1007.8,376.4Z" shape-rendering="crispEdges"/><path fill="#9088C0" d="M807.9,714.8L873.6,789.9L909.9,705.5Z" shape-rendering="crispEdges"/><path fill="#BDBCDB" d="M829,273.5L818.6,369.7L871.6,347.3Z" shape-rendering="crispEdges"/><path fill="#B7B7D8" d="M871.6,347.3L818.6,369.7L856.9,410Z" shape-rendering="crispEdges"/><path fill="#B2B0D5" d="M1109.2,292.9L1007.4,270.3L1007.8,376.4Z" shape-rendering="crispEdges"/><path fill="#B5B5D7" d="M818.6,369.7L760.4,442.6L836.5,445.5Z" shape-rendering="crispEdges"/><path fill="#AFADD3" d="M656.9,585.1L729,552.6L654.2,495.9Z" shape-rendering="crispEdges"/><path fill="#A9A7D0" d="M750.3,517.4L729,552.6L817.7,575.5Z" shape-rendering="crispEdges"/><path fill="#9B97C8" d="M1273.8,449.6L1244.6,351.7L1211.7,444.9Z" shape-rendering="crispEdges"/><path fill="#7E6FB3" d="M1045,871.5L1100.6,783.5L1015.4,786.3Z" shape-rendering="crispEdges"/><path fill="#7C6FB3" d="M1100.6,783.5L1174,819.7L1135.1,737.9Z" shape-rendering="crispEdges"/><path fill="#7D76B7" d="M1168.7,718.6L1279.5,732.1L1240.1,645.5Z" shape-rendering="crispEdges"/><path fill="#A6A4CE" d="M729,552.6L728.3,626.2L817.7,575.5Z" shape-rendering="crispEdges"/><path fill="#8F83BD" d="M807.9,714.8L838.1,825L873.6,789.9Z" shape-rendering="crispEdges"/><path fill="#A5A3CF" d="M1244.6,351.7L1184.4,296.3L1160.7,378.4Z" shape-rendering="crispEdges"/><path fill="#BCB9D9" d="M1040.4,199.7L987.7,230.1L1007.4,270.3Z" shape-rendering="crispEdges"/><path fill="#796FB3" d="M1174,819.7L1279.5,732.1L1168.7,718.6Z" shape-rendering="crispEdges"/><path fill="#8980BB" d="M1341.5,571.2L1338.1,526.5L1253.4,554.9Z" shape-rendering="crispEdges"/><path fill="#867FBB" d="M1341.5,571.2L1253.4,554.9L1240.1,645.5Z" shape-rendering="crispEdges"/><path fill="#9D97C8" d="M1273.8,449.6L1311.9,354L1244.6,351.7Z" shape-rendering="crispEdges"/><path fill="#7F6CB1" d="M979.5,904.7L1045,871.5L942.5,805Z" shape-rendering="crispEdges"/><path fill="#8171B4" d="M942.5,805L1045,871.5L1015.4,786.3Z" shape-rendering="crispEdges"/><path fill="#8077B7" d="M1360.4,665.6L1341.5,571.2L1240.1,645.5Z" shape-rendering="crispEdges"/><path fill="#928AC1" d="M1338.1,526.5L1319.6,438.8L1273.8,449.6Z" shape-rendering="crispEdges"/><path fill="#9185BF" d="M757.8,805.6L838.1,825L807.9,714.8Z" shape-rendering="crispEdges"/><path fill="#8776B7" d="M873.6,789.9L891.6,890.1L942.5,805Z" shape-rendering="crispEdges"/><path fill="#B6B3D7" d="M1098,219.7L1007.4,270.3L1109.2,292.9Z" shape-rendering="crispEdges"/><path fill="#BBB8D9" d="M1007.4,270.3L987.7,230.1L960.7,286.2Z" shape-rendering="crispEdges"/><path fill="#BDBBDA" d="M960.7,286.2L883.7,252L871.6,347.3Z" shape-rendering="crispEdges"/><path fill="#7766AE" d="M1122.6,899.3L1167.6,856.2L1100.6,783.5Z" shape-rendering="crispEdges"/><path fill="#7565AE" d="M1329.5,790.2L1330.3,746.4L1279.5,732.1Z" shape-rendering="crispEdges"/><path fill="#BEBCDB" d="M987.7,230.1L883.7,252L960.7,286.2Z" shape-rendering="crispEdges"/><path fill="#BCBCDB" d="M818.6,369.7L739.6,325.5L760.4,442.6Z" shape-rendering="crispEdges"/><path fill="#9A96C8" d="M728.3,626.2L741.9,746.5L807.9,714.8Z" shape-rendering="crispEdges"/><path fill="#C0BFDC" d="M883.7,252L829,273.5L871.6,347.3Z" shape-rendering="crispEdges"/><path fill="#B1AFD5" d="M1184.4,296.3L1098,219.7L1109.2,292.9Z" shape-rendering="crispEdges"/><path fill="#826EB2" d="M891.6,890.1L979.5,904.7L942.5,805Z" shape-rendering="crispEdges"/><path fill="#7967AF" d="M1045,871.5L1122.6,899.3L1100.6,783.5Z" shape-rendering="crispEdges"/><path fill="#988FC4" d="M1390.6,419.7L1311.9,354L1319.6,438.8Z" shape-rendering="crispEdges"/><path fill="#9992C5" d="M1319.6,438.8L1311.9,354L1273.8,449.6Z" shape-rendering="crispEdges"/><path fill="#A8A3CF" d="M1244.6,351.7L1280.7,259.8L1184.4,296.3Z" shape-rendering="crispEdges"/><path fill="#B2AFD5" d="M1184.4,296.3L1194.1,186.9L1098,219.7Z" shape-rendering="crispEdges"/><path fill="#776BB1" d="M1330.3,746.4L1360.4,665.6L1279.5,732.1Z" shape-rendering="crispEdges"/><path fill="#7B73B5" d="M1279.5,732.1L1360.4,665.6L1240.1,645.5Z" shape-rendering="crispEdges"/><path fill="#887CB9" d="M1341.5,571.2L1418.6,525.6L1338.1,526.5Z" shape-rendering="crispEdges"/><path fill="#9187C0" d="M1338.1,526.5L1390.6,419.7L1319.6,438.8Z" shape-rendering="crispEdges"/><path fill="#7761AB" d="M1048.2,937.6L1122.6,899.3L1045,871.5Z" shape-rendering="crispEdges"/><path fill="#BAB7D8" d="M1098,219.7L1040.4,199.7L1007.4,270.3Z" shape-rendering="crispEdges"/><path fill="#C2C0DD" d="M987.7,230.1L887.3,187.9L883.7,252Z" shape-rendering="crispEdges"/><path fill="#8874B6" d="M813.3,892.6L891.6,890.1L838.1,825Z" shape-rendering="crispEdges"/><path fill="#8978B8" d="M838.1,825L891.6,890.1L873.6,789.9Z" shape-rendering="crispEdges"/><path fill="#A9A7D0" d="M656.9,585.1L728.3,626.2L729,552.6Z" shape-rendering="crispEdges"/><path fill="#A7A5CF" d="M656.9,585.1L672.3,626.1L728.3,626.2Z" shape-rendering="crispEdges"/><path fill="#9D99C9" d="M728.3,626.2L680.8,723.2L741.9,746.5Z" shape-rendering="crispEdges"/><path fill="#B0AED4" d="M729,552.6L750.3,517.4L654.2,495.9Z" shape-rendering="crispEdges"/><path fill="#715EAA" d="M1284.7,825.4L1174,819.7L1272.3,877.1Z" shape-rendering="crispEdges"/><path fill="#7566AE" d="M1284.7,825.4L1279.5,732.1L1174,819.7Z" shape-rendering="crispEdges"/><path fill="#9589C1" d="M670.2,814.5L757.8,805.6L741.9,746.5Z" shape-rendering="crispEdges"/><path fill="#958BC2" d="M741.9,746.5L757.8,805.6L807.9,714.8Z" shape-rendering="crispEdges"/><path fill="#C0C0DD" d="M829,273.5L739.6,325.5L818.6,369.7Z" shape-rendering="crispEdges"/><path fill="#B3B2D6" d="M654.2,495.9L750.3,517.4L760.4,442.6Z" shape-rendering="crispEdges"/><path fill="#7260AB" d="M1272.3,877.1L1174,819.7L1167.6,856.2Z" shape-rendering="crispEdges"/><path fill="#B9B9DA" d="M670.4,406.1L654.2,495.9L760.4,442.6Z" shape-rendering="crispEdges"/><path fill="#7B6EB2" d="M1435.2,668.6L1404.2,588.2L1360.4,665.6Z" shape-rendering="crispEdges"/><path fill="#8074B5" d="M1360.4,665.6L1404.2,588.2L1341.5,571.2Z" shape-rendering="crispEdges"/><path fill="#7960AB" d="M947.1,972.5L1048.2,937.6L979.5,904.7Z" shape-rendering="crispEdges"/><path fill="#7A63AD" d="M979.5,904.7L1048.2,937.6L1045,871.5Z" shape-rendering="crispEdges"/><path fill="#6F5AA8" d="M1198.6,939.4L1272.3,877.1L1167.6,856.2Z" shape-rendering="crispEdges"/><path fill="#A29ECC" d="M593.8,720.3L680.8,723.2L672.3,626.1Z" shape-rendering="crispEdges"/><path fill="#A2A0CD" d="M672.3,626.1L680.8,723.2L728.3,626.2Z" shape-rendering="crispEdges"/><path fill="#7362AC" d="M1284.7,825.4L1329.5,790.2L1279.5,732.1Z" shape-rendering="crispEdges"/><path fill="#7567AF" d="M1330.3,746.4L1395.2,739.5L1360.4,665.6Z" shape-rendering="crispEdges"/><path fill="#BDBEDD" d="M739.6,325.5L670.4,406.1L760.4,442.6Z" shape-rendering="crispEdges"/><path fill="#C5C5E0" d="M829,273.5L748.3,287.4L739.6,325.5Z" shape-rendering="crispEdges"/><path fill="#C3C4E0" d="M739.6,325.5L682.2,326.5L670.4,406.1Z" shape-rendering="crispEdges"/><path fill="#C7C7E1" d="M787.9,229.1L748.3,287.4L829,273.5Z" shape-rendering="crispEdges"/><path fill="#C5C4DF" d="M787.9,229.1L829,273.5L883.7,252Z" shape-rendering="crispEdges"/><path fill="#8D80BC" d="M1418.6,525.6L1390.6,419.7L1338.1,526.5Z" shape-rendering="crispEdges"/><path fill="#745CA9" d="M1048.2,937.6L1106.5,939.6L1122.6,899.3Z" shape-rendering="crispEdges"/><path fill="#A49CCB" d="M1354.3,296.9L1280.7,259.8L1311.9,354Z" shape-rendering="crispEdges"/><path fill="#A49DCC" d="M1311.9,354L1280.7,259.8L1244.6,351.7Z" shape-rendering="crispEdges"/><path fill="#C0BCDC" d="M1091.4,103.7L1007.9,129.8L1040.4,199.7Z" shape-rendering="crispEdges"/><path fill="#C3BFDD" d="M1007.9,129.8L887.3,187.9L987.7,230.1Z" shape-rendering="crispEdges"/><path fill="#8478B7" d="M1404.2,588.2L1418.6,525.6L1341.5,571.2Z" shape-rendering="crispEdges"/><path fill="#8D7AB9" d="M758.2,887.8L813.3,892.6L757.8,805.6Z" shape-rendering="crispEdges"/><path fill="#8C7BBA" d="M757.8,805.6L813.3,892.6L838.1,825Z" shape-rendering="crispEdges"/><path fill="#7E65AE" d="M891.6,890.1L947.1,972.5L979.5,904.7Z" shape-rendering="crispEdges"/><path fill="#C6C5E0" d="M887.3,187.9L787.9,229.1L883.7,252Z" shape-rendering="crispEdges"/><path fill="#715CA9" d="M1198.6,939.4L1167.6,856.2L1122.6,899.3Z" shape-rendering="crispEdges"/><path fill="#6F5AA8" d="M1284.7,825.4L1356.5,850.8L1329.5,790.2Z" shape-rendering="crispEdges"/><path fill="#AEAAD2" d="M1280.7,259.8L1194.1,186.9L1184.4,296.3Z" shape-rendering="crispEdges"/><path fill="#BFBCDB" d="M1040.4,199.7L1007.9,129.8L987.7,230.1Z" shape-rendering="crispEdges"/><path fill="#846EB3" d="M813.3,892.6L861.8,932.4L891.6,890.1Z" shape-rendering="crispEdges"/><path fill="#7056A6" d="M1048.2,937.6L1124.7,1041.5L1106.5,939.6Z" shape-rendering="crispEdges"/><path fill="#CACBE3" d="M633.5,267.8L682.2,326.5L748.3,287.4Z" shape-rendering="crispEdges"/><path fill="#C6C7E1" d="M748.3,287.4L682.2,326.5L739.6,325.5Z" shape-rendering="crispEdges"/><path fill="#B6B5D7" d="M577,499.9L584.3,563.3L654.2,495.9Z" shape-rendering="crispEdges"/><path fill="#6F5BA8" d="M1391.3,827.9L1395.2,739.5L1329.5,790.2Z" shape-rendering="crispEdges"/><path fill="#7361AC" d="M1329.5,790.2L1395.2,739.5L1330.3,746.4Z" shape-rendering="crispEdges"/><path fill="#8473B5" d="M1480.7,587.9L1459,521.2L1418.6,525.6Z" shape-rendering="crispEdges"/><path fill="#9F94C7" d="M1436.1,346.9L1354.3,296.9L1311.9,354Z" shape-rendering="crispEdges"/><path fill="#AFA9D2" d="M1280.7,259.8L1283.5,201.5L1194.1,186.9Z" shape-rendering="crispEdges"/><path fill="#7159A8" d="M1106.5,939.6L1198.6,939.4L1122.6,899.3Z" shape-rendering="crispEdges"/><path fill="#8067AF" d="M861.8,932.4L947.1,972.5L891.6,890.1Z" shape-rendering="crispEdges"/><path fill="#684EA1" d="M1208.1,1023.2L1232.4,980.3L1198.6,939.4Z" shape-rendering="crispEdges"/><path fill="#CECDE4" d="M782.9,105.7L761.2,224.9L787.9,229.1Z" shape-rendering="crispEdges"/><path fill="#CACAE2" d="M787.9,229.1L761.2,224.9L748.3,287.4Z" shape-rendering="crispEdges"/><path fill="#907EBC" d="M683.5,861.8L758.2,887.8L757.8,805.6Z" shape-rendering="crispEdges"/><path fill="#856DB3" d="M813.3,892.6L798.7,944.1L861.8,932.4Z" shape-rendering="crispEdges"/><path fill="#795DA9" d="M882.2,1008.9L962.8,1004.8L947.1,972.5Z" shape-rendering="crispEdges"/><path fill="#7668AF" d="M1395.2,739.5L1435.2,668.6L1360.4,665.6Z" shape-rendering="crispEdges"/><path fill="#BCB9DA" d="M1091.4,103.7L1040.4,199.7L1098,219.7Z" shape-rendering="crispEdges"/><path fill="#CAC8E2" d="M887.3,187.9L866.1,116.3L787.9,229.1Z" shape-rendering="crispEdges"/><path fill="#8273B4" d="M1480.7,587.9L1418.6,525.6L1404.2,588.2Z" shape-rendering="crispEdges"/><path fill="#8E7FBC" d="M1418.6,525.6L1488.4,441.5L1390.6,419.7Z" shape-rendering="crispEdges"/><path fill="#9A8FC4" d="M1390.6,419.7L1436.1,346.9L1311.9,354Z" shape-rendering="crispEdges"/><path fill="#9B90C5" d="M599.5,776.8L670.2,814.5L680.8,723.2Z" shape-rendering="crispEdges"/><path fill="#998FC4" d="M680.8,723.2L670.2,814.5L741.9,746.5Z" shape-rendering="crispEdges"/><path fill="#ADA4D0" d="M1326.3,204.1L1283.5,201.5L1280.7,259.8Z" shape-rendering="crispEdges"/><path fill="#C5C2DE" d="M1017.3,65.1L981.5,104.6L1007.9,129.8Z" shape-rendering="crispEdges"/><path fill="#B2B0D4" d="M654.2,495.9L584.3,563.3L656.9,585.1Z" shape-rendering="crispEdges"/><path fill="#A9A7D0" d="M656.9,585.1L566.2,659.4L672.3,626.1Z" shape-rendering="crispEdges"/><path fill="#BCBBDB" d="M577,499.9L654.2,495.9L583.4,416.8Z" shape-rendering="crispEdges"/><path fill="#6A50A3" d="M1331.3,938.6L1356.5,850.8L1272.3,877.1Z" shape-rendering="crispEdges"/><path fill="#6D57A6" d="M1272.3,877.1L1356.5,850.8L1284.7,825.4Z" shape-rendering="crispEdges"/><path fill="#7464AD" d="M1484.6,712.5L1491,650.9L1435.2,668.6Z" shape-rendering="crispEdges"/><path fill="#8971B5" d="M735.6,942.1L798.7,944.1L758.2,887.8Z" shape-rendering="crispEdges"/><path fill="#8872B5" d="M758.2,887.8L798.7,944.1L813.3,892.6Z" shape-rendering="crispEdges"/><path fill="#BDBDDC" d="M583.4,416.8L654.2,495.9L670.4,406.1Z" shape-rendering="crispEdges"/><path fill="#7D62AC" d="M882.2,1008.9L947.1,972.5L861.8,932.4Z" shape-rendering="crispEdges"/><path fill="#765BA8" d="M947.1,972.5L1011.4,1019.1L1048.2,937.6Z" shape-rendering="crispEdges"/><path fill="#BBB7D9" d="M1091.4,103.7L1098,219.7L1187.8,125.2Z" shape-rendering="crispEdges"/><path fill="#C6C2DE" d="M1007.9,129.8L981.5,104.6L887.3,187.9Z" shape-rendering="crispEdges"/><path fill="#6D56A6" d="M1356.5,850.8L1391.3,827.9L1329.5,790.2Z" shape-rendering="crispEdges"/><path fill="#7C6DB2" d="M1435.2,668.6L1480.7,587.9L1404.2,588.2Z" shape-rendering="crispEdges"/><path fill="#7969AF" d="M1491,650.9L1480.7,587.9L1435.2,668.6Z" shape-rendering="crispEdges"/><path fill="#B7B3D7" d="M1187.8,125.2L1098,219.7L1194.1,186.9Z" shape-rendering="crispEdges"/><path fill="#9584BF" d="M595.9,869.3L683.5,861.8L670.2,814.5Z" shape-rendering="crispEdges"/><path fill="#9484BF" d="M670.2,814.5L683.5,861.8L757.8,805.6Z" shape-rendering="crispEdges"/><path fill="#B7B2D7" d="M1262.2,103.2L1187.8,125.2L1194.1,186.9Z" shape-rendering="crispEdges"/><path fill="#ADABD2" d="M566.2,659.4L656.9,585.1L584.3,563.3Z" shape-rendering="crispEdges"/><path fill="#A6A3CF" d="M566.2,659.4L593.8,720.3L672.3,626.1Z" shape-rendering="crispEdges"/><path fill="#8979B8" d="M1488.4,441.5L1418.6,525.6L1459,521.2Z" shape-rendering="crispEdges"/><path fill="#9789C1" d="M1484.6,361.6L1436.1,346.9L1390.6,419.7Z" shape-rendering="crispEdges"/><path fill="#A9A0CD" d="M1354.3,296.9L1326.3,204.1L1280.7,259.8Z" shape-rendering="crispEdges"/><path fill="#765AA8" d="M962.8,1004.8L1011.4,1019.1L947.1,972.5Z" shape-rendering="crispEdges"/><path fill="#C5C6E0" d="M565.4,376.3L670.4,406.1L682.2,326.5Z" shape-rendering="crispEdges"/><path fill="#C4C4E0" d="M565.4,376.3L583.4,416.8L670.4,406.1Z" shape-rendering="crispEdges"/><path fill="#A79CCB" d="M1410.8,257.1L1326.3,204.1L1354.3,296.9Z" shape-rendering="crispEdges"/><path fill="#B3ADD4" d="M1283.5,201.5L1262.2,103.2L1194.1,186.9Z" shape-rendering="crispEdges"/><path fill="#C9C6E0" d="M981.5,104.6L866.1,116.3L887.3,187.9Z" shape-rendering="crispEdges"/><path fill="#B1AED4" d="M495.1,584.2L566.2,659.4L584.3,563.3Z" shape-rendering="crispEdges"/><path fill="#6D53A4" d="M1124.7,1041.5L1198.6,939.4L1106.5,939.6Z" shape-rendering="crispEdges"/><path fill="#6B52A4" d="M1198.6,939.4L1232.4,980.3L1272.3,877.1Z" shape-rendering="crispEdges"/><path fill="#694FA2" d="M1356.5,850.8L1426.7,885.7L1391.3,827.9Z" shape-rendering="crispEdges"/><path fill="#8065AE" d="M798.5,1031.3L882.2,1008.9L798.7,944.1Z" shape-rendering="crispEdges"/><path fill="#8167AF" d="M798.7,944.1L882.2,1008.9L861.8,932.4Z" shape-rendering="crispEdges"/><path fill="#7355A4" d="M962.8,1004.8L981.9,1111.6L1011.4,1019.1Z" shape-rendering="crispEdges"/><path fill="#7362AC" d="M1484.6,712.5L1435.2,668.6L1395.2,739.5Z" shape-rendering="crispEdges"/><path fill="#816FB2" d="M1537.4,563.3L1459,521.2L1480.7,587.9Z" shape-rendering="crispEdges"/><path fill="#8775B6" d="M1579.2,511L1488.4,441.5L1459,521.2Z" shape-rendering="crispEdges"/><path fill="#A29ACA" d="M528.3,727.3L599.5,776.8L593.8,720.3Z" shape-rendering="crispEdges"/><path fill="#9F97C8" d="M593.8,720.3L599.5,776.8L680.8,723.2Z" shape-rendering="crispEdges"/><path fill="#8E77B8" d="M657.6,954.3L735.6,942.1L683.5,861.8Z" shape-rendering="crispEdges"/><path fill="#8D78B9" d="M683.5,861.8L735.6,942.1L758.2,887.8Z" shape-rendering="crispEdges"/><path fill="#6F5AA8" d="M1484.6,792.3L1484.6,712.5L1395.2,739.5Z" shape-rendering="crispEdges"/><path fill="#CDCDE5" d="M666.8,189.3L748.3,287.4L761.2,224.9Z" shape-rendering="crispEdges"/><path fill="#CFCFE5" d="M666.8,189.3L633.5,267.8L748.3,287.4Z" shape-rendering="crispEdges"/><path fill="#A194C7" d="M1436.1,346.9L1410.8,257.1L1354.3,296.9Z" shape-rendering="crispEdges"/><path fill="#A091C6" d="M1464.4,292L1410.8,257.1L1436.1,346.9Z" shape-rendering="crispEdges"/><path fill="#694EA2" d="M1232.4,980.3L1331.3,938.6L1272.3,877.1Z" shape-rendering="crispEdges"/><path fill="#6D56A6" d="M1391.3,827.9L1484.6,792.3L1395.2,739.5Z" shape-rendering="crispEdges"/><path fill="#C3BFDD" d="M1091.4,103.7L1017.3,65.1L1007.9,129.8Z" shape-rendering="crispEdges"/><path fill="#CBC8E1" d="M981.5,104.6L911.1,56.1L866.1,116.3Z" shape-rendering="crispEdges"/><path fill="#C2BFDD" d="M1104.4,55L1017.3,65.1L1091.4,103.7Z" shape-rendering="crispEdges"/><path fill="#CACBE3" d="M588.5,303.9L565.4,376.3L682.2,326.5Z" shape-rendering="crispEdges"/><path fill="#C0BEDC" d="M495.1,423.3L525.2,512.9L577,499.9Z" shape-rendering="crispEdges"/><path fill="#B8B7D8" d="M577,499.9L525.2,512.9L584.3,563.3Z" shape-rendering="crispEdges"/><path fill="#6D50A1" d="M1024.4,1114.1L1124.7,1041.5L1011.4,1019.1Z" shape-rendering="crispEdges"/><path fill="#7155A5" d="M1011.4,1019.1L1124.7,1041.5L1048.2,937.6Z" shape-rendering="crispEdges"/><path fill="#65499F" d="M1232.4,980.3L1236.6,1032.4L1331.3,938.6Z" shape-rendering="crispEdges"/><path fill="#9384BF" d="M1488.4,441.5L1484.6,361.6L1390.6,419.7Z" shape-rendering="crispEdges"/><path fill="#694EA1" d="M1124.7,1041.5L1208.1,1023.2L1198.6,939.4Z" shape-rendering="crispEdges"/><path fill="#C2C2DE" d="M495.1,423.3L577,499.9L583.4,416.8Z" shape-rendering="crispEdges"/><path fill="#CDCDE5" d="M633.5,267.8L588.5,303.9L682.2,326.5Z" shape-rendering="crispEdges"/><path fill="#BCB8DA" d="M1198.2,66.1L1104.4,55L1187.8,125.2Z" shape-rendering="crispEdges"/><path fill="#BEBADB" d="M1187.8,125.2L1104.4,55L1091.4,103.7Z" shape-rendering="crispEdges"/><path fill="#B3AAD3" d="M1262.2,103.2L1283.5,201.5L1320.7,115.7Z" shape-rendering="crispEdges"/><path fill="#D2D0E6" d="M790.9,25.6L782.9,105.7L866.1,116.3Z" shape-rendering="crispEdges"/><path fill="#CECDE4" d="M866.1,116.3L782.9,105.7L787.9,229.1Z" shape-rendering="crispEdges"/><path fill="#D4D4E8" d="M633.5,267.8L527.6,227.2L588.5,303.9Z" shape-rendering="crispEdges"/><path fill="#B0A6D1" d="M1320.7,115.7L1283.5,201.5L1326.3,204.1Z" shape-rendering="crispEdges"/><path fill="#7764AD" d="M1568.7,679.2L1537.4,563.3L1491,650.9Z" shape-rendering="crispEdges"/><path fill="#7B69B0" d="M1491,650.9L1537.4,563.3L1480.7,587.9Z" shape-rendering="crispEdges"/><path fill="#907FBC" d="M1488.4,441.5L1543,434.5L1484.6,361.6Z" shape-rendering="crispEdges"/><path fill="#D3D2E7" d="M677.2,147.3L666.8,189.3L761.2,224.9Z" shape-rendering="crispEdges"/><path fill="#9B8BC3" d="M1484.6,361.6L1464.4,292L1436.1,346.9Z" shape-rendering="crispEdges"/><path fill="#AA9DCC" d="M1410.8,257.1L1386.3,188.5L1326.3,204.1Z" shape-rendering="crispEdges"/><path fill="#C8C5E0" d="M949.3,28L981.5,104.6L1017.3,65.1Z" shape-rendering="crispEdges"/><path fill="#CBC7E1" d="M949.3,28L911.1,56.1L981.5,104.6Z" shape-rendering="crispEdges"/><path fill="#AA9ACB" d="M1416,146.1L1386.3,188.5L1489.8,215.1Z" shape-rendering="crispEdges"/><path fill="#684EA1" d="M1426.7,885.7L1484.6,792.3L1391.3,827.9Z" shape-rendering="crispEdges"/><path fill="#715FAA" d="M1484.6,712.5L1558.6,704.8L1491,650.9Z" shape-rendering="crispEdges"/><path fill="#64449D" d="M1418.8,947.6L1426.7,885.7L1331.3,938.6Z" shape-rendering="crispEdges"/><path fill="#674BA0" d="M1331.3,938.6L1426.7,885.7L1356.5,850.8Z" shape-rendering="crispEdges"/><path fill="#B9B4D8" d="M1262.2,103.2L1198.2,66.1L1187.8,125.2Z" shape-rendering="crispEdges"/><path fill="#64479D" d="M1198.5,1089.8L1236.6,1032.4L1208.1,1023.2Z" shape-rendering="crispEdges"/><path fill="#664A9F" d="M1208.1,1023.2L1236.6,1032.4L1232.4,980.3Z" shape-rendering="crispEdges"/><path fill="#A6A1CE" d="M566.2,659.4L528.3,727.3L593.8,720.3Z" shape-rendering="crispEdges"/><path fill="#998AC2" d="M599.5,776.8L595.9,869.3L670.2,814.5Z" shape-rendering="crispEdges"/><path fill="#A9A5D0" d="M493.3,674.3L528.3,727.3L566.2,659.4Z" shape-rendering="crispEdges"/><path fill="#866CB3" d="M736,1012.9L798.7,944.1L735.6,942.1Z" shape-rendering="crispEdges"/><path fill="#8368B0" d="M736,1012.9L798.5,1031.3L798.7,944.1Z" shape-rendering="crispEdges"/><path fill="#795CA8" d="M882.2,1008.9L863.9,1075.3L962.8,1004.8Z" shape-rendering="crispEdges"/><path fill="#BAB7D9" d="M453,597.1L495.1,584.2L428.7,517.4Z" shape-rendering="crispEdges"/><path fill="#B7B5D7" d="M525.2,512.9L495.1,584.2L584.3,563.3Z" shape-rendering="crispEdges"/><path fill="#C7C7E1" d="M495.1,423.3L583.4,416.8L565.4,376.3Z" shape-rendering="crispEdges"/><path fill="#AFA3CF" d="M1386.3,188.5L1320.7,115.7L1326.3,204.1Z" shape-rendering="crispEdges"/><path fill="#B9B3D8" d="M1262.2,103.2L1258.3,26.5L1198.2,66.1Z" shape-rendering="crispEdges"/><path fill="#9C8CC3" d="M521.6,819.6L595.9,869.3L599.5,776.8Z" shape-rendering="crispEdges"/><path fill="#8A76B7" d="M1579.2,511L1543,434.5L1488.4,441.5Z" shape-rendering="crispEdges"/><path fill="#9988C1" d="M1484.6,361.6L1538.8,350.2L1464.4,292Z" shape-rendering="crispEdges"/><path fill="#CAC6E1" d="M974.6,-9.5L1017.3,65.1L1027.4,-35.4Z" shape-rendering="crispEdges"/><path fill="#CAC7E1" d="M974.6,-9.5L949.3,28L1017.3,65.1Z" shape-rendering="crispEdges"/><path fill="#D6D5E9" d="M732.1,54.4L714.7,110.7L782.9,105.7Z" shape-rendering="crispEdges"/><path fill="#D2D1E7" d="M714.7,110.7L761.2,224.9L782.9,105.7Z" shape-rendering="crispEdges"/><path fill="#D4D3E8" d="M714.7,110.7L677.2,147.3L761.2,224.9Z" shape-rendering="crispEdges"/><path fill="#D5D5E9" d="M666.8,189.3L578.7,184.8L633.5,267.8Z" shape-rendering="crispEdges"/><path fill="#D3D3E7" d="M510.3,250.2L530.4,342.8L588.5,303.9Z" shape-rendering="crispEdges"/><path fill="#CDCDE5" d="M588.5,303.9L530.4,342.8L565.4,376.3Z" shape-rendering="crispEdges"/><path fill="#896FB4" d="M657.6,954.3L736,1012.9L735.6,942.1Z" shape-rendering="crispEdges"/><path fill="#927DBC" d="M595.9,869.3L657.6,954.3L683.5,861.8Z" shape-rendering="crispEdges"/><path fill="#D0CEE5" d="M790.9,25.6L866.1,116.3L911.1,56.1Z" shape-rendering="crispEdges"/><path fill="#7C5EA9" d="M799,1079.6L863.9,1075.3L798.5,1031.3Z" shape-rendering="crispEdges"/><path fill="#7C5FAA" d="M798.5,1031.3L863.9,1075.3L882.2,1008.9Z" shape-rendering="crispEdges"/><path fill="#66499E" d="M1124.7,1041.5L1198.5,1089.8L1208.1,1023.2Z" shape-rendering="crispEdges"/><path fill="#AFACD3" d="M495.1,584.2L493.3,674.3L566.2,659.4Z" shape-rendering="crispEdges"/><path fill="#A195C8" d="M528.3,727.3L521.6,819.6L599.5,776.8Z" shape-rendering="crispEdges"/><path fill="#CBCBE3" d="M530.4,342.8L495.1,423.3L565.4,376.3Z" shape-rendering="crispEdges"/><path fill="#B3B1D5" d="M495.1,584.2L453,597.1L493.3,674.3Z" shape-rendering="crispEdges"/><path fill="#9381BD" d="M1543,434.5L1538.8,350.2L1484.6,361.6Z" shape-rendering="crispEdges"/><path fill="#A798C9" d="M1489.8,215.1L1386.3,188.5L1410.8,257.1Z" shape-rendering="crispEdges"/><path fill="#AFA1CF" d="M1386.3,188.5L1416,146.1L1320.7,115.7Z" shape-rendering="crispEdges"/><path fill="#6A50A3" d="M1580.9,789.8L1558.6,704.8L1484.6,792.3Z" shape-rendering="crispEdges"/><path fill="#6D57A6" d="M1484.6,792.3L1558.6,704.8L1484.6,712.5Z" shape-rendering="crispEdges"/><path fill="#826FB3" d="M1537.4,563.3L1579.2,511L1459,521.2Z" shape-rendering="crispEdges"/><path fill="#8E7ABA" d="M1543,434.5L1644.1,433.2L1538.8,350.2Z" shape-rendering="crispEdges"/><path fill="#61409A" d="M1387.2,1024L1418.8,947.6L1331.3,938.6Z" shape-rendering="crispEdges"/><path fill="#65489F" d="M1426.7,885.7L1488,884.2L1484.6,792.3Z" shape-rendering="crispEdges"/><path fill="#7E68AF" d="M1647.8,560.3L1579.2,511L1537.4,563.3Z" shape-rendering="crispEdges"/><path fill="#7456A5" d="M863.9,1075.3L981.9,1111.6L962.8,1004.8Z" shape-rendering="crispEdges"/><path fill="#715EAA" d="M1558.6,704.8L1568.7,679.2L1491,650.9Z" shape-rendering="crispEdges"/><path fill="#6F50A1" d="M981.9,1111.6L1024.4,1114.1L1011.4,1019.1Z" shape-rendering="crispEdges"/><path fill="#65489D" d="M1126.8,1120.2L1198.5,1089.8L1124.7,1041.5Z" shape-rendering="crispEdges"/><path fill="#5F3E99" d="M1360.8,1054.9L1387.2,1024L1331.3,938.6Z" shape-rendering="crispEdges"/><path fill="#A393C7" d="M1489.8,215.1L1410.8,257.1L1464.4,292Z" shape-rendering="crispEdges"/><path fill="#B8B0D6" d="M1307.1,34.8L1258.3,26.5L1262.2,103.2Z" shape-rendering="crispEdges"/><path fill="#62429C" d="M1418.8,947.6L1488,884.2L1426.7,885.7Z" shape-rendering="crispEdges"/><path fill="#6D57A7" d="M1629.5,746.3L1622.6,635.2L1568.7,679.2Z" shape-rendering="crispEdges"/><path fill="#A69CCB" d="M461.1,711.3L521.6,819.6L528.3,727.3Z" shape-rendering="crispEdges"/><path fill="#937BBB" d="M595.9,869.3L566.6,935.6L657.6,954.3Z" shape-rendering="crispEdges"/><path fill="#C6C2DF" d="M1027.4,-35.4L1017.3,65.1L1104.4,55Z" shape-rendering="crispEdges"/><path fill="#CECBE3" d="M949.3,28L911.2,-7.6L911.1,56.1Z" shape-rendering="crispEdges"/><path fill="#8063AD" d="M736,1012.9L799,1079.6L798.5,1031.3Z" shape-rendering="crispEdges"/><path fill="#6F51A1" d="M974,1203.5L1030.9,1158.3L981.9,1111.6Z" shape-rendering="crispEdges"/><path fill="#8061AB" d="M728.1,1124.6L799,1079.6L736,1012.9Z" shape-rendering="crispEdges"/><path fill="#6A4B9F" d="M1111.5,1163.1L1126.8,1120.2L1024.4,1114.1Z" shape-rendering="crispEdges"/><path fill="#694B9F" d="M1024.4,1114.1L1126.8,1120.2L1124.7,1041.5Z" shape-rendering="crispEdges"/><path fill="#BCBADA" d="M428.7,517.4L495.1,584.2L525.2,512.9Z" shape-rendering="crispEdges"/><path fill="#AAA4D0" d="M493.3,674.3L461.1,711.3L528.3,727.3Z" shape-rendering="crispEdges"/><path fill="#CECAE3" d="M974.6,-9.5L911.2,-7.6L949.3,28Z" shape-rendering="crispEdges"/><path fill="#A18EC4" d="M1579.1,268.1L1489.8,215.1L1464.4,292Z" shape-rendering="crispEdges"/><path fill="#B6ACD4" d="M1307.1,34.8L1262.2,103.2L1320.7,115.7Z" shape-rendering="crispEdges"/><path fill="#BEBADB" d="M1198.2,66.1L1195.5,-3.6L1104.4,55Z" shape-rendering="crispEdges"/><path fill="#D3D1E7" d="M828.3,-11.1L790.9,25.6L911.1,56.1Z" shape-rendering="crispEdges"/><path fill="#D8D8EA" d="M581.8,146.7L666.8,189.3L677.2,147.3Z" shape-rendering="crispEdges"/><path fill="#9C89C2" d="M521.6,819.6L533.5,865.5L595.9,869.3Z" shape-rendering="crispEdges"/><path fill="#896DB3" d="M657.6,954.3L655.8,1038.8L736,1012.9Z" shape-rendering="crispEdges"/><path fill="#9F8DC4" d="M459.6,830.1L533.5,865.5L521.6,819.6Z" shape-rendering="crispEdges"/><path fill="#D9D8EA" d="M675.4,66.8L677.2,147.3L714.7,110.7Z" shape-rendering="crispEdges"/><path fill="#D9D9EB" d="M581.8,146.7L578.7,184.8L666.8,189.3Z" shape-rendering="crispEdges"/><path fill="#CDCDE5" d="M428.5,334.2L426.6,431.6L495.1,423.3Z" shape-rendering="crispEdges"/><path fill="#D6D5E9" d="M790.9,25.6L732.1,54.4L782.9,105.7Z" shape-rendering="crispEdges"/><path fill="#ADAAD2" d="M438.6,662L461.1,711.3L493.3,674.3Z" shape-rendering="crispEdges"/><path fill="#BCB7DA" d="M1258.3,26.5L1195.5,-3.6L1198.2,66.1Z" shape-rendering="crispEdges"/><path fill="#62429B" d="M1360.8,1054.9L1331.3,938.6L1236.6,1032.4Z" shape-rendering="crispEdges"/><path fill="#5E3A98" d="M1508.1,974L1566,891.2L1488,884.2Z" shape-rendering="crispEdges"/><path fill="#61439A" d="M1257.9,1102.9L1236.6,1032.4L1198.5,1089.8Z" shape-rendering="crispEdges"/><path fill="#C5C1DF" d="M1123.6,-30.4L1027.4,-35.4L1104.4,55Z" shape-rendering="crispEdges"/><path fill="#D0CDE4" d="M942.9,-107.4L887.8,-70.8L911.2,-7.6Z" shape-rendering="crispEdges"/><path fill="#BDB7DA" d="M1258.3,26.5L1237.7,-22.7L1195.5,-3.6Z" shape-rendering="crispEdges"/><path fill="#B5A9D3" d="M1402.2,55.3L1307.1,34.8L1320.7,115.7Z" shape-rendering="crispEdges"/><path fill="#B1A3D0" d="M1402.2,55.3L1320.7,115.7L1416,146.1Z" shape-rendering="crispEdges"/><path fill="#62449B" d="M1166.7,1159.2L1257.9,1102.9L1198.5,1089.8Z" shape-rendering="crispEdges"/><path fill="#9882BE" d="M533.5,865.5L566.6,935.6L595.9,869.3Z" shape-rendering="crispEdges"/><path fill="#C0BCDD" d="M1167.7,-73L1123.6,-30.4L1195.5,-3.6Z" shape-rendering="crispEdges"/><path fill="#C1BDDD" d="M1195.5,-3.6L1123.6,-30.4L1104.4,55Z" shape-rendering="crispEdges"/><path fill="#B1AED4" d="M453,597.1L438.6,662L493.3,674.3Z" shape-rendering="crispEdges"/><path fill="#DDDDEC" d="M507.5,130.6L527.6,227.2L578.7,184.8Z" shape-rendering="crispEdges"/><path fill="#D7D7E9" d="M578.7,184.8L527.6,227.2L633.5,267.8Z" shape-rendering="crispEdges"/><path fill="#C2C1DE" d="M495.1,423.3L428.7,517.4L525.2,512.9Z" shape-rendering="crispEdges"/><path fill="#B4B1D6" d="M453,597.1L369.2,637.5L438.6,662Z" shape-rendering="crispEdges"/><path fill="#C6C6E0" d="M426.6,431.6L428.7,517.4L495.1,423.3Z" shape-rendering="crispEdges"/><path fill="#D7D7E9" d="M527.6,227.2L510.3,250.2L588.5,303.9Z" shape-rendering="crispEdges"/><path fill="#D2D0E6" d="M887.8,-70.8L828.3,-11.1L911.2,-7.6Z" shape-rendering="crispEdges"/><path fill="#D1CFE5" d="M911.2,-7.6L828.3,-11.1L911.1,56.1Z" shape-rendering="crispEdges"/><path fill="#D9D9EB" d="M790.9,25.6L708.2,-8.9L732.1,54.4Z" shape-rendering="crispEdges"/><path fill="#5F3F98" d="M1257.9,1102.9L1360.8,1054.9L1236.6,1032.4Z" shape-rendering="crispEdges"/><path fill="#DBDBEC" d="M708.2,-8.9L675.4,66.8L732.1,54.4Z" shape-rendering="crispEdges"/><path fill="#D9D8EB" d="M732.1,54.4L675.4,66.8L714.7,110.7Z" shape-rendering="crispEdges"/><path fill="#7556A4" d="M898.1,1169.4L981.9,1111.6L863.9,1075.3Z" shape-rendering="crispEdges"/><path fill="#6E50A1" d="M981.9,1111.6L1030.9,1158.3L1024.4,1114.1Z" shape-rendering="crispEdges"/><path fill="#65479C" d="M1126.8,1120.2L1166.7,1159.2L1198.5,1089.8Z" shape-rendering="crispEdges"/><path fill="#6C55A5" d="M1629.5,746.3L1568.7,679.2L1558.6,704.8Z" shape-rendering="crispEdges"/><path fill="#7561AB" d="M1568.7,679.2L1622.6,635.2L1537.4,563.3Z" shape-rendering="crispEdges"/><path fill="#8671B4" d="M1579.2,511L1627.4,477L1543,434.5Z" shape-rendering="crispEdges"/><path fill="#63449D" d="M1566,891.2L1484.6,792.3L1488,884.2Z" shape-rendering="crispEdges"/><path fill="#64469E" d="M1566,891.2L1580.9,789.8L1484.6,792.3Z" shape-rendering="crispEdges"/><path fill="#DBDAEB" d="M675.4,66.8L581.8,146.7L677.2,147.3Z" shape-rendering="crispEdges"/><path fill="#D6D6E9" d="M443.7,290.6L530.4,342.8L510.3,250.2Z" shape-rendering="crispEdges"/><path fill="#8C70B5" d="M575.7,1006.9L655.8,1038.8L657.6,954.3Z" shape-rendering="crispEdges"/><path fill="#7859A6" d="M826.3,1157.2L898.1,1169.4L863.9,1075.3Z" shape-rendering="crispEdges"/><path fill="#8069B0" d="M1647.8,560.3L1627.4,477L1579.2,511Z" shape-rendering="crispEdges"/><path fill="#A792C7" d="M1587.1,184.6L1484.6,141.4L1489.8,215.1Z" shape-rendering="crispEdges"/><path fill="#CFCFE5" d="M428.5,334.2L495.1,423.3L530.4,342.8Z" shape-rendering="crispEdges"/><path fill="#6C4DA0" d="M1030.9,1158.3L1111.5,1163.1L1024.4,1114.1Z" shape-rendering="crispEdges"/><path fill="#BBB3D8" d="M1307.1,34.8L1237.7,-22.7L1258.3,26.5Z" shape-rendering="crispEdges"/><path fill="#66499D" d="M1111.5,1163.1L1166.7,1159.2L1126.8,1120.2Z" shape-rendering="crispEdges"/><path fill="#5A3694" d="M1412.3,1092.4L1387.2,1024L1360.8,1054.9Z" shape-rendering="crispEdges"/><path fill="#9C88C2" d="M1579.1,268.1L1464.4,292L1538.8,350.2Z" shape-rendering="crispEdges"/><path fill="#AA98CA" d="M1489.8,215.1L1484.6,141.4L1416,146.1Z" shape-rendering="crispEdges"/><path fill="#BAB0D7" d="M1307.1,34.8L1354.3,-16.4L1237.7,-22.7Z" shape-rendering="crispEdges"/><path fill="#755DA9" d="M1712.4,592.1L1647.8,560.3L1622.6,635.2Z" shape-rendering="crispEdges"/><path fill="#7962AC" d="M1622.6,635.2L1647.8,560.3L1537.4,563.3Z" shape-rendering="crispEdges"/><path fill="#8872B5" d="M1644.1,433.2L1543,434.5L1627.4,477Z" shape-rendering="crispEdges"/><path fill="#9882BE" d="M1655.8,324.8L1579.1,268.1L1538.8,350.2Z" shape-rendering="crispEdges"/><path fill="#7A5CA8" d="M826.3,1157.2L863.9,1075.3L799,1079.6Z" shape-rendering="crispEdges"/><path fill="#6D4EA0" d="M1030.9,1158.3L974,1203.5L1111.5,1163.1Z" shape-rendering="crispEdges"/><path fill="#B0A0CE" d="M1467.8,47.6L1402.2,55.3L1416,146.1Z" shape-rendering="crispEdges"/><path fill="#A38FC5" d="M442.6,865.5L459.6,830.1L356.1,851.8Z" shape-rendering="crispEdges"/><path fill="#A597C9" d="M461.1,711.3L459.6,830.1L521.6,819.6Z" shape-rendering="crispEdges"/><path fill="#9880BD" d="M533.5,865.5L487,953.3L566.6,935.6Z" shape-rendering="crispEdges"/><path fill="#9076B8" d="M566.6,935.6L575.7,1006.9L657.6,954.3Z" shape-rendering="crispEdges"/><path fill="#856BB2" d="M1689.5,413.4L1644.1,433.2L1717.2,506.9Z" shape-rendering="crispEdges"/><path fill="#7D5FAA" d="M728.1,1124.6L826.3,1157.2L799,1079.6Z" shape-rendering="crispEdges"/><path fill="#65469E" d="M1655.6,809.8L1629.5,746.3L1580.9,789.8Z" shape-rendering="crispEdges"/><path fill="#694FA2" d="M1580.9,789.8L1629.5,746.3L1558.6,704.8Z" shape-rendering="crispEdges"/><path fill="#5F3B98" d="M1488,884.2L1418.8,947.6L1508.1,974Z" shape-rendering="crispEdges"/><path fill="#9479BA" d="M487,953.3L575.7,1006.9L566.6,935.6Z" shape-rendering="crispEdges"/><path fill="#8264AD" d="M657.5,1098L728.1,1124.6L736,1012.9Z" shape-rendering="crispEdges"/><path fill="#C6C3DF" d="M1123.6,-30.4L1038.6,-79.7L1027.4,-35.4Z" shape-rendering="crispEdges"/><path fill="#CBC8E2" d="M1027.4,-35.4L942.9,-107.4L974.6,-9.5Z" shape-rendering="crispEdges"/><path fill="#C4C0DE" d="M1137.5,-93.9L1038.6,-79.7L1123.6,-30.4Z" shape-rendering="crispEdges"/><path fill="#DCDCEC" d="M443.7,290.6L510.3,250.2L442.5,204.3Z" shape-rendering="crispEdges"/><path fill="#D5D5E8" d="M443.7,290.6L428.5,334.2L530.4,342.8Z" shape-rendering="crispEdges"/><path fill="#5B3695" d="M1508.1,974L1418.8,947.6L1496.3,1016.3Z" shape-rendering="crispEdges"/><path fill="#5C3896" d="M1496.3,1016.3L1418.8,947.6L1387.2,1024Z" shape-rendering="crispEdges"/><path fill="#DCDCEC" d="M442.5,204.3L510.3,250.2L527.6,227.2Z" shape-rendering="crispEdges"/><path fill="#8668B0" d="M657.5,1098L736,1012.9L655.8,1038.8Z" shape-rendering="crispEdges"/><path fill="#CECBE3" d="M942.9,-107.4L911.2,-7.6L974.6,-9.5Z" shape-rendering="crispEdges"/><path fill="#D9D8EA" d="M808.3,-78.4L708.2,-8.9L790.9,25.6Z" shape-rendering="crispEdges"/><path fill="#BDB7DA" d="M1282.9,-110.9L1167.7,-73L1237.7,-22.7Z" shape-rendering="crispEdges"/><path fill="#BEBADB" d="M1237.7,-22.7L1167.7,-73L1195.5,-3.6Z" shape-rendering="crispEdges"/><path fill="#D6D5E9" d="M808.3,-78.4L790.9,25.6L828.3,-11.1Z" shape-rendering="crispEdges"/><path fill="#E2E1EF" d="M521,62L507.5,130.6L581.8,146.7Z" shape-rendering="crispEdges"/><path fill="#DEDDED" d="M581.8,146.7L507.5,130.6L578.7,184.8Z" shape-rendering="crispEdges"/><path fill="#7657A5" d="M826.3,1157.2L974,1203.5L898.1,1169.4Z" shape-rendering="crispEdges"/><path fill="#7253A3" d="M898.1,1169.4L974,1203.5L981.9,1111.6Z" shape-rendering="crispEdges"/><path fill="#62449B" d="M1111.5,1163.1L1342.7,1202.4L1166.7,1159.2Z" shape-rendering="crispEdges"/><path fill="#8768AF" d="M570.4,1098.2L657.5,1098L655.8,1038.8Z" shape-rendering="crispEdges"/><path fill="#B3A3D0" d="M1467.8,47.6L1382.3,4.3L1402.2,55.3Z" shape-rendering="crispEdges"/><path fill="#B5A8D3" d="M1402.2,55.3L1382.3,4.3L1307.1,34.8Z" shape-rendering="crispEdges"/><path fill="#5C3A95" d="M1354.2,1129.6L1360.8,1054.9L1257.9,1102.9Z" shape-rendering="crispEdges"/><path fill="#593393" d="M1412.3,1092.4L1496.3,1016.3L1387.2,1024Z" shape-rendering="crispEdges"/><path fill="#5A3395" d="M1508.1,974L1564,969.8L1566,891.2Z" shape-rendering="crispEdges"/><path fill="#A99ECC" d="M348.5,744.4L459.6,830.1L461.1,711.3Z" shape-rendering="crispEdges"/><path fill="#A08DC4" d="M459.6,830.1L442.6,865.5L533.5,865.5Z" shape-rendering="crispEdges"/><path fill="#8768AF" d="M570.4,1098.2L647.5,1150.2L657.5,1098Z" shape-rendering="crispEdges"/><path fill="#AEA7D1" d="M348.5,744.4L461.1,711.3L438.6,662Z" shape-rendering="crispEdges"/><path fill="#C6C4DF" d="M426.6,431.6L363.8,491.4L428.7,517.4Z" shape-rendering="crispEdges"/><path fill="#BAB7D8" d="M350.1,554.2L369.2,637.5L453,597.1Z" shape-rendering="crispEdges"/><path fill="#CFCFE5" d="M359.8,358.2L377.8,429.8L426.6,431.6Z" shape-rendering="crispEdges"/><path fill="#D2D2E7" d="M359.8,358.2L426.6,431.6L428.5,334.2Z" shape-rendering="crispEdges"/><path fill="#BEBADC" d="M1282.9,-110.9L1137.5,-93.9L1167.7,-73Z" shape-rendering="crispEdges"/><path fill="#C2BEDD" d="M1167.7,-73L1137.5,-93.9L1123.6,-30.4Z" shape-rendering="crispEdges"/><path fill="#CAC7E1" d="M1038.6,-79.7L942.9,-107.4L1027.4,-35.4Z" shape-rendering="crispEdges"/><path fill="#BDBADA" d="M350.1,554.2L453,597.1L428.7,517.4Z" shape-rendering="crispEdges"/><path fill="#B7ABD4" d="M1382.3,4.3L1354.3,-16.4L1307.1,34.8Z" shape-rendering="crispEdges"/><path fill="#60429A" d="M1280,1170L1257.9,1102.9L1166.7,1159.2Z" shape-rendering="crispEdges"/><path fill="#5D3C97" d="M1280,1170L1354.2,1129.6L1257.9,1102.9Z" shape-rendering="crispEdges"/><path fill="#593593" d="M1354.2,1129.6L1412.3,1092.4L1360.8,1054.9Z" shape-rendering="crispEdges"/><path fill="#CAC9E2" d="M377.8,429.8L363.8,491.4L426.6,431.6Z" shape-rendering="crispEdges"/><path fill="#5F3F98" d="M1342.7,1202.4L1280,1170L1166.7,1159.2Z" shape-rendering="crispEdges"/><path fill="#9C86C1" d="M442.6,865.5L487,953.3L533.5,865.5Z" shape-rendering="crispEdges"/><path fill="#C8C4E0" d="M1137.5,-93.9L942.9,-107.4L1038.6,-79.7Z" shape-rendering="crispEdges"/><path fill="#D4D2E7" d="M887.8,-70.8L808.3,-78.4L828.3,-11.1Z" shape-rendering="crispEdges"/><path fill="#DFDEED" d="M576.6,36.3L581.8,146.7L675.4,66.8Z" shape-rendering="crispEdges"/><path fill="#D8D7EA" d="M375.6,288.5L359.8,358.2L428.5,334.2Z" shape-rendering="crispEdges"/><path fill="#D2CFE6" d="M942.9,-107.4L808.3,-78.4L887.8,-70.8Z" shape-rendering="crispEdges"/><path fill="#917ABA" d="M1644.1,433.2L1655.8,324.8L1538.8,350.2Z" shape-rendering="crispEdges"/><path fill="#A28DC4" d="M1579.1,268.1L1587.1,184.6L1489.8,215.1Z" shape-rendering="crispEdges"/><path fill="#AE9CCC" d="M1484.6,141.4L1467.8,47.6L1416,146.1Z" shape-rendering="crispEdges"/><path fill="#8D74B7" d="M1689.5,413.4L1655.8,324.8L1644.1,433.2Z" shape-rendering="crispEdges"/><path fill="#8465AE" d="M647.5,1150.2L728.1,1124.6L657.5,1098Z" shape-rendering="crispEdges"/><path fill="#8264AD" d="M647.5,1150.2L727.1,1160L728.1,1124.6Z" shape-rendering="crispEdges"/><path fill="#7F60AB" d="M728.1,1124.6L727.1,1160L826.3,1157.2Z" shape-rendering="crispEdges"/><path fill="#795BA7" d="M826.3,1157.2L727.1,1160L974,1203.5Z" shape-rendering="crispEdges"/><path fill="#A088C2" d="M1642.4,222.4L1587.1,184.6L1579.1,268.1Z" shape-rendering="crispEdges"/><path fill="#AC99CB" d="M1538.8,117.5L1467.8,47.6L1484.6,141.4Z" shape-rendering="crispEdges"/><path fill="#B8ADD5" d="M1354.7,-97.9L1282.9,-110.9L1354.3,-16.4Z" shape-rendering="crispEdges"/><path fill="#C2C0DD" d="M363.8,491.4L350.1,554.2L428.7,517.4Z" shape-rendering="crispEdges"/><path fill="#9981BE" d="M1655.8,324.8L1637.3,273.2L1579.1,268.1Z" shape-rendering="crispEdges"/><path fill="#A893C8" d="M1587.1,184.6L1538.8,117.5L1484.6,141.4Z" shape-rendering="crispEdges"/><path fill="#DFDEEE" d="M650.6,-90.6L661.5,-17L708.2,-8.9Z" shape-rendering="crispEdges"/><path fill="#DEDDED" d="M708.2,-8.9L661.5,-17L675.4,66.8Z" shape-rendering="crispEdges"/><path fill="#583092" d="M1551.5,1005.8L1564,969.8L1508.1,974Z" shape-rendering="crispEdges"/><path fill="#613F9A" d="M1649.8,872.9L1655.6,809.8L1580.9,789.8Z" shape-rendering="crispEdges"/><path fill="#583092" d="M1551.5,1005.8L1508.1,974L1496.3,1016.3Z" shape-rendering="crispEdges"/><path fill="#603D99" d="M1649.8,872.9L1580.9,789.8L1566,891.2Z" shape-rendering="crispEdges"/><path fill="#7157A7" d="M1718.8,655.3L1712.4,592.1L1622.6,635.2Z" shape-rendering="crispEdges"/><path fill="#836AB1" d="M1717.2,506.9L1644.1,433.2L1627.4,477Z" shape-rendering="crispEdges"/><path fill="#7E65AE" d="M1717.2,506.9L1627.4,477L1647.8,560.3Z" shape-rendering="crispEdges"/><path fill="#9C81BE" d="M1697.8,205.6L1642.4,222.4L1724.5,252.4Z" shape-rendering="crispEdges"/><path fill="#E0DFEE" d="M507.5,130.6L442.5,204.3L527.6,227.2Z" shape-rendering="crispEdges"/><path fill="#E1E0EF" d="M589.7,-0.6L576.6,36.3L675.4,66.8Z" shape-rendering="crispEdges"/><path fill="#E4E3F0" d="M507.5,130.6L451,102.9L442.5,204.3Z" shape-rendering="crispEdges"/><path fill="#6C54A5" d="M1718.8,655.3L1622.6,635.2L1629.5,746.3Z" shape-rendering="crispEdges"/><path fill="#53288D" d="M1544.6,1083L1496.3,1016.3L1512.5,1115.5Z" shape-rendering="crispEdges"/><path fill="#552B8F" d="M1544.6,1083L1551.5,1005.8L1496.3,1016.3Z" shape-rendering="crispEdges"/><path fill="#5A3294" d="M1650.2,976.5L1649.8,872.9L1566,891.2Z" shape-rendering="crispEdges"/><path fill="#D9D9EA" d="M375.6,288.5L428.5,334.2L443.7,290.6Z" shape-rendering="crispEdges"/><path fill="#CCCBE3" d="M377.8,429.8L276.6,435.2L363.8,491.4Z" shape-rendering="crispEdges"/><path fill="#BCB8D9" d="M291.4,605.2L369.2,637.5L350.1,554.2Z" shape-rendering="crispEdges"/><path fill="#795FAA" d="M1712.4,592.1L1717.2,506.9L1647.8,560.3Z" shape-rendering="crispEdges"/><path fill="#582F93" d="M1650.2,976.5L1566,891.2L1564,969.8Z" shape-rendering="crispEdges"/><path fill="#674CA1" d="M1732.2,742.3L1718.8,655.3L1629.5,746.3Z" shape-rendering="crispEdges"/><path fill="#64459D" d="M1732.2,742.3L1629.5,746.3L1655.6,809.8Z" shape-rendering="crispEdges"/><path fill="#765BA8" d="M1712.4,592.1L1788,598.8L1717.2,506.9Z" shape-rendering="crispEdges"/><path fill="#B1ADD4" d="M369.2,637.5L348.5,744.4L438.6,662Z" shape-rendering="crispEdges"/><path fill="#9B82BF" d="M442.6,865.5L436.5,973.5L487,953.3Z" shape-rendering="crispEdges"/><path fill="#B2ACD4" d="M305.9,706.9L348.5,744.4L369.2,637.5Z" shape-rendering="crispEdges"/><path fill="#9D85C0" d="M1637.3,273.2L1642.4,222.4L1579.1,268.1Z" shape-rendering="crispEdges"/><path fill="#A991C7" d="M1587.1,184.6L1572.8,79.1L1538.8,117.5Z" shape-rendering="crispEdges"/><path fill="#987EBD" d="M1724.5,252.4L1637.3,273.2L1655.8,324.8Z" shape-rendering="crispEdges"/><path fill="#8F75B8" d="M1722.8,334.2L1655.8,324.8L1689.5,413.4Z" shape-rendering="crispEdges"/><path fill="#DDDDED" d="M442.5,204.3L375.6,288.5L443.7,290.6Z" shape-rendering="crispEdges"/><path fill="#8B6DB2" d="M570.4,1098.2L655.8,1038.8L575.7,1006.9Z" shape-rendering="crispEdges"/><path fill="#8163AC" d="M727.1,1160L462,1184.4L974,1203.5Z" shape-rendering="crispEdges"/><path fill="#E2E1EF" d="M576.6,36.3L521,62L581.8,146.7Z" shape-rendering="crispEdges"/><path fill="#E0E0EE" d="M442.5,204.3L356.7,218.1L375.6,288.5Z" shape-rendering="crispEdges"/><path fill="#E7E7F2" d="M481.9,-47.4L521,62L576.6,36.3Z" shape-rendering="crispEdges"/><path fill="#E1E1EF" d="M650.6,-90.6L589.7,-0.6L661.5,-17Z" shape-rendering="crispEdges"/><path fill="#E0E0EE" d="M661.5,-17L589.7,-0.6L675.4,66.8Z" shape-rendering="crispEdges"/><path fill="#8E70B4" d="M482,1048.5L570.4,1098.2L575.7,1006.9Z" shape-rendering="crispEdges"/><path fill="#9376B8" d="M482,1048.5L575.7,1006.9L487,953.3Z" shape-rendering="crispEdges"/><path fill="#B7AAD4" d="M1354.7,-97.9L1354.3,-16.4L1390.2,-107.1Z" shape-rendering="crispEdges"/><path fill="#BAB1D7" d="M1354.3,-16.4L1282.9,-110.9L1237.7,-22.7Z" shape-rendering="crispEdges"/><path fill="#C3BFDE" d="M1137.5,-93.9L1282.9,-110.9L942.9,-107.4Z" shape-rendering="crispEdges"/><path fill="#5C3995" d="M1280,1170L1342.7,1202.4L1354.2,1129.6Z" shape-rendering="crispEdges"/><path fill="#583392" d="M1354.2,1129.6L1405.7,1178.3L1412.3,1092.4Z" shape-rendering="crispEdges"/><path fill="#66489D" d="M974,1203.5L1342.7,1202.4L1111.5,1163.1Z" shape-rendering="crispEdges"/><path fill="#9D82BF" d="M375.9,968.3L436.5,973.5L442.6,865.5Z" shape-rendering="crispEdges"/><path fill="#AEA3CF" d="M305.9,706.9L339.8,790.6L348.5,744.4Z" shape-rendering="crispEdges"/><path fill="#A99BCB" d="M348.5,744.4L339.8,790.6L459.6,830.1Z" shape-rendering="crispEdges"/><path fill="#D5D3E8" d="M942.9,-107.4L756.2,-116.6L808.3,-78.4Z" shape-rendering="crispEdges"/><path fill="#DAD9EB" d="M808.3,-78.4L756.2,-116.6L708.2,-8.9Z" shape-rendering="crispEdges"/><path fill="#CBC7E1" d="M1282.9,-110.9L756.2,-116.6L942.9,-107.4Z" shape-rendering="crispEdges"/><path fill="#AC97CA" d="M1538.8,117.5L1572.8,79.1L1467.8,47.6Z" shape-rendering="crispEdges"/><path fill="#B6A9D3" d="M1390.2,-107.1L1354.3,-16.4L1382.3,4.3Z" shape-rendering="crispEdges"/><path fill="#A68DC5" d="M1655.3,149.1L1572.8,79.1L1587.1,184.6Z" shape-rendering="crispEdges"/><path fill="#5A3593" d="M1342.7,1202.4L1405.7,1178.3L1354.2,1129.6Z" shape-rendering="crispEdges"/><path fill="#A695C8" d="M339.8,790.6L356.1,851.8L459.6,830.1Z" shape-rendering="crispEdges"/><path fill="#61409A" d="M1718.7,802.5L1732.2,742.3L1655.6,809.8Z" shape-rendering="crispEdges"/><path fill="#6F55A5" d="M1718.8,655.3L1772,630.3L1712.4,592.1Z" shape-rendering="crispEdges"/><path fill="#E8E7F2" d="M446.2,56.2L451,102.9L521,62Z" shape-rendering="crispEdges"/><path fill="#E5E5F1" d="M521,62L451,102.9L507.5,130.6Z" shape-rendering="crispEdges"/><path fill="#8368B0" d="M1776.4,451L1689.5,413.4L1717.2,506.9Z" shape-rendering="crispEdges"/><path fill="#896FB4" d="M1776.4,451L1722.8,334.2L1689.5,413.4Z" shape-rendering="crispEdges"/><path fill="#A288C2" d="M1642.4,222.4L1655.3,149.1L1587.1,184.6Z" shape-rendering="crispEdges"/><path fill="#9677B8" d="M416.4,1046L482,1048.5L436.5,973.5Z" shape-rendering="crispEdges"/><path fill="#977ABA" d="M436.5,973.5L482,1048.5L487,953.3Z" shape-rendering="crispEdges"/><path fill="#896AB0" d="M570.4,1098.2L565.7,1152.7L647.5,1150.2Z" shape-rendering="crispEdges"/><path fill="#B4A4D1" d="M1390.2,-107.1L1382.3,4.3L1495.2,-47.6Z" shape-rendering="crispEdges"/><path fill="#C2BFDD" d="M291.4,605.2L350.1,554.2L262.1,500Z" shape-rendering="crispEdges"/><path fill="#B9B5D8" d="M291.4,605.2L296.7,651.6L369.2,637.5Z" shape-rendering="crispEdges"/><path fill="#A895C8" d="M339.8,790.6L283.3,861.6L356.1,851.8Z" shape-rendering="crispEdges"/><path fill="#B5B1D6" d="M296.7,651.6L305.9,706.9L369.2,637.5Z" shape-rendering="crispEdges"/><path fill="#C5C3DF" d="M262.1,500L350.1,554.2L363.8,491.4Z" shape-rendering="crispEdges"/><path fill="#D3D3E7" d="M291.1,371.3L377.8,429.8L359.8,358.2Z" shape-rendering="crispEdges"/><path fill="#5C3696" d="M1723.3,881.1L1655.6,809.8L1649.8,872.9Z" shape-rendering="crispEdges"/><path fill="#5D3897" d="M1723.3,881.1L1718.7,802.5L1655.6,809.8Z" shape-rendering="crispEdges"/><path fill="#542C8F" d="M1512.5,1115.5L1496.3,1016.3L1412.3,1092.4Z" shape-rendering="crispEdges"/><path fill="#54288E" d="M1607.6,1052.5L1650.2,976.5L1564,969.8Z" shape-rendering="crispEdges"/><path fill="#552C8F" d="M1465.2,1181.7L1512.5,1115.5L1412.3,1092.4Z" shape-rendering="crispEdges"/><path fill="#DDDCED" d="M756.2,-116.6L650.6,-90.6L708.2,-8.9Z" shape-rendering="crispEdges"/><path fill="#EAE9F3" d="M481.9,-47.4L446.2,56.2L521,62Z" shape-rendering="crispEdges"/><path fill="#E5E4F0" d="M341.2,127.3L356.7,218.1L442.5,204.3Z" shape-rendering="crispEdges"/><path fill="#D9D9EB" d="M300.5,290.2L291.1,371.3L359.8,358.2Z" shape-rendering="crispEdges"/><path fill="#A085C1" d="M1697.8,205.6L1655.3,149.1L1642.4,222.4Z" shape-rendering="crispEdges"/><path fill="#6D52A3" d="M1788,598.8L1772,630.3L1837.1,633.2Z" shape-rendering="crispEdges"/><path fill="#684EA1" d="M1784.8,741.7L1772,630.3L1718.8,655.3Z" shape-rendering="crispEdges"/><path fill="#8C6DB2" d="M484.1,1120.7L565.7,1152.7L570.4,1098.2Z" shape-rendering="crispEdges"/><path fill="#8768AF" d="M647.5,1150.2L500.4,1174.5L727.1,1160Z" shape-rendering="crispEdges"/><path fill="#542A8F" d="M1607.6,1052.5L1564,969.8L1551.5,1005.8Z" shape-rendering="crispEdges"/><path fill="#52268D" d="M1607.6,1052.5L1551.5,1005.8L1544.6,1083Z" shape-rendering="crispEdges"/><path fill="#DBDBEB" d="M300.5,290.2L359.8,358.2L375.6,288.5Z" shape-rendering="crispEdges"/><path fill="#B3A2D0" d="M1495.2,-47.6L1382.3,4.3L1467.8,47.6Z" shape-rendering="crispEdges"/><path fill="#B8ACD5" d="M1354.7,-97.9L1390.2,-107.1L1282.9,-110.9Z" shape-rendering="crispEdges"/><path fill="#B19DCD" d="M1495.2,-47.6L1467.8,47.6L1550,-29.2Z" shape-rendering="crispEdges"/><path fill="#D1D1E6" d="M291.1,371.3L276.6,435.2L377.8,429.8Z" shape-rendering="crispEdges"/><path fill="#9B81BE" d="M1724.5,252.4L1642.4,222.4L1637.3,273.2Z" shape-rendering="crispEdges"/><path fill="#7F63AD" d="M1793.6,482.4L1776.4,451L1717.2,506.9Z" shape-rendering="crispEdges"/><path fill="#957ABA" d="M1722.8,334.2L1724.5,252.4L1655.8,324.8Z" shape-rendering="crispEdges"/><path fill="#9579BA" d="M1788,278.2L1724.5,252.4L1722.8,334.2Z" shape-rendering="crispEdges"/><path fill="#66499F" d="M1784.8,741.7L1718.8,655.3L1732.2,742.3Z" shape-rendering="crispEdges"/><path fill="#7055A5" d="M1772,630.3L1788,598.8L1712.4,592.1Z" shape-rendering="crispEdges"/><path fill="#563091" d="M1405.7,1178.3L1465.2,1181.7L1412.3,1092.4Z" shape-rendering="crispEdges"/><path fill="#4F218A" d="M1610.8,1080.7L1607.6,1052.5L1544.6,1083Z" shape-rendering="crispEdges"/><path fill="#583292" d="M1342.7,1202.4L1465.2,1181.7L1405.7,1178.3Z" shape-rendering="crispEdges"/><path fill="#CBC9E2" d="M276.6,435.2L262.1,500L363.8,491.4Z" shape-rendering="crispEdges"/><path fill="#BAB6D9" d="M291.4,605.2L221.4,665.1L296.7,651.6Z" shape-rendering="crispEdges"/><path fill="#B1A6D1" d="M221.6,724.8L270,803.6L305.9,706.9Z" shape-rendering="crispEdges"/><path fill="#E7E6F2" d="M481.9,-47.4L576.6,36.3L589.7,-0.6Z" shape-rendering="crispEdges"/><path fill="#E7E6F1" d="M341.2,127.3L309.5,192.2L356.7,218.1Z" shape-rendering="crispEdges"/><path fill="#4F228A" d="M1610.8,1080.7L1544.6,1083L1559.2,1155.7Z" shape-rendering="crispEdges"/><path fill="#AE99CB" d="M1550,-29.2L1467.8,47.6L1572.8,79.1Z" shape-rendering="crispEdges"/><path fill="#A189C3" d="M356.1,851.8L375.9,968.3L442.6,865.5Z" shape-rendering="crispEdges"/><path fill="#8E6EB3" d="M482,1048.5L484.1,1120.7L570.4,1098.2Z" shape-rendering="crispEdges"/><path fill="#A187C2" d="M285.6,947.8L375.9,968.3L356.1,851.8Z" shape-rendering="crispEdges"/><path fill="#572E92" d="M1708.8,945.5L1723.3,881.1L1649.8,872.9Z" shape-rendering="crispEdges"/><path fill="#61419B" d="M1718.7,802.5L1784.8,741.7L1732.2,742.3Z" shape-rendering="crispEdges"/><path fill="#562A90" d="M1708.8,945.5L1649.8,872.9L1650.2,976.5Z" shape-rendering="crispEdges"/><path fill="#E0E0EE" d="M356.7,218.1L300.5,290.2L375.6,288.5Z" shape-rendering="crispEdges"/><path fill="#CFCDE4" d="M194.4,444.4L262.1,500L276.6,435.2Z" shape-rendering="crispEdges"/><path fill="#CDCAE3" d="M194.4,444.4L235.2,513.1L262.1,500Z" shape-rendering="crispEdges"/><path fill="#E4E3F0" d="M309.5,192.2L300.5,290.2L356.7,218.1Z" shape-rendering="crispEdges"/><path fill="#795DA9" d="M1788,598.8L1793.6,482.4L1717.2,506.9Z" shape-rendering="crispEdges"/><path fill="#9175B7" d="M1809.1,328.8L1788,278.2L1722.8,334.2Z" shape-rendering="crispEdges"/><path fill="#997CBB" d="M375.9,968.3L416.4,1046L436.5,973.5Z" shape-rendering="crispEdges"/><path fill="#9171B4" d="M440.4,1100.4L484.1,1120.7L482,1048.5Z" shape-rendering="crispEdges"/><path fill="#5E3C98" d="M1798.3,804.4L1784.8,741.7L1718.7,802.5Z" shape-rendering="crispEdges"/><path fill="#785BA8" d="M1788,598.8L1857.8,494.8L1793.6,482.4Z" shape-rendering="crispEdges"/><path fill="#51258C" d="M1559.2,1155.7L1544.6,1083L1512.5,1115.5Z" shape-rendering="crispEdges"/><path fill="#50228B" d="M1607.6,1052.5L1706.4,1009.9L1650.2,976.5Z" shape-rendering="crispEdges"/><path fill="#AE96CA" d="M1620.2,-21.1L1550,-29.2L1572.8,79.1Z" shape-rendering="crispEdges"/><path fill="#B3A1CF" d="M1495.2,-47.6L1499.6,-101.6L1390.2,-107.1Z" shape-rendering="crispEdges"/><path fill="#A88EC5" d="M1652.7,56.8L1572.8,79.1L1655.3,149.1Z" shape-rendering="crispEdges"/><path fill="#51238D" d="M1706.4,1009.9L1708.8,945.5L1650.2,976.5Z" shape-rendering="crispEdges"/><path fill="#5B3695" d="M1723.3,881.1L1798.3,804.4L1718.7,802.5Z" shape-rendering="crispEdges"/><path fill="#DFDFEE" d="M756.2,-116.6L609.1,-113.8L650.6,-90.6Z" shape-rendering="crispEdges"/><path fill="#E2E2F0" d="M650.6,-90.6L609.1,-113.8L589.7,-0.6Z" shape-rendering="crispEdges"/><path fill="#D5D4E8" d="M194.4,444.4L276.6,435.2L194.9,361.7Z" shape-rendering="crispEdges"/><path fill="#C5C2DE" d="M262.1,500L235.2,513.1L291.4,605.2Z" shape-rendering="crispEdges"/><path fill="#AEA1CE" d="M305.9,706.9L270,803.6L339.8,790.6Z" shape-rendering="crispEdges"/><path fill="#B6B2D7" d="M221.4,665.1L305.9,706.9L296.7,651.6Z" shape-rendering="crispEdges"/><path fill="#9473B6" d="M371.9,1082.7L440.4,1100.4L416.4,1046Z" shape-rendering="crispEdges"/><path fill="#9F82BF" d="M1769.5,201L1699.3,131.3L1697.8,205.6Z" shape-rendering="crispEdges"/><path fill="#A185C1" d="M1697.8,205.6L1699.3,131.3L1655.3,149.1Z" shape-rendering="crispEdges"/><path fill="#9B7FBD" d="M1769.5,201L1697.8,205.6L1724.5,252.4Z" shape-rendering="crispEdges"/><path fill="#997BBB" d="M345.2,1023.2L416.4,1046L375.9,968.3Z" shape-rendering="crispEdges"/><path fill="#9373B6" d="M416.4,1046L440.4,1100.4L482,1048.5Z" shape-rendering="crispEdges"/><path fill="#AA99CA" d="M270,803.6L283.3,861.6L339.8,790.6Z" shape-rendering="crispEdges"/><path fill="#A68AC4" d="M1688.1,65.8L1652.7,56.8L1655.3,149.1Z" shape-rendering="crispEdges"/><path fill="#E7E5F1" d="M341.2,127.3L442.5,204.3L451,102.9Z" shape-rendering="crispEdges"/><path fill="#DEDDED" d="M300.5,290.2L237.8,285.4L291.1,371.3Z" shape-rendering="crispEdges"/><path fill="#EBE9F3" d="M341.2,127.3L451,102.9L366.3,50.3Z" shape-rendering="crispEdges"/><path fill="#52288D" d="M1465.2,1181.7L1559.2,1155.7L1512.5,1115.5Z" shape-rendering="crispEdges"/><path fill="#4E1F8A" d="M1610.8,1080.7L1706.4,1009.9L1607.6,1052.5Z" shape-rendering="crispEdges"/><path fill="#EAE9F3" d="M366.3,50.3L451,102.9L446.2,56.2Z" shape-rendering="crispEdges"/><path fill="#C8C5E0" d="M115.5,569.7L214.9,576.5L110.7,493.2Z" shape-rendering="crispEdges"/><path fill="#C3C0DD" d="M235.2,513.1L214.9,576.5L291.4,605.2Z" shape-rendering="crispEdges"/><path fill="#AB99CA" d="M270,803.6L211.9,823.3L283.3,861.6Z" shape-rendering="crispEdges"/><path fill="#8E6EB3" d="M484.1,1120.7L500.4,1174.5L565.7,1152.7Z" shape-rendering="crispEdges"/><path fill="#8B6BB1" d="M565.7,1152.7L500.4,1174.5L647.5,1150.2Z" shape-rendering="crispEdges"/><path fill="#9070B4" d="M462,1184.4L500.4,1174.5L484.1,1120.7Z" shape-rendering="crispEdges"/><path fill="#BEBADB" d="M214.9,576.5L221.4,665.1L291.4,605.2Z" shape-rendering="crispEdges"/><path fill="#B09ACC" d="M1562.5,-96L1495.2,-47.6L1550,-29.2Z" shape-rendering="crispEdges"/><path fill="#B09CCD" d="M1562.5,-96L1499.6,-101.6L1495.2,-47.6Z" shape-rendering="crispEdges"/><path fill="#E8E8F3" d="M495.4,-88.8L481.9,-47.4L589.7,-0.6Z" shape-rendering="crispEdges"/><path fill="#582F92" d="M1778.4,901.7L1798.3,804.4L1723.3,881.1Z" shape-rendering="crispEdges"/><path fill="#684DA0" d="M1784.8,741.7L1837.1,633.2L1772,630.3Z" shape-rendering="crispEdges"/><path fill="#8B6FB4" d="M1809.1,328.8L1722.8,334.2L1776.4,451Z" shape-rendering="crispEdges"/><path fill="#63459C" d="M1876.3,736.8L1837.1,633.2L1784.8,741.7Z" shape-rendering="crispEdges"/><path fill="#866AB1" d="M1833.9,414.3L1809.1,328.8L1776.4,451Z" shape-rendering="crispEdges"/><path fill="#8165AE" d="M1833.9,414.3L1776.4,451L1793.6,482.4Z" shape-rendering="crispEdges"/><path fill="#4B1987" d="M1716.2,1104.3L1706.4,1009.9L1610.8,1080.7Z" shape-rendering="crispEdges"/><path fill="#54288F" d="M1708.8,945.5L1758,931.8L1723.3,881.1Z" shape-rendering="crispEdges"/><path fill="#B0A1CF" d="M211.9,823.3L221.6,724.8L157.9,810.9Z" shape-rendering="crispEdges"/><path fill="#B5AFD5" d="M221.4,665.1L221.6,724.8L305.9,706.9Z" shape-rendering="crispEdges"/><path fill="#7E61AC" d="M1857.8,494.8L1833.9,414.3L1793.6,482.4Z" shape-rendering="crispEdges"/><path fill="#51228C" d="M1706.4,1009.9L1758,931.8L1708.8,945.5Z" shape-rendering="crispEdges"/><path fill="#9D80BE" d="M285.6,947.8L345.2,1023.2L375.9,968.3Z" shape-rendering="crispEdges"/><path fill="#9171B4" d="M440.4,1100.4L462,1184.4L484.1,1120.7Z" shape-rendering="crispEdges"/><path fill="#A58EC5" d="M285.6,947.8L356.1,851.8L283.3,861.6Z" shape-rendering="crispEdges"/><path fill="#A486C2" d="M1803.7,53.9L1688.1,65.8L1699.3,131.3Z" shape-rendering="crispEdges"/><path fill="#A588C3" d="M1699.3,131.3L1688.1,65.8L1655.3,149.1Z" shape-rendering="crispEdges"/><path fill="#AB91C8" d="M1652.7,56.8L1620.2,-21.1L1572.8,79.1Z" shape-rendering="crispEdges"/><path fill="#9A7CBB" d="M1807.6,142.5L1769.5,201L1858.7,225.1Z" shape-rendering="crispEdges"/><path fill="#987BBB" d="M1788,278.2L1769.5,201L1724.5,252.4Z" shape-rendering="crispEdges"/><path fill="#ECECF5" d="M481.9,-47.4L413,2L446.2,56.2Z" shape-rendering="crispEdges"/><path fill="#562D90" d="M1798.3,804.4L1778.4,901.7L1862.8,870.5Z" shape-rendering="crispEdges"/><path fill="#54298F" d="M1758,931.8L1778.4,901.7L1723.3,881.1Z" shape-rendering="crispEdges"/><path fill="#6A4DA0" d="M1919.1,661.3L1863.3,585L1837.1,633.2Z" shape-rendering="crispEdges"/><path fill="#AB8EC6" d="M1731.9,-50.2L1620.2,-21.1L1652.7,56.8Z" shape-rendering="crispEdges"/><path fill="#ECEBF4" d="M413,2L366.3,50.3L446.2,56.2Z" shape-rendering="crispEdges"/><path fill="#E5E4F0" d="M236,230.4L300.5,290.2L309.5,192.2Z" shape-rendering="crispEdges"/><path fill="#EBE9F3" d="M312.8,113.9L309.5,192.2L341.2,127.3Z" shape-rendering="crispEdges"/><path fill="#E4E3F0" d="M236,230.4L237.8,285.4L300.5,290.2Z" shape-rendering="crispEdges"/><path fill="#E6E5F1" d="M609.1,-113.8L495.4,-88.8L589.7,-0.6Z" shape-rendering="crispEdges"/><path fill="#EFEEF6" d="M411.9,-79L364.4,-14.3L413,2Z" shape-rendering="crispEdges"/><path fill="#EFEEF6" d="M413,2L364.4,-14.3L366.3,50.3Z" shape-rendering="crispEdges"/><path fill="#7356A5" d="M1863.3,585L1857.8,494.8L1788,598.8Z" shape-rendering="crispEdges"/><path fill="#896CB2" d="M1833.9,414.3L1854.2,361.7L1809.1,328.8Z" shape-rendering="crispEdges"/><path fill="#A589C3" d="M227.4,963.9L285.6,947.8L187.6,883.9Z" shape-rendering="crispEdges"/><path fill="#D7D6E9" d="M194.9,361.7L276.6,435.2L291.1,371.3Z" shape-rendering="crispEdges"/><path fill="#B6AFD6" d="M153,728.5L221.6,724.8L221.4,665.1Z" shape-rendering="crispEdges"/><path fill="#ECEBF4" d="M366.3,50.3L312.8,113.9L341.2,127.3Z" shape-rendering="crispEdges"/><path fill="#9877B8" d="M292.2,1086L371.9,1082.7L345.2,1023.2Z" shape-rendering="crispEdges"/><path fill="#9777B8" d="M345.2,1023.2L371.9,1082.7L416.4,1046Z" shape-rendering="crispEdges"/><path fill="#5E3C98" d="M1876.3,736.8L1784.8,741.7L1869.5,784.5Z" shape-rendering="crispEdges"/><path fill="#6E51A2" d="M1837.1,633.2L1863.3,585L1788,598.8Z" shape-rendering="crispEdges"/><path fill="#9372B5" d="M349.7,1181.4L462,1184.4L440.4,1100.4Z" shape-rendering="crispEdges"/><path fill="#8B6CB1" d="M500.4,1174.5L462,1184.4L727.1,1160Z" shape-rendering="crispEdges"/><path fill="#AD95C9" d="M1620.6,-82.3L1550,-29.2L1620.2,-21.1Z" shape-rendering="crispEdges"/><path fill="#AE96CA" d="M1620.6,-82.3L1562.5,-96L1550,-29.2Z" shape-rendering="crispEdges"/><path fill="#8567AF" d="M1909.8,400.5L1854.2,361.7L1833.9,414.3Z" shape-rendering="crispEdges"/><path fill="#9173B6" d="M1809.1,328.8L1874.4,288.4L1788,278.2Z" shape-rendering="crispEdges"/><path fill="#8B6DB2" d="M1874.4,288.4L1854.2,361.7L1911.6,336.8Z" shape-rendering="crispEdges"/><path fill="#DFDEED" d="M133.2,377.5L194.9,361.7L121.5,293.7Z" shape-rendering="crispEdges"/><path fill="#DDDCEC" d="M237.8,285.4L194.9,361.7L291.1,371.3Z" shape-rendering="crispEdges"/><path fill="#EBE9F3" d="M216,127.8L236,230.4L309.5,192.2Z" shape-rendering="crispEdges"/><path fill="#AFA1CE" d="M221.6,724.8L211.9,823.3L270,803.6Z" shape-rendering="crispEdges"/><path fill="#B9B4D8" d="M153,728.5L221.4,665.1L131,654.4Z" shape-rendering="crispEdges"/><path fill="#50248B" d="M1465.2,1181.7L1631.8,1169.8L1559.2,1155.7Z" shape-rendering="crispEdges"/><path fill="#4E1F89" d="M1559.2,1155.7L1631.8,1169.8L1610.8,1080.7Z" shape-rendering="crispEdges"/><path fill="#4D1C89" d="M1706.4,1009.9L1805.9,1038.2L1758,931.8Z" shape-rendering="crispEdges"/><path fill="#4B1A87" d="M1847.3,1183L1631.8,1169.8L1465.2,1181.7Z" shape-rendering="crispEdges"/><path fill="#583192" d="M1869.5,784.5L1798.3,804.4L1862.8,870.5Z" shape-rendering="crispEdges"/><path fill="#5D3A97" d="M1869.5,784.5L1784.8,741.7L1798.3,804.4Z" shape-rendering="crispEdges"/><path fill="#8062AC" d="M1909.8,400.5L1833.9,414.3L1857.8,494.8Z" shape-rendering="crispEdges"/><path fill="#EFEDF5" d="M366.3,50.3L260,48.5L312.8,113.9Z" shape-rendering="crispEdges"/><path fill="#EDEBF4" d="M312.8,113.9L216,127.8L309.5,192.2Z" shape-rendering="crispEdges"/><path fill="#EDECF5" d="M411.9,-79L413,2L481.9,-47.4Z" shape-rendering="crispEdges"/><path fill="#AB8FC7" d="M1731.9,-50.2L1620.6,-82.3L1620.2,-21.1Z" shape-rendering="crispEdges"/><path fill="#A88CC5" d="M1731.9,-50.2L1652.7,56.8L1688.1,65.8Z" shape-rendering="crispEdges"/><path fill="#9F81BE" d="M1807.6,142.5L1699.3,131.3L1769.5,201Z" shape-rendering="crispEdges"/><path fill="#51248C" d="M1862.8,870.5L1778.4,901.7L1864,936.8Z" shape-rendering="crispEdges"/><path fill="#9E80BE" d="M285.6,947.8L265.5,1004.9L345.2,1023.2Z" shape-rendering="crispEdges"/><path fill="#9473B6" d="M371.9,1082.7L349.7,1181.4L440.4,1100.4Z" shape-rendering="crispEdges"/><path fill="#A183C0" d="M227.4,963.9L265.5,1004.9L285.6,947.8Z" shape-rendering="crispEdges"/><path fill="#4B1A87" d="M1631.8,1169.8L1716.2,1104.3L1610.8,1080.7Z" shape-rendering="crispEdges"/><path fill="#ECEBF4" d="M495.4,-88.8L411.9,-79L481.9,-47.4Z" shape-rendering="crispEdges"/><path fill="#EDECF5" d="M378.8,-94.7L411.9,-79L495.4,-88.8Z" shape-rendering="crispEdges"/><path fill="#9779BA" d="M1858.7,225.1L1769.5,201L1788,278.2Z" shape-rendering="crispEdges"/><path fill="#C2BEDD" d="M131,654.4L214.9,576.5L115.5,569.7Z" shape-rendering="crispEdges"/><path fill="#BEBADB" d="M131,654.4L221.4,665.1L214.9,576.5Z" shape-rendering="crispEdges"/><path fill="#A68EC5" d="M187.6,883.9L285.6,947.8L283.3,861.6Z" shape-rendering="crispEdges"/><path fill="#7B5CA8" d="M1909.8,400.5L1857.8,494.8L1953,507.8Z" shape-rendering="crispEdges"/><path fill="#8D6FB4" d="M1854.2,361.7L1874.4,288.4L1809.1,328.8Z" shape-rendering="crispEdges"/><path fill="#51238C" d="M1864,936.8L1778.4,901.7L1758,931.8Z" shape-rendering="crispEdges"/><path fill="#5F3F98" d="M1957.7,744.1L1919.1,661.3L1876.3,736.8Z" shape-rendering="crispEdges"/><path fill="#AA95C9" d="M187.6,883.9L283.3,861.6L211.9,823.3Z" shape-rendering="crispEdges"/><path fill="#9475B7" d="M1874.4,288.4L1858.7,225.1L1788,278.2Z" shape-rendering="crispEdges"/><path fill="#7456A4" d="M1953,507.8L1857.8,494.8L1863.3,585Z" shape-rendering="crispEdges"/><path fill="#9474B6" d="M1874.4,288.4L1922.6,218L1858.7,225.1Z" shape-rendering="crispEdges"/><path fill="#AD99CB" d="M157.9,810.9L187.6,883.9L211.9,823.3Z" shape-rendering="crispEdges"/><path fill="#C9C6E0" d="M214.9,576.5L235.2,513.1L110.7,493.2Z" shape-rendering="crispEdges"/><path fill="#B3A7D2" d="M153,728.5L157.9,810.9L221.6,724.8Z" shape-rendering="crispEdges"/><path fill="#5B3794" d="M1927.4,788.2L1876.3,736.8L1869.5,784.5Z" shape-rendering="crispEdges"/><path fill="#64479D" d="M1876.3,736.8L1919.1,661.3L1837.1,633.2Z" shape-rendering="crispEdges"/><path fill="#AF9CCD" d="M130.6,857.5L157.9,810.9L51.1,822.9Z" shape-rendering="crispEdges"/><path fill="#9D7DBC" d="M234.9,1009.3L292.2,1086L265.5,1004.9Z" shape-rendering="crispEdges"/><path fill="#9B7BBA" d="M265.5,1004.9L292.2,1086L345.2,1023.2Z" shape-rendering="crispEdges"/><path fill="#E1E0EE" d="M121.5,293.7L194.9,361.7L237.8,285.4Z" shape-rendering="crispEdges"/><path fill="#D8D8EA" d="M194.9,361.7L133.2,377.5L194.4,444.4Z" shape-rendering="crispEdges"/><path fill="#E7E6F1" d="M121.5,293.7L237.8,285.4L128.1,220.2Z" shape-rendering="crispEdges"/><path fill="#CECCE4" d="M110.7,493.2L235.2,513.1L194.4,444.4Z" shape-rendering="crispEdges"/><path fill="#BAB3D8" d="M131,654.4L41.4,706.3L153,728.5Z" shape-rendering="crispEdges"/><path fill="#A082BF" d="M227.4,963.9L234.9,1009.3L265.5,1004.9Z" shape-rendering="crispEdges"/><path fill="#A385C1" d="M136.6,949.9L234.9,1009.3L227.4,963.9Z" shape-rendering="crispEdges"/><path fill="#A68AC4" d="M136.6,949.9L227.4,963.9L187.6,883.9Z" shape-rendering="crispEdges"/><path fill="#6C4DA0" d="M2003.6,549.9L1936.9,596.3L2003.6,636.4Z" shape-rendering="crispEdges"/><path fill="#6A4C9F" d="M1919.1,661.3L1936.9,596.3L1863.3,585Z" shape-rendering="crispEdges"/><path fill="#8A6AB1" d="M1993.6,299.9L1911.6,336.8L2031,352.9Z" shape-rendering="crispEdges"/><path fill="#8768B0" d="M1909.8,400.5L1911.6,336.8L1854.2,361.7Z" shape-rendering="crispEdges"/><path fill="#F2F0F7" d="M260,48.5L366.3,50.3L264.4,-6.7Z" shape-rendering="crispEdges"/><path fill="#F0EEF6" d="M260,48.5L216,127.8L312.8,113.9Z" shape-rendering="crispEdges"/><path fill="#D2D1E6" d="M107.9,435.7L110.7,493.2L194.4,444.4Z" shape-rendering="crispEdges"/><path fill="#EAE9F4" d="M609.1,-113.8L378.8,-94.7L495.4,-88.8Z" shape-rendering="crispEdges"/><path fill="#EFEEF6" d="M411.9,-79L378.8,-94.7L364.4,-14.3Z" shape-rendering="crispEdges"/><path fill="#491686" d="M1716.2,1104.3L1805.9,1038.2L1706.4,1009.9Z" shape-rendering="crispEdges"/><path fill="#450E82" d="M1807.9,1110.6L1805.9,1038.2L1716.2,1104.3Z" shape-rendering="crispEdges"/><path fill="#F1F0F7" d="M264.4,-6.7L366.3,50.3L364.4,-14.3Z" shape-rendering="crispEdges"/><path fill="#9776B7" d="M300.8,1200.4L349.7,1181.4L292.2,1086Z" shape-rendering="crispEdges"/><path fill="#9675B7" d="M292.2,1086L349.7,1181.4L371.9,1082.7Z" shape-rendering="crispEdges"/><path fill="#8A6BB1" d="M462,1184.4L300.8,1200.4L974,1203.5Z" shape-rendering="crispEdges"/><path fill="#4D1C89" d="M1805.9,1038.2L1864,936.8L1758,931.8Z" shape-rendering="crispEdges"/><path fill="#573091" d="M1862.8,870.5L1927.4,788.2L1869.5,784.5Z" shape-rendering="crispEdges"/><path fill="#471284" d="M1847.3,1183L1721.9,1160.4L1631.8,1169.8Z" shape-rendering="crispEdges"/><path fill="#491686" d="M1631.8,1169.8L1721.9,1160.4L1716.2,1104.3Z" shape-rendering="crispEdges"/><path fill="#D9D8EA" d="M58.9,420.2L107.9,435.7L133.2,377.5Z" shape-rendering="crispEdges"/><path fill="#D6D6E9" d="M133.2,377.5L107.9,435.7L194.4,444.4Z" shape-rendering="crispEdges"/><path fill="#9C7CBB" d="M1865.3,103.1L1807.6,142.5L1858.7,225.1Z" shape-rendering="crispEdges"/><path fill="#A080BD" d="M1865.3,103.1L1803.7,53.9L1807.6,142.5Z" shape-rendering="crispEdges"/><path fill="#A183BF" d="M1807.6,142.5L1803.7,53.9L1699.3,131.3Z" shape-rendering="crispEdges"/><path fill="#6F51A1" d="M1936.9,596.3L1953,507.8L1863.3,585Z" shape-rendering="crispEdges"/><path fill="#A789C3" d="M1803.7,53.9L1731.9,-50.2L1688.1,65.8Z" shape-rendering="crispEdges"/><path fill="#53288D" d="M1944.5,893.8L1927.4,788.2L1862.8,870.5Z" shape-rendering="crispEdges"/><path fill="#7052A2" d="M1936.9,596.3L2003.6,549.9L1953,507.8Z" shape-rendering="crispEdges"/><path fill="#F3F2F8" d="M264.4,-6.7L232.6,53.1L260,48.5Z" shape-rendering="crispEdges"/><path fill="#F2F0F7" d="M260,48.5L232.6,53.1L216,127.8Z" shape-rendering="crispEdges"/><path fill="#E7E6F2" d="M128.1,220.2L237.8,285.4L236,230.4Z" shape-rendering="crispEdges"/><path fill="#C5C2DF" d="M73.3,561.1L86.8,626.9L115.5,569.7Z" shape-rendering="crispEdges"/><path fill="#C1BDDD" d="M115.5,569.7L86.8,626.9L131,654.4Z" shape-rendering="crispEdges"/><path fill="#CAC6E1" d="M73.3,561.1L115.5,569.7L110.7,493.2Z" shape-rendering="crispEdges"/><path fill="#ECEAF4" d="M128.1,220.2L236,230.4L216,127.8Z" shape-rendering="crispEdges"/><path fill="#CCC9E2" d="M54.6,521.1L73.3,561.1L110.7,493.2Z" shape-rendering="crispEdges"/><path fill="#8C6DB2" d="M1993.6,299.9L1926.9,281.7L1911.6,336.8Z" shape-rendering="crispEdges"/><path fill="#8D6EB3" d="M1911.6,336.8L1926.9,281.7L1874.4,288.4Z" shape-rendering="crispEdges"/><path fill="#B2A3D0" d="M51.1,822.9L157.9,810.9L153,728.5Z" shape-rendering="crispEdges"/><path fill="#AC98CA" d="M157.9,810.9L130.6,857.5L187.6,883.9Z" shape-rendering="crispEdges"/><path fill="#9A78B8" d="M191,1108.1L300.8,1200.4L292.2,1086Z" shape-rendering="crispEdges"/><path fill="#F3F1F8" d="M294.2,-80.7L264.4,-6.7L364.4,-14.3Z" shape-rendering="crispEdges"/><path fill="#491585" d="M1805.9,1038.2L1837.3,1043L1864,936.8Z" shape-rendering="crispEdges"/><path fill="#5A3694" d="M1995.5,728.7L1957.7,744.1L1997.2,824.9Z" shape-rendering="crispEdges"/><path fill="#450D82" d="M1849.5,1084.5L1837.3,1043L1805.9,1038.2Z" shape-rendering="crispEdges"/><path fill="#D2D0E6" d="M54.6,521.1L110.7,493.2L58.9,420.2Z" shape-rendering="crispEdges"/><path fill="#AA92C8" d="M77.4,883.7L136.6,949.9L130.6,857.5Z" shape-rendering="crispEdges"/><path fill="#4F218A" d="M1944.5,893.8L1862.8,870.5L1864,936.8Z" shape-rendering="crispEdges"/><path fill="#5B3894" d="M1927.4,788.2L1957.7,744.1L1876.3,736.8Z" shape-rendering="crispEdges"/><path fill="#9878B9" d="M1922.6,218L1865.3,103.1L1858.7,225.1Z" shape-rendering="crispEdges"/><path fill="#A88AC4" d="M1763.2,-81.7L1722.7,-99L1731.9,-50.2Z" shape-rendering="crispEdges"/><path fill="#A687C2" d="M1811.7,4L1731.9,-50.2L1803.7,53.9Z" shape-rendering="crispEdges"/><path fill="#AA8DC6" d="M1731.9,-50.2L1722.7,-99L1620.6,-82.3Z" shape-rendering="crispEdges"/><path fill="#AC91C8" d="M1620.6,-82.3L1722.7,-99L1562.5,-96Z" shape-rendering="crispEdges"/><path fill="#AC91C8" d="M1562.5,-96L1860.4,-124.9L1499.6,-101.6Z" shape-rendering="crispEdges"/><path fill="#AE96CA" d="M1499.6,-101.6L1860.4,-124.9L1390.2,-107.1Z" shape-rendering="crispEdges"/><path fill="#B19CCD" d="M1390.2,-107.1L1860.4,-124.9L1282.9,-110.9Z" shape-rendering="crispEdges"/><path fill="#F0EEF6" d="M144.5,111.4L128.1,220.2L216,127.8Z" shape-rendering="crispEdges"/><path fill="#D4D3E8" d="M58.9,420.2L110.7,493.2L107.9,435.7Z" shape-rendering="crispEdges"/><path fill="#F2F0F7" d="M144.5,111.4L216,127.8L232.6,53.1Z" shape-rendering="crispEdges"/><path fill="#471284" d="M1721.9,1160.4L1776.5,1151L1716.2,1104.3Z" shape-rendering="crispEdges"/><path fill="#460F83" d="M1776.5,1151L1807.9,1110.6L1716.2,1104.3Z" shape-rendering="crispEdges"/><path fill="#9171B5" d="M1926.9,281.7L1922.6,218L1874.4,288.4Z" shape-rendering="crispEdges"/><path fill="#9170B4" d="M1993.6,299.9L1922.6,218L1926.9,281.7Z" shape-rendering="crispEdges"/><path fill="#A282BF" d="M1881.4,59.9L1811.7,4L1803.7,53.9Z" shape-rendering="crispEdges"/><path fill="#9B7ABA" d="M191,1108.1L292.2,1086L234.9,1009.3Z" shape-rendering="crispEdges"/><path fill="#9574B6" d="M349.7,1181.4L300.8,1200.4L462,1184.4Z" shape-rendering="crispEdges"/><path fill="#F1F0F7" d="M378.8,-94.7L294.2,-80.7L364.4,-14.3Z" shape-rendering="crispEdges"/><path fill="#F4F2F8" d="M115.5,78.3L144.5,111.4L232.6,53.1Z" shape-rendering="crispEdges"/><path fill="#DDDCED" d="M58.9,420.2L133.2,377.5L65.7,328.9Z" shape-rendering="crispEdges"/><path fill="#BFBBDC" d="M-32.9,639.3L41.4,706.3L86.8,626.9Z" shape-rendering="crispEdges"/><path fill="#BDB9DB" d="M41.4,706.3L131,654.4L86.8,626.9Z" shape-rendering="crispEdges"/><path fill="#A991C7" d="M130.6,857.5L136.6,949.9L187.6,883.9Z" shape-rendering="crispEdges"/><path fill="#E1E0EF" d="M65.7,328.9L133.2,377.5L121.5,293.7Z" shape-rendering="crispEdges"/><path fill="#A788C3" d="M1811.7,4L1763.2,-81.7L1731.9,-50.2Z" shape-rendering="crispEdges"/><path fill="#674A9E" d="M2003.6,636.4L1936.9,596.3L1919.1,661.3Z" shape-rendering="crispEdges"/><path fill="#7C5DA9" d="M1953,507.8L2003.2,452L1909.8,400.5Z" shape-rendering="crispEdges"/><path fill="#430880" d="M1847.3,1183L1849.5,1084.5L1807.9,1110.6Z" shape-rendering="crispEdges"/><path fill="#440A81" d="M1807.9,1110.6L1849.5,1084.5L1805.9,1038.2Z" shape-rendering="crispEdges"/><path fill="#4B1987" d="M1920.6,978.9L1944.5,893.8L1864,936.8Z" shape-rendering="crispEdges"/><path fill="#491485" d="M1920.6,978.9L1864,936.8L1837.3,1043Z" shape-rendering="crispEdges"/><path fill="#62459B" d="M1995.5,728.7L2003.6,636.4L1919.1,661.3Z" shape-rendering="crispEdges"/><path fill="#5F3F98" d="M1995.5,728.7L1919.1,661.3L1957.7,744.1Z" shape-rendering="crispEdges"/><path fill="#795AA7" d="M2022,480.4L2003.2,452L1953,507.8Z" shape-rendering="crispEdges"/><path fill="#E9E8F3" d="M79.5,251.1L121.5,293.7L128.1,220.2Z" shape-rendering="crispEdges"/><path fill="#E6E5F1" d="M79.5,251.1L65.7,328.9L121.5,293.7Z" shape-rendering="crispEdges"/><path fill="#583392" d="M1997.2,824.9L1957.7,744.1L1927.4,788.2Z" shape-rendering="crispEdges"/><path fill="#F5F3F9" d="M220.9,-15.2L232.6,53.1L264.4,-6.7Z" shape-rendering="crispEdges"/><path fill="#F5F3F9" d="M294.2,-80.7L220.9,-15.2L264.4,-6.7Z" shape-rendering="crispEdges"/><path fill="#A080BD" d="M1865.3,103.1L1881.4,59.9L1803.7,53.9Z" shape-rendering="crispEdges"/><path fill="#A586C1" d="M1811.7,4L1840.1,-31.8L1763.2,-81.7Z" shape-rendering="crispEdges"/><path fill="#9E7CBB" d="M1910.1,37.2L1881.4,59.9L1956.7,99.8Z" shape-rendering="crispEdges"/><path fill="#9E7CBB" d="M1881.4,59.9L1865.3,103.1L1956.7,99.8Z" shape-rendering="crispEdges"/><path fill="#450E82" d="M1914.6,1032.1L1920.6,978.9L1837.3,1043Z" shape-rendering="crispEdges"/><path fill="#552C8F" d="M1991.8,857.4L1997.2,824.9L1927.4,788.2Z" shape-rendering="crispEdges"/><path fill="#EBEAF4" d="M79.3,220.3L79.5,251.1L128.1,220.2Z" shape-rendering="crispEdges"/><path fill="#CBC7E1" d="M-16.2,573.2L73.3,561.1L54.6,521.1Z" shape-rendering="crispEdges"/><path fill="#C6C3DF" d="M-16.2,573.2L86.8,626.9L73.3,561.1Z" shape-rendering="crispEdges"/><path fill="#9E7DBB" d="M122.5,1048.4L191,1108.1L234.9,1009.3Z" shape-rendering="crispEdges"/><path fill="#A283BF" d="M122.5,1048.4L234.9,1009.3L136.6,949.9Z" shape-rendering="crispEdges"/><path fill="#7051A2" d="M2003.6,636.4L2022,480.4L2003.6,549.9Z" shape-rendering="crispEdges"/><path fill="#7556A4" d="M2003.6,549.9L2022,480.4L1953,507.8Z" shape-rendering="crispEdges"/><path fill="#8667AF" d="M2031,352.9L1911.6,336.8L1909.8,400.5Z" shape-rendering="crispEdges"/><path fill="#65489D" d="M1997.2,824.9L2022,480.4L2003.6,636.4Z" shape-rendering="crispEdges"/><path fill="#8263AD" d="M2031,352.9L1909.8,400.5L2003.2,452Z" shape-rendering="crispEdges"/><path fill="#AE99CB" d="M51.1,822.9L77.4,883.7L130.6,857.5Z" shape-rendering="crispEdges"/><path fill="#EFEEF6" d="M70.1,114.4L79.3,220.3L128.1,220.2Z" shape-rendering="crispEdges"/><path fill="#DFDEEE" d="M1.8,364.8L58.9,420.2L65.7,328.9Z" shape-rendering="crispEdges"/><path fill="#A280BE" d="M1910.1,37.2L1840.1,-31.8L1881.4,59.9Z" shape-rendering="crispEdges"/><path fill="#A383BF" d="M1881.4,59.9L1840.1,-31.8L1811.7,4Z" shape-rendering="crispEdges"/><path fill="#53298D" d="M1991.8,857.4L1927.4,788.2L1944.5,893.8Z" shape-rendering="crispEdges"/><path fill="#5D3C97" d="M1995.5,728.7L1997.2,824.9L2003.6,636.4Z" shape-rendering="crispEdges"/><path fill="#440A81" d="M1849.5,1084.5L1914.6,1032.1L1837.3,1043Z" shape-rendering="crispEdges"/><path fill="#4E1F89" d="M2000,958.7L1991.8,857.4L1944.5,893.8Z" shape-rendering="crispEdges"/><path fill="#40027E" d="M1950.3,1109.9L1914.6,1032.1L1849.5,1084.5Z" shape-rendering="crispEdges"/><path fill="#B6AAD4" d="M41.4,706.3L51.1,822.9L153,728.5Z" shape-rendering="crispEdges"/><path fill="#4A1786" d="M2000,958.7L1944.5,893.8L1920.6,978.9Z" shape-rendering="crispEdges"/><path fill="#D6D4E9" d="M2.6,425.1L6.7,513L58.9,420.2Z" shape-rendering="crispEdges"/><path fill="#D2D0E6" d="M58.9,420.2L6.7,513L54.6,521.1Z" shape-rendering="crispEdges"/><path fill="#B6A9D3" d="M41.4,706.3L5,781.9L51.1,822.9Z" shape-rendering="crispEdges"/><path fill="#DCDBEC" d="M2.6,425.1L58.9,420.2L1.8,364.8Z" shape-rendering="crispEdges"/><path fill="#9A79B9" d="M1956.7,99.8L1865.3,103.1L1922.6,218Z" shape-rendering="crispEdges"/><path fill="#7F60AB" d="M2022,480.4L2031,352.9L2003.2,452Z" shape-rendering="crispEdges"/><path fill="#9977B8" d="M2021.4,152.2L1956.7,99.8L1922.6,218Z" shape-rendering="crispEdges"/><path fill="#F1F0F7" d="M144.5,111.4L70.1,114.4L128.1,220.2Z" shape-rendering="crispEdges"/><path fill="#F6F4F9" d="M146.3,-6.1L115.5,78.3L232.6,53.1Z" shape-rendering="crispEdges"/><path fill="#F6F5F9" d="M146.3,-6.1L232.6,53.1L220.9,-15.2Z" shape-rendering="crispEdges"/><path fill="#A486C1" d="M78.9,972.5L122.5,1048.4L136.6,949.9Z" shape-rendering="crispEdges"/><path fill="#A88CC5" d="M78.9,972.5L136.6,949.9L77.4,883.7Z" shape-rendering="crispEdges"/><path fill="#E4E3F0" d="M1.8,364.8L65.7,328.9L-24.9,302.6Z" shape-rendering="crispEdges"/><path fill="#E7E7F2" d="M65.7,328.9L79.5,251.1L-24.9,302.6Z" shape-rendering="crispEdges"/><path fill="#A78AC4" d="M42.6,1005.9L78.9,972.5L6.5,931.8Z" shape-rendering="crispEdges"/><path fill="#440B81" d="M1776.5,1151L1847.3,1183L1807.9,1110.6Z" shape-rendering="crispEdges"/><path fill="#450E82" d="M1721.9,1160.4L1847.3,1183L1776.5,1151Z" shape-rendering="crispEdges"/><path fill="#50248B" d="M1342.7,1202.4L1847.3,1183L1465.2,1181.7Z" shape-rendering="crispEdges"/><path fill="#F3F1F8" d="M378.8,-94.7L237.1,-113.3L294.2,-80.7Z" shape-rendering="crispEdges"/><path fill="#F5F4F9" d="M294.2,-80.7L237.1,-113.3L220.9,-15.2Z" shape-rendering="crispEdges"/><path fill="#EEEDF5" d="M609.1,-113.8L237.1,-113.3L378.8,-94.7Z" shape-rendering="crispEdges"/><path fill="#F3F2F8" d="M50.5,-117.7L237.1,-113.3L609.1,-113.8Z" shape-rendering="crispEdges"/><path fill="#9E7CBB" d="M87.1,1120.7L153.9,1116.7L122.5,1048.4Z" shape-rendering="crispEdges"/><path fill="#9D7BBA" d="M122.5,1048.4L153.9,1116.7L191,1108.1Z" shape-rendering="crispEdges"/><path fill="#9B79B9" d="M191,1108.1L193.2,1198L300.8,1200.4Z" shape-rendering="crispEdges"/><path fill="#9372B5" d="M2029.1,195.9L1922.6,218L1993.6,299.9Z" shape-rendering="crispEdges"/><path fill="#EDECF5" d="M-24.9,302.6L79.5,251.1L-37.7,187.4Z" shape-rendering="crispEdges"/><path fill="#D4D2E7" d="M-63.9,488.1L6.7,513L2.6,425.1Z" shape-rendering="crispEdges"/><path fill="#CECBE4" d="M-63.9,488.1L-16.2,573.2L6.7,513Z" shape-rendering="crispEdges"/><path fill="#CDCAE3" d="M6.7,513L-16.2,573.2L54.6,521.1Z" shape-rendering="crispEdges"/><path fill="#AA8EC6" d="M6.5,931.8L78.9,972.5L77.4,883.7Z" shape-rendering="crispEdges"/><path fill="#F8F6FA" d="M116.9,-83.1L146.3,-6.1L220.9,-15.2Z" shape-rendering="crispEdges"/><path fill="#F4F3F8" d="M115.5,78.3L70.1,114.4L144.5,111.4Z" shape-rendering="crispEdges"/><path fill="#B8AED5" d="M-32.7,749.7L5,781.9L41.4,706.3Z" shape-rendering="crispEdges"/><path fill="#9D7BBA" d="M125,1189.6L193.2,1198L153.9,1116.7Z" shape-rendering="crispEdges"/><path fill="#9C7ABA" d="M153.9,1116.7L193.2,1198L191,1108.1Z" shape-rendering="crispEdges"/><path fill="#F6F4F9" d="M56.6,75.4L70.1,114.4L115.5,78.3Z" shape-rendering="crispEdges"/><path fill="#A07EBC" d="M1990.2,3L1917.9,-2.6L1910.1,37.2Z" shape-rendering="crispEdges"/><path fill="#A281BE" d="M1910.1,37.2L1917.9,-2.6L1840.1,-31.8Z" shape-rendering="crispEdges"/><path fill="#A585C1" d="M1840.1,-31.8L1860.4,-124.9L1763.2,-81.7Z" shape-rendering="crispEdges"/><path fill="#440C81" d="M2008.3,1036.1L1920.6,978.9L1914.6,1032.1Z" shape-rendering="crispEdges"/><path fill="#461083" d="M2008.3,1036.1L2000,958.7L1920.6,978.9Z" shape-rendering="crispEdges"/><path fill="#50238B" d="M1991.8,857.4L2000,958.7L1997.2,824.9Z" shape-rendering="crispEdges"/><path fill="#583492" d="M1997.2,824.9L2008.3,1036.1L2022,480.4Z" shape-rendering="crispEdges"/><path fill="#66499D" d="M2022,480.4L2010.6,1080.9L2031,352.9Z" shape-rendering="crispEdges"/><path fill="#C3BFDE" d="M-99.5,680L-32.9,639.3L-114.8,562.1Z" shape-rendering="crispEdges"/><path fill="#C4C1DE" d="M-16.2,573.2L-32.9,639.3L86.8,626.9Z" shape-rendering="crispEdges"/><path fill="#8F6FB3" d="M2031,352.9L2029.1,195.9L1993.6,299.9Z" shape-rendering="crispEdges"/><path fill="#9F7DBB" d="M1956.7,99.8L1990.2,3L1910.1,37.2Z" shape-rendering="crispEdges"/><path fill="#BCB6D9" d="M-32.9,639.3L-32.7,749.7L41.4,706.3Z" shape-rendering="crispEdges"/><path fill="#AF99CB" d="M-3.5,890L77.4,883.7L51.1,822.9Z" shape-rendering="crispEdges"/><path fill="#9675B7" d="M2029.1,195.9L2021.4,152.2L1922.6,218Z" shape-rendering="crispEdges"/><path fill="#A281BE" d="M1962,-76.2L1860.4,-124.9L1840.1,-31.8Z" shape-rendering="crispEdges"/><path fill="#A687C2" d="M1763.2,-81.7L1860.4,-124.9L1722.7,-99Z" shape-rendering="crispEdges"/><path fill="#A98BC5" d="M1722.7,-99L1860.4,-124.9L1562.5,-96Z" shape-rendering="crispEdges"/><path fill="#BAB0D7" d="M1282.9,-110.9L1860.4,-124.9L756.2,-116.6Z" shape-rendering="crispEdges"/><path fill="#EBEBF4" d="M756.2,-116.6L50.5,-117.7L609.1,-113.8Z" shape-rendering="crispEdges"/><path fill="#A180BD" d="M1962,-76.2L1840.1,-31.8L1917.9,-2.6Z" shape-rendering="crispEdges"/><path fill="#3F017D" d="M1942.6,1168.2L1950.3,1109.9L1849.5,1084.5Z" shape-rendering="crispEdges"/><path fill="#EEEDF5" d="M-37.7,187.4L79.5,251.1L79.3,220.3Z" shape-rendering="crispEdges"/><path fill="#D7D6E9" d="M-88.5,434.5L-63.9,488.1L2.6,425.1Z" shape-rendering="crispEdges"/><path fill="#B29FCE" d="M-3.5,890L51.1,822.9L5,781.9Z" shape-rendering="crispEdges"/><path fill="#A484C0" d="M78.9,972.5L42.6,1005.9L122.5,1048.4Z" shape-rendering="crispEdges"/><path fill="#B29FCE" d="M-91.5,830.3L-3.5,890L5,781.9Z" shape-rendering="crispEdges"/><path fill="#F7F5FA" d="M146.3,-6.1L56.6,75.4L115.5,78.3Z" shape-rendering="crispEdges"/><path fill="#F1F0F7" d="M70.1,114.4L-37.7,187.4L79.3,220.3Z" shape-rendering="crispEdges"/><path fill="#F9F8FB" d="M36.5,-17.6L56.6,75.4L146.3,-6.1Z" shape-rendering="crispEdges"/><path fill="#AC93C9" d="M-3.5,890L6.5,931.8L77.4,883.7Z" shape-rendering="crispEdges"/><path fill="#DCDBEC" d="M-88.5,434.5L2.6,425.1L1.8,364.8Z" shape-rendering="crispEdges"/><path fill="#BAB1D7" d="M-99.5,680L-88.5,750.1L-32.7,749.7Z" shape-rendering="crispEdges"/><path fill="#41037E" d="M1950.3,1109.9L2008.3,1036.1L1914.6,1032.1Z" shape-rendering="crispEdges"/><path fill="#4A1886" d="M2000,958.7L2008.3,1036.1L1997.2,824.9Z" shape-rendering="crispEdges"/><path fill="#9F7DBC" d="M8.8,1084.6L87.1,1120.7L122.5,1048.4Z" shape-rendering="crispEdges"/><path fill="#A281BE" d="M8.8,1084.6L122.5,1048.4L42.6,1005.9Z" shape-rendering="crispEdges"/><path fill="#9E7CBB" d="M87.1,1120.7L125,1189.6L153.9,1116.7Z" shape-rendering="crispEdges"/><path fill="#41047E" d="M1847.3,1183L1942.6,1168.2L1849.5,1084.5Z" shape-rendering="crispEdges"/><path fill="#3F017D" d="M1950.3,1109.9L2010.6,1080.9L2008.3,1036.1Z" shape-rendering="crispEdges"/><path fill="#9A78B9" d="M2029.1,195.9L2023,75.4L2021.4,152.2Z" shape-rendering="crispEdges"/><path fill="#9C7ABA" d="M2021.4,152.2L2023,75.4L1956.7,99.8Z" shape-rendering="crispEdges"/><path fill="#F7F5FA" d="M237.1,-113.3L116.9,-83.1L220.9,-15.2Z" shape-rendering="crispEdges"/><path fill="#9E7CBB" d="M2023,75.4L1990.2,3L1956.7,99.8Z" shape-rendering="crispEdges"/><path fill="#3F007D" d="M1990.3,1179.2L2010.6,1080.9L1950.3,1109.9Z" shape-rendering="crispEdges"/><path fill="#51258C" d="M2008.3,1036.1L2010.6,1080.9L2022,480.4Z" shape-rendering="crispEdges"/><path fill="#DFDFEE" d="M-100.6,334.7L-88.5,434.5L1.8,364.8Z" shape-rendering="crispEdges"/><path fill="#BDB7DA" d="M-99.5,680L-32.7,749.7L-32.9,639.3Z" shape-rendering="crispEdges"/><path fill="#E4E3F0" d="M-100.6,334.7L1.8,364.8L-24.9,302.6Z" shape-rendering="crispEdges"/><path fill="#F5F3F9" d="M-37.7,187.4L70.1,114.4L-39.2,135Z" shape-rendering="crispEdges"/><path fill="#F6F5F9" d="M-39.2,135L70.1,114.4L56.6,75.4Z" shape-rendering="crispEdges"/><path fill="#C7C3E0" d="M-32.9,639.3L-16.2,573.2L-114.8,562.1Z" shape-rendering="crispEdges"/><path fill="#B5A7D2" d="M-32.7,749.7L-91.5,830.3L5,781.9Z" shape-rendering="crispEdges"/><path fill="#AB90C7" d="M-3.5,890L-97.7,954.6L6.5,931.8Z" shape-rendering="crispEdges"/><path fill="#A383BF" d="M-23.7,1028.4L8.8,1084.6L42.6,1005.9Z" shape-rendering="crispEdges"/><path fill="#A17FBD" d="M1997.6,-86.9L1962,-76.2L1990.2,3Z" shape-rendering="crispEdges"/><path fill="#A17FBD" d="M1990.2,3L1962,-76.2L1917.9,-2.6Z" shape-rendering="crispEdges"/><path fill="#CDC9E2" d="M-114.8,562.1L-16.2,573.2L-63.9,488.1Z" shape-rendering="crispEdges"/><path fill="#D2CFE6" d="M-88.5,434.5L-114.8,562.1L-63.9,488.1Z" shape-rendering="crispEdges"/><path fill="#D8D6EA" d="M-100.6,334.7L-114.8,562.1L-88.5,434.5Z" shape-rendering="crispEdges"/><path fill="#F9F8FB" d="M116.9,-83.1L36.5,-17.6L146.3,-6.1Z" shape-rendering="crispEdges"/><path fill="#F8F6FA" d="M-22.3,52.1L-39.2,135L56.6,75.4Z" shape-rendering="crispEdges"/><path fill="#ECEBF5" d="M-37.7,187.4L-86.6,273.5L-24.9,302.6Z" shape-rendering="crispEdges"/><path fill="#A789C3" d="M-23.7,1028.4L42.6,1005.9L6.5,931.8Z" shape-rendering="crispEdges"/><path fill="#9F7DBB" d="M87.1,1120.7L51.4,1162.3L125,1189.6Z" shape-rendering="crispEdges"/><path fill="#A07EBC" d="M8.8,1084.6L51.4,1162.3L87.1,1120.7Z" shape-rendering="crispEdges"/><path fill="#EEEDF6" d="M-115.2,223L-86.6,273.5L-37.7,187.4Z" shape-rendering="crispEdges"/><path fill="#E7E7F2" d="M-86.6,273.5L-100.6,334.7L-24.9,302.6Z" shape-rendering="crispEdges"/><path fill="#3F007D" d="M1847.3,1183L1990.3,1179.2L1942.6,1168.2Z" shape-rendering="crispEdges"/><path fill="#3F007D" d="M1942.6,1168.2L1990.3,1179.2L1950.3,1109.9Z" shape-rendering="crispEdges"/><path fill="#481384" d="M1342.7,1202.4L1990.3,1179.2L1847.3,1183Z" shape-rendering="crispEdges"/><path fill="#B6A8D3" d="M-88.5,750.1L-91.5,830.3L-32.7,749.7Z" shape-rendering="crispEdges"/><path fill="#B8ACD5" d="M-99.5,680L-91.5,830.3L-88.5,750.1Z" shape-rendering="crispEdges"/><path fill="#B3A1CF" d="M-97.7,954.6L-91.5,830.3L-99.5,680Z" shape-rendering="crispEdges"/><path fill="#A788C3" d="M-65.2,1013.1L-23.7,1028.4L6.5,931.8Z" shape-rendering="crispEdges"/><path fill="#A07EBC" d="M8.8,1084.6L0.8,1189.6L51.4,1162.3Z" shape-rendering="crispEdges"/><path fill="#B09ACC" d="M-91.5,830.3L-80.7,872.8L-3.5,890Z" shape-rendering="crispEdges"/><path fill="#F2F1F7" d="M-87.7,133.8L-115.2,223L-37.7,187.4Z" shape-rendering="crispEdges"/><path fill="#FAF8FC" d="M-4.4,0.9L-22.3,52.1L56.6,75.4Z" shape-rendering="crispEdges"/><path fill="#A17FBD" d="M2023,75.4L1997.6,-86.9L1990.2,3Z" shape-rendering="crispEdges"/><path fill="#A17FBD" d="M1962,-76.2L1997.6,-86.9L1860.4,-124.9Z" shape-rendering="crispEdges"/><path fill="#FCFBFD" d="M-1.4,-95L-4.4,0.9L36.5,-17.6Z" shape-rendering="crispEdges"/><path fill="#FAF9FC" d="M36.5,-17.6L-4.4,0.9L56.6,75.4Z" shape-rendering="crispEdges"/><path fill="#AD94C9" d="M-97.7,954.6L-3.5,890L-80.7,872.8Z" shape-rendering="crispEdges"/><path fill="#A98BC5" d="M-97.7,954.6L-65.2,1013.1L6.5,931.8Z" shape-rendering="crispEdges"/><path fill="#A180BD" d="M-23.7,1028.4L-73,1110.6L8.8,1084.6Z" shape-rendering="crispEdges"/><path fill="#F8F7FB" d="M237.1,-113.3L50.5,-117.7L116.9,-83.1Z" shape-rendering="crispEdges"/><path fill="#FAF9FC" d="M116.9,-83.1L50.5,-117.7L36.5,-17.6Z" shape-rendering="crispEdges"/><path fill="#D1CFE5" d="M1860.4,-124.9L50.5,-117.7L756.2,-116.6Z" shape-rendering="crispEdges"/><path fill="#F7F5FA" d="M-87.7,133.8L-39.2,135L-78.2,48.5Z" shape-rendering="crispEdges"/><path fill="#F4F3F8" d="M-87.7,133.8L-37.7,187.4L-39.2,135Z" shape-rendering="crispEdges"/><path fill="#EAEAF4" d="M-86.6,273.5L-115.2,223L-100.6,334.7Z" shape-rendering="crispEdges"/><path fill="#DFDFEE" d="M-100.6,334.7L-115.2,223L-114.8,562.1Z" shape-rendering="crispEdges"/><path fill="#F8F7FB" d="M-39.2,135L-22.3,52.1L-78.2,48.5Z" shape-rendering="crispEdges"/><path fill="#FAF9FC" d="M-78.2,48.5L-22.3,52.1L-4.4,0.9Z" shape-rendering="crispEdges"/><path fill="#BAB0D7" d="M-114.8,562.1L-97.7,954.6L-99.5,680Z" shape-rendering="crispEdges"/><path fill="#AE97CA" d="M-91.5,830.3L-97.7,954.6L-80.7,872.8Z" shape-rendering="crispEdges"/><path fill="#A17FBD" d="M-73,1110.6L0.8,1189.6L8.8,1084.6Z" shape-rendering="crispEdges"/><path fill="#9F7DBC" d="M51.4,1162.3L0.8,1189.6L125,1189.6Z" shape-rendering="crispEdges"/><path fill="#9F7DBB" d="M125,1189.6L-62.3,1199.8L193.2,1198Z" shape-rendering="crispEdges"/><path fill="#A382BF" d="M-73,1110.6L-23.7,1028.4L-65.2,1013.1Z" shape-rendering="crispEdges"/><path fill="#FCFBFD" d="M-63.6,-38.5L-78.2,48.5L-4.4,0.9Z" shape-rendering="crispEdges"/><path fill="#F7F6FA" d="M-87.7,133.8L-117.9,-73.1L-115.2,223Z" shape-rendering="crispEdges"/><path fill="#FBFAFD" d="M50.5,-117.7L-1.4,-95L36.5,-17.6Z" shape-rendering="crispEdges"/><path fill="#A585C0" d="M-97.7,954.6L-73,1110.6L-65.2,1013.1Z" shape-rendering="crispEdges"/><path fill="#FCFBFD" d="M-1.4,-95L-63.6,-38.5L-4.4,0.9Z" shape-rendering="crispEdges"/><path fill="#FAF9FC" d="M-78.2,48.5L-117.9,-73.1L-87.7,133.8Z" shape-rendering="crispEdges"/><path fill="#A17FBD" d="M-73,1110.6L-62.3,1199.8L0.8,1189.6Z" shape-rendering="crispEdges"/><path fill="#A07EBC" d="M0.8,1189.6L-62.3,1199.8L125,1189.6Z" shape-rendering="crispEdges"/><path fill="#9D7BBA" d="M193.2,1198L-62.3,1199.8L300.8,1200.4Z" shape-rendering="crispEdges"/><path fill="#9473B5" d="M300.8,1200.4L-62.3,1199.8L974,1203.5Z" shape-rendering="crispEdges"/><path fill="#A17FBD" d="M-97.7,954.6L-62.3,1199.8L-73,1110.6Z" shape-rendering="crispEdges"/><path fill="#FCFBFD" d="M50.5,-117.7L-117.9,-73.1L-1.4,-95Z" shape-rendering="crispEdges"/><path fill="#FCFBFD" d="M-1.4,-95L-117.9,-73.1L-63.6,-38.5Z" shape-rendering="crispEdges"/><path fill="#FCFBFD" d="M-63.6,-38.5L-117.9,-73.1L-78.2,48.5Z" shape-rendering="crispEdges"/><path fill="#EEEDF5" d="M-115.2,223L-117.9,-73.1L-114.8,562.1Z" shape-rendering="crispEdges"/></svg>