<svg xmlns="http://www.w3.org/2000/svg" width="1920" height="1080"><path fill="#F18344" d="M779.7,712.1L435.5,731.8L376,1087.9Z" shape-rendering="crispEdges"/><path fill="#D86F3D" d="M376,1087.9L833.6,1138.1L779.7,712.1Z" shape-rendering="crispEdges"/><path fill="#D85A33" d="M833.6,1138.1L1113.2,1065.2L779.7,712.1Z" shape-rendering="crispEdges"/><path fill="#C06940" d="M376,1087.9L705.2,1474.3L833.6,1138.1Z" shape-rendering="crispEdges"/><path fill="#BD4530" d="M833.6,1138.1L1149.4,1452.7L1113.2,1065.2Z" shape-rendering="crispEdges"/><path fill="#C1764C" d="M376,1087.9L386.3,1444.4L705.2,1474.3Z" shape-rendering="crispEdges"/><path fill="#ED552A" d="M1113.2,1065.2L1163.5,723.6L779.7,712.1Z" shape-rendering="crispEdges"/><path fill="#DC8C69" d="M-13.9,771.4L20.3,1101.7L376,1087.9Z" shape-rendering="crispEdges"/><path fill="#C37F5D" d="M376,1087.9L20.3,1101.7L386.3,1444.4Z" shape-rendering="crispEdges"/><path fill="#F1905A" d="M435.5,731.8L-13.9,771.4L376,1087.9Z" shape-rendering="crispEdges"/><path fill="#FD893B" d="M1163.5,723.6L834.5,290.8L779.7,712.1Z" shape-rendering="crispEdges"/><path fill="#FFA951" d="M779.7,712.1L403.3,274.8L435.5,731.8Z" shape-rendering="crispEdges"/><path fill="#FFB470" d="M435.5,731.8L29.3,329.1L-13.9,771.4Z" shape-rendering="crispEdges"/><path fill="#FEB34F" d="M834.5,290.8L403.3,274.8L779.7,712.1Z" shape-rendering="crispEdges"/><path fill="#BE5434" d="M705.2,1474.3L1149.4,1452.7L833.6,1138.1Z" shape-rendering="crispEdges"/><path fill="#E01B1E" d="M1575.5,1094.8L1526.2,700.2L1163.5,723.6Z" shape-rendering="crispEdges"/><path fill="#FFC870" d="M403.3,274.8L29.3,329.1L435.5,731.8Z" shape-rendering="crispEdges"/><path fill="#C58973" d="M-362.3,1444.3L-77.5,1465.7L20.3,1101.7Z" shape-rendering="crispEdges"/><path fill="#C4856A" d="M20.3,1101.7L-77.5,1465.7L386.3,1444.4Z" shape-rendering="crispEdges"/><path fill="#C27C57" d="M386.3,1444.4L-77.5,1465.7L705.2,1474.3Z" shape-rendering="crispEdges"/><path fill="#FE8E3D" d="M1163.5,723.6L1219.2,313.5L834.5,290.8Z" shape-rendering="crispEdges"/><path fill="#FA7634" d="M1487.6,353.8L1219.2,313.5L1163.5,723.6Z" shape-rendering="crispEdges"/><path fill="#D42626" d="M1575.5,1094.8L1163.5,723.6L1113.2,1065.2Z" shape-rendering="crispEdges"/><path fill="#B82228" d="M1149.4,1452.7L1575.5,1094.8L1113.2,1065.2Z" shape-rendering="crispEdges"/><path fill="#FFD378" d="M834.5,290.8L711.6,-73.1L403.3,274.8Z" shape-rendering="crispEdges"/><path fill="#FFE998" d="M403.3,274.8L340.1,-69.1L29.3,329.1Z" shape-rendering="crispEdges"/><path fill="#FFC579" d="M1181.8,14.6L711.6,-73.1L834.5,290.8Z" shape-rendering="crispEdges"/><path fill="#E19273" d="M-13.9,771.4L-397.8,1047L20.3,1101.7Z" shape-rendering="crispEdges"/><path fill="#F49971" d="M-459.8,781.6L-397.8,1047L-13.9,771.4Z" shape-rendering="crispEdges"/><path fill="#F35529" d="M1526.2,700.2L1487.6,353.8L1163.5,723.6Z" shape-rendering="crispEdges"/><path fill="#FFAC5E" d="M1219.2,313.5L1181.8,14.6L834.5,290.8Z" shape-rendering="crispEdges"/><path fill="#E78650" d="M1471.3,21.8L1487.6,353.8L1953.9,317.8Z" shape-rendering="crispEdges"/><path fill="#FFE99A" d="M711.6,-73.1L340.1,-69.1L403.3,274.8Z" shape-rendering="crispEdges"/><path fill="#FF9F63" d="M1471.3,21.8L1181.8,14.6L1219.2,313.5Z" shape-rendering="crispEdges"/><path fill="#FFCC86" d="M-437.6,392.3L-13.9,771.4L29.3,329.1Z" shape-rendering="crispEdges"/><path fill="#FFB27B" d="M-437.6,392.3L-459.8,781.6L-13.9,771.4Z" shape-rendering="crispEdges"/><path fill="#C58973" d="M-459.8,781.6L-362.3,1444.3L-397.8,1047Z" shape-rendering="crispEdges"/><path fill="#C58973" d="M-397.8,1047L-362.3,1444.3L20.3,1101.7Z" shape-rendering="crispEdges"/><path fill="#BD332C" d="M705.2,1474.3L1605.5,1505.3L1149.4,1452.7Z" shape-rendering="crispEdges"/><path fill="#B00B23" d="M1149.4,1452.7L1605.5,1505.3L1575.5,1094.8Z" shape-rendering="crispEdges"/><path fill="#B21024" d="M1936.4,1578.4L1605.5,1505.3L705.2,1474.3Z" shape-rendering="crispEdges"/><path fill="#FFF5B4" d="M340.1,-69.1L-28.3,-8.4L29.3,329.1Z" shape-rendering="crispEdges"/><path fill="#FFEFA8" d="M-323.7,-39.1L-437.6,392.3L29.3,329.1Z" shape-rendering="crispEdges"/><path fill="#E14F2D" d="M1880.1,683.9L1487.6,353.8L1526.2,700.2Z" shape-rendering="crispEdges"/><path fill="#FA904E" d="M1487.6,353.8L1471.3,21.8L1219.2,313.5Z" shape-rendering="crispEdges"/><path fill="#FFCD87" d="M1187.9,-458.6L708.4,-448.5L711.6,-73.1Z" shape-rendering="crispEdges"/><path fill="#A60026" d="M1982.4,1126.5L1880.1,683.9L1575.5,1094.8Z" shape-rendering="crispEdges"/><path fill="#CF0E22" d="M1575.5,1094.8L1880.1,683.9L1526.2,700.2Z" shape-rendering="crispEdges"/><path fill="#FFF9BD" d="M-28.3,-8.4L-323.7,-39.1L29.3,329.1Z" shape-rendering="crispEdges"/><path fill="#FFC" d="M24.8,-388L-323.7,-39.1L-28.3,-8.4Z" shape-rendering="crispEdges"/><path fill="#990026" d="M1605.5,1505.3L1982.4,1126.5L1575.5,1094.8Z" shape-rendering="crispEdges"/><path fill="#FFE398" d="M711.6,-73.1L708.4,-448.5L340.1,-69.1Z" shape-rendering="crispEdges"/><path fill="#FFFBC2" d="M340.1,-69.1L24.8,-388L-28.3,-8.4Z" shape-rendering="crispEdges"/><path fill="#FFC080" d="M1187.9,-458.6L711.6,-73.1L1181.8,14.6Z" shape-rendering="crispEdges"/><path fill="#FFEDA3" d="M708.4,-448.5L335.8,-456.7L340.1,-69.1Z" shape-rendering="crispEdges"/><path fill="#BE5836" d="M-77.5,1465.7L1936.4,1578.4L705.2,1474.3Z" shape-rendering="crispEdges"/><path fill="#8A0026" d="M1605.5,1505.3L1936.4,1578.4L1982.4,1126.5Z" shape-rendering="crispEdges"/><path fill="#FFF6B7" d="M335.8,-456.7L24.8,-388L340.1,-69.1Z" shape-rendering="crispEdges"/><path fill="#D26236" d="M1880.1,683.9L1953.9,317.8L1487.6,353.8Z" shape-rendering="crispEdges"/><path fill="#FFA775" d="M1495.8,-442L1187.9,-458.6L1181.8,14.6Z" shape-rendering="crispEdges"/><path fill="#BE5A37" d="M2246.8,392.8L1953.9,317.8L1880.1,683.9Z" shape-rendering="crispEdges"/><path fill="#FFA172" d="M1495.8,-442L1181.8,14.6L1471.3,21.8Z" shape-rendering="crispEdges"/><path fill="#FFD78C" d="M708.4,-448.5L1187.9,-458.6L335.8,-456.7Z" shape-rendering="crispEdges"/><path fill="#ED9672" d="M1897.8,-380.2L1495.8,-442L1471.3,21.8Z" shape-rendering="crispEdges"/><path fill="#D78965" d="M1953.9,317.8L1936.7,-47.4L1471.3,21.8Z" shape-rendering="crispEdges"/><path fill="#FFC" d="M24.8,-388L-430.4,-353.8L-323.7,-39.1Z" shape-rendering="crispEdges"/><path fill="#FFC" d="M-323.7,-39.1L-430.4,-353.8L-437.6,392.3Z" shape-rendering="crispEdges"/><path fill="#FFEBA1" d="M-437.6,392.3L-430.4,-353.8L-459.8,781.6Z" shape-rendering="crispEdges"/><path fill="#FFC" d="M335.8,-456.7L-430.4,-353.8L24.8,-388Z" shape-rendering="crispEdges"/><path fill="#AE0924" d="M2373.6,682.8L1880.1,683.9L1982.4,1126.5Z" shape-rendering="crispEdges"/><path fill="#BD442F" d="M2373.6,682.8L2246.8,392.8L1880.1,683.9Z" shape-rendering="crispEdges"/><path fill="#C48366" d="M1953.9,317.8L2242.6,-11.2L1936.7,-47.4Z" shape-rendering="crispEdges"/><path fill="#800026" d="M1936.4,1578.4L2264.6,1457.1L1982.4,1126.5Z" shape-rendering="crispEdges"/><path fill="#800026" d="M2264.6,1457.1L2356.8,1073.1L1982.4,1126.5Z" shape-rendering="crispEdges"/><path fill="#9A0026" d="M2356.8,1073.1L2373.6,682.8L1982.4,1126.5Z" shape-rendering="crispEdges"/><path fill="#C58973" d="M2242.6,-11.2L1897.8,-380.2L1936.7,-47.4Z" shape-rendering="crispEdges"/><path fill="#DB9073" d="M1936.7,-47.4L1897.8,-380.2L1471.3,21.8Z" shape-rendering="crispEdges"/><path fill="#C27951" d="M2246.8,392.8L2242.6,-11.2L1953.9,317.8Z" shape-rendering="crispEdges"/><path fill="#C06A41" d="M2373.6,682.8L2242.6,-11.2L2246.8,392.8Z" shape-rendering="crispEdges"/><path fill="#C48367" d="M2373.6,682.8L2336.7,-430.2L2242.6,-11.2Z" shape-rendering="crispEdges"/><path fill="#C58973" d="M2242.6,-11.2L2336.7,-430.2L1897.8,-380.2Z" shape-rendering="crispEdges"/><path fill="#C78973" d="M1897.8,-380.2L2336.7,-430.2L1495.8,-442Z" shape-rendering="crispEdges"/><path fill="#E99473" d="M1495.8,-442L2336.7,-430.2L1187.9,-458.6Z" shape-rendering="crispEdges"/></svg>