<svg xmlns="http://www.w3.org/2000/svg" width="1920" height="1080"><path fill="#79B5D9" d="M930.9,465.5L710.3,432.8L959.1,664.9Z" shape-rendering="crispEdges"/><path fill="#7DB6D8" d="M710.3,432.8L609.9,636L959.1,664.9Z" shape-rendering="crispEdges"/><path fill="#6CA1CD" d="M609.9,636L589,1023.7L959.1,664.9Z" shape-rendering="crispEdges"/><path fill="#407FBB" d="M901.3,1194.6L1264.2,832.1L959.1,664.9Z" shape-rendering="crispEdges"/><path fill="#64A8D3" d="M959.1,664.9L1322.1,462.8L930.9,465.5Z" shape-rendering="crispEdges"/><path fill="#4895C8" d="M1264.2,832.1L1322.1,462.8L959.1,664.9Z" shape-rendering="crispEdges"/><path fill="#A9CDE5" d="M930.9,465.5L677.1,2.7L710.3,432.8Z" shape-rendering="crispEdges"/><path fill="#9AC1E1" d="M98,394.4L280.8,817.5L609.9,636Z" shape-rendering="crispEdges"/><path fill="#7DA2D0" d="M609.9,636L280.8,817.5L589,1023.7Z" shape-rendering="crispEdges"/><path fill="#B6D5EA" d="M831.7,-89.7L677.1,2.7L930.9,465.5Z" shape-rendering="crispEdges"/><path fill="#A4CAE5" d="M710.3,432.8L98,394.4L609.9,636Z" shape-rendering="crispEdges"/><path fill="#5683B9" d="M589,1023.7L901.3,1194.6L959.1,664.9Z" shape-rendering="crispEdges"/><path fill="#A8CCE6" d="M1201.7,-48.3L831.7,-89.7L930.9,465.5Z" shape-rendering="crispEdges"/><path fill="#C4DAEE" d="M677.1,2.7L98,394.4L710.3,432.8Z" shape-rendering="crispEdges"/><path fill="#8AB7DB" d="M1322.1,462.8L1201.7,-48.3L930.9,465.5Z" shape-rendering="crispEdges"/><path fill="#2A67A3" d="M901.3,1194.6L1441.1,1034L1264.2,832.1Z" shape-rendering="crispEdges"/><path fill="#458BC3" d="M1264.2,832.1L1687.4,464.2L1322.1,462.8Z" shape-rendering="crispEdges"/><path fill="#5375A3" d="M589,1023.7L878.5,1408.7L901.3,1194.6Z" shape-rendering="crispEdges"/><path fill="#245A95" d="M901.3,1194.6L1469.8,1390.5L1441.1,1034Z" shape-rendering="crispEdges"/><path fill="#607AA7" d="M485.9,1581.9L878.5,1408.7L589,1023.7Z" shape-rendering="crispEdges"/><path fill="#2A73B4" d="M1771.9,854.1L1687.4,464.2L1264.2,832.1Z" shape-rendering="crispEdges"/><path fill="#8BABD5" d="M1322.1,462.8L1801.6,42.7L1201.7,-48.3Z" shape-rendering="crispEdges"/><path fill="#CDE3F1" d="M831.7,-89.7L584.7,-298L677.1,2.7Z" shape-rendering="crispEdges"/><path fill="#DFEBF7" d="M677.1,2.7L234.8,-176.9L98,394.4Z" shape-rendering="crispEdges"/><path fill="#C0DBED" d="M1094.7,-281.5L584.7,-298L831.7,-89.7Z" shape-rendering="crispEdges"/><path fill="#A2C1E1" d="M1465.3,-407.8L1094.7,-281.5L1201.7,-48.3Z" shape-rendering="crispEdges"/><path fill="#AFCFE8" d="M1201.7,-48.3L1094.7,-281.5L831.7,-89.7Z" shape-rendering="crispEdges"/><path fill="#DDEAF6" d="M584.7,-298L234.8,-176.9L677.1,2.7Z" shape-rendering="crispEdges"/><path fill="#90A4D0" d="M-159.3,686.5L87.3,1222.3L280.8,817.5Z" shape-rendering="crispEdges"/><path fill="#7B8DB9" d="M280.8,817.5L87.3,1222.3L589,1023.7Z" shape-rendering="crispEdges"/><path fill="#A6C7E4" d="M98,394.4L-159.3,686.5L280.8,817.5Z" shape-rendering="crispEdges"/><path fill="#C6DFEF" d="M-152.1,227.1L-159.3,686.5L98,394.4Z" shape-rendering="crispEdges"/><path fill="#084B93" d="M1863,1075.1L1771.9,854.1L1441.1,1034Z" shape-rendering="crispEdges"/><path fill="#1862A9" d="M1441.1,1034L1771.9,854.1L1264.2,832.1Z" shape-rendering="crispEdges"/><path fill="#E2EDF8" d="M-157.4,61.5L-152.1,227.1L98,394.4Z" shape-rendering="crispEdges"/><path fill="#7282AC" d="M167.9,1479L485.9,1581.9L589,1023.7Z" shape-rendering="crispEdges"/><path fill="#1E5692" d="M1681.5,1552.3L1469.8,1390.5L878.5,1408.7Z" shape-rendering="crispEdges"/><path fill="#34659B" d="M878.5,1408.7L1469.8,1390.5L901.3,1194.6Z" shape-rendering="crispEdges"/><path fill="#EBF4FB" d="M234.8,-176.9L-157.4,61.5L98,394.4Z" shape-rendering="crispEdges"/><path fill="#8D98C1" d="M-491.7,1084.4L-248.6,1252.8L-159.3,686.5Z" shape-rendering="crispEdges"/><path fill="#7886AF" d="M87.3,1222.3L167.9,1479L589,1023.7Z" shape-rendering="crispEdges"/><path fill="#878EB3" d="M-270.7,1462.1L167.9,1479L87.3,1222.3Z" shape-rendering="crispEdges"/><path fill="#E5EFF9" d="M584.7,-298L212.1,-380.9L234.8,-176.9Z" shape-rendering="crispEdges"/><path fill="#F7FBFF" d="M234.8,-176.9L-72,-477.6L-157.4,61.5Z" shape-rendering="crispEdges"/><path fill="#C8E0EF" d="M1465.3,-407.8L212.1,-380.9L584.7,-298Z" shape-rendering="crispEdges"/><path fill="#6A83B2" d="M2023.3,456.7L1801.6,42.7L1687.4,464.2Z" shape-rendering="crispEdges"/><path fill="#7295C7" d="M1687.4,464.2L1801.6,42.7L1322.1,462.8Z" shape-rendering="crispEdges"/><path fill="#0E4688" d="M1469.8,1390.5L1863,1075.1L1441.1,1034Z" shape-rendering="crispEdges"/><path fill="#396EA6" d="M1771.9,854.1L2023.3,456.7L1687.4,464.2Z" shape-rendering="crispEdges"/><path fill="#98AFD7" d="M1801.6,42.7L1465.3,-407.8L1201.7,-48.3Z" shape-rendering="crispEdges"/><path fill="#AFCEE8" d="M1094.7,-281.5L1465.3,-407.8L584.7,-298Z" shape-rendering="crispEdges"/><path fill="#245B95" d="M2175.4,821.8L2023.3,456.7L1771.9,854.1Z" shape-rendering="crispEdges"/><path fill="#9AB4DA" d="M-491.7,1084.4L-159.3,686.5L-653.1,649.2Z" shape-rendering="crispEdges"/><path fill="#8992B8" d="M-159.3,686.5L-248.6,1252.8L87.3,1222.3Z" shape-rendering="crispEdges"/><path fill="#3A699D" d="M485.9,1581.9L1681.5,1552.3L878.5,1408.7Z" shape-rendering="crispEdges"/><path fill="#094184" d="M1469.8,1390.5L1681.5,1552.3L1863,1075.1Z" shape-rendering="crispEdges"/><path fill="#7986AF" d="M2023.3,456.7L1980.8,-43.1L1801.6,42.7Z" shape-rendering="crispEdges"/><path fill="#92A1CD" d="M1801.6,42.7L1771.7,-490.6L1465.3,-407.8Z" shape-rendering="crispEdges"/><path fill="#DAE9F5" d="M1465.3,-407.8L-72,-477.6L212.1,-380.9Z" shape-rendering="crispEdges"/><path fill="#F1F7FD" d="M212.1,-380.9L-72,-477.6L234.8,-176.9Z" shape-rendering="crispEdges"/><path fill="#878EB3" d="M-435.3,1376.8L-270.7,1462.1L-248.6,1252.8Z" shape-rendering="crispEdges"/><path fill="#878EB3" d="M-248.6,1252.8L-270.7,1462.1L87.3,1222.3Z" shape-rendering="crispEdges"/><path fill="#808AB1" d="M167.9,1479L-270.7,1462.1L485.9,1581.9Z" shape-rendering="crispEdges"/><path fill="#C6DFEF" d="M-587.4,389.5L-159.3,686.5L-152.1,227.1Z" shape-rendering="crispEdges"/><path fill="#E7F0FA" d="M-587.4,389.5L-152.1,227.1L-582.8,-81Z" shape-rendering="crispEdges"/><path fill="#083572" d="M2111.6,1226L2175.4,821.8L1863,1075.1Z" shape-rendering="crispEdges"/><path fill="#0C4386" d="M1863,1075.1L2175.4,821.8L1771.9,854.1Z" shape-rendering="crispEdges"/><path fill="#7282AC" d="M2023.3,456.7L2508.9,291.9L1980.8,-43.1Z" shape-rendering="crispEdges"/><path fill="#F1F7FD" d="M-582.8,-81L-152.1,227.1L-157.4,61.5Z" shape-rendering="crispEdges"/><path fill="#8A94BB" d="M1980.8,-43.1L1771.7,-490.6L1801.6,42.7Z" shape-rendering="crispEdges"/><path fill="#AECEE7" d="M1465.3,-407.8L1771.7,-490.6L-72,-477.6Z" shape-rendering="crispEdges"/><path fill="#B0D0E8" d="M-587.4,389.5L-653.1,649.2L-159.3,686.5Z" shape-rendering="crispEdges"/><path fill="#08326E" d="M1681.5,1552.3L2111.6,1226L1863,1075.1Z" shape-rendering="crispEdges"/><path fill="#8A94BB" d="M-653.1,649.2L-435.3,1376.8L-491.7,1084.4Z" shape-rendering="crispEdges"/><path fill="#878EB3" d="M-491.7,1084.4L-435.3,1376.8L-248.6,1252.8Z" shape-rendering="crispEdges"/><path fill="#F7FBFF" d="M-540.6,-400.2L-582.8,-81L-157.4,61.5Z" shape-rendering="crispEdges"/><path fill="#D8E8F4" d="M-587.4,389.5L-582.8,-81L-653.1,649.2Z" shape-rendering="crispEdges"/><path fill="#08306B" d="M1681.5,1552.3L2149.2,1500L2111.6,1226Z" shape-rendering="crispEdges"/><path fill="#0C4385" d="M2399,1229.6L2448.7,706.2L2175.4,821.8Z" shape-rendering="crispEdges"/><path fill="#08306B" d="M2399,1229.6L2175.4,821.8L2111.6,1226Z" shape-rendering="crispEdges"/><path fill="#2B6098" d="M2175.4,821.8L2448.7,706.2L2023.3,456.7Z" shape-rendering="crispEdges"/><path fill="#878EB3" d="M1980.8,-43.1L2246.8,-525.3L1771.7,-490.6Z" shape-rendering="crispEdges"/><path fill="#F7FBFF" d="M-72,-477.6L-540.6,-400.2L-157.4,61.5Z" shape-rendering="crispEdges"/><path fill="#08306B" d="M2149.2,1500L2399,1229.6L2111.6,1226Z" shape-rendering="crispEdges"/><path fill="#205793" d="M2399,1229.6L2508.9,291.9L2448.7,706.2Z" shape-rendering="crispEdges"/><path fill="#4B71A1" d="M2448.7,706.2L2508.9,291.9L2023.3,456.7Z" shape-rendering="crispEdges"/><path fill="#818BB1" d="M2508.9,291.9L2469.8,-64.1L1980.8,-43.1Z" shape-rendering="crispEdges"/><path fill="#878EB3" d="M2469.8,-64.1L2246.8,-525.3L1980.8,-43.1Z" shape-rendering="crispEdges"/><path fill="#9FBCDF" d="M1771.7,-490.6L2246.8,-525.3L-72,-477.6Z" shape-rendering="crispEdges"/><path fill="#08306B" d="M2149.2,1500L2367.6,1589.6L2399,1229.6Z" shape-rendering="crispEdges"/><path fill="#083573" d="M2399,1229.6L2367.6,1589.6L2508.9,291.9Z" shape-rendering="crispEdges"/><path fill="#08306B" d="M1681.5,1552.3L2367.6,1589.6L2149.2,1500Z" shape-rendering="crispEdges"/><path fill="#124B8C" d="M485.9,1581.9L2367.6,1589.6L1681.5,1552.3Z" shape-rendering="crispEdges"/><path fill="#878EB3" d="M2508.9,291.9L2562.2,-326.8L2469.8,-64.1Z" shape-rendering="crispEdges"/><path fill="#878EB3" d="M2469.8,-64.1L2562.2,-326.8L2246.8,-525.3Z" shape-rendering="crispEdges"/></svg>