<svg xmlns="http://www.w3.org/2000/svg" width="1920" height="1080"><path fill="#49AFC1" d="M919.8,566.5L781.3,650.4L920.6,648.4Z" shape-rendering="crispEdges"/><path fill="#56B7C1" d="M919.8,566.5L719.7,541.2L781.3,650.4Z" shape-rendering="crispEdges"/><path fill="#4DB9C3" d="M1020.4,506.5L921.4,434.3L919.8,566.5Z" shape-rendering="crispEdges"/><path fill="#59BDC1" d="M919.8,566.5L921.4,434.3L719.7,541.2Z" shape-rendering="crispEdges"/><path fill="#3BAEC3" d="M1052.6,662L1020.4,506.5L919.8,566.5Z" shape-rendering="crispEdges"/><path fill="#75C7BE" d="M632,405.3L651.7,574.4L719.7,541.2Z" shape-rendering="crispEdges"/><path fill="#62BBBF" d="M719.7,541.2L651.7,574.4L781.3,650.4Z" shape-rendering="crispEdges"/><path fill="#319ABF" d="M1055.8,803.8L1052.6,662L920.6,648.4Z" shape-rendering="crispEdges"/><path fill="#38AAC3" d="M920.6,648.4L1052.6,662L919.8,566.5Z" shape-rendering="crispEdges"/><path fill="#5198B7" d="M724.5,833.2L889.3,825.5L781.3,650.4Z" shape-rendering="crispEdges"/><path fill="#46A1BE" d="M781.3,650.4L889.3,825.5L920.6,648.4Z" shape-rendering="crispEdges"/><path fill="#6EC5BE" d="M921.4,434.3L727.8,394.8L719.7,541.2Z" shape-rendering="crispEdges"/><path fill="#59B6C0" d="M1167,398.6L1005.7,408L1020.4,506.5Z" shape-rendering="crispEdges"/><path fill="#59BCC1" d="M1020.4,506.5L1005.7,408L921.4,434.3Z" shape-rendering="crispEdges"/><path fill="#7ECBBD" d="M921.4,434.3L902.4,269.2L727.8,394.8Z" shape-rendering="crispEdges"/><path fill="#60A6BA" d="M583,691L724.5,833.2L781.3,650.4Z" shape-rendering="crispEdges"/><path fill="#7BC0BD" d="M487.2,558.2L583,691L651.7,574.4Z" shape-rendering="crispEdges"/><path fill="#67B6BE" d="M651.7,574.4L583,691L781.3,650.4Z" shape-rendering="crispEdges"/><path fill="#3793BB" d="M889.3,825.5L1055.8,803.8L920.6,648.4Z" shape-rendering="crispEdges"/><path fill="#7CCBBC" d="M727.8,394.8L632,405.3L719.7,541.2Z" shape-rendering="crispEdges"/><path fill="#689BB3" d="M583,691L637.5,846.8L724.5,833.2Z" shape-rendering="crispEdges"/><path fill="#5489B0" d="M724.5,833.2L750.4,912.7L889.3,825.5Z" shape-rendering="crispEdges"/><path fill="#5F8CAE" d="M637.5,846.8L750.4,912.7L724.5,833.2Z" shape-rendering="crispEdges"/><path fill="#397EB2" d="M889.3,825.5L1018.5,978.8L1055.8,803.8Z" shape-rendering="crispEdges"/><path fill="#2B91BD" d="M1055.8,803.8L1171.4,683.7L1052.6,662Z" shape-rendering="crispEdges"/><path fill="#36A7C3" d="M1052.6,662L1199.1,546.3L1020.4,506.5Z" shape-rendering="crispEdges"/><path fill="#7FCABE" d="M1004.4,295.1L902.4,269.2L921.4,434.3Z" shape-rendering="crispEdges"/><path fill="#96D5B9" d="M727.8,394.8L649.2,261.4L632,405.3Z" shape-rendering="crispEdges"/><path fill="#93D3BA" d="M902.4,269.2L738.5,281.9L727.8,394.8Z" shape-rendering="crispEdges"/><path fill="#6DC3BF" d="M1005.7,408L1004.4,295.1L921.4,434.3Z" shape-rendering="crispEdges"/><path fill="#6EBDBE" d="M1167,398.6L1004.4,295.1L1005.7,408Z" shape-rendering="crispEdges"/><path fill="#2B9BC1" d="M1171.4,683.7L1199.1,546.3L1052.6,662Z" shape-rendering="crispEdges"/><path fill="#4E80AE" d="M750.4,912.7L889.6,965.4L889.3,825.5Z" shape-rendering="crispEdges"/><path fill="#89CFBC" d="M509.9,421.1L651.7,574.4L632,405.3Z" shape-rendering="crispEdges"/><path fill="#88CDBD" d="M509.9,421.1L487.2,558.2L651.7,574.4Z" shape-rendering="crispEdges"/><path fill="#78A2B3" d="M583,691L453.6,801.3L637.5,846.8Z" shape-rendering="crispEdges"/><path fill="#4AADC1" d="M1199.1,546.3L1167,398.6L1020.4,506.5Z" shape-rendering="crispEdges"/><path fill="#A8DCB7" d="M498.3,237.1L509.9,421.1L632,405.3Z" shape-rendering="crispEdges"/><path fill="#2984B8" d="M1055.8,803.8L1183.8,813.8L1171.4,683.7Z" shape-rendering="crispEdges"/><path fill="#3096BE" d="M1313.7,639.6L1305.5,548.7L1199.1,546.3Z" shape-rendering="crispEdges"/><path fill="#2D78B2" d="M1129.3,913.1L1183.8,813.8L1055.8,803.8Z" shape-rendering="crispEdges"/><path fill="#92CABC" d="M332,520.4L461,672.4L487.2,558.2Z" shape-rendering="crispEdges"/><path fill="#84BFBC" d="M487.2,558.2L461,672.4L583,691Z" shape-rendering="crispEdges"/><path fill="#ACDDB7" d="M788.7,130.6L649.2,261.4L738.5,281.9Z" shape-rendering="crispEdges"/><path fill="#9CD7B9" d="M738.5,281.9L649.2,261.4L727.8,394.8Z" shape-rendering="crispEdges"/><path fill="#4278AE" d="M889.6,965.4L1018.5,978.8L889.3,825.5Z" shape-rendering="crispEdges"/><path fill="#3573AF" d="M1018.5,978.8L1129.3,913.1L1055.8,803.8Z" shape-rendering="crispEdges"/><path fill="#6788AB" d="M637.5,846.8L599.1,946.6L750.4,912.7Z" shape-rendering="crispEdges"/><path fill="#436F97" d="M765.5,1066.6L903.9,1056.7L889.6,965.4Z" shape-rendering="crispEdges"/><path fill="#3B6F9F" d="M889.6,965.4L903.9,1056.7L1018.5,978.8Z" shape-rendering="crispEdges"/><path fill="#7793AD" d="M453.6,801.3L599.1,946.6L637.5,846.8Z" shape-rendering="crispEdges"/><path fill="#83B1B8" d="M461,672.4L453.6,801.3L583,691Z" shape-rendering="crispEdges"/><path fill="#4F76A1" d="M765.5,1066.6L889.6,965.4L750.4,912.7Z" shape-rendering="crispEdges"/><path fill="#3066A2" d="M1018.5,978.8L1129.7,1057.5L1129.3,913.1Z" shape-rendering="crispEdges"/><path fill="#2895BF" d="M1313.7,639.6L1199.1,546.3L1171.4,683.7Z" shape-rendering="crispEdges"/><path fill="#53AABE" d="M1199.1,546.3L1268.3,366.7L1167,398.6Z" shape-rendering="crispEdges"/><path fill="#2185BA" d="M1325.4,778.3L1313.7,639.6L1171.4,683.7Z" shape-rendering="crispEdges"/><path fill="#227EB7" d="M1325.4,778.3L1171.4,683.7L1183.8,813.8Z" shape-rendering="crispEdges"/><path fill="#5C7BA2" d="M599.1,946.6L765.5,1066.6L750.4,912.7Z" shape-rendering="crispEdges"/><path fill="#A8D9BA" d="M918.9,105.9L788.7,130.6L902.4,269.2Z" shape-rendering="crispEdges"/><path fill="#A4D9B9" d="M902.4,269.2L788.7,130.6L738.5,281.9Z" shape-rendering="crispEdges"/><path fill="#96D1BC" d="M1000.1,126L902.4,269.2L1004.4,295.1Z" shape-rendering="crispEdges"/><path fill="#46A1BE" d="M1305.5,548.7L1268.3,366.7L1199.1,546.3Z" shape-rendering="crispEdges"/><path fill="#7EBEBD" d="M1167,398.6L1188.4,237.9L1004.4,295.1Z" shape-rendering="crispEdges"/><path fill="#7AB6BC" d="M1271.2,304.3L1188.4,237.9L1167,398.6Z" shape-rendering="crispEdges"/><path fill="#266BAE" d="M1277.3,943.7L1325.4,778.3L1183.8,813.8Z" shape-rendering="crispEdges"/><path fill="#94C9BC" d="M1188.4,237.9L1000.1,126L1004.4,295.1Z" shape-rendering="crispEdges"/><path fill="#A2D6BB" d="M1000.1,126L918.9,105.9L902.4,269.2Z" shape-rendering="crispEdges"/><path fill="#2E658D" d="M928.9,1219.6L1044.3,1077.5L903.9,1056.7Z" shape-rendering="crispEdges"/><path fill="#316896" d="M903.9,1056.7L1044.3,1077.5L1018.5,978.8Z" shape-rendering="crispEdges"/><path fill="#2A6BAE" d="M1129.3,913.1L1277.3,943.7L1183.8,813.8Z" shape-rendering="crispEdges"/><path fill="#AFDFB7" d="M649.2,261.4L498.3,237.1L632,405.3Z" shape-rendering="crispEdges"/><path fill="#9AD4BB" d="M509.9,421.1L332,520.4L487.2,558.2Z" shape-rendering="crispEdges"/><path fill="#C1E6B5" d="M596.3,143.9L498.3,237.1L649.2,261.4Z" shape-rendering="crispEdges"/><path fill="#8090AA" d="M453.6,801.3L458.9,942.2L599.1,946.6Z" shape-rendering="crispEdges"/><path fill="#5F7895" d="M599.1,946.6L586.8,1066.1L765.5,1066.6Z" shape-rendering="crispEdges"/><path fill="#6CAFBB" d="M1268.3,366.7L1271.2,304.3L1167,398.6Z" shape-rendering="crispEdges"/><path fill="#6CA5B7" d="M1442.9,395L1271.2,304.3L1268.3,366.7Z" shape-rendering="crispEdges"/><path fill="#A6DAB9" d="M363.6,386.8L332,520.4L509.9,421.1Z" shape-rendering="crispEdges"/><path fill="#8AAEB5" d="M461,672.4L350.9,782.1L453.6,801.3Z" shape-rendering="crispEdges"/><path fill="#8994AA" d="M453.6,801.3L341.6,926.6L458.9,942.2Z" shape-rendering="crispEdges"/><path fill="#6B7C94" d="M506.3,1072.9L586.8,1066.1L599.1,946.6Z" shape-rendering="crispEdges"/><path fill="#3A698B" d="M784.9,1245.2L928.9,1219.6L903.9,1056.7Z" shape-rendering="crispEdges"/><path fill="#90B7B8" d="M318.8,681.2L350.9,782.1L461,672.4Z" shape-rendering="crispEdges"/><path fill="#2C6296" d="M1044.3,1077.5L1129.7,1057.5L1018.5,978.8Z" shape-rendering="crispEdges"/><path fill="#BBE3BC" d="M793.1,24.8L596.3,143.9L788.7,130.6Z" shape-rendering="crispEdges"/><path fill="#B9E2B6" d="M788.7,130.6L596.3,143.9L649.2,261.4Z" shape-rendering="crispEdges"/><path fill="#B6E2B6" d="M498.3,237.1L363.6,386.8L509.9,421.1Z" shape-rendering="crispEdges"/><path fill="#94C6BB" d="M332,520.4L318.8,681.2L461,672.4Z" shape-rendering="crispEdges"/><path fill="#2B61A4" d="M1129.7,1057.5L1277.3,943.7L1129.3,913.1Z" shape-rendering="crispEdges"/><path fill="#77839D" d="M458.9,942.2L506.3,1072.9L599.1,946.6Z" shape-rendering="crispEdges"/><path fill="#416B8B" d="M784.9,1245.2L903.9,1056.7L765.5,1066.6Z" shape-rendering="crispEdges"/><path fill="#78808F" d="M373.3,1114.7L506.3,1072.9L458.9,942.2Z" shape-rendering="crispEdges"/><path fill="#B4DEC8" d="M873.4,-36.1L793.1,24.8L918.9,105.9Z" shape-rendering="crispEdges"/><path fill="#B3DEC0" d="M918.9,105.9L793.1,24.8L788.7,130.6Z" shape-rendering="crispEdges"/><path fill="#98BFBA" d="M1333.5,159.6L1142.7,97L1188.4,237.9Z" shape-rendering="crispEdges"/><path fill="#9DC9BB" d="M1188.4,237.9L1142.7,97L1000.1,126Z" shape-rendering="crispEdges"/><path fill="#A9D7C5" d="M1000.1,126L1001.9,-16.1L918.9,105.9Z" shape-rendering="crispEdges"/><path fill="#949FAD" d="M187.5,836.7L341.6,926.6L350.9,782.1Z" shape-rendering="crispEdges"/><path fill="#8C9EAE" d="M350.9,782.1L341.6,926.6L453.6,801.3Z" shape-rendering="crispEdges"/><path fill="#245EA8" d="M1461.2,935.2L1431.7,776.5L1325.4,778.3Z" shape-rendering="crispEdges"/><path fill="#237AB5" d="M1325.4,778.3L1451.6,687.9L1313.7,639.6Z" shape-rendering="crispEdges"/><path fill="#338EBA" d="M1313.7,639.6L1474.4,512.7L1305.5,548.7Z" shape-rendering="crispEdges"/><path fill="#549CB8" d="M1305.5,548.7L1442.9,395L1268.3,366.7Z" shape-rendering="crispEdges"/><path fill="#236EAF" d="M1431.7,776.5L1451.6,687.9L1325.4,778.3Z" shape-rendering="crispEdges"/><path fill="#D8F0B3" d="M310.5,113.8L339.4,270.7L498.3,237.1Z" shape-rendering="crispEdges"/><path fill="#C7E9B4" d="M498.3,237.1L339.4,270.7L363.6,386.8Z" shape-rendering="crispEdges"/><path fill="#AEDDB8" d="M363.6,386.8L218.5,429L332,520.4Z" shape-rendering="crispEdges"/><path fill="#9FCFBB" d="M332,520.4L178,555.5L318.8,681.2Z" shape-rendering="crispEdges"/><path fill="#D1ECB4" d="M490,93.5L498.3,237.1L596.3,143.9Z" shape-rendering="crispEdges"/><path fill="#557289" d="M640.5,1206.9L765.5,1066.6L586.8,1066.1Z" shape-rendering="crispEdges"/><path fill="#235B8B" d="M1044.3,1077.5L1152.9,1203.1L1129.7,1057.5Z" shape-rendering="crispEdges"/><path fill="#1F5391" d="M1129.7,1057.5L1339.2,1121.8L1277.3,943.7Z" shape-rendering="crispEdges"/><path fill="#D3EDBB" d="M583.6,12.7L490,93.5L596.3,143.9Z" shape-rendering="crispEdges"/><path fill="#4891B6" d="M1474.4,512.7L1442.9,395L1305.5,548.7Z" shape-rendering="crispEdges"/><path fill="#8CB6B8" d="M1271.2,304.3L1333.5,159.6L1188.4,237.9Z" shape-rendering="crispEdges"/><path fill="#2D82B6" d="M1451.6,687.9L1474.4,512.7L1313.7,639.6Z" shape-rendering="crispEdges"/><path fill="#687887" d="M464.2,1228.6L640.5,1206.9L506.3,1072.9Z" shape-rendering="crispEdges"/><path fill="#627688" d="M506.3,1072.9L640.5,1206.9L586.8,1066.1Z" shape-rendering="crispEdges"/><path fill="#4B6F89" d="M640.5,1206.9L784.9,1245.2L765.5,1066.6Z" shape-rendering="crispEdges"/><path fill="#A6D1C5" d="M1142.7,97L1001.9,-16.1L1000.1,126Z" shape-rendering="crispEdges"/><path fill="#AFDBCC" d="M1001.9,-16.1L873.4,-36.1L918.9,105.9Z" shape-rendering="crispEdges"/><path fill="#C7E8C0" d="M793.1,24.8L583.6,12.7L596.3,143.9Z" shape-rendering="crispEdges"/><path fill="#36688C" d="M784.9,1245.2L992,1244.7L928.9,1219.6Z" shape-rendering="crispEdges"/><path fill="#2C638C" d="M928.9,1219.6L992,1244.7L1044.3,1077.5Z" shape-rendering="crispEdges"/><path fill="#C2E6CA" d="M789.7,-105.1L583.6,12.7L793.1,24.8Z" shape-rendering="crispEdges"/><path fill="#C0E5B6" d="M211.6,299.6L218.5,429L363.6,386.8Z" shape-rendering="crispEdges"/><path fill="#98B9B7" d="M318.8,681.2L179.3,686.8L350.9,782.1Z" shape-rendering="crispEdges"/><path fill="#8AADB4" d="M1430.9,248.7L1333.5,159.6L1271.2,304.3Z" shape-rendering="crispEdges"/><path fill="#A7CFCB" d="M1142.7,97L1127.2,-22.9L1001.9,-16.1Z" shape-rendering="crispEdges"/><path fill="#265E8C" d="M992,1244.7L1152.9,1203.1L1044.3,1077.5Z" shape-rendering="crispEdges"/><path fill="#275BA7" d="M1277.3,943.7L1461.2,935.2L1325.4,778.3Z" shape-rendering="crispEdges"/><path fill="#ABDABA" d="M218.5,429L178,555.5L332,520.4Z" shape-rendering="crispEdges"/><path fill="#9FC8BC" d="M178,555.5L179.3,686.8L318.8,681.2Z" shape-rendering="crispEdges"/><path fill="#7999B0" d="M1539.3,287.8L1430.9,248.7L1442.9,395Z" shape-rendering="crispEdges"/><path fill="#78A2B4" d="M1442.9,395L1430.9,248.7L1271.2,304.3Z" shape-rendering="crispEdges"/><path fill="#A3C7CB" d="M1288.2,-20.8L1127.2,-22.9L1142.7,97Z" shape-rendering="crispEdges"/><path fill="#B7E0CD" d="M876.9,-114.6L789.7,-105.1L873.4,-36.1Z" shape-rendering="crispEdges"/><path fill="#DEF2C7" d="M486.8,-148.8L479.3,24.8L583.6,12.7Z" shape-rendering="crispEdges"/><path fill="#DBF1C1" d="M583.6,12.7L479.3,24.8L490,93.5Z" shape-rendering="crispEdges"/><path fill="#DCF1B2" d="M490,93.5L310.5,113.8L498.3,237.1Z" shape-rendering="crispEdges"/><path fill="#C9E9B4" d="M339.4,270.7L211.6,299.6L363.6,386.8Z" shape-rendering="crispEdges"/><path fill="#224995" d="M1442,1103.2L1461.2,935.2L1277.3,943.7Z" shape-rendering="crispEdges"/><path fill="#2669AD" d="M1431.7,776.5L1611,707.6L1451.6,687.9Z" shape-rendering="crispEdges"/><path fill="#347DB3" d="M1451.6,687.9L1597.1,565.2L1474.4,512.7Z" shape-rendering="crispEdges"/><path fill="#82838E" d="M239.7,1098.8L373.3,1114.7L341.6,926.6Z" shape-rendering="crispEdges"/><path fill="#84879B" d="M341.6,926.6L373.3,1114.7L458.9,942.2Z" shape-rendering="crispEdges"/><path fill="#9AAFB3" d="M179.3,686.8L187.5,836.7L350.9,782.1Z" shape-rendering="crispEdges"/><path fill="#1A548A" d="M1152.9,1203.1L1339.2,1121.8L1129.7,1057.5Z" shape-rendering="crispEdges"/><path fill="#DFF2B2" d="M225.3,112.1L211.6,299.6L339.4,270.7Z" shape-rendering="crispEdges"/><path fill="#AEDBC1" d="M218.5,429L80.2,527.5L178,555.5Z" shape-rendering="crispEdges"/><path fill="#B1DCCE" d="M876.9,-114.6L873.4,-36.1L1001.9,-16.1Z" shape-rendering="crispEdges"/><path fill="#B9E1CC" d="M873.4,-36.1L789.7,-105.1L793.1,24.8Z" shape-rendering="crispEdges"/><path fill="#9797A9" d="M187.5,836.7L214,950.9L341.6,926.6Z" shape-rendering="crispEdges"/><path fill="#ACD9CF" d="M1056,-180.6L876.9,-114.6L1001.9,-16.1Z" shape-rendering="crispEdges"/><path fill="#737C87" d="M373.3,1114.7L464.2,1228.6L506.3,1072.9Z" shape-rendering="crispEdges"/><path fill="#5B7488" d="M640.5,1206.9L464.2,1228.6L784.9,1245.2Z" shape-rendering="crispEdges"/><path fill="#777D87" d="M350.1,1242.4L464.2,1228.6L373.3,1114.7Z" shape-rendering="crispEdges"/><path fill="#E6F5BB" d="M343.4,17L310.5,113.8L490,93.5Z" shape-rendering="crispEdges"/><path fill="#26469C" d="M1582.5,963.7L1546.8,845.9L1461.2,935.2Z" shape-rendering="crispEdges"/><path fill="#2554A3" d="M1461.2,935.2L1546.8,845.9L1431.7,776.5Z" shape-rendering="crispEdges"/><path fill="#678FAE" d="M1598.8,426.1L1539.3,287.8L1442.9,395Z" shape-rendering="crispEdges"/><path fill="#2C70B0" d="M1611,707.6L1597.1,565.2L1451.6,687.9Z" shape-rendering="crispEdges"/><path fill="#1A4F88" d="M1152.9,1203.1L1268.4,1232.6L1339.2,1121.8Z" shape-rendering="crispEdges"/><path fill="#1B4789" d="M1339.2,1121.8L1442,1103.2L1277.3,943.7Z" shape-rendering="crispEdges"/><path fill="#20598B" d="M992,1244.7L1268.4,1232.6L1152.9,1203.1Z" shape-rendering="crispEdges"/><path fill="#93AAB2" d="M1430.9,248.7L1427.8,124.6L1333.5,159.6Z" shape-rendering="crispEdges"/><path fill="#9FBEC0" d="M1333.5,159.6L1288.2,-20.8L1142.7,97Z" shape-rendering="crispEdges"/><path fill="#92A1AE" d="M1586.3,147.1L1427.8,124.6L1430.9,248.7Z" shape-rendering="crispEdges"/><path fill="#538BB1" d="M1598.8,426.1L1442.9,395L1474.4,512.7Z" shape-rendering="crispEdges"/><path fill="#9CB3BA" d="M1427.8,124.6L1288.2,-20.8L1333.5,159.6Z" shape-rendering="crispEdges"/><path fill="#A9D2CE" d="M1127.2,-22.9L1056,-180.6L1001.9,-16.1Z" shape-rendering="crispEdges"/><path fill="#255CA7" d="M1546.8,845.9L1611,707.6L1431.7,776.5Z" shape-rendering="crispEdges"/><path fill="#4682B0" d="M1597.1,565.2L1598.8,426.1L1474.4,512.7Z" shape-rendering="crispEdges"/><path fill="#507CAC" d="M1726.3,415.4L1598.8,426.1L1597.1,565.2Z" shape-rendering="crispEdges"/><path fill="#174081" d="M1423.8,1197.3L1442,1103.2L1339.2,1121.8Z" shape-rendering="crispEdges"/><path fill="#2752A2" d="M1546.8,845.9L1714.5,807.4L1611,707.6Z" shape-rendering="crispEdges"/><path fill="#B8E1C2" d="M43.7,372.1L80.2,527.5L218.5,429Z" shape-rendering="crispEdges"/><path fill="#A3CAC3" d="M178,555.5L50.8,658.5L179.3,686.8Z" shape-rendering="crispEdges"/><path fill="#9CB0BA" d="M179.3,686.8L68.6,799.3L187.5,836.7Z" shape-rendering="crispEdges"/><path fill="#9A99B0" d="M187.5,836.7L37.1,911.8L214,950.9Z" shape-rendering="crispEdges"/><path fill="#C6E8BC" d="M43.7,372.1L218.5,429L211.6,299.6Z" shape-rendering="crispEdges"/><path fill="#E7F5C6" d="M486.8,-148.8L343.4,17L479.3,24.8Z" shape-rendering="crispEdges"/><path fill="#E4F4C0" d="M479.3,24.8L343.4,17L490,93.5Z" shape-rendering="crispEdges"/><path fill="#E5F5B2" d="M310.5,113.8L225.3,112.1L339.4,270.7Z" shape-rendering="crispEdges"/><path fill="#8B8695" d="M42.4,1073.7L239.7,1098.8L214,950.9Z" shape-rendering="crispEdges"/><path fill="#8E8A9B" d="M214,950.9L239.7,1098.8L341.6,926.6Z" shape-rendering="crispEdges"/><path fill="#A4C7CE" d="M1288.2,-20.8L1147.9,-126.1L1127.2,-22.9Z" shape-rendering="crispEdges"/><path fill="#EFF9B9" d="M224.8,28.8L225.3,112.1L310.5,113.8Z" shape-rendering="crispEdges"/><path fill="#A7D3C6" d="M80.2,527.5L50.8,658.5L178,555.5Z" shape-rendering="crispEdges"/><path fill="#A0BDC2" d="M50.8,658.5L68.6,799.3L179.3,686.8Z" shape-rendering="crispEdges"/><path fill="#CAEAC9" d="M789.7,-105.1L607.3,-159.9L583.6,12.7Z" shape-rendering="crispEdges"/><path fill="#BFE4CB" d="M876.9,-114.6L607.3,-159.9L789.7,-105.1Z" shape-rendering="crispEdges"/><path fill="#B7E0CD" d="M1056,-180.6L607.3,-159.9L876.9,-114.6Z" shape-rendering="crispEdges"/><path fill="#7D7F86" d="M239.7,1098.8L350.1,1242.4L373.3,1114.7Z" shape-rendering="crispEdges"/><path fill="#697887" d="M464.2,1228.6L350.1,1242.4L784.9,1245.2Z" shape-rendering="crispEdges"/><path fill="#203C8E" d="M1559.5,1093.6L1582.5,963.7L1461.2,935.2Z" shape-rendering="crispEdges"/><path fill="#A7CECE" d="M1147.9,-126.1L1056,-180.6L1127.2,-22.9Z" shape-rendering="crispEdges"/><path fill="#194684" d="M1268.4,1232.6L1423.8,1197.3L1339.2,1121.8Z" shape-rendering="crispEdges"/><path fill="#1B3C85" d="M1442,1103.2L1559.5,1093.6L1461.2,935.2Z" shape-rendering="crispEdges"/><path fill="#D8EFC8" d="M607.3,-159.9L486.8,-148.8L583.6,12.7Z" shape-rendering="crispEdges"/><path fill="#EEF8BD" d="M343.4,17L224.8,28.8L310.5,113.8Z" shape-rendering="crispEdges"/><path fill="#D6EEBF" d="M54,258.4L43.7,372.1L211.6,299.6Z" shape-rendering="crispEdges"/><path fill="#A7CDCE" d="M-73.7,525.2L-46.2,700.8L50.8,658.5Z" shape-rendering="crispEdges"/><path fill="#2A5AA6" d="M1714.5,807.4L1699.7,653.1L1611,707.6Z" shape-rendering="crispEdges"/><path fill="#306AAD" d="M1611,707.6L1699.7,653.1L1597.1,565.2Z" shape-rendering="crispEdges"/><path fill="#8A9BAD" d="M1586.3,147.1L1430.9,248.7L1539.3,287.8Z" shape-rendering="crispEdges"/><path fill="#F2FAC5" d="M322.6,-167.5L224.8,28.8L343.4,17Z" shape-rendering="crispEdges"/><path fill="#E4F4B8" d="M225.3,112.1L54,258.4L211.6,299.6Z" shape-rendering="crispEdges"/><path fill="#9FB1C2" d="M1427.8,124.6L1420.1,-34.1L1288.2,-20.8Z" shape-rendering="crispEdges"/><path fill="#A2C0CB" d="M1288.2,-20.8L1331.2,-169.1L1147.9,-126.1Z" shape-rendering="crispEdges"/><path fill="#A4C8CE" d="M1147.9,-126.1L1331.2,-169.1L1056,-180.6Z" shape-rendering="crispEdges"/><path fill="#9DA6BB" d="M1556.5,30.3L1420.1,-34.1L1427.8,124.6Z" shape-rendering="crispEdges"/><path fill="#8991A9" d="M1586.3,147.1L1539.3,287.8L1722.8,269.1Z" shape-rendering="crispEdges"/><path fill="#17397E" d="M1423.8,1197.3L1559.5,1093.6L1442,1103.2Z" shape-rendering="crispEdges"/><path fill="#26459C" d="M1582.5,963.7L1714.5,807.4L1546.8,845.9Z" shape-rendering="crispEdges"/><path fill="#9CA2B8" d="M68.6,799.3L37.1,911.8L187.5,836.7Z" shape-rendering="crispEdges"/><path fill="#828186" d="M239.7,1098.8L171.2,1198.4L350.1,1242.4Z" shape-rendering="crispEdges"/><path fill="#9EA4BF" d="M-91.3,826.9L37.1,911.8L68.6,799.3Z" shape-rendering="crispEdges"/><path fill="#A1BDC8" d="M-46.2,700.8L68.6,799.3L50.8,658.5Z" shape-rendering="crispEdges"/><path fill="#748AAA" d="M1722.8,269.1L1539.3,287.8L1598.8,426.1Z" shape-rendering="crispEdges"/><path fill="#EFF9BC" d="M60.5,101L54,258.4L225.3,112.1Z" shape-rendering="crispEdges"/><path fill="#30669D" d="M1812.1,506.8L1730.5,575.3L1817,707.4Z" shape-rendering="crispEdges"/><path fill="#376DAC" d="M1699.7,653.1L1730.5,575.3L1597.1,565.2Z" shape-rendering="crispEdges"/><path fill="#263A97" d="M1719.3,966.3L1714.5,807.4L1582.5,963.7Z" shape-rendering="crispEdges"/><path fill="#4475AB" d="M1730.5,575.3L1726.3,415.4L1597.1,565.2Z" shape-rendering="crispEdges"/><path fill="#85828D" d="M42.4,1073.7L171.2,1198.4L239.7,1098.8Z" shape-rendering="crispEdges"/><path fill="#BCE3C9" d="M-35.2,402.6L80.2,527.5L43.7,372.1Z" shape-rendering="crispEdges"/><path fill="#AAD5CD" d="M-73.7,525.2L50.8,658.5L80.2,527.5Z" shape-rendering="crispEdges"/><path fill="#D0ECC8" d="M-26.4,266.6L-35.2,402.6L43.7,372.1Z" shape-rendering="crispEdges"/><path fill="#9AA0B1" d="M1586.3,147.1L1556.5,30.3L1427.8,124.6Z" shape-rendering="crispEdges"/><path fill="#9B98B2" d="M1695,11.6L1556.5,30.3L1586.3,147.1Z" shape-rendering="crispEdges"/><path fill="#A0B0C4" d="M1422.1,-169.2L1331.2,-169.1L1420.1,-34.1Z" shape-rendering="crispEdges"/><path fill="#A1B5C6" d="M1420.1,-34.1L1331.2,-169.1L1288.2,-20.8Z" shape-rendering="crispEdges"/><path fill="#B6DFCD" d="M-35.2,402.6L-73.7,525.2L80.2,527.5Z" shape-rendering="crispEdges"/><path fill="#978FAE" d="M-67.6,969.8L42.4,1073.7L37.1,911.8Z" shape-rendering="crispEdges"/><path fill="#968EA9" d="M37.1,911.8L42.4,1073.7L214,950.9Z" shape-rendering="crispEdges"/><path fill="#647C9C" d="M1859.3,401.7L1722.8,269.1L1726.3,415.4Z" shape-rendering="crispEdges"/><path fill="#6881A8" d="M1726.3,415.4L1722.8,269.1L1598.8,426.1Z" shape-rendering="crispEdges"/><path fill="#E4F4C6" d="M607.3,-159.9L322.6,-167.5L486.8,-148.8Z" shape-rendering="crispEdges"/><path fill="#EBF7C6" d="M486.8,-148.8L322.6,-167.5L343.4,17Z" shape-rendering="crispEdges"/><path fill="#F3FABF" d="M224.8,28.8L60.5,101L225.3,112.1Z" shape-rendering="crispEdges"/><path fill="#CAE9C9" d="M1056,-180.6L322.6,-167.5L607.3,-159.9Z" shape-rendering="crispEdges"/><path fill="#F8FCCA" d="M105.1,-43.1L60.5,101L224.8,28.8Z" shape-rendering="crispEdges"/><path fill="#DBF1C5" d="M54,258.4L-26.4,266.6L43.7,372.1Z" shape-rendering="crispEdges"/><path fill="#1F3188" d="M1689.2,1069.4L1719.3,966.3L1582.5,963.7Z" shape-rendering="crispEdges"/><path fill="#2C62A1" d="M1817,707.4L1730.5,575.3L1699.7,653.1Z" shape-rendering="crispEdges"/><path fill="#EAF7C6" d="M-71,141.6L-26.4,266.6L54,258.4Z" shape-rendering="crispEdges"/><path fill="#BDE3CB" d="M-35.2,402.6L-178.5,387.7L-73.7,525.2Z" shape-rendering="crispEdges"/><path fill="#1B3281" d="M1559.5,1093.6L1689.2,1069.4L1582.5,963.7Z" shape-rendering="crispEdges"/><path fill="#172E78" d="M1588,1245.6L1689.2,1069.4L1559.5,1093.6Z" shape-rendering="crispEdges"/><path fill="#9EA3BF" d="M1559.5,-163.9L1420.1,-34.1L1556.5,30.3Z" shape-rendering="crispEdges"/><path fill="#9FA8C1" d="M1559.5,-163.9L1422.1,-169.2L1420.1,-34.1Z" shape-rendering="crispEdges"/><path fill="#A2BECA" d="M1331.2,-169.1L1422.1,-169.2L1056,-180.6Z" shape-rendering="crispEdges"/><path fill="#868390" d="M42.4,1073.7L97.4,1213L171.2,1198.4Z" shape-rendering="crispEdges"/><path fill="#848289" d="M171.2,1198.4L97.4,1213L350.1,1242.4Z" shape-rendering="crispEdges"/><path fill="#A0B3C5" d="M-229.7,781.9L-91.3,826.9L-46.2,700.8Z" shape-rendering="crispEdges"/><path fill="#A0B1C5" d="M-46.2,700.8L-91.3,826.9L68.6,799.3Z" shape-rendering="crispEdges"/><path fill="#898496" d="M42.4,1073.7L-65.6,1110.3L97.4,1213Z" shape-rendering="crispEdges"/><path fill="#26569D" d="M1817,707.4L1699.7,653.1L1714.5,807.4Z" shape-rendering="crispEdges"/><path fill="#4472A1" d="M1730.5,575.3L1812.1,506.8L1726.3,415.4Z" shape-rendering="crispEdges"/><path fill="#204991" d="M1870.6,811.4L1817,707.4L1714.5,807.4Z" shape-rendering="crispEdges"/><path fill="#213D8F" d="M1870.6,811.4L1714.5,807.4L1719.3,966.3Z" shape-rendering="crispEdges"/><path fill="#173E80" d="M1268.4,1232.6L1588,1245.6L1423.8,1197.3Z" shape-rendering="crispEdges"/><path fill="#17357C" d="M1423.8,1197.3L1588,1245.6L1559.5,1093.6Z" shape-rendering="crispEdges"/><path fill="#17367C" d="M1677.5,1255.5L1588,1245.6L1268.4,1232.6Z" shape-rendering="crispEdges"/><path fill="#194985" d="M1677.5,1255.5L1268.4,1232.6L992,1244.7Z" shape-rendering="crispEdges"/><path fill="#9E9ABB" d="M-91.3,826.9L-67.6,969.8L37.1,911.8Z" shape-rendering="crispEdges"/><path fill="#F9FDCB" d="M175.4,-132.3L105.1,-43.1L224.8,28.8Z" shape-rendering="crispEdges"/><path fill="#F1FAC4" d="M60.5,101L-71,141.6L54,258.4Z" shape-rendering="crispEdges"/><path fill="#F6FBC5" d="M322.6,-167.5L175.4,-132.3L224.8,28.8Z" shape-rendering="crispEdges"/><path fill="#838699" d="M1881.4,257.8L1732.1,131.1L1722.8,269.1Z" shape-rendering="crispEdges"/><path fill="#908EA6" d="M1722.8,269.1L1732.1,131.1L1586.3,147.1Z" shape-rendering="crispEdges"/><path fill="#4E749A" d="M1812.1,506.8L1859.3,401.7L1726.3,415.4Z" shape-rendering="crispEdges"/><path fill="#3E6C91" d="M1951.4,561.5L1859.3,401.7L1812.1,506.8Z" shape-rendering="crispEdges"/><path fill="#FDFED4" d="M-50.2,-16.5L60.5,101L105.1,-43.1Z" shape-rendering="crispEdges"/><path fill="#FAFDCE" d="M-50.2,-16.5L-71,141.6L60.5,101Z" shape-rendering="crispEdges"/><path fill="#CDEBC9" d="M-187.4,293.5L-178.5,387.7L-35.2,402.6Z" shape-rendering="crispEdges"/><path fill="#A9D2CE" d="M-73.7,525.2L-205.6,555.4L-46.2,700.8Z" shape-rendering="crispEdges"/><path fill="#9992AC" d="M1732.1,131.1L1695,11.6L1586.3,147.1Z" shape-rendering="crispEdges"/><path fill="#958EA8" d="M1811.7,9.3L1695,11.6L1732.1,131.1Z" shape-rendering="crispEdges"/><path fill="#182977" d="M1860.7,979.3L1719.3,966.3L1830,1059.6Z" shape-rendering="crispEdges"/><path fill="#1D3184" d="M1860.7,979.3L1870.6,811.4L1719.3,966.3Z" shape-rendering="crispEdges"/><path fill="#2B6294" d="M1817,707.4L1951.4,561.5L1812.1,506.8Z" shape-rendering="crispEdges"/><path fill="#8D879D" d="M-214.3,1090.7L-65.6,1110.3L-67.6,969.8Z" shape-rendering="crispEdges"/><path fill="#8D879F" d="M-67.6,969.8L-65.6,1110.3L42.4,1073.7Z" shape-rendering="crispEdges"/><path fill="#9E9ABB" d="M1695,11.6L1559.5,-163.9L1556.5,30.3Z" shape-rendering="crispEdges"/><path fill="#1F588B" d="M784.9,1245.2L1677.5,1255.5L992,1244.7Z" shape-rendering="crispEdges"/><path fill="#172B76" d="M1588,1245.6L1677.5,1255.5L1689.2,1069.4Z" shape-rendering="crispEdges"/><path fill="#446C8A" d="M-94.6,1252.3L1677.5,1255.5L784.9,1245.2Z" shape-rendering="crispEdges"/><path fill="#D7EFC8" d="M-187.4,293.5L-35.2,402.6L-26.4,266.6Z" shape-rendering="crispEdges"/><path fill="#9E9ABB" d="M-91.3,826.9L-169.1,916.3L-67.6,969.8Z" shape-rendering="crispEdges"/><path fill="#B5DFCD" d="M-178.5,387.7L-205.6,555.4L-73.7,525.2Z" shape-rendering="crispEdges"/><path fill="#9EA5C0" d="M-229.7,781.9L-169.1,916.3L-91.3,826.9Z" shape-rendering="crispEdges"/><path fill="#182978" d="M1830,1059.6L1719.3,966.3L1689.2,1069.4Z" shape-rendering="crispEdges"/><path fill="#102367" d="M1859,1190.8L1830,1059.6L1689.2,1069.4Z" shape-rendering="crispEdges"/><path fill="#FBFDD0" d="M175.4,-132.3L42.2,-109.8L105.1,-43.1Z" shape-rendering="crispEdges"/><path fill="#FDFED4" d="M-30.4,-114.5L42.2,-109.8L175.4,-132.3Z" shape-rendering="crispEdges"/><path fill="#C1E5CA" d="M-178.5,387.7L-187.4,293.5L-205.6,555.4Z" shape-rendering="crispEdges"/><path fill="#E8F6C6" d="M-71,141.6L-187.4,293.5L-26.4,266.6Z" shape-rendering="crispEdges"/><path fill="#EFF9C6" d="M-193.2,118.7L-187.4,293.5L-71,141.6Z" shape-rendering="crispEdges"/><path fill="#A6CBCE" d="M-205.6,555.4L-233.9,669L-46.2,700.8Z" shape-rendering="crispEdges"/><path fill="#B2DDCE" d="M-187.4,293.5L-233.9,669L-205.6,555.4Z" shape-rendering="crispEdges"/><path fill="#697887" d="M1969.3,245.6L1881.4,257.8L2016.9,393.9Z" shape-rendering="crispEdges"/><path fill="#6E7E94" d="M1859.3,401.7L1881.4,257.8L1722.8,269.1Z" shape-rendering="crispEdges"/><path fill="#A2BECA" d="M-233.9,669L-229.7,781.9L-46.2,700.8Z" shape-rendering="crispEdges"/><path fill="#FEFFD6" d="M42.2,-109.8L-50.2,-16.5L105.1,-43.1Z" shape-rendering="crispEdges"/><path fill="#184382" d="M1965.3,844L1950.7,662.6L1870.6,811.4Z" shape-rendering="crispEdges"/><path fill="#1C4D8B" d="M1870.6,811.4L1950.7,662.6L1817,707.4Z" shape-rendering="crispEdges"/><path fill="#21598D" d="M1950.7,662.6L1951.4,561.5L1817,707.4Z" shape-rendering="crispEdges"/><path fill="#787E88" d="M1969.3,245.6L1884.3,150.7L1881.4,257.8Z" shape-rendering="crispEdges"/><path fill="#848592" d="M1881.4,257.8L1884.3,150.7L1732.1,131.1Z" shape-rendering="crispEdges"/><path fill="#9D94B9" d="M1695,11.6L1743.8,-153L1559.5,-163.9Z" shape-rendering="crispEdges"/><path fill="#8E899A" d="M1884.3,150.7L1811.7,9.3L1732.1,131.1Z" shape-rendering="crispEdges"/><path fill="#FFFFD9" d="M-215.5,-158.3L-30.4,-114.5L175.4,-132.3Z" shape-rendering="crispEdges"/><path fill="#FFFFD9" d="M42.2,-109.8L-30.4,-114.5L-50.2,-16.5Z" shape-rendering="crispEdges"/><path fill="#FAFDCD" d="M-50.2,-16.5L-193.2,118.7L-71,141.6Z" shape-rendering="crispEdges"/><path fill="#19307B" d="M1955.5,913.1L1870.6,811.4L1860.7,979.3Z" shape-rendering="crispEdges"/><path fill="#17367C" d="M1955.5,913.1L1965.3,844L1870.6,811.4Z" shape-rendering="crispEdges"/><path fill="#416B8B" d="M2115.3,429.7L2016.9,393.9L1951.4,561.5Z" shape-rendering="crispEdges"/><path fill="#898498" d="M-165.6,1202.2L-94.6,1252.3L-65.6,1110.3Z" shape-rendering="crispEdges"/><path fill="#898498" d="M-65.6,1110.3L-94.6,1252.3L97.4,1213Z" shape-rendering="crispEdges"/><path fill="#86838F" d="M97.4,1213L-94.6,1252.3L350.1,1242.4Z" shape-rendering="crispEdges"/><path fill="#7B7F86" d="M350.1,1242.4L-94.6,1252.3L784.9,1245.2Z" shape-rendering="crispEdges"/><path fill="#968EAD" d="M-214.3,1090.7L-67.6,969.8L-169.1,916.3Z" shape-rendering="crispEdges"/><path fill="#0D2162" d="M1995,1095.7L1860.7,979.3L1830,1059.6Z" shape-rendering="crispEdges"/><path fill="#11246A" d="M1995,1095.7L1955.5,913.1L1860.7,979.3Z" shape-rendering="crispEdges"/><path fill="#FCFED3" d="M-236.7,17.6L-193.2,118.7L-50.2,-16.5Z" shape-rendering="crispEdges"/><path fill="#D5EEC8" d="M-187.4,293.5L-236.7,17.6L-233.9,669Z" shape-rendering="crispEdges"/><path fill="#13256E" d="M1677.5,1255.5L1859,1190.8L1689.2,1069.4Z" shape-rendering="crispEdges"/><path fill="#9D96B9" d="M-229.7,781.9L-214.3,1090.7L-169.1,916.3Z" shape-rendering="crispEdges"/><path fill="#948CA9" d="M1820.3,-155.1L1743.8,-153L1811.7,9.3Z" shape-rendering="crispEdges"/><path fill="#978FAF" d="M1811.7,9.3L1743.8,-153L1695,11.6Z" shape-rendering="crispEdges"/><path fill="#5C7488" d="M2016.9,393.9L1881.4,257.8L1859.3,401.7Z" shape-rendering="crispEdges"/><path fill="#8E889F" d="M1957.3,-24.7L1820.3,-155.1L1811.7,9.3Z" shape-rendering="crispEdges"/><path fill="#436C8A" d="M2016.9,393.9L1859.3,401.7L1951.4,561.5Z" shape-rendering="crispEdges"/><path fill="#898498" d="M-214.3,1090.7L-165.6,1202.2L-65.6,1110.3Z" shape-rendering="crispEdges"/><path fill="#225A8B" d="M2126.7,661.7L1951.4,561.5L1950.7,662.6Z" shape-rendering="crispEdges"/><path fill="#8A8697" d="M1957.3,-24.7L1811.7,9.3L1884.3,150.7Z" shape-rendering="crispEdges"/><path fill="#9B91B5" d="M1743.8,-153L1820.3,-155.1L1559.5,-163.9Z" shape-rendering="crispEdges"/><path fill="#9D96BA" d="M1559.5,-163.9L1974.1,-167L1422.1,-169.2Z" shape-rendering="crispEdges"/><path fill="#FFFFD9" d="M-215.5,-158.3L-236.7,17.6L-50.2,-16.5Z" shape-rendering="crispEdges"/><path fill="#F5FBC5" d="M-193.2,118.7L-236.7,17.6L-187.4,293.5Z" shape-rendering="crispEdges"/><path fill="#7F8086" d="M2098.3,141.6L1985.4,105.2L1969.3,245.6Z" shape-rendering="crispEdges"/><path fill="#7E8086" d="M1969.3,245.6L1985.4,105.2L1884.3,150.7Z" shape-rendering="crispEdges"/><path fill="#17367C" d="M2153.6,928.7L2088.1,782.8L1965.3,844Z" shape-rendering="crispEdges"/><path fill="#184583" d="M1965.3,844L2088.1,782.8L1950.7,662.6Z" shape-rendering="crispEdges"/><path fill="#0A1E5B" d="M1859,1190.8L1995,1095.7L1830,1059.6Z" shape-rendering="crispEdges"/><path fill="#173079" d="M2153.6,928.7L1965.3,844L1955.5,913.1Z" shape-rendering="crispEdges"/><path fill="#777D87" d="M2153.1,274L2098.3,141.6L1969.3,245.6Z" shape-rendering="crispEdges"/><path fill="#86838E" d="M1985.4,105.2L1957.3,-24.7L1884.3,150.7Z" shape-rendering="crispEdges"/><path fill="#174081" d="M2153.6,928.7L2126.7,661.7L2088.1,782.8Z" shape-rendering="crispEdges"/><path fill="#1A4F88" d="M2088.1,782.8L2126.7,661.7L1950.7,662.6Z" shape-rendering="crispEdges"/><path fill="#898496" d="M1985.4,105.2L2111,-41.8L1957.3,-24.7Z" shape-rendering="crispEdges"/><path fill="#38688C" d="M2145.4,510.5L2115.3,429.7L1951.4,561.5Z" shape-rendering="crispEdges"/><path fill="#081D58" d="M1859,1190.8L1993.4,1219L1995,1095.7Z" shape-rendering="crispEdges"/><path fill="#13256E" d="M1995,1095.7L2153.6,928.7L1955.5,913.1Z" shape-rendering="crispEdges"/><path fill="#0D2161" d="M1677.5,1255.5L1993.4,1219L1859,1190.8Z" shape-rendering="crispEdges"/><path fill="#29608C" d="M2126.7,661.7L2145.4,510.5L1951.4,561.5Z" shape-rendering="crispEdges"/><path fill="#687887" d="M2153.1,274L1969.3,245.6L2016.9,393.9Z" shape-rendering="crispEdges"/><path fill="#FCFED1" d="M322.6,-167.5L-215.5,-158.3L175.4,-132.3Z" shape-rendering="crispEdges"/><path fill="#FFFFD9" d="M-30.4,-114.5L-215.5,-158.3L-50.2,-16.5Z" shape-rendering="crispEdges"/><path fill="#EAF7C6" d="M1056,-180.6L-215.5,-158.3L322.6,-167.5Z" shape-rendering="crispEdges"/><path fill="#577388" d="M2153.1,274L2016.9,393.9L2115.3,429.7Z" shape-rendering="crispEdges"/><path fill="#0C205F" d="M2146,1113.2L2153.6,928.7L1995,1095.7Z" shape-rendering="crispEdges"/><path fill="#1A5088" d="M2126.7,661.7L2153.6,928.7L2145.4,510.5Z" shape-rendering="crispEdges"/><path fill="#4C6F89" d="M2145.4,510.5L2153.1,274L2115.3,429.7Z" shape-rendering="crispEdges"/><path fill="#2A618C" d="M2153.6,928.7L2153.1,274L2145.4,510.5Z" shape-rendering="crispEdges"/><path fill="#898598" d="M1957.3,-24.7L1974.1,-167L1820.3,-155.1Z" shape-rendering="crispEdges"/><path fill="#948DAA" d="M1820.3,-155.1L1974.1,-167L1559.5,-163.9Z" shape-rendering="crispEdges"/><path fill="#9EA6C0" d="M1422.1,-169.2L1974.1,-167L1056,-180.6Z" shape-rendering="crispEdges"/><path fill="#898498" d="M2100.9,-146.6L1974.1,-167L1957.3,-24.7Z" shape-rendering="crispEdges"/><path fill="#86838F" d="M2111,-41.8L1985.4,105.2L2098.3,141.6Z" shape-rendering="crispEdges"/><path fill="#081D58" d="M1993.4,1219L2086.1,1215.9L1995,1095.7Z" shape-rendering="crispEdges"/><path fill="#081D58" d="M1677.5,1255.5L2086.1,1215.9L1993.4,1219Z" shape-rendering="crispEdges"/><path fill="#081D58" d="M2086.1,1215.9L2146,1113.2L1995,1095.7Z" shape-rendering="crispEdges"/><path fill="#838287" d="M2153.1,274L2111,-41.8L2098.3,141.6Z" shape-rendering="crispEdges"/><path fill="#888494" d="M2153.1,274L2100.9,-146.6L2111,-41.8Z" shape-rendering="crispEdges"/><path fill="#898498" d="M2111,-41.8L2100.9,-146.6L1957.3,-24.7Z" shape-rendering="crispEdges"/></svg>