<svg xmlns="http://www.w3.org/2000/svg" width="1920" height="1080"><path fill="#B5B5B5" d="M790.7,574.4L582.4,296.7L587.2,580.7Z" shape-rendering="crispEdges"/><path fill="#BBB" d="M790.7,574.4L895.4,302.9L582.4,296.7Z" shape-rendering="crispEdges"/><path fill="#ABABAB" d="M123.6,608.5L498.7,762.8L587.2,580.7Z" shape-rendering="crispEdges"/><path fill="#A1A1A1" d="M587.2,580.7L498.7,762.8L790.7,574.4Z" shape-rendering="crispEdges"/><path fill="#838383" d="M923.6,903.5L1090.8,610.7L790.7,574.4Z" shape-rendering="crispEdges"/><path fill="#9F9F9F" d="M790.7,574.4L1090.8,610.7L895.4,302.9Z" shape-rendering="crispEdges"/><path fill="silver" d="M1050.5,167.6L907.9,49.3L895.4,302.9Z" shape-rendering="crispEdges"/><path fill="#C9C9C9" d="M895.4,302.9L907.9,49.3L582.4,296.7Z" shape-rendering="crispEdges"/><path fill="#AAA" d="M1090.8,610.7L1050.5,167.6L895.4,302.9Z" shape-rendering="crispEdges"/><path fill="#DADADA" d="M907.9,49.3L550.9,-6.7L582.4,296.7Z" shape-rendering="crispEdges"/><path fill="silver" d="M582.4,296.7L123.6,608.5L587.2,580.7Z" shape-rendering="crispEdges"/><path fill="#C1C1C1" d="M1050.5,167.6L1029.6,59.9L907.9,49.3Z" shape-rendering="crispEdges"/><path fill="#DBDBDB" d="M907.9,49.3L787.4,-307.3L550.9,-6.7Z" shape-rendering="crispEdges"/><path fill="#8C8C8C" d="M498.7,762.8L923.6,903.5L790.7,574.4Z" shape-rendering="crispEdges"/><path fill="#E9E9E9" d="M215.7,-18.8L129,250.7L582.4,296.7Z" shape-rendering="crispEdges"/><path fill="#D6D6D6" d="M129,250.7L123.6,608.5L582.4,296.7Z" shape-rendering="crispEdges"/><path fill="#ABABAB" d="M123.6,608.5L168.8,721.5L498.7,762.8Z" shape-rendering="crispEdges"/><path fill="#707070" d="M498.7,762.8L724.4,1101.9L923.6,903.5Z" shape-rendering="crispEdges"/><path fill="#E8E8E8" d="M550.9,-6.7L215.7,-18.8L582.4,296.7Z" shape-rendering="crispEdges"/><path fill="#868686" d="M1368.6,526.5L1331.5,337.5L1090.8,610.7Z" shape-rendering="crispEdges"/><path fill="#9E9E9E" d="M1090.8,610.7L1331.5,337.5L1050.5,167.6Z" shape-rendering="crispEdges"/><path fill="#B8B8B8" d="M1050.5,167.6L1323.5,-50.4L1029.6,59.9Z" shape-rendering="crispEdges"/><path fill="#6D6D6D" d="M923.6,903.5L1164.9,888.3L1090.8,610.7Z" shape-rendering="crispEdges"/><path fill="#696969" d="M426.7,1227.1L724.4,1101.9L498.7,762.8Z" shape-rendering="crispEdges"/><path fill="#4A4A4A" d="M923.6,903.5L1167.8,1221.7L1164.9,888.3Z" shape-rendering="crispEdges"/><path fill="#717171" d="M1354,823.8L1368.6,526.5L1090.8,610.7Z" shape-rendering="crispEdges"/><path fill="#B2B2B2" d="M123.6,608.5L-98.9,740.9L168.8,721.5Z" shape-rendering="crispEdges"/><path fill="#CECECE" d="M-60.8,342L-45.9,563.7L123.6,608.5Z" shape-rendering="crispEdges"/><path fill="#DCDCDC" d="M-60.8,342L123.6,608.5L129,250.7Z" shape-rendering="crispEdges"/><path fill="#F4F4F4" d="M-135.2,-81.3L-60.8,342L129,250.7Z" shape-rendering="crispEdges"/><path fill="#C4C4C4" d="M1130.1,-290.7L907.9,49.3L1029.6,59.9Z" shape-rendering="crispEdges"/><path fill="#CBCBCB" d="M1130.1,-290.7L787.4,-307.3L907.9,49.3Z" shape-rendering="crispEdges"/><path fill="#F2F2F2" d="M550.9,-6.7L278.8,-323.9L215.7,-18.8Z" shape-rendering="crispEdges"/><path fill="#424242" d="M1511.9,1103.3L1354,823.8L1164.9,888.3Z" shape-rendering="crispEdges"/><path fill="#666" d="M1164.9,888.3L1354,823.8L1090.8,610.7Z" shape-rendering="crispEdges"/><path fill="#9C9C9C" d="M-98.9,740.9L215.1,1055.8L168.8,721.5Z" shape-rendering="crispEdges"/><path fill="#949494" d="M168.8,721.5L215.1,1055.8L498.7,762.8Z" shape-rendering="crispEdges"/><path fill="#9E9E9E" d="M1703.9,-37.4L1323.5,-50.4L1331.5,337.5Z" shape-rendering="crispEdges"/><path fill="#ABABAB" d="M1331.5,337.5L1323.5,-50.4L1050.5,167.6Z" shape-rendering="crispEdges"/><path fill="#E3E3E3" d="M787.4,-307.3L547.4,-360.5L550.9,-6.7Z" shape-rendering="crispEdges"/><path fill="#737373" d="M215.1,1055.8L426.7,1227.1L498.7,762.8Z" shape-rendering="crispEdges"/><path fill="#B1B1B1" d="M-367.4,839L-98.9,740.9L-468.7,566.7Z" shape-rendering="crispEdges"/><path fill="#BCBCBC" d="M-45.9,563.7L-98.9,740.9L123.6,608.5Z" shape-rendering="crispEdges"/><path fill="#B9B9B9" d="M1323.5,-50.4L1130.1,-290.7L1029.6,59.9Z" shape-rendering="crispEdges"/><path fill="#D5D5D5" d="M787.4,-307.3L1130.1,-290.7L547.4,-360.5Z" shape-rendering="crispEdges"/><path fill="#EDEDED" d="M547.4,-360.5L278.8,-323.9L550.9,-6.7Z" shape-rendering="crispEdges"/><path fill="#FAFAFA" d="M215.7,-18.8L-135.2,-81.3L129,250.7Z" shape-rendering="crispEdges"/><path fill="#616161" d="M426.7,1227.1L620.5,1351.2L724.4,1101.9Z" shape-rendering="crispEdges"/><path fill="#4B4B4B" d="M724.4,1101.9L1167.8,1221.7L923.6,903.5Z" shape-rendering="crispEdges"/><path fill="#4E4E4E" d="M773.2,1417.9L1167.8,1221.7L724.4,1101.9Z" shape-rendering="crispEdges"/><path fill="#FBFBFB" d="M278.8,-323.9L-135.2,-81.3L215.7,-18.8Z" shape-rendering="crispEdges"/><path fill="#D1D1D1" d="M-60.8,342L-468.7,566.7L-45.9,563.7Z" shape-rendering="crispEdges"/><path fill="#5B5B5B" d="M620.5,1351.2L773.2,1417.9L724.4,1101.9Z" shape-rendering="crispEdges"/><path fill="#636363" d="M1354,823.8L1710.2,572.4L1368.6,526.5Z" shape-rendering="crispEdges"/><path fill="gray" d="M1368.6,526.5L1779.7,342L1331.5,337.5Z" shape-rendering="crispEdges"/><path fill="#4D4D4D" d="M1782.4,724.5L1710.2,572.4L1354,823.8Z" shape-rendering="crispEdges"/><path fill="#F5F5F5" d="M-135.2,-81.3L-346.8,230.8L-60.8,342Z" shape-rendering="crispEdges"/><path fill="#6F6F6F" d="M215.1,1055.8L158.5,1356.6L426.7,1227.1Z" shape-rendering="crispEdges"/><path fill="#6A6A6A" d="M426.7,1227.1L158.5,1356.6L620.5,1351.2Z" shape-rendering="crispEdges"/><path fill="#646464" d="M620.5,1351.2L158.5,1356.6L773.2,1417.9Z" shape-rendering="crispEdges"/><path fill="#757575" d="M-172.9,1078.6L158.5,1356.6L215.1,1055.8Z" shape-rendering="crispEdges"/><path fill="#888" d="M-172.9,1078.6L215.1,1055.8L-98.9,740.9Z" shape-rendering="crispEdges"/><path fill="#313131" d="M1319.3,1383.7L1511.9,1103.3L1167.8,1221.7Z" shape-rendering="crispEdges"/><path fill="#363636" d="M1167.8,1221.7L1511.9,1103.3L1164.9,888.3Z" shape-rendering="crispEdges"/><path fill="#9E9E9E" d="M1703.9,-37.4L1446.9,-314.7L1323.5,-50.4Z" shape-rendering="crispEdges"/><path fill="#AFAFAF" d="M1323.5,-50.4L1446.9,-314.7L1130.1,-290.7Z" shape-rendering="crispEdges"/><path fill="#BEBEBE" d="M1130.1,-290.7L1617.7,-353L547.4,-360.5Z" shape-rendering="crispEdges"/><path fill="#959595" d="M-367.4,839L-172.9,1078.6L-98.9,740.9Z" shape-rendering="crispEdges"/><path fill="#686868" d="M1710.2,572.4L1779.7,342L1368.6,526.5Z" shape-rendering="crispEdges"/><path fill="#444" d="M773.2,1417.9L1186.5,1426.8L1167.8,1221.7Z" shape-rendering="crispEdges"/><path fill="#858585" d="M1779.7,342L1703.9,-37.4L1331.5,337.5Z" shape-rendering="crispEdges"/><path fill="#BEBEBE" d="M-468.7,566.7L-98.9,740.9L-45.9,563.7Z" shape-rendering="crispEdges"/><path fill="#515151" d="M1710.2,572.4L2082.6,615.4L1779.7,342Z" shape-rendering="crispEdges"/><path fill="#3B3B3B" d="M1511.9,1103.3L1782.4,724.5L1354,823.8Z" shape-rendering="crispEdges"/><path fill="#383838" d="M1186.5,1426.8L1319.3,1383.7L1167.8,1221.7Z" shape-rendering="crispEdges"/><path fill="#212121" d="M1511.9,1103.3L1793.4,1081.8L1782.4,724.5Z" shape-rendering="crispEdges"/><path fill="#F7F7F7" d="M547.4,-360.5L-49.4,-454L278.8,-323.9Z" shape-rendering="crispEdges"/><path fill="#FEFEFE" d="M278.8,-323.9L-49.4,-454L-135.2,-81.3Z" shape-rendering="crispEdges"/><path fill="#FDFDFD" d="M-135.2,-81.3L-408.5,-36.4L-346.8,230.8Z" shape-rendering="crispEdges"/><path fill="#DEDEDE" d="M1617.7,-353L-49.4,-454L547.4,-360.5Z" shape-rendering="crispEdges"/><path fill="#E0E0E0" d="M-346.8,230.8L-468.7,566.7L-60.8,342Z" shape-rendering="crispEdges"/><path fill="#FFF" d="M-316.7,-290.2L-408.5,-36.4L-135.2,-81.3Z" shape-rendering="crispEdges"/><path fill="#EDEDED" d="M-346.8,230.8L-408.5,-36.4L-468.7,566.7Z" shape-rendering="crispEdges"/><path fill="#5B5B5B" d="M2082.6,615.4L1886.3,236L1779.7,342Z" shape-rendering="crispEdges"/><path fill="#777" d="M1779.7,342L1886.3,236L1703.9,-37.4Z" shape-rendering="crispEdges"/><path fill="#949494" d="M1703.9,-37.4L1617.7,-353L1446.9,-314.7Z" shape-rendering="crispEdges"/><path fill="#A7A7A7" d="M1446.9,-314.7L1617.7,-353L1130.1,-290.7Z" shape-rendering="crispEdges"/><path fill="#828282" d="M2011.6,-115.4L1617.7,-353L1703.9,-37.4Z" shape-rendering="crispEdges"/><path fill="#FFF" d="M-49.4,-454L-316.7,-290.2L-135.2,-81.3Z" shape-rendering="crispEdges"/><path fill="#9E9E9E" d="M-468.7,566.7L-378.7,1123.6L-367.4,839Z" shape-rendering="crispEdges"/><path fill="gray" d="M-367.4,839L-378.7,1123.6L-172.9,1078.6Z" shape-rendering="crispEdges"/><path fill="#777" d="M-172.9,1078.6L-172,1378.3L158.5,1356.6Z" shape-rendering="crispEdges"/><path fill="#777" d="M-378.7,1123.6L-172,1378.3L-172.9,1078.6Z" shape-rendering="crispEdges"/><path fill="#727272" d="M158.5,1356.6L-365.9,1492.3L773.2,1417.9Z" shape-rendering="crispEdges"/><path fill="#1B1B1B" d="M1909.9,1397L1620.9,1309.9L1319.3,1383.7Z" shape-rendering="crispEdges"/><path fill="#272727" d="M1319.3,1383.7L1620.9,1309.9L1511.9,1103.3Z" shape-rendering="crispEdges"/><path fill="#191919" d="M1620.9,1309.9L1793.4,1081.8L1511.9,1103.3Z" shape-rendering="crispEdges"/><path fill="#424242" d="M1782.4,724.5L2082.6,615.4L1710.2,572.4Z" shape-rendering="crispEdges"/><path fill="#252525" d="M1793.4,1081.8L1971.8,815.4L1782.4,724.5Z" shape-rendering="crispEdges"/><path fill="#050505" d="M1909.9,1397L1922.8,1080.4L1793.4,1081.8Z" shape-rendering="crispEdges"/><path fill="#121212" d="M1793.4,1081.8L1922.8,1080.4L1971.8,815.4Z" shape-rendering="crispEdges"/><path fill="#353535" d="M1971.8,815.4L2082.6,615.4L1782.4,724.5Z" shape-rendering="crispEdges"/><path fill="#7A7A7A" d="M1886.3,236L2011.6,-115.4L1703.9,-37.4Z" shape-rendering="crispEdges"/><path fill="#3B3B3B" d="M2205.3,558.7L2082.6,615.4L2340,823.5Z" shape-rendering="crispEdges"/><path fill="#727272" d="M2221.4,161.2L2011.6,-115.4L1886.3,236Z" shape-rendering="crispEdges"/><path fill="#777" d="M-378.7,1123.6L-365.9,1492.3L-172,1378.3Z" shape-rendering="crispEdges"/><path fill="#777" d="M-172,1378.3L-365.9,1492.3L158.5,1356.6Z" shape-rendering="crispEdges"/><path fill="#646464" d="M773.2,1417.9L-365.9,1492.3L1186.5,1426.8Z" shape-rendering="crispEdges"/><path fill="#7A7A7A" d="M-468.7,566.7L-365.9,1492.3L-378.7,1123.6Z" shape-rendering="crispEdges"/><path fill="#313131" d="M2340,823.5L2082.6,615.4L1971.8,815.4Z" shape-rendering="crispEdges"/><path fill="#525252" d="M2082.6,615.4L2205.3,558.7L1886.3,236Z" shape-rendering="crispEdges"/><path fill="#0F0F0F" d="M1620.9,1309.9L1909.9,1397L1793.4,1081.8Z" shape-rendering="crispEdges"/><path fill="#191919" d="M2276.1,1133.1L2340,823.5L1971.8,815.4Z" shape-rendering="crispEdges"/><path fill="#282828" d="M1186.5,1426.8L1909.9,1397L1319.3,1383.7Z" shape-rendering="crispEdges"/><path fill="#0E0E0E" d="M2268.3,1446.8L1909.9,1397L1186.5,1426.8Z" shape-rendering="crispEdges"/><path fill="#626262" d="M2205.3,558.7L2221.4,161.2L1886.3,236Z" shape-rendering="crispEdges"/><path fill="#606060" d="M2340,823.5L2233.8,36.3L2221.4,161.2Z" shape-rendering="crispEdges"/><path fill="#767676" d="M2221.4,161.2L2233.8,36.3L2011.6,-115.4Z" shape-rendering="crispEdges"/><path fill="#777" d="M2179.2,-310.3L2083,-341.3L2011.6,-115.4Z" shape-rendering="crispEdges"/><path fill="#787878" d="M2011.6,-115.4L2083,-341.3L1617.7,-353Z" shape-rendering="crispEdges"/><path fill="#B5B5B5" d="M1617.7,-353L2083,-341.3L-49.4,-454Z" shape-rendering="crispEdges"/><path fill="#777" d="M2233.8,36.3L2179.2,-310.3L2011.6,-115.4Z" shape-rendering="crispEdges"/><path fill="#4C4C4C" d="M2205.3,558.7L2340,823.5L2221.4,161.2Z" shape-rendering="crispEdges"/><path fill="#0E0E0E" d="M2276.1,1133.1L1971.8,815.4L1922.8,1080.4Z" shape-rendering="crispEdges"/><path fill="#000" d="M1909.9,1397L2276.1,1133.1L1922.8,1080.4Z" shape-rendering="crispEdges"/><path fill="#444" d="M-365.9,1492.3L2268.3,1446.8L1186.5,1426.8Z" shape-rendering="crispEdges"/><path fill="#000" d="M1909.9,1397L2268.3,1446.8L2276.1,1133.1Z" shape-rendering="crispEdges"/><path fill="#000" d="M2276.1,1133.1L2268.3,1446.8L2340,823.5Z" shape-rendering="crispEdges"/></svg>