<svg xmlns="http://www.w3.org/2000/svg" width="1920" height="1080"><path fill="#F2D3C5" d="M969.8,467.6L1344.6,463.3L1032.6,208Z" shape-rendering="crispEdges"/><path fill="#E4AF9F" d="M1344.6,463.3L1211.7,152.3L1032.6,208Z" shape-rendering="crispEdges"/><path fill="#CACACA" d="M1287,873.3L1557.3,505.7L1344.6,463.3Z" shape-rendering="crispEdges"/><path fill="#CD9C8C" d="M1344.6,463.3L1672.8,250L1211.7,152.3Z" shape-rendering="crispEdges"/><path fill="#EEE" d="M969.8,467.6L1012,793L1344.6,463.3Z" shape-rendering="crispEdges"/><path fill="#D28884" d="M1211.7,152.3L975.6,-97.1L1032.6,208Z" shape-rendering="crispEdges"/><path fill="#FCCFB8" d="M629,178.1L634.5,552L969.8,467.6Z" shape-rendering="crispEdges"/><path fill="#AA7679" d="M1229.1,-188L975.6,-97.1L1211.7,152.3Z" shape-rendering="crispEdges"/><path fill="#CFCFCF" d="M1012,793L1287,873.3L1344.6,463.3Z" shape-rendering="crispEdges"/><path fill="#C2ABA0" d="M1557.3,505.7L1672.8,250L1344.6,463.3Z" shape-rendering="crispEdges"/><path fill="#F8BEA9" d="M629,178.1L969.8,467.6L1032.6,208Z" shape-rendering="crispEdges"/><path fill="#F6EDE9" d="M969.8,467.6L634.5,552L1012,793Z" shape-rendering="crispEdges"/><path fill="#DD8B82" d="M975.6,-97.1L629,178.1L1032.6,208Z" shape-rendering="crispEdges"/><path fill="#986568" d="M1549.2,-155.9L1229.1,-188L1211.7,152.3Z" shape-rendering="crispEdges"/><path fill="#A35F5C" d="M1672.8,250L1549.2,-155.9L1211.7,152.3Z" shape-rendering="crispEdges"/><path fill="#A7A7A7" d="M1287,873.3L1563,913.2L1557.3,505.7Z" shape-rendering="crispEdges"/><path fill="#94776A" d="M1865.4,605.8L1866.9,258.2L1672.8,250Z" shape-rendering="crispEdges"/><path fill="#B77C7C" d="M1031.3,-517.1L660.7,-142.6L975.6,-97.1Z" shape-rendering="crispEdges"/><path fill="#B4706B" d="M975.6,-97.1L660.7,-142.6L629,178.1Z" shape-rendering="crispEdges"/><path fill="#A69991" d="M1865.4,605.8L1672.8,250L1557.3,505.7Z" shape-rendering="crispEdges"/><path fill="#623438" d="M1672.8,250L1899.9,-119.3L1549.2,-155.9Z" shape-rendering="crispEdges"/><path fill="#999" d="M1563,913.2L1865.4,605.8L1557.3,505.7Z" shape-rendering="crispEdges"/><path fill="#DDCAC0" d="M634.5,552L626.6,905.6L1012,793Z" shape-rendering="crispEdges"/><path fill="#727272" d="M914,1271.4L1342,1255L1287,873.3Z" shape-rendering="crispEdges"/><path fill="#6F6F6F" d="M1287,873.3L1342,1255L1563,913.2Z" shape-rendering="crispEdges"/><path fill="#D5A594" d="M330.5,846.9L626.6,905.6L634.5,552Z" shape-rendering="crispEdges"/><path fill="#E37E63" d="M270.7,172.3L374,504.3L629,178.1Z" shape-rendering="crispEdges"/><path fill="#F7B699" d="M629,178.1L374,504.3L634.5,552Z" shape-rendering="crispEdges"/><path fill="#956266" d="M1561.4,-440.8L1273.4,-476.1L1229.1,-188Z" shape-rendering="crispEdges"/><path fill="#AF7A7D" d="M1229.1,-188L1031.3,-517.1L975.6,-97.1Z" shape-rendering="crispEdges"/><path fill="#717171" d="M1563,913.2L1882.4,877.2L1865.4,605.8Z" shape-rendering="crispEdges"/><path fill="#41171C" d="M2195.8,-147.5L1899.9,-119.3L1866.9,258.2Z" shape-rendering="crispEdges"/><path fill="#82756D" d="M2239.6,474.7L1866.9,258.2L1865.4,605.8Z" shape-rendering="crispEdges"/><path fill="#793834" d="M1866.9,258.2L1899.9,-119.3L1672.8,250Z" shape-rendering="crispEdges"/><path fill="#89575A" d="M1549.2,-155.9L1561.4,-440.8L1229.1,-188Z" shape-rendering="crispEdges"/><path fill="#979797" d="M914,1271.4L1287,873.3L1012,793Z" shape-rendering="crispEdges"/><path fill="#3E3E3E" d="M1563,913.2L1936.8,1193.2L1882.4,877.2Z" shape-rendering="crispEdges"/><path fill="#A77276" d="M1273.4,-476.1L1031.3,-517.1L1229.1,-188Z" shape-rendering="crispEdges"/><path fill="#A94F48" d="M298,-132L629,178.1L660.7,-142.6Z" shape-rendering="crispEdges"/><path fill="#B9403B" d="M298,-132L270.7,172.3L629,178.1Z" shape-rendering="crispEdges"/><path fill="#68393D" d="M1899.9,-119.3L1561.4,-440.8L1549.2,-155.9Z" shape-rendering="crispEdges"/><path fill="#8C595D" d="M1273.4,-476.1L1976.6,-446.5L1031.3,-517.1Z" shape-rendering="crispEdges"/><path fill="#9C938D" d="M626.6,905.6L914,1271.4L1012,793Z" shape-rendering="crispEdges"/><path fill="#535353" d="M1342,1255L1563.1,1220L1563,913.2Z" shape-rendering="crispEdges"/><path fill="#D78983" d="M-79.3,564.2L330.5,846.9L374,504.3Z" shape-rendering="crispEdges"/><path fill="#E8AE9F" d="M374,504.3L330.5,846.9L634.5,552Z" shape-rendering="crispEdges"/><path fill="#827167" d="M626.6,905.6L710.3,1233.9L914,1271.4Z" shape-rendering="crispEdges"/><path fill="#7D5546" d="M276.9,1214.4L710.3,1233.9L626.6,905.6Z" shape-rendering="crispEdges"/><path fill="#A74B44" d="M554.8,-458.1L298,-132L660.7,-142.6Z" shape-rendering="crispEdges"/><path fill="#B36F69" d="M1031.3,-517.1L554.8,-458.1L660.7,-142.6Z" shape-rendering="crispEdges"/><path fill="#737373" d="M2281.4,906.2L2239.6,474.7L1865.4,605.8Z" shape-rendering="crispEdges"/><path fill="#747474" d="M914,1271.4L1230.6,1483.9L1342,1255Z" shape-rendering="crispEdges"/><path fill="#4F4F4F" d="M1342,1255L1643.6,1592L1563.1,1220Z" shape-rendering="crispEdges"/><path fill="#7C7C7C" d="M1004,1526.5L1230.6,1483.9L914,1271.4Z" shape-rendering="crispEdges"/><path fill="#262626" d="M1964.6,1488.5L1936.8,1193.2L1563.1,1220Z" shape-rendering="crispEdges"/><path fill="#383838" d="M1563.1,1220L1936.8,1193.2L1563,913.2Z" shape-rendering="crispEdges"/><path fill="#5B5B5B" d="M1882.4,877.2L2281.4,906.2L1865.4,605.8Z" shape-rendering="crispEdges"/><path fill="#980F27" d="M-44.9,-103.6L25.3,219.1L270.7,172.3Z" shape-rendering="crispEdges"/><path fill="#D46351" d="M270.7,172.3L25.3,219.1L374,504.3Z" shape-rendering="crispEdges"/><path fill="#52252A" d="M1899.9,-119.3L1976.6,-446.5L1561.4,-440.8Z" shape-rendering="crispEdges"/><path fill="#724346" d="M1561.4,-440.8L1976.6,-446.5L1273.4,-476.1Z" shape-rendering="crispEdges"/><path fill="#41171C" d="M2195.8,-147.5L1976.6,-446.5L1899.9,-119.3Z" shape-rendering="crispEdges"/><path fill="#837973" d="M603.7,1515.6L1004,1526.5L914,1271.4Z" shape-rendering="crispEdges"/><path fill="#5F2122" d="M2326.9,169.5L2195.8,-147.5L1866.9,258.2Z" shape-rendering="crispEdges"/><path fill="#7D5446" d="M2239.6,474.7L2326.9,169.5L1866.9,258.2Z" shape-rendering="crispEdges"/><path fill="#B06259" d="M1031.3,-517.1L363.5,-512L554.8,-458.1Z" shape-rendering="crispEdges"/><path fill="#9F3838" d="M554.8,-458.1L363.5,-512L298,-132Z" shape-rendering="crispEdges"/><path fill="#880925" d="M298,-132L-44.9,-103.6L270.7,172.3Z" shape-rendering="crispEdges"/><path fill="#843F3C" d="M-47.1,848.5L276.9,1214.4L330.5,846.9Z" shape-rendering="crispEdges"/><path fill="#90594D" d="M330.5,846.9L276.9,1214.4L626.6,905.6Z" shape-rendering="crispEdges"/><path fill="#827066" d="M710.3,1233.9L603.7,1515.6L914,1271.4Z" shape-rendering="crispEdges"/><path fill="#2E2E2E" d="M1936.8,1193.2L2281.4,906.2L1882.4,877.2Z" shape-rendering="crispEdges"/><path fill="#837F7D" d="M2239.6,474.7L2281.4,906.2L2326.9,169.5Z" shape-rendering="crispEdges"/><path fill="#CB7A70" d="M25.3,219.1L-79.3,564.2L374,504.3Z" shape-rendering="crispEdges"/><path fill="#7C5445" d="M276.9,1214.4L603.7,1515.6L710.3,1233.9Z" shape-rendering="crispEdges"/><path fill="#A66A6A" d="M-79.3,564.2L-47.1,848.5L330.5,846.9Z" shape-rendering="crispEdges"/><path fill="#780422" d="M15.8,-474.6L-44.9,-103.6L298,-132Z" shape-rendering="crispEdges"/><path fill="#AD584E" d="M25.3,219.1L-304.6,192.3L-79.3,564.2Z" shape-rendering="crispEdges"/><path fill="#5D5D5D" d="M1230.6,1483.9L1643.6,1592L1342,1255Z" shape-rendering="crispEdges"/><path fill="#1A1A1A" d="M1936.8,1193.2L2215.9,1265.7L2281.4,906.2Z" shape-rendering="crispEdges"/><path fill="#696969" d="M1004,1526.5L1643.6,1592L1230.6,1483.9Z" shape-rendering="crispEdges"/><path fill="#82746B" d="M-308.3,1581.5L1643.6,1592L1004,1526.5Z" shape-rendering="crispEdges"/><path fill="#333" d="M1643.6,1592L1964.6,1488.5L1563.1,1220Z" shape-rendering="crispEdges"/><path fill="#1A1A1A" d="M1964.6,1488.5L2215.9,1265.7L1936.8,1193.2Z" shape-rendering="crispEdges"/><path fill="#754136" d="M276.9,1214.4L344.2,1507.9L603.7,1515.6Z" shape-rendering="crispEdges"/><path fill="#764539" d="M603.7,1515.6L-308.3,1581.5L1004,1526.5Z" shape-rendering="crispEdges"/><path fill="#632322" d="M-64.7,1456.1L344.2,1507.9L276.9,1214.4Z" shape-rendering="crispEdges"/><path fill="#8F1528" d="M363.5,-512L15.8,-474.6L298,-132Z" shape-rendering="crispEdges"/><path fill="#41171C" d="M2326.9,169.5L2301.8,-474.2L2195.8,-147.5Z" shape-rendering="crispEdges"/><path fill="#41171C" d="M2195.8,-147.5L2301.8,-474.2L1976.6,-446.5Z" shape-rendering="crispEdges"/><path fill="#582B2F" d="M1976.6,-446.5L2301.8,-474.2L1031.3,-517.1Z" shape-rendering="crispEdges"/><path fill="#613337" d="M-298.9,891L-79,1153.5L-47.1,848.5Z" shape-rendering="crispEdges"/><path fill="#4C1C20" d="M-47.1,848.5L-79,1153.5L276.9,1214.4Z" shape-rendering="crispEdges"/><path fill="#68001F" d="M-420.9,-81.9L-304.6,192.3L-44.9,-103.6Z" shape-rendering="crispEdges"/><path fill="#8A0A25" d="M-44.9,-103.6L-304.6,192.3L25.3,219.1Z" shape-rendering="crispEdges"/><path fill="#946164" d="M-79.3,564.2L-298.9,891L-47.1,848.5Z" shape-rendering="crispEdges"/><path fill="#A67275" d="M-391.9,544.7L-298.9,891L-79.3,564.2Z" shape-rendering="crispEdges"/><path fill="#B4726D" d="M-304.6,192.3L-391.9,544.7L-79.3,564.2Z" shape-rendering="crispEdges"/><path fill="#1A1A1A" d="M1643.6,1592L2291.3,1526.1L1964.6,1488.5Z" shape-rendering="crispEdges"/><path fill="#1A1A1A" d="M1964.6,1488.5L2291.3,1526.1L2215.9,1265.7Z" shape-rendering="crispEdges"/><path fill="#1A1A1A" d="M2215.9,1265.7L2291.3,1526.1L2281.4,906.2Z" shape-rendering="crispEdges"/><path fill="#4C4C4C" d="M2281.4,906.2L2291.3,1526.1L2326.9,169.5Z" shape-rendering="crispEdges"/><path fill="#41171C" d="M-274.8,1228.8L-64.7,1456.1L-79,1153.5Z" shape-rendering="crispEdges"/><path fill="#491A1E" d="M-79,1153.5L-64.7,1456.1L276.9,1214.4Z" shape-rendering="crispEdges"/><path fill="#67001F" d="M-283.8,-464.4L-420.9,-81.9L-44.9,-103.6Z" shape-rendering="crispEdges"/><path fill="#9D3536" d="M-304.6,192.3L-420.9,-81.9L-391.9,544.7Z" shape-rendering="crispEdges"/><path fill="#76464A" d="M-391.9,544.7L-274.8,1228.8L-298.9,891Z" shape-rendering="crispEdges"/><path fill="#41171C" d="M-298.9,891L-274.8,1228.8L-79,1153.5Z" shape-rendering="crispEdges"/><path fill="#6D0120" d="M363.5,-512L-283.8,-464.4L15.8,-474.6Z" shape-rendering="crispEdges"/><path fill="#67001F" d="M15.8,-474.6L-283.8,-464.4L-44.9,-103.6Z" shape-rendering="crispEdges"/><path fill="#41171C" d="M-391.9,544.7L-308.3,1581.5L-274.8,1228.8Z" shape-rendering="crispEdges"/><path fill="#41171C" d="M-274.8,1228.8L-308.3,1581.5L-64.7,1456.1Z" shape-rendering="crispEdges"/><path fill="#41171C" d="M-64.7,1456.1L-308.3,1581.5L344.2,1507.9Z" shape-rendering="crispEdges"/><path fill="#662624" d="M344.2,1507.9L-308.3,1581.5L603.7,1515.6Z" shape-rendering="crispEdges"/></svg>